<svg width="44" height="26" viewBox="0 0 44 26" fill="none" xmlns="http://www.w3.org/2000/svg">
<path d="M9.47653 10.908C9.54618 10.8458 9.63184 10.8044 9.72381 10.7884C9.81578 10.7725 9.91039 10.7826 9.99692 10.8176C10.0835 10.8526 10.1585 10.9111 10.2135 10.9865C10.2684 11.062 10.3012 11.1513 10.3081 11.2444L10.5575 14.6074C10.5634 14.6883 10.5889 14.7666 10.6318 14.8354C10.6747 14.9043 10.7337 14.9617 10.8037 15.0026L13.7157 16.7039C13.7962 16.751 13.8619 16.8197 13.9054 16.9021C13.9489 16.9846 13.9685 17.0776 13.9619 17.1706C13.9554 17.2636 13.923 17.3529 13.8683 17.4284C13.8137 17.504 13.739 17.5627 13.6528 17.5981L10.5312 18.8745C10.4562 18.9052 10.3897 18.9536 10.3375 19.0157C10.2854 19.0777 10.2491 19.1515 10.2318 19.2307L9.5135 22.5259C9.49358 22.6169 9.44861 22.7006 9.38365 22.7675C9.3187 22.8343 9.23634 22.8817 9.14589 22.9042C9.05544 22.9267 8.9605 22.9235 8.87177 22.895C8.78305 22.8664 8.70408 22.8136 8.64377 22.7425L6.4651 20.1685C6.41273 20.1066 6.34607 20.0584 6.2709 20.0279C6.19572 19.9975 6.11427 19.9859 6.03358 19.9939L2.67802 20.3289C2.58513 20.3383 2.49146 20.3215 2.40762 20.2804C2.32378 20.2393 2.25312 20.1756 2.20365 20.0964C2.15417 20.0172 2.12786 19.9257 2.12769 19.8324C2.12751 19.739 2.15349 19.6475 2.20266 19.5681L3.9777 16.7005C4.02039 16.6316 4.04568 16.5534 4.05142 16.4725C4.05716 16.3917 4.04316 16.3107 4.01064 16.2365L2.65477 13.1486C2.61722 13.0631 2.60432 12.9689 2.61754 12.8765C2.63076 12.7841 2.66957 12.6973 2.72957 12.6258C2.78958 12.5544 2.86839 12.5011 2.95709 12.4721C3.04578 12.4431 3.14082 12.4395 3.23146 12.4617L6.50724 13.2638C6.58599 13.2831 6.66824 13.283 6.74691 13.2634C6.82558 13.2438 6.89831 13.2054 6.95884 13.1515L9.47653 10.908ZM18.6079 5.53172L7.48381 1.03118L5.60859 5.66622L10.233 10.234L16.7327 10.1668L18.6079 5.53172Z" fill="noe" stroke="white" stroke-width="2" stroke-linecap="round" stroke-linejoin="round"/>
<path d="M34.208 10.908C34.1384 10.8458 34.0527 10.8044 33.9608 10.7884C33.8688 10.7725 33.7742 10.7826 33.6876 10.8176C33.6011 10.8526 33.5261 10.9111 33.4711 10.9865C33.4161 11.062 33.3834 11.1513 33.3765 11.2444L33.1271 14.6074C33.1212 14.6883 33.0957 14.7666 33.0528 14.8354C33.0099 14.9043 32.9509 14.9617 32.8808 15.0026L29.9688 16.7039C29.8884 16.751 29.8227 16.8197 29.7792 16.9021C29.7357 16.9846 29.7161 17.0776 29.7227 17.1706C29.7292 17.2636 29.7616 17.3529 29.8162 17.4284C29.8709 17.504 29.9455 17.5627 30.0318 17.5981L33.1534 18.8745C33.2284 18.9052 33.2949 18.9536 33.3471 19.0157C33.3992 19.0777 33.4355 19.1515 33.4528 19.2307L34.1711 22.5259C34.191 22.6169 34.236 22.7006 34.3009 22.7675C34.3659 22.8343 34.4482 22.8817 34.5387 22.9042C34.6291 22.9267 34.7241 22.9235 34.8128 22.895C34.9015 22.8664 34.9805 22.8136 35.0408 22.7425L37.2195 20.1685C37.2718 20.1066 37.3385 20.0584 37.4137 20.0279C37.4888 19.9975 37.5703 19.9859 37.651 19.9939L41.0065 20.3289C41.0994 20.3383 41.1931 20.3215 41.277 20.2804C41.3608 20.2393 41.4314 20.1756 41.4809 20.0964C41.5304 20.0172 41.5567 19.9257 41.5569 19.8324C41.5571 19.739 41.5311 19.6475 41.4819 19.5681L39.7069 16.7005C39.6642 16.6316 39.6389 16.5534 39.6332 16.4725C39.6274 16.3917 39.6414 16.3107 39.6739 16.2365L41.0298 13.1486C41.0674 13.0631 41.0802 12.9689 41.067 12.8765C41.0538 12.7841 41.015 12.6973 40.955 12.6258C40.895 12.5544 40.8162 12.5011 40.7275 12.4721C40.6388 12.4431 40.5437 12.4395 40.4531 12.4617L37.1773 13.2638C37.0986 13.2831 37.0163 13.283 36.9377 13.2634C36.859 13.2438 36.7863 13.2054 36.7257 13.1515L34.208 10.908ZM25.0767 5.53172L36.2008 1.03118L38.076 5.66622L33.4515 10.234L26.9519 10.1668L25.0767 5.53172Z" fill="none" stroke="white" stroke-width="2" stroke-linecap="round" stroke-linejoin="round"/>
<path d="M21.6346 13.4085C21.6759 13.3248 21.7398 13.2543 21.819 13.205C21.8983 13.1556 21.9898 13.1295 22.0831 13.1295C22.1765 13.1295 22.268 13.1556 22.3472 13.205C22.4265 13.2543 22.4904 13.3248 22.5316 13.4085L24.0241 16.4325C24.06 16.5053 24.113 16.5683 24.1786 16.616C24.2441 16.6637 24.3204 16.6948 24.4006 16.7065L27.7381 17.1915C27.8304 17.205 27.917 17.244 27.9883 17.3041C28.0595 17.3642 28.1126 17.4431 28.1414 17.5317C28.1702 17.6204 28.1736 17.7154 28.1513 17.8059C28.129 17.8964 28.0818 17.9789 28.0151 18.044L25.6001 20.398C25.5421 20.4546 25.4986 20.5244 25.4735 20.6015C25.4484 20.6786 25.4425 20.7606 25.4561 20.8405L26.0261 24.1645C26.0418 24.2564 26.0315 24.3508 25.9964 24.4372C25.9612 24.5235 25.9027 24.5983 25.8273 24.6531C25.7519 24.7079 25.6626 24.7405 25.5697 24.7473C25.4767 24.7541 25.3837 24.7348 25.3011 24.6915L22.3161 23.1225C22.2444 23.0847 22.1645 23.065 22.0834 23.065C22.0023 23.065 21.9224 23.0847 21.8506 23.1225L18.8656 24.6915C18.7831 24.7351 18.6899 24.7546 18.5968 24.748C18.5037 24.7413 18.4143 24.7087 18.3387 24.6539C18.2631 24.599 18.2044 24.5241 18.1693 24.4376C18.1341 24.3511 18.1238 24.2565 18.1396 24.1645L18.7096 20.8405C18.7234 20.7606 18.7175 20.6786 18.6925 20.6015C18.6675 20.5245 18.6241 20.4546 18.5661 20.398L16.1511 18.044C16.0843 17.9789 16.037 17.8964 16.0146 17.8058C15.9922 17.7152 15.9956 17.6201 16.0244 17.5314C16.0533 17.4426 16.1064 17.3637 16.1777 17.3036C16.249 17.2434 16.3358 17.2044 16.4281 17.191L19.7656 16.706C19.8459 16.6944 19.9221 16.6634 19.9877 16.6157C20.0532 16.5681 20.1063 16.5052 20.1421 16.4325L21.6346 13.4085ZM28.0831 5H16.0831V10L22.0831 12.5L28.0831 10V5Z" fill="#FCCD03" stroke="black" stroke-width="2" stroke-linecap="round" stroke-linejoin="round"/>
</svg>
