<svg width="18" height="18" viewBox="0 0 18 18" fill="none" xmlns="http://www.w3.org/2000/svg">
<path d="M17.033 8.5338C17.3939 9.01075 17.5938 9.59512 17.5938 10.2031C17.5938 11.1678 17.0545 12.0809 16.1865 12.59C15.9631 12.7211 15.7087 12.7901 15.4496 12.7898H10.2977L10.4266 15.4303C10.4566 16.0684 10.2311 16.6742 9.79277 17.1361C9.57768 17.3638 9.31819 17.545 9.03033 17.6684C8.74246 17.7918 8.43235 17.8549 8.11914 17.8537C7.00195 17.8537 6.01367 17.1018 5.71719 16.0254L3.87168 9.34376H1.09375C0.713477 9.34376 0.40625 9.03653 0.40625 8.65626V0.835947C0.40625 0.455675 0.713477 0.148449 1.09375 0.148449H14.0123C14.21 0.148449 14.4033 0.18712 14.5816 0.264463C15.6043 0.700598 16.2639 1.69962 16.2639 2.80821C16.2639 3.07892 16.2252 3.34532 16.1479 3.60313C16.5088 4.08009 16.7086 4.66446 16.7086 5.27247C16.7086 5.54317 16.6699 5.80958 16.5926 6.06739C16.9535 6.54434 17.1533 7.12872 17.1533 7.73673C17.149 8.00743 17.1104 8.27598 17.033 8.5338ZM1.95312 1.69532V7.79688H3.69336V1.69532H1.95312ZM15.6258 9.2793L15.1553 8.8711L15.4539 8.3254C15.5523 8.14564 15.6033 7.94379 15.6021 7.73887C15.6021 7.38438 15.4475 7.04708 15.1811 6.81505L14.7105 6.40684L15.0092 5.86114C15.1076 5.68138 15.1586 5.47954 15.1574 5.27462C15.1574 4.92013 15.0027 4.58282 14.7363 4.35079L14.2658 3.94259L14.5645 3.39688C14.6628 3.21712 14.7139 3.01528 14.7127 2.81036C14.7127 2.32911 14.4291 1.89513 13.9908 1.69747H5.06836V7.86563L7.20605 15.6107C7.26118 15.8093 7.37951 15.9844 7.54311 16.1096C7.70671 16.2348 7.90667 16.3033 8.1127 16.3047C8.27598 16.3047 8.43711 16.2574 8.56602 16.1607C8.77871 16.0018 8.89258 15.7611 8.87969 15.5055L8.67344 11.243H15.4281C15.8105 11.0088 16.0469 10.6135 16.0469 10.2031C16.0469 9.84864 15.8922 9.51348 15.6258 9.2793Z" fill="#1C3C6B"/>
</svg>
