<svg width="18" height="18" viewBox="0 0 18 18" fill="none" xmlns="http://www.w3.org/2000/svg">
<path d="M0.966991 9.4662C0.606054 8.98925 0.406249 8.40488 0.406249 7.79687C0.406249 6.83222 0.945507 5.91913 1.81348 5.40995C2.03693 5.27889 2.29134 5.20991 2.55039 5.21015L7.70234 5.21015L7.57344 2.56972C7.54336 1.93164 7.76894 1.32578 8.20723 0.863864C8.42232 0.63619 8.68181 0.455044 8.96967 0.331621C9.25754 0.208198 9.56765 0.145121 9.88086 0.146286C10.998 0.146286 11.9863 0.898239 12.2828 1.97461L14.1283 8.65624L16.9062 8.65624C17.2865 8.65624 17.5937 8.96347 17.5937 9.34374L17.5937 17.1641C17.5937 17.5443 17.2865 17.8516 16.9062 17.8516L3.98769 17.8515C3.79004 17.8515 3.59668 17.8129 3.41836 17.7355C2.3957 17.2994 1.73613 16.3004 1.73613 15.1918C1.73613 14.9211 1.7748 14.6547 1.85215 14.3969C1.49121 13.9199 1.29141 13.3355 1.29141 12.7275C1.29141 12.4568 1.33008 12.1904 1.40742 11.9326C1.04648 11.4557 0.846679 10.8713 0.846679 10.2633C0.850976 9.99257 0.889648 9.72402 0.966991 9.4662ZM16.0469 16.3047L16.0469 10.2031L14.3066 10.2031L14.3066 16.3047L16.0469 16.3047ZM2.37422 8.7207L2.84473 9.1289L2.54609 9.6746C2.44771 9.85436 2.39669 10.0562 2.39785 10.2611C2.39785 10.6156 2.55254 10.9529 2.81894 11.185L3.28945 11.5932L2.99082 12.1389C2.89243 12.3186 2.84142 12.5205 2.84258 12.7254C2.84258 13.0799 2.99726 13.4172 3.26367 13.6492L3.73418 14.0574L3.43555 14.6031C3.33716 14.7829 3.28614 14.9847 3.2873 15.1896C3.2873 15.6709 3.5709 16.1049 4.00918 16.3025L12.9316 16.3025L12.9316 10.1344L10.7939 2.38925C10.7388 2.19074 10.6205 2.0156 10.4569 1.89038C10.2933 1.76516 10.0933 1.69667 9.8873 1.69531C9.72402 1.69531 9.56289 1.74257 9.43398 1.83925C9.22129 1.99824 9.10742 2.23886 9.12031 2.49453L9.32656 6.75703L2.57187 6.75702C2.18945 6.9912 1.95312 7.38652 1.95312 7.79687C1.95312 8.15136 2.10781 8.48652 2.37422 8.7207Z" fill="#1C3C6B"/>
</svg>
