<svg width="18" height="18" viewBox="0 0 18 18" fill="none" xmlns="http://www.w3.org/2000/svg">
<path d="M17.033 8.53383C17.3939 9.01078 17.5938 9.59515 17.5938 10.2032C17.5938 11.1678 17.0545 12.0809 16.1865 12.5901C15.9631 12.7211 15.7087 12.7901 15.4496 12.7899L10.2977 12.7899L10.4266 15.4303C10.4566 16.0684 10.2311 16.6743 9.79277 17.1362C9.57768 17.3638 9.31819 17.545 9.03033 17.6684C8.74246 17.7918 8.43235 17.8549 8.11914 17.8537C7.00195 17.8537 6.01367 17.1018 5.71719 16.0254L3.87168 9.34379H3.86523L3.86523 0.148481H14.0123C14.21 0.148481 14.4033 0.187155 14.5816 0.264498C15.6043 0.70063 16.2639 1.69965 16.2639 2.80825C16.2639 3.07895 16.2252 3.34536 16.1479 3.60317C16.5088 4.08012 16.7086 4.66449 16.7086 5.2725C16.7086 5.54321 16.6699 5.80961 16.5926 6.06742C16.9535 6.54438 17.1533 7.12875 17.1533 7.73676C17.149 8.00746 17.1104 8.27602 17.033 8.53383ZM0.40625 8.65629L0.40625 0.835981C0.40625 0.455708 0.713477 0.148481 1.09375 0.148481H2.49023L2.49023 9.34379H1.09375C0.713477 9.34379 0.40625 9.03656 0.40625 8.65629Z" fill="#EA5455"/>
</svg>
