<svg width="18" height="18" viewBox="0 0 18 18" fill="none" xmlns="http://www.w3.org/2000/svg">
<path d="M17.033 9.4662C17.3939 8.98925 17.5938 8.40488 17.5938 7.79687C17.5938 6.83222 17.0545 5.91913 16.1865 5.40996C15.9631 5.27889 15.7087 5.20991 15.4496 5.21015H10.2977L10.4266 2.56972C10.4566 1.93164 10.2311 1.32578 9.79277 0.863864C9.57768 0.63619 9.31819 0.455045 9.03033 0.331622C8.74246 0.208199 8.43235 0.145121 8.11914 0.146287C7.00195 0.146287 6.01367 0.898239 5.71719 1.97461L3.87168 8.65624H3.86523V17.8515H14.0123C14.21 17.8515 14.4033 17.8129 14.5816 17.7355C15.6043 17.2994 16.2639 16.3004 16.2639 15.1918C16.2639 14.9211 16.2252 14.6547 16.1479 14.3969C16.5088 13.9199 16.7086 13.3355 16.7086 12.7275C16.7086 12.4568 16.6699 12.1904 16.5926 11.9326C16.9535 11.4557 17.1533 10.8713 17.1533 10.2633C17.149 9.99257 17.1104 9.72402 17.033 9.4662ZM0.40625 9.34374V17.164C0.40625 17.5443 0.713477 17.8515 1.09375 17.8515H2.49023V8.65624H1.09375C0.713477 8.65624 0.40625 8.96347 0.40625 9.34374Z" fill="#1C3C6B"/>
</svg>
