<svg width="86" height="78" viewBox="0 0 86 78" fill="none" xmlns="http://www.w3.org/2000/svg">
<path d="M43.0002 39L53.4168 47.3333M43.0002 39V76.5V39ZM43.0002 39L32.5835 47.3333L43.0002 39Z" stroke="#1C3C6B" stroke-width="2" stroke-linecap="round" stroke-linejoin="round"/>
<path d="M13.975 26.9874C10.0343 27.9791 6.5912 30.3756 4.29276 33.7268C1.99433 37.0779 0.998719 41.1531 1.49299 45.1865C1.98726 49.22 3.93739 52.9342 6.97698 55.6312C10.0166 58.3282 13.9364 59.8225 18 59.8333H22.1667" stroke="#1C3C6B" stroke-width="2" stroke-linecap="round" stroke-linejoin="round"/>
<path d="M58.9583 18.7416C57.5342 13.1023 54.0191 8.21555 49.1255 5.07187C44.232 1.92819 38.3261 0.762841 32.6052 1.81206C26.8843 2.86128 21.7764 6.04657 18.3169 10.7222C14.8575 15.3979 13.3053 21.214 13.975 26.9916C13.975 26.9916 14.6125 30.6666 15.9167 32.75" stroke="#1C3C6B" stroke-width="2" stroke-linecap="round" stroke-linejoin="round"/>
<path d="M63.8334 59.8333C66.7752 59.8313 69.6833 59.2063 72.3662 57.9994C75.049 56.7925 77.4459 55.0311 79.3989 52.8311C81.352 50.6311 82.817 48.0425 83.6975 45.2355C84.578 42.4285 84.8541 39.4669 84.5075 36.5456C84.1609 33.6242 83.1995 30.8094 81.6867 28.2864C80.1739 25.7633 78.1438 23.5893 75.7302 21.9074C73.3166 20.2255 70.5742 19.0738 67.6834 18.5281C64.7926 17.9825 61.819 18.0552 58.9584 18.7416L53.4167 20.25" stroke="#1C3C6B" stroke-width="2" stroke-linecap="round" stroke-linejoin="round"/>
</svg>
