<svg width="89" height="80" viewBox="0 0 89 80" fill="none" xmlns="http://www.w3.org/2000/svg">
<path d="M87.777 69.0277C87.365 69.8477 86.341 70.5077 85.405 70.2357C85.477 70.8597 85.353 71.5276 85.113 72.0676C84.545 73.3356 83.493 74.3197 82.369 75.1077C81.009 76.0637 79.537 76.6676 77.969 77.1877C76.973 77.5196 75.985 77.8677 74.9969 78.2277C73.8689 78.8317 72.705 79.3557 71.441 79.6357C69.953 79.9677 68.245 80.1237 66.729 79.8757C65.625 79.6957 64.677 79.1396 64.169 78.1877C63.489 77.6597 62.833 77.1357 62.237 76.5437C61.393 76.0837 60.533 75.6917 59.645 75.3157C58.761 74.9397 57.805 74.6877 56.937 74.2797C57.145 74.6877 57.217 75.1357 56.933 75.6517C56.433 76.5757 55.433 76.9437 54.445 76.5997C54.437 76.5997 54.437 76.5917 54.429 76.5917C54.409 76.6037 54.393 76.6157 54.373 76.6277C54.009 76.8397 53.337 77.0637 52.989 76.7477C52.973 76.7357 52.9649 76.7237 52.9569 76.7077C51.8929 77.2877 50.241 76.8877 49.245 76.5277C49.169 76.5637 49.0889 76.5997 49.0049 76.6277C48.2449 76.8797 47.469 76.8077 46.741 76.5477C46.129 76.4077 45.5409 76.1357 45.1049 75.8117C43.9249 74.9317 43.2569 73.5717 42.9049 72.1717C42.5209 72.1357 42.1729 71.9637 41.7969 71.8717C41.4129 71.7797 41.025 71.7037 40.633 71.6676C39.813 71.5917 38.925 71.5676 38.125 71.8196C37.945 72.3277 37.597 73.1917 37.317 73.6396C37.081 74.0156 36.837 74.4996 36.521 74.8157C35.569 75.7757 33.589 76.5597 32.189 75.7957C32.169 75.8197 32.1449 75.8437 32.1089 75.8557C31.1689 76.2477 29.9289 76.2477 29.1529 75.6396C29.1449 75.6436 29.141 75.6477 29.133 75.6517C28.437 75.8717 27.7489 76.0237 27.0689 75.6797C26.9409 75.6157 26.833 75.5317 26.737 75.4357C26.717 75.4557 26.6929 75.4677 26.6609 75.4757C25.8729 75.6477 24.7609 75.4717 24.3569 74.6757C24.2249 74.4117 24.1849 74.1437 24.2089 73.8757C23.7289 74.1757 23.125 74.3597 22.633 74.6117C21.981 74.9477 21.4569 75.3957 20.8529 75.7957C20.8249 75.8117 20.7969 75.8037 20.7729 75.7837C19.9489 76.5557 19.001 77.2277 18.045 77.6717C17.953 77.7117 17.8849 77.6677 17.8529 77.5997C17.5009 77.9797 17.069 78.2917 16.533 78.5077C14.361 79.3677 12.0209 78.6277 10.4609 76.9597C9.64893 76.0917 9.12494 75.0117 8.42094 74.0636C7.63694 73.0036 6.60491 72.1677 5.59691 71.3277C4.26091 70.2197 2.19694 68.2677 2.78094 66.3837C1.79694 66.6037 0.304918 66.4357 0.0569174 65.2757C-0.123083 64.4317 0.0929134 62.9917 1.15291 62.9077C1.14491 62.8717 1.13294 62.8357 1.12494 62.7997C0.968935 62.1117 0.996939 61.1796 1.52894 60.6436C1.92894 60.2396 2.63292 59.8716 3.20892 60.0716C3.26492 59.4076 3.58094 58.7877 4.07694 58.3517C4.46094 58.0117 4.98493 57.6117 5.51293 57.8077C5.65293 56.8797 6.22894 56.0636 7.32894 55.7996C7.63294 55.7236 7.92893 55.7076 8.21693 55.7276C8.90093 53.9757 9.91696 52.2596 11.093 50.7956C11.685 50.0596 12.3889 49.3356 13.2289 48.8836C13.6249 48.6676 14.0329 48.4916 14.4649 48.3596C14.6089 48.3157 14.7689 48.3036 14.9289 48.3076C14.7969 48.2436 14.6649 48.1876 14.5169 48.1516C14.3129 48.0996 14.105 48.0716 13.893 48.0556C13.773 48.0916 13.6489 48.1276 13.5289 48.1636C13.4929 48.1756 13.4729 48.1317 13.5009 48.1117C14.4969 47.3557 15.653 47.3276 16.833 47.4716C16.577 46.8036 16.3489 46.1196 16.1569 45.4156C15.2449 42.0796 15.0689 38.1716 15.2489 34.7356C15.8489 23.4596 21.365 13.4476 30.437 6.81561C33.433 4.62761 36.953 3.19162 40.721 3.50762C42.401 3.64762 44.065 4.05561 45.721 4.37161C47.425 4.69561 49.133 5.03962 50.793 5.55162C53.861 6.49562 56.469 8.19562 58.681 10.5236C60.901 12.8636 62.697 15.5356 63.833 18.5676C64.321 19.8796 64.733 21.2156 65.117 22.5596C65.121 22.5636 65.125 22.5636 65.129 22.5716C65.673 23.9276 66.217 25.3596 66.581 26.7796C66.937 28.1716 67.181 29.5836 67.393 31.0036C67.841 33.9876 68.329 36.9676 68.541 39.9836C68.669 41.7756 68.697 43.6036 68.593 45.4236C69.181 45.0636 70.185 45.0676 70.797 45.0996C71.729 45.1436 72.633 45.4236 73.293 46.1156C73.301 46.1236 73.305 46.1316 73.305 46.1396C73.353 46.1796 73.401 46.2276 73.449 46.2716C73.473 46.2956 73.449 46.3436 73.417 46.3236C72.877 46.0396 72.313 45.9796 71.741 45.9876C72.945 46.2956 73.925 47.4196 74.737 48.2676C75.745 49.3316 76.701 50.7157 77.177 52.1117C77.717 53.6917 77.957 55.2796 77.901 56.9476C77.857 58.1676 77.797 59.4556 77.433 60.6396C77.709 60.4476 77.985 60.2597 78.265 60.0797C78.733 59.2237 79.429 58.5117 80.373 58.0557C81.577 57.4717 83.653 57.1716 84.433 58.5996C84.893 59.4436 84.809 60.4557 84.485 61.3557C85.909 61.3277 86.413 62.9197 85.973 64.1117C86.501 64.3637 86.857 64.6917 86.993 65.2837C87.073 65.6357 87.045 66.0397 86.945 66.4117C86.949 66.4117 86.953 66.4116 86.957 66.4156C87.961 66.9676 88.313 67.9957 87.781 69.0477L87.777 69.0277Z" fill="#BA6700"/>
<path opacity="0.2" d="M74.7289 48.2476C75.7369 49.3116 76.6928 50.6956 77.1688 52.0916C77.5688 53.2636 77.8049 54.4396 77.8769 55.6476C77.8529 55.8476 77.8289 56.0436 77.7929 56.2436C77.5769 57.4836 77.0128 58.6076 76.0688 59.4516C74.8648 60.5276 73.1848 60.8277 71.8648 61.7317C70.7608 62.4877 70.1048 63.7516 68.8968 64.3716C68.2568 64.6996 67.3768 64.7037 67.0648 63.9557C66.8568 63.4557 66.9208 62.8397 66.9768 62.3117C67.3088 59.2077 68.9048 56.4676 69.5488 53.4436C69.7808 52.3556 69.8209 51.2556 69.7369 50.1556C69.6569 49.0556 69.5049 47.9076 69.8409 46.8316C70.1169 45.9516 70.9489 45.3236 71.8409 45.2396C72.3769 45.3956 72.8769 45.6636 73.2809 46.0876C73.2889 46.0956 73.2929 46.1036 73.2929 46.1116C73.3409 46.1516 73.3889 46.1996 73.4369 46.2436C73.4609 46.2676 73.4368 46.3156 73.4048 46.2956C72.8648 46.0116 72.3008 45.9516 71.7288 45.9596C72.9328 46.2676 73.9128 47.3916 74.7248 48.2396L74.7289 48.2476Z" fill="#EFAC6F"/>
<path opacity="0.2" d="M66.125 33.4917C66.573 37.0357 66.437 40.5077 65.505 43.9677C64.613 47.2837 63.053 50.2157 61.137 53.0357C59.537 55.3917 57.781 57.8037 55.277 59.2677C54.181 59.9077 52.685 60.4997 51.393 60.3077C50.509 60.1757 50.229 59.4037 50.237 58.6077C50.257 56.7837 51.217 54.9277 51.981 53.3157C53.361 50.4037 55.185 47.7517 56.957 45.0677C57.933 43.5877 58.817 42.0517 59.793 40.5797C60.701 39.2157 61.609 37.8877 62.245 36.3677C63.237 33.9957 63.913 31.4757 64.029 28.9037C64.105 28.4477 64.213 27.9997 64.397 27.5757C65.225 28.0917 65.473 29.3517 65.661 30.2237C65.889 31.2997 65.985 32.3957 66.121 33.4837L66.125 33.4917Z" fill="#EFAC6F"/>
<path opacity="0.2" d="M27.6051 51.0957C27.8011 52.3837 27.6891 54.6077 25.9651 54.7557C25.2611 54.8157 24.5571 54.3317 24.0171 53.9437C23.4371 53.5237 22.8891 53.0637 22.3731 52.5677C21.3451 51.5917 20.4811 50.4517 19.7331 49.2517C18.2331 46.8357 17.2851 44.0957 16.7171 41.3197C16.1611 38.5837 16.0651 35.7677 16.2731 32.9917C16.4611 30.4917 16.925 27.9237 17.901 25.5917C17.957 25.6357 18.065 25.6277 18.101 25.5397C18.285 25.0917 18.3931 24.6117 18.6091 24.1717C18.7931 23.7957 19.1771 23.5117 19.4851 23.9997C19.6691 24.2837 19.6051 24.7397 19.5851 25.0637C19.4971 26.8197 19.2011 28.6117 19.2931 30.3677C19.4571 33.4317 21.0531 36.0437 22.6891 38.5397C23.6051 39.9317 24.4291 41.3157 25.0611 42.8637C25.6811 44.3877 26.1611 45.9637 26.6611 47.5277C27.0371 48.6997 27.4171 49.8757 27.6011 51.0997L27.6051 51.0957Z" fill="#EFAC6F"/>
<path opacity="0.2" d="M21.037 16.7076C23.485 12.9196 26.649 9.55961 30.433 6.79561C33.429 4.60761 36.949 3.1716 40.717 3.4876C42.397 3.6276 44.061 4.03562 45.717 4.35162C47.421 4.67562 49.129 5.01962 50.789 5.53162C53.857 6.47562 56.465 8.17562 58.677 10.5036C60.517 12.4436 62.069 14.6156 63.189 17.0276C63.233 17.3436 63.273 17.6596 63.313 17.9796C63.385 18.5796 63.405 19.2116 63.289 19.8076C63.121 20.6916 62.301 20.6836 61.809 20.1196C61.433 19.6956 61.189 19.1356 60.937 18.6316C60.645 18.0476 60.313 17.5036 59.945 16.9636C56.761 12.2596 51.853 8.72762 46.245 7.62361C43.133 7.01161 39.909 7.25962 36.857 8.05162C35.265 8.46762 33.721 9.05961 32.237 9.76761C31.029 10.3436 29.709 10.9876 28.673 11.8476C27.301 12.9836 26.117 14.3556 24.789 15.5476C24.309 15.9796 21.253 18.8356 21.045 16.9476C21.033 16.8676 21.037 16.7876 21.037 16.7076Z" fill="#EFAC6F"/>
<path d="M62.8849 18.3036C60.4529 14.4796 58.2409 10.2156 54.1489 7.86761C52.1049 6.69561 49.8849 5.91161 47.5889 5.37161C45.1689 4.80361 42.5449 4.18761 40.0449 4.27561C31.5049 4.56761 25.9209 12.3036 20.8969 18.1476C20.8529 18.1996 20.7809 18.1356 20.8169 18.0796C25.2849 11.5756 32.2489 3.62361 40.9289 3.89161C43.4369 3.96761 46.0569 4.53162 48.4729 5.18362C50.6449 5.77162 52.8129 6.52761 54.7129 7.74761C58.5649 10.2276 61.0409 14.2156 62.9649 18.2556C62.9889 18.3036 62.9089 18.3436 62.8809 18.2996L62.8849 18.3036Z" fill="#E29D55"/>
<path opacity="0.2" d="M13.4929 48.0957C13.8449 47.8317 14.2129 47.6557 14.6009 47.5437C15.2009 47.5117 15.7849 47.6557 16.3009 48.1117C17.1849 48.8957 17.5569 50.2037 17.8729 51.2957C18.4049 53.1437 18.8169 55.0717 19.0209 56.9837C19.1809 58.5117 19.3649 60.3597 18.7249 61.7997C18.5409 62.2117 18.2369 62.6157 17.8049 62.7757C17.3969 62.9237 16.9609 62.6437 16.6569 62.4077C16.0449 61.9237 15.6649 61.2157 15.2569 60.5677C14.4729 59.3397 13.5249 58.2317 12.4129 57.2917C11.3329 56.3797 9.7849 55.8197 9.8009 54.1797C9.8129 52.8437 10.7849 51.5637 11.5649 50.5557C11.9209 50.0997 12.2969 49.6597 12.6729 49.2197C12.8489 49.0917 13.0329 48.9757 13.2209 48.8717C13.6169 48.6557 14.0249 48.4797 14.4569 48.3477C14.6009 48.3037 14.7609 48.2917 14.9209 48.2957C14.7889 48.2317 14.6569 48.1757 14.5089 48.1397C14.3049 48.0877 14.0969 48.0597 13.8849 48.0437C13.7649 48.0797 13.6409 48.1157 13.5209 48.1517C13.4849 48.1637 13.4649 48.1197 13.4929 48.0997V48.0957Z" fill="#EFAC6F"/>
<path d="M10.2652 58.9757C11.3892 62.3157 5.64523 61.0877 5.90923 58.1597C6.02523 56.8637 7.27326 56.1517 8.48126 56.7557C9.33726 57.1837 9.96924 58.0877 10.2652 58.9757Z" fill="#EFAC6F"/>
<path d="M3.62541 61.1516C3.42941 60.4036 3.59339 58.6316 4.8094 59.2996C5.5134 59.6876 6.06943 60.4996 6.24543 61.2756C6.42943 62.0916 5.3334 62.6356 4.7174 62.4476C4.2894 62.3156 3.99739 62.0077 3.80539 61.6357C3.72539 61.4797 3.66941 61.3156 3.62541 61.1516Z" fill="#EFAC6F"/>
<path d="M14.1854 69.7756C14.7654 71.2676 15.4694 72.7476 15.5014 74.4076C15.5334 75.8956 14.9294 77.7236 13.4094 77.7956C12.1814 77.8516 10.8294 76.9276 10.1294 75.8436C9.41342 74.7436 9.0374 73.4276 8.30139 72.3436C7.47339 71.1156 6.19742 70.6196 5.07742 69.8036C3.89342 68.9476 3.15342 68.1196 3.72942 66.7796C4.10542 65.9116 5.58142 65.9116 6.48142 64.9716C8.20942 63.1636 9.86141 61.9676 11.3654 62.5156C12.4014 62.8956 12.9734 63.6676 13.1614 64.7556C13.3094 65.6116 13.3854 66.3796 13.5414 67.2196C13.6974 68.0756 13.8654 68.9356 14.1934 69.7716L14.1854 69.7756Z" fill="#EFAC6F"/>
<path d="M0.621316 63.9957C1.24932 63.9797 1.72932 64.3797 2.12932 64.8477C2.36932 65.1277 2.64931 65.5477 2.36531 65.8957C2.04131 66.2997 1.42531 66.0517 1.06131 65.8717C0.461306 65.5797 -0.158685 64.2437 0.621316 63.9957Z" fill="#EFAC6F"/>
<path d="M2.14521 64.2477C1.58921 63.8597 0.58919 60.9637 2.02519 61.1477C2.56519 61.2157 3.09718 61.7957 3.41318 62.2117C4.21318 63.2597 3.84918 64.9557 2.61718 64.5037C2.47318 64.4517 2.31721 64.3677 2.14521 64.2477Z" fill="#EFAC6F"/>
<path d="M84.4613 59.3597C84.9853 60.1677 84.3373 61.6317 83.7773 62.2557C83.0733 63.0357 81.9573 63.7317 80.8813 63.7197C80.2053 63.7117 79.7853 63.2077 79.6133 62.5997C79.3373 61.6277 79.9612 60.5877 80.5972 59.9117C81.4132 59.0437 83.3853 58.1357 84.2813 59.3317C84.3293 59.3957 84.4093 59.3917 84.4613 59.3557V59.3597Z" fill="#EFAC6F"/>
<path d="M86.0092 69.7476C85.2252 69.5596 85.4852 68.7636 85.8892 68.3556C86.2412 68.0076 86.8332 67.7116 87.3332 67.8476C88.2212 68.4836 86.9772 69.9796 86.0092 69.7476Z" fill="#EFAC6F"/>
<path d="M79.3932 65.7798C80.6252 66.5318 81.1132 68.1078 82.4772 68.7318C83.0972 69.0158 83.8412 69.0918 84.2412 69.7118C84.7412 70.4798 84.2732 71.6918 83.9332 72.4438C82.6492 75.2918 79.1892 75.7838 76.5212 76.8438C74.9972 77.4478 73.4932 78.4118 71.8732 78.6558C70.5132 78.8598 69.0612 79.0638 67.7132 78.6758C66.9652 78.4558 66.4132 77.9558 66.2172 77.1958C65.9452 76.1238 66.7092 75.4918 67.5932 75.1318C68.7932 74.6398 69.7572 74.0798 70.5532 73.0198C71.3292 71.9878 71.7172 70.6998 71.9572 69.4518C72.2492 67.9438 73.0692 66.6398 74.4172 65.8718C75.8372 65.0638 77.9572 64.9158 79.3892 65.7838L79.3932 65.7798Z" fill="#EFAC6F"/>
<path d="M86.5575 66.2476C86.5455 66.6316 86.3975 66.9476 86.1215 67.2076C85.6095 67.6876 84.0815 67.9877 84.0415 66.9357C84.0135 66.1477 85.1975 65.3996 85.9535 65.4796C86.3135 65.5196 86.5735 65.7436 86.5615 66.2436L86.5575 66.2476Z" fill="#EFAC6F"/>
<path d="M85.8213 63.6237C85.7893 63.7757 85.7453 63.9237 85.6773 64.0757C85.4813 64.5157 85.1413 64.8837 84.7573 65.1637C84.1893 65.5797 82.7133 65.9358 82.6573 64.8598C82.6173 64.1038 83.3893 63.4518 83.9533 63.0838C84.3213 62.8438 84.7533 62.7037 85.1933 62.7917C85.6453 62.8797 85.8213 63.2357 85.8173 63.6197L85.8213 63.6237Z" fill="#EFAC6F"/>
<g style="mix-blend-mode:multiply" opacity="0.5">
<path fill-rule="evenodd" clip-rule="evenodd" d="M87.8809 68.7876C87.8489 68.8676 87.8169 68.9477 87.7769 69.0277C87.3649 69.8477 86.3408 70.5077 85.4048 70.2357C85.4768 70.8597 85.3528 71.5276 85.1128 72.0676C84.5448 73.3356 83.4929 74.3197 82.3689 75.1077C81.0089 76.0637 79.5368 76.6676 77.9688 77.1876C76.9728 77.5196 75.9848 77.8677 74.9968 78.2277C73.8688 78.8317 72.7049 79.3557 71.4409 79.6357C69.9529 79.9677 68.2449 80.1237 66.7289 79.8757C65.6248 79.6957 64.6768 79.1396 64.1688 78.1876C63.4888 77.6596 62.8329 77.1357 62.2369 76.5436C61.3929 76.0836 60.5329 75.6916 59.6449 75.3156C58.7609 74.9396 57.8049 74.6877 56.9369 74.2797C57.1449 74.6877 57.2168 75.1357 56.9328 75.6517C56.4328 76.5757 55.4329 76.9437 54.4449 76.5997C54.4369 76.5997 54.4368 76.5916 54.4288 76.5916C54.4088 76.6036 54.3928 76.6157 54.3728 76.6277C54.0088 76.8397 53.3368 77.0637 52.9888 76.7477C52.9729 76.7356 52.9648 76.7237 52.9568 76.7077C51.8928 77.2877 50.2409 76.8877 49.2449 76.5277C49.1689 76.5637 49.0888 76.5997 49.0048 76.6277C48.2448 76.8797 47.4688 76.8076 46.7408 76.5477C46.1288 76.4076 45.5408 76.1357 45.1048 75.8117C43.9248 74.9317 43.2568 73.5716 42.9048 72.1716C42.5208 72.1356 42.1728 71.9636 41.7968 71.8716C41.4128 71.7796 41.0248 71.7036 40.6328 71.6676C39.8128 71.5916 38.9248 71.5676 38.1248 71.8196C37.9448 72.3276 37.5968 73.1916 37.3168 73.6396C37.0808 74.0156 36.8368 74.4996 36.5208 74.8156C35.5688 75.7756 33.5888 76.5596 32.1888 75.7957C32.1688 75.8196 32.1448 75.8437 32.1088 75.8557C31.1688 76.2477 29.9288 76.2476 29.1528 75.6396C29.1448 75.6436 29.1408 75.6477 29.1328 75.6517C28.4368 75.8717 27.7488 76.0237 27.0688 75.6797C26.9408 75.6157 26.8328 75.5317 26.7368 75.4357C26.7168 75.4557 26.6928 75.4677 26.6608 75.4757C25.8728 75.6477 24.7608 75.4717 24.3568 74.6757C24.2248 74.4117 24.1848 74.1437 24.2088 73.8757C23.7288 74.1757 23.1248 74.3597 22.6328 74.6117C21.9808 74.9477 21.4568 75.3956 20.8528 75.7957C20.8248 75.8116 20.7968 75.8037 20.7728 75.7837C19.9488 76.5557 19.0008 77.2277 18.0448 77.6717C17.9528 77.7117 17.8848 77.6677 17.8528 77.5997C17.5008 77.9797 17.0688 78.2917 16.5328 78.5077C14.3608 79.3677 12.0208 78.6277 10.4608 76.9597C9.6488 76.0917 9.12481 75.0116 8.42081 74.0636C7.63681 73.0036 6.60478 72.1677 5.59678 71.3277C4.26078 70.2197 2.19681 68.2677 2.78081 66.3837C1.82481 66.5957 0.384811 66.4396 0.0808105 65.3636C0.588811 65.9876 1.41279 66.5836 2.00479 66.3196C2.50479 66.0956 2.5248 65.4916 2.2728 65.0756C2.0528 64.7116 1.6768 64.4596 1.4208 64.1196C1.1528 63.7676 1.07281 63.3476 1.08081 62.9196C1.09681 62.9196 1.11681 62.9157 1.13281 62.9117C1.33281 63.7317 1.75679 64.4157 2.70879 64.4837C3.46079 64.5357 4.17279 63.7637 3.95279 63.0357C3.80879 62.5517 3.2688 62.2276 3.01279 61.8156C2.68079 61.2796 2.8128 60.6276 3.0688 60.0396C3.1168 60.0476 3.16079 60.0556 3.20879 60.0716C3.22479 59.9036 3.25278 59.7356 3.30078 59.5796C3.30478 59.5716 3.30879 59.5636 3.31279 59.5556C3.2688 60.9196 3.61282 62.6396 5.24082 62.4156C5.57682 62.3716 6.12881 62.2276 6.27681 61.8716C6.42481 61.5156 6.20879 61.1796 6.00879 60.8916C5.67279 60.4076 5.31682 60.0276 5.18882 59.4276C5.07282 58.8916 5.1768 58.3116 5.3688 57.7716C5.4168 57.7796 5.4648 57.7916 5.5128 57.8076C5.5728 57.4076 5.72079 57.0316 5.95279 56.7076C5.82479 57.2676 5.66081 57.8356 5.78081 58.4036C5.91681 59.0596 6.18483 59.6757 6.59283 60.2117C7.32883 61.1797 8.50079 61.2356 9.50079 60.6556C10.6888 59.9716 10.8768 58.6276 10.2688 57.4796C9.95681 56.8916 9.5048 56.3756 8.9648 55.9956C9.5848 56.1676 10.1848 56.3916 10.7528 56.7436C11.9648 57.4876 13.0128 58.6716 13.8728 59.7956C14.7368 60.9196 15.4088 62.1077 15.6928 63.5077C15.9608 64.8277 15.9648 66.1877 16.2328 67.5117C16.2568 67.6317 16.4248 67.6197 16.4608 67.5117C16.6168 67.0157 16.8088 66.5516 17.0808 66.1196C17.1648 67.2076 17.1808 68.3036 17.5888 69.3396C17.6408 69.4676 17.8048 69.4437 17.8208 69.3077C17.8968 68.6277 18.1568 67.9916 18.5088 67.4156C18.6528 68.4556 19.1288 69.7197 20.2968 69.7797C21.6048 69.8517 22.1688 68.1996 22.3928 67.1996C22.7848 65.4396 22.6848 63.5917 22.3208 61.8357C22.1168 60.8357 21.8528 59.8276 21.3608 58.9316C20.8688 58.0316 20.2048 57.2316 19.8488 56.2676C20.4808 56.5716 20.9928 57.0836 21.5088 57.5476C21.5968 57.6276 21.7328 57.5516 21.7088 57.4316C21.5008 56.5236 20.9008 55.7956 20.4128 55.0236C19.8168 54.0756 19.3928 53.0236 18.8408 52.0516C18.2688 51.0316 17.5848 50.0756 17.2328 48.9436C17.0768 48.4396 16.9848 47.9396 16.8248 47.4636C16.8288 47.4636 16.8328 47.4636 16.8368 47.4636C16.7968 47.3636 16.7648 47.2636 16.7288 47.1636C17.0088 47.7156 17.3168 48.2596 17.6288 48.7996C18.4208 50.1716 19.1808 51.5636 20.2128 52.7716C21.3928 54.1556 22.6648 55.4676 24.0728 56.6236C25.2648 57.6036 26.8888 58.8676 28.5328 58.7276C30.3768 58.5756 30.6808 56.2316 30.7808 54.7996C30.9568 52.2036 30.4088 49.5476 29.4928 47.1236C28.8008 45.3036 27.8248 43.5356 26.5208 42.0716C25.5528 40.9516 24.3008 40.0796 23.1648 39.1196C23.4368 39.2276 23.7128 39.3196 24.0088 39.3116C24.1208 39.3076 24.1568 39.1876 24.0928 39.1116C23.4928 38.3676 22.8808 37.6476 22.3928 36.8276C21.8888 35.9756 21.5248 35.0476 21.2528 34.0996C20.7448 32.3356 20.5608 30.3276 21.0048 28.5356C21.1368 28.0076 21.3528 27.2916 21.0448 26.7836C20.8808 26.5116 20.5888 26.2996 20.3648 26.0836C20.0408 25.7756 19.8768 25.4476 19.7608 25.0196C19.4408 23.8356 19.5248 21.9676 20.5128 21.0756C21.2648 21.8236 22.7488 21.9476 23.7328 22.0956C25.4648 22.3596 27.2608 22.3236 29.0088 22.2836C32.5808 22.2036 36.1408 21.8276 39.6368 21.1076C42.7888 20.4596 45.9168 19.5036 48.9368 18.3916C51.1648 17.5716 53.8648 16.2836 54.2208 13.6556C54.2728 13.2636 54.2408 12.8556 54.0848 12.4956C55.4608 12.9636 56.6968 13.8116 57.5248 15.0316C58.3928 16.3076 58.3608 17.9716 58.6648 19.4276C58.6848 19.5196 58.7809 19.5316 58.8409 19.4916C60.2089 20.5716 60.9888 22.4036 61.0728 24.1476C60.9528 23.9596 60.8008 23.7876 60.6288 23.6156C60.5368 23.5236 60.3729 23.6436 60.4449 23.7596C61.2129 25.0236 61.0888 26.6916 61.0288 28.1116C60.9488 30.0076 60.2088 31.6076 59.2048 33.1876C59.1528 33.2676 59.2409 33.4036 59.3369 33.3596C59.8529 33.1476 60.3529 32.9076 60.8849 32.7516C59.1249 34.5916 57.5368 36.6076 56.1528 38.7516C53.3168 42.5876 51.0249 46.7516 49.1409 51.1276C48.3288 53.0116 47.5848 54.9476 47.1648 56.9636C46.8968 58.2316 46.6089 60.0156 47.4929 61.1236C48.7609 62.7156 51.5408 61.7157 53.0528 61.1077C55.7848 60.0156 58.1329 58.1156 60.0929 55.9476C64.4129 51.1676 66.2288 44.7636 66.7088 38.4596C67.0928 41.5516 66.5609 47.9796 67.6809 46.2076C67.7529 46.0956 67.8728 46.3676 67.9128 46.2396C68.6808 43.7596 68.4889 41.1756 68.4329 38.6116C68.4769 39.0636 68.5168 39.5156 68.5488 39.9716C68.6768 41.7636 68.7048 43.5916 68.6008 45.4116C68.8688 45.2476 69.2209 45.1636 69.5809 45.1196C69.1009 45.5796 68.8729 46.3316 68.7809 47.0796C68.6488 48.1716 68.7488 49.3036 68.7608 50.3956C68.7688 51.4796 68.7128 52.5516 68.5128 53.6116C68.4648 53.0956 68.3808 52.5796 68.2688 52.0676C68.2448 51.9596 68.0569 51.9516 68.0409 52.0676C67.7569 54.1836 67.4488 56.2756 66.5208 58.2276C65.6008 60.1636 64.0489 61.7356 62.9849 63.5916C62.9129 63.7116 63.0688 63.8197 63.1688 63.7357C63.7448 63.2197 64.3608 62.7836 65.0608 62.4716C64.5088 63.4476 63.8048 64.3237 63.3248 65.3357C62.7408 66.5637 62.6248 68.0236 62.6128 69.3676C62.6128 69.5036 62.8049 69.5236 62.8449 69.3996C63.1329 68.5196 63.7208 67.8116 64.3528 67.1516C64.1888 68.0597 64.2528 69.0676 64.7568 69.8396C65.3808 70.7956 66.6409 70.6116 67.4929 70.0996C68.4809 69.5076 69.0008 68.3597 69.4128 67.3357C69.8328 66.2917 70.1288 65.1516 70.7168 64.1756C70.6528 64.8196 70.7368 65.4756 70.7488 66.1236C70.7488 66.2316 70.9208 66.2997 70.9688 66.1837C71.5048 64.9397 72.1208 63.5997 73.1248 62.6557C73.0209 63.3196 72.8128 63.9596 72.6968 64.6196C72.6688 64.7716 72.8649 64.8237 72.9249 64.6837C73.4288 63.4677 74.4128 62.4196 75.4208 61.5956C75.9529 61.1596 76.5328 60.7876 77.0488 60.3396C77.3008 60.1196 77.5089 59.8516 77.6889 59.5636C77.6289 59.9276 77.5489 60.2837 77.4409 60.6357C77.7169 60.4437 77.9929 60.2556 78.2729 60.0756C78.3929 59.8556 78.5329 59.6436 78.6849 59.4436C78.6449 59.5156 78.6088 59.5837 78.5729 59.6597C78.2888 60.2757 78.2049 61.0716 78.3849 61.7276C78.7329 62.9796 80.4089 62.9436 81.3929 62.6436C82.8569 62.2036 84.4088 60.7996 84.6968 59.3036C84.8088 59.8356 84.7608 60.4036 84.6208 60.9476C84.5129 60.9556 84.4928 61.0876 84.5608 61.1476C84.5408 61.2196 84.5169 61.2876 84.4929 61.3556C84.5129 61.3556 84.5249 61.3557 84.5409 61.3597C84.4409 61.5877 84.2849 61.9596 84.2369 62.0516C84.0089 62.4876 83.7568 62.9076 83.5088 63.3276C83.2488 63.7716 82.6368 64.6117 83.2608 65.0317C84.0408 65.5517 85.1288 65.1876 85.6568 64.4796C85.8408 64.2317 85.9848 63.9596 86.1008 63.6716C86.0808 63.7996 86.0448 63.9277 86.0048 64.0556C85.9568 64.0556 85.9088 64.0756 85.9008 64.1396C85.7208 65.1396 82.9568 66.9916 85.1648 67.5636C86.1088 67.8076 86.7209 66.8956 87.0449 65.9277C87.0329 66.0797 87.0049 66.2276 86.9688 66.3756C86.9049 66.3676 86.8369 66.4036 86.8409 66.4876C86.8569 67.3316 85.9129 67.8116 85.9769 68.6476C86.0329 69.3636 86.8168 69.3157 87.3128 69.1516C87.5408 69.0756 87.7328 68.9557 87.9048 68.8077L87.8809 68.7876ZM15.4128 69.1676C14.5328 67.6996 14.3648 65.7716 14.0608 64.1476C13.4528 60.8596 9.35281 60.4916 7.42081 63.1636C6.9688 63.7876 6.40081 64.4196 5.02481 64.8156C4.40881 64.9916 3.3608 65.7956 3.6128 66.7396C4.0048 68.2316 6.05278 67.5236 6.54878 67.5676C7.87678 67.6836 9.22082 67.7516 10.4888 68.1956C13.1808 69.1396 13.8688 70.9436 14.4568 72.9476C15.1648 75.3637 16.4288 75.7596 16.5768 74.7156C16.8128 73.0636 16.0648 70.2596 15.4128 69.1676ZM26.8288 72.1277C26.9208 72.0637 26.8888 71.9397 26.7888 71.9117C26.7768 71.8997 26.7608 71.8956 26.7368 71.8916C25.5608 71.7196 23.9528 72.7237 24.4328 74.0837C24.6328 74.6437 25.1648 74.6797 25.5528 74.3077C25.7728 74.0957 25.7888 73.7156 25.8288 73.4396C25.9128 72.8396 26.3528 72.4517 26.8248 72.1277H26.8288ZM28.6848 72.3357C28.9048 72.1957 29.1168 72.0637 29.3208 71.9117C29.3928 71.8597 29.4008 71.7597 29.3208 71.7077C28.6128 71.2437 27.7168 71.6637 27.1248 72.1357C26.8208 72.3797 26.5968 72.7077 26.4848 73.0597C26.4568 73.1077 26.4288 73.1557 26.4008 73.2037C26.1288 73.7477 26.3568 74.4677 26.9008 74.7357C27.4848 75.0237 28.0128 74.4917 28.0608 73.9357C28.1128 73.3597 28.1368 72.6757 28.6808 72.3317L28.6848 72.3357ZM31.4368 72.3396C31.6168 72.2316 31.8208 72.1917 31.9368 72.0077C32.1568 71.6717 31.6528 71.6756 31.2008 71.7396C31.1808 71.7116 31.1528 71.6916 31.1088 71.6916C30.0808 71.7116 29.0088 72.0717 28.6288 73.1077C28.3648 73.8197 28.8048 75.3277 29.8408 74.8797C30.3968 74.6397 30.5088 74.0717 30.6008 73.5237C30.6928 72.9876 30.9808 72.6156 31.4368 72.3396ZM35.8368 71.8557C35.7088 71.5677 35.3248 71.4957 34.9888 71.4797C33.9608 71.1357 32.7408 71.7076 32.0168 72.4436C31.3008 73.1676 31.0848 74.4596 32.4048 74.5956C33.6248 74.7276 34.8208 74.0076 35.5728 73.0876C35.8528 72.7436 36.0328 72.2757 35.8408 71.8557H35.8368ZM45.6248 39.0516C47.7528 38.0116 49.7808 36.7076 51.3128 34.8836C52.0248 34.0396 52.6928 33.0676 53.1168 32.0476C53.5568 30.9956 53.6688 29.8756 53.9088 28.7756C54.3408 29.8876 54.2728 31.1516 54.1128 32.3156C54.1008 32.4156 54.2248 32.5316 54.3088 32.4316C55.0608 31.5516 55.7528 30.6276 56.2048 29.5556C56.6088 28.5916 56.7288 27.5436 56.7528 26.5116C57.0288 26.9476 57.1488 27.4716 57.2968 27.9636C57.3288 28.0796 57.4888 28.0716 57.5248 27.9636C58.0048 26.4916 58.6968 22.6876 56.2048 22.6556C55.5128 22.6476 54.8208 22.9916 54.2208 23.3076C53.3848 23.7516 52.6328 24.3516 51.9288 24.9836C51.6288 25.1476 51.3248 25.3116 51.0288 25.4916C50.0768 26.0436 49.0248 26.6676 48.2768 27.4836C47.7288 28.0796 47.3928 28.8756 47.0208 29.5876C46.6728 30.2556 46.2769 31.1396 45.5928 31.5556C45.6368 31.1716 45.6648 30.7956 45.6288 30.4076C45.6208 30.3276 45.5288 30.2436 45.4488 30.3076C44.8168 30.7916 44.4968 31.5756 44.1088 32.2516C43.5328 33.2556 42.5648 33.9196 41.5848 34.4916C40.8368 34.9236 40.0448 35.2756 39.2208 35.5396C38.5768 35.7476 37.4888 36.0876 36.8568 35.6516C37.2488 35.5676 37.6488 35.5756 38.0248 35.3996C38.1128 35.3596 38.0968 35.1996 37.9968 35.1836C36.1608 34.9156 34.2888 34.9436 32.4728 34.5076C31.4048 34.2516 30.4368 33.7676 29.5808 33.0836C28.8408 32.4916 28.5448 31.5316 28.0488 30.7596C27.6448 30.1276 26.9728 29.7396 26.3328 29.3876C25.6928 29.0316 25.0928 28.5876 24.4128 28.3076C23.0408 27.7396 21.2568 28.6236 21.7368 30.3356C21.9968 29.1716 22.4848 29.2996 22.8208 28.8756C22.0968 29.7836 22.1888 31.3236 22.3648 32.4756C22.5888 33.9476 23.4528 35.1276 24.6008 36.0396C26.9568 37.8996 30.0888 38.3436 32.6008 39.9396C32.7208 40.0156 32.8248 39.8516 32.7408 39.7556C32.3168 39.2556 32.0888 38.6876 31.9728 38.0716C32.7208 39.2556 33.8488 40.1436 35.1208 40.7396C36.4728 41.3716 38.1488 41.8636 38.9208 43.2596C38.9848 43.3716 39.1288 43.3076 39.1408 43.1996C39.2168 42.4916 39.9728 42.0116 40.5128 41.6556C41.0808 41.2836 41.6928 40.9836 42.2728 40.6356C43.7528 39.7516 45.0568 38.5516 46.2808 37.3436C46.1528 37.9236 45.8008 38.4116 45.4648 38.8996C45.3928 39.0036 45.5288 39.1076 45.6248 39.0596V39.0516ZM50.1008 73.8037C49.6888 72.9157 48.6008 72.4516 47.6368 72.5476C46.8448 72.3836 45.4608 72.8036 45.7688 73.8196C46.0888 74.8756 47.4968 75.1996 48.4328 75.2636C49.3808 75.3236 50.6448 74.9757 50.1008 73.8037ZM53.6008 74.5797C53.5088 73.8797 52.7088 73.1557 51.9768 73.1317C51.9688 73.1237 51.9568 73.1157 51.9488 73.1117C51.2488 72.8477 50.3848 73.1637 50.6728 74.0237C50.7608 74.2916 50.9288 74.5277 51.0128 74.8037C51.0888 75.0517 51.1768 75.2396 51.3688 75.4156C51.6328 75.6636 52.0088 75.7557 52.3608 75.7557C53.0208 75.7637 53.7008 75.2837 53.6048 74.5757L53.6008 74.5797ZM55.3968 74.5716C55.3648 74.4036 55.2848 74.2516 55.1848 74.1156C55.0408 73.7876 54.7328 73.5557 54.4008 73.3837C54.2688 73.2917 54.1288 73.2157 53.9808 73.1757C53.9728 73.1717 53.9608 73.1676 53.9528 73.1676C53.9488 73.1676 53.9408 73.1676 53.9328 73.1676C53.9248 73.1636 53.9168 73.1636 53.9128 73.1636C53.9048 73.1596 53.8969 73.1557 53.8889 73.1517C53.8609 73.1397 53.8368 73.1437 53.8128 73.1517C53.7968 73.1517 53.7808 73.1517 53.7648 73.1517C53.6128 73.1437 53.4488 73.1557 53.4248 73.2997C53.3888 73.5196 53.7728 73.7877 53.8728 73.9517C54.1368 74.3797 54.1088 74.8157 54.2288 75.2757C54.2808 75.4877 54.5289 75.6397 54.7369 75.6237C54.8168 75.6197 54.8809 75.5917 54.9409 75.5476C55.3169 75.4916 55.4688 74.9316 55.3968 74.5676V74.5716ZM56.0849 73.4636C56.0808 73.4636 56.0808 73.4597 56.0768 73.4597C55.8768 73.3477 55.5928 73.1756 55.3568 73.2716C55.1368 73.3596 55.2608 73.6237 55.3568 73.7517C55.6368 74.1157 55.9209 74.3436 55.8929 74.8676C55.8769 75.1316 55.7288 75.5957 56.0288 75.7757C56.6528 76.1437 57.0328 75.1876 56.9648 74.7156C56.8928 74.2156 56.5568 73.6516 56.0808 73.4676L56.0849 73.4636ZM84.6088 69.8317C84.2288 68.9677 82.5008 68.6956 81.8088 67.8996C81.0288 67.0036 81.0128 65.6196 80.0568 64.8196C78.7288 63.7036 77.1488 63.6637 75.5488 64.2117C74.3368 64.6277 73.2608 65.5396 72.4968 66.5557C71.6448 67.6917 71.1968 68.9756 70.8008 70.3196C70.3648 71.7996 69.4128 72.6037 68.0968 73.3037C67.0448 73.8637 63.7329 76.9477 66.9849 76.9077C67.8569 76.8957 69.4329 75.6557 70.0929 75.0997C72.0649 73.4356 73.7089 71.0876 76.4409 70.7436C78.7969 70.4436 80.8448 72.0956 83.2048 71.7916C83.9848 71.6916 84.9768 70.6756 84.6088 69.8396V69.8317Z" fill="#A14801"/>
</g>
<g style="mix-blend-mode:multiply" opacity="0.5">
<path d="M39.093 66.3157C39.081 67.3277 38.957 68.3237 38.761 69.3157C38.565 70.3157 38.193 71.2477 37.929 72.2277C37.921 72.2557 37.925 72.2797 37.937 72.3037C37.753 72.7717 37.517 73.3077 37.317 73.6237C37.081 73.9997 36.837 74.4837 36.521 74.7997C36.421 74.9037 36.305 75.0037 36.181 75.0997C36.605 74.5517 36.913 73.9237 37.037 73.3477C37.357 71.8837 36.025 71.3677 34.817 71.4237C33.993 71.2317 33.077 71.5757 32.397 72.1037C31.841 72.4517 31.333 72.9197 31.213 73.5237C31.153 73.1557 31.253 72.7797 31.525 72.4637C31.601 72.3757 31.721 72.2637 31.801 72.1437C31.853 72.1077 31.901 72.0677 31.941 72.0077C32.161 71.6717 31.657 71.6757 31.205 71.7397C31.185 71.7117 31.157 71.6917 31.113 71.6917C30.097 71.7117 29.037 72.0677 28.645 73.0757C28.645 73.0437 28.645 73.0117 28.645 72.9797C28.657 72.5957 28.873 72.3197 29.117 72.0557C29.189 72.0077 29.257 71.9637 29.325 71.9117C29.397 71.8597 29.405 71.7597 29.325 71.7077C28.617 71.2437 27.721 71.6637 27.129 72.1357C26.825 72.3797 26.601 72.7077 26.489 73.0597C26.477 73.0797 26.465 73.0997 26.457 73.1197C26.469 72.9117 26.521 72.7037 26.597 72.5357C26.661 72.3917 26.865 72.2517 26.849 72.1037C26.913 72.0357 26.885 71.9357 26.793 71.9117C26.781 71.8997 26.765 71.8957 26.741 71.8917C26.249 71.8197 25.677 71.9557 25.217 72.2397C25.041 72.3197 24.873 72.4197 24.709 72.5237C24.729 72.5077 24.749 72.4837 24.765 72.4717C24.773 72.4677 24.781 72.4637 24.785 72.4597C25.541 71.8917 26.465 71.4557 26.869 70.5517C27.229 69.7557 26.965 68.8917 26.825 68.0517C26.837 68.0237 26.853 67.9957 26.865 67.9637C28.213 70.7117 32.721 71.2517 35.221 69.6357C36.773 68.6317 37.645 66.8557 38.153 65.1357C38.465 64.0757 38.625 62.9997 38.705 61.9156C38.977 63.3677 39.109 64.8357 39.089 66.3157H39.093Z" fill="#A14801"/>
</g>
<g style="mix-blend-mode:multiply" opacity="0.5">
<path d="M44.0369 74.7038C43.4929 73.9518 43.1329 73.0678 42.9049 72.1638C42.8889 72.1638 42.8769 72.1598 42.8649 72.1558C42.8249 71.9478 42.7969 71.7398 42.7969 71.5318C42.7969 70.9038 42.8289 70.2758 42.8569 69.6478C42.9129 68.2798 43.0169 66.9397 43.2569 65.5877C43.4809 64.3037 43.7849 63.0357 44.0569 61.7637C44.2889 60.6717 44.5009 59.6638 44.9449 58.6718C44.9809 58.6678 45.0169 58.6638 45.0529 58.6558C44.5609 61.0918 44.3329 63.5957 44.6649 66.0158C44.8929 67.6558 45.4969 69.3318 46.8129 70.4078C48.2129 71.5558 50.3289 71.8078 52.0209 71.2598C54.0809 70.5918 55.6969 68.8118 56.9729 67.1438C57.0329 67.0638 57.0849 66.9878 57.1409 66.9118C56.8729 67.4958 56.5729 68.0598 56.3569 68.6678C56.0929 69.4278 55.8369 70.1718 55.7289 70.9718C55.6329 71.6998 55.7729 72.3598 56.0609 73.0278C56.1409 73.2078 56.3529 73.4878 56.5409 73.7878C56.4089 73.6398 56.2569 73.5238 56.0809 73.4558C56.0769 73.4558 56.0769 73.4518 56.0729 73.4518C55.8729 73.3398 55.5889 73.1678 55.3529 73.2638C55.2169 73.3198 55.2129 73.4478 55.2529 73.5638C55.2409 73.7398 55.3929 73.9518 55.4729 74.0918C55.6649 74.4358 55.6489 74.8718 55.4689 75.2038C55.6009 74.5318 55.2049 73.7678 54.5169 73.3478C54.4089 73.2838 53.6729 72.9558 53.5129 73.1798C53.4649 73.1998 53.4289 73.2398 53.4209 73.2998C53.4009 73.4078 53.4849 73.5238 53.5809 73.6358C53.6929 73.9158 53.8329 74.1798 53.8969 74.4838C53.9649 74.8198 53.9409 75.1398 53.8249 75.4318C54.0369 74.4078 53.2169 73.4158 52.0769 73.0678C51.5569 72.9078 50.9129 72.8678 50.5089 73.2838C50.2929 73.5078 50.2769 73.8478 50.2889 74.1358C50.2929 74.2078 50.2969 74.2798 50.2969 74.3518C50.2689 74.2118 50.2249 74.0798 50.1529 73.9518C50.1369 73.9038 50.1169 73.8518 50.0929 73.7998C49.7129 72.9838 48.7649 72.5278 47.8649 72.5358C47.6809 72.4958 47.4929 72.4678 47.3169 72.4438C46.4289 72.3318 45.2849 72.3558 44.5169 72.8638C43.8609 73.2998 43.7649 74.0238 44.0289 74.6998L44.0369 74.7038Z" fill="#A14801"/>
</g>
<g style="mix-blend-mode:multiply" opacity="0.5">
<path d="M24.205 73.8637C23.725 74.1637 23.121 74.3477 22.629 74.5997C21.977 74.9357 21.453 75.3837 20.849 75.7838C20.821 75.7997 20.793 75.7917 20.769 75.7717C19.945 76.5437 18.997 77.2158 18.041 77.6598C17.949 77.6998 17.881 77.6557 17.849 77.5877C17.497 77.9677 17.065 78.2797 16.529 78.4957C14.357 79.3557 12.017 78.6157 10.457 76.9477C10.269 76.7477 10.097 76.5357 9.93701 76.3157C10.449 76.7037 10.961 77.0957 11.513 77.4277C12.537 78.0397 13.673 78.2037 14.837 77.9757C16.001 77.7477 16.897 76.9078 17.545 75.9598C17.957 75.3598 18.213 74.7357 18.381 74.0317C18.549 73.3357 18.645 72.6357 18.933 71.9797C19.161 72.4797 19.233 73.0397 19.361 73.5717C19.445 73.9237 19.565 74.3997 19.965 74.5077C20.461 74.6397 21.029 73.9757 21.313 73.6837C21.997 72.9797 22.433 72.0677 22.793 71.1677C23.585 69.1957 24.089 67.0357 24.037 64.9037C23.993 62.9397 23.341 61.0837 22.353 59.4117C23.721 60.6917 24.337 62.6557 24.733 64.4397C25.133 66.2477 24.753 68.2997 25.549 70.0077C25.577 70.0637 25.657 70.0797 25.709 70.0477C26.557 69.5477 26.713 68.4997 26.709 67.5957C26.709 67.0957 26.653 66.5837 26.545 66.0797C26.669 66.4517 26.769 66.8357 26.857 67.2117C27.085 68.1997 27.225 69.3077 26.965 70.2997C26.741 71.1517 25.917 71.6397 25.261 72.2237C24.793 72.4997 24.433 72.9237 24.369 73.4397C24.305 73.5877 24.253 73.7437 24.209 73.8997C24.209 73.8917 24.209 73.8837 24.209 73.8757L24.205 73.8637Z" fill="#A14801"/>
</g>
<g style="mix-blend-mode:multiply" opacity="0.5">
<path d="M70.8531 79.7558C69.5131 80.0038 68.0451 80.0958 66.7251 79.8758C65.6211 79.6958 64.6731 79.1397 64.1651 78.1877C63.4851 77.6597 62.8291 77.1357 62.2331 76.5437C61.3891 76.0837 60.5291 75.6917 59.6411 75.3157C58.7571 74.9397 57.8011 74.6878 56.9331 74.2798C56.9411 74.2918 56.9411 74.2998 56.9491 74.3118C56.9131 74.2998 56.8771 74.2837 56.8411 74.2677C56.7371 74.0197 56.5771 73.7917 56.3691 73.6278C55.9691 72.5597 55.6971 71.4517 55.7131 70.2877C55.7371 68.5437 56.5051 66.9117 57.3491 65.4237C58.9571 62.5877 61.2251 60.2197 62.9731 57.4837C64.6771 54.8157 65.8091 51.6597 66.3331 48.5437C66.4251 47.9917 66.5331 47.4277 66.6371 46.8597C66.6411 47.3077 66.6251 47.7597 66.5611 48.2157C66.4011 49.3557 66.1571 50.4957 65.8931 51.6117C65.3211 54.0397 64.3131 56.3437 63.2051 58.5677C63.1371 58.7037 63.3291 58.8157 63.4091 58.6877C64.1291 57.5077 64.9411 56.3917 65.6491 55.1997C66.4131 53.9197 66.8891 52.5517 67.3331 51.1357C67.7291 49.8717 67.9731 48.5557 68.1971 47.2477C67.7611 53.1237 65.2451 58.5637 61.8491 63.3877C60.0571 65.9317 59.2011 69.1157 60.3651 72.0957C60.6571 72.8517 62.2211 77.4197 63.5011 75.6477C64.0931 74.8277 64.5771 73.9558 65.1531 73.1358C64.6891 74.1798 64.4931 75.3477 64.6771 76.4717C64.9611 78.2237 66.5171 79.1597 68.1211 79.5477C69.0131 79.7637 69.9371 79.8118 70.8571 79.7558H70.8531Z" fill="#A14801"/>
</g>
<g style="mix-blend-mode:multiply" opacity="0.5">
<path d="M42.8571 72.1518C42.4931 72.1078 42.1571 71.9478 41.7971 71.8598C41.4131 71.7678 41.0251 71.6918 40.6331 71.6558C39.8331 71.5838 38.9731 71.5598 38.1891 71.7918C38.3451 70.9078 38.4411 70.0118 38.6411 69.1358C39.3891 65.8878 38.8131 62.4198 38.0331 59.2358C37.2331 55.9718 35.8251 52.9157 34.2731 49.9477C32.9491 47.4117 31.5651 44.4397 29.0651 42.8517C29.0291 42.8317 28.9971 42.8317 28.9651 42.8437C28.4411 42.4197 27.8931 42.0238 27.3611 41.6077C26.2571 40.7477 25.2731 39.6877 24.3691 38.6237C22.6371 36.5837 21.0211 33.7877 21.6691 31.0797C21.6531 32.7637 22.2491 34.4197 23.2011 35.8557C24.4571 37.7477 26.4971 38.8197 28.5331 39.6877C30.6171 40.5717 32.7291 41.3877 34.7891 42.3237C36.9771 43.3157 39.0171 45.1157 40.3171 47.1997C40.3811 47.3037 40.3771 47.6717 40.3771 46.7277C40.3771 42.9917 44.9531 41.3917 47.7091 39.8197C49.1771 38.9837 50.6051 38.0397 51.7611 36.7917C52.3011 36.2117 52.7451 35.5637 53.1051 34.8717C53.0491 35.2877 52.9691 35.6917 52.8131 36.0877C52.7691 36.2037 52.9331 36.2797 53.0091 36.2037C53.6251 35.5797 54.5051 35.3757 55.1291 34.7877C55.8171 34.1397 56.4091 33.3357 56.9011 32.5277C57.4811 31.5757 57.7251 30.5357 57.8491 29.4637C57.9331 29.8277 57.9851 30.1917 57.9931 30.5797C57.9971 30.7157 58.1811 30.7357 58.2251 30.6117C58.9091 28.7277 59.8771 26.8677 59.9931 24.8397C60.1451 25.7117 60.1771 26.6157 60.0851 27.4877C59.9051 29.1717 59.0731 30.7877 58.2971 32.2637C57.5171 33.7517 56.6811 35.2077 56.1131 36.7917C56.0651 36.9197 56.2611 36.9917 56.3291 36.8837C56.9011 35.9517 57.6971 35.2317 58.5451 34.5677C57.3491 36.0637 56.4731 37.7957 55.3611 39.3597C53.7971 41.5638 52.2811 43.7718 50.9251 46.1118C49.6691 48.2758 48.4451 50.4438 47.4171 52.7318C46.8411 54.0118 46.3291 55.3197 45.8731 56.6437C45.5451 57.4357 45.2211 58.2238 44.9291 59.0278C44.1291 61.2198 43.6971 63.5278 43.3571 65.8278C43.0571 67.8398 42.7331 70.0358 42.8571 72.1558V72.1518Z" fill="#A14801"/>
</g>
<g style="mix-blend-mode:multiply" opacity="0.5">
<path fill-rule="evenodd" clip-rule="evenodd" d="M58.549 34.5677C57.353 36.0637 56.4771 37.7957 55.3651 39.3597C53.8011 41.5637 52.2851 43.7717 50.9291 46.1117C49.6731 48.2757 48.4491 50.4437 47.4211 52.7317C46.8451 54.0117 46.3331 55.3197 45.8771 56.6437C45.5491 57.4357 45.2251 58.2237 44.9331 59.0277C44.1331 61.2197 43.701 63.5277 43.361 65.8277C43.061 67.8397 42.737 70.0357 42.861 72.1557C42.497 72.1117 42.161 71.9517 41.801 71.8637C41.417 71.7717 41.0291 71.6957 40.6371 71.6597C39.8371 71.5877 38.9771 71.5637 38.1931 71.7957C38.3491 70.9117 38.4451 70.0157 38.6451 69.1397C39.3931 65.8917 38.8171 62.4237 38.0371 59.2397C37.2371 55.9757 35.8291 52.9197 34.2771 49.9517C33.2411 47.9717 32.173 45.7277 30.561 44.0837C32.613 45.2197 34.2091 47.3317 36.2811 48.4717C39.0171 49.9717 42.8251 49.6037 45.5691 48.3237C47.0771 47.6157 48.3411 46.4077 49.5691 45.3077C50.8571 44.1597 51.985 42.8397 52.853 41.3437C53.841 39.6477 54.673 37.8317 55.405 35.9717C56.289 34.6757 57.245 33.4237 58.105 32.0997C58.981 30.7597 59.621 29.3157 60.053 27.8037C59.809 29.3757 59.033 30.8837 58.305 32.2677C57.525 33.7557 56.6891 35.2117 56.1211 36.7957C56.0731 36.9237 56.2691 36.9957 56.3371 36.8877C56.9091 35.9557 57.705 35.2357 58.553 34.5717L58.549 34.5677ZM46.097 52.6797C46.793 51.2877 44.085 51.7437 41.557 51.7357C39.033 51.7277 36.697 51.2637 37.669 53.3277C39.233 56.6437 39.833 61.7037 40.113 65.3637C40.189 66.3277 40.197 68.9877 41.469 68.2037C42.7531 67.4117 42.829 63.3797 43.109 62.0797C43.625 59.6877 43.6691 58.9077 44.3851 56.5677C44.5971 55.8757 45.445 53.9757 46.097 52.6797Z" fill="#A14801"/>
</g>
<g style="mix-blend-mode:multiply" opacity="0.4">
<path d="M73.4088 46.2997C72.9288 46.0477 72.4248 45.9757 71.9168 45.9637C71.6208 45.8557 71.3208 45.7797 71.0288 45.7477C71.4169 45.6477 71.8129 45.6037 72.1889 45.6477C71.7369 45.5077 71.2608 45.4397 70.7688 45.4397C70.1248 45.4397 69.1488 45.4317 68.6168 45.8317C68.5928 45.8477 68.5728 45.8597 68.5528 45.8637C68.2968 49.4597 67.4808 53.0117 65.7288 56.1757C65.6848 56.2597 65.5609 56.2037 65.5929 56.1117C66.6249 53.5397 67.5048 51.0117 67.9208 48.2597C68.2688 45.9477 68.3449 43.6157 68.2409 41.2837C68.3489 39.2677 68.2208 37.2397 68.0128 35.2277C68.2288 36.7957 68.4168 38.3677 68.5288 39.9477C68.6568 41.7397 68.6848 43.5677 68.5808 45.3877C69.1689 45.0277 70.1729 45.0317 70.7849 45.0637C71.7169 45.1077 72.6209 45.3877 73.2809 46.0797C73.2889 46.0877 73.2929 46.0957 73.2929 46.1037C73.3409 46.1437 73.3889 46.1917 73.4369 46.2357C73.4609 46.2597 73.4368 46.3077 73.4048 46.2877L73.4088 46.2997Z" fill="#692E02"/>
</g>
<g style="mix-blend-mode:multiply" opacity="0.4">
<path fill-rule="evenodd" clip-rule="evenodd" d="M87.777 69.0278C87.365 69.8478 86.341 70.5078 85.405 70.2358C85.477 70.8598 85.353 71.5278 85.113 72.0678C84.545 73.3358 83.493 74.3198 82.369 75.1078C81.009 76.0638 79.537 76.6677 77.969 77.1877C76.973 77.5197 75.985 77.8678 74.9969 78.2278C73.8689 78.8318 72.705 79.3558 71.441 79.6358C69.953 79.9678 68.245 80.1238 66.729 79.8758C65.625 79.6958 64.677 79.1398 64.169 78.1878C63.489 77.6597 62.833 77.1358 62.237 76.5438C61.393 76.0838 60.533 75.6918 59.645 75.3158C58.761 74.9398 57.805 74.6878 56.937 74.2798C57.145 74.6878 57.217 75.1358 56.933 75.6518C56.433 76.5758 55.433 76.9438 54.445 76.5998C54.437 76.5998 54.437 76.5918 54.429 76.5918C54.409 76.6038 54.393 76.6158 54.373 76.6278C54.009 76.8398 53.337 77.0638 52.989 76.7478C52.973 76.7358 52.9649 76.7238 52.9569 76.7078C51.8929 77.2878 50.241 76.8878 49.245 76.5278C49.169 76.5638 49.0889 76.5998 49.0049 76.6278C48.2449 76.8798 47.469 76.8078 46.741 76.5478C46.129 76.4078 45.5409 76.1358 45.1049 75.8118C43.9249 74.9318 43.2569 73.5718 42.9049 72.1718C42.5209 72.1358 42.1729 71.9638 41.7969 71.8718C41.4129 71.7798 41.025 71.7038 40.633 71.6678C39.813 71.5918 38.925 71.5678 38.125 71.8198C37.945 72.3278 37.597 73.1917 37.317 73.6397C37.081 74.0158 36.837 74.4998 36.521 74.8158C35.569 75.7758 33.589 76.5598 32.189 75.7958C32.169 75.8198 32.1449 75.8438 32.1089 75.8558C31.1689 76.2478 29.9289 76.2477 29.1529 75.6398C29.1449 75.6437 29.141 75.6478 29.133 75.6518C28.437 75.8718 27.7489 76.0238 27.0689 75.6798C26.9409 75.6158 26.833 75.5318 26.737 75.4358C26.717 75.4558 26.6929 75.4678 26.6609 75.4758C25.8729 75.6478 24.7609 75.4718 24.3569 74.6758C24.2249 74.4118 24.1849 74.1438 24.2089 73.8758C23.7289 74.1758 23.125 74.3598 22.633 74.6118C21.981 74.9478 21.4569 75.3958 20.8529 75.7958C20.8249 75.8118 20.7969 75.8038 20.7729 75.7838C19.9489 76.5558 19.001 77.2278 18.045 77.6718C17.953 77.7118 17.8849 77.6678 17.8529 77.5998C17.5009 77.9798 17.069 78.2918 16.533 78.5078C14.361 79.3678 12.0209 78.6278 10.4609 76.9598C9.64893 76.0918 9.12494 75.0117 8.42094 74.0637C7.63694 73.0037 6.60491 72.1678 5.59691 71.3278C4.26091 70.2198 2.19694 68.2678 2.78094 66.3838C1.79694 66.6038 0.304918 66.4358 0.0569174 65.2758C-0.123083 64.4318 0.0929134 62.9918 1.15291 62.9078C1.14491 62.8718 1.13294 62.8358 1.12494 62.7998C0.968935 62.1118 0.996939 61.1797 1.52894 60.6437C1.92894 60.2397 2.63292 59.8717 3.20892 60.0717C3.26492 59.4077 3.58094 58.7878 4.07694 58.3518C4.46094 58.0118 4.98493 57.6118 5.51293 57.8078C5.65293 56.8798 6.22894 56.0637 7.32894 55.7997C7.43694 55.7717 7.54492 55.7557 7.65292 55.7437C8.09292 55.8077 8.53294 55.8517 8.97694 55.8877C10.4369 56.3717 11.6849 57.8317 12.5209 58.9477C13.2849 59.9677 14.1609 61.0758 14.5569 62.3038C14.7129 62.7958 14.821 63.2958 14.893 63.8038C14.609 62.9598 14.1969 62.1518 13.7089 61.4038C13.4329 60.9118 13.121 60.4438 12.785 59.9758C11.921 58.7678 11.0289 57.4997 9.75692 56.6877C8.71692 56.0237 6.81293 55.7957 6.11293 57.1717C5.68093 58.0197 5.73293 59.0158 6.26493 59.8118C6.83693 60.6558 7.82095 61.3557 8.88895 61.2197C9.91296 61.0917 10.7089 60.4558 11.3969 59.7318C11.4409 59.6878 11.5129 59.7437 11.4729 59.7957C10.8689 60.5477 10.0769 61.3797 9.07694 61.5397C9.06894 61.5557 9.05695 61.5718 9.03695 61.5798C6.88095 62.4638 4.66496 63.4398 3.34496 65.4718C3.32896 65.4998 3.28491 65.4717 3.29691 65.4437C3.37291 65.2797 3.46092 65.1237 3.55292 64.9677C3.12892 65.1717 2.56092 64.8838 2.20892 64.5957C1.70492 64.1838 1.38891 63.6998 1.20091 63.1038C0.392912 63.5118 0.0489232 64.4118 0.412923 65.2998C0.788924 66.2118 2.01291 66.1957 2.85292 66.1917C2.91292 66.0437 2.98895 65.8998 3.08495 65.7558C3.10895 65.7198 3.15696 65.7557 3.14496 65.7917C3.07296 65.9477 3.02495 66.1077 2.98495 66.2637C2.99295 66.2877 2.98493 66.3118 2.96893 66.3318C2.53693 68.4318 4.96894 70.4078 6.37694 71.5958C7.16494 72.2638 7.90494 72.9478 8.52494 73.7798C9.10894 74.5678 9.61294 75.4198 10.2289 76.1838C11.6129 77.8918 13.8489 79.0798 16.0689 78.2998C18.1849 77.5558 18.6169 75.6198 19.0969 73.6678C19.1089 73.6198 19.189 73.6158 19.189 73.6718C19.137 74.8718 18.893 76.1358 18.245 77.1158C18.825 76.6798 19.4569 76.2998 20.0209 75.8398C20.7049 75.2798 21.3569 74.6637 21.8689 73.9398C22.8409 72.5677 23.509 70.9598 23.889 69.3238C24.733 65.7278 24.073 62.2397 22.285 59.0397C22.261 58.9997 22.317 58.9597 22.345 58.9998C24.505 62.0998 25.2009 65.9158 24.2609 69.5758C23.8409 71.2118 23.2049 72.8438 22.1969 74.2118C22.0929 74.3558 21.9809 74.4958 21.8689 74.6358C22.0129 74.5398 22.1609 74.4478 22.3049 74.3678C22.9129 74.0198 23.6369 73.5718 24.3209 73.4157C24.5409 72.8117 25.0369 72.2598 25.4969 71.8958C25.9809 71.5158 26.6849 71.2158 26.9129 70.5998C27.1649 69.9118 26.9809 69.0798 26.9049 68.3718C26.8929 68.2718 26.8809 68.1758 26.8689 68.0758C26.6369 66.6998 26.3729 65.3438 25.8649 64.0197C25.2249 62.3397 24.2889 60.7918 23.4169 59.2278C22.5289 57.6358 21.6249 56.0478 20.6169 54.5318C19.1969 52.3878 17.9009 50.1998 16.9649 47.8318C16.3649 47.7878 15.7609 47.6557 15.1609 47.7397C14.8089 47.7877 14.477 47.8837 14.145 47.9877C14.557 47.9797 14.9929 48.0238 15.2729 48.3318C15.3849 48.3398 15.4929 48.3477 15.5969 48.3517C15.6289 48.3517 15.6329 48.3997 15.6009 48.4037C15.5089 48.4157 15.4209 48.4277 15.3289 48.4397C15.3169 48.4597 15.2889 48.4757 15.2609 48.4677C15.2489 48.4597 15.2369 48.4557 15.2289 48.4517C15.1089 48.4677 14.9849 48.4878 14.8649 48.5078C14.1729 48.5678 13.4969 48.7997 12.8489 49.1277C12.9729 49.0437 13.0969 48.9637 13.2289 48.8957C13.6249 48.6797 14.0329 48.5037 14.4649 48.3717C14.6089 48.3277 14.7689 48.3157 14.9289 48.3197C14.7969 48.2557 14.6649 48.1997 14.5169 48.1637C14.3129 48.1117 14.105 48.0837 13.893 48.0677C13.773 48.1037 13.6489 48.1397 13.5289 48.1757C13.4929 48.1877 13.4729 48.1437 13.5009 48.1237C14.4969 47.3677 15.653 47.3398 16.833 47.4838C16.577 46.8158 16.3489 46.1317 16.1569 45.4277C15.2449 42.0917 15.0689 38.1837 15.2489 34.7477C15.3649 32.5757 15.665 30.4557 16.133 28.3917C16.113 28.5277 16.0889 28.6597 16.0689 28.7957C15.6369 31.6237 15.1849 34.4037 15.2049 37.2797C15.2289 40.0117 15.5969 42.8357 16.5689 45.3997C17.0849 47.2677 17.805 49.0798 18.733 50.8118C19.561 52.3518 20.5889 53.7518 21.5129 55.2318C22.4769 56.7798 23.3729 58.3758 24.2569 59.9758C25.0609 61.4358 25.885 62.8637 26.385 64.4637C26.565 65.0517 26.7009 65.6477 26.8089 66.2437C26.8969 66.6077 26.977 66.9678 27.045 67.3358C27.177 68.0798 27.2969 68.8278 27.3569 69.5838C27.3889 69.9718 27.401 70.3997 27.233 70.7637C26.749 71.8197 25.4489 72.1357 24.9009 73.1678C24.5809 73.7758 24.449 74.5718 25.185 74.9318C25.601 75.1318 26.033 75.1918 26.485 75.1278C26.369 74.9358 26.289 74.7158 26.237 74.4998C25.953 73.3038 26.625 72.3398 27.677 71.8598C27.717 71.8438 27.7489 71.9038 27.7129 71.9278C26.8849 72.4838 26.237 73.3318 26.545 74.3918C26.881 75.5558 27.841 75.6078 28.841 75.3478C28.661 75.1198 28.5249 74.8398 28.4609 74.4998C28.3209 73.7758 28.461 72.9998 28.973 72.4438C29.401 71.9798 30.181 71.8038 30.781 71.7718C30.821 71.7678 30.8369 71.8318 30.7969 71.8438C30.2209 72.0078 29.569 72.1157 29.145 72.5877C28.737 73.0437 28.6249 73.7398 28.7489 74.3358C29.0609 75.8518 30.589 76.0238 31.825 75.5678C31.649 75.4238 31.489 75.2518 31.345 75.0397C30.125 73.2557 33.3569 70.5598 35.1529 71.6318C35.1849 71.6478 35.165 71.6958 35.129 71.6838C34.093 71.2998 32.9809 71.7238 32.2609 72.5238C31.6329 73.2238 30.981 74.8118 32.189 75.3278C34.481 76.2998 36.337 74.6638 37.337 72.6917C37.677 72.0238 37.8529 71.2998 38.0609 70.5838C38.2649 69.8758 38.4729 69.1598 38.5649 68.4238C38.9729 65.2038 38.713 62.0397 37.837 58.9157C37.037 56.0837 35.8889 53.2957 34.6049 50.6477C33.9569 49.3117 33.237 47.9997 32.393 46.7717C31.825 45.9477 31.1929 45.1798 30.5609 44.4118C30.1569 44.0958 29.7529 43.7837 29.3489 43.4757C27.5289 42.0837 25.8449 40.6317 24.5729 38.7037C24.5529 38.6717 24.601 38.6397 24.6249 38.6677C25.9729 40.4837 27.7769 41.8597 29.5689 43.2077C29.6849 43.2957 29.7969 43.3797 29.9129 43.4677C29.9209 43.4677 29.929 43.4677 29.937 43.4717C30.005 43.5277 30.077 43.5877 30.145 43.6397C30.837 44.1637 31.525 44.6958 32.185 45.2598C32.941 45.9078 33.6489 46.6077 34.417 47.2437C35.297 47.9757 36.265 48.6758 37.377 48.9838C38.465 49.2838 39.597 49.3997 40.725 49.3917C41.889 49.3837 43.081 49.3517 44.181 48.9397C45.209 48.5557 46.141 47.9797 47.089 47.4317C47.129 47.4118 47.169 47.4637 47.133 47.4917C46.185 48.1637 45.189 48.8397 44.089 49.2397C43.021 49.6197 41.8809 49.7237 40.7569 49.7437C38.4809 49.7797 36.4249 49.3277 34.617 47.8917C33.7449 47.1957 32.961 46.4117 32.121 45.6797C33.317 47.2157 34.253 49.0117 35.045 50.6957C36.389 53.5517 37.5729 56.5798 38.3129 59.6518C39.0529 62.7238 39.4969 66.1637 38.8129 69.2877C38.6449 70.0597 38.4609 70.8797 38.2009 71.6637C38.8609 71.3557 39.569 71.2638 40.317 71.2838C41.213 71.3038 42.001 71.5878 42.841 71.8078C42.301 69.2038 43.0009 66.5438 43.4609 63.9798C44.1129 60.3358 45.317 56.9197 46.773 53.5237C48.217 50.1517 49.881 46.9077 51.881 43.8277C52.733 42.5117 53.625 41.2157 54.537 39.9397C54.741 39.2037 55.053 38.4797 55.265 37.7477C55.473 37.0277 55.7129 36.3357 56.0489 35.6597C56.0689 35.6157 56.129 35.6437 56.113 35.6877C55.805 36.5637 55.6489 37.4837 55.4049 38.3757C55.3529 38.5637 55.301 38.7597 55.245 38.9597C56.253 37.5797 57.289 36.2197 58.345 34.8757C58.381 34.8317 58.445 34.8877 58.413 34.9317C56.105 38.1557 53.7689 41.3717 51.6969 44.7517C49.6689 48.0597 47.961 51.5277 46.517 55.1278C45.805 56.9038 45.081 58.7038 44.593 60.5558C44.121 62.3558 43.8089 64.1877 43.5049 66.0197C43.2809 67.3918 42.949 68.7598 43.021 70.1558C43.077 71.2798 43.2889 72.4198 43.7569 73.4518C44.2169 74.4558 44.933 75.4158 45.965 75.8838C46.225 76.0038 46.545 76.1117 46.881 76.1877C47.025 76.2598 47.177 76.3198 47.333 76.3678C47.813 76.4678 48.301 76.5078 48.769 76.3598C49.493 76.1318 50.133 75.5358 50.041 74.7118C49.845 72.9118 48.125 72.4798 46.589 72.6917C46.565 72.6958 46.561 72.6598 46.585 72.6558C47.417 72.5078 48.4249 72.3038 49.2009 72.7678C49.9089 73.1918 50.421 74.0278 50.381 74.8758C50.353 75.4438 50.085 75.9437 49.665 76.2878C50.753 76.6558 52.433 77.0078 53.261 76.0518C53.761 75.4798 53.6209 74.5998 53.2009 74.0118C52.7569 73.3918 52.1929 73.1398 51.4489 73.0798C51.4209 73.0758 51.4289 73.0358 51.4529 73.0358C52.9889 72.8638 54.525 74.5518 53.685 76.0358C53.577 76.2278 53.441 76.3838 53.289 76.5158C54.113 76.5158 55.093 75.9878 55.209 75.0958C55.341 74.0718 54.525 73.2557 53.537 73.1877C53.489 73.1837 53.493 73.1038 53.541 73.1038C54.733 73.0518 55.7609 74.1118 55.5049 75.3118C55.4209 75.7158 55.1609 76.0518 54.8529 76.3198C55.2689 76.3958 55.697 76.3798 56.061 76.1158C56.449 75.8318 56.789 75.3838 56.733 74.8678C56.669 74.2918 56.249 73.8997 56.009 73.4157C55.985 73.4038 55.957 73.3877 55.941 73.3637C54.553 71.3237 56.033 68.5678 56.841 66.5998C57.869 64.0918 59.509 61.9438 61.077 59.7558C61.913 58.5838 62.753 57.4037 63.413 56.1197C64.077 54.8277 64.597 53.4558 65.057 52.0798C66.093 48.9997 66.629 45.9117 66.781 42.6717C66.781 42.6437 66.829 42.6477 66.833 42.6757C66.833 42.7037 66.837 42.7317 66.837 42.7598C66.829 42.8118 66.825 42.8598 66.817 42.9118C66.801 43.0318 66.821 43.1357 66.857 43.2197C66.961 46.0957 66.361 49.0357 65.513 51.7637C64.697 54.3837 63.589 56.8077 62.037 59.0677C60.501 61.3117 58.729 63.4357 57.577 65.9198C56.577 68.0798 55.093 70.8558 56.237 73.2038C56.257 73.2398 56.257 73.2798 56.245 73.3078C56.433 73.5438 56.6329 73.7798 56.7969 74.0238C57.9169 74.2478 58.985 74.6158 60.029 75.0758C60.485 75.2758 61.001 75.4517 61.473 75.6877C61.217 75.3637 60.981 75.0198 60.769 74.6438C59.929 73.1398 59.3809 71.4398 59.3489 69.7118C59.3129 67.9758 59.7409 66.2317 60.5009 64.6397C60.4609 64.6437 60.4169 64.6238 60.4009 64.5758C60.2009 63.9118 60.465 63.0357 60.729 62.4157C61.065 61.6317 61.529 60.9437 62.109 60.3237C62.153 60.2798 62.225 60.3357 62.185 60.3877C61.709 60.9757 61.305 61.6318 61.045 62.3518C60.897 62.7598 60.765 63.1837 60.709 63.6157C60.673 63.8597 60.673 64.1078 60.637 64.3518C61.425 62.7998 62.529 61.4078 63.837 60.3318C63.861 60.3078 63.901 60.3518 63.877 60.3758C61.377 62.7358 59.501 66.3398 59.741 69.8558C59.857 71.5598 60.373 73.2638 61.285 74.7118C62.021 75.8838 63.0169 76.8198 64.0009 77.7758C63.9729 77.6998 63.949 77.6278 63.929 77.5478C63.533 76.0718 64.1249 74.8118 64.701 73.4798C64.725 73.4238 64.805 73.4638 64.785 73.5198C64.337 74.8878 63.717 76.3438 64.357 77.7598C65.025 79.2358 66.425 79.6158 67.937 79.6238C69.385 79.6278 70.797 79.5238 72.197 79.1358C72.753 78.9798 73.289 78.7958 73.821 78.5918C74.461 78.2998 75.109 78.0238 75.761 77.7518C75.869 77.7038 75.973 77.6518 76.081 77.6038C76.093 77.5998 76.101 77.6038 76.105 77.6078C76.489 77.4518 76.873 77.2958 77.257 77.1438C78.689 76.5758 80.185 76.1358 81.497 75.2958C82.549 74.6238 83.613 73.8358 84.341 72.7998C85.125 71.6798 85.577 69.9958 84.589 68.8478C84.545 68.7998 84.621 68.7358 84.673 68.7758C85.085 69.0958 85.309 69.5597 85.405 70.0677C86.241 70.0317 87.149 69.7438 87.501 68.9118C87.877 68.0238 87.729 67.2318 86.853 66.7518C86.833 66.7998 86.813 66.8437 86.793 66.8917C86.305 67.8837 85.453 68.1878 84.397 68.0958C84.349 68.0918 84.353 68.0157 84.401 68.0157C85.265 68.0197 86.081 67.7998 86.457 66.9358C86.641 66.5078 86.801 66.0157 86.733 65.5437C86.649 64.9637 86.353 64.6678 85.853 64.4358C85.209 65.6358 83.941 66.1438 82.601 65.9118C82.561 65.9038 82.565 65.8438 82.605 65.8438C83.661 65.7997 84.797 65.6358 85.385 64.6358C85.673 64.1438 85.937 63.5438 85.845 62.9558C85.729 62.1918 85.157 61.6677 84.373 61.7157C84.309 61.8597 84.237 61.9998 84.165 62.1358C83.481 63.3718 82.405 64.0597 81.093 64.2677C81.549 64.6197 81.941 65.0678 82.249 65.6078C82.281 65.6678 82.209 65.7557 82.153 65.6958C81.105 64.6317 79.993 63.5757 78.449 63.3397C78.417 63.3357 78.425 63.2877 78.457 63.2917C79.333 63.3557 80.145 63.6198 80.837 64.0798C82.101 63.7918 83.185 63.1998 83.825 61.9798C84.285 61.0998 84.737 59.7598 84.153 58.8278C83.273 57.4318 81.237 57.8878 80.069 58.6278C78.577 59.5718 78.021 60.9358 77.609 62.5838C77.605 62.6038 77.577 62.5998 77.581 62.5758C77.629 61.9358 77.765 61.3118 77.989 60.7358C77.441 61.2038 76.773 61.5597 76.201 61.9717C75.425 62.5317 74.885 63.2718 74.253 63.9798C74.237 63.9998 74.209 63.9758 74.221 63.9518C74.689 63.2078 75.157 62.3878 75.857 61.8318C76.209 61.5518 76.581 61.2758 76.953 61.0078C76.965 60.9598 76.973 60.9078 76.981 60.8598C77.393 60.3158 77.617 59.5838 77.793 58.8838C77.729 59.4838 77.625 60.0798 77.449 60.6518C77.725 60.4598 78.001 60.2717 78.281 60.0917C78.749 59.2357 79.445 58.5237 80.389 58.0677C81.593 57.4837 83.669 57.1838 84.449 58.6118C84.909 59.4558 84.825 60.4677 84.501 61.3677C85.925 61.3397 86.429 62.9318 85.989 64.1238C86.517 64.3758 86.873 64.7038 87.009 65.2957C87.089 65.6478 87.061 66.0518 86.961 66.4238C86.965 66.4238 86.969 66.4238 86.973 66.4278C87.977 66.9798 88.329 68.0078 87.797 69.0598L87.777 69.0278ZM3.50492 60.4998C3.57292 61.7798 4.50095 62.6557 5.78495 62.6397C5.79695 62.6397 5.80893 62.6438 5.81693 62.6518C6.48093 62.2198 7.30494 61.7158 8.12494 61.5038C7.38894 61.3718 6.71694 60.9797 6.22894 60.3917C5.71294 59.7637 5.45294 58.9398 5.47294 58.1558C5.45694 58.1518 5.43693 58.1517 5.41693 58.1437C4.93693 57.9277 4.22093 58.5798 3.96893 58.9358C3.65293 59.3838 3.46891 59.9478 3.50091 60.4998H3.50492ZM1.45692 62.9917C1.71692 63.8517 2.62492 65.0918 3.66092 64.7598C4.15692 63.9878 4.81294 63.3318 5.57694 62.8118C4.98894 62.9238 4.31693 62.6078 3.91693 62.1998C3.42093 61.6918 3.20891 61.0797 3.19691 60.3917C1.66891 60.0997 1.08892 61.7677 1.46092 62.9877L1.45692 62.9917Z" fill="#692E02"/>
</g>
<g style="mix-blend-mode:multiply" opacity="0.4">
<path d="M60.0129 25.5797C59.9129 26.6757 59.6649 27.7637 59.2649 28.7877C58.9329 29.6437 58.5009 30.3677 58.0089 31.1117C58.0049 31.1237 58.0009 31.1357 58.0009 31.1477C57.9969 31.1597 57.9849 31.1637 57.9729 31.1637C57.9169 31.2517 57.8569 31.3397 57.7969 31.4277C57.7689 31.4677 57.7129 31.4277 57.7289 31.3877C57.7929 31.2157 57.873 31.0477 57.945 30.8837C57.949 30.5557 57.9489 30.2197 57.9129 29.8917C57.8329 31.2837 57.1249 32.7157 56.3089 33.7837C55.7849 34.4637 55.1609 35.0117 54.4209 35.4477C54.0129 35.6917 53.569 35.9117 53.193 36.2117C52.949 36.4037 52.7409 36.6237 52.5249 36.8397C52.4969 36.8797 52.473 36.9237 52.445 36.9597C52.429 36.9797 52.4009 36.9797 52.3809 36.9717C52.3529 36.9957 52.3249 37.0237 52.2969 37.0517C52.2729 37.0717 52.2489 37.0357 52.2649 37.0157C52.2969 36.9637 52.3289 36.9157 52.3649 36.8637C52.4729 36.5117 52.5889 36.1557 52.7089 35.7997C52.2009 36.6997 51.5289 37.5117 50.7209 38.1357C49.3129 39.2197 47.6769 39.9077 46.0969 40.6917C44.6329 41.4197 43.2569 42.2677 42.1409 43.4837C41.3609 44.3357 40.5889 45.4277 40.5329 46.5957C40.4729 47.0437 40.5329 47.4997 40.6289 47.9517C40.0889 46.8997 39.4769 45.8837 38.6329 45.0437C37.7129 44.1237 36.6129 43.3997 35.4369 42.8397C34.1849 42.2437 32.8769 41.7917 31.5849 41.2877C30.2529 40.7677 28.9449 40.1717 27.6729 39.5197C25.5769 38.4517 23.5289 37.2117 22.3409 35.0997C21.6449 33.8637 21.2849 32.4677 21.6169 31.1717C21.5129 31.3917 21.4329 31.6117 21.3809 31.8677C21.3689 31.9157 21.2969 31.9277 21.2809 31.8757C21.2209 31.7037 21.2169 31.5397 21.2489 31.3797C20.9969 29.9837 21.2129 28.7157 21.9929 27.4997C22.0289 27.4437 22.1129 27.5037 22.0889 27.5597C21.6089 28.6917 21.4409 29.7957 21.3929 30.9837C21.5649 30.6677 21.8449 30.3837 22.0689 30.1117C22.1609 29.9597 22.2649 29.8117 22.3849 29.6597C22.4249 29.6157 22.5089 29.6637 22.4769 29.7197C21.2209 31.8237 21.9249 34.2357 23.4089 36.0197C25.0569 38.0037 27.5009 39.0997 29.8009 40.1477C32.1849 41.2357 34.7529 41.9237 36.9929 43.3037C38.3049 44.1117 39.4649 45.2837 40.2609 46.6357C40.1969 45.6997 40.6449 44.7597 41.2369 43.9797C42.1369 42.7997 43.3089 41.7837 44.5929 41.0397C46.2129 40.0997 47.9969 39.4477 49.5809 38.4357C50.4249 37.8997 51.1809 37.2757 51.8129 36.4997C52.4689 35.6917 52.9169 34.7997 53.3609 33.8637C53.3689 33.8517 53.3769 33.8437 53.3889 33.8357C53.4169 33.7557 53.4449 33.6797 53.4729 33.5997C53.4889 33.5597 53.549 33.5797 53.545 33.6197C53.445 34.4037 53.2769 35.2757 52.9489 36.0437C52.9649 36.0237 52.9809 36.0037 53.0009 35.9837C53.2489 35.7317 53.5689 35.5397 53.8689 35.3557C54.5809 34.9157 55.2649 34.4797 55.8129 33.8357C56.3609 33.1837 56.7929 32.4557 57.1489 31.6837C57.5049 30.9117 57.8409 30.1837 57.8209 29.3277C57.7969 29.2357 57.7689 29.1437 57.7329 29.0517C57.7129 29.0077 57.7809 28.9677 57.8129 29.0117C57.8329 29.0437 57.8489 29.0797 57.8689 29.1117C57.8849 29.1117 57.9049 29.1237 57.9089 29.1477C57.9089 29.1637 57.9089 29.1757 57.9089 29.1917C58.1129 29.5957 58.177 30.0437 58.141 30.4877C58.441 29.8837 58.7769 29.2917 59.0089 28.6557C59.3569 27.7077 59.6209 26.7197 59.7089 25.7117C59.8729 23.8477 59.5449 22.0517 58.3329 20.5797C58.2329 20.5197 58.1369 20.4637 58.0329 20.4117C58.0169 20.4037 58.029 20.3837 58.045 20.3877C58.581 20.5597 59.0449 20.7677 59.437 21.1037C59.3009 20.8957 59.1649 20.6917 58.9969 20.5037C58.6249 20.0877 58.2169 19.7677 57.7009 19.5517C57.6569 19.5357 57.6809 19.4637 57.7209 19.4757C58.7169 19.7557 59.5929 20.5597 59.8729 21.5757C59.9009 21.6157 59.9329 21.6557 59.9649 21.6957C59.9889 21.7357 59.9489 21.7797 59.9089 21.7637C59.9009 21.7717 59.8889 21.7757 59.8809 21.7637C59.8689 21.7517 59.8649 21.7357 59.8529 21.7237C59.5049 21.4437 59.153 21.1517 58.789 20.8837C59.925 22.1117 60.1689 23.9397 60.0249 25.5637L60.0129 25.5797Z" fill="#692E02"/>
</g>
<g style="mix-blend-mode:multiply" opacity="0.4">
<path d="M80.473 71.9397C78.985 71.8437 77.593 71.9357 76.117 72.1397C74.805 72.3197 73.697 72.9037 72.505 73.4397C72.485 73.4477 72.4691 73.4157 72.4851 73.4037C73.6091 72.7077 74.7531 72.0077 76.0851 71.8037C77.5011 71.5877 79.0931 71.4117 80.4891 71.8317C80.5571 71.8517 80.541 71.9477 80.469 71.9397H80.473Z" fill="#692E02"/>
</g>
<g style="mix-blend-mode:multiply" opacity="0.4">
<path d="M53.7211 39.4276C52.8171 41.9836 50.9731 44.6836 48.5371 45.9876C48.4971 46.0076 48.4531 45.9517 48.4931 45.9277C50.9211 44.4037 52.3091 41.8357 53.6811 39.4077C53.6931 39.3797 53.7331 39.3996 53.7251 39.4276H53.7211Z" fill="#692E02"/>
</g>
<g style="mix-blend-mode:multiply" opacity="0.4">
<path d="M14.3209 72.7717C12.8929 70.4877 10.5449 68.3277 7.70493 68.2077C7.66493 68.2077 7.66092 68.1517 7.70092 68.1437C10.4929 67.7277 13.3569 70.3557 14.4129 72.7237C14.4369 72.7757 14.3529 72.8197 14.3209 72.7717Z" fill="#692E02"/>
</g>
<path d="M28.9011 9.01565C28.8931 9.08365 28.8531 9.12365 28.8011 9.14365C28.7851 9.17165 28.7651 9.19966 28.7531 9.22766C28.6331 9.44766 28.5011 9.66366 28.3411 9.85966C28.1851 10.0597 27.8771 10.4237 27.5651 10.4357C27.5491 10.4517 27.525 10.4717 27.497 10.4797C25.933 11.0837 23.6691 11.5037 22.2611 10.3357C21.6811 9.85567 21.1891 9.13566 21.1411 8.37566C21.1051 7.86366 21.1931 7.37966 21.3451 6.90766C21.5011 6.04766 21.8131 5.21966 22.4171 4.53566C23.2451 3.59566 24.5691 2.59165 25.8891 2.47565C29.0331 2.19565 29.0931 7.03166 28.9051 9.00766L28.9011 9.01565Z" fill="#BA6700"/>
<g style="mix-blend-mode:multiply" opacity="0.4">
<path d="M28.9011 9.01568C28.8931 9.08368 28.8531 9.12368 28.8011 9.14368C28.7851 9.17168 28.7651 9.19969 28.7531 9.22769C28.6331 9.44769 28.5012 9.6637 28.3412 9.8597C28.1852 10.0597 27.8771 10.4237 27.5651 10.4357C27.5491 10.4517 27.5251 10.4717 27.4971 10.4797C25.9331 11.0837 23.6691 11.5037 22.2611 10.3357C21.6811 9.8557 21.1892 9.13569 21.1412 8.37569C21.1292 8.24369 21.1292 8.11169 21.1372 7.97969C21.3412 8.83569 21.4451 9.5677 22.4491 9.7597C22.5371 9.7757 23.0572 9.67969 22.9932 9.62369C22.3932 9.13169 22.6132 7.95969 22.8772 7.17969C23.1092 6.48769 23.6812 5.43967 24.2292 4.93967C24.8292 4.39567 25.8491 4.18368 26.4131 4.79568C26.8971 5.31568 27.2652 6.06369 27.6412 6.47569C27.7012 6.54369 27.8012 6.49969 27.8292 6.42769C28.2332 5.39169 27.8132 3.86369 27.2252 2.95168C27.1412 2.82368 27.0531 2.71169 26.9571 2.61169C29.0411 3.40369 29.0691 7.2917 28.9051 9.0117L28.9011 9.01568Z" fill="#A14801"/>
</g>
<path d="M27.1533 9.5156C26.7133 8.5076 26.6413 7.33162 25.8773 6.45562C25.4813 6.00362 24.7373 5.74761 24.2813 6.30361C23.9733 6.67961 23.8773 7.16362 23.7173 7.60762C23.7053 7.64762 23.6453 7.6236 23.6533 7.5876C23.8013 6.6276 24.3693 5.17562 25.6693 5.80762C26.1893 6.05962 26.5214 6.6716 26.7454 7.1676C27.0694 7.8876 27.2934 8.63561 27.4894 9.39961C27.5414 9.61161 27.2453 9.7196 27.1573 9.5156H27.1533Z" fill="#692E02"/>
<g style="mix-blend-mode:multiply" opacity="0.5">
<path d="M27.3372 9.65561C26.8372 9.72361 26.3932 10.0916 25.1892 10.0676C22.3772 10.0116 23.5612 4.78361 25.6692 5.81161C26.1892 6.06361 26.5213 6.6756 26.7453 7.1716C27.0693 7.8916 27.2933 8.6396 27.4893 9.4036C27.5413 9.6156 27.5693 9.62761 27.3413 9.65961L27.3372 9.65561Z" fill="#A14801"/>
</g>
<path d="M24.0773 4.19568C23.2532 4.67568 22.2972 5.46767 21.8212 6.31568C21.8132 6.33168 21.7813 6.32769 21.7853 6.30369C22.0653 5.29169 22.7053 4.58368 23.6853 4.31968C23.7053 4.31568 24.0972 4.18368 24.0732 4.19968L24.0773 4.19568Z" fill="#E29D55"/>
<path d="M25.313 3.81971C24.573 3.78771 23.253 4.10371 22.777 4.61971C22.753 4.64371 22.845 4.51172 22.961 4.37572C23.473 3.76372 24.197 3.55571 25.013 3.74371C25.033 3.74771 25.341 3.82372 25.317 3.82372L25.313 3.81971Z" fill="#E29D55"/>
<path d="M27.0811 3.46768C26.2491 2.83568 24.9651 3.28768 23.9451 3.53968C23.9251 3.54368 24.2011 3.34368 24.3731 3.23968C25.1731 2.73968 26.3971 2.2837 27.0291 3.3117C27.0451 3.3397 27.1051 3.49168 27.0811 3.47168V3.46768Z" fill="#E29D55"/>
<path d="M45.4169 0.299659C47.8449 -0.644342 49.9889 0.803655 51.6169 2.39566C51.9969 2.76766 52.3329 3.17967 52.5529 3.67967C52.8809 4.41567 52.7769 5.35165 52.4609 6.03965C51.5489 8.00765 48.7329 8.49166 46.8129 8.77166C46.7369 8.78366 46.6689 8.78765 46.6169 8.78765C45.9369 9.01565 45.1249 8.96766 44.7689 8.92366C44.4169 8.87566 44.1449 8.79167 43.9209 8.67566C43.8929 8.66366 43.8649 8.64767 43.8369 8.63167C43.7649 8.65167 43.6929 8.64367 43.6809 8.58367C43.2409 6.95567 43.3809 1.09166 45.4209 0.299659H45.4169Z" fill="#BA6700"/>
<g style="mix-blend-mode:multiply" opacity="0.4">
<path d="M44.4809 0.915649C44.4329 1.05165 44.4009 1.20365 44.3769 1.36365C44.2209 2.49165 44.4689 4.07966 44.8769 5.00366C44.9049 5.06766 44.9969 5.05967 45.0449 4.95967C45.3489 4.31967 45.3609 3.47567 45.6609 2.75567C46.0089 1.91166 47.0968 1.63967 47.8489 1.88367C48.5409 2.11167 49.4929 2.83967 50.0849 3.38367C50.7569 3.99167 51.6769 4.97567 51.3529 5.70767C51.3169 5.78767 51.9049 5.64367 51.9809 5.58367C52.8769 4.93967 52.5889 4.19966 52.3609 3.30366C52.4329 3.42366 52.5009 3.54766 52.5569 3.67966C52.8849 4.41167 52.7809 5.35165 52.4649 6.03965C51.5529 8.00765 48.7369 8.49166 46.8169 8.77166C46.7409 8.78366 46.6729 8.78765 46.6209 8.78765C45.9409 9.01565 45.1289 8.96766 44.7729 8.92366C44.4209 8.87566 44.1489 8.79166 43.9249 8.67566C43.8969 8.66366 43.8689 8.64767 43.8409 8.63167C43.7689 8.65167 43.6929 8.63967 43.6849 8.58367C43.3129 6.85167 43.4969 2.70765 44.4849 0.915649H44.4809Z" fill="#A14801"/>
</g>
<path d="M45.9208 7.86364C45.7528 7.05164 45.8367 6.12765 46.0167 5.22365C46.1407 4.60365 46.2088 3.87964 46.6328 3.39564C47.6848 2.19564 48.7207 3.31564 49.4007 4.14364C49.4247 4.17564 49.3688 4.22364 49.3328 4.19564C48.9168 3.85964 48.6047 3.44365 48.1527 3.23165C47.4847 2.91565 46.8447 3.50364 46.6527 4.11564C46.2807 5.29564 46.5567 6.54365 46.6007 7.72365C46.6087 7.96365 45.9648 8.09565 45.9208 7.87165V7.86364Z" fill="#692E02"/>
<g style="mix-blend-mode:multiply" opacity="0.5">
<path d="M45.9208 7.86362C45.7528 7.05162 45.8367 6.12763 46.0167 5.22363C46.1407 4.60363 46.2128 3.76763 46.6328 3.39563C48.2768 1.94763 51.3487 5.79964 49.5087 7.10364C48.6527 7.71164 47.3648 7.65964 46.3728 7.97564C45.9208 8.11964 45.9648 8.09163 45.9208 7.86763V7.86362Z" fill="#A14801"/>
</g>
<path d="M48.213 1.02763C49.281 0.827627 50.141 1.20363 50.873 2.02763C50.889 2.04363 50.857 2.06763 50.841 2.05563C49.973 1.47963 48.757 1.16362 47.781 1.09562C47.757 1.09162 48.189 1.03163 48.209 1.02763H48.213Z" fill="#E29D55"/>
<path d="M46.7088 1.09567C47.4528 0.539674 48.2288 0.399672 48.9488 0.743672C49.1088 0.823673 49.2488 0.903671 49.2128 0.891671C48.5608 0.62367 47.1529 0.93969 46.4329 1.31169C46.4089 1.32369 46.6888 1.11167 46.7088 1.09567Z" fill="#E29D55"/>
<path d="M44.669 1.60369C44.861 0.347685 46.185 0.207692 47.153 0.311692C47.357 0.331693 47.705 0.395681 47.681 0.399681C46.609 0.639681 45.177 0.799682 44.681 1.77568C44.665 1.80368 44.665 1.63168 44.669 1.59968V1.60369Z" fill="#E29D55"/>
<path d="M57.7691 18.9517C57.7571 18.9877 57.7171 19.0037 57.6851 18.9957C57.6611 18.9997 57.6291 18.9877 57.6211 18.9597C57.4771 18.4917 57.2811 18.1597 56.9851 17.7677C56.9531 17.7237 56.9171 17.6797 56.8851 17.6357C57.2091 18.6437 57.0051 19.5757 56.301 20.5157C55.453 21.6477 54.409 22.5717 53.053 23.0357C51.629 23.5237 50.1891 23.8517 48.8251 24.5157C47.3811 25.2197 45.9931 26.0677 44.6331 26.9237C44.4171 27.0957 44.2011 27.2757 43.9931 27.4597C43.2051 28.1637 42.5491 28.9677 41.8651 29.7717C40.7971 31.0277 39.1811 31.6517 37.6331 32.0837C36.0891 32.5197 34.4691 32.6277 32.8811 32.3757C31.5851 32.1757 30.233 31.6837 29.457 30.5677C29.133 30.5077 28.8211 30.4037 28.5331 30.2517C28.5211 30.2517 28.509 30.2517 28.501 30.2477C28.037 30.0997 27.505 29.8077 27.249 29.3797C27.129 29.1797 27.0891 28.9357 27.0731 28.6837C26.1131 28.3997 25.1891 27.9437 24.2891 27.5277C23.2891 27.0677 22.2891 26.5717 21.3931 25.9277C20.4891 25.2757 19.0291 23.6957 19.7451 22.5717C19.6331 22.6477 19.525 22.7277 19.425 22.8197C19.225 22.9997 19.0171 23.2277 18.8811 23.4757C18.8651 23.5357 18.8491 23.5957 18.8291 23.6557C18.8211 23.6757 18.8091 23.6797 18.7891 23.6797C18.7811 23.7037 18.769 23.7317 18.761 23.7557C18.749 23.7957 18.6851 23.7997 18.6851 23.7557C18.6851 23.6437 18.701 23.5397 18.725 23.4357C18.697 21.8117 19.221 20.3797 20.165 19.0517C20.609 18.4277 21.0891 17.8437 21.7371 17.4197C21.8851 17.3237 22.0371 17.2277 22.1891 17.1397C22.3171 16.4877 22.6291 15.8837 22.9371 15.2957C23.2931 14.6197 23.6251 13.9357 24.0251 13.2837C24.7531 12.0957 25.573 10.9517 26.497 9.90773C28.081 8.12373 30.0291 6.41973 32.2771 5.53173C32.1611 5.47573 32.041 5.42773 31.913 5.38373C31.733 5.39173 31.5531 5.39171 31.3731 5.36771C31.3451 5.36371 31.3451 5.32772 31.3691 5.31972C31.4491 5.29172 31.529 5.26373 31.613 5.23573C31.613 5.23573 31.6171 5.23173 31.6211 5.23173C31.6331 5.22773 31.645 5.22772 31.657 5.22372C32.017 5.11572 32.393 5.05172 32.761 5.07172C32.285 4.81972 31.821 4.62372 31.249 4.52372C31.153 4.54772 31.053 4.57572 30.953 4.59972C30.925 4.60772 30.9091 4.57173 30.9331 4.55573C31.5171 4.09173 32.533 3.89973 33.265 3.93573C33.773 3.95973 34.293 4.05173 34.749 4.28373C34.101 3.49973 34.6331 2.54372 35.3851 1.85572C35.4131 1.82772 35.4571 1.87172 35.4411 1.90372C35.4131 1.96372 35.381 2.02373 35.349 2.08373C35.105 3.87973 37.6251 4.27172 38.8851 4.55172C40.4211 4.89972 41.9651 5.21173 43.4451 5.75973C44.9651 6.32373 46.321 7.13572 47.649 8.04772C48.901 8.90372 50.189 9.80373 51.197 10.9517C52.929 11.2157 54.5251 11.9597 55.8571 13.1957C57.3851 14.6117 58.3771 16.8677 57.7611 18.9597L57.7691 18.9517Z" fill="#BA6700"/>
<path opacity="0.2" d="M31.501 4.23162C32.057 4.00362 32.741 3.90361 33.269 3.92761C33.285 3.92761 33.297 3.93162 33.313 3.93162C34.189 4.13162 34.949 4.6076 35.805 5.04361C35.921 5.10361 36.045 4.95562 35.949 4.85562C35.213 4.10362 35.061 3.2756 35.345 2.4436C35.469 3.8916 37.621 4.26361 38.805 4.52761C39.817 4.97161 40.917 5.22361 41.925 5.67161C43.341 6.30361 44.861 7.21561 45.865 8.41961C46.133 8.73961 46.645 9.5116 46.145 9.8396C45.461 10.2876 44.193 9.60761 43.589 9.29961C42.481 8.74361 41.265 7.87161 39.953 8.06761C37.801 8.38761 37.185 10.9916 36.773 12.7636C36.509 13.9036 36.369 15.2956 35.365 16.0516C34.845 16.4436 34.165 16.5236 33.537 16.5996C32.833 16.6836 32.021 16.7476 31.373 16.4196C30.745 16.0996 30.781 14.9516 30.733 14.3556C30.681 13.7036 30.665 13.0516 30.557 12.4036C30.397 11.4596 29.889 10.3556 28.913 10.0396C28.373 9.8636 27.781 9.73961 28.113 9.04761C28.341 8.57961 28.745 8.18762 29.117 7.83162C29.897 7.08762 30.949 6.28762 32.053 6.23562C32.065 6.23562 32.073 6.23161 32.085 6.22761C32.585 6.21161 33.089 6.2916 33.593 6.46761C33.701 6.5036 33.761 6.37961 33.725 6.29561C33.441 5.63961 32.861 5.36361 32.221 5.24761C32.961 5.22761 33.689 5.51562 34.389 5.90362C34.473 5.95162 34.601 5.87161 34.561 5.77161C34.077 4.48761 32.741 3.99961 31.497 4.22761L31.501 4.23162Z" fill="#EFAC6F"/>
<path opacity="0.2" d="M56.3049 14.5557C56.6129 15.0197 56.0689 15.0917 55.8609 15.0597C55.7569 15.0437 55.6609 15.0037 55.5609 14.9677C55.0889 14.7957 54.6809 14.4877 54.1889 14.3757C53.9449 14.3197 53.6329 14.3677 53.4769 14.5877C53.2689 14.8917 53.4689 15.1677 53.6289 15.4437C53.9169 15.9597 52.7289 15.6597 52.5489 15.6157C52.2569 15.5357 51.9729 15.5357 51.6729 15.5397C50.8809 15.5517 50.0729 15.6477 49.3009 15.8357C48.6049 16.0077 47.9369 16.2997 47.2969 16.6157C46.6449 16.9397 46.0489 17.3597 45.3529 17.5957C44.6689 17.8317 44.0809 17.5357 44.0769 16.7917C44.0769 16.2237 44.3449 15.6317 44.5889 15.1277C45.1609 13.9357 46.0009 12.9156 47.1089 12.1876C47.7969 11.7356 48.5769 11.4677 49.3809 11.3117C50.0009 11.1917 50.5889 11.2637 51.1689 11.3997C51.1249 11.4597 51.1369 11.5597 51.2289 11.5797C52.9049 11.9517 54.2569 12.8796 55.6009 13.8877C55.8609 14.0837 56.1169 14.2837 56.3009 14.5557H56.3049Z" fill="#EFAC6F"/>
<path opacity="0.2" d="M19.7651 20.1396C20.1731 19.3636 20.7411 18.6156 21.3571 17.9956C22.3691 16.9716 24.1011 16.4156 25.5091 16.3396C26.7091 16.2716 27.7731 16.8156 28.7251 17.4916C28.7291 17.5236 28.7411 17.5556 28.7771 17.5836C29.5931 18.1676 27.7131 18.6156 27.2891 18.6916C26.0611 18.9076 25.0251 19.3636 23.9811 20.0396C23.4531 20.3796 22.9251 20.8756 22.3291 21.0876C22.1451 21.1516 22.1051 20.6116 22.0371 20.5036C21.7131 19.9516 20.9611 20.6516 20.7091 20.8876C20.4811 21.1076 19.8051 21.9076 19.4811 21.4716C19.2211 21.1196 19.5971 20.4596 19.7651 20.1476V20.1396Z" fill="#EFAC6F"/>
<path d="M43.2971 25.6276C40.1771 29.8836 34.6171 32.1676 29.5451 30.6756C29.5171 30.6396 29.4891 30.5996 29.4611 30.5636C29.1371 30.5036 28.8251 30.3996 28.5371 30.2476C28.5251 30.2476 28.5131 30.2476 28.5051 30.2436C28.0411 30.0956 27.5091 29.8036 27.2531 29.3756C27.2371 29.3476 27.2211 29.3116 27.2051 29.2796C26.9331 28.6836 27.4131 27.9676 26.9291 27.4356C26.4931 26.9556 25.7651 26.7836 25.3131 26.2956C24.7611 25.6996 24.3331 24.9676 24.2251 24.1516C25.0611 21.4996 27.9691 18.6556 30.2291 17.6836C31.9611 17.3396 33.8251 17.1716 35.5891 17.0836C37.8011 17.8956 40.1011 18.2236 42.0811 19.5556C42.9851 20.1636 43.8051 20.9836 44.1931 22.0156C44.6851 23.3156 44.0611 24.5876 43.2971 25.6276Z" fill="#EFAC6F"/>
<g style="mix-blend-mode:multiply">
<path d="M44.2408 23.0797C44.0088 24.1277 42.5728 25.4037 41.5808 24.6917C41.5488 24.6357 41.4768 24.6037 41.4248 24.6357C41.3488 24.6517 41.2968 24.7277 41.3368 24.7957C40.8808 25.8637 40.5888 27.0037 40.0368 28.0317C39.3088 29.3877 37.9688 30.0877 36.5328 30.4797C35.7488 30.6917 34.9288 30.7317 34.1208 30.7557C33.7368 30.7677 33.3808 30.7037 33.0088 30.5917C32.7648 30.5197 32.5048 30.4237 32.2448 30.4717C32.0248 30.5077 31.8328 30.5837 31.6288 30.6677C31.2408 30.8317 30.8688 30.9157 30.4688 30.9037C30.1608 30.8397 29.8528 30.7677 29.5488 30.6757C29.5208 30.6397 29.4928 30.5997 29.4648 30.5637C29.1648 30.5077 28.8728 30.4117 28.6008 30.2757C29.3088 30.2997 30.0808 30.0797 30.7168 29.9237C30.8408 29.8957 30.8168 29.7357 30.7168 29.6957C30.2848 29.5157 30.0208 29.1517 29.7088 28.8237C29.6808 28.7957 29.6488 28.7877 29.6248 28.7877C29.6008 28.7637 29.5608 28.7477 29.5168 28.7517C28.7448 28.8997 27.7728 28.6677 27.1648 28.0997C27.1648 27.8597 27.1208 27.6317 26.9368 27.4277C26.5008 26.9477 25.7728 26.7757 25.3208 26.2877C24.7728 25.6957 24.3448 24.9677 24.2368 24.1557C24.9768 22.9357 26.2008 22.0797 27.4728 21.4717C28.1448 21.1477 28.8608 20.9157 29.5928 20.7557C30.5488 20.5477 31.4528 20.7197 32.3928 20.8517C33.1928 21.1037 33.9848 21.3677 34.7208 21.7837C35.6248 22.2997 36.6768 23.2637 36.9408 24.3037C37.2248 25.4277 35.5208 26.6237 34.7488 27.1637C33.8288 27.8037 32.7528 28.4437 31.6288 28.6157C31.6168 28.6037 31.6048 28.5917 31.5968 28.5797C31.5008 28.4637 31.3368 28.6317 31.4288 28.7477C32.6008 30.2157 34.9768 29.6157 36.4808 29.1437C37.4688 28.8317 38.3168 28.3157 38.9208 27.4637C39.6448 26.4477 39.8088 25.1437 40.6288 24.1917C40.6768 24.1357 40.6608 24.0637 40.6208 24.0237C40.6128 23.9997 40.5968 23.9797 40.5648 23.9677C40.0008 23.7277 39.7448 23.0877 39.6848 22.4517C40.5048 24.1357 42.9568 24.2917 44.2488 23.0717L44.2408 23.0797Z" fill="#B79F51"/>
</g>
<g style="mix-blend-mode:multiply" opacity="0.4">
<path d="M57.7691 18.9517C57.7571 18.9877 57.7171 19.0037 57.6851 18.9957C57.6611 18.9997 57.6291 18.9877 57.6211 18.9597C57.4771 18.4917 57.2811 18.1597 56.9851 17.7677C56.9531 17.7237 56.9171 17.6797 56.8851 17.6357C57.2091 18.6437 57.0051 19.5757 56.301 20.5157C55.453 21.6477 54.409 22.5717 53.053 23.0357C51.629 23.5237 50.1891 23.8517 48.8251 24.5157C47.3811 25.2197 45.9931 26.0677 44.6331 26.9237C44.4171 27.0957 44.2011 27.2757 43.9931 27.4597C43.2051 28.1637 42.5491 28.9677 41.8651 29.7717C40.7971 31.0277 39.1811 31.6517 37.6331 32.0837C36.0891 32.5197 34.4691 32.6277 32.8811 32.3757C31.5851 32.1757 30.233 31.6837 29.457 30.5677C29.133 30.5077 28.8211 30.4037 28.5331 30.2517C28.5211 30.2517 28.509 30.2517 28.501 30.2477C28.037 30.0997 27.505 29.8077 27.249 29.3797C27.129 29.1797 27.0891 28.9357 27.0731 28.6837C26.1131 28.3997 25.1891 27.9437 24.2891 27.5277C23.2891 27.0677 22.2891 26.5717 21.3931 25.9277C20.4891 25.2757 19.0291 23.6957 19.7451 22.5717C19.6331 22.6477 19.525 22.7277 19.425 22.8197C19.225 22.9997 19.0171 23.2277 18.8811 23.4757C18.8651 23.5357 18.8491 23.5957 18.8291 23.6557C18.8211 23.6757 18.8091 23.6797 18.7891 23.6797C18.7811 23.7037 18.769 23.7317 18.761 23.7557C18.749 23.7957 18.6851 23.7997 18.6851 23.7557C18.6851 23.6437 18.701 23.5397 18.725 23.4357C18.697 21.8117 19.221 20.3797 20.165 19.0517C20.609 18.4277 21.0891 17.8437 21.7371 17.4197C21.8851 17.3237 22.0371 17.2277 22.1891 17.1397C22.3171 16.4877 22.6291 15.8837 22.9371 15.2957C23.2931 14.6197 23.6251 13.9357 24.0251 13.2837C24.7531 12.0957 25.573 10.9517 26.497 9.90767C26.909 9.43967 27.349 8.97967 27.813 8.53567C26.113 10.9237 24.3771 13.3157 23.3291 16.0757C23.2931 16.1637 23.393 16.2397 23.473 16.2197C23.6651 16.1757 24.465 16.0957 24.661 16.0677C23.697 16.4677 22.193 17.1117 21.417 17.7757C20.277 18.7517 19.221 20.1517 19.321 21.7237C19.325 21.7957 19.393 21.8597 19.469 21.8397C20.149 21.6437 20.7171 21.2157 21.2891 20.8117C21.0611 21.1637 20.9091 21.5757 20.9891 21.9397C21.1891 22.8597 22.597 22.3997 23.161 22.1797C23.709 21.9637 24.153 21.5797 24.597 21.2117C25.229 20.6877 25.857 20.1597 26.513 19.6637C27.485 18.9317 28.5291 18.3077 29.6771 17.9237C28.4211 18.7157 27.321 19.7157 26.357 20.8637C25.909 21.3957 24.381 22.9117 25.461 23.5237C26.321 24.0117 27.617 23.5637 28.549 23.5797C29.617 23.5957 30.685 23.5197 31.749 23.4877C32.269 23.4717 32.789 23.4757 33.309 23.4957C33.729 23.5117 34.1331 23.3357 34.5451 23.2757C34.5891 23.3437 34.6971 23.3677 34.7451 23.2797C35.0491 22.7117 34.529 22.1437 34.149 21.7677C33.709 21.3317 33.1971 20.9757 32.6851 20.6237C33.1411 20.7237 33.605 20.7877 34.049 20.9197C34.629 21.0917 35.1811 21.2037 35.7891 21.1597C36.6251 21.0997 38.685 20.2517 39.357 19.7197C40.873 18.5117 37.7091 17.9117 36.4691 17.3997C38.5011 17.2197 40.3611 17.9037 42.2931 18.4717C44.3291 19.0717 46.4051 19.2277 48.5171 19.0437C49.5211 18.9557 50.517 18.7837 51.497 18.5437C52.433 18.3157 54.0131 17.9637 54.2691 16.8357C54.3451 16.4957 53.8211 14.4757 53.4811 14.4597C54.3531 14.5077 56.6491 15.2917 56.7451 16.4237C56.5211 13.7757 53.5691 12.0197 51.257 11.4357C50.4771 11.2397 49.0931 11.1477 48.3091 11.0037C48.4411 10.9757 49.5571 10.8277 49.6851 10.7677C49.7411 10.7437 49.937 10.8356 49.905 10.7877C49.401 10.0356 48.5251 9.59967 47.8211 9.05967C46.7651 8.24767 45.7011 7.56765 44.5411 6.91965C43.4451 6.30765 42.4211 5.62367 41.2731 5.10767C42.0051 5.29567 42.7331 5.50365 43.4451 5.76365C44.9651 6.32765 46.321 7.13966 47.649 8.05166C48.901 8.90766 50.189 9.80767 51.197 10.9557C52.929 11.2197 54.5251 11.9637 55.8571 13.1997C57.3851 14.6157 58.3771 16.8717 57.7611 18.9637L57.7691 18.9517Z" fill="#A14801"/>
</g>
<g style="mix-blend-mode:multiply" opacity="0.7">
<path d="M29.5049 14.5717C29.5449 14.9837 29.7409 16.4517 29.1529 16.8037C28.5689 17.1677 28.2489 15.8637 28.5289 14.5517C28.5529 14.4317 28.7409 13.9717 28.5209 14.2077C28.3009 14.4477 27.9489 15.0757 27.9489 16.5317C27.7689 15.6517 28.0209 14.6917 28.1529 14.4037C28.3129 14.0597 28.4969 13.6197 28.8129 13.4557C29.3569 13.1717 29.4649 14.1397 29.5049 14.5717Z" fill="#A14801"/>
</g>
<g style="mix-blend-mode:multiply" opacity="0.4">
<path d="M29.4292 12.4197C29.0932 12.1237 28.8052 12.0117 28.4332 12.0477C28.0852 12.0797 27.9091 12.3157 27.6131 12.6517C27.6091 12.6557 27.3932 13.0037 27.3892 13.0037C27.4212 12.8477 27.5691 12.4157 27.6051 12.2637C27.8371 11.6117 28.0812 10.7837 28.5372 10.7317C28.6212 10.7197 28.7012 10.7557 28.7812 10.8117C29.0892 11.2477 29.2732 11.8157 29.4292 12.4197Z" fill="#A14801"/>
</g>
<path d="M29.2688 12.0157C28.9888 11.8037 28.7568 11.7197 28.4528 11.7397C28.1688 11.7557 28.0288 11.9197 27.7968 12.1477C27.7928 12.1517 27.6248 12.3917 27.6208 12.3917C27.6448 12.2837 27.7609 11.9837 27.7849 11.8757C27.9609 11.4277 28.1488 10.8517 28.5168 10.8237C28.5848 10.8157 28.6528 10.8397 28.7168 10.8837C28.9728 11.1917 29.1328 11.5957 29.2688 12.0157Z" fill="#582E02"/>
<path d="M29.5009 15.3316C29.5249 16.4036 29.2849 16.7196 29.0529 16.7116C28.8249 16.7036 28.609 16.3916 28.629 15.6236C28.649 14.8516 28.893 13.9156 29.121 13.9236C29.349 13.9316 29.4809 14.5596 29.5009 15.3316Z" fill="#582E02"/>
<path d="M29.105 14.6717C29.045 15.1997 28.933 15.3677 28.821 15.3637C28.709 15.3597 28.725 15.1077 28.757 14.8677C28.797 14.5757 28.925 14.1917 29.025 14.1317C29.121 14.0757 29.141 14.3797 29.109 14.6717H29.105Z" fill="white"/>
<g style="mix-blend-mode:multiply" opacity="0.7">
<path d="M41.5127 12.4876C41.8967 12.5996 42.1727 12.9996 42.4127 13.3156C42.6087 13.5756 43.0367 14.4837 42.9567 15.3837C42.7447 13.9437 42.2447 13.3837 41.9567 13.1837C41.6727 12.9837 41.9527 13.4117 42.0007 13.5237C42.5127 14.7757 42.3407 16.1237 41.6127 15.8597C40.8847 15.6117 40.8968 14.1277 40.8808 13.7117C40.8608 13.2757 40.8487 12.2956 41.5127 12.4876Z" fill="#A14801"/>
</g>
<g style="mix-blend-mode:multiply" opacity="0.4">
<path d="M39.6729 8.85972C39.7929 8.75972 39.9249 8.68771 40.0609 8.67171C40.8169 8.57571 41.349 9.49972 41.825 10.2117C41.905 10.3837 42.217 10.8597 42.293 11.0357C42.285 11.0357 41.881 10.6877 41.873 10.6837C41.341 10.3837 41.009 10.1597 40.433 10.2437C39.817 10.3357 39.3609 10.5717 38.8569 11.0557C39.0209 10.2637 39.2329 9.49971 39.6689 8.85571L39.6729 8.85972Z" fill="#A14801"/>
</g>
<path d="M39.7969 8.92363C39.8969 8.84763 40.0049 8.79563 40.1169 8.77563C40.7289 8.67963 41.121 9.31163 41.481 9.79963C41.541 9.91963 41.773 10.2436 41.825 10.3676C41.821 10.3676 41.5089 10.1356 41.5009 10.1356C41.0809 9.93964 40.8249 9.79563 40.3609 9.87563C39.8609 9.96363 39.4889 10.1476 39.0649 10.5076C39.2249 9.93964 39.4209 9.39163 39.7969 8.92363Z" fill="#582E02"/>
<path d="M41.225 13.0037C41.485 12.9557 41.9051 13.8437 42.0411 14.5997C42.1731 15.3557 41.973 15.6997 41.709 15.7477C41.449 15.7957 41.1211 15.5277 40.9931 14.4597C40.9011 13.6957 40.961 13.0477 41.225 13.0037Z" fill="#582E02"/>
<path d="M41.2691 13.1317C41.3691 13.2157 41.4211 13.6277 41.3931 13.9197C41.3731 14.1637 41.3291 14.4117 41.2011 14.3837C41.0731 14.3557 40.9851 14.1597 41.0451 13.6317C41.0771 13.3397 41.1731 13.0517 41.2651 13.1317H41.2691Z" fill="white"/>
<g style="mix-blend-mode:multiply" opacity="0.3">
<path fill-rule="evenodd" clip-rule="evenodd" d="M57.7691 18.9517C57.7571 18.9877 57.7171 19.0037 57.6851 18.9957C57.6611 18.9997 57.6291 18.9877 57.6211 18.9597C57.4771 18.4917 57.2811 18.1597 56.9851 17.7677C56.9531 17.7237 56.9171 17.6797 56.8851 17.6357C57.2091 18.6437 57.0051 19.5757 56.301 20.5157C55.453 21.6477 54.409 22.5717 53.053 23.0357C51.629 23.5237 50.1891 23.8517 48.8251 24.5157C47.3811 25.2197 45.9931 26.0677 44.6331 26.9237C44.4171 27.0957 44.2011 27.2757 43.9931 27.4597C43.2051 28.1637 42.5491 28.9677 41.8651 29.7717C40.7971 31.0277 39.1811 31.6517 37.6331 32.0837C36.0891 32.5197 34.4691 32.6277 32.8811 32.3757C31.5851 32.1757 30.233 31.6837 29.457 30.5677C29.133 30.5077 28.8211 30.4037 28.5331 30.2517C28.5211 30.2517 28.509 30.2517 28.501 30.2477C28.037 30.0997 27.505 29.8077 27.249 29.3797C27.129 29.1797 27.0891 28.9357 27.0731 28.6837C26.1131 28.3997 25.1891 27.9437 24.2891 27.5277C23.2891 27.0677 22.2891 26.5717 21.3931 25.9277C20.4891 25.2757 19.0291 23.6957 19.7451 22.5717C19.6331 22.6477 19.525 22.7277 19.425 22.8197C19.225 22.9997 19.0171 23.2277 18.8811 23.4757C18.8651 23.5357 18.8491 23.5957 18.8291 23.6557C18.8211 23.6757 18.8091 23.6797 18.7891 23.6797C18.7811 23.7037 18.769 23.7317 18.761 23.7557C18.749 23.7957 18.6851 23.7997 18.6851 23.7557C18.6851 23.6437 18.701 23.5397 18.725 23.4357C18.697 21.8117 19.221 20.3797 20.165 19.0517C20.609 18.4277 21.0891 17.8437 21.7371 17.4197C21.8851 17.3237 22.0371 17.2277 22.1891 17.1397C22.3171 16.4877 22.6291 15.8837 22.9371 15.2957C23.2931 14.6197 23.6251 13.9357 24.0251 13.2837C24.7531 12.0957 25.573 10.9517 26.497 9.90773C28.081 8.12373 30.0291 6.41973 32.2771 5.53173C32.1611 5.47573 32.041 5.42773 31.913 5.38373C31.733 5.39173 31.5531 5.39171 31.3731 5.36771C31.3451 5.36371 31.3451 5.32772 31.3691 5.31972C31.4491 5.29172 31.529 5.26373 31.613 5.23573C31.613 5.23573 31.6171 5.23173 31.6211 5.23173C31.6331 5.22773 31.645 5.22772 31.657 5.22372C32.017 5.11572 32.393 5.05172 32.761 5.07172C32.285 4.81972 31.821 4.62372 31.249 4.52372C31.153 4.54772 31.053 4.57572 30.953 4.59972C30.925 4.60772 30.9091 4.57173 30.9331 4.55573C31.5171 4.09173 32.533 3.89973 33.265 3.93573C33.773 3.95973 34.293 4.05173 34.749 4.28373C34.101 3.49973 34.6331 2.54372 35.3851 1.85572C35.4131 1.82772 35.4571 1.87172 35.4411 1.90372C35.4131 1.96372 35.381 2.02373 35.349 2.08373C35.105 3.87973 37.6251 4.27172 38.8851 4.55172C40.4211 4.89972 41.9651 5.21173 43.4451 5.75973C44.9651 6.32373 46.321 7.13572 47.649 8.04772C48.901 8.90372 50.189 9.80373 51.197 10.9517C52.929 11.2157 54.5251 11.9597 55.8571 13.1957C57.3851 14.6117 58.3771 16.8677 57.7611 18.9597L57.7691 18.9517ZM57.6051 18.0597C57.5731 17.2797 57.5171 16.4877 57.2371 15.7637C56.8731 14.8277 56.2811 13.9877 55.5091 13.3397C53.8491 11.9477 51.8691 11.1237 49.7171 10.8957C49.6851 10.8917 49.6891 10.8397 49.7211 10.8397C50.0571 10.8397 50.3931 10.8557 50.7251 10.8877C50.0771 10.3997 49.5091 9.80771 48.8651 9.31571C48.1691 8.78771 47.437 8.28773 46.705 7.80773C45.157 6.79573 43.533 6.05173 41.753 5.55973C40.109 5.10773 38.341 4.91972 36.749 4.30372C35.809 3.93972 35.1051 3.28772 35.2251 2.29571C35.0771 2.53171 34.9211 2.76372 34.8371 3.02372C34.6611 3.57572 34.869 4.01972 35.113 4.49972C35.149 4.52772 35.1891 4.55172 35.2211 4.57972C35.2771 4.62772 35.221 4.71171 35.153 4.68771C34.413 4.40771 33.7251 4.22371 32.9211 4.23971C32.5971 4.24371 32.301 4.28371 32.009 4.34371C32.577 4.47171 33.1331 4.89571 33.3731 5.34371C33.3851 5.36371 33.3651 5.39973 33.3411 5.38373C33.2291 5.31973 33.121 5.25972 33.013 5.19972C32.841 5.24372 32.6691 5.28371 32.4931 5.31571C32.7931 5.45971 33.0611 5.69973 33.2931 5.95573C33.3131 5.97573 33.281 6.00372 33.261 5.99572C32.969 5.88372 32.7051 5.73972 32.4331 5.60372C31.3891 6.23572 30.3451 6.83572 29.3931 7.60373C28.4451 8.36773 27.5851 9.22372 26.7891 10.1437C25.8531 11.2237 24.989 12.3797 24.269 13.6197C23.665 14.6557 23.045 15.7477 22.649 16.8877C22.993 16.7037 23.3411 16.5357 23.6931 16.3717C23.7411 16.3477 23.7811 16.4237 23.7371 16.4517C22.4491 17.2717 21.3211 17.9797 20.4371 19.2677C19.9811 19.9277 19.577 20.6317 19.325 21.3957C19.165 21.8757 19.109 22.3757 19.021 22.8637C19.073 22.7997 19.1251 22.7317 19.1811 22.6717C19.3811 22.4557 19.773 22.0477 20.105 22.1357C20.125 22.1397 20.137 22.1477 20.153 22.1597C20.173 22.1477 20.189 22.1317 20.209 22.1197C20.253 22.0877 20.297 22.1437 20.269 22.1877C19.105 23.9437 21.269 25.5437 22.605 26.2997C24.033 27.1077 25.5411 27.7477 27.0771 28.3197C27.0851 28.0837 27.0971 27.8517 27.0811 27.6437C27.0771 27.5917 27.1571 27.5717 27.1731 27.6237C27.3371 28.1197 27.2611 28.9037 27.5891 29.3077C27.8211 29.5997 28.1371 29.7517 28.4211 29.9597C29.0171 30.1717 29.625 30.3797 30.269 30.2997C30.8251 30.2277 31.3011 30.0357 31.7891 29.7997C31.6091 29.6917 31.433 29.5797 31.265 29.4677C30.701 29.0877 30.4771 28.7597 30.3211 28.0997C30.3051 28.0357 30.3931 27.9997 30.4211 28.0637C30.7211 28.8157 31.2211 29.1717 31.9451 29.4997C32.5251 29.7637 33.1531 30.1037 33.7891 30.1797C34.8411 30.3037 35.9371 29.8957 36.9891 29.5597C37.9451 29.1517 38.8531 28.6877 39.3811 27.6997C40.0411 26.4557 40.037 25.0717 41.205 24.1357C40.473 23.7837 39.9411 23.1437 39.6851 22.3437C39.6771 22.3157 39.7171 22.2917 39.7331 22.3197C40.1451 23.0837 40.821 23.7717 41.697 23.9677C42.173 24.0717 42.593 24.0477 43.057 23.8997C43.485 23.7637 43.7291 23.4877 44.0731 23.2357C44.1131 23.2077 44.1691 23.2517 44.1451 23.2957C43.6611 24.1597 42.5891 24.5917 41.6371 24.3077C41.5291 24.2757 41.4251 24.2357 41.3251 24.1917C41.3211 24.1957 41.3251 24.1957 41.3211 24.1997C40.1811 25.3157 40.389 27.0477 39.457 28.2837C39.065 28.8037 38.5611 29.2357 37.9651 29.5077C37.5011 29.7197 36.9931 29.8997 36.4851 30.0717C35.4531 30.4757 34.3531 30.7477 33.3251 30.4757C32.9091 30.3637 32.501 30.1877 32.109 29.9757C31.445 30.4917 30.585 30.6957 29.753 30.6077C32.061 32.5597 35.597 32.3917 38.313 31.4477C39.1131 31.1717 39.9251 30.8597 40.6251 30.3717C41.3291 29.8797 41.8771 29.2437 42.4651 28.6237C43.5891 27.4317 44.9531 26.3877 46.3171 25.4797C46.3451 25.4597 46.3731 25.4837 46.3731 25.5077C48.0011 24.4277 49.7371 23.5837 51.6731 23.0357C53.0131 22.6557 54.197 22.2117 55.201 21.2037C55.701 20.6997 56.2371 20.1197 56.5411 19.4677C56.9011 18.6917 56.8691 17.9557 56.5571 17.1837C56.4931 17.0917 56.4371 16.9957 56.3851 16.8917C56.3691 16.8597 56.4171 16.8277 56.4411 16.8517C56.4771 16.8917 56.5211 16.9277 56.5651 16.9677C56.5851 16.9637 56.6051 16.9677 56.6171 16.9917C56.6251 17.0077 56.6331 17.0197 56.6371 17.0357C56.9651 17.3237 57.3811 17.6717 57.6131 18.0637L57.6051 18.0597Z" fill="#692E02"/>
</g>
<g style="mix-blend-mode:multiply" opacity="0.5">
<path d="M29.4609 30.5637C29.1369 30.5037 28.825 30.3997 28.537 30.2477C28.525 30.2477 28.5129 30.2477 28.5049 30.2437C28.0409 30.0957 27.5089 29.8037 27.2529 29.3757C26.9929 28.9397 27.117 28.1397 27.081 27.6357C27.077 27.5837 27.1569 27.5637 27.1729 27.6157C27.3369 28.1117 27.261 28.8957 27.589 29.2997C27.821 29.5917 28.1369 29.7437 28.4209 29.9517C29.0169 30.1637 29.6249 30.3717 30.2689 30.2917C30.8249 30.2197 31.301 30.0277 31.789 29.7917C31.609 29.6837 31.4329 29.5717 31.2649 29.4597C30.7009 29.0797 30.4769 28.7517 30.3209 28.0917C30.3049 28.0277 30.3929 27.9917 30.4209 28.0557C30.7209 28.8077 31.221 29.1637 31.945 29.4917C32.525 29.7557 33.153 30.0957 33.789 30.1717C34.841 30.2957 35.937 29.8877 36.989 29.5517C37.945 29.1437 38.853 28.6797 39.381 27.6917C40.041 26.4477 40.0369 25.0637 41.2049 24.1277C40.4729 23.7757 39.941 23.1357 39.685 22.3357C39.677 22.3077 39.717 22.2837 39.733 22.3117C40.145 23.0757 40.8209 23.7637 41.6969 23.9597C42.1729 24.0637 42.5929 24.0397 43.0569 23.8917C43.4849 23.7557 43.729 23.4797 44.073 23.2277C44.113 23.1997 44.169 23.2437 44.145 23.2877C43.661 24.1517 42.589 24.5837 41.637 24.2997C41.529 24.2677 41.425 24.2277 41.325 24.1837C41.321 24.1877 41.325 24.1877 41.321 24.1917C40.181 25.3077 40.3889 27.0397 39.4569 28.2757C39.0649 28.7957 38.5609 29.2277 37.9649 29.4997C37.5009 29.7117 36.993 29.8917 36.485 30.0637C35.453 30.4677 34.353 30.7397 33.325 30.4677C32.909 30.3557 32.5009 30.1797 32.1089 29.9677C31.4449 30.4837 30.5849 30.6877 29.7529 30.5997C29.7609 30.6077 29.769 30.6117 29.777 30.6197C29.681 30.6077 29.585 30.5997 29.489 30.5957C29.481 30.5837 29.4729 30.5717 29.4609 30.5597V30.5637Z" fill="#692E02"/>
</g>
<g style="mix-blend-mode:multiply" opacity="0.4">
<path d="M35.0768 17.1036C33.9608 17.2796 32.2968 17.4916 31.1848 17.6996C30.0688 17.9076 29.0768 18.7276 28.2048 19.4116C26.4848 20.7596 25.2208 22.3956 24.3048 24.3796C24.2848 24.4236 24.2168 24.4036 24.2248 24.3556C24.7008 22.1796 26.2728 20.4276 27.9848 19.0996C28.4888 18.7076 29.0008 18.3276 29.5408 17.9876C29.9688 17.7156 30.3088 17.6276 30.8048 17.5516C32.0368 17.3676 33.2888 17.1036 34.5408 17.1276C34.6048 17.1276 35.1408 17.0996 35.0728 17.1076L35.0768 17.1036Z" fill="#582E02"/>
</g>
<path d="M35.2251 25.9517C34.5171 26.7037 33.6331 27.4597 32.8371 27.8837C31.6051 28.5357 30.3731 28.6117 28.9931 28.4317C27.3651 28.2237 26.073 27.3077 25.001 26.0717C24.497 25.4917 23.7211 24.8357 24.1371 24.0197C24.3051 23.6877 24.4851 23.3597 24.6931 23.0477C25.1091 22.4117 25.601 21.8197 26.197 21.3477C27.249 20.5197 28.5611 20.1477 29.8771 19.9877C30.5371 19.9077 31.2251 19.8037 31.8651 20.0277C32.4691 20.2397 33.0131 20.5877 33.5171 20.9757C34.0891 21.4117 34.6371 21.8917 35.1651 22.3797C35.5931 22.7677 36.2611 23.2717 36.4211 23.8597C36.4291 23.8957 36.4371 23.9317 36.4411 23.9677C36.5251 24.6677 35.6651 25.4917 35.2211 25.9557L35.2251 25.9517Z" fill="#582E02"/>
<g style="mix-blend-mode:multiply" opacity="0.4">
<path d="M35.225 25.9517C34.517 26.7037 33.633 27.4597 32.837 27.8837C31.605 28.5357 30.373 28.6117 28.993 28.4317C27.365 28.2237 26.073 27.3077 25.001 26.0717C24.617 25.6277 24.069 25.1357 24.021 24.5637C24.109 24.6037 24.221 24.6037 24.369 24.5437C24.577 24.4597 24.753 24.2837 24.905 24.1237C25.181 23.8237 25.233 23.6637 25.685 23.6877C26.697 23.7437 27.473 24.3237 28.441 24.4957C29.217 24.6317 29.949 24.2037 30.561 23.7837C30.865 23.5757 31.165 23.3637 31.493 23.1917C32.105 22.8757 32.681 22.9917 33.277 23.2637C33.945 23.5717 34.545 23.7797 35.289 23.7557C35.861 23.7397 35.757 23.1877 35.493 22.6637C35.877 23.0037 36.305 23.4037 36.429 23.8557C36.437 23.8917 36.445 23.9277 36.449 23.9637C36.533 24.6637 35.673 25.4877 35.229 25.9517H35.225Z" fill="#692E02"/>
</g>
<g style="mix-blend-mode:multiply" opacity="0.4">
<path fill-rule="evenodd" clip-rule="evenodd" d="M35.2251 25.9517C34.5171 26.7037 33.6331 27.4597 32.8371 27.8837C31.6051 28.5357 30.3731 28.6117 28.9931 28.4317C27.3651 28.2237 26.073 27.3077 25.001 26.0717C24.497 25.4917 23.7211 24.8357 24.1371 24.0197C24.3051 23.6877 24.4851 23.3597 24.6931 23.0477C25.1091 22.4117 25.601 21.8197 26.197 21.3477C27.249 20.5197 28.5611 20.1477 29.8771 19.9877C30.5371 19.9077 31.2251 19.8037 31.8651 20.0277C32.4691 20.2397 33.0131 20.5877 33.5171 20.9757C34.0891 21.4117 34.6371 21.8917 35.1651 22.3797C35.5931 22.7677 36.2611 23.2717 36.4211 23.8597C36.4291 23.8957 36.4371 23.9317 36.4411 23.9677C36.5251 24.6677 35.6651 25.4917 35.2211 25.9557L35.2251 25.9517ZM35.9611 23.8317C35.2171 22.8237 34.4131 22.1557 33.4171 21.3837C32.2691 20.4917 31.1691 19.9757 29.6851 20.2117C28.2851 20.4357 27.0651 20.9157 26.0451 21.9277C25.5091 22.4597 25.0691 23.0637 24.6291 23.6717C24.4011 24.1277 24.2971 24.6157 24.6251 25.0997C25.0011 25.6477 25.4331 26.1637 25.9331 26.5997C26.9611 27.5037 28.1811 28.1077 29.5651 28.1957C30.9011 28.2797 32.2771 28.0077 33.3611 27.1277C34.4651 26.2317 36.2491 24.6517 35.9531 23.8277L35.9611 23.8317Z" fill="#692E02"/>
</g>
<g style="mix-blend-mode:multiply">
<path d="M33.1731 24.4917C32.8891 24.5597 30.2171 26.0757 30.4651 26.4877C30.1691 26.0037 30.7611 24.7398 31.0051 24.3118C31.2491 23.8838 31.5371 23.2597 32.0251 23.2037C32.5171 23.1477 33.1731 23.6838 33.3131 24.2358C33.3451 24.3638 33.2811 24.4677 33.1731 24.4917Z" fill="#692E02"/>
</g>
<g style="mix-blend-mode:multiply">
<path d="M28.7171 26.5877C28.7291 26.6237 28.6811 26.6517 28.6571 26.6197C28.5971 26.5237 28.5251 26.4237 28.4571 26.3277C27.8851 25.7597 26.8891 25.5117 26.1811 25.1997C25.8531 25.0557 25.6771 24.9797 25.5851 24.8037C25.5811 24.8597 25.5771 24.9157 25.5771 24.9757C25.5731 25.0277 25.4931 25.0197 25.4891 24.9717C25.4331 24.5997 25.4891 24.2517 25.4931 23.8757C25.4931 23.7837 25.5651 23.7037 25.6611 23.7237C27.0971 23.9797 28.2331 25.2717 28.7171 26.5917V26.5877Z" fill="#692E02"/>
</g>
<path d="M31.1688 21.1837C29.4128 21.2957 27.7648 21.5597 26.2808 22.5717C26.2288 22.6077 26.1688 22.5397 26.2048 22.4917C26.9168 21.5117 27.8568 20.9597 29.0368 20.6957C29.7768 20.5277 30.7048 20.3917 31.2528 21.0117C31.3088 21.0757 31.2488 21.1837 31.1688 21.1877V21.1837Z" fill="white"/>
<path d="M32.3851 21.4077C31.7971 21.3277 31.6771 21.0716 31.1891 20.7196C30.6971 20.3676 32.2611 20.7437 32.6451 21.0357C33.3731 21.5837 32.9771 21.4877 32.3891 21.4077H32.3851Z" fill="white"/>
<path d="M24.685 17.2557C23.605 17.6557 22.593 17.8757 21.701 18.6557C20.917 19.3397 20.565 20.2997 19.857 21.0317C19.837 21.0557 19.789 21.0317 19.805 20.9997C20.301 20.0277 20.585 19.0477 21.477 18.3397C22.349 17.6557 23.593 17.3597 24.661 17.1437C24.725 17.1317 24.741 17.2317 24.685 17.2557Z" fill="#E29D55"/>
<path d="M25.889 16.5516C24.805 16.7716 23.745 17.0316 22.709 17.4116C22.693 17.4156 22.681 17.3956 22.697 17.3876C23.665 16.7716 24.709 16.2436 25.897 16.4396C25.965 16.4516 25.9491 16.5396 25.8931 16.5516H25.889Z" fill="#E29D55"/>
<path d="M55.7531 14.6037C54.9331 13.8597 54.1171 13.3397 53.0691 12.9197C52.0611 12.5157 51.0451 12.2357 49.9691 12.3277C49.9211 12.3317 49.9171 12.2637 49.9611 12.2517C51.0331 12.0277 52.1691 12.0357 53.1891 12.4597C54.3011 12.9157 55.0531 13.6357 55.8131 14.5437C55.8451 14.5797 55.7851 14.6357 55.7491 14.6037H55.7531Z" fill="#E29D55"/>
<path d="M51.269 11.8516C49.985 11.9716 48.833 11.9476 47.677 12.6036C47.637 12.6276 47.5769 12.5756 47.6169 12.5356C48.669 11.5556 49.937 11.3596 51.281 11.7876C51.313 11.7996 51.301 11.8476 51.269 11.8516Z" fill="#E29D55"/>
<path d="M38.093 5.08762C36.813 4.86762 34.813 4.39963 35.117 2.69963C35.125 2.65563 35.1929 2.65563 35.1969 2.70363C35.2809 4.16763 37.021 4.54762 38.129 4.96362C38.197 4.99162 38.161 5.09962 38.089 5.08762H38.093Z" fill="#E29D55"/>
<path d="M34.937 5.07167C34.181 4.61167 33.353 4.48768 32.481 4.40768C32.465 4.40768 32.465 4.37968 32.481 4.37968C33.249 4.30768 34.593 4.14368 35.009 5.00368C35.029 5.04368 34.973 5.09567 34.937 5.07167Z" fill="#E29D55"/>
<path d="M34.125 6.05966C34.137 6.11966 34.069 6.19164 34.013 6.13964C33.805 5.93564 33.633 5.75564 33.353 5.63964C33.129 5.54764 32.901 5.46764 32.697 5.32364C32.661 5.29964 32.701 5.24364 32.737 5.26364C33.165 5.47964 33.997 5.47166 34.125 6.05966Z" fill="#E29D55"/>
<path opacity="0.5" d="M14.1849 69.7758C14.7649 71.2678 15.4689 72.7478 15.5009 74.4078C15.5329 75.8958 14.9289 77.7238 13.4089 77.7958C12.1809 77.8518 10.8289 76.9278 10.1289 75.8438C9.41294 74.7438 9.03691 73.4278 8.30091 72.3438C7.47291 71.1158 6.19693 70.6198 5.07693 69.8038C3.89293 68.9478 3.15293 68.1198 3.72893 66.7798C4.10493 65.9118 5.58093 65.9118 6.48094 64.9718C8.20894 63.1638 9.86092 61.9677 11.3649 62.5157C12.4009 62.8957 12.9729 63.6678 13.1609 64.7558C13.3089 65.6118 13.3849 66.3798 13.5409 67.2198C13.6969 68.0758 13.865 68.9358 14.193 69.7718L14.1849 69.7758Z" fill="#EFAC6F"/>
<path opacity="0.5" d="M79.393 65.7798C80.625 66.5318 81.113 68.1078 82.477 68.7318C83.097 69.0158 83.841 69.0918 84.241 69.7118C84.741 70.4798 84.273 71.6918 83.933 72.4438C82.649 75.2918 79.189 75.7838 76.521 76.8438C74.997 77.4478 73.493 78.4118 71.873 78.6558C70.513 78.8598 69.061 79.0638 67.713 78.6758C66.965 78.4558 66.413 77.9558 66.217 77.1958C65.945 76.1238 66.709 75.4918 67.593 75.1318C68.793 74.6398 69.757 74.0798 70.553 73.0198C71.329 71.9878 71.717 70.6998 71.957 69.4518C72.249 67.9438 73.069 66.6398 74.417 65.8718C75.837 65.0638 77.957 64.9158 79.389 65.7838L79.393 65.7798Z" fill="#EFAC6F"/>
<path d="M21.7529 49.9997C19.3409 46.4197 17.4769 42.4237 17.0449 38.0917C16.6449 34.1117 16.8489 29.7957 18.6009 26.1357C18.6289 26.0797 18.7249 26.1077 18.7089 26.1717C17.6729 30.1757 17.2729 34.3357 17.8089 38.4517C18.0769 40.4957 18.4729 42.6197 19.2529 44.5357C20.0049 46.3957 20.9849 48.1397 21.8449 49.9477C21.8729 50.0037 21.7809 50.0477 21.7489 49.9997H21.7529Z" fill="#E29D55"/>
<path d="M76.877 54.5156C76.877 54.6036 76.757 54.6356 76.721 54.5476C76.169 53.0316 75.657 51.5636 74.713 50.2276C73.849 49.0036 73.073 47.4956 71.381 47.4636C71.261 47.4596 71.249 47.2996 71.365 47.2796C72.869 47.0156 73.985 48.2756 74.845 49.3396C76.061 50.8396 76.865 52.5556 76.873 54.5156H76.877Z" fill="#E29D55"/>
<path d="M15.313 49.5157C12.677 50.4517 11.093 53.1477 9.98902 55.5677C9.96102 55.6277 9.86501 55.5997 9.87701 55.5357C10.145 53.9717 10.965 52.3597 11.929 51.1077C12.661 50.1557 13.973 48.7157 15.321 49.3157C15.405 49.3557 15.401 49.4837 15.313 49.5117V49.5157Z" fill="#E29D55"/>
<path d="M66.185 39.8357C65.933 45.5637 63.833 51.6677 59.577 55.5997C58.021 57.0397 59.377 55.5797 59.445 55.4917C63.253 50.6277 65.637 45.2797 65.753 39.0237C65.797 36.4477 65.709 33.8317 65.465 31.2677C65.209 28.5957 64.857 25.8997 63.585 23.4957C63.577 23.4837 63.597 23.4677 63.605 23.4837C64.993 25.6917 65.665 28.2757 65.905 30.8517C66.181 33.8237 66.309 36.8557 66.181 39.8357H66.185Z" fill="#E29D55"/>
</svg>
