<svg width="86" height="54" viewBox="0 0 86 54" fill="none" xmlns="http://www.w3.org/2000/svg">
<path d="M81.6312 47.8073C81.9389 49.0248 82.8567 49.7606 84.382 50.0175C83.3892 50.2904 82.4366 50.3333 81.5295 50.146C80.1675 49.8623 77.8797 48.3986 78.4202 47.8073C78.7815 47.4139 79.8518 47.4139 81.6339 47.8073H81.6312Z" fill="#D96A10"/>
<g style="mix-blend-mode:multiply" opacity="0.4">
<path d="M84.3793 50.0175C83.3865 50.2904 82.434 50.3333 81.5268 50.146C80.1648 49.8623 77.877 48.3986 78.4175 47.8073C78.7788 47.4139 79.8491 47.4139 81.6312 47.8073C81.6633 47.9304 81.7249 48.0802 81.8158 48.2568C81.6125 48.2622 81.4091 48.2408 81.2111 48.2167C80.9462 48.1846 80.6599 48.1525 80.4137 48.2702C80.0284 48.4575 80.3441 48.8241 80.5582 48.99C81.4145 49.6589 82.6132 49.8891 83.6996 49.8436C83.9083 49.9158 84.1331 49.9747 84.382 50.0175H84.3793Z" fill="#D96A10"/>
</g>
<path d="M73.3308 47.4193C73.4084 47.4434 75.6427 48.1658 76.2609 47.9866C76.8763 47.8073 76.5445 47.24 77.3151 47.0607C78.0858 46.8814 80.4753 47.1624 81.4787 47.5745C82.4822 47.9866 82.533 48.1899 81.9657 48.2167C81.4011 48.2434 79.0624 47.6253 79.215 48.1658C79.3702 48.7064 80.8338 49.7606 82.0942 49.9132C83.3545 50.0684 85.3052 49.4502 85.075 50.3493C84.8422 51.2484 83.1217 50.9648 81.5028 50.9407C79.8812 50.9139 77.9038 49.3486 76.6194 49.2201C75.335 49.0917 72.9723 48.808 72.8679 48.808C72.7662 48.808 71.5835 48.8348 71.8404 48.2943C72.0973 47.7564 72.1481 47.0875 73.3308 47.4193Z" fill="#F29300"/>
<g style="mix-blend-mode:multiply" opacity="0.5">
<path d="M85.075 50.3493C84.8422 51.2484 83.1217 50.9648 81.5028 50.9407C79.8812 50.9139 77.9038 49.3486 76.6194 49.2201C75.335 49.0917 72.9723 48.808 72.8679 48.808C72.7662 48.808 71.5835 48.8348 71.8404 48.2943C72.0973 47.7564 72.1481 47.0875 73.3308 47.4193C73.371 47.43 73.9703 47.6227 74.6313 47.7859C74.5001 47.8314 74.3664 47.8608 74.2272 47.8742C74.1817 47.8795 74.155 47.9411 74.2031 47.9652C74.4065 48.0722 74.6152 48.1739 74.8186 48.2809C74.6152 48.3424 74.4145 48.4174 74.2138 48.4843C74.171 48.5003 74.1683 48.5645 74.2138 48.5779C74.7062 48.7197 75.2146 48.7171 75.723 48.7518C76.0093 48.7706 76.2876 48.8161 76.5605 48.9044C76.8201 48.99 77.1412 49.0783 77.3954 49.18C78.2972 49.5359 78.6423 49.7553 80.0766 50.2102C80.1194 50.2236 80.1355 50.1593 80.1114 50.1272C79.9669 49.9453 79.7796 49.8302 79.5869 49.7071C79.3354 49.5466 79.1133 49.3459 78.8992 49.1372C78.5647 48.8107 78.1179 48.3879 77.9868 47.925C77.8262 47.3577 78.9688 47.2186 79.33 47.2186C79.5414 47.2186 79.7689 47.24 79.9695 47.1918C80.5609 47.2908 81.1121 47.4246 81.4787 47.5745C82.4822 47.9866 82.533 48.1899 81.9657 48.2167C81.4011 48.2434 79.0624 47.6253 79.215 48.1658C79.3702 48.7064 80.8338 49.7606 82.0942 49.9132C83.3545 50.0684 85.3052 49.4502 85.075 50.3493Z" fill="#F29300"/>
</g>
<g style="mix-blend-mode:screen">
<path d="M77.8985 49.1693C77.4115 48.9231 76.7934 48.404 76.9004 47.8501C77.0101 47.2668 77.572 47.0982 78.0751 47.1491C77.663 47.2293 77.2402 47.4033 77.2456 47.8903C77.2509 48.3746 77.5533 48.8241 77.8985 49.1693Z" fill="#F4CEBE"/>
</g>
<g style="mix-blend-mode:screen">
<path d="M76.301 48.1979C76.1244 48.305 75.8354 48.3103 75.5438 48.2595C75.525 48.2568 75.5063 48.2515 75.4849 48.2488C75.236 48.2006 74.9925 48.1123 74.8213 48.016C74.9792 48.0401 75.1397 48.0535 75.2949 48.0882C75.4715 48.1257 75.6508 48.1498 75.8301 48.1739C75.9719 48.1926 76.1432 48.2167 76.301 48.1953V48.1979Z" fill="#F4CEBE"/>
</g>
<path d="M39.7896 36.8096C40.2338 33.3498 39.6852 29.922 38.144 26.5291C35.832 21.4423 33.0037 15.5314 32.696 12.291C32.3883 9.05322 33.6218 -0.635966 34.4165 0.0329918C34.9463 0.47718 34.957 3.37511 34.4433 8.71874C35.1791 3.32159 35.9685 0.453105 36.8087 0.107923C37.6489 -0.234583 37.4857 2.7222 36.3217 8.97562C37.6222 5.17059 38.5908 3.38848 39.225 3.62931C39.8592 3.87013 39.5675 6.13121 38.35 10.4125C39.6852 6.79749 40.6967 5.07694 41.3844 5.24819C42.0694 5.41944 41.5717 7.528 39.8939 11.5712C41.4352 8.98365 42.7036 7.66446 43.6963 7.61362C44.689 7.56278 43.9371 9.21645 41.4352 12.5746C43.2815 10.3938 44.8416 9.43586 46.1126 9.69542C46.6932 9.81583 45.8557 10.937 43.5946 13.0616C45.2055 11.8789 46.5086 11.3304 47.5013 11.4187C48.4941 11.5043 47.7315 12.3953 45.2135 14.0918C47.8679 13.372 49.2406 13.2864 49.3236 13.8349C49.4119 14.3835 48.5208 14.932 46.6531 15.4806C48.8981 14.8464 50.0541 14.6671 50.121 14.94C50.2227 15.3521 48.1676 16.1468 48.09 16.1736C48.0124 16.2004 51.483 15.8391 51.9191 16.6098C52.3553 17.3804 49.8373 17.4821 49.7597 17.5088C49.6821 17.5356 53.2811 17.4821 53.2544 18.1243C53.2356 18.5524 52.6978 18.7745 51.6355 18.7932C52.5774 18.63 53.7548 19.101 55.1703 20.2061C57.2895 21.8651 52.1626 36.435 52.2402 36.5126C52.2911 36.5634 48.1409 36.6624 39.7896 36.8069V36.8096Z" fill="#3A454F"/>
<g style="mix-blend-mode:multiply">
<path d="M35.5323 3.10215C35.4922 3.21186 35.4547 3.32157 35.4146 3.43128C35.8106 1.77494 36.2949 0.321968 36.806 0.113253C37.9459 -0.352342 36.6187 7.30856 36.3591 8.74816C36.2789 9.05855 36.1932 9.36895 36.1022 9.67667C36.2762 8.08187 36.3832 6.48173 36.5143 4.88425C36.5384 4.61132 36.6481 1.97295 35.9979 2.28335C35.741 2.40644 35.6206 2.85866 35.5296 3.09948L35.5323 3.10215Z" fill="#3A454F"/>
</g>
<g style="mix-blend-mode:multiply">
<path d="M37.954 5.51574C37.6837 5.82614 37.4509 6.1847 37.2476 6.55932C37.8844 5.05282 38.7032 3.43662 39.225 3.63196C39.9929 3.92362 38.9467 8.18622 38.5186 9.80242C38.3206 10.359 38.0717 10.8968 37.8068 11.4267C37.9995 10.6774 38.1654 9.91748 38.3045 9.1522C38.4838 8.15144 38.647 7.11321 38.6979 6.09639C38.7086 5.85022 38.754 5.41406 38.5453 5.22408C38.35 5.05015 38.0664 5.3873 37.9566 5.51307L37.954 5.51574Z" fill="#3A454F"/>
</g>
<g style="mix-blend-mode:multiply">
<path d="M40.8144 7.6243C40.8679 7.2363 40.9535 6.46834 40.4023 6.41215C40.3113 6.40144 40.2204 6.43087 40.1401 6.47636C40.5896 5.71108 41.0392 5.16788 41.3817 5.25351C42.2219 5.4649 40.6886 9.56962 40.1026 11.0494C40.0946 11.0601 40.0866 11.0681 40.0785 11.0788C40.0678 11.0922 40.0652 11.1082 40.0705 11.1189C39.9233 11.4133 39.7601 11.7023 39.5889 11.9805C40.1454 10.5704 40.6137 9.12009 40.8144 7.6243Z" fill="#3A454F"/>
</g>
<g style="mix-blend-mode:multiply">
<path d="M40.8037 10.2038C41.6118 9.07999 42.8025 7.66447 43.6936 7.61898C44.8817 7.55744 42.7437 10.7363 41.8259 12.0368C41.569 12.3258 41.3121 12.6121 41.0552 12.9011C41.2452 12.5532 41.4325 12.2027 41.6225 11.8548C41.8633 11.4213 42.1202 10.9959 42.3369 10.549C42.535 10.1369 42.733 9.66332 42.6848 9.19505C42.6206 8.59834 41.9918 9.05323 41.7536 9.25124C41.4084 9.53756 41.098 9.86401 40.801 10.2038H40.8037Z" fill="#3A454F"/>
</g>
<g style="mix-blend-mode:multiply">
<path d="M44.2263 10.236C43.8571 10.3724 43.552 10.6106 43.2416 10.8434C44.1407 10.1343 45.2191 9.51883 46.1101 9.70079C46.6908 9.8212 45.8532 10.9424 43.5921 13.067C43.6082 13.0536 43.6323 13.0376 43.6617 13.0161C43.544 13.1232 43.4236 13.2249 43.2978 13.3212C43.0677 13.4978 42.8188 13.6583 42.5834 13.8242C42.5727 13.8296 42.562 13.8376 42.5486 13.8483C42.8402 13.4657 43.1399 13.0964 43.4557 12.7325C43.8624 12.2616 44.2718 11.7772 44.5608 11.2207C44.6759 10.9986 45.021 10.541 44.8177 10.2841C44.6705 10.0995 44.4163 10.1637 44.2263 10.236Z" fill="#3A454F"/>
</g>
<g style="mix-blend-mode:multiply">
<path d="M46.1847 11.6488C46.6449 11.4855 47.1025 11.3865 47.4985 11.4213C48.4913 11.5069 47.7287 12.398 45.2107 14.0945C45.2375 14.0864 45.2776 14.0757 45.3284 14.065C44.7585 14.346 44.1538 14.5386 43.533 14.6858C43.846 14.5012 44.1538 14.3059 44.4534 14.1025C45.1706 13.6155 46.0268 13.1874 46.5004 12.4274C46.6048 12.2562 46.7573 11.9618 46.6369 11.7611C46.5513 11.6193 46.3292 11.63 46.1874 11.6488H46.1847Z" fill="#3A454F"/>
</g>
<g style="mix-blend-mode:multiply">
<path d="M47.9348 13.5594C48.6653 13.4844 49.2728 13.5219 49.3209 13.835C49.4092 14.3835 48.5182 14.932 46.6504 15.4806C46.7441 15.4538 46.8672 15.4217 47.017 15.3816C47.0063 15.3843 46.9956 15.3896 46.9876 15.3923C46.6558 15.5154 46.3267 15.5823 45.9761 15.6278C45.9146 15.6358 45.853 15.6411 45.7915 15.6492C46.0002 15.5635 46.2089 15.4726 46.4176 15.3762C46.9314 15.1381 47.4157 14.8785 47.8974 14.5762C48.1222 14.4343 48.4513 14.223 48.3978 13.9099C48.3603 13.6878 48.165 13.5941 47.9375 13.5594H47.9348Z" fill="#3A454F"/>
</g>
<g style="mix-blend-mode:multiply">
<path d="M49.08 14.9133C49.6392 14.8196 50.0834 14.7955 50.1182 14.94C50.2172 15.3387 48.2933 16.0987 48.1006 16.1682C47.932 16.203 47.7634 16.2351 47.5949 16.2619C47.2256 16.3234 46.8617 16.4091 46.4924 16.4572C47.0998 16.2833 47.6939 16.0558 48.2638 15.7909C48.4966 15.6812 48.7294 15.5689 48.9515 15.4351C49.0746 15.3628 49.2378 15.2611 49.2753 15.1113C49.3047 14.9962 49.179 14.9373 49.08 14.9106V14.9133Z" fill="#3A454F"/>
</g>
<g style="mix-blend-mode:multiply">
<path d="M50.6587 16.1575C51.2581 16.2164 51.7665 16.3475 51.919 16.6151C52.3552 17.3857 49.8372 17.4874 49.7596 17.5142C49.7489 17.5168 49.8131 17.5195 49.9229 17.5222C49.7302 17.5356 49.5402 17.5463 49.3475 17.5516C49.2031 17.557 49.0586 17.5463 48.9141 17.5409C49.3208 17.45 49.7248 17.3295 50.1182 17.2038C50.3724 17.1208 50.8193 17.0566 50.9798 16.8131C51.1751 16.5161 50.9852 16.302 50.6587 16.1548V16.1575Z" fill="#3A454F"/>
</g>
<g style="mix-blend-mode:multiply">
<path d="M52.1735 17.6614C52.7809 17.7497 53.2626 17.8915 53.2546 18.127C53.2358 18.6167 52.3047 18.7478 51.8631 18.7826C52.3421 18.7852 53.5489 18.9404 55.1678 20.2088C55.7297 20.6476 55.7832 21.9935 55.5585 23.7328C55.5451 23.7435 55.5317 23.7569 55.5183 23.7703C55.4487 23.3288 55.711 22.4324 55.0902 22.3601C54.7183 22.3173 54.3436 22.5474 54.0332 22.7267C53.6586 22.9435 53.3054 23.2191 52.9174 23.4091C53.4339 22.9006 54.0252 22.4672 54.456 21.8785C54.6139 21.6644 54.8306 21.354 54.7156 21.0757C54.6299 20.8697 54.3677 20.8189 54.1724 20.8028C53.763 20.768 53.3161 20.867 52.9201 20.9607C52.4652 21.0677 52.0264 21.2283 51.5929 21.3995C50.9694 21.6457 50.362 21.932 49.7412 22.1782C50.0917 22.0043 50.445 21.8303 50.7955 21.6537C51.2236 21.4343 51.633 21.1855 52.0585 20.9634C52.3314 20.8215 53.4874 20.273 53.0646 19.8128C52.9308 19.6656 52.6632 19.6629 52.4813 19.6602C52.1468 19.6549 51.8096 19.7111 51.4832 19.7673C51.2985 19.7994 51.1139 19.8395 50.9293 19.885C51.2129 19.778 51.4965 19.6629 51.7748 19.5452C52.0076 19.4462 52.4652 19.1946 52.0451 18.9939C51.7882 18.8709 51.4618 18.8521 51.1835 18.8307C50.8329 18.804 50.4797 18.8173 50.1292 18.8361C50.0302 18.8441 49.9258 18.8468 49.8242 18.8548C49.8563 18.8468 49.8884 18.8414 49.9205 18.8334C50.3727 18.7371 50.8222 18.6354 51.2664 18.5069C51.5608 18.4213 51.9675 18.3624 52.2137 18.1618C52.4572 17.9637 52.3822 17.7764 52.1709 17.6641L52.1735 17.6614Z" fill="#3A454F"/>
</g>
<g style="mix-blend-mode:multiply">
<path d="M33.4961 2.47337C33.7985 0.85984 34.1356 -0.199793 34.4193 0.0356804C34.9491 0.479868 34.9598 3.37779 34.446 8.72142C34.4567 8.64382 34.4728 8.53679 34.4915 8.39765C34.4326 8.85789 34.3657 9.31546 34.2587 9.76767C34.43 7.73672 34.3738 5.68436 34.3363 3.65341C34.331 3.35104 34.3256 3.04867 34.2962 2.7463C34.2721 2.50815 34.2534 2.14423 34.0553 1.97298C33.8306 1.77764 33.6406 2.07199 33.4961 2.47337Z" fill="#3A454F"/>
</g>
<path d="M44.6651 18.7504C44.6437 18.7585 44.6303 18.7638 44.6196 18.7692C44.6303 18.7638 44.6464 18.7585 44.6651 18.7504Z" fill="#E1DBCC"/>
<path d="M52.6202 29.3975C52.465 29.5554 52.3338 29.6972 52.2268 29.8203C52.3312 29.716 52.4623 29.5741 52.6202 29.3975Z" fill="#E1DBCC"/>
<path d="M54.5388 26.1197C54.3167 27.3398 53.2196 28.7179 52.6202 29.3976C52.465 29.5554 52.3339 29.6973 52.2268 29.8203C52.3312 29.716 52.4623 29.5742 52.6202 29.3976C53.2356 28.7741 54.3648 27.8188 54.4344 29.0898C53.4336 32.9002 52.2001 36.4778 52.2402 36.5153C52.2911 36.5661 48.1409 36.6651 39.7896 36.8096C40.2338 33.3498 39.6852 29.922 38.1439 26.5291C35.832 21.4423 33.0037 15.5314 32.696 12.291C32.6853 12.1813 32.6772 12.0609 32.6692 11.9351C32.8458 11.0842 33.1321 10.0807 33.5442 9.66866C34.058 9.1549 34.2479 10.1129 34.1088 12.5479C34.3309 11.2795 34.6654 10.4152 35.1122 9.9523C35.5564 9.48938 35.6099 10.4152 35.2647 12.7271C35.9845 11.3571 36.6776 10.6373 37.3466 10.5677C38.0128 10.5009 37.8844 11.1511 36.9612 12.5211C37.7158 11.8174 38.4436 11.432 39.1447 11.3651C39.8458 11.2956 39.7173 11.8361 38.7594 12.984C39.9421 12.0582 40.678 11.7424 40.9696 12.0314C41.2613 12.3231 40.7663 13.0509 39.4792 14.2176C40.4211 13.5326 41.2854 13.0456 42.0747 12.7539C43.2548 12.3177 43.9237 12.4703 41.8419 14.3728C43.3324 13.653 44.0013 13.5085 43.8461 13.9366C43.6909 14.3647 43.2815 14.7073 42.6126 14.9641C44.293 14.8277 45.3125 14.8705 45.6711 15.0926C46.0296 15.3147 45.4302 15.914 43.8702 16.8907C45.275 16.2405 46.0216 16.0425 46.1072 16.2994C46.2009 16.5803 45.7781 16.7783 45.5399 16.8666C45.4757 16.8854 45.4249 16.9041 45.3874 16.9175C45.4302 16.9068 45.4811 16.8907 45.5399 16.8666C46.0296 16.7088 47.5415 16.2726 47.6485 16.7891C47.7689 17.3617 45.0449 18.5819 44.6623 18.7478C44.6409 18.7558 44.6275 18.7611 44.6168 18.7665C44.6275 18.7611 44.6435 18.7558 44.6623 18.7478C44.9914 18.6059 47.0812 17.7256 48.2398 17.8674C49.5002 18.0199 48.4593 18.9725 47.3408 19.5505C48.8152 19.3632 49.5858 19.4408 49.6527 19.7833C49.749 20.2623 47.2685 20.9286 46.918 21.0195C47.3247 20.9152 50.5812 20.1017 50.6294 20.8001C50.6642 21.2951 50.3297 21.7581 49.6259 22.1862C51.7506 21.2443 53.0002 21.2711 53.3774 22.2638C53.7547 23.2565 52.8369 24.747 50.6294 26.7351C53.439 25.1938 54.7421 24.9878 54.5361 26.1197H54.5388Z" fill="#FFF5ED"/>
<g style="mix-blend-mode:multiply">
<path d="M54.5388 26.1197C54.3167 27.3398 53.2196 28.7179 52.6202 29.3976C52.465 29.5554 52.3339 29.6973 52.2268 29.8203C52.3312 29.716 52.4623 29.5742 52.6202 29.3976C53.2356 28.7741 54.3648 27.8188 54.4344 29.0898C53.4336 32.9002 52.2001 36.4778 52.2402 36.5153C52.2911 36.5661 48.1409 36.6651 39.7896 36.8096C40.2338 33.3498 39.6852 29.922 38.1439 26.5291C35.832 21.4423 33.0037 15.5314 32.696 12.291C32.6853 12.1813 32.6772 12.0609 32.6692 11.9351C32.8458 11.0842 33.1321 10.0807 33.5442 9.66866C34.058 9.1549 34.2479 10.1129 34.1088 12.5479C34.3309 11.2795 34.6654 10.4152 35.1122 9.9523C35.5564 9.48938 35.6099 10.4152 35.2647 12.7271C35.9845 11.3571 36.6776 10.6373 37.3466 10.5677C38.0128 10.5009 37.8844 11.1511 36.9612 12.5211C37.7158 11.8174 38.4436 11.432 39.1447 11.3651C39.8458 11.2956 39.7173 11.8361 38.7594 12.984C39.9421 12.0582 40.678 11.7424 40.9696 12.0314C41.2613 12.3231 40.7663 13.0509 39.4792 14.2176C40.4211 13.5326 41.2854 13.0456 42.0747 12.7539C43.2548 12.3177 43.9237 12.4703 41.8419 14.3728C43.3324 13.653 44.0013 13.5085 43.8461 13.9366C43.6909 14.3647 43.2815 14.7073 42.6126 14.9641C44.293 14.8277 45.3125 14.8705 45.6711 15.0926C46.0296 15.3147 45.4302 15.914 43.8702 16.8907C45.275 16.2405 46.0216 16.0425 46.1072 16.2994C46.2009 16.5803 45.7781 16.7783 45.5399 16.8666C45.4757 16.8854 45.4249 16.9041 45.3874 16.9175C45.4302 16.9068 45.4811 16.8907 45.5399 16.8666C46.0296 16.7088 47.5415 16.2726 47.6485 16.7891C47.7689 17.3617 45.0449 18.5819 44.6623 18.7478C44.6409 18.7558 44.6275 18.7611 44.6168 18.7665C44.6275 18.7611 44.6435 18.7558 44.6623 18.7478C44.9914 18.6059 47.0812 17.7256 48.2398 17.8674C49.5002 18.0199 48.4593 18.9725 47.3408 19.5505C48.8152 19.3632 49.5858 19.4408 49.6527 19.7833C49.749 20.2623 47.2685 20.9286 46.918 21.0195C47.3247 20.9152 50.5812 20.1017 50.6294 20.8001C50.6642 21.2951 50.3297 21.7581 49.6259 22.1862C51.7506 21.2443 53.0002 21.2711 53.3774 22.2638C53.7547 23.2565 52.8369 24.747 50.6294 26.7351C53.439 25.1938 54.7421 24.9878 54.5361 26.1197H54.5388Z" fill="#E6E7E8"/>
</g>
<g style="mix-blend-mode:multiply">
<path d="M54.5387 26.1197C54.3166 27.3398 53.2195 28.7179 52.6202 29.3976C52.465 29.5554 52.3338 29.6972 52.2268 29.8203C52.3312 29.716 52.4623 29.5742 52.6202 29.3976C53.2356 28.7741 54.3648 27.8188 54.4344 29.0898C53.4336 32.9002 52.2 36.4778 52.2402 36.5153C52.291 36.5661 48.1408 36.6651 39.7895 36.8096C40.2337 33.3498 39.6852 29.922 38.1439 26.5291C37.6569 25.4561 37.1458 24.3456 36.6401 23.2324C37.1324 23.9736 37.5766 24.755 38.0101 25.5283C38.5399 26.4702 39.0671 27.4228 39.5246 28.3995C39.7628 28.9052 39.9795 29.427 40.132 29.9648C40.2872 30.5 40.4157 30.9549 40.4986 31.5891C40.504 31.6265 41.7884 29.2263 41.5315 27.8857C41.5931 28.0811 41.6466 28.2737 41.6947 28.461C41.8312 28.9774 41.965 29.5367 41.8901 30.0692C41.7991 30.7194 41.4004 31.2947 41.0124 31.8058C40.9803 31.8486 42.6366 30.995 43.1932 30.318C42.8935 31.1288 41.8071 32.5711 41.8446 32.5417C43.2735 31.4499 44.5044 30.1227 45.6389 28.7366C46.1875 28.065 46.7494 27.4067 47.231 26.6843C47.4611 26.3391 47.6538 25.9725 47.8625 25.6139C48.0097 25.3597 48.1809 25.0681 48.1676 24.7657C48.1649 24.7336 48.1381 24.7095 48.106 24.7175C47.8786 24.7844 47.6672 24.8861 47.4638 25.0012C47.8491 24.6292 48.1916 24.2145 48.4806 23.7649C48.502 23.7301 48.4726 23.6954 48.4378 23.6927C47.8652 23.6258 47.2819 23.7516 46.7387 23.9228C46.6236 23.9576 46.5112 23.9977 46.3988 24.0379C46.6129 23.9014 46.827 23.7649 47.0437 23.6338C47.817 23.1602 48.9088 22.6304 49.2192 21.7072C49.2245 21.6885 49.2138 21.6617 49.1978 21.6537C48.1863 21.1694 46.9581 21.4718 45.9279 21.734C45.4409 21.8571 44.9512 21.9828 44.4669 22.122C45.1305 21.6885 45.7566 21.1908 46.3293 20.6743C46.3614 20.6449 46.3346 20.5941 46.2945 20.5941C45.4275 20.5834 44.6943 21.0704 43.9317 21.4263C44.887 20.8055 45.8664 20.2088 46.6156 19.3338C46.6397 19.307 46.629 19.2642 46.5942 19.2535C45.4757 18.9163 44.1886 19.3284 43.1049 19.6201C42.6313 19.7458 42.1684 19.901 41.7108 20.0723C41.7456 20.0536 41.7777 20.0348 41.8125 20.0161C42.0185 19.9278 42.2219 19.8341 42.4119 19.7218C43.2253 19.2508 44.1244 18.8066 44.6729 18.0119C44.6863 17.9905 44.6783 17.9584 44.6542 17.945C44.2448 17.7122 43.7551 17.8032 43.3243 17.9263C42.947 18.0333 42.5938 18.1912 42.2352 18.3437C42.4894 18.1644 42.7383 17.9744 42.9684 17.7657C43.0032 17.7363 42.9738 17.6854 42.9363 17.6828C42.4868 17.6614 42.0185 17.7363 41.577 17.8273C41.8339 17.6881 42.0854 17.5436 42.3343 17.3911C42.8106 17.0968 43.2601 16.7623 43.7123 16.4332C43.8836 16.3074 44.2368 16.0799 44.1485 15.8177C44.111 15.7027 43.9692 15.6465 43.8675 15.6063C43.624 15.5073 43.3377 15.4832 43.0781 15.4538C42.543 15.3923 41.9971 15.4163 41.4673 15.5073C40.908 15.6037 40.3729 15.7936 39.8725 16.0478C40.2685 15.5876 40.595 15.0685 40.7448 14.4852C40.7528 14.4557 40.7314 14.4236 40.6993 14.4236C40.0036 14.4343 39.348 14.7313 38.7701 15.1167C39.0002 14.6912 39.1848 14.2417 39.2731 13.7787C39.2785 13.7439 39.2517 13.7118 39.2142 13.7199C38.6657 13.8483 38.1867 14.1935 37.7693 14.5815C38.0797 13.9901 38.3339 13.3667 38.5051 12.7245C38.5132 12.687 38.4811 12.6576 38.4463 12.6656C37.6569 12.8475 36.9451 13.3158 36.418 13.9393C36.4207 13.9232 36.4233 13.9072 36.426 13.8911C36.4769 13.6075 36.525 13.3345 36.525 13.0456C36.525 12.6923 36.4474 12.3579 36.3752 12.0154C36.3698 11.9859 36.3297 11.9699 36.3056 11.9859C35.8641 12.2829 35.6179 12.7592 35.3584 13.2088C35.2433 13.4095 35.1389 13.6182 35.0506 13.8349C35.0399 13.3212 35.0025 12.8047 34.957 12.2963C34.9516 12.2589 34.9195 12.2375 34.8847 12.2535C34.3094 12.5184 34.0365 13.1927 33.8599 13.76C33.8412 13.8215 33.8224 13.8858 33.8064 13.95C33.8064 13.8108 33.8064 13.6717 33.801 13.5352C33.7769 12.8342 33.6779 12.117 33.4532 11.4508C33.4425 11.4186 33.397 11.3999 33.3729 11.4294C33.0438 11.8227 32.8458 12.2856 32.7494 12.7753C32.7227 12.6067 32.7013 12.4435 32.6852 12.2883C32.6745 12.1786 32.6665 12.0582 32.6584 11.9324C32.8351 11.0815 33.1214 10.0781 33.5334 9.66598C34.0472 9.15222 34.2372 10.1102 34.098 12.5452C34.3201 11.2768 34.6546 10.4125 35.1015 9.94962C35.5457 9.4867 35.5992 10.4125 35.254 12.7245C35.9738 11.3544 36.6668 10.6346 37.3358 10.5651C38.0021 10.4982 37.8736 11.1484 36.9505 12.5184C37.7051 11.8147 38.4329 11.4294 39.134 11.3625C39.835 11.2929 39.7066 11.8334 38.7486 12.9813C39.9314 12.0555 40.6672 11.7398 40.9589 12.0287C41.2505 12.3204 40.7555 13.0482 39.4684 14.2149C40.4103 13.5299 41.2746 13.0429 42.064 12.7512C43.244 12.3151 43.913 12.4676 41.8312 14.3701C43.3216 13.6503 43.9906 13.5058 43.8354 13.9339C43.6802 14.3621 43.2708 14.7046 42.6018 14.9614C44.2823 14.825 45.3018 14.8678 45.6603 15.0899C46.0189 15.312 45.4195 15.9114 43.8595 16.8881C45.2643 16.2378 46.0109 16.0398 46.0965 16.2967C46.1901 16.5777 45.7674 16.7757 45.5292 16.864C45.465 16.8827 45.4141 16.9014 45.3767 16.9148C45.4195 16.9041 45.4703 16.8881 45.5292 16.864C46.0189 16.7061 47.5307 16.2699 47.6377 16.7864C47.7582 17.359 45.0342 18.5792 44.6515 18.7451C44.6301 18.7531 44.6167 18.7584 44.606 18.7638C44.6167 18.7584 44.6328 18.7531 44.6515 18.7451C44.9806 18.6033 47.0705 17.7229 48.2291 17.8647C49.4894 18.0172 48.4485 18.9698 47.33 19.5478C48.8044 19.3605 49.5751 19.4381 49.642 19.7806C49.7383 20.2596 47.2578 20.9259 46.9072 21.0169C47.314 20.9125 50.5705 20.0991 50.6186 20.7974C50.6534 21.2925 50.3189 21.7554 49.6152 22.1835C51.7398 21.2416 52.9894 21.2684 53.3667 22.2611C53.744 23.2538 52.8262 24.7443 50.6186 26.7324C53.4282 25.1912 54.7314 24.9851 54.5253 26.117L54.5387 26.1197Z" fill="#E6E7E8"/>
</g>
<path d="M45.5427 16.872C45.4784 16.8907 45.4276 16.9095 45.3901 16.9229C45.433 16.9121 45.4838 16.8961 45.5427 16.872Z" fill="#E1DBCC"/>
<path d="M74.661 43.2102C74.0429 43.6383 72.4508 43.9139 69.882 44.0317C70.2753 44.0317 70.567 44.1253 70.757 44.3126C70.9443 44.5026 69.8392 44.6658 67.4416 44.8023C68.2899 45.3669 73.8155 47.2427 74.3292 47.4995C74.6717 47.6708 74.3132 47.7404 73.2509 47.7056C73.4569 47.842 73.7727 47.9785 74.2008 48.1176C74.843 48.3237 73.5318 48.3478 73.0716 48.4521C72.6087 48.5538 73.1733 48.618 73.5613 48.9659C73.9466 49.3137 72.2501 49.0435 68.8572 49.1586C65.4642 49.2736 62.6118 52.2036 54.0545 53.3596C48.3496 54.1302 42.155 52.6799 35.4735 49.0033C32.8512 47.6146 32.0056 47.4995 27.9571 46.4212C25.2598 45.7014 23.7828 44.3795 23.5259 42.4502C23.4483 42.7312 23.4349 43.1192 23.4884 43.6062C23.2048 42.9908 23.1272 42.271 23.2583 41.4468C23.0523 41.7304 22.8971 42.1666 22.7954 42.758C22.18 39.5202 27.1891 34.5084 27.9999 33.6601C28.5404 33.0955 28.519 32.9029 27.941 33.0822C27.545 33.7351 27.165 33.9277 26.8038 33.6601C22.081 30.1709 23.4697 28.758 23.1433 27.1204C22.956 26.1919 23.0202 25.4935 23.3359 25.0252C23.2717 25.4614 23.4001 25.8681 23.7212 26.2401C23.4323 25.1617 24.6069 23.888 24.3768 24.4098C24.3661 24.4339 24.3554 24.4579 24.3474 24.482C24.2243 24.8165 24.2136 25.1724 24.318 25.547C24.3956 24.565 25.4365 23.5241 28.7331 23.2538C30.9299 23.0746 32.4471 23.1816 33.282 23.5803C32.8967 23.5428 32.506 23.6311 32.1073 23.8505C32.6987 23.7729 33.1562 23.9014 33.4746 24.2359C32.9983 24.1342 32.4739 24.1663 31.8932 24.3322C33.8198 24.9102 34.7457 25.836 35.1711 28.8436C35.5966 31.8513 31.5079 35.8998 30.2744 37.1708C29.0408 38.4445 29.3887 39.5229 30.6222 39.7155C31.8558 39.9082 30.9701 39.4078 36.5599 36.9006C42.1497 34.3933 46.5033 34.4709 54.5227 35.5894C62.5395 36.7079 66.588 38.672 68.8625 39.7129C71.137 40.7538 73.9493 39.9055 73.6817 40.4059C73.5024 40.7404 72.6996 41.0481 71.2788 41.3291C71.6909 41.3799 72.6328 41.4655 74.1071 41.586C73.5934 42.4609 71.3296 42.5626 71.434 42.5894C71.5357 42.6135 75.5976 42.5653 74.6717 43.2075L74.661 43.2102Z" fill="#FFF5ED"/>
<g style="mix-blend-mode:multiply">
<path d="M24.2965 25.5524C24.2484 25.9029 24.2617 26.2642 24.2644 26.6201C24.1333 26.2642 24.0557 25.9003 24.0664 25.5149C24.0798 25.0922 24.2216 24.6828 24.3955 24.3001C24.4036 24.3135 24.3955 24.3509 24.3688 24.4125C24.3581 24.4366 24.3474 24.4607 24.3394 24.4847C24.1788 24.9182 24.2751 25.3945 24.3019 25.5176C24.3019 25.5283 24.2965 25.5417 24.2965 25.5524Z" fill="#E6E7E8"/>
</g>
<g style="mix-blend-mode:multiply">
<path d="M71.6829 42.5546C71.4983 42.5626 71.3163 42.568 71.129 42.568C70.7758 42.5707 70.4226 42.5921 70.0694 42.584C69.7483 42.5787 69.3683 42.5626 69.0767 42.4021C70.0614 42.4262 71.0407 42.3058 72.0067 42.1211C72.6382 42.0007 73.3339 41.8749 73.9253 41.5753C73.9975 41.5806 74.0537 41.586 74.0965 41.5886C73.7005 42.2603 72.2743 42.477 71.6829 42.5519V42.5546Z" fill="#E6E7E8"/>
</g>
<g style="mix-blend-mode:multiply">
<path d="M71.969 40.834C72.5416 40.743 73.1891 40.6547 73.6788 40.3203C73.6922 40.3443 73.6895 40.3738 73.6708 40.4112C73.4915 40.7457 72.6888 41.0534 71.2679 41.3344C71.3856 41.3505 71.5649 41.3692 71.7736 41.3879C71.5917 41.4066 71.4097 41.4147 71.2305 41.4147C70.615 41.4147 69.9594 41.3076 69.4109 41.0079C70.2672 40.9892 71.1207 40.9705 71.9663 40.834H71.969Z" fill="#E6E7E8"/>
</g>
<g style="mix-blend-mode:multiply">
<path d="M74.661 43.2101C74.0429 43.6383 72.4508 43.9139 69.882 44.0316C70.2753 44.0316 70.567 44.1253 70.757 44.3126C70.9443 44.5026 69.8392 44.6658 67.4416 44.8023C68.2899 45.3669 73.8155 47.2426 74.3292 47.4995C74.6717 47.6708 74.3132 47.7403 73.2509 47.7055C73.4569 47.842 73.7726 47.9785 74.2008 48.1176C74.843 48.3237 73.5318 48.3477 73.0716 48.4521C72.6087 48.5538 73.1733 48.618 73.5612 48.9659C73.9466 49.3137 72.2501 49.0435 68.8572 49.1585C65.4642 49.2736 62.6118 52.2036 54.0545 53.3596C48.3496 54.1302 42.155 52.6799 35.4735 49.0033C32.8512 47.6146 32.0056 47.4995 27.9571 46.4211C27.4112 46.2766 26.9349 46.0974 26.5148 45.8967C26.6513 45.8887 26.7877 45.8672 26.9188 45.8271C26.951 45.8164 26.967 45.7709 26.9403 45.7468C26.3409 45.2063 25.8244 44.5828 25.4739 43.8523C25.3187 43.5232 25.2063 43.1807 25.1421 42.8275C25.3187 43.1325 25.5328 43.4162 25.7495 43.6677C26.3676 44.3902 27.3068 44.9468 28.2755 44.9655C28.329 44.9682 28.3344 44.9039 28.2996 44.8772C28.0186 44.6631 27.7484 44.4169 27.5102 44.1467C27.5664 44.1788 27.6199 44.2136 27.6761 44.243C28.3504 44.6069 29.1237 44.7461 29.881 44.7728C29.9158 44.7755 29.9452 44.73 29.9238 44.7006C29.4047 44.0102 28.6127 43.5286 28.1524 42.8195C28.4387 43.055 28.7625 43.2476 29.1157 43.4001C29.1585 43.4189 29.2067 43.3814 29.1799 43.3359C28.8856 42.7874 28.5377 42.2682 28.2702 41.7063C27.9517 41.032 27.8367 40.2801 27.8153 39.5416C27.7751 38.209 28.0962 36.946 28.9177 35.8811C28.9391 35.8516 28.9097 35.8061 28.8776 35.8088C28.1149 35.8489 27.636 36.4537 27.1008 36.9326C27.5263 36.2637 28.0079 35.5706 28.6876 35.1719C28.7357 35.1425 28.701 35.0756 28.6501 35.0863C27.4085 35.3031 26.3462 36.1914 25.4391 37.0183C25.0806 37.3421 24.7086 37.6765 24.3715 38.0351C25.7388 35.964 27.545 34.1471 28.0026 33.6681C28.5431 33.1035 28.5217 32.9109 27.9437 33.0902C27.5477 33.7431 27.1677 33.9357 26.8065 33.6681C23.7426 31.4071 23.2503 30.0156 23.1941 28.873C23.4242 28.6617 23.6329 28.4369 23.8363 28.1987C24.2992 27.6529 24.7273 27.0749 25.2304 26.5611C25.6853 26.0982 26.2633 25.7396 26.9162 25.6594C27.462 25.5925 28.0293 25.7584 28.4735 26.0768C29.782 27.024 29.6883 28.8998 28.4441 30.211C28.1925 30.417 27.6012 30.8237 27.6333 30.8425C28.0186 31.0538 28.436 31.209 28.7491 31.5301C29.0889 31.878 29.105 32.3249 29.1692 32.7798C29.1746 32.8065 29.2067 32.8172 29.2281 32.8145C30.162 32.6379 31.3206 32.2687 31.8772 31.4392C32.1876 30.9736 32.118 30.3849 31.8103 29.9407C31.6497 29.7106 31.4142 29.5233 31.16 29.4055C30.9326 29.3012 30.6704 29.2905 30.4349 29.2129C30.8202 29.1085 31.2082 29.0256 31.6149 29.0737C31.6524 29.0791 31.6738 29.0282 31.6577 29.0015C31.433 28.6402 31.0878 28.4583 30.6918 28.3646C31.0263 28.2496 31.3688 28.172 31.7246 28.279C31.7782 28.2951 31.8049 28.2202 31.7621 28.1907C31.4035 27.9606 31.0048 27.8643 30.6035 27.7626C31.8638 27.7144 33.2954 28.1987 33.2954 29.6223C33.2954 29.6651 33.3489 29.6865 33.3756 29.6571C34.6868 28.3727 32.8431 26.4488 31.3875 26.3845C31.928 26.1036 32.6799 26.0608 33.2311 26.2641C33.2766 26.2802 33.3141 26.2133 33.2793 26.1838C32.0939 25.167 30.3305 24.8887 28.8321 25.2312C29.1719 24.8192 29.6749 24.6105 30.1272 24.3402C30.1727 24.3134 30.1486 24.2572 30.1031 24.2519C29.6616 24.2037 29.2468 24.3348 28.8321 24.4713C29.2227 24.1475 29.7552 23.7702 30.2369 23.8452C30.285 23.8532 30.3252 23.7836 30.2743 23.7569C29.3672 23.2859 28.222 23.4277 27.2533 23.599C26.3569 23.7569 25.4311 24.0539 24.7354 24.6586C24.7595 24.6212 24.7809 24.5837 24.8049 24.5462C25.3936 23.9415 26.5817 23.4384 28.7384 23.2618C30.9353 23.0825 32.4525 23.1896 33.2873 23.5883C32.902 23.5508 32.5113 23.6391 32.1126 23.8585C32.704 23.7809 33.1616 23.9094 33.48 24.2439C33.0037 24.1422 32.4792 24.1743 31.8986 24.3402C33.8252 24.9182 34.751 25.844 35.1765 28.8516C35.6019 31.8593 31.5132 35.9078 30.2797 37.1788C29.1879 38.3053 29.3351 39.282 30.2396 39.6219C30.4028 39.7423 30.5847 39.8413 30.7506 39.9162C31.0717 40.058 31.433 40.157 31.7889 40.1089C32.1742 40.0553 32.5167 39.8868 32.8485 39.6968C32.3561 40.1597 31.8263 40.5825 31.2323 40.9116C31.1814 40.9384 31.2189 41.0079 31.2697 40.9999C32.506 40.8046 33.9001 40.6039 34.9089 39.8092C34.6734 40.0848 34.4246 40.347 34.1971 40.6306C34.1703 40.6628 34.1944 40.727 34.2453 40.7109C35.4494 40.3283 36.4475 39.5068 37.3894 38.6933C38.3206 37.8933 39.3909 37.1708 40.0599 36.1165C40.0759 36.0898 40.0598 36.055 40.0304 36.0443C39.5943 35.9051 39.1661 35.9453 38.738 36.0416C43.3752 34.4414 47.5763 34.6261 54.5307 35.5947C62.5475 36.7132 66.5961 38.6773 68.8705 39.7182C70.6794 40.545 72.8254 40.1784 73.497 40.2453C72.5337 40.5878 71.4179 40.4326 70.4252 40.3577C69.7107 40.3042 68.9883 40.2266 68.2952 40.0339C67.6022 39.8439 66.9386 39.5523 66.2562 39.3355C66.2081 39.3222 66.1786 39.3837 66.2081 39.4158C66.4061 39.6299 66.6094 39.8279 66.8476 39.9777C66.4195 39.8868 65.9913 39.7958 65.5578 39.7209C65.515 39.7128 65.4856 39.753 65.5043 39.7931C65.8201 40.4621 66.5452 40.6173 67.2062 40.8287C66.2161 40.6761 65.1966 40.6815 64.2119 40.8394C63.6018 40.9357 62.9998 41.0802 62.3977 41.2167C61.9 41.329 61.3943 41.4173 60.942 41.6689C60.9126 41.6849 60.9126 41.7224 60.9313 41.7438C61.1454 41.9846 61.4879 42.0542 61.7929 42.1024C62.1515 42.1612 62.5154 42.1692 62.8767 42.2121C63.4493 42.279 64.0273 42.3164 64.6053 42.3298C65.1083 42.3432 65.6167 42.2575 66.1171 42.2763C65.6007 42.485 65.02 42.493 64.4768 42.5867C63.7089 42.7205 62.9462 42.8837 62.1783 43.0068C62.1435 43.0121 62.1301 43.0657 62.1569 43.0871C62.5154 43.3653 62.981 43.4483 63.4172 43.5259C64.0032 43.6276 64.5838 43.7507 65.1752 43.8283C66.5318 44.0102 67.8885 43.954 69.2291 43.6731C69.2692 43.665 69.2773 43.6035 69.2398 43.5848C68.8438 43.3841 68.4076 43.3145 67.9741 43.2423C69.2933 43.3841 70.6205 43.3199 71.9531 43.2342C72.8013 43.1807 73.7218 43.1111 74.5567 42.8409C74.8269 42.9265 74.9179 43.0469 74.6797 43.2128L74.661 43.2101Z" fill="#E6E7E8"/>
</g>
<g style="mix-blend-mode:multiply">
<path d="M74.7974 43.0363C74.7974 43.0871 74.7573 43.146 74.6609 43.2129C74.0428 43.641 72.4507 43.9166 69.8819 44.0344C70.2752 44.0344 70.5669 44.128 70.7569 44.3153C70.9442 44.5053 69.8391 44.6685 67.4415 44.805C68.2898 45.3696 73.8154 47.2454 74.3291 47.5022C74.6716 47.6735 74.3131 47.7431 73.2508 47.7083C73.4568 47.8448 73.7725 47.9812 74.2007 48.1204C74.8429 48.3264 73.5317 48.3505 73.0715 48.4548C72.6086 48.5565 73.1732 48.6207 73.5612 48.9686C73.9465 49.3165 72.25 49.0462 68.8571 49.1613C65.4641 49.2763 62.6117 52.2063 54.0544 53.3623C48.3495 54.1329 42.1549 52.6826 35.4734 49.0061C32.8778 47.6334 32.0189 47.5049 28.0774 46.456C28.5751 46.4747 29.0728 46.4774 29.5545 46.5256C30.3893 46.6032 31.2295 46.7798 32.0376 46.9992C32.8457 47.2186 33.5468 47.6601 34.3335 47.9304C34.3817 47.9491 34.4084 47.8849 34.3816 47.8501C33.8224 47.1838 32.9581 46.836 32.4149 46.159C33.4371 46.7664 34.4753 47.339 35.6446 47.6093C35.6821 47.6173 35.7249 47.5745 35.6982 47.5397C35.353 47.0688 35.0185 46.5844 34.8178 46.0332C34.6011 45.4392 34.593 44.7836 34.7215 44.1708C34.9516 43.0737 35.6152 41.9954 36.5437 41.3452C34.8071 43.6303 36.0995 47.3069 38.5105 48.5966C38.5533 48.6207 38.5988 48.5752 38.5747 48.5324C38.3606 48.115 38.2081 47.6762 38.0903 47.2293C38.6978 48.2327 39.7092 48.9552 40.7367 49.485C41.8793 50.0737 43.1637 50.4751 44.4481 50.5554C44.5016 50.558 44.5097 50.4911 44.4722 50.4644C43.7096 49.9292 43.054 49.1987 42.6821 48.3344C45.9118 51.0959 50.3617 52.217 54.5521 52.1261C56.6954 52.0806 58.7879 51.6685 60.8135 50.9728C63.1763 50.162 67.9312 48.4522 67.8804 48.4441C67.38 48.3772 66.8823 48.3772 66.3819 48.3933C68.1025 48.0695 71.6586 47.7377 71.6132 47.7163C71.1074 47.4701 70.5669 47.3337 70.0184 47.2266C70.5375 47.2641 71.0619 47.2694 71.5677 47.1651C71.6078 47.1571 68.3914 45.6853 66.7217 45.2358C65.7477 44.9736 64.7711 44.7301 63.789 44.4946C63.7221 44.4786 63.6552 44.4625 63.5883 44.4464C64.3028 44.5107 65.0253 44.524 65.737 44.5214C66.4381 44.5187 69.898 44.2886 69.8605 44.2752C69.5795 44.1655 69.1648 43.9862 68.8678 43.9568C70.0719 43.8979 71.2706 43.7855 72.4721 43.6598C73.1464 43.5875 73.9063 43.5554 74.5137 43.2343C74.6074 43.1861 74.7171 43.1219 74.7974 43.039V43.0363Z" fill="#E6E7E8"/>
</g>
<g style="mix-blend-mode:multiply">
<path d="M41.1517 35.3539C44.9273 34.5271 48.7858 34.792 54.5148 35.5921C60.0965 36.3707 63.7544 37.5588 66.2269 38.5596C66.0797 38.8967 65.7506 39.1697 65.4723 39.373C64.996 39.7236 64.4582 39.9885 63.9257 40.24C62.4111 40.9598 60.7842 41.3103 59.1386 41.5859C59.0931 41.594 60.1073 41.7732 60.5461 41.9766C59.0209 43.1486 56.9364 43.4911 55.074 43.6945C54.1509 43.7935 53.2357 43.9246 52.3072 43.9407C51.3493 43.954 49.3879 43.4055 49.4307 43.4403C49.8428 43.7935 50.3298 44.0664 50.8489 44.227C50.584 44.318 50.2789 44.3313 50.0167 44.3447C49.6474 44.3608 49.2782 44.3447 48.9089 44.342C47.7288 44.3313 45.3179 44.0771 45.3554 44.1119C45.7568 44.4919 46.2866 44.6016 46.7656 44.8424C46.0351 45.1555 45.2002 45.1608 44.4189 45.1715C43.9747 45.1796 43.5385 45.1983 43.0997 45.1314C42.701 45.0699 42.313 44.9602 41.9196 44.8719C41.9169 44.8719 41.9143 44.8692 41.9143 44.8692C41.9009 44.8611 41.8875 44.8585 41.8768 44.8638C41.8527 44.8585 41.735 44.8719 41.7484 44.9066C41.7537 44.928 41.7537 44.9548 41.7698 44.9655C42.3718 45.3963 42.7117 46.191 42.8294 46.4667C42.3852 46.5175 41.917 46.4773 41.4915 46.4426C40.86 46.3864 40.2232 46.2954 39.5997 46.1884C39.0003 46.0867 38.4063 45.9315 37.839 45.7094C37.2985 45.4953 36.6456 45.1662 36.4395 44.5802C36.4181 44.5213 36.3352 44.5454 36.3459 44.6043C36.4315 45.0324 36.5385 45.4605 36.5626 45.8994C36.1693 45.4258 36.0408 44.8157 35.8963 44.227C35.8856 44.1895 35.8241 44.1761 35.808 44.2163C35.5672 44.7648 35.6127 45.407 35.7224 45.9903C35.1498 45.0779 34.9598 44.0584 35.3103 43.0041C35.6582 41.9552 36.4128 41.0722 37.1352 40.2614C37.9273 39.3757 38.7354 38.5061 39.5087 37.6016C39.8967 37.1494 40.2526 36.6758 40.662 36.245C40.8627 36.0336 41.2614 35.6857 41.1543 35.3512L41.1517 35.3539Z" fill="#D5D6D7"/>
</g>
<g style="mix-blend-mode:multiply">
<path d="M23.2878 25.1001C23.3039 25.068 23.3173 25.0439 23.328 25.0279C23.2557 25.5176 23.5072 25.9537 23.6384 26.141C23.6812 26.4327 23.7882 26.719 23.9488 26.9625C23.3226 26.6949 23.1353 25.7718 23.2878 25.0975V25.1001Z" fill="#E6E7E8"/>
</g>
<path d="M23.3919 28.7152C23.7398 27.9794 24.2295 27.2489 24.8583 26.5291C25.8028 25.4507 28.1897 25.4507 28.8426 27.0696C29.7283 29.2665 27.6679 30.4438 25.7574 30.8291C23.7371 31.2385 21.658 30.8934 23.3919 28.7152Z" fill="#FBAB18"/>
<g style="mix-blend-mode:screen" opacity="0.6">
<path d="M28.0135 29.6544C26.9137 29.8096 25.9933 30.0959 25.1798 30.813C25.1397 30.8478 25.1316 30.8933 25.1424 30.9335C24.2326 31.0432 23.395 30.9763 22.9937 30.623C23.1542 30.409 23.2505 30.1146 23.3442 29.8952C23.7081 29.0309 24.1229 28.1613 24.7222 27.4361C25.3511 26.6735 26.2501 26.1705 27.2482 26.3711C28.7066 26.6655 28.3186 28.5894 27.4061 29.2718C27.3044 29.3494 28.0429 29.6383 28.0162 29.6598L28.0135 29.6544Z" fill="#FDB743"/>
</g>
<path d="M32.6076 29.7427C32.6183 29.7802 32.5461 29.8926 32.5059 29.8551C32.3106 29.6838 32.1848 29.5929 31.9601 29.5072C31.9735 29.5179 31.9842 29.5313 31.9949 29.5447C32.2089 29.8364 32.332 30.1146 32.4096 30.4705C32.5193 30.9816 32.3588 31.5837 31.9868 31.961C31.2643 32.6941 30.0977 33.0955 28.9819 33.1597C28.8079 33.1571 28.634 33.1464 28.4574 33.1276C28.4226 33.1196 28.3905 33.1143 28.3584 33.1062C28.5404 33.0741 28.7223 33.0233 28.9069 32.9831C28.9765 32.9698 29.0434 32.9537 29.1103 32.935C29.5973 32.8948 30.079 32.7985 30.4964 32.6594C31.3232 32.3811 32.4283 31.8432 32.2972 30.7863C32.2277 30.211 32.035 29.7989 31.5988 29.4163C31.5587 29.3815 31.647 29.2905 31.6845 29.2932C31.8316 29.3012 32.0457 29.3467 32.1661 29.4136C32.2437 29.451 32.316 29.4965 32.3802 29.55C32.1581 29.0871 31.8263 28.6055 31.3098 28.5065C31.2537 28.4958 31.3446 28.3861 31.3767 28.3807C31.5935 28.3459 31.8075 28.3138 32.0243 28.3513C32.1367 28.37 32.2196 28.4155 32.2544 28.4369C32.2384 28.4262 32.2089 28.4048 32.1608 28.362C31.7995 28.0543 31.3714 27.8696 30.9085 27.8375C31.0155 27.8134 31.1225 27.792 31.2322 27.784C31.4998 27.7733 31.829 27.9392 32.0457 28.073C32.2303 28.1881 32.3374 28.3486 32.423 28.5279C32.4123 28.568 32.3641 28.6215 32.332 28.6028C32.0858 28.453 31.7139 28.4717 31.5426 28.4021C31.7139 28.4717 31.8691 28.552 31.9949 28.6965C32.2678 29.0068 32.5086 29.3306 32.6103 29.74L32.6076 29.7427Z" fill="#BFBEB1"/>
<path d="M29.8168 40.3845C28.9686 39.7985 29.1773 38.573 29.7124 37.8746C29.7339 37.8452 29.7713 37.8505 29.7472 37.888C29.3512 38.5569 29.3271 39.6861 29.8676 40.3203C29.8837 40.339 29.8382 40.4006 29.8168 40.3845Z" fill="#BFBEB1"/>
<path d="M35.9338 42.9533C35.7786 42.2068 36.576 40.9599 38.3233 39.2125C40.9456 36.5902 46.3401 30.6927 49.4253 25.6434C52.5079 20.5941 55.5155 16.4305 56.8266 11.2662C58.1378 6.10181 58.9459 4.02001 59.2938 5.13583C59.6389 6.25433 58.7533 13.5781 57.4822 17.0861C59.2804 13.7975 60.7334 10.9317 61.8385 8.49132C63.4975 4.82811 64.3056 3.94241 64.4207 5.63889C64.4983 6.77076 63.353 9.9443 60.9902 15.1622C64.6133 10.434 66.6576 8.0953 67.1206 8.14614C67.8136 8.22374 65.887 12.3472 62.4941 15.7803C67.2731 12.5158 70.2299 10.8059 71.3591 10.6534C73.0556 10.4233 68.3515 15.5127 65.9245 17.3617C70.1389 15.1274 72.5793 14.124 73.2482 14.3567C74.249 14.7019 70.3556 18.1725 68.1588 19.7539C71.2413 18.0574 73.1572 17.3376 73.9011 17.5945C75.0196 17.9798 68.8117 21.6029 68.6592 21.6029C68.504 21.6029 74.5942 19.3284 75.0196 20.562C75.4424 21.7956 68.3889 25.8039 66.655 26.5371C71.4608 24.8674 74.3132 24.2118 75.2123 24.5731C76.1114 24.9343 74.3774 26.026 70.0078 27.8483C73.0903 27 74.5674 26.8716 74.439 27.463C74.3105 28.0543 71.9344 29.1059 67.3079 30.6231C71.343 29.9301 73.1546 30.0077 72.7452 30.8532C72.3331 31.7015 70.278 32.5122 66.5774 33.2802C70.278 32.4828 71.8595 32.4962 71.3189 33.3204C70.7784 34.1418 68.5575 35.3112 64.6508 36.8284C67.1179 36.0845 68.3381 35.8918 68.314 36.2504C68.2872 36.609 66.7326 37.4706 63.6473 38.8326C64.9853 38.4713 65.5231 38.4981 65.2662 38.9102C64.8809 39.5283 60.0243 41.0321 57.9425 41.4147C58.97 41.5191 59.0984 41.7225 58.3278 42.0329C57.1718 42.4958 50.2334 43.3815 46.5327 41.9954C46.6879 42.1238 47.0732 42.354 47.6887 42.6884C48.6145 43.1888 46.4177 43.1112 45.0289 42.5734C45.7755 43.0631 45.8905 43.344 45.3768 43.4216C44.6061 43.5367 41.9464 42.9212 41.0205 42.2282C41.9464 43.1273 42.1898 43.5634 41.751 43.5394C41.3149 43.5126 40.5442 43.2825 39.4391 42.8463C40.183 43.5153 40.0305 43.8096 38.9762 43.732C37.9219 43.6544 36.9078 43.3975 35.9311 42.9614L35.9338 42.9533Z" fill="#FFF5ED"/>
<g style="mix-blend-mode:multiply">
<path d="M70.0105 27.8429C73.093 26.9947 74.5701 26.8662 74.4417 27.4576C74.3132 28.049 71.9371 29.1006 67.3106 30.6178C71.3457 29.9247 73.1573 30.0023 72.7479 30.8479C72.1618 32.0574 67.1152 33.1625 66.6202 33.2695C67.1126 33.1652 72.0923 32.143 71.3216 33.315C70.7811 34.1365 68.5602 35.3058 64.6535 36.823C67.1206 36.0791 68.3408 35.8865 68.3167 36.245C68.2899 36.6036 66.7353 37.4652 63.65 38.8272C64.9879 38.466 65.5258 38.4927 65.2689 38.9048C64.8836 39.5229 60.027 41.0267 57.9452 41.4094C58.9727 41.5137 59.1011 41.7171 58.3305 42.0275C57.1745 42.4904 50.2361 43.3761 46.5354 41.99C46.6906 42.1185 47.0759 42.3486 47.6914 42.6831C48.6172 43.1835 46.4204 43.1059 45.0316 42.568C45.7782 43.0577 45.8932 43.3387 45.3795 43.4163C44.6088 43.5313 41.949 42.9159 41.0232 42.2229C41.949 43.1219 42.1925 43.5581 41.7537 43.534C41.3175 43.5072 40.5469 43.2771 39.4418 42.841C40.1857 43.5099 40.0331 43.8043 38.9789 43.7267C37.9246 43.6491 36.9105 43.3922 35.9338 42.956C35.8455 42.5172 36.1719 41.8027 36.9158 40.81C37.5125 40.9491 38.3982 40.3899 38.813 40.1223C40.1 39.2875 41.248 38.2144 42.3183 37.1227C42.6635 36.7722 43.0461 36.4109 43.3458 36.0042C43.1237 36.7026 42.7384 37.3287 42.2862 37.9094C42.2487 37.9576 42.3049 38.0164 42.3531 37.9763C46.5408 34.6154 49.6742 30.0318 52.1681 25.325C53.2865 23.2137 54.2311 21.0142 55.0151 18.7558C55.2559 18.0574 55.5503 17.3804 55.759 16.6687C55.9222 16.1121 56.1604 15.2799 55.7911 14.7554C55.7724 14.7287 55.7403 14.7233 55.7162 14.7447C55.6814 14.7715 55.6493 14.8009 55.6172 14.8304C56.1042 13.6824 56.5163 12.5024 56.8293 11.2662C58.1405 6.10181 58.9486 4.02001 59.2965 5.13583C59.6416 6.25433 58.7559 13.5781 57.4849 17.0861C59.2831 13.7975 60.7361 10.9317 61.8412 8.49132C63.5002 4.82811 64.3083 3.94241 64.4234 5.63889C64.501 6.77076 63.3557 9.9443 60.9929 15.1622C64.616 10.434 66.6603 8.0953 67.1233 8.14614C67.8163 8.22374 65.8897 12.3472 62.4968 15.7803C67.2758 12.5158 70.2326 10.8059 71.3618 10.6534C73.0583 10.4233 68.3541 15.5127 65.9272 17.3617C70.1416 15.1274 72.582 14.124 73.2509 14.3567C74.2517 14.7019 70.3583 18.1725 68.1615 19.7539C71.244 18.0574 73.1599 17.3376 73.9038 17.5945C74.9233 17.9477 69.8526 20.9901 68.8358 21.5226C69.8205 21.1293 74.6477 19.4676 75.0223 20.562C75.4451 21.7956 68.3916 25.8039 66.6577 26.5371C71.4635 24.8674 74.3159 24.2118 75.215 24.5731C76.114 24.9343 74.3801 26.026 70.0105 27.8483V27.8429Z" fill="#E6E7E8"/>
</g>
<g style="mix-blend-mode:multiply">
<path d="M70.0105 27.8429C73.093 26.9947 74.5701 26.8662 74.4416 27.4576C74.3132 28.049 71.937 29.1006 67.3105 30.6178C71.3457 29.9247 73.1572 30.0023 72.7478 30.8479C72.1618 32.0574 67.1152 33.1625 66.6202 33.2695C67.1125 33.1652 72.0922 32.143 71.3216 33.315C70.7811 34.1365 68.5602 35.3058 64.6534 36.823C67.1206 36.0791 68.3407 35.8865 68.3167 36.245C68.2899 36.6036 66.7352 37.4652 63.65 38.8272C64.9879 38.466 65.5258 38.4927 65.2689 38.9048C64.8836 39.5229 60.0269 41.0267 57.9451 41.4094C58.9726 41.5137 59.1011 41.7171 58.3305 42.0275C57.1745 42.4904 50.2361 43.3761 46.5354 41.99C46.6906 42.1185 47.0759 42.3486 47.6913 42.6831C48.6172 43.1835 46.4203 43.1059 45.0316 42.568C45.7781 43.0577 45.8932 43.3387 45.3794 43.4163C44.6088 43.5313 41.949 42.9159 41.0232 42.2229C41.949 43.1219 42.1925 43.5581 41.7537 43.534C41.3175 43.5072 40.5469 43.2771 39.4418 42.841C40.1857 43.5099 40.0331 43.8043 38.9788 43.7267C38.9414 43.724 38.9039 43.7213 38.8665 43.716C38.8986 43.6972 38.9307 43.6785 38.9574 43.6571C39.2999 43.3842 39.0939 42.9212 38.9253 42.6028C38.821 42.4021 38.6845 42.2148 38.532 42.0409C39.1207 42.362 39.7254 42.6537 40.3756 42.7874C40.777 42.8731 41.1356 42.7446 40.9884 42.2657C40.9295 42.081 40.8198 41.9124 40.6914 41.7572C40.9911 41.891 41.2988 42.0061 41.6145 42.1024C41.9785 42.2121 42.3343 42.3245 42.6929 42.4423C43.0434 42.5573 43.4261 42.6831 43.7953 42.6483C43.9211 42.6376 44.1512 42.5707 44.1566 42.4101C44.1619 42.3192 44.1111 42.2416 44.0469 42.172C44.1646 42.1907 44.285 42.2095 44.4028 42.2255C44.7854 42.2844 45.1868 42.3272 45.5667 42.2362C45.5962 42.2282 45.6096 42.1907 45.5962 42.164C45.4811 41.974 45.3339 41.8108 45.168 41.6716C46.0751 41.8001 47.0144 41.8001 47.892 41.5405C47.9295 41.5298 47.9402 41.4736 47.9027 41.4522C47.4238 41.19 46.8859 41.0776 46.3695 40.917C47.2204 40.8341 48.0686 40.727 48.9142 40.6013C49.9792 40.4434 51.0468 40.3016 52.0717 39.9564C52.9413 39.6647 53.8565 39.2099 54.3461 38.3991C54.3649 38.367 54.3408 38.3295 54.3033 38.3268C53.629 38.3027 52.9627 38.4151 52.3018 38.5355C52.1493 38.565 51.9941 38.5891 51.8416 38.6158C52.5614 38.4446 53.2758 38.2466 53.9849 38.0298C54.8438 37.7649 55.7108 37.5107 56.5403 37.1602C57.2227 36.8739 58.1378 36.4778 58.4696 35.7607C58.4937 35.7099 58.5097 35.659 58.5231 35.6082C58.5311 35.5761 58.5071 35.5493 58.4776 35.5466C57.3591 35.4931 56.2727 35.7286 55.1863 35.9721C55.5556 35.8437 55.9222 35.7125 56.2888 35.5707C57.3297 35.1747 58.3465 34.7278 59.3473 34.2408C60.3132 33.7672 61.2605 33.232 62.0632 32.5096C62.0953 32.4801 62.0686 32.4293 62.0284 32.4266C61.3274 32.3811 60.645 32.547 59.9761 32.7718C60.6049 32.3892 61.2257 31.9905 61.8599 31.6185C62.5262 31.2279 63.27 30.8131 63.7008 30.1495C63.7249 30.112 63.6848 30.0692 63.6473 30.0799C62.6546 30.2886 61.7341 30.6793 60.827 31.1101C61.2471 30.797 61.6645 30.4813 62.0766 30.1629C62.8071 29.5956 63.6125 28.948 64.03 28.0998C64.145 27.867 64.2119 27.6075 64.1878 27.3479C64.1852 27.3238 64.1664 27.2971 64.1397 27.2997C63.6313 27.3559 63.1576 27.5566 62.7081 27.8162C63.0185 27.5165 63.3235 27.2088 63.6125 26.885C64.054 26.39 64.5972 25.8923 64.8488 25.2634C64.929 25.0627 64.9264 24.8299 64.715 24.7229C64.3912 24.5597 63.9283 24.7149 63.6179 24.8326C62.6198 25.2099 61.7689 25.9163 60.8431 26.4354C60.2918 26.7432 59.762 27.0883 59.2429 27.4496C59.8771 26.7592 60.4818 26.0448 61.0357 25.2929C61.314 24.9156 61.5682 24.5249 61.8197 24.1315C62.0391 23.7864 62.2398 23.4064 62.2211 22.9836C62.2211 22.9569 62.1997 22.9381 62.1729 22.9355C61.7769 22.9248 61.405 23.1308 61.0812 23.3395C60.6665 23.6098 60.2892 23.9442 59.9252 24.2787C59.5132 24.656 59.0743 25.0012 58.6516 25.3678C58.6301 25.3865 58.6061 25.4079 58.582 25.4267C58.7506 25.1939 58.9111 24.953 59.0636 24.7095C59.283 24.359 59.4891 23.9924 59.6817 23.6285C59.8423 23.3261 59.9734 22.9836 59.9145 22.6358C59.9092 22.609 59.8798 22.5956 59.8557 22.6037C59.2697 22.7669 58.7639 23.1174 58.3117 23.5268C58.4027 23.3716 58.4937 23.2191 58.5847 23.0639C58.9834 22.3789 59.3794 21.6858 59.7379 20.9794C60.0992 20.265 60.4176 19.4836 60.3507 18.6702C60.348 18.6381 60.3106 18.606 60.2785 18.6274C59.2723 19.3258 58.5258 20.281 57.8194 21.2684C57.8488 21.2015 57.8756 21.1373 57.905 21.0704C58.1726 20.4496 58.4268 19.8154 58.6194 19.1652C58.7425 18.7558 58.871 18.3009 58.8121 17.8674C58.772 17.5731 58.5472 17.3537 58.2636 17.5463C58.012 17.7149 57.8274 17.9959 57.6561 18.2421C57.4126 18.5953 57.1959 18.9645 56.9872 19.3391C56.8213 19.6388 56.6607 19.9412 56.5055 20.2463C56.2567 20.7359 55.9516 21.1935 55.6734 21.6671C54.9081 22.9729 54.1695 24.2975 53.4096 25.6059C51.9004 28.2015 50.2387 30.7248 48.3737 33.0795C47.4559 34.2355 46.4872 35.37 45.3741 36.3414C45.0931 36.5849 44.8068 36.8203 44.5151 37.0478C45.0182 36.5314 45.4891 35.9801 45.9387 35.4102C46.3588 34.9232 46.7735 34.4201 47.1669 33.9117C47.4586 33.5344 47.7395 33.125 47.9268 32.6808C48.1034 32.432 48.28 32.1831 48.4593 31.937C50.1932 29.5367 51.8603 27.0964 53.2276 24.4633C54.397 22.2076 55.3523 19.8154 56.0908 17.3831C56.3798 16.4332 56.6795 15.4726 56.9042 14.5066C57.0996 13.6664 57.2896 12.6683 56.9417 11.8415C56.9283 11.812 56.8882 11.7906 56.8614 11.8201C56.7571 11.9351 56.6607 12.0555 56.5697 12.1813C56.6607 11.8789 56.7464 11.5739 56.824 11.2662C58.1351 6.10181 58.9432 4.02001 59.2911 5.13583C59.6363 6.25433 58.7506 13.5781 57.4795 17.0861C59.2777 13.7975 60.7307 10.9317 61.8358 8.49132C63.4948 4.82811 64.3029 3.94241 64.418 5.63889C64.4956 6.77076 63.3503 9.9443 60.9875 15.1622C64.6106 10.434 66.655 8.0953 67.1179 8.14614C67.8109 8.22374 65.8843 12.3472 62.4914 15.7803C67.2704 12.5158 70.2272 10.8059 71.3564 10.6534C73.0529 10.4233 68.3488 15.5127 65.9218 17.3617C70.1362 15.1274 72.5766 14.124 73.2455 14.3567C74.2463 14.7019 70.353 18.1725 68.1561 19.7539C71.2387 18.0574 73.1545 17.3376 73.8984 17.5945C74.9179 17.9477 69.8472 20.9901 68.8304 21.5226C69.8151 21.1293 74.6423 19.4676 75.0169 20.562C75.4397 21.7956 68.3862 25.8039 66.6523 26.5371C71.4581 24.8674 74.3105 24.2118 75.2096 24.5731C76.1087 24.9343 74.3747 26.026 70.0051 27.8483L70.0105 27.8429Z" fill="#E6E7E8"/>
</g>
<path d="M26.9296 28.8838C26.8145 29.5447 26.4105 30.0264 26.0225 29.9595C25.6345 29.8926 25.4151 29.3012 25.5274 28.643C25.6425 27.9821 26.0465 27.5004 26.4345 27.5673C26.8225 27.6342 27.042 28.2229 26.9269 28.8865L26.9296 28.8838Z" fill="white"/>
<path d="M26.8493 28.8677C26.7476 29.4511 26.3891 29.8765 26.0466 29.8176C25.704 29.7588 25.5087 29.237 25.6104 28.6537C25.7094 28.0703 26.0707 27.6449 26.4132 27.7037C26.7557 27.7626 26.951 28.2844 26.8493 28.8677Z" fill="#492912"/>
<path d="M26.3863 28.354C26.3489 28.5788 26.2097 28.742 26.0813 28.7179C25.9502 28.6938 25.8753 28.4958 25.9127 28.2711C25.9502 28.0463 26.0893 27.8831 26.2204 27.9071C26.3516 27.9312 26.4265 28.1292 26.3863 28.354Z" fill="white"/>
<path d="M25.9609 29.1139C25.9395 29.2317 25.8673 29.3173 25.8004 29.3039C25.7308 29.2932 25.6907 29.1889 25.7121 29.0711C25.7308 28.9534 25.8057 28.8678 25.8753 28.8811C25.9449 28.8918 25.985 28.9989 25.9636 29.1139H25.9609Z" fill="white"/>
<path d="M25.7202 27.3933C25.7978 27.2141 26.1938 26.7752 26.4507 26.7538C26.7879 26.7244 26.9993 27.1579 27.0822 27.3933C26.9324 27.1926 26.7344 27.1097 26.4614 27.1044C26.1938 27.099 25.8968 27.1793 25.7175 27.3933H25.7202Z" fill="#492912"/>
<path d="M68.6621 21.5975C68.6755 21.5975 68.737 21.5681 68.836 21.5172C68.7103 21.5681 68.646 21.5975 68.6621 21.5975Z" stroke="#132AE1" stroke-width="2"/>
<path d="M66.6122 33.2722C66.5988 33.2748 66.5881 33.2775 66.5801 33.2775C66.5908 33.2775 66.6015 33.2748 66.6122 33.2722Z" stroke="#132AE1" stroke-width="2"/>
<path d="M70.0105 27.8428C73.093 26.9946 74.5701 26.8662 74.4416 27.4575C74.3132 28.0489 71.9371 29.1005 67.3106 30.6177C71.3457 29.9246 73.1572 30.0022 72.7478 30.8478C72.1565 32.0653 67.0456 33.1784 66.6122 33.2694C66.5988 33.2721 66.5881 33.2748 66.5801 33.2748C66.5908 33.2748 66.6015 33.2721 66.6122 33.2694C67.0644 33.1731 72.0949 32.1349 71.3216 33.3149C70.7811 34.1364 68.5602 35.3057 64.6535 36.8229C67.1206 36.079 68.3407 35.8864 68.3167 36.2449C68.2899 36.6035 66.7353 37.4651 63.65 38.8271C64.9879 38.4659 65.5258 38.4926 65.2689 38.9047C64.8836 39.5228 60.0269 41.0266 57.9451 41.4093C58.9727 41.5136 59.1011 41.717 58.3305 42.0274C57.1745 42.4903 50.2361 43.376 46.5354 41.9899C50.9291 42.9131 54.2445 42.0274 52.6657 42.0676C51.6115 42.0943 50.0702 41.8749 48.0392 41.412C53.051 41.3344 58.1405 38.4445 58.1003 37.829C58.0709 37.3527 56.4895 37.7916 55.7644 38.019C57.9532 37.2644 61.2953 35.4128 61.1856 34.9739C61.108 34.6662 60.4658 34.6528 59.2563 34.9365C62.3014 33.9732 66.0021 31.3134 65.9272 30.5802C65.8763 30.0932 64.8086 30.4143 62.7269 31.5435C64.6936 30.3099 67.1232 28.5359 66.6202 28.3432C66.2857 28.2148 65.1431 28.6509 63.1898 29.6544C66.0048 27.5726 67.4684 25.3757 66.6202 25.2607C66.4463 25.2366 66.2215 25.2981 65.97 25.4078C66.2991 25.0198 66.6255 24.6265 66.9279 24.2144C67.8805 23.2217 68.7555 22.0898 68.2498 21.7205C67.6985 21.3165 66.8985 22.0791 66.5158 22.4216C66.5105 22.427 66.5051 22.4296 66.5024 22.435C66.2911 22.5795 66.0984 22.7721 65.9352 22.9862C65.4803 23.4518 65.0575 23.9495 64.624 24.4365L65.8495 22.6785L62.7269 24.2599C64.1531 22.9862 66.0609 20.8295 65.8495 20.1739C65.7505 19.8715 65.5472 19.8341 65.2341 20.0588C65.9031 19.133 66.275 18.3891 66.3526 17.8218C66.4302 17.2572 66.1466 17.2171 65.5044 17.7068C64.3484 18.3998 62.7429 19.8662 60.6852 22.1032C61.2257 21.3325 64.1932 17.0539 63.46 16.7836C62.9704 16.6043 62.1756 17.2064 61.0705 18.5952C62.0847 17.0485 62.4138 16.1949 62.0552 16.0317C61.694 15.8712 61.1668 16.31 60.4738 17.3509C60.8217 16.3823 60.8672 15.807 60.6103 15.6277C60.348 15.443 59.5614 16.3394 59.0904 16.9254C59.3847 16.508 59.7192 15.914 59.5319 15.5902C59.3259 15.229 58.3492 16.4251 56.6019 19.1758C57.3725 17.2091 57.9505 11.8521 57.5277 10.9637C57.3993 10.6961 57.1558 10.8138 56.8775 11.1055C58.1619 6.06425 58.9593 4.03865 59.3018 5.14376C59.647 6.26226 58.7613 13.586 57.4903 17.094C59.2884 13.8054 60.7414 10.9396 61.8465 8.49926C63.5055 4.83605 64.3136 3.95035 64.4287 5.64682C64.5063 6.7787 63.361 9.95223 60.9983 15.1701C64.6214 10.4419 66.6657 8.10323 67.1286 8.15407C67.8216 8.23167 65.895 12.3551 62.5021 15.7882C67.2811 12.5237 70.2379 10.8138 71.3671 10.6613C73.0636 10.4312 68.3595 15.5206 65.9325 17.3696C70.1469 15.1353 72.5873 14.1319 73.2563 14.3647C74.257 14.7099 70.3637 18.1804 68.1668 19.7618C71.2494 18.0654 73.1653 17.3456 73.9092 17.6024C74.9286 17.9556 69.858 20.9981 68.8411 21.5306C68.7154 21.5814 68.6511 21.6108 68.6672 21.6108C68.6806 21.6108 68.7421 21.5814 68.8411 21.5306C69.8258 21.1372 74.653 19.4755 75.0277 20.5699C75.4504 21.8035 68.3969 25.8119 66.663 26.5451C71.4688 24.8753 74.3212 24.2198 75.2203 24.581C76.1194 24.9422 74.3854 26.034 70.0158 27.8562L70.0105 27.8428Z" fill="#3A454F"/>
<g style="mix-blend-mode:multiply">
<path d="M62.4192 15.8712C62.462 15.8284 62.5048 15.7856 62.5476 15.7401C62.6199 15.6919 62.767 15.5903 62.9731 15.4538C62.7884 15.5956 62.6092 15.7401 62.4192 15.8712Z" fill="#3A454F"/>
</g>
<g style="mix-blend-mode:multiply">
<path d="M65.4991 17.7041C64.485 18.3142 63.0106 19.711 61.959 20.7679C62.4299 20.0615 62.9196 19.3712 63.4387 18.7022C64.3405 17.5382 65.3787 16.4866 66.3928 15.4216C66.8236 14.9694 67.2357 14.4958 67.6772 14.0543C68.0117 13.7225 68.3783 13.388 68.6004 12.9679C68.7315 12.7217 68.7449 12.3444 68.397 12.315C68.2204 12.2989 68.0305 12.3846 67.8699 12.4488C67.6719 12.5291 67.4739 12.6067 67.2785 12.6923C68.9777 11.6621 70.6474 10.7496 71.3565 10.6533C73.053 10.4232 68.3489 15.5126 65.9219 17.3616C65.9326 17.3563 65.9486 17.3482 65.9674 17.3375C65.8336 17.4392 65.7025 17.5436 65.5767 17.6506C65.5446 17.672 65.5178 17.6907 65.4964 17.7068L65.4991 17.7041Z" fill="#3A454F"/>
</g>
<g style="mix-blend-mode:multiply">
<path d="M68.2658 16.1736C68.0758 16.2646 67.8912 16.3582 67.7146 16.4438C67.8912 16.4412 68.132 16.2539 68.2658 16.1736Z" fill="#3A454F"/>
</g>
<g style="mix-blend-mode:multiply">
<path d="M68.6326 21.7179C68.7369 21.6349 68.844 21.5547 68.951 21.4717C69.1062 21.4128 69.3203 21.3326 69.5718 21.2469C69.4433 21.2978 69.3149 21.3486 69.1865 21.4021C68.9911 21.4851 68.8118 21.6028 68.6326 21.7179Z" fill="#3A454F"/>
</g>
<g style="mix-blend-mode:multiply">
<path d="M72.9112 20.3211C73.9788 20.1258 74.8672 20.1124 75.0197 20.5566C75.4104 21.6911 69.4808 25.1697 67.1742 26.2936C67.0752 26.3283 66.9735 26.3604 66.8718 26.3926C67.91 25.654 68.9402 24.8994 69.9142 24.0699C70.9311 23.2056 71.8114 22.2477 72.649 21.2148C72.7827 21.0516 73.2028 20.6047 72.9781 20.3746C72.9567 20.3532 72.9353 20.3372 72.9112 20.3211Z" fill="#3A454F"/>
</g>
<g style="mix-blend-mode:multiply">
<path d="M70.0104 27.8429C73.093 26.9947 74.57 26.8662 74.4416 27.4576C74.2757 28.2229 69.0873 30.021 67.6691 30.5C67.6343 30.5027 67.5995 30.508 67.5674 30.5134C68.4451 30.0906 69.3281 29.6651 70.1897 29.2103C70.5242 29.0336 70.864 28.8463 71.161 28.6135C71.3109 28.4958 71.5597 28.3138 71.5249 28.0917C71.4768 27.792 70.9202 27.8937 70.7382 27.9205C70.1228 28.0061 69.5074 28.1105 68.9026 28.2523C68.4665 28.354 68.0356 28.469 67.6075 28.5975C68.1828 28.3352 68.7474 28.0516 69.3094 27.768C70.4145 27.2061 71.5356 26.6655 72.515 25.8949C72.7077 25.7424 73.2723 25.3731 73.2054 25.0547C73.1545 24.8112 72.7906 24.8246 72.6033 24.8272C72.5471 24.8272 72.4909 24.8299 72.4347 24.8326C73.687 24.5463 74.7707 24.3938 75.2176 24.573C76.1167 24.9343 74.3827 26.026 70.0131 27.8482L70.0104 27.8429Z" fill="#3A454F"/>
</g>
<g style="mix-blend-mode:multiply">
<path d="M72.748 30.8478C72.1566 32.0653 67.0458 33.1785 66.6123 33.2695C66.5989 33.2721 66.5882 33.2748 66.5802 33.2748C66.5909 33.2748 66.6016 33.2721 66.6123 33.2695C67.0645 33.1731 72.095 32.1349 71.3217 33.3149C70.7812 34.1364 68.5603 35.3058 64.6536 36.823C67.1207 36.0791 68.3409 35.8864 68.3168 36.245C68.29 36.6035 66.7354 37.4652 63.6501 38.8272C64.988 38.4659 65.5259 38.4927 65.269 38.9048C64.8837 39.5229 60.0271 41.0267 57.9453 41.4093C58.9728 41.5137 59.1012 41.7171 58.3306 42.0274C57.8623 42.2148 56.4468 42.4716 54.6807 42.6161C54.868 42.5706 55.05 42.5198 55.2346 42.4663C55.5129 42.3807 55.8019 42.287 56.0534 42.1345C56.1819 42.0569 56.3264 41.9204 56.2247 41.7625C56.0561 41.503 55.5156 41.4628 55.248 41.4254C55.0447 41.3986 54.8413 41.3799 54.6353 41.3612C55.3658 41.313 56.0963 41.2327 56.8241 41.1284C57.8355 40.9839 58.855 40.8207 59.8531 40.5932C60.2973 40.4915 60.7308 40.3604 61.1616 40.2106C61.5095 40.0875 61.8707 39.9403 62.1356 39.6754C62.1624 39.646 62.1463 39.6058 62.1142 39.5951C61.5897 39.3998 60.9261 39.6486 60.407 39.7477C60.1448 39.7958 59.8879 39.8466 59.6283 39.9055C59.4651 39.943 59.2778 39.9965 59.0905 40.0206C59.2778 39.9671 59.4651 39.9135 59.6524 39.8547C60.7683 39.5095 61.8734 39.1135 62.9491 38.6586C63.4735 38.4365 63.9846 38.185 64.4903 37.9227C64.8569 37.7354 65.2556 37.5347 65.4777 37.1735C65.4884 37.1574 65.4857 37.128 65.4697 37.1146C65.2128 36.9139 64.7981 37.0344 64.5144 37.1039C64.0007 37.2297 63.4922 37.3447 62.9758 37.4571C62.3122 37.6043 61.654 37.7595 60.9823 37.8719C60.6425 37.9281 60.3027 37.9789 59.9602 38.0244C60.3321 37.9013 60.704 37.7729 61.0706 37.6418C62.5771 37.1012 64.0676 36.5019 65.5205 35.8302C66.152 35.5386 66.7782 35.2308 67.3776 34.8803C67.7495 34.6636 68.1616 34.4254 68.4399 34.0909C68.6432 33.8474 68.5977 33.5825 68.2847 33.4541C67.9662 33.323 67.5943 33.3337 67.2571 33.3524C66.829 33.3765 66.4036 33.4434 65.9808 33.521C65.178 33.6655 64.378 33.8528 63.5725 34.008C65.3332 33.4113 67.0698 32.753 68.7476 31.9476C69.2239 31.7202 69.6922 31.4793 70.1524 31.2251C70.42 31.078 70.7223 30.9174 70.9177 30.6712C71.0648 30.4866 70.9739 30.3207 70.7785 30.2297C70.7759 30.227 70.7732 30.227 70.7705 30.227C71.9987 30.1762 73.0209 30.2886 72.7506 30.8478H72.748Z" fill="#3A454F"/>
</g>
<g style="mix-blend-mode:multiply">
<path d="M70.7918 16.591C71.0006 16.3207 71.2895 15.9622 71.2708 15.5956C71.2574 15.3039 70.923 15.2745 70.7009 15.2879C70.2192 15.3146 69.7242 15.5046 69.2666 15.6973C70.9551 14.9106 72.7532 14.1774 73.2483 14.3513C74.249 14.6965 70.3557 18.1671 68.1588 19.7485C71.2414 18.052 73.1573 17.3322 73.9012 17.5891C74.8671 17.9209 70.3691 20.669 69.0258 21.4128C69.3335 21.1747 69.6412 20.9365 69.949 20.6984C70.5617 20.2221 71.2093 19.7511 71.7337 19.1758C71.8354 19.0635 72.0361 18.8601 71.9799 18.6888C71.9291 18.5336 71.6909 18.5577 71.5678 18.5738C70.8347 18.6755 70.1175 19.034 69.4459 19.3337C68.9883 19.5371 68.5334 19.7485 68.0839 19.9706C67.5594 20.2301 67.035 20.4897 66.5159 20.7626C66.3553 20.8482 66.2001 20.9473 66.0476 21.0489C66.7567 20.4843 67.4497 19.901 68.1107 19.2802C69.0311 18.4213 70.0185 17.5971 70.7865 16.5937L70.7918 16.591Z" fill="#3A454F"/>
</g>
<g style="mix-blend-mode:multiply">
<path d="M65.1247 10.0406C66.0746 8.94346 66.88 8.11663 67.1208 8.14339C67.8005 8.21832 65.9568 12.1946 62.679 15.5849C63.2543 14.8918 63.6717 14.0382 64.1239 13.2837C64.4825 12.6843 64.8036 12.0662 65.0845 11.424C65.2906 10.9557 65.6465 10.3911 65.5796 9.86127C65.5742 9.83451 65.5501 9.80241 65.518 9.81579C65.3762 9.87198 65.2478 9.94957 65.1273 10.0379L65.1247 10.0406Z" fill="#3A454F"/>
</g>
<g style="mix-blend-mode:multiply">
<path d="M62.8072 6.48438C63.8187 4.56581 64.3325 4.31161 64.4234 5.63882C64.5117 6.9366 62.4567 11.82 61.488 14.0436C61.9028 12.8422 62.165 11.5952 62.4727 10.3617C62.6627 9.6044 62.8554 8.84714 63.0454 8.08988C63.1578 7.64837 63.3344 7.17474 63.3397 6.7145C63.3424 6.43621 63.1578 6.2382 62.8982 6.41481C62.8661 6.43622 62.8367 6.4603 62.8072 6.48706V6.48438Z" fill="#3A454F"/>
</g>
<g style="mix-blend-mode:multiply">
<path d="M58.13 6.65565C58.6973 4.96988 59.0826 4.45345 59.2967 5.13846C59.5857 6.0643 59.0237 11.2608 58.1006 15.0069C58.1728 14.6082 58.2317 14.2042 58.2825 13.8028C58.4565 12.4167 58.5662 11.0119 58.6572 9.62048C58.7027 8.90068 58.716 8.17285 58.6197 7.45573C58.5983 7.28715 58.5555 6.39342 58.1755 6.62622C58.1594 6.63692 58.1461 6.64495 58.1327 6.65565H58.13Z" fill="#3A454F"/>
</g>
<path d="M56.9578 18.5604C56.4789 19.6361 55.9598 20.6904 55.3952 21.7233C54.1991 23.9094 52.9254 26.0314 51.5794 28.1265C49.1391 31.9262 46.6746 35.8758 43.1024 38.7255C43.0275 38.7871 43.0489 38.672 43.089 38.6345C46.5248 35.5386 48.9036 31.6934 51.4269 27.867C52.6417 26.0287 53.7388 24.1262 54.8145 22.2076C55.4272 21.1159 56.0159 20.0108 56.5538 18.8789C56.9043 18.1403 57.3324 17.3617 57.6081 16.567C57.6134 16.5562 57.6214 16.5429 57.6268 16.5322C57.584 16.8533 57.5171 17.169 57.4341 17.4794C57.2843 17.8487 57.1157 18.2099 56.9605 18.5604H56.9578Z" fill="#BFBEB1"/>
<path d="M60.9607 37.9843C61.1881 37.8505 61.4263 37.7354 61.6671 37.6338C62.4404 37.4224 63.2244 37.219 63.9844 36.9675C64.3135 36.8899 64.6399 36.8096 64.9637 36.7186C64.4954 36.9675 63.9871 37.1387 63.4867 37.302C62.6598 37.5722 61.8357 37.8318 60.9821 37.9896C60.9741 37.9896 60.966 37.987 60.958 37.987L60.9607 37.9843Z" fill="#596875"/>
<path d="M61.6458 39.4238C62.0043 39.3248 62.3655 39.2232 62.7241 39.1161C63.1041 39.0011 63.4733 38.8726 63.848 38.7576C63.7597 38.8405 63.6606 38.9154 63.559 38.977C63.4145 39.0385 63.27 39.092 63.1415 39.1295C62.8632 39.2124 62.5796 39.2981 62.2906 39.373C62.0792 39.3998 61.8625 39.4131 61.6458 39.4265V39.4238Z" fill="#596875"/>
<g style="mix-blend-mode:screen">
<g style="mix-blend-mode:screen">
<path d="M61.9026 17.3563C61.7099 17.7176 61.4905 18.0467 61.255 18.3705C61.4718 18.0066 61.6671 17.6346 61.8196 17.2493C61.8357 17.2118 61.8517 17.1717 61.8651 17.1342C61.924 16.9737 61.9748 16.8131 62.0176 16.6499C62.0819 16.393 61.9668 15.9997 61.6243 16.1683C61.2497 16.3502 60.9045 16.7489 60.6423 17.1503C60.5834 17.2145 60.5245 17.2787 60.4737 17.3483C60.3426 17.64 60.1927 17.9236 60.0429 18.1912C59.8502 18.539 59.6495 18.8762 59.4381 19.208C59.2883 19.3311 59.1518 19.4756 59.0234 19.6281C59.4676 18.9565 59.8797 18.2661 60.2061 17.5169C60.372 17.1396 60.5379 16.7543 60.6155 16.3475C60.3666 15.9221 60.1472 15.8445 59.9573 16.1174C59.893 16.179 59.8288 16.2405 59.7646 16.3021C59.3793 16.7088 59.0421 17.1503 58.6943 17.5864C58.6702 17.6186 58.6247 17.6132 58.6541 17.5704C59.1144 16.9148 59.5746 16.1923 60.2061 15.6839C60.364 15.5582 60.8965 15.1809 60.8965 15.6545C60.8965 16.0693 60.8001 16.484 60.6556 16.8827C61.1079 16.3128 62.1327 15.5608 62.2611 15.9595C62.4083 16.4198 62.1113 16.963 61.8999 17.359L61.9026 17.3563Z" fill="#3A454F"/>
</g>
<g style="mix-blend-mode:screen">
<path d="M66.4007 17.4847C66.3097 18.2902 65.9458 19.1224 65.4535 19.901C65.5899 19.8234 65.7103 19.7779 65.7692 19.7967C66.2295 19.9545 65.903 20.5834 65.7612 20.8938C65.4695 21.5306 64.9825 22.0631 64.5036 22.5635C64.3269 22.7481 64.153 22.9327 63.9737 23.1147C63.8373 23.2164 63.7008 23.3181 63.5643 23.4171C63.9256 23.0451 64.2654 22.6518 64.5865 22.2397C64.5945 22.229 64.6079 22.2156 64.6186 22.2049C64.8354 21.9694 65.0815 21.6778 65.2876 21.37C65.5953 20.9499 65.8468 20.4763 65.6354 20.1579C65.5953 20.099 65.515 20.0669 65.4481 20.1097C65.3759 20.1552 65.309 20.2088 65.2448 20.2623C65.2341 20.2649 65.2207 20.2649 65.2073 20.2676C65.1912 20.289 65.1752 20.3131 65.1591 20.3345C64.921 20.5512 64.7256 20.8081 64.5143 21.057C64.252 21.3727 63.9523 21.6831 63.6259 21.9587C64.1343 21.3968 64.6079 20.8028 65.012 20.1579C65.3759 19.5746 66.1599 18.4534 66.0609 17.7282C65.9967 17.26 64.0567 19.0153 63.9149 19.1652C63.7945 19.2909 63.666 19.4542 63.5322 19.6067C63.6446 19.3953 63.7597 19.1839 63.8801 18.9725C63.9309 18.911 63.9818 18.8521 64.0353 18.7932C64.3912 18.4106 64.7738 18.0386 65.1859 17.7176C65.3304 17.6052 66.4783 16.7569 66.398 17.4794L66.4007 17.4847Z" fill="#3A454F"/>
</g>
<g style="mix-blend-mode:screen">
<path d="M65.9189 25.424C66.1196 25.3142 66.331 25.2179 66.5531 25.143C67.2863 24.8968 67.2622 25.4373 67.0027 25.9859C66.3685 27.3265 65.0306 28.5574 63.7007 29.3655C63.8907 29.2771 64.0806 29.1888 64.2679 29.0979C64.7897 28.841 65.3356 28.6269 65.8815 28.4289C66.1357 28.3379 67.1739 27.9178 66.7538 28.6055C66.1758 29.5501 64.9556 30.2966 63.9923 30.9067C64.5543 30.6391 65.1349 30.3368 65.7423 30.2244C66.5879 30.0692 65.2874 31.6533 65.167 31.7603C64.0405 32.7638 62.7507 33.5451 61.4048 34.2167C60.9312 34.4549 60.4362 34.6904 59.9304 34.8937C60.0749 34.8616 60.2167 34.8295 60.3586 34.7894C60.5405 34.7358 61.2041 34.4549 61.3861 34.6315C61.6804 34.9178 60.9606 35.4824 60.7787 35.6296C59.8207 36.3895 58.7022 36.9381 57.5837 37.4197C57.4928 37.4572 57.4018 37.4973 57.3108 37.5374C57.8299 37.3715 58.2821 37.2779 58.2794 37.5374C58.2768 38.3161 56.7783 39.0332 56.2378 39.3463C54.5386 40.3364 52.612 41.0749 50.6346 41.3799C49.6847 41.5084 48.7026 41.5218 47.7634 41.3425C48.8471 41.3559 49.9121 41.2809 50.9744 41.0187C52.1117 40.7377 53.2997 40.4996 54.3754 40.026C55.3922 39.5764 56.492 39.052 57.3723 38.3643C57.3884 38.3509 58.456 37.5374 57.7416 37.6686C57.4954 37.7141 57.2519 37.7702 57.0057 37.8264C56.7034 37.8933 56.3903 37.9495 56.0853 38.0218C55.633 38.1716 55.1701 38.284 54.7072 38.3081C55.4912 38.0592 56.2565 37.7649 56.995 37.409C57.8031 37.0879 58.5872 36.7106 59.3444 36.3066C59.7886 36.0684 60.2167 35.8142 60.6181 35.5092C60.8589 35.3673 60.9927 35.1426 61.0168 34.8295C60.8482 34.8429 60.6823 34.8723 60.5191 34.9098C60.0375 35.0329 59.5665 35.1238 59.0875 35.1934C58.7504 35.2951 58.4079 35.37 58.0627 35.4182C58.3758 35.2657 58.6862 35.1105 58.9939 34.9499C60.7412 34.404 62.4537 33.5745 63.904 32.5069C64.4124 32.1323 64.9877 31.747 65.3838 31.2519C65.4774 31.177 65.5309 31.0967 65.5443 31.0111C65.6032 30.9014 65.6433 30.7863 65.6647 30.6579C65.6754 30.5776 65.6299 30.4759 65.5336 30.4839C64.8834 30.5482 64.2412 30.9817 63.6284 31.2787C63.4331 31.3563 63.2377 31.4339 63.0424 31.5142C63.0317 31.5195 63.0237 31.5249 63.013 31.5329C62.6303 31.6774 62.245 31.8245 61.8704 31.9931C61.865 31.9958 61.8624 31.9958 61.857 31.9985C62.4136 31.6774 62.9541 31.3322 63.4866 30.9736C64.4579 30.3234 65.5069 29.6571 66.3096 28.8009C66.7244 28.3567 65.844 28.7259 65.7263 28.7714C65.2125 28.9614 64.6988 29.1407 64.1957 29.3628C63.7087 29.5768 63.2137 29.7668 62.7133 29.9515C62.6946 29.9595 62.6758 29.9648 62.6571 29.9729C62.6731 29.9595 62.6865 29.9461 62.7026 29.9327C62.9086 29.7668 63.112 29.5983 63.3073 29.4216C64.3884 28.6751 65.5176 27.8001 66.2882 26.7512C66.2962 26.7405 67.2087 25.2179 66.6521 25.3865C66.4835 25.44 66.3123 25.5016 66.1437 25.5684C65.8413 25.547 65.4105 25.8334 65.2179 25.935C65.0921 26.0019 64.9663 26.0742 64.8433 26.1464C65.0734 25.9698 65.3062 25.7986 65.5497 25.6407C66.1169 25.0707 66.6494 24.4607 67.1177 23.8666C67.3639 23.5509 67.6181 23.2298 67.8134 22.8792C67.8161 22.8712 67.8214 22.8659 67.8241 22.8605C67.8429 22.8364 67.8616 22.815 67.8803 22.7909C68.0248 22.601 68.4931 21.9347 68.1078 21.726C67.7331 21.5226 67.3023 21.8678 67.0027 22.0658C66.8822 22.1461 66.7672 22.229 66.6521 22.32C67.115 21.8812 67.6288 21.4744 68.1372 21.3861C68.9507 21.2443 68.3566 22.3896 68.1773 22.708C67.5967 23.7409 66.7645 24.6132 65.9136 25.4293L65.9189 25.424Z" fill="#3A454F"/>
</g>
</g>
<path d="M65.0281 48.0053C64.8996 48.0588 64.7712 48.115 64.6454 48.1712C64.1637 48.3825 63.6741 48.5752 63.1951 48.7866C62.1676 49.2415 61.1588 49.7445 60.0992 50.1218C59.746 50.2476 59.3901 50.36 59.0288 50.459C58.0441 50.6864 57.046 50.8523 56.0426 50.9513C55.8259 51.0263 55.6038 51.0182 55.3683 51.0503C55.0579 51.0878 54.7502 51.1306 54.4398 51.1788C53.7976 51.2805 53.1741 51.1895 52.5292 51.1895C51.2154 51.1895 49.8481 51.053 48.577 50.7052C47.9777 50.5419 47.4131 50.3546 46.8645 50.1272C46.5488 49.9666 46.2357 49.7954 45.9307 49.6107C45.2002 49.1719 44.4964 48.6876 43.889 48.0855C43.592 47.7885 43.1558 47.0955 43.1826 47.0901C43.6348 47.0874 46.605 47.24 46.9555 47.2212C46.7628 47.1811 46.5675 47.1356 46.3775 47.0901C46.0564 47.0125 45.2269 46.4292 45.2831 46.4211C45.9199 46.3409 46.5354 46.2981 47.1642 46.282C46.9154 46.2365 46.6424 46.2258 46.4605 46.2124C46.2946 46.1991 45.7674 46.0225 45.7915 45.9903C45.9414 45.9341 46.1046 45.902 46.1848 45.8833C46.6397 45.7683 47.1053 45.704 47.5709 45.6478C47.8439 45.6157 48.1168 45.589 48.3897 45.5649C49.1978 45.5622 50.0086 45.6131 50.7873 45.6077C51.2234 45.6023 51.6623 45.6024 52.0984 45.6104C51.8255 45.5114 51.5419 45.4391 51.2796 45.3241C51.3679 45.3214 51.4536 45.316 51.5392 45.3134C52.2135 45.2732 52.8905 45.1956 53.5621 45.1127C55.098 44.9227 56.6179 44.6952 58.1699 44.7274C59.7085 44.7595 61.2337 45.0083 62.7215 45.3963C63.452 45.5863 64.1771 45.8057 64.8889 46.0572C65.59 46.3061 66.2803 46.6031 67.0001 46.7904C67.0617 46.8065 67.1259 46.8199 67.1901 46.8332C66.3954 47.2962 65.4 47.363 64.5678 47.7591C64.5598 47.7617 64.5544 47.7698 64.5491 47.7751C64.1156 47.8608 63.6875 47.9544 63.2647 48.0802H63.262C63.4252 48.0748 64.616 47.9276 65.0281 48.0106V48.0053Z" fill="#FFF5ED"/>
<g style="mix-blend-mode:screen" opacity="0.5">
<g style="mix-blend-mode:screen" opacity="0.5">
<path d="M37.2502 23.3475C36.8809 22.5421 36.426 21.7768 36.0674 20.966C35.7169 20.1686 35.3717 19.3712 35.0132 18.5765C34.8446 18.1992 34.7429 17.8005 34.5877 17.4232C34.4218 17.0218 34.2372 16.6258 34.1034 16.211C33.8037 15.2986 33.5067 14.3781 33.3087 13.4362C32.9287 11.6407 33.0464 9.85059 33.1428 8.03638C33.2364 6.32117 33.3354 4.52837 33.7555 2.85597C33.7609 2.83724 33.6405 6.19273 33.5682 7.86245C33.5334 8.70266 33.4933 9.5509 33.4906 10.3938C33.4853 11.4106 33.6137 12.3686 33.8385 13.3586C34.2399 15.1273 34.9168 16.7944 35.5269 18.4962C35.8239 19.3284 37.2876 23.4278 37.2528 23.3475H37.2502Z" fill="#FFF5ED"/>
</g>
<g style="mix-blend-mode:screen" opacity="0.5">
<path d="M35.8641 3.04331C35.749 3.55439 35.725 4.08956 35.6313 4.60332C35.5403 5.09835 35.4306 5.5907 35.3182 6.08306C35.0774 7.14001 34.6199 9.43855 34.6306 9.36363C34.8687 7.2631 35.0854 5.07695 35.8026 3.07542C35.8106 3.05402 35.8802 2.98979 35.8695 3.04331H35.8641Z" fill="#FFF5ED"/>
</g>
<g style="mix-blend-mode:screen" opacity="0.5">
<path d="M36.1931 10.4714C36.3483 9.77036 36.5972 9.09873 36.8139 8.41104C37.0735 7.59759 37.3705 6.843 37.7504 6.07504C37.7504 6.07236 37.7558 6.06701 37.7558 6.06433C37.7504 6.14193 37.7424 6.21686 37.7317 6.29178C37.5498 6.82694 37.3785 7.36479 37.2072 7.89995C37.0949 8.17021 36.9852 8.4378 36.8969 8.7027C36.7417 9.17633 36.5865 9.64727 36.3724 10.0968C36.3135 10.2199 36.252 10.343 36.1904 10.4687L36.1931 10.4714Z" fill="#FFF5ED"/>
</g>
<g style="mix-blend-mode:screen" opacity="0.5">
<path d="M39.8459 7.53332C39.7575 7.74471 39.688 7.9668 39.6077 8.18087C39.4231 8.67322 39.2037 9.14952 38.9655 9.61779C38.7568 10.0272 38.5508 10.45 38.2939 10.8299C38.2671 10.8701 38.2377 10.9102 38.2056 10.953C38.6792 9.67399 39.3401 8.47521 39.9582 7.26306C39.9235 7.35404 39.886 7.44234 39.8459 7.53332Z" fill="#FFF5ED"/>
</g>
<g style="mix-blend-mode:screen" opacity="0.5">
<path d="M39.9877 11.8548C40.1777 11.3812 40.5443 10.9638 40.8279 10.5437C41.0527 10.2146 41.3069 9.8988 41.5852 9.61249C41.4968 9.83458 41.339 10.046 41.2266 10.2467C41.2212 10.2547 41.2159 10.2627 41.2105 10.2734C40.9456 10.6882 40.6834 11.1029 40.3944 11.5016C40.3409 11.5685 40.2874 11.6354 40.2312 11.6996C40.1964 11.7398 40.1242 11.8361 40.0439 11.9217C39.9957 11.9431 39.9529 11.9351 39.985 11.8548H39.9877Z" fill="#FFF5ED"/>
</g>
<g style="mix-blend-mode:screen" opacity="0.5">
<path d="M41.7617 12.4194C42.0239 12.1304 42.3424 11.8869 42.6421 11.6434C42.9819 11.3678 43.319 11.0815 43.683 10.8353C43.3779 11.2581 42.9337 11.5899 42.5324 11.903C42.2835 12.101 42.0373 12.2696 41.759 12.4194H41.7617Z" fill="#FFF5ED"/>
</g>
<g style="mix-blend-mode:screen" opacity="0.5">
<path d="M45.2591 12.3632C44.9727 12.6147 44.6195 12.8047 44.2984 12.9893C44.0014 13.1579 43.691 13.3104 43.3806 13.4576C43.9372 13.0027 44.6142 12.6762 45.2591 12.3632Z" fill="#FFF5ED"/>
</g>
</g>
<g style="mix-blend-mode:screen">
<path d="M25.3213 44.92C24.5427 44.2109 23.9192 43.3119 23.7265 42.271C23.6329 41.7706 23.6115 41.1471 23.7372 40.5745C23.6115 40.735 23.4991 40.9036 23.3787 41.0749C23.3546 41.1123 23.095 41.3585 23.1084 41.1739C23.1593 40.4621 23.5365 39.6406 23.9138 39.0439C24.1386 38.6934 24.3928 38.3883 24.6711 38.1047C24.7862 38.0191 24.8985 37.9334 25.0109 37.8505C25.0698 37.8077 25.1287 37.7649 25.1875 37.722C24.7862 38.1341 24.4437 38.5703 24.1466 39.076C23.8898 39.5229 23.6329 40.0768 23.4937 40.6093C23.5927 40.4969 23.6944 40.3898 23.8095 40.2855C23.9192 39.9537 24.0878 39.6513 24.3313 39.4185C23.8817 41.3023 24.1814 43.3734 25.316 44.9173L25.3213 44.92Z" fill="white"/>
</g>
<g style="mix-blend-mode:multiply" opacity="0.5">
<path d="M27.3013 30.3261C26.817 30.5562 26.2818 30.7221 25.7573 30.8291C23.7371 31.2385 21.658 30.8933 23.3919 28.7152C23.7237 28.0088 24.1947 27.3051 24.7967 26.5986C25.0054 26.6709 25.1901 26.7886 25.3132 26.9866C25.4817 27.2515 25.4844 27.5967 25.4657 27.8991C25.4282 28.5199 25.2168 29.1273 25.2222 29.7534C25.2222 29.7855 25.2543 29.8043 25.2837 29.7989C25.9741 29.6732 26.4183 30.2511 27.0632 30.3154C27.1434 30.3234 27.221 30.3261 27.3013 30.3234V30.3261Z" fill="#FBAB18"/>
</g>
<path d="M28.7117 32.7397C28.5217 33.9278 23.9647 40.7404 16.4349 40.711C13.6521 40.8689 11.2331 40.4193 9.17809 39.3624C5.37306 37.409 1.75267 34.859 0 34.6957C0.232797 34.6395 0.468269 34.578 0.701066 34.5138C3.21367 33.9866 11.0619 32.448 16.5313 32.5283C20.9277 32.5925 24.1735 31.9343 26.274 30.5562C28.0266 31.2198 28.8401 31.9477 28.7117 32.7397Z" fill="#FEC346"/>
<g style="mix-blend-mode:multiply" opacity="0.5">
<path d="M28.7117 32.7396C28.5217 33.9277 23.9648 40.7404 16.435 40.7109C14.1445 40.8421 12.0199 40.5236 10.0585 39.7583C11.5061 40.0152 12.9832 40.1222 14.4495 40.0848C15.948 40.0473 17.3689 39.8306 18.7897 39.373C19.927 39.0064 20.5932 38.7522 21.3505 37.8077C22.2844 36.6437 24.3635 33.4701 15.255 34.5886C13.0661 34.8562 11.9102 34.8375 9.23969 34.8643C6.51569 34.8937 3.13612 35.1586 0.41748 34.5913C0.508459 34.5672 0.602104 34.5405 0.693083 34.5164C3.20301 33.9892 11.0512 32.4506 16.526 32.5309C20.9224 32.5951 24.1681 31.9369 26.2687 30.5588C28.0213 31.2224 28.8348 31.9503 28.7064 32.7423L28.7117 32.7396Z" fill="#FBAB18"/>
</g>
<g style="mix-blend-mode:multiply" opacity="0.5">
<path d="M28.7117 32.7397C28.5324 33.8635 24.4357 40.0313 17.6097 40.6575C18.7844 40.3417 19.9029 39.8708 20.8582 39.3517C22.5546 38.4312 23.8444 37.1709 25.1984 35.8329C25.969 35.073 27.2186 33.8876 26.3115 32.7664C26.0305 32.4186 25.5221 32.3972 25.1154 32.4293C24.1949 32.5015 23.253 32.8467 22.3566 33.0501C20.2133 33.5371 17.0478 33.9304 14.8536 34.0053C12.6701 34.0803 11.573 34.1311 9.31998 34.0696C7.13918 34.0107 4.9664 34.4228 2.78559 34.4977C2.14875 34.5191 1.33531 34.6315 0.623535 34.5325C0.647618 34.5245 0.671689 34.5191 0.695771 34.5111C3.20302 33.9866 11.0539 32.4453 16.5287 32.5229C20.9251 32.5872 24.1708 31.9289 26.2714 30.5508C28.024 31.2144 28.8375 31.9423 28.709 32.7343L28.7117 32.7397Z" fill="#DF9917"/>
</g>
<path d="M26.4854 30.7489C26.7423 32.1938 15.6644 33.9706 10.9281 33.8475C8.25231 33.7806 4.40983 34.3211 2.08988 34.57C1.03293 34.685 0.37735 34.6984 0.0161133 34.6904C1.21756 34.4041 2.38957 33.9759 3.56961 33.6254C5.10018 33.1705 6.64415 32.8548 8.21486 32.5845C11.3081 32.052 14.4014 31.656 17.5294 31.4446C19.1644 31.3349 20.8367 31.276 22.4396 30.9014C23.0951 30.7489 23.9166 30.4813 24.3689 29.9435C24.7221 29.9087 26.3195 29.8043 26.4881 30.7462L26.4854 30.7489Z" fill="#FBAB18"/>
<g style="mix-blend-mode:multiply" opacity="0.5">
<path d="M26.4853 30.7488C26.7422 32.1938 15.6643 33.9705 10.928 33.8474C8.2522 33.7805 4.40972 34.3211 2.08977 34.5699C1.23083 34.6636 0.642146 34.6876 0.25415 34.693C0.353156 34.6502 0.452166 34.602 0.551172 34.5565C1.56799 34.2809 2.56607 33.9277 3.57218 33.628C5.10275 33.1731 6.64672 32.8574 8.21743 32.5871C11.3107 32.0546 14.404 31.6586 17.532 31.4472C19.1669 31.3375 20.8393 31.2786 22.4421 30.904C23.0977 30.7515 23.9192 30.4839 24.3714 29.9461C24.7246 29.9113 26.3221 29.8069 26.4907 30.7488H26.4853Z" fill="#FBAB18"/>
</g>
<path opacity="0.5" d="M24.1548 30.1602C24.1441 30.1762 24.1387 30.1923 24.1307 30.211C23.9648 30.4625 23.6624 30.6766 23.4002 30.8398C21.7546 31.5114 18.8085 31.6961 16.4966 31.8379C16.0149 31.8673 15.5707 31.8968 15.1907 31.9262C12.927 32.1028 8.30048 32.7718 5.31693 33.5049C5.28482 33.5103 5.25537 33.5183 5.22594 33.5237C4.40446 33.6896 3.59102 33.8822 2.78292 34.1016C1.94004 34.3318 0.92321 34.6288 0.0134277 34.693C0.968699 34.4656 1.90256 34.1498 2.8391 33.8528C3.27794 33.7404 3.74889 33.6146 4.25195 33.4675C5.18849 33.1945 6.41134 32.9216 7.72249 32.6728C7.88572 32.6433 8.04895 32.6139 8.21218 32.5871C10.9228 32.1215 13.6361 31.7576 16.3735 31.5355C16.4082 31.5329 16.4404 31.5302 16.4751 31.5302C17.1013 31.4927 17.8264 31.4446 18.5757 31.383C19.8708 31.3001 21.1739 31.201 22.4369 30.904C22.9988 30.7729 23.6838 30.5589 24.1548 30.1602Z" fill="#A8592B"/>
<g style="mix-blend-mode:screen" opacity="0.6">
<path d="M6.74033 35.4155C8.30837 35.6108 10.9146 35.7339 12.2499 37.5133C13.1409 38.7014 13.949 39.3784 14.6822 39.5496C10.5721 40.0286 7.88023 38.1208 5.96969 37.0424C4.69332 36.3226 3.72734 35.849 3.06908 35.6189C1.87031 34.9606 5.46396 35.2576 6.74033 35.4155Z" fill="#FDB743"/>
</g>
<g style="mix-blend-mode:multiply" opacity="0.5">
<path d="M26.3973 30.5027C26.1859 30.409 25.8942 30.3929 25.6694 30.401C24.8025 30.4304 24.0505 30.8024 23.2424 31.0806C21.8724 31.5543 20.4623 31.9235 19.0387 32.1938C18.4902 32.2981 17.9389 32.3677 17.3877 32.4399C16.0257 32.539 14.6611 32.5711 13.2991 32.6353C11.7444 32.7129 10.2031 32.8922 8.65648 33.0607C7.12859 33.2266 5.60337 33.422 4.11561 33.8073C3.41989 33.9893 2.71882 34.1204 2.01507 34.2702C1.58694 34.3612 1.11333 34.5779 0.655762 34.6074C0.915317 34.4923 1.18021 34.388 1.4478 34.2943C2.07394 34.1017 2.70009 33.8929 3.32624 33.7003C3.48679 33.6548 3.64733 33.6066 3.81056 33.5611C4.53303 33.3604 5.25819 33.1785 5.98869 33.0126C6.72454 32.8547 7.46575 32.7129 8.2123 32.5871C11.3056 32.0546 14.3988 31.6586 17.5269 31.4472C19.1618 31.3375 20.8342 31.2786 22.437 30.904C23.0926 30.7515 23.9141 30.4839 24.3663 29.9461C24.6874 29.914 26.0173 29.8283 26.3973 30.5V30.5027Z" fill="#FBAB18"/>
</g>
<path d="M0.644654 25.3705C0.534945 25.3196 0.454669 25.2795 0.40918 25.2527C0.906884 24.5597 19.8063 26.3338 22.6774 26.5773C25.5486 26.8208 25.281 27.5459 25.1526 28.354C25.067 28.8918 25.0134 29.4538 24.9947 30.0398L24.9733 30.2512C24.7833 30.4759 24.5505 30.6311 24.2054 30.6873C23.5096 30.8051 22.7925 30.7569 22.1021 30.6338C20.5876 30.3662 19.1293 29.898 17.6763 29.4029C14.7436 28.3995 11.7654 27.4924 8.75243 26.7619C7.23256 26.3953 5.6993 26.1224 4.1607 25.8441C3.49709 25.7237 2.84419 25.6113 2.17256 25.5551C1.66148 25.5123 1.14237 25.4802 0.641992 25.3705H0.644654Z" fill="#FBAB18"/>
<g style="mix-blend-mode:multiply" opacity="0.5">
<path d="M1.38037 25.4855C1.75231 25.4695 2.12426 25.4534 2.4962 25.4882C3.56654 25.5845 4.63953 25.6675 5.71254 25.7691C7.93616 25.9779 10.1517 26.2883 12.3406 26.7351C12.354 26.7378 12.3647 26.7351 12.3754 26.7351C14.3796 27.2462 16.3115 27.958 18.2889 28.6403C19.3138 28.9935 20.4082 29.336 21.4866 29.4832C22.1528 29.5769 23.1429 29.5876 23.4212 28.8035C23.8734 27.5272 22.9208 26.8555 21.805 26.4997C22.1743 26.5318 22.4713 26.5585 22.6827 26.5773C25.5538 26.8208 25.2863 27.5459 25.1578 28.354C25.0722 28.8919 25.0187 29.4538 24.9999 30.0398L24.9785 30.2512C24.7885 30.4759 24.5557 30.6311 24.2106 30.6873C23.5148 30.8051 22.7977 30.7569 22.1074 30.6338C20.5928 30.3662 19.1345 29.898 17.6815 29.4029C14.7488 28.3995 11.7706 27.4924 8.75764 26.7619C7.23777 26.3953 5.70452 26.1224 4.16592 25.8441C3.50231 25.7237 2.84941 25.6113 2.17778 25.5551C1.91287 25.5337 1.64796 25.5149 1.38305 25.4855H1.38037Z" fill="#FBAB18"/>
</g>
<path opacity="0.5" d="M0.591119 25.3598C0.550981 25.341 0.508165 25.3223 0.470703 25.2982C0.888133 25.333 1.30556 25.3624 1.72567 25.3919C2.53377 25.5551 3.69239 25.7558 5.11058 25.9163C8.07005 26.2535 13.4726 27.6289 15.8942 28.4289C16.2581 28.5493 16.6782 28.6965 17.1384 28.8544C19.5654 29.7 23.5578 31.086 24.8315 30.3983C24.6682 30.5402 24.4702 30.6392 24.208 30.6846C23.5123 30.8024 22.7951 30.7542 22.1048 30.6311C21.4974 30.5241 20.9007 30.385 20.3093 30.2244C19.1962 29.898 18.0509 29.4993 17.0394 29.146C16.5819 28.9882 16.1618 28.841 15.8005 28.7206C15.0379 28.4691 13.981 28.1587 12.7983 27.8429C11.4603 27.4522 10.1144 27.0857 8.76042 26.7592C7.24055 26.3926 5.70731 26.1197 4.1687 25.8414C3.5051 25.721 2.8522 25.6086 2.18056 25.5524C1.65342 25.5096 1.11289 25.4748 0.596459 25.3571L0.591119 25.3598Z" fill="#A8592B"/>
<g style="mix-blend-mode:screen" opacity="0.6">
<path d="M22.9424 28.2871C22.4072 29.4109 15.8648 27.0535 12.7876 26.4622C8.20388 25.5818 4.25972 25.5979 3.41415 25.4587C2.57127 25.3196 7.40916 25.2019 11.6637 25.7932C14.5001 26.1866 17.7031 26.4916 21.2673 26.7084C21.7329 26.7726 23.4294 27.2703 22.9424 28.2898V28.2871Z" fill="#FDB743"/>
</g>
<g style="mix-blend-mode:multiply" opacity="0.5">
<path d="M3.13305 25.6702C3.64681 25.7156 4.15789 25.7692 4.6663 25.8334C6.24504 26.0314 7.81307 26.3204 9.36773 26.6522C12.4637 27.3131 15.5088 28.1854 18.5646 29.0042C19.7152 29.312 20.8631 29.708 22.0405 29.898C22.5328 29.9782 23.0385 30.0425 23.5255 29.9006C23.9349 29.7802 24.1999 29.4859 24.4032 29.1273C24.6307 28.7286 24.7966 28.2737 24.8501 27.8162C24.8956 27.4309 24.7377 27.2543 24.4005 27.0991C23.852 26.8449 23.2821 26.6656 22.6987 26.5773C25.5458 26.8208 25.2809 27.5459 25.1525 28.3513C25.0668 28.8892 25.0133 29.4511 24.9946 30.0371L24.9732 30.2485C24.7832 30.4733 24.5504 30.6285 24.2052 30.6847C23.5095 30.8024 22.7924 30.7542 22.102 30.6312C20.5875 30.3636 19.1292 29.8953 17.6762 29.4003C14.7435 28.3968 11.7653 27.4897 8.75229 26.7592C7.23242 26.3926 5.69916 26.1197 4.16056 25.8414C3.81538 25.7772 3.47288 25.7183 3.13037 25.6675L3.13305 25.6702Z" fill="#FBAB18"/>
</g>
<g style="mix-blend-mode:screen" opacity="0.6">
<path d="M57.5359 10.656C57.172 11.8762 56.7973 13.1392 56.2434 14.2898C56.2301 14.3139 56.1391 14.3969 56.1525 14.3219C56.2729 13.7413 56.5324 13.1901 56.6743 12.6147C56.8348 11.9592 57.0489 11.3089 57.2415 10.6587C57.5921 9.4867 58.0496 8.30666 58.2717 7.09986C58.2771 7.07845 58.344 7.00888 58.3466 7.05437C58.3975 8.27723 57.8757 9.50276 57.5332 10.656H57.5359Z" fill="#FFF5ED"/>
</g>
<g style="mix-blend-mode:screen" opacity="0.6">
<path d="M62.1169 8.96222C61.7958 9.74089 61.4399 10.4955 61.092 11.2608C60.7709 11.9672 60.415 12.6629 60.0484 13.3479C59.7354 13.9366 58.9005 15.1273 58.938 15.0551C59.5989 13.7707 60.2465 12.4809 60.8566 11.1698C61.2151 10.3991 61.5683 9.62583 61.9189 8.84984C62.1891 8.25313 62.5825 7.64839 62.7778 7.02492C62.7858 7.00084 62.3711 8.33876 62.1142 8.96222H62.1169Z" fill="#FFF5ED"/>
</g>
<g style="mix-blend-mode:screen" opacity="0.6">
<path d="M65.2902 10.0807C62.8766 13.0054 61.4771 14.7474 61.0945 15.3066C62.6117 14.0437 64.0111 12.3017 65.2902 10.0807Z" fill="#FFF5ED"/>
</g>
<g style="mix-blend-mode:screen" opacity="0.6">
<path d="M62.5796 15.9783C64.945 14.445 66.7352 13.2757 67.95 12.4783C65.9511 14.2845 64.161 15.4511 62.5796 15.9783Z" fill="#FFF5ED"/>
</g>
<g style="mix-blend-mode:screen" opacity="0.6">
<path d="M65.1941 22.1166C66.7113 20.8697 68.5656 19.8635 70.7571 19.0956C68.9188 20.2301 67.0645 21.2362 65.1941 22.1166Z" fill="#FFF5ED"/>
</g>
<g style="mix-blend-mode:screen" opacity="0.6">
<path d="M68.5601 21.9855C69.7722 21.2978 71.1931 20.8161 72.8253 20.5378C71.3991 21.1105 69.9782 21.5948 68.5601 21.9855Z" fill="#FFF5ED"/>
</g>
<g style="mix-blend-mode:screen" opacity="0.6">
<path d="M66.5239 17.2867C67.6665 16.6231 68.9803 15.9863 70.4681 15.3788C68.9536 16.4358 67.6397 17.07 66.5239 17.2867Z" fill="#FFF5ED"/>
</g>
<g style="mix-blend-mode:screen" opacity="0.6">
<path d="M8.47974 25.4667C9.21291 25.5336 9.96215 25.6192 10.6927 25.7236C13.5264 26.1357 16.7266 26.4595 20.2909 26.6949C20.4032 26.711 18.9743 26.9759 18.0619 26.9411C16.5072 26.8769 14.9526 26.6039 13.4247 26.3203C11.9128 26.0393 10.4037 25.753 8.88379 25.5229C8.75 25.5015 8.61353 25.4828 8.47974 25.4641V25.4667Z" fill="#FFE681"/>
</g>
<g style="mix-blend-mode:screen" opacity="0.6">
<path d="M4.31592 33.9064C7.48143 33.315 10.7486 32.9564 14.1228 32.828C17.1117 32.6674 19.4772 32.349 21.2191 31.8674C19.2845 32.4266 16.9993 32.8119 14.361 33.018C10.4061 33.3284 6.5208 33.5933 4.31592 33.9037V33.9064Z" fill="#FFE681"/>
</g>
</svg>
