<svg width="75" height="80" viewBox="0 0 75 80" fill="none" xmlns="http://www.w3.org/2000/svg">
<path d="M34.7676 44.6637L36.2434 44.6437C37.5713 49.0152 38.2232 55.3586 38.2072 63.6737C38.1832 76.1484 36.3834 79.46 28.9042 79.968C21.425 80.4759 13.0259 73.9886 14.8537 67.6013C16.0736 63.3457 22.7129 55.6985 34.7716 44.6677L34.7676 44.6637Z" fill="#372009"/>
<path d="M34.7676 44.6637L36.2434 44.6437C37.5713 49.0152 38.2232 55.3586 38.2072 63.6737C38.1832 76.1484 36.3834 79.46 28.9042 79.968C21.425 80.4759 13.0259 73.9886 14.8537 67.6013C16.0736 63.3457 22.7129 55.6985 34.7716 44.6677L34.7676 44.6637Z" fill="#372009"/>
<g style="mix-blend-mode:multiply" opacity="0.5">
<path d="M14.8498 67.6013C16.0697 63.3457 22.709 55.6985 34.7677 44.6677L36.2435 44.6477C36.5755 45.7396 36.9035 47.3474 37.2314 49.4792C36.8115 49.2192 36.3115 49.0913 35.7796 49.2112C34.4557 49.5112 33.3559 50.5511 32.292 51.343C30.8721 52.4029 29.5203 53.5508 28.0964 54.6107C26.7525 55.6106 25.3647 56.5464 24.0288 57.5623C21.7091 59.3182 19.5573 61.3739 18.0575 63.8937C16.7776 66.0454 15.8577 68.9092 16.7376 71.3809C17.6735 74.0246 20.3572 75.9724 22.825 77.0963C25.4447 78.2882 28.5564 79.0481 31.4241 78.4082C34.3717 77.7522 36.4035 75.4525 37.5754 72.7088C36.5555 77.9082 34.0998 79.62 28.9003 79.972C21.4211 80.4799 13.022 73.9926 14.8498 67.6053V67.6013Z" fill="#51311A"/>
</g>
<path d="M24.1449 64.1416C22.933 60.37 26.4006 57.0904 28.8164 54.7266C29.7043 53.8547 30.5922 52.9748 31.4201 52.0429C31.7001 51.7269 32.608 51.155 33.0479 51.259C34.0238 51.491 30.3002 59.5061 29.3603 61.2179C28.5684 62.6618 27.3405 64.7055 25.5367 64.9895C24.7328 65.1095 24.3288 64.7176 24.1449 64.1456V64.1416Z" fill="#F49E2B"/>
<path d="M23.989 67.3973C23.765 68.3332 23.0531 69.4251 22.6371 69.841C22.2611 70.213 21.4132 70.341 20.9293 70.113C20.3253 69.825 19.7614 69.2371 19.8054 68.5252C19.8494 67.8252 20.4893 67.2053 20.9773 66.7573C21.5252 66.2494 22.2771 65.7854 23.0531 65.8494C24.0209 65.9334 24.1769 66.6094 23.989 67.3973Z" fill="#F49E2B"/>
<path d="M16.6297 67.5773C16.6537 67.5573 16.6817 67.5333 16.7096 67.5173C17.5976 67.0173 18.1655 69.4371 17.8375 69.993C17.5816 70.421 17.0856 70.521 16.7576 70.101C16.3057 69.5171 15.9977 68.1412 16.6297 67.5733V67.5773Z" fill="#F49E2B"/>
<path d="M17.4496 73.5967C17.8935 73.3207 18.2575 74.0926 17.9655 74.4006C17.5616 74.8365 16.9336 73.9526 17.4256 73.6126C17.4336 73.6047 17.4376 73.6007 17.4496 73.5967Z" fill="#F49E2B"/>
<path d="M18.3535 65.9815C18.3175 65.7615 18.3095 65.5215 18.3015 65.3055C18.2015 62.9338 20.0373 61.4219 21.8611 60.2661C22.2691 60.0101 23.377 58.9702 23.569 59.9421C23.7409 60.806 23.197 62.1059 22.909 62.9298C22.5811 63.8697 22.0451 64.6896 21.2652 65.3135C20.6613 65.7975 19.9493 66.4414 19.1774 66.6134C18.6175 66.7374 18.4255 66.4014 18.3535 65.9815Z" fill="#F49E2B"/>
<path d="M31.3562 73.6686C31.1842 72.9767 31.3561 72.1608 31.4641 71.4968C31.6401 70.4689 31.9601 69.461 32.1921 68.4412C32.38 67.6012 32.54 66.7573 32.712 65.9174C32.872 65.0975 33.044 64.2816 33.224 63.4697C33.7919 60.9459 34.3838 58.4262 34.9518 55.8985C35.2037 54.7586 35.4677 53.6227 35.7477 52.4908C35.8597 52.0429 35.9397 51.4829 36.0677 50.943C36.0917 50.899 36.1196 50.855 36.1476 50.811C36.3796 50.4871 36.7396 50.4111 36.9316 50.791C37.8395 54.6666 37.2235 67.8732 36.8276 70.405C36.5836 71.9728 36.2116 74.4045 34.3518 74.8445C33.5359 75.0365 32.388 75.1005 31.7641 74.4445C31.5521 74.2245 31.4241 73.9606 31.3562 73.6766V73.6686Z" fill="#F49E2B"/>
<path d="M33.6837 52.7908C33.8197 52.4948 34.3077 50.839 34.7996 50.919C36.1155 51.127 30.3121 72.4487 29.6202 73.3007C29.0322 74.0286 27.8683 74.2845 27.2724 73.3726C26.2285 71.7608 32.9358 54.4426 33.6837 52.7908Z" fill="#F49E2B"/>
<path d="M21.3771 74.6246C21.3891 74.6246 21.3971 74.6165 21.4051 74.6125C21.4931 74.6245 21.577 74.6686 21.649 74.7566C21.757 74.8925 21.785 75.1205 21.641 75.2485C21.1971 75.6445 20.8251 74.7486 21.3731 74.6286L21.3771 74.6246Z" fill="#F49E2B"/>
<path d="M32.5039 76.2963C32.5919 76.3323 32.6839 76.3883 32.7679 76.4883C33.6518 77.4882 31.436 78.0241 31.536 77.0602C31.572 76.7043 32.092 76.1444 32.5039 76.2963Z" fill="#F49E2B"/>
<path d="M24.5048 76.5123C24.9888 76.5123 25.0568 77.1483 24.6968 77.3642C23.9889 77.7882 23.6729 76.5203 24.5048 76.5123Z" fill="#F49E2B"/>
<path d="M29.2324 76.9842C30.2443 77.9121 28.7805 79.308 27.8526 78.3761C27.3046 77.8242 27.7846 76.6843 28.5605 76.6803C28.7885 76.6803 29.0364 76.8043 29.2324 76.9842Z" fill="#F49E2B"/>
<path d="M27.1126 74.9805C28.1245 75.9044 26.6606 77.3042 25.7327 76.3723C25.1848 75.8204 25.6647 74.6805 26.4406 74.6765C26.6646 74.6765 26.9166 74.8005 27.1126 74.9805Z" fill="white"/>
<path d="M35.4036 75.8964C36.1955 76.6203 35.0476 77.7122 34.3237 76.9843C33.8957 76.5523 34.2717 75.6644 34.8796 75.6564C35.0556 75.6564 35.2516 75.7564 35.4036 75.8964Z" fill="white"/>
<path d="M19.9814 71.3369C20.5893 71.8928 19.7094 72.7327 19.1534 72.1728C18.8255 71.8448 19.1135 71.1569 19.5774 71.1569C19.7134 71.1569 19.8614 71.2289 19.9814 71.3369Z" fill="white"/>
<path d="M16.6537 70.6769C17.2617 71.2329 16.3818 72.0728 15.8258 71.5128C15.4978 71.1809 15.7858 70.4969 16.2498 70.4929C16.3858 70.4889 16.5337 70.5649 16.6537 70.6729V70.6769Z" fill="white"/>
<path d="M17.6296 65.6055C18.0056 65.9454 17.4656 66.4614 17.1217 66.1174C16.9177 65.9134 17.0977 65.4935 17.3816 65.4935C17.4656 65.4935 17.5576 65.5375 17.6296 65.6055Z" fill="white"/>
<path d="M24.2247 72.5168C24.7007 72.9527 24.0087 73.6086 23.5768 73.1727C23.3208 72.9127 23.5408 72.3808 23.9088 72.3768C24.0127 72.3728 24.1327 72.4328 24.2247 72.5208V72.5168Z" fill="white"/>
<path d="M23.917 71.3449C23.885 71.2929 23.853 71.2409 23.825 71.1809C23.393 70.241 25.7728 66.6334 26.4847 65.8214C26.6487 65.6375 27.9845 64.0296 28.0765 65.2655C28.0765 65.2815 28.0765 65.2935 28.0765 65.3095C28.0725 65.4735 28.0605 65.6415 28.0405 65.8055C27.8885 67.0773 26.5247 70.9889 26.0047 71.5168C25.3888 72.1368 24.3689 72.0488 23.917 71.3449Z" fill="#F49E2B"/>
<path d="M14.846 61.7099C10.4904 61.9019 10.8144 52.7869 9.57852 48.7113C8.33865 44.6397 0.607468 33.8688 0.0355278 28.8694C-0.344432 25.5377 2.32329 24.2779 8.03869 25.0898C17.6057 26.8096 26.9367 33.1489 36.0317 44.0998C38.3995 47.6434 19.1895 61.5139 14.842 61.7059L14.846 61.7099Z" fill="#51311A"/>
<path d="M19.3174 32.577C20.5773 32.249 21.6212 33.0969 22.5891 33.7569C23.8569 34.6128 29.5563 39.1683 30.1443 39.7362C31.4001 40.9521 32.96 42.14 33.9599 43.5718C34.1958 43.9118 34.6438 44.4478 34.5958 44.8837C34.5558 45.2077 33.5719 44.8757 33.4159 44.8357C32.66 44.6197 31.9081 44.3717 31.1802 44.0638C28.3685 42.8879 21.2692 38.4124 20.2533 37.8644C19.3494 37.3725 18.3015 36.8085 17.7896 35.8726C17.1616 34.7288 18.0456 32.905 19.3174 32.573V32.577Z" fill="#EB6E2A"/>
<path d="M19.5895 42.356C18.6576 42.336 17.7257 42.288 16.8058 42.152C15.7579 41.992 14.29 41.72 13.8261 40.6121C13.5701 39.9962 13.6461 39.0883 13.8581 38.4684C14.334 37.0205 15.3659 36.2526 16.8738 36.7485C17.8617 37.0725 18.6656 37.7124 19.5535 38.2284C20.9173 39.0123 24.625 41.568 24.577 42.044C24.481 42.9719 20.3894 42.376 19.5895 42.36V42.356Z" fill="#EB6E2A"/>
<path d="M13.818 48.6153C13.3821 47.7354 13.2181 46.5915 13.1741 45.8396C13.1301 45.1236 13.1861 44.1837 13.7541 43.6398C14.646 42.7919 19.5614 43.2678 20.7973 43.3358C22.7371 43.4358 24.6809 43.4918 26.6047 43.8118C27.2126 43.9158 29.4164 43.9598 29.3004 44.9837C29.2164 45.7196 25.3048 46.9394 24.2369 47.2954C22.3811 47.9153 14.8419 50.6751 13.814 48.6113L13.818 48.6153Z" fill="#F08C2C"/>
<path d="M31.4243 45.5796C32.0763 45.4916 33.4081 45.2796 33.9641 45.7916C34.776 46.5435 33.1122 47.5714 32.6162 48.0274C30.1845 50.2591 23.1572 55.4146 22.2333 55.9585C21.4894 56.3905 20.5815 57.0344 19.6816 57.0424C18.3097 57.0544 17.6338 54.9626 17.2218 53.9627C16.7099 52.7069 16.8539 51.447 18.1377 50.7591C19.1536 50.2111 20.1935 49.6872 21.2294 49.1833C23.3172 48.1754 30.4604 45.7156 31.4243 45.5836V45.5796Z" fill="#F08C2C"/>
<path d="M11.8022 28.2095C12.3261 27.7375 13.402 28.0735 13.962 28.2575C15.0978 28.6294 17.4736 30.0653 16.7497 31.5491C16.5177 32.0211 15.9097 32.0491 15.3938 31.9651C14.0899 32.1531 12.4741 30.9812 11.8222 30.0573C11.4182 29.4773 11.2302 28.7174 11.8022 28.2055V28.2095Z" fill="#EB6E2A"/>
<path d="M5.81085 26.3897C6.37479 25.9737 7.41868 26.3457 7.97462 26.5896C8.41458 26.7776 8.93052 27.1336 9.33048 27.5695C9.67444 27.8615 9.96641 28.2455 10.0264 28.6534C10.0944 29.0934 9.95442 29.4573 9.67445 29.7013C9.31048 30.1893 8.71855 30.1773 8.13061 29.9533C7.07072 29.6813 5.99483 28.7374 5.59887 27.8735C5.3549 27.3416 5.29491 26.7696 5.81085 26.3897Z" fill="#EB6E2A"/>
<path d="M4.51901 31.2731C5.37892 31.0251 6.57079 31.6571 6.87876 32.477C6.97075 32.7289 6.88276 32.9609 6.71078 33.1249C6.29482 33.7928 5.17494 33.3409 4.69499 32.9809C4.16305 32.581 3.53911 31.5611 4.51501 31.2731H4.51901Z" fill="#EB6E2A"/>
<path d="M7.68677 35.9926C7.68677 35.9606 7.68677 35.9286 7.68677 35.8966C7.69077 35.8966 7.69477 35.8966 7.69477 35.8966C7.70277 35.7606 7.81075 35.6886 7.97074 35.7086C7.88675 35.7006 7.93474 35.7046 7.95874 35.7006C8.00673 35.6926 8.05473 35.7006 8.10672 35.7006C8.23071 35.7086 8.3507 35.7846 8.44269 35.8646H8.45069C8.47468 35.8886 8.49068 35.9126 8.51468 35.9406C8.52268 35.9486 8.53068 35.9606 8.53868 35.9686C8.54268 35.9726 8.54268 35.9726 8.54668 35.9766C8.60267 36.0606 8.64267 36.1566 8.62267 36.2566C8.59867 36.3846 8.47868 36.4565 8.3547 36.4645C8.3707 36.4605 8.39469 36.4566 8.41069 36.4486C8.24671 36.4806 8.10272 36.4646 7.95474 36.3726C7.83475 36.2966 7.69077 36.1486 7.69077 35.9966L7.68677 35.9926Z" fill="#F08C2C"/>
<path d="M8.26678 40.3602C8.52276 39.9563 9.17869 40.1042 9.53865 40.2162C10.0586 40.3802 10.5465 40.6802 10.9625 41.0281C11.3025 41.3121 11.7504 41.8361 11.6264 42.312C11.6024 42.396 11.5624 42.464 11.5184 42.524C11.4065 42.8959 10.8985 43.0119 10.5665 42.9079C9.70263 42.632 8.83473 42.072 8.36677 41.2801C8.20279 41.0041 8.0788 40.6602 8.26678 40.3642V40.3602Z" fill="#F08C2C"/>
<path d="M10.9704 34.6207C11.0904 34.4288 11.3984 34.5008 11.5664 34.5487C11.8103 34.6287 12.0383 34.7687 12.2343 34.9287C12.3943 35.0607 12.6023 35.3087 12.5423 35.5286C12.5343 35.5686 12.5143 35.6006 12.4943 35.6286C12.4423 35.8046 12.2023 35.8566 12.0463 35.8086C11.6464 35.6806 11.2344 35.4167 11.0184 35.0487C10.9424 34.9207 10.8824 34.7607 10.9704 34.6207Z" fill="#F08C2C"/>
<path d="M10.3866 45.0637C10.6145 44.9437 10.8665 45.0197 11.0785 45.1357C11.2865 45.2477 11.4344 45.4316 11.4864 45.6636C11.5224 45.8316 11.4104 45.9676 11.2665 46.0316C11.0785 46.1156 10.8465 46.0316 10.7065 45.8836C10.6585 45.8476 10.6105 45.8156 10.5705 45.7796C10.4105 45.6476 10.0866 45.2236 10.3906 45.0637H10.3866Z" fill="#F08C2C"/>
<path d="M11.4264 48.7872C11.9223 48.6832 12.5143 49.1032 12.7903 49.5032C12.9502 49.7352 13.1182 50.0751 13.0502 50.3591C13.0822 50.7231 12.8663 51.087 12.4063 50.983C11.7904 50.843 11.4064 50.4391 11.1224 49.8951C10.9345 49.5312 10.9145 48.8912 11.4224 48.7912L11.4264 48.7872Z" fill="#F08C2C"/>
<path d="M15.2218 57.2264C15.6058 57.1344 16.0057 57.2664 16.3297 57.4784C16.5697 57.6343 16.9536 58.1623 16.5817 58.4063C16.5097 58.5582 16.3537 58.6422 16.1777 58.6742C15.6618 58.7702 15.1178 58.3903 14.8898 57.9503C14.7219 57.6303 14.8658 57.3064 15.2178 57.2264H15.2218Z" fill="#F08C2C"/>
<path d="M13.1102 56.7904C13.3862 56.7224 13.6782 56.8184 13.9101 56.9744C14.0861 57.0904 14.3621 57.4704 14.0941 57.6463C14.0421 57.7583 13.9261 57.8143 13.8021 57.8383C13.4302 57.9063 13.0382 57.6343 12.8702 57.3144C12.7503 57.0824 12.8542 56.8544 13.1102 56.7904Z" fill="white"/>
<path d="M14.93 50.6911C15.138 50.6391 15.358 50.7151 15.53 50.8271C15.662 50.9151 15.8699 51.203 15.67 51.331C15.63 51.415 15.542 51.459 15.45 51.475C15.17 51.527 14.874 51.323 14.7501 51.0831C14.6581 50.9071 14.7381 50.7351 14.93 50.6911Z" fill="white"/>
<path d="M6.10279 38.2403C6.31477 38.1883 6.53075 38.2644 6.70673 38.3763C6.83872 38.4643 7.04669 38.7483 6.84271 38.8803C6.80272 38.9643 6.71873 39.0083 6.62674 39.0243C6.34677 39.0763 6.0508 38.8683 5.92681 38.6323C5.83482 38.4603 5.91481 38.2843 6.10679 38.2403H6.10279Z" fill="white"/>
<path d="M11.5704 38.1724C11.6744 38.1484 11.7824 38.1844 11.8704 38.2404C11.9344 38.2844 12.0384 38.4284 11.9384 38.4924C11.9184 38.5324 11.8744 38.5564 11.8304 38.5684C11.6904 38.5964 11.5424 38.4924 11.4824 38.3724C11.4384 38.2844 11.4784 38.1964 11.5744 38.1764L11.5704 38.1724Z" fill="white"/>
<path d="M1.86323 29.2213C2.1712 29.1454 2.49116 29.2573 2.74714 29.4253C2.93912 29.5493 3.25108 29.9733 2.95112 30.1692C2.89112 30.2892 2.76714 30.3572 2.62715 30.3812C2.21519 30.4572 1.78324 30.1533 1.59926 29.8013C1.46727 29.5453 1.57926 29.2933 1.86323 29.2213Z" fill="white"/>
<path d="M8.82661 31.4411C9.13457 31.3651 9.45854 31.4731 9.71451 31.6411C9.90649 31.7691 10.2145 32.189 9.91849 32.385C9.8585 32.505 9.73451 32.569 9.59453 32.597C9.18257 32.673 8.75061 32.369 8.56663 32.021C8.43465 31.7651 8.54664 31.5091 8.82661 31.4411Z" fill="white"/>
<path d="M14.43 52.8108C15.326 52.6669 16.6778 54.4707 15.5699 54.5986C14.822 54.6866 13.2662 52.9948 14.43 52.8108Z" fill="#F08C2C"/>
<path d="M12.2022 54.8266C12.6822 54.7506 13.4101 55.7185 12.8142 55.7865C12.4142 55.8345 11.5783 54.9266 12.2022 54.8266Z" fill="#F08C2C"/>
<path d="M13.53 58.7942C13.582 58.6702 13.746 58.6462 13.8619 58.6702C14.0699 58.7182 14.2899 58.8702 14.2619 59.1062C14.2579 59.1302 14.2499 59.1462 14.2419 59.1622C14.2459 59.1822 14.2499 59.2062 14.2459 59.2262C14.2339 59.3862 14.0499 59.3902 13.9339 59.3582C13.694 59.2902 13.422 59.0582 13.53 58.7902V58.7942Z" fill="#F08C2C"/>
<g style="mix-blend-mode:multiply" opacity="0.5">
<path d="M9.57857 48.7113C8.3387 44.6397 0.607518 33.8688 0.0355784 28.8694C-0.428373 24.8058 5.15104 24.8498 7.25482 25.0098C6.40691 25.1018 5.563 25.3057 4.72308 25.6657C2.6593 26.5536 1.7274 28.6054 2.04737 30.7812C2.48732 33.7729 4.42712 36.5246 6.18293 38.8963C8.09473 41.484 10.5345 44.0198 11.1744 47.2714C11.7663 50.2671 11.4024 53.5708 12.8782 56.3465C13.9981 58.4503 16.2139 59.1582 18.4816 58.7662C21.6133 58.2263 24.109 56.0025 26.6648 54.2787C28.4566 53.0748 30.3084 51.887 32.1002 50.6271C26.7168 55.7026 17.6577 61.5739 14.838 61.7019C10.4825 61.8939 10.8064 52.7789 9.57057 48.7033L9.57857 48.7113Z" fill="#51311A"/>
</g>
<path opacity="0.3" d="M10.7303 29.0974C6.89071 28.4054 4.38298 28.8414 3.2111 30.4092C2.53917 26.6296 4.59895 25.2818 9.39845 26.3537C15.5578 26.6456 23.8849 32.501 34.3798 43.9158C23.305 34.8808 15.4218 29.9413 10.7303 29.0974Z" fill="white"/>
<path opacity="0.3" d="M18.8617 69.961C19.2376 73.0607 21.6734 75.6484 26.1809 77.7242C22.2093 76.3044 19.4336 74.2646 17.8578 71.6049C16.2819 68.9412 17.3018 65.6215 20.9214 61.6419C19.1736 64.0896 18.4857 66.8614 18.8617 69.965V69.961Z" fill="white"/>
<path d="M72.6879 48.9673C77.4554 53.5908 73.4118 63.4017 66.6805 66.6934C59.9493 69.9851 56.7336 68.0093 50.4862 57.2144C46.3227 50.0192 43.727 44.1918 42.6951 39.7442L43.9829 39.0283C59.9413 42.5719 69.5082 45.8876 72.6879 48.9713V48.9673Z" fill="#372009"/>
<path d="M72.6879 48.9673C77.4554 53.5908 73.4118 63.4017 66.6805 66.6934C59.9493 69.9851 56.7336 68.0093 50.4862 57.2144C46.3227 50.0192 43.727 44.1918 42.6951 39.7442L43.9829 39.0283C59.9413 42.5719 69.5082 45.8876 72.6879 48.9713V48.9673Z" fill="#372009"/>
<g style="mix-blend-mode:multiply" opacity="0.5">
<path d="M66.6804 66.6934C62.0009 68.9812 59.0173 68.7212 55.5416 64.7256C57.9214 66.5174 60.8331 67.4973 63.7128 66.5974C66.5205 65.7175 68.8402 63.5137 70.512 61.17C72.0879 58.9662 73.4437 55.9386 72.9358 53.1828C72.4598 50.5991 70.2321 48.5753 68.0563 47.3515C65.4966 45.9156 62.6129 45.2077 59.7212 44.8397C58.0614 44.6277 56.3895 44.5078 54.7257 44.3118C52.9659 44.1038 51.2181 43.7838 49.4583 43.5718C48.1424 43.4159 46.6706 43.0639 45.3747 43.4639C44.8547 43.6238 44.4868 43.9798 44.2508 44.4198C43.4709 42.412 42.9549 40.8481 42.699 39.7363L43.9868 39.0203C59.9452 42.564 69.5121 45.8796 72.6918 48.9633C77.4593 53.5868 73.4157 63.3978 66.6844 66.6894L66.6804 66.6934Z" fill="#51311A"/>
</g>
<path d="M62.125 52.0229C60.4212 52.6788 58.3374 51.519 56.9336 50.663C55.2657 49.6511 48.0385 44.5637 48.7664 43.8758C49.0984 43.5638 50.1703 43.6038 50.5702 43.7398C51.7501 44.1397 52.962 44.4597 54.1658 44.7717C57.4375 45.6156 62.081 46.7275 62.9089 50.5991C63.0369 51.187 62.8809 51.7309 62.125 52.0229Z" fill="#F49E2B"/>
<path d="M64.7086 51.539C65.3485 51.095 66.2324 51.123 66.9604 51.287C67.6043 51.435 68.4682 51.651 68.8562 52.2349C69.2481 52.8309 69.0521 53.6188 68.6722 54.1707C68.3682 54.6107 67.5683 54.9226 67.0564 54.7906C66.4884 54.6387 65.3285 54.0467 64.6646 53.3468C64.1087 52.7589 63.9047 52.0909 64.7046 51.539H64.7086Z" fill="#F49E2B"/>
<path d="M72.284 52.0829C72.208 52.6109 71.7281 52.7708 71.2961 52.5269C70.7322 52.2109 70.0123 49.8312 71.0322 49.8192C71.0642 49.8192 71.1002 49.8232 71.1322 49.8312C71.9601 50.0071 72.384 51.355 72.284 52.0829Z" fill="#F49E2B"/>
<path d="M73.4556 55.4546C74.0516 55.5066 73.9516 56.5825 73.3796 56.4105C72.9717 56.2865 72.9077 55.4346 73.4316 55.4546C73.4396 55.4546 73.4476 55.4546 73.4596 55.4546H73.4556Z" fill="#F49E2B"/>
<path d="M68.4482 50.2671C67.6963 50.5071 66.7564 50.3031 65.9885 50.1871C65.0006 50.0351 64.1287 49.5872 63.3727 48.9432C62.7088 48.3713 61.5929 47.5154 61.309 46.6835C60.993 45.7476 62.4728 46.0916 62.9528 46.1116C65.1126 46.1996 67.4563 46.5955 68.5522 48.7033C68.6482 48.8913 68.7682 49.1072 68.8402 49.3152C68.9882 49.7152 68.9922 50.0991 68.4442 50.2711L68.4482 50.2671Z" fill="#F49E2B"/>
<path d="M61.441 63.3257C61.225 64.2056 60.2011 64.7256 59.3972 64.9615C57.5694 65.5095 56.0295 63.5857 55.0376 62.3498C53.4298 60.35 46.3106 49.2072 45.1627 45.3996C45.1427 44.9757 45.4907 44.8597 45.8546 45.0277C45.8986 45.0517 45.9426 45.0756 45.9906 45.1036C46.3746 45.5076 46.7225 45.9516 47.0385 46.2835C47.8464 47.1234 48.6423 47.9793 49.4342 48.8392C51.1781 50.747 52.9539 52.6348 54.7057 54.5386C55.2696 55.1546 55.8256 55.7825 56.3735 56.4065C56.9374 57.0544 57.4974 57.7063 58.0813 58.3382C58.7893 59.1062 59.5732 59.8181 60.2371 60.626C60.6651 61.146 61.221 61.7659 61.417 62.4538C61.497 62.7338 61.517 63.0258 61.445 63.3257H61.441Z" fill="#F49E2B"/>
<path d="M64.8008 60.1621C64.7408 61.2499 63.605 61.6059 62.7331 61.2699C61.7092 60.878 46.0428 45.2956 47.0787 44.4557C47.4627 44.1438 48.7145 45.3316 48.9785 45.5236C50.4503 46.5755 64.9048 58.2423 64.8008 60.1621Z" fill="#F49E2B"/>
<path d="M70.6161 58.9782C70.4321 58.9422 70.3401 58.7303 70.3641 58.5543C70.3801 58.4423 70.4361 58.3623 70.5041 58.3063C70.5161 58.3023 70.5241 58.3063 70.5361 58.3023C71.076 58.1383 71.196 59.0942 70.6161 58.9742V58.9782Z" fill="#F49E2B"/>
<path d="M62.9487 65.4815C63.5127 66.2614 61.3289 66.9094 61.5969 65.6015C61.6249 65.4735 61.6649 65.3775 61.7289 65.3015C62.0088 64.9656 62.7408 65.1936 62.9487 65.4815Z" fill="#F49E2B"/>
<path d="M68.7642 61.5059C68.3442 61.7459 68.6042 62.3299 69.0202 62.3339C69.8481 62.3539 69.4841 61.09 68.7642 61.5059Z" fill="#F49E2B"/>
<path d="M65.3365 63.6737C66.0165 63.2938 66.9964 64.0417 66.7964 64.7936C66.4564 66.0615 64.4886 65.5775 64.9086 64.2737C64.9886 64.0177 65.1406 63.7897 65.3365 63.6737Z" fill="#F49E2B"/>
<path d="M66.1724 60.878C66.8483 60.4941 67.8322 61.246 67.6323 61.9979C67.2963 63.2658 65.3245 62.7858 65.7405 61.478C65.8244 61.226 65.9764 60.99 66.1724 60.878Z" fill="white"/>
<path d="M59.3492 65.9375C59.8812 65.6415 60.6451 66.2255 60.4931 66.8134C60.2291 67.8053 58.6893 67.4294 59.0173 66.4055C59.0813 66.2095 59.1973 66.0255 59.3532 65.9375H59.3492Z" fill="white"/>
<path d="M70.3641 54.4027C70.772 54.1747 71.36 54.6227 71.24 55.0746C71.036 55.8345 69.8521 55.5466 70.1041 54.7626C70.1521 54.6107 70.2441 54.4707 70.3641 54.4027Z" fill="white"/>
<path d="M72.9198 52.1709C73.3277 51.943 73.9157 52.3909 73.7957 52.8429C73.5917 53.6028 72.4118 53.3188 72.6598 52.5309C72.7078 52.3789 72.8038 52.2389 72.9198 52.1709Z" fill="white"/>
<path d="M69.4402 48.3993C69.6922 48.2594 70.0522 48.5353 69.9802 48.8153C69.8562 49.2832 69.1283 49.1033 69.2843 48.6233C69.3122 48.5273 69.3722 48.4433 69.4402 48.3993Z" fill="white"/>
<path d="M67.2164 57.6183C67.5323 57.4384 67.9963 57.7903 67.9003 58.1423C67.7443 58.7382 66.8164 58.5143 67.0124 57.8983C67.0524 57.7783 67.1244 57.6703 67.2164 57.6183Z" fill="white"/>
<path d="M64.9767 57.9224C64.2607 57.7304 61.1291 55.0227 60.3611 53.9908C60.2612 53.8588 60.1732 53.7188 60.0812 53.5788C60.0732 53.5668 60.0692 53.5548 60.0612 53.5388C59.5252 52.4189 61.485 53.1469 61.717 53.2269C62.7369 53.5748 66.6005 55.5146 66.6965 56.5425C66.7005 56.6065 66.7005 56.6705 66.6965 56.7305C66.6565 57.5664 65.8126 58.1503 64.9727 57.9184L64.9767 57.9224Z" fill="#F49E2B"/>
<path d="M42.6032 39.1683C45.0229 25.1378 49.9504 14.9868 57.3776 8.72349C61.9251 5.16786 64.8688 4.92789 66.2007 8.00757C68.2005 12.6271 66.8726 25.8137 67.8325 29.9613C68.7884 34.1088 73.6159 41.848 69.7523 43.8518C65.8847 45.8556 42.3192 43.4198 42.5992 39.1683H42.6032Z" fill="#51311A"/>
<path d="M54.3179 22.934C54.3379 23.9979 53.714 25.0138 53.174 25.8897C52.5661 26.8696 48.6465 34.2888 46.7947 36.7125C46.3148 37.3365 45.7908 37.9284 45.2429 38.4923C45.1309 38.6083 44.443 39.3883 44.243 39.1283C43.979 38.7763 44.103 38.0844 44.139 37.6764C44.291 35.9326 45.0469 34.1248 45.5308 32.449C45.7548 31.6651 48.4225 24.8698 49.0905 23.4979C49.6064 22.442 50.0824 21.1862 51.3422 20.8422C52.6101 20.4942 54.2859 21.6341 54.3139 22.938L54.3179 22.934Z" fill="#EB6E2A"/>
<path d="M51.5101 31.665C51.2301 31.2771 53.1699 27.2095 53.9618 25.8496C54.4738 24.9657 54.8497 24.0058 55.5416 23.2339C56.6055 22.05 57.8854 22.206 59.0213 23.2179C59.5132 23.6539 60.0372 24.4018 60.1172 25.0617C60.2691 26.2496 59.1333 27.2215 58.3053 27.8814C57.5734 28.4614 56.7895 28.9653 55.9896 29.4493C55.3057 29.8652 52.054 32.4169 51.5101 31.665Z" fill="#EB6E2A"/>
<path d="M54.4219 36.0526C53.3181 36.2766 49.3225 37.1725 48.8825 36.5726C48.2666 35.7446 50.1584 34.6048 50.6344 34.2128C52.1382 32.9769 53.802 31.957 55.4298 30.8972C56.4657 30.2252 60.4853 27.3575 61.6852 27.6455C62.4531 27.8295 62.9651 28.6174 63.285 29.2613C63.621 29.9333 64.0489 31.0091 64.1089 31.989C64.2489 34.2888 56.3377 35.6607 54.4219 36.0486V36.0526Z" fill="#F08C2C"/>
<path d="M57.9694 36.1806C59.1213 36.1006 60.2852 36.0366 61.433 36.0046C62.8929 35.9606 63.6448 36.9805 63.8248 38.3244C63.9728 39.3962 64.4247 41.548 63.2328 42.2199C62.4489 42.6599 61.341 42.5599 60.4811 42.5519C59.4092 42.5439 50.7502 41.58 47.5225 40.8601C46.8666 40.7121 44.9068 40.6561 45.2387 39.5962C45.4627 38.8763 46.7266 38.4003 47.3345 38.1484C48.2344 37.7804 55.6576 36.3446 57.9654 36.1806H57.9694Z" fill="#F08C2C"/>
<path d="M56.5856 14.9188C56.4816 16.0427 55.6657 17.8665 54.4419 18.3545C54.0339 18.6864 53.494 18.9624 53.058 18.6704C51.6862 17.7425 53.03 15.3148 53.8299 14.4229C54.2219 13.9829 54.9898 13.155 55.6777 13.303C56.4297 13.463 56.6496 14.2109 56.5856 14.9188Z" fill="#EB6E2A"/>
<path d="M60.8852 9.91933C60.9732 10.8592 60.5132 12.2151 59.7293 12.979C59.3334 13.471 58.8214 13.7789 58.2695 13.5349C57.9015 13.4629 57.6016 13.215 57.4376 12.799C57.2856 12.4191 57.3536 11.9351 57.5056 11.5152C57.6295 10.9392 57.9055 10.3713 58.1895 9.98731C58.5495 9.50336 59.2654 8.65545 59.9653 8.73544C60.6012 8.80744 60.8332 9.33539 60.8852 9.91532V9.91933Z" fill="#EB6E2A"/>
<path d="M64.2129 13.895C63.9809 14.4469 63.233 15.3948 62.537 15.0228C62.3091 14.9669 62.1131 14.8109 62.0731 14.5469C61.9331 13.675 62.645 12.5391 63.5169 12.3271C64.5008 12.0832 64.4728 13.283 64.2129 13.891V13.895Z" fill="#EB6E2A"/>
<path d="M63.0849 18.4505C63.0009 18.6024 62.8889 18.6944 62.7289 18.7464C62.7489 18.7384 62.7649 18.7384 62.7849 18.7304C62.6769 18.7864 62.537 18.7824 62.449 18.6864C62.381 18.6104 62.365 18.5104 62.373 18.4105C62.373 18.4065 62.373 18.4025 62.373 18.4025C62.377 18.3865 62.381 18.3745 62.381 18.3625C62.389 18.3305 62.393 18.2985 62.401 18.2705C62.405 18.2665 62.405 18.2665 62.405 18.2665C62.445 18.1505 62.517 18.0265 62.617 17.9545C62.6609 17.9265 62.6969 17.8985 62.7409 17.8785C62.7689 17.8705 62.8049 17.8425 62.7409 17.8905C62.8689 17.7945 62.9969 17.8065 63.0729 17.9185C63.0729 17.9145 63.0729 17.9145 63.0769 17.9145C63.0969 17.9385 63.1129 17.9665 63.1289 17.9985C63.2009 18.1305 63.1529 18.3305 63.0889 18.4545L63.0849 18.4505Z" fill="#F08C2C"/>
<path d="M65.1726 22.914C65.1606 23.8339 64.6886 24.7538 64.0807 25.4217C63.8487 25.6777 63.3488 25.8337 63.0648 25.5657C62.9968 25.5417 62.9288 25.5057 62.8688 25.4378C62.5249 25.0898 62.6488 24.4139 62.8048 23.9939C62.9928 23.486 63.2608 22.982 63.6327 22.5821C63.8887 22.3061 64.3807 21.8501 64.8046 22.0741C65.1126 22.2381 65.1766 22.5941 65.1726 22.918V22.914Z" fill="#F08C2C"/>
<path d="M59.7693 18.8384C59.7613 19.2703 59.5373 19.6983 59.2533 20.0103C59.1453 20.1302 58.9134 20.2022 58.7774 20.0782C58.7454 20.0663 58.7134 20.0463 58.6854 20.0183C58.5254 19.8543 58.5854 19.5383 58.6574 19.3423C58.7414 19.1024 58.8734 18.8664 59.0413 18.6824C59.1613 18.5544 59.3933 18.3384 59.5933 18.4424C59.7373 18.5184 59.7693 18.6864 59.7693 18.8384Z" fill="#F08C2C"/>
<path d="M65.5206 27.9174C65.5006 27.9694 65.4766 28.0214 65.4526 28.0734C65.4006 28.2734 65.2446 28.4574 65.0367 28.4814C64.8807 28.4974 64.7167 28.4374 64.6607 28.2734C64.5887 28.0494 64.6287 27.8135 64.7527 27.6135C64.8807 27.4055 65.0607 27.2175 65.3166 27.2055C65.6566 27.1935 65.5886 27.7215 65.5166 27.9174H65.5206Z" fill="#F08C2C"/>
<path d="M67.0804 31.757C67.1084 32.369 66.9764 32.9129 66.5125 33.3409C66.1685 33.6608 65.8005 33.4569 65.6445 33.1249C65.4446 32.9129 65.4206 32.537 65.4406 32.253C65.4846 31.773 65.7885 31.1131 66.2685 30.9531C66.7604 30.7891 67.0644 31.3531 67.0804 31.7611V31.757Z" fill="#F08C2C"/>
<path d="M67.8364 40.6242C67.8604 41.1161 67.5765 41.72 67.0805 41.892C66.9165 41.948 66.7365 41.96 66.6006 41.864C66.1566 41.84 66.2286 41.1881 66.3566 40.9281C66.5326 40.5882 66.8125 40.2682 67.1925 40.1562C67.5405 40.0562 67.8244 40.2602 67.8364 40.6242Z" fill="#F08C2C"/>
<path d="M69.2722 39.0603C69.2882 39.4162 69.0802 39.8522 68.7242 39.9762C68.6042 40.0202 68.4762 40.0242 68.3763 39.9562C68.0563 39.9402 68.1083 39.4682 68.2003 39.2803C68.3243 39.0323 68.5322 38.8043 68.8042 38.7243C69.0562 38.6483 69.2602 38.8003 69.2722 39.0603Z" fill="white"/>
<path d="M64.5329 34.6008C64.5449 34.8687 64.3929 35.1967 64.1249 35.2927C64.0329 35.3247 63.9369 35.3287 63.8609 35.2767C63.621 35.2647 63.661 34.9127 63.7289 34.7687C63.8249 34.5807 63.9769 34.4128 64.1809 34.3488C64.3689 34.2888 64.5249 34.4008 64.5329 34.5967V34.6008Z" fill="white"/>
<path d="M65.9725 19.4064C65.9845 19.6744 65.8326 20.0023 65.5606 20.0983C65.4726 20.1303 65.3766 20.1343 65.3006 20.0823C65.0606 20.0663 65.0966 19.7144 65.1686 19.5744C65.2606 19.3904 65.4166 19.2144 65.6206 19.1544C65.8086 19.1024 65.9645 19.2104 65.9685 19.4064H65.9725Z" fill="white"/>
<path d="M61.0251 21.9461C61.0291 22.0821 60.9571 22.2461 60.8211 22.2941C60.7771 22.3101 60.7292 22.314 60.6892 22.2861C60.5692 22.2781 60.5892 22.1021 60.6212 22.0301C60.6692 21.9381 60.7452 21.8501 60.8491 21.8221C60.9451 21.7941 61.0211 21.8501 61.0251 21.9461Z" fill="white"/>
<path d="M65.3125 9.59141C65.3285 9.98737 65.1046 10.4633 64.7086 10.6073C64.5766 10.6513 64.4366 10.6593 64.3246 10.5833C63.9727 10.5633 64.0287 10.0434 64.1327 9.83938C64.2727 9.56341 64.4966 9.31144 64.8006 9.21945C65.0806 9.13946 65.3045 9.30344 65.3165 9.59141H65.3125Z" fill="white"/>
<path d="M60.3811 14.9908C60.3971 15.3867 60.1772 15.8667 59.7812 16.0067C59.6492 16.0507 59.5052 16.0587 59.3933 15.9827C59.0413 15.9627 59.0973 15.4427 59.2013 15.2388C59.3413 14.9628 59.5652 14.7108 59.8692 14.6228C60.1492 14.5428 60.3731 14.7028 60.3851 14.9948L60.3811 14.9908Z" fill="white"/>
<path d="M65.6765 35.9366C64.8286 36.2606 64.5567 38.4964 65.5806 38.0564C66.2685 37.7604 66.7764 35.5167 65.6765 35.9366Z" fill="#F08C2C"/>
<path d="M68.6123 36.5686C68.1563 36.7445 68.0124 37.9444 68.5603 37.7085C68.9323 37.5525 69.2042 36.3446 68.6123 36.5686Z" fill="#F08C2C"/>
<path d="M69.3721 41.3681C69.2921 41.4521 69.1241 41.5401 69.0361 41.4121C69.0241 41.3921 69.0161 41.3721 69.0081 41.3521C68.9921 41.3441 68.9801 41.3321 68.9641 41.3161C68.8201 41.1241 68.9321 40.8841 69.0921 40.7402C69.1801 40.6602 69.3321 40.5962 69.4401 40.6802C69.664 40.8562 69.5441 41.1961 69.3721 41.3721V41.3681Z" fill="#F08C2C"/>
<g style="mix-blend-mode:multiply" opacity="0.5">
<path d="M69.7562 43.8518C67.2485 45.1517 56.4696 44.5837 49.2664 42.8679C51.4501 43.0679 53.6499 43.1759 55.8017 43.3279C58.8773 43.5398 62.149 44.2238 65.1327 43.1319C67.2925 42.34 68.8603 40.6201 68.7803 38.2364C68.6723 35.0927 66.7125 32.413 65.7286 29.5213C64.6607 26.3856 65.5086 22.97 65.8766 19.7703C66.2126 16.8386 66.5245 13.483 65.4087 10.6713C64.5967 8.62351 62.7689 7.31165 60.5372 7.57162C59.6333 7.67961 58.7974 7.91958 58.0174 8.26354C59.7613 7.07967 64.5767 4.25597 66.2006 8.00757C68.2004 12.6271 66.8725 25.8137 67.8324 29.9613C68.7883 34.1088 73.6158 41.848 69.7522 43.8518H69.7562Z" fill="#51311A"/>
</g>
<path opacity="0.3" d="M43.9429 38.1844C47.3465 23.054 51.6461 13.8269 56.8375 10.4953C60.4611 7.17165 62.9209 7.31163 64.2207 10.9232C62.4249 10.1513 60.0372 11.0232 57.0535 13.539C53.4059 16.6107 49.0383 24.8258 43.9469 38.1844H43.9429Z" fill="white"/>
<path opacity="0.3" d="M64.4529 46.8235C69.5763 48.4673 72.1161 50.835 72.0801 53.9267C72.0441 57.0184 70.6562 60.17 67.9205 63.3857C70.7882 59.3421 71.6121 55.8825 70.3883 53.0068C69.1644 50.1351 67.1886 48.0713 64.4529 46.8195V46.8235Z" fill="white"/>
<path d="M40.5714 46.6995C40.6154 46.7115 40.6754 46.7275 40.7514 46.7555C40.8674 46.7955 41.0393 46.8475 41.2513 46.9314C41.4673 47.0154 41.7273 47.1154 42.0152 47.2474C42.3072 47.3754 42.6272 47.5314 42.9751 47.7153C43.6711 48.0793 44.459 48.5513 45.2549 49.1272C45.6548 49.4152 46.0548 49.7271 46.4468 50.0671C46.8427 50.4031 47.2267 50.771 47.5986 51.151C47.9626 51.535 48.3186 51.9349 48.6345 52.3589C48.7945 52.5709 48.9465 52.7828 49.0905 53.0028C49.2265 53.2068 49.3585 53.4108 49.4864 53.6067C49.7344 53.9827 49.9984 54.3467 50.2624 54.6506C50.5223 54.9586 50.7943 55.2106 51.0623 55.3705C51.3302 55.5265 51.5822 55.5785 51.8422 55.5305C52.0982 55.4825 52.3341 55.3546 52.5221 55.2346C52.7101 55.1186 52.8661 55.0186 52.9741 54.9586C53.0301 54.9306 53.0741 54.9106 53.1021 54.8986C53.1221 54.8906 53.1381 54.8866 53.1461 54.8826C53.1141 54.9146 53.0741 54.9586 53.0221 55.0186C52.9421 55.1106 52.8461 55.2586 52.6981 55.4346C52.5501 55.6105 52.3621 55.8425 52.0302 56.0145C51.8622 56.1025 51.6622 56.1625 51.4382 56.1785C51.2183 56.1945 50.9823 56.1585 50.7623 56.0905C50.3144 55.9505 49.9144 55.6865 49.5504 55.3786C49.1785 55.0666 48.8425 54.7146 48.5145 54.3187C48.3466 54.1227 48.2106 53.9347 48.0506 53.7387C47.9066 53.5507 47.7546 53.3708 47.6026 53.1828C47.2867 52.8148 46.9587 52.4509 46.6107 52.0989C46.2708 51.7389 45.9148 51.391 45.5589 51.055C45.2029 50.719 44.8429 50.3911 44.491 50.0751C43.787 49.4472 43.1111 48.8712 42.5312 48.3753C41.9432 47.8753 41.4513 47.4594 41.1113 47.1674C40.9393 47.0234 40.8074 46.9034 40.7114 46.8234C40.6514 46.7715 40.6034 46.7315 40.5674 46.6995H40.5714Z" fill="#893A1C"/>
<g style="mix-blend-mode:multiply" opacity="0.5">
<path d="M45.819 51.307C45.735 51.223 45.647 51.139 45.563 51.059C45.207 50.7231 44.8471 50.3951 44.4951 50.0791C43.7912 49.4512 43.1153 48.8753 42.5353 48.3793C41.9474 47.8794 41.4554 47.4634 41.1155 47.1714C40.9435 47.0275 40.8115 46.9075 40.7155 46.8275C40.6555 46.7755 40.6075 46.7355 40.5715 46.7035C40.6155 46.7155 40.6755 46.7315 40.7515 46.7595C40.8675 46.7995 41.0395 46.8515 41.2515 46.9355C41.4674 47.0195 41.7274 47.1194 42.0154 47.2514C42.3073 47.3794 42.6273 47.5354 42.9753 47.7194C43.6712 48.0833 44.4591 48.5553 45.255 49.1312C45.655 49.4192 46.055 49.7312 46.4469 50.0711C46.8429 50.4071 47.2268 50.7751 47.5988 51.155C47.9628 51.539 48.3187 51.9389 48.6347 52.3629C48.7947 52.5749 48.9466 52.7869 49.0906 53.0068C49.2266 53.2108 49.3586 53.4148 49.4866 53.6108C49.7346 53.9867 49.9985 54.3507 50.2625 54.6547C50.5225 54.9626 50.7945 55.2146 51.0624 55.3746C51.3304 55.5306 51.5824 55.5826 51.8423 55.5346C52.0983 55.4866 52.3343 55.3586 52.5223 55.2386C52.7103 55.1226 52.8662 55.0226 52.9742 54.9626C53.0302 54.9346 53.0742 54.9146 53.1022 54.9026C53.1222 54.8946 53.1382 54.8906 53.1462 54.8866C53.1142 54.9186 53.0742 54.9626 53.0222 55.0226C52.9862 55.0666 52.9422 55.1266 52.8942 55.1906C52.6263 55.4146 52.2983 55.5666 51.9063 55.6066C51.1624 55.6826 50.4865 55.2626 49.9345 54.8186C48.7747 53.8667 48.1107 52.5509 47.1988 51.399C46.9629 51.099 46.6269 50.6951 46.2109 50.6751C45.951 50.6631 45.827 50.867 45.811 51.099C45.807 51.167 45.811 51.239 45.815 51.315L45.819 51.307Z" fill="#893A1C"/>
</g>
<g style="mix-blend-mode:multiply">
<path d="M45.4669 50.971C45.1389 50.6671 44.8149 50.3631 44.491 50.0791C43.787 49.4512 43.1111 48.8753 42.5312 48.3793C41.9432 47.8794 41.4513 47.4634 41.1113 47.1714C40.9393 47.0275 40.8074 46.9075 40.7114 46.8275C40.6514 46.7755 40.6034 46.7355 40.5674 46.7035C40.6114 46.7155 40.6714 46.7315 40.7474 46.7595C40.8634 46.7995 41.0353 46.8515 41.2473 46.9355C41.4633 47.0195 41.7233 47.1194 42.0112 47.2514C42.3032 47.3794 42.6232 47.5354 42.9711 47.7194C43.6671 48.0833 44.455 48.5553 45.2509 49.1312C45.4749 49.2912 45.6948 49.4592 45.9228 49.6392C45.8508 49.8711 45.7748 50.1031 45.7028 50.3231C45.6268 50.5431 45.5509 50.7591 45.4669 50.975V50.971Z" fill="#893A1C"/>
</g>
<path d="M51.7543 55.9825C51.7783 55.9825 51.7863 56.0305 51.7623 56.0345C50.7064 56.3065 49.7945 55.4785 49.1466 54.7466C48.2347 53.7067 47.4148 52.5589 46.3909 51.623C46.3829 51.615 46.3869 51.587 46.3989 51.599C47.3188 52.2869 47.9947 53.2188 48.7426 54.0787C49.5585 55.0106 50.3985 56.0065 51.7503 55.9865L51.7543 55.9825Z" fill="#A84626"/>
<path d="M36.9518 47.7354C36.9638 47.7794 36.9798 47.8434 37.0038 47.9233C37.0318 48.0473 37.0798 48.2273 37.1318 48.4593C37.2358 48.9232 37.3678 49.5832 37.4917 50.3831C37.6157 51.179 37.7357 52.1149 37.8277 53.1148C37.8717 53.6147 37.9117 54.1347 37.9437 54.6586C37.9757 55.1866 37.9957 55.7225 38.0117 56.2585C38.0237 56.7944 38.0317 57.3343 38.0237 57.8663C38.0197 58.3942 37.9997 58.9182 37.9717 59.4261C37.9437 59.9301 37.9037 60.422 37.8437 60.886C37.7877 61.3499 37.7237 61.7939 37.6117 62.2138C37.5877 62.3178 37.5557 62.4218 37.5197 62.5258C37.4797 62.6378 37.4477 62.7338 37.3598 62.8698C37.3278 62.9138 37.3038 62.9458 37.2558 62.9897C37.2278 63.0137 37.1918 63.0378 37.1598 63.0578L37.1318 63.0697C37.0838 63.0897 37.1158 63.0778 37.1078 63.0778H37.0998L37.0838 63.0818C37.0398 63.0938 36.9998 63.1017 36.9518 63.1137C36.8478 63.1337 36.7158 63.1577 36.6278 63.1457C36.2319 63.1417 35.9439 62.9938 35.7279 62.8738C35.5119 62.7538 35.368 62.6178 35.276 62.5338C35.212 62.4738 35.164 62.4298 35.136 62.3898C35.176 62.4098 35.236 62.4338 35.316 62.4658C35.432 62.5138 35.6079 62.5698 35.8279 62.6178C36.0479 62.6578 36.3199 62.6898 36.5758 62.6178C36.6478 62.6018 36.6798 62.5778 36.7438 62.5538C36.7838 62.5338 36.8198 62.5098 36.8598 62.4898L36.8758 62.4818L36.8798 62.4778C36.8678 62.4818 36.9038 62.4698 36.8598 62.4898H36.8478C36.8318 62.4938 36.8158 62.5018 36.8038 62.5178C36.7878 62.5298 36.7878 62.5218 36.7838 62.5298C36.7838 62.5018 36.8038 62.4218 36.8078 62.3458C36.8158 62.2658 36.8238 62.1739 36.8238 62.0819C36.8358 61.7099 36.8238 61.2819 36.8078 60.83C36.7918 60.378 36.7678 59.8981 36.7478 59.4021C36.7278 58.9062 36.7038 58.3902 36.6878 57.8703C36.6718 57.3503 36.6558 56.8184 36.6398 56.2825C36.6278 55.7505 36.6158 55.2186 36.6158 54.6986C36.6078 54.1707 36.6118 53.6547 36.6158 53.1548C36.6278 52.1549 36.6598 51.219 36.7038 50.4111C36.7478 49.6072 36.8078 48.9352 36.8598 48.4633C36.8798 48.2273 36.9118 48.0433 36.9278 47.9153C36.9398 47.8313 36.9478 47.7674 36.9558 47.7194L36.9518 47.7354Z" fill="#893A1C"/>
<g style="mix-blend-mode:multiply" opacity="0.5">
<path d="M36.9517 47.7353C36.9637 47.7793 36.9797 47.8433 37.0037 47.9233C37.0317 48.0473 37.0797 48.2273 37.1317 48.4593C37.2357 48.9232 37.3677 49.5831 37.4916 50.3831C37.6156 51.179 37.7356 52.1149 37.8276 53.1148C37.8716 53.6147 37.9116 54.1347 37.9436 54.6586C37.9756 55.1866 37.9956 55.7225 38.0116 56.2584C38.0236 56.7944 38.0316 57.3343 38.0236 57.8663C38.0196 58.3942 37.9996 58.9182 37.9716 59.4261C37.9436 59.93 37.9036 60.422 37.8436 60.8859C37.7876 61.3499 37.7236 61.7938 37.6116 62.2138C37.5876 62.3178 37.5556 62.4218 37.5196 62.5258C37.4796 62.6378 37.4476 62.7337 37.3597 62.8697C37.3277 62.9137 37.3037 62.9457 37.2557 62.9897C37.2277 63.0137 37.1917 63.0377 37.1597 63.0577L37.1317 63.0697C37.0837 63.0897 37.1157 63.0777 37.1077 63.0777C37.1037 63.0777 37.0957 63.0817 37.0877 63.0857C37.0437 63.0977 37.0037 63.1057 36.9557 63.1177C36.8517 63.1377 36.7197 63.1617 36.6317 63.1497C36.2358 63.1457 35.9478 62.9977 35.7318 62.8777C35.5159 62.7578 35.3719 62.6218 35.2799 62.5378C35.2159 62.4778 35.1679 62.4338 35.1399 62.3938C35.1799 62.4138 35.2399 62.4378 35.3199 62.4698C35.4359 62.5178 35.6118 62.5738 35.8318 62.6218C36.0318 62.6618 36.2758 62.6858 36.5117 62.6338C36.7197 62.6738 36.9197 62.5618 37.0637 62.2338C37.1877 61.9538 37.2277 61.6259 37.2637 61.3259C37.3357 60.698 37.8956 53.4667 37.1837 53.4787C36.9437 53.4867 36.6077 54.0507 36.6117 54.2706C36.6077 53.8947 36.6077 53.5227 36.6117 53.1588C36.6237 52.1589 36.6557 51.223 36.6997 50.415C36.7437 49.6111 36.8037 48.9392 36.8557 48.4672C36.8757 48.2313 36.9077 48.0473 36.9237 47.9193C36.9357 47.8353 36.9437 47.7713 36.9517 47.7233V47.7353Z" fill="#893A1C"/>
</g>
<g style="mix-blend-mode:multiply">
<path d="M36.6118 53.1428C36.6238 52.1509 36.6518 51.223 36.6998 50.4271C36.7438 49.6231 36.8038 48.9512 36.8558 48.4793C36.8758 48.2433 36.9078 48.0593 36.9238 47.9313C36.9358 47.8473 36.9438 47.7833 36.9518 47.7354C36.9638 47.7793 36.9798 47.8433 37.0038 47.9233C37.0318 48.0473 37.0798 48.2273 37.1318 48.4593C37.2357 48.9232 37.3677 49.5832 37.4917 50.3831C37.6157 51.179 37.7357 52.1149 37.8277 53.1148C37.8277 53.1468 37.8317 53.1828 37.8357 53.2148C37.4197 53.2268 37.0118 53.2028 36.6158 53.1388L36.6118 53.1428Z" fill="#893A1C"/>
</g>
<path d="M36.8038 54.5186C37.0078 56.6024 37.1598 58.7862 37.0918 60.878C37.0918 60.898 37.0638 60.91 37.0598 60.886C36.8958 58.7622 36.7558 56.6504 36.7918 54.5226C36.7918 54.5146 36.8038 54.5106 36.8038 54.5186Z" fill="#A84626"/>
<path d="M50.4062 31.545C50.3822 31.581 50.3542 31.629 50.3182 31.693C50.2702 31.793 50.2222 31.941 50.2062 32.141C50.1702 32.5369 50.2862 33.0969 50.4742 33.7768C50.6622 34.4567 50.9181 35.2527 51.1301 36.1526C51.2341 36.6005 51.3261 37.0805 51.3741 37.5844C51.3981 37.8404 51.4181 38.0963 51.4101 38.3643C51.4061 38.6323 51.3861 38.8963 51.3341 39.2083L51.2941 39.3842L51.2861 39.4282L51.2741 39.4762L51.2661 39.5042L51.2261 39.6282C51.1781 39.7922 51.0941 39.9442 51.0141 40.0921C50.8341 40.3841 50.5902 40.6081 50.3502 40.7921C50.1022 40.9641 49.8462 41.096 49.5903 41.188C49.4663 41.236 49.3383 41.276 49.2143 41.312C49.0943 41.344 48.9663 41.38 48.8463 41.404C48.3584 41.504 47.8944 41.54 47.4625 41.548C47.0265 41.552 46.6226 41.528 46.2546 41.488C45.7547 41.432 45.3187 41.352 44.9588 41.272C44.8828 41.252 44.8388 41.0201 44.8628 40.9601C44.9148 40.8441 45.0987 40.8121 45.2067 40.7921C45.5507 40.7161 45.9027 40.7441 46.2466 40.7041C46.5986 40.6561 46.9745 40.6041 47.3625 40.5321C47.7505 40.4601 48.1504 40.3641 48.5384 40.2441C48.7304 40.1801 48.9183 40.1081 49.0943 40.0242C49.2703 39.9402 49.4263 39.8402 49.5623 39.7362C49.6903 39.6282 49.7902 39.5082 49.8662 39.3922C49.8942 39.3282 49.9302 39.2722 49.9462 39.2042L49.9622 39.1563L49.9662 39.1442L49.9742 39.1003L50.0102 38.9243C50.0342 38.7563 50.0662 38.5443 50.0702 38.3323C50.0782 38.1204 50.0822 37.9044 50.0662 37.6844C50.0422 37.2445 49.9982 36.8005 49.9502 36.3645C49.8462 35.4886 49.7303 34.6447 49.7063 33.8968C49.6943 33.5248 49.7023 33.1729 49.7423 32.8609C49.7822 32.553 49.8542 32.277 49.9542 32.069C50.0502 31.857 50.1782 31.725 50.2662 31.649C50.3142 31.609 50.3542 31.585 50.3782 31.569C50.3942 31.557 50.4062 31.549 50.4182 31.545H50.4062Z" fill="#893A1C"/>
<g style="mix-blend-mode:multiply">
<path d="M50.4062 31.545C50.3822 31.581 50.3542 31.629 50.3182 31.693C50.2702 31.793 50.2222 31.941 50.2062 32.141C50.1702 32.5369 50.2862 33.0969 50.4742 33.7768C50.6622 34.4567 50.9181 35.2527 51.1301 36.1526C51.2341 36.6005 51.3261 37.0805 51.3741 37.5844C51.3981 37.8404 51.4181 38.0963 51.4101 38.3643C51.4061 38.6323 51.3861 38.8963 51.3341 39.2083L51.2941 39.3842L51.2861 39.4282L51.2741 39.4762L51.2661 39.5042L51.2261 39.6282C51.1781 39.7922 51.0941 39.9442 51.0141 40.0921C50.8341 40.3841 50.5902 40.6081 50.3502 40.7921C50.1022 40.9641 49.8462 41.096 49.5903 41.188C49.4663 41.236 49.3383 41.276 49.2143 41.312C49.0943 41.344 48.9663 41.38 48.8463 41.404C48.3584 41.504 47.8944 41.54 47.4625 41.548C47.0265 41.552 46.6226 41.528 46.2546 41.488C45.7547 41.432 45.3187 41.352 44.9588 41.272C44.8828 41.252 44.8388 41.0201 44.8628 40.9601C44.9148 40.8441 45.0987 40.8121 45.2067 40.7921C45.2507 40.7841 45.2947 40.7761 45.3387 40.7721C45.3867 40.8921 45.5067 41.0121 45.6627 41.0601C45.9227 41.14 46.2346 41.108 46.5026 41.096C47.0105 41.076 47.5105 41.04 48.0104 40.9681C48.8343 40.8441 49.6863 40.6121 50.3022 40.0242C50.5222 39.8162 50.6422 39.5442 50.7102 39.2562C50.9341 38.2643 50.6582 37.2724 50.5142 36.2925C50.4342 35.7446 50.3862 35.1927 50.2862 34.6487C50.2262 34.2968 50.1582 33.7328 49.8902 33.4768C49.8222 33.4129 49.7623 33.3849 49.7023 33.3809C49.7063 33.2009 49.7183 33.0249 49.7423 32.8609C49.7822 32.553 49.8542 32.277 49.9542 32.069C50.0502 31.857 50.1782 31.725 50.2662 31.649C50.3142 31.609 50.3542 31.585 50.3782 31.569C50.3942 31.557 50.4062 31.549 50.4182 31.545H50.4062Z" fill="#893A1C"/>
</g>
<path d="M50.3421 37.9444C50.3581 38.2883 50.4501 38.5923 50.4221 38.9443C50.3981 39.2322 50.2941 39.4682 50.0862 39.6682C50.0382 39.7122 50.0142 39.6282 50.0342 39.5922C50.1222 39.4402 50.2501 39.2563 50.2741 39.0803C50.2901 38.9483 50.2701 38.8163 50.2861 38.6923C50.3181 38.4403 50.2741 38.1924 50.3021 37.9444C50.3021 37.9164 50.3421 37.9084 50.3461 37.9444H50.3421Z" fill="#B74C2A"/>
<path d="M28.1526 45.6116C28.1526 45.6396 28.1486 45.6436 28.1686 45.6796C28.1766 45.6876 28.1766 45.6956 28.1886 45.7116L28.2406 45.7876L28.3646 45.9756L28.4926 46.1635L28.6206 46.3715C28.7046 46.5155 28.7966 46.6555 28.8686 46.7875C29.0205 47.0634 29.1645 47.3474 29.3045 47.6274C29.4405 47.9074 29.5685 48.1913 29.6925 48.4753C29.8205 48.7593 29.9284 49.0473 30.0404 49.3352C30.1524 49.6192 30.2524 49.9152 30.3564 50.2071C30.4564 50.4951 30.5444 50.791 30.6324 51.087C30.7204 51.383 30.8044 51.679 30.8803 51.9829L30.8963 52.0549C30.9403 52.2389 30.8324 52.4189 30.6484 52.4669C30.6164 52.4789 30.5804 52.4789 30.5444 52.4789C30.1604 52.4549 29.7725 52.4269 29.3845 52.3909C29.1925 52.3709 28.9965 52.3469 28.8046 52.3269C28.7046 52.3149 28.6086 52.2989 28.5126 52.2869C28.4126 52.2749 28.3166 52.2629 28.2206 52.2429C28.3166 52.2109 28.4086 52.1909 28.5046 52.1669C28.6006 52.1429 28.6926 52.1149 28.7886 52.0949C28.9765 52.0509 29.1685 52.0029 29.3605 51.9629C29.5685 51.9149 29.7805 51.875 29.9884 51.835L29.7925 51.415L29.4045 50.5951L29.0125 49.7872L28.6046 48.9872C28.4726 48.7233 28.3286 48.4673 28.1886 48.2033L27.9727 47.8194L27.7527 47.4354C27.6807 47.3074 27.6047 47.1914 27.5327 47.0714L27.4207 46.8915L27.2927 46.7075L27.1647 46.5195L27.0887 46.4035C27.0567 46.3555 27.0248 46.2955 26.9968 46.2355C26.8808 45.9996 26.8288 45.6836 26.8808 45.4156C26.9208 45.1396 27.0408 44.9237 27.1607 44.7437C27.2807 44.5677 27.4167 44.4277 27.5527 44.2997C27.8247 44.0478 28.1086 43.8678 28.3926 43.6998C28.9645 43.3718 29.5445 43.1319 30.1364 42.9239C30.4324 42.8199 30.7284 42.7279 31.0283 42.6439C31.3283 42.5639 31.6283 42.4879 31.9322 42.4239C32.1402 42.3799 32.3522 42.34 32.5642 42.304C32.6042 42.34 32.6402 42.3919 32.6642 42.4519C32.7002 42.5479 32.6482 42.6599 32.5922 42.7519C32.4402 42.8279 32.2842 42.9079 32.1322 42.9839L31.3243 43.3958C31.0563 43.5318 30.7884 43.6718 30.5284 43.8118C30.2684 43.9558 30.0084 44.0918 29.7605 44.2437C29.5045 44.3917 29.2645 44.5437 29.0365 44.7037C28.8046 44.8597 28.5926 45.0357 28.4286 45.2077C28.3446 45.2916 28.2766 45.3756 28.2286 45.4516C28.1806 45.5276 28.1606 45.5916 28.1566 45.6156L28.1526 45.6116Z" fill="#893A1C"/>
<g style="mix-blend-mode:multiply">
<path d="M32.5922 42.7479C32.4402 42.8239 32.2842 42.9039 32.1322 42.9799L31.3243 43.3918C31.0564 43.5278 30.7884 43.6678 30.5284 43.8078C30.2684 43.9518 30.0085 44.0878 29.7605 44.2397C29.5045 44.3877 29.2645 44.5397 29.0366 44.6997C28.8046 44.8557 28.5926 45.0317 28.4286 45.2036C28.3446 45.2876 28.2766 45.3716 28.2287 45.4476C28.1807 45.5236 28.1607 45.5836 28.1567 45.6076C28.1287 45.5836 28.0967 45.5596 28.0687 45.5356C27.3527 44.9557 29.4165 43.9558 29.7925 43.7838C30.2484 43.5718 30.7244 43.4038 31.1843 43.1999C31.5203 43.0519 32.0003 42.8719 32.2162 42.5519C32.2682 42.4759 32.3002 42.4119 32.3122 42.3519C32.3962 42.3359 32.4802 42.316 32.5682 42.304C32.6082 42.34 32.6442 42.3919 32.6682 42.4519C32.7042 42.5479 32.6522 42.6599 32.5962 42.7519L32.5922 42.7479Z" fill="#893A1C"/>
</g>
<g style="mix-blend-mode:multiply">
<path d="M30.9004 52.0549C30.9444 52.2389 30.8364 52.4189 30.6524 52.4669C30.6204 52.4789 30.5844 52.4789 30.5484 52.4789C30.3644 52.4669 30.1805 52.4549 29.9925 52.4389C30.0405 51.739 30.1045 51.035 30.0485 50.3191C30.0125 49.8432 29.9565 49.3632 29.8645 48.8953C29.9245 49.0432 29.9805 49.1872 30.0405 49.3392C30.1525 49.6232 30.2525 49.9192 30.3565 50.2111C30.4564 50.4991 30.5444 50.7951 30.6324 51.091C30.7204 51.387 30.8044 51.683 30.8804 51.9869L30.8964 52.0589L30.9004 52.0549Z" fill="#893A1C"/>
</g>
<path d="M28.0485 47.3554C27.6926 46.8394 27.2326 46.2115 27.1246 45.5796C27.0487 45.1196 27.4046 44.7836 27.7006 44.4917C27.7126 44.4797 27.7326 44.4877 27.7246 44.5037C27.3926 45.0276 27.3326 45.4476 27.5766 46.0235C27.7566 46.4555 27.9126 46.8714 28.1485 47.2834C28.1765 47.3354 28.0845 47.4074 28.0485 47.3554Z" fill="#B74C2A"/>
<path d="M42.507 47.7434C42.943 49.7352 43.9629 51.591 45.1948 53.1868C47.6105 56.3265 50.7942 58.7743 53.2899 61.8459C55.4457 64.5017 57.7694 68.2813 56.2936 71.8049C55.5137 73.6647 53.4739 74.9165 51.4701 75.0125C49.8223 75.0925 47.8385 74.4286 46.5266 73.4607C45.2987 72.5528 44.3148 71.2809 43.5589 69.9731C40.5832 64.8296 38.9714 58.8103 38.3235 52.9309C38.1555 51.383 38.0435 49.8232 38.0915 48.2674C38.1155 47.5834 38.0395 46.6515 38.2875 45.9916C39.1634 43.6638 41.3992 42.6879 42.507 47.7394V47.7434Z" fill="#A1613D"/>
<path d="M39.0715 57.7143C38.8075 56.3985 38.5876 55.0786 38.4236 53.7588C40.3394 54.5267 42.8471 53.6268 44.411 52.0869C44.6589 52.4669 44.9229 52.8348 45.1949 53.1908C45.6748 53.8107 46.1788 54.4027 46.7027 54.9786C44.9349 57.2624 41.4473 59.1222 39.0635 57.7183L39.0715 57.7143Z" fill="#372009"/>
<path d="M41.0553 64.6576C40.6753 63.6577 40.3354 62.6418 40.0354 61.6099C41.5192 62.0819 43.2311 61.7739 44.6909 61.17C46.4187 60.454 48.2145 59.1982 49.2104 57.5344C49.8504 58.1663 50.4943 58.7982 51.1182 59.4421C50.3623 61.286 48.6705 62.8818 47.1347 63.9137C45.3428 65.1215 42.8751 65.8975 41.0553 64.6616V64.6576Z" fill="#372009"/>
<path d="M43.5589 69.9811C43.323 69.5731 43.095 69.1571 42.875 68.7372C45.2108 69.2731 47.8545 68.6732 49.8303 67.3813C51.4181 66.3414 52.65 64.8176 53.5779 63.1738C53.6779 62.9978 53.7859 62.8138 53.8938 62.6218C54.3458 63.2218 54.7857 63.8577 55.1777 64.5296C54.9457 65.1216 54.6698 65.6975 54.3658 66.2535C53.5019 67.8413 52.33 69.3531 50.8302 70.381C49.2823 71.4449 47.0626 72.2408 45.0508 72.0888C44.4788 71.4369 43.9789 70.717 43.5549 69.9811H43.5589Z" fill="#372009"/>
<path d="M56.5935 67.9773C56.8615 69.2492 56.8255 70.545 56.2935 71.8129C55.5136 73.6727 53.4738 74.9246 51.47 75.0205C50.4061 75.0725 49.2023 74.8126 48.1304 74.3606C51.614 74.1366 55.2416 71.3169 56.5935 67.9773Z" fill="#372009"/>
<g style="mix-blend-mode:multiply" opacity="0.4">
<path fill-rule="evenodd" clip-rule="evenodd" d="M56.2936 71.8089C55.5137 73.6687 53.4739 74.9205 51.4701 75.0165C49.8223 75.0965 47.8385 74.4326 46.5266 73.4647C45.2987 72.5568 44.3148 71.2849 43.5589 69.977C40.5832 64.8336 38.9714 58.8142 38.3235 52.9348C38.1555 51.387 38.0435 49.8272 38.0915 48.2713C38.1155 47.5874 38.0395 46.6555 38.2875 45.9956C39.1634 43.6678 41.3992 42.6919 42.507 47.7434C42.943 49.7352 43.9629 51.591 45.1948 53.1868C47.6105 56.3265 50.7942 58.7742 53.2899 61.8459C55.4457 64.5016 57.7694 68.2812 56.2936 71.8049V71.8089ZM51.8741 67.7893C51.1981 66.9334 50.3982 66.1894 49.6903 65.3655C48.7504 64.2656 47.9505 63.0218 47.1066 61.8539C46.2226 60.626 45.3587 59.3782 44.5468 58.1063C43.8069 56.9384 43.203 55.6945 42.431 54.5507C41.9471 53.8307 41.2472 52.9148 40.3473 52.7189C39.5793 52.5549 39.4394 53.5308 39.3834 54.0627C39.2474 55.3986 39.5114 56.7624 39.9633 58.0663C40.3553 60.1221 40.9552 62.1419 41.7271 64.0856C42.715 66.5614 43.9549 69.0811 45.7627 71.0649C47.1665 72.6008 49.5703 74.3246 51.6981 73.1607C52.566 72.6807 52.9739 71.7169 53.0299 70.7649C53.0899 69.6651 52.534 68.6212 51.8701 67.7893H51.8741Z" fill="#A1613D"/>
</g>
<g style="mix-blend-mode:multiply" opacity="0.4">
<path d="M38.2876 52.5869C38.1396 51.155 38.0476 49.7112 38.0916 48.2713C38.1156 47.5874 38.0396 46.6555 38.2876 45.9956C39.1635 43.6678 41.3993 42.6919 42.5071 47.7434C42.9431 49.7352 43.963 51.591 45.1949 53.1868C47.6106 56.3265 50.7943 58.7742 53.29 61.8459C55.4378 64.4896 57.7495 68.2492 56.3097 71.7648C56.1817 69.7571 54.6219 67.4373 53.446 65.9975C52.8581 65.2855 52.2101 64.6416 51.5742 63.9777C50.4303 62.7858 49.3464 61.5379 48.2945 60.2661C47.1986 58.9422 46.1468 57.5863 45.1109 56.2185C44.3709 55.2386 43.767 54.1707 43.0271 53.1948C42.1152 51.9909 40.3874 50.8111 38.9115 51.851C38.6356 52.0389 38.4356 52.2949 38.2796 52.5829L38.2876 52.5869Z" fill="#A1613D"/>
</g>
<path d="M39.6514 51.095C37.4637 51.079 35.2199 50.3311 33.4121 49.1473C30.4964 47.2355 30.1124 43.3919 31.6843 40.7681C31.6843 40.7521 32.8642 41.4801 32.8722 41.4561C33.8081 39.7642 34.8279 37.7644 36.8957 37.2405C39.2555 36.6446 41.6272 37.5245 43.759 38.4604C45.3388 39.1563 46.6627 39.9962 47.2986 41.3841C47.7666 43.6758 46.8507 46.3715 45.3668 48.1034C43.955 49.7512 41.8472 50.7511 39.6554 51.091L39.6514 51.095Z" fill="#012742"/>
<g style="mix-blend-mode:multiply" opacity="0.6">
<path fill-rule="evenodd" clip-rule="evenodd" d="M45.3667 48.1033C43.9549 49.7511 41.8471 50.751 39.6554 51.091C37.4676 51.075 35.2238 50.3271 33.416 49.1432C30.5003 47.2314 30.1164 43.3878 31.6882 40.7641C31.6882 40.7481 32.8681 41.476 32.8761 41.452C33.812 39.7602 34.8319 37.7604 36.8996 37.2365C39.2594 36.6405 41.6311 37.5204 43.7629 38.4563C45.3428 39.1523 46.6666 39.9922 47.3025 41.38C47.7705 43.6718 46.8546 46.3675 45.3707 48.0993L45.3667 48.1033ZM41.1872 45.4196C40.3873 45.1196 39.4714 45.0796 38.6275 44.9797C37.7516 44.8797 36.8636 44.8157 35.9797 44.8437C35.1638 44.8677 34.1319 44.9517 33.476 45.5036C32.2561 46.5355 33.532 48.0433 34.3919 48.7513C35.4438 49.6232 36.8476 50.0431 38.2035 50.0751C39.9033 50.1151 42.1551 49.3272 42.559 47.3874C42.763 46.4275 42.0071 45.7196 41.1872 45.4196Z" fill="#012742"/>
</g>
<path d="M49.6864 30.7252C50.0623 31.6531 49.7944 34.2848 49.6824 34.1968C49.2584 33.8489 49.0105 33.3449 48.5665 32.9889C48.5105 32.9449 48.4545 32.905 48.4025 32.861C48.6705 33.3769 48.8465 33.9248 48.8905 34.3928C49.0185 35.7886 47.7746 38.7483 47.7546 38.5564C47.6826 37.8044 47.5986 37.0925 47.4306 36.4126C47.5106 37.4205 47.3506 38.4524 46.9467 39.3563C46.4747 40.4242 45.3508 42.304 44.067 42.504C43.931 42.5279 44.043 41.712 44.083 41.4001C43.623 42.272 43.0031 43.0559 42.3192 43.5998C41.9072 43.9318 41.3993 42.396 41.3033 41.948C41.1633 43.2039 40.8353 45.0117 39.5914 44.6437C38.7035 44.3797 37.6637 43.9278 36.8317 43.2759C36.8437 43.4918 36.8517 43.7078 36.8557 43.9238C36.8637 44.2878 36.7038 45.2397 36.6158 45.2357C35.8238 45.1677 35.0519 44.6677 34.38 44.2758C33.6081 43.8238 32.9841 43.3959 32.4882 42.6319C32.3722 42.448 32.2682 42.272 32.1722 42.1C32.2322 42.6319 32.0402 44.2678 31.6683 44.0838C30.6764 43.5918 29.5005 42.7079 29.0086 41.64C28.9926 41.94 28.9846 42.244 28.9966 42.5519C29.0286 43.2039 29.0486 44.8197 28.9486 44.7517C27.3327 43.6478 26.3928 42.316 26.3648 40.3002C26.3648 40.1562 26.3568 40.0042 26.3528 39.8482C26.2649 40.2242 26.2009 40.6001 26.1489 40.9921C26.0729 41.608 25.8089 43.0719 25.7009 43.0279C24.929 42.6959 24.645 41.1721 24.533 40.4322C24.425 39.7362 24.445 39.0603 24.529 38.3884C24.3891 38.8323 24.2611 39.2803 24.1611 39.7362C24.0811 40.1002 23.4971 40.7681 23.4651 40.6641C22.9132 38.9803 23.0652 37.2125 23.7491 35.6207C23.3292 36.1846 22.1373 37.4885 22.1253 37.2805C22.0533 36.1486 22.3653 35.0527 22.8572 34.0328C22.6052 34.2408 22.3493 34.4528 22.1053 34.6728C21.8213 34.9287 21.0214 35.2127 21.0254 35.1647C21.2854 33.5009 21.5533 31.9691 22.5092 30.5252C22.9732 29.8213 23.4931 29.1974 24.1211 28.6294C24.521 28.2694 25.001 27.9575 25.4369 27.6095C24.941 27.8175 24.421 27.9975 23.9331 28.2175C23.3332 28.4894 22.0013 29.0694 22.0093 28.9854C22.1013 28.0455 23.0492 27.1976 23.6891 26.5736C24.3571 25.9177 25.061 25.2898 25.8249 24.7378C24.881 25.0858 22.8812 25.7097 22.9092 25.6537C23.2692 24.9058 24.2291 24.2819 24.873 23.8139C25.173 23.5939 25.4809 23.386 25.8009 23.198C26.6288 22.614 27.5007 22.0901 28.4366 21.6701C30.6444 20.6783 32.9961 20.2503 35.4039 20.0663C37.8076 19.8863 40.2954 19.8223 42.6751 20.3023C43.807 20.5303 44.9189 20.8302 45.9748 21.2942C46.6987 21.6102 47.6146 21.9141 48.2105 22.4501C48.2905 22.522 47.6546 22.85 47.3666 22.922C47.1627 22.974 46.9627 23.022 46.7667 23.078C46.8507 23.126 46.9307 23.174 47.0107 23.226C47.7266 23.7059 48.3705 24.3738 48.7625 25.1458C48.9585 25.5337 49.4744 26.1097 49.2824 26.5616C49.2504 26.6336 48.9865 26.7336 48.9385 26.7256C49.5904 27.6095 49.9664 28.7294 50.1463 29.7853C50.1743 29.9333 49.4864 30.0893 49.2784 30.0053C49.4344 30.2172 49.5744 30.4532 49.6864 30.7292V30.7252Z" fill="#004673"/>
<path d="M48.4745 28.8054C47.6746 28.4574 46.6907 28.6414 45.9028 28.9254C45.8068 28.9614 47.3186 29.7533 47.6226 30.4652C47.1466 30.2132 45.9588 30.1012 45.9988 30.1652C46.4707 30.9091 46.8347 31.6931 46.9467 32.573C47.0387 33.2729 46.9267 33.9768 46.7467 34.6568C46.6147 34.2088 45.8988 33.3649 45.9348 33.4889C46.2747 34.8047 46.0508 36.0006 45.7148 37.2645C45.4588 36.3286 44.107 34.8727 44.099 34.9447C43.879 36.3286 44.023 37.7524 43.575 39.0723C43.2031 38.0324 42.0192 36.0966 42.0432 36.1926C42.3231 37.3405 42.8591 38.6323 42.5671 39.8282C41.3952 39.0243 40.0074 36.2886 39.9914 36.4086C39.7674 38.0124 39.7354 39.7402 39.0875 41.2401C38.3076 40.2642 37.8236 38.9603 37.6556 37.7604C37.6396 37.6565 36.7237 40.4562 35.6559 41.2601C35.6439 40.0162 35.3439 37.4605 35.3319 37.5765C35.1799 39.1883 34.8159 40.7641 34.576 42.36C32.9721 41.1641 31.9802 39.2963 31.7643 37.3045C31.7483 37.1645 31.1443 39.8522 30.6284 40.9921C29.9924 39.5602 29.9884 36.2766 29.9045 36.3606C29.0605 37.2245 28.4846 38.3324 28.0567 39.4523C27.8327 40.0442 27.6447 40.6921 27.5687 41.344C27.1207 39.9362 27.2167 38.4004 27.2207 36.9245C27.2207 36.8085 25.8329 38.7523 25.4689 39.8082C25.4649 38.1604 26.2208 34.8287 26.1529 34.9247C25.5649 35.7686 25.085 36.6806 24.545 37.5565C24.461 36.0286 25.7609 32.8809 25.6489 32.9409C24.765 33.4089 24.1011 34.1728 23.2612 34.7048C23.5651 33.2489 25.109 30.4532 24.997 30.5092C24.1011 30.9812 23.3571 31.6611 22.6052 32.329C23.0532 29.7293 25.4809 28.0974 27.2927 26.4096C27.3647 26.3456 27.3087 26.2256 27.2167 26.2256C26.0649 26.2096 25.045 26.7576 23.9611 27.0536C24.713 26.3376 25.4649 25.6257 26.2768 24.9738C26.2928 24.9698 26.3048 24.9618 26.3208 24.9498C26.3648 24.9098 26.4128 24.8738 26.4608 24.8338C26.5888 24.7338 26.7128 24.6338 26.8408 24.5378C26.8608 24.5218 26.8728 24.5018 26.8808 24.4818C32.0802 20.3263 39.3155 21.1622 45.2988 23.122C44.5069 23.5779 43.467 23.8859 43.1271 24.7938C43.1031 24.8578 43.1631 24.9378 43.2311 24.9298C44.4389 24.8138 46.3547 24.3978 47.3426 25.3457C46.4787 25.4977 45.4348 25.6017 44.9269 26.3896C44.8869 26.4496 48.3945 27.3895 48.4785 28.8134L48.4745 28.8054Z" fill="#00304F"/>
<path d="M45.8586 25.6497C47.2304 29.2813 43.1189 33.8408 37.7834 34.7807C32.448 35.7166 27.0406 34.3488 25.3088 30.8171C24.1569 28.4614 25.2608 26.0856 28.6244 23.6899C36.7036 18.3665 44.4867 22.0181 45.8586 25.6497Z" fill="#A1613D"/>
<g style="mix-blend-mode:multiply" opacity="0.3">
<path d="M25.6689 26.8856C26.3809 25.6497 27.3688 24.5858 28.6246 23.6899C35.5199 19.1464 42.1992 21.1422 44.8589 24.0819C43.2351 24.5298 41.9792 26.3016 42.0592 28.0374C41.6913 27.5775 41.4433 26.9855 41.5273 26.4096C41.5353 26.3376 41.4793 26.2456 41.3953 26.2776C40.0834 26.7256 38.7756 26.4656 37.5717 25.8417C37.0238 25.5577 36.5038 25.2577 36.0598 24.8258C35.6399 24.4178 35.5519 23.8579 35.1919 23.4259C35.1359 23.3579 35.036 23.4059 35.008 23.4739C34.344 25.2937 33.0322 27.9375 30.6724 27.4015C30.5764 27.3815 30.5084 27.4735 30.5524 27.5575C30.8884 28.2374 30.7484 29.2373 30.0645 29.6253C30.3644 27.2855 27.5288 25.9817 25.6729 26.8896L25.6689 26.8856Z" fill="#7D4C2D"/>
</g>
<g style="mix-blend-mode:multiply">
<path d="M27.2966 25.9737C27.2886 25.9737 27.2726 25.9977 27.2886 25.9977C28.0205 26.0657 28.7244 26.2777 29.3004 26.7496C29.7563 27.1216 29.9883 27.6655 30.2363 28.1775C30.2803 28.2775 30.4323 28.1575 30.4163 28.0735C30.0923 26.6096 28.7124 25.9217 27.3006 25.9777L27.2966 25.9737Z" fill="#7D4C2D"/>
</g>
<path d="M45.8267 2.18418C45.8427 3.47604 45.0947 4.64391 44.3748 5.66381C43.4949 6.90767 42.395 7.98356 41.2391 8.96346C39.4433 10.4833 37.2076 12.4231 36.3637 14.6709C35.4078 17.2146 35.7477 19.6783 35.8357 22.3141C35.8397 22.478 35.4997 22.81 35.4198 22.558C34.7878 20.4863 34.6798 18.2625 35.1398 16.1427C35.3598 15.1348 35.8037 14.3149 36.2877 13.419C36.6596 12.7311 37.1116 12.0711 37.6515 11.4632C38.2595 10.7793 38.9274 10.1433 39.6033 9.5314C41.6391 7.6836 44.7268 5.42383 45.0107 2.44814C45.0667 1.8962 45.0027 1.48024 44.7228 1.00029C44.6068 0.804315 44.1868 0.124386 44.6948 0.0123982C45.1947 -0.0955904 45.4947 0.520348 45.6627 1.14028C45.7787 1.56424 45.8307 1.9882 45.8307 2.18418H45.8267Z" fill="#412510"/>
<g style="mix-blend-mode:multiply">
<path d="M43.9909 24.1978C43.5309 24.4978 42.975 24.7618 42.659 25.2337C42.315 25.7417 42.1311 26.2336 42.0071 26.8296C41.9871 26.9136 41.8151 27.0495 41.7871 26.9016C41.6671 26.2336 41.9751 25.5737 42.415 25.0777C42.863 24.5698 43.3749 24.3818 43.9869 24.1658C44.0109 24.1578 44.0109 24.1858 43.9989 24.1978H43.9909Z" fill="#7D4C2D"/>
</g>
<path d="M34.9918 22.494C34.6319 24.3498 33.332 26.9336 31.0162 27.0415C30.2843 27.0735 29.2244 26.5976 28.6925 26.1176C26.6167 24.2378 27.1446 19.9663 28.1485 17.6865C28.8085 16.1947 30.6083 14.6908 32.2081 15.0348C35.2158 15.6867 35.4198 20.2943 34.9878 22.498L34.9918 22.494Z" fill="#CACACA"/>
<path d="M34.5998 22.338C34.2758 23.9979 33.112 26.3136 31.0442 26.4096C30.3882 26.4376 29.4443 26.0137 28.9644 25.5817C27.1086 23.8979 27.5765 20.0783 28.4764 18.0345C29.0684 16.6986 30.6842 15.3548 32.1121 15.6627C34.8038 16.2467 34.9878 20.3702 34.6038 22.342L34.5998 22.338Z" fill="white"/>
<path d="M43.279 20.4183C43.599 22.2781 43.307 25.1618 41.1792 26.0817C40.5073 26.3737 39.3474 26.3017 38.6795 26.0417C36.0718 25.0218 35.0479 20.8463 35.1759 18.3545C35.2639 16.7267 36.4117 14.6829 38.0276 14.4349C41.0713 13.975 42.8951 18.2065 43.279 20.4183Z" fill="#CACACA"/>
<path d="M42.855 20.4102C43.139 22.0781 42.875 24.6578 40.9752 25.4817C40.3713 25.7417 39.3354 25.6817 38.7354 25.4457C36.4037 24.5298 35.4838 20.7942 35.5998 18.5624C35.6758 17.1026 36.7076 15.2748 38.1515 15.0508C40.8752 14.6428 42.511 18.4305 42.855 20.4062V20.4102Z" fill="white"/>
<path d="M33.284 21.8181C33.22 23.426 32.4521 24.6818 31.5762 24.6258C30.6843 24.5698 30.0203 23.218 30.0843 21.6102C30.1443 20.0063 30.9123 18.7465 31.7922 18.8025C32.6761 18.8545 33.348 20.2063 33.288 21.8181H33.284Z" fill="#1D1D1B"/>
<path d="M31.4442 20.4383C31.3322 20.9142 31.0323 21.2502 30.7723 21.1942C30.5083 21.1382 30.3843 20.7022 30.4923 20.2303C30.6083 19.7583 30.9083 19.4224 31.1762 19.4744C31.4282 19.5344 31.5522 19.9663 31.4442 20.4383Z" fill="white"/>
<path d="M40.8513 20.9222C41.1672 22.5021 40.7153 23.9059 39.8514 24.0539C38.9715 24.2099 38.0076 23.054 37.6916 21.4742C37.3756 19.8983 37.8276 18.4945 38.6995 18.3465C39.5714 18.1905 40.5393 19.3464 40.8553 20.9222H40.8513Z" fill="#1D1D1B"/>
<path d="M38.7435 20.0143C38.7435 20.5023 38.5315 20.9022 38.2635 20.9062C37.9916 20.9102 37.7716 20.5223 37.7676 20.0343C37.7676 19.5424 37.9836 19.1464 38.2555 19.1384C38.5155 19.1384 38.7395 19.5264 38.7435 20.0143Z" fill="white"/>
<g style="mix-blend-mode:multiply" opacity="0.5">
<path d="M30.3603 30.0253C30.7363 30.5252 32.1441 30.5252 34.5919 30.0253C37.0356 29.5213 39.6593 28.5974 42.467 27.2496C42.651 27.1216 42.763 27.1696 42.811 27.3935C42.1711 27.7975 41.7151 28.4214 41.4392 29.2653C41.0272 30.5372 41.3312 32.401 37.8915 33.6649C34.4479 34.9287 32.968 33.4849 31.8082 32.225C31.0323 31.3811 30.3723 30.7452 29.8324 30.3132C29.6404 29.8333 29.8164 29.7373 30.3643 30.0253H30.3603Z" fill="#7D4C2D"/>
</g>
<path d="M30.2363 30.4092C31.6802 31.1171 33.664 30.7092 35.1358 30.3892C37.6635 29.8292 40.1633 28.9614 42.3431 27.5415C41.5911 28.1854 40.9832 28.9693 40.6792 29.9652C40.3873 30.9211 40.1473 31.757 39.3674 32.441C38.6314 33.0769 37.6875 33.4409 36.7516 33.6609C35.0998 34.0528 33.736 33.6809 32.4801 32.561C31.7042 31.8691 31.0242 31.0811 30.2403 30.4092H30.2363Z" fill="#C51C2F"/>
<path d="M40.1912 31.3371C39.9993 31.7371 39.7513 32.105 39.3713 32.437C38.6354 33.0729 37.6915 33.4369 36.7556 33.6569C35.5917 33.9328 34.5678 33.8288 33.6279 33.3489C33.9639 32.113 35.3397 31.3171 36.5156 31.0131C37.7475 30.6972 39.0434 30.8452 40.1952 31.3331L40.1912 31.3371Z" fill="#F19798"/>
<path d="M35.6678 32.841C35.5558 32.941 35.4239 33.017 35.2839 33.049C35.0959 33.0929 34.8479 33.049 34.7639 32.849C34.6039 32.469 34.9279 32.0771 35.1999 31.8371C35.4399 31.6291 36.0078 31.5611 36.1438 31.9331C36.2678 32.277 35.9798 32.653 35.6718 32.841H35.6678Z" fill="white"/>
<path d="M36.7956 31.5931C36.7596 31.6411 36.7116 31.6771 36.6516 31.6731C36.6436 31.6731 36.6356 31.6691 36.6196 31.6651C36.6156 31.6611 36.6156 31.6611 36.6116 31.6571C36.6076 31.6571 36.6036 31.6571 36.5996 31.6571C36.5877 31.6491 36.5757 31.6491 36.5637 31.6371C36.5397 31.6131 36.5437 31.5771 36.5637 31.5451C36.5637 31.5371 36.5637 31.5331 36.5717 31.5211C36.6036 31.4411 36.6636 31.3771 36.7516 31.3651C36.9076 31.3451 36.8716 31.5211 36.7916 31.5931H36.7956Z" fill="white"/>
<path d="M42.507 47.7434C42.943 49.7352 43.9629 51.591 45.1948 53.1868C47.6105 56.3265 50.7942 58.7743 53.2899 61.8459C55.4457 64.5017 57.7694 68.2813 56.2936 71.8049C55.5137 73.6647 53.4739 74.9165 51.4701 75.0125C49.8223 75.0925 47.8385 74.4286 46.5266 73.4607C45.2987 72.5528 44.3148 71.2809 43.5589 69.9731C40.5832 64.8296 38.9714 58.8103 38.3235 52.9309C38.1555 51.383 38.0435 49.8232 38.0915 48.2674C38.1155 47.5834 38.0395 46.6515 38.2875 45.9916C39.1634 43.6638 41.3992 42.6879 42.507 47.7394V47.7434Z" fill="#5C8988"/>
<path d="M39.0715 57.7143C38.8075 56.3985 38.5876 55.0786 38.4236 53.7588C40.3394 54.5267 42.8471 53.6268 44.411 52.0869C44.6589 52.4669 44.9229 52.8348 45.1949 53.1908C45.6748 53.8107 46.1788 54.4027 46.7027 54.9786C44.9349 57.2624 41.4473 59.1222 39.0635 57.7183L39.0715 57.7143Z" fill="#372009"/>
<path d="M41.0553 64.6576C40.6753 63.6577 40.3354 62.6418 40.0354 61.6099C41.5192 62.0819 43.2311 61.7739 44.6909 61.17C46.4187 60.454 48.2145 59.1982 49.2104 57.5344C49.8504 58.1663 50.4943 58.7982 51.1182 59.4421C50.3623 61.286 48.6705 62.8818 47.1347 63.9137C45.3428 65.1215 42.8751 65.8975 41.0553 64.6616V64.6576Z" fill="#372009"/>
<path d="M43.5589 69.9811C43.323 69.5731 43.095 69.1571 42.875 68.7372C45.2108 69.2731 47.8545 68.6732 49.8303 67.3813C51.4181 66.3414 52.65 64.8176 53.5779 63.1738C53.6779 62.9978 53.7859 62.8138 53.8938 62.6218C54.3458 63.2218 54.7857 63.8577 55.1777 64.5296C54.9457 65.1216 54.6698 65.6975 54.3658 66.2535C53.5019 67.8413 52.33 69.3531 50.8302 70.381C49.2823 71.4449 47.0626 72.2408 45.0508 72.0888C44.4788 71.4369 43.9789 70.717 43.5549 69.9811H43.5589Z" fill="#372009"/>
<path d="M56.5935 67.9773C56.8615 69.2492 56.8255 70.545 56.2935 71.8129C55.5136 73.6727 53.4738 74.9246 51.47 75.0205C50.4061 75.0725 49.2023 74.8126 48.1304 74.3606C51.614 74.1366 55.2416 71.3169 56.5935 67.9773Z" fill="#372009"/>
<g style="mix-blend-mode:multiply" opacity="0.4">
<path fill-rule="evenodd" clip-rule="evenodd" d="M56.2936 71.8089C55.5137 73.6687 53.4739 74.9205 51.4701 75.0165C49.8223 75.0965 47.8385 74.4326 46.5266 73.4647C45.2987 72.5568 44.3148 71.2849 43.5589 69.977C40.5832 64.8336 38.9714 58.8142 38.3235 52.9348C38.1555 51.387 38.0435 49.8272 38.0915 48.2713C38.1155 47.5874 38.0395 46.6555 38.2875 45.9956C39.1634 43.6678 41.3992 42.6919 42.507 47.7434C42.943 49.7352 43.9629 51.591 45.1948 53.1868C47.6105 56.3265 50.7942 58.7742 53.2899 61.8459C55.4457 64.5016 57.7694 68.2812 56.2936 71.8049V71.8089ZM51.8741 67.7893C51.1981 66.9334 50.3982 66.1894 49.6903 65.3655C48.7504 64.2656 47.9505 63.0218 47.1066 61.8539C46.2226 60.626 45.3587 59.3782 44.5468 58.1063C43.8069 56.9384 43.203 55.6945 42.431 54.5507C41.9471 53.8307 41.2472 52.9148 40.3473 52.7189C39.5793 52.5549 39.4394 53.5308 39.3834 54.0627C39.2474 55.3986 39.5114 56.7624 39.9633 58.0663C40.3553 60.1221 40.9552 62.1419 41.7271 64.0856C42.715 66.5614 43.9549 69.0811 45.7627 71.0649C47.1665 72.6008 49.5703 74.3246 51.6981 73.1607C52.566 72.6807 52.9739 71.7169 53.0299 70.7649C53.0899 69.6651 52.534 68.6212 51.8701 67.7893H51.8741Z" fill="#9F9F9F"/>
</g>
<g style="mix-blend-mode:multiply" opacity="0.4">
<path d="M38.2876 52.5869C38.1396 51.155 38.0476 49.7112 38.0916 48.2713C38.1156 47.5874 38.0396 46.6555 38.2876 45.9956C39.1635 43.6678 41.3993 42.6919 42.5071 47.7434C42.9431 49.7352 43.963 51.591 45.1949 53.1868C47.6106 56.3265 50.7943 58.7742 53.29 61.8459C55.4378 64.4896 57.7495 68.2492 56.3097 71.7648C56.1817 69.7571 54.6219 67.4373 53.446 65.9975C52.8581 65.2855 52.2101 64.6416 51.5742 63.9777C50.4303 62.7858 49.3464 61.5379 48.2945 60.2661C47.1986 58.9422 46.1468 57.5863 45.1109 56.2185C44.3709 55.2386 43.767 54.1707 43.0271 53.1948C42.1152 51.9909 40.3874 50.8111 38.9115 51.851C38.6356 52.0389 38.4356 52.2949 38.2796 52.5829L38.2876 52.5869Z" fill="#9F9F9F"/>
</g>
<path d="M39.6514 51.095C37.4637 51.079 35.2199 50.3311 33.4121 49.1473C30.4964 47.2355 30.1124 43.3919 31.6843 40.7681C31.6843 40.7521 32.8642 41.4801 32.8722 41.4561C33.8081 39.7642 34.8279 37.7644 36.8957 37.2405C39.2555 36.6446 41.6272 37.5245 43.759 38.4604C45.3388 39.1563 46.6627 39.9962 47.2986 41.3841C47.7666 43.6758 46.8507 46.3715 45.3668 48.1034C43.955 49.7512 41.8472 50.7511 39.6554 51.091L39.6514 51.095Z" fill="#012742"/>
<g style="mix-blend-mode:multiply" opacity="0.6">
<path fill-rule="evenodd" clip-rule="evenodd" d="M45.3667 48.1033C43.9549 49.7511 41.8471 50.751 39.6554 51.091C37.4676 51.075 35.2238 50.3271 33.416 49.1432C30.5003 47.2314 30.1164 43.3878 31.6882 40.7641C31.6882 40.7481 32.8681 41.476 32.8761 41.452C33.812 39.7602 34.8319 37.7604 36.8996 37.2365C39.2594 36.6405 41.6311 37.5204 43.7629 38.4563C45.3428 39.1523 46.6666 39.9922 47.3025 41.38C47.7705 43.6718 46.8546 46.3675 45.3707 48.0993L45.3667 48.1033ZM41.1872 45.4196C40.3873 45.1196 39.4714 45.0796 38.6275 44.9797C37.7516 44.8797 36.8636 44.8157 35.9797 44.8437C35.1638 44.8677 34.1319 44.9517 33.476 45.5036C32.2561 46.5355 33.532 48.0433 34.3919 48.7513C35.4438 49.6232 36.8476 50.0431 38.2035 50.0751C39.9033 50.1151 42.1551 49.3272 42.559 47.3874C42.763 46.4275 42.0071 45.7196 41.1872 45.4196Z" fill="#012742"/>
</g>
<path d="M49.2784 30.0013C49.4344 30.2132 49.5744 30.4492 49.6864 30.7252C50.0623 31.6531 49.7944 34.2848 49.6824 34.1968C49.2584 33.8489 49.0105 33.3449 48.5665 32.9889C48.5105 32.9449 48.4545 32.905 48.4025 32.861C48.6705 33.3769 48.8465 33.9248 48.8905 34.3928C49.0185 35.7886 47.7746 38.7483 47.7546 38.5564C47.6826 37.8044 47.5986 37.0925 47.4306 36.4126C47.5106 37.4205 47.3506 38.4524 46.9467 39.3563C46.4747 40.4242 45.3508 42.304 44.067 42.504C43.931 42.5279 44.043 41.712 44.083 41.4001C43.623 42.272 43.0031 43.0559 42.3192 43.5998C41.9072 43.9318 41.3993 42.396 41.3033 41.948C41.1633 43.2039 40.8353 45.0117 39.5914 44.6437C38.7035 44.3797 37.6637 43.9278 36.8317 43.2759C36.8437 43.4918 36.8517 43.7078 36.8557 43.9238C36.8637 44.2878 36.7038 45.2397 36.6158 45.2357C35.8238 45.1677 35.0519 44.6677 34.38 44.2758C33.6081 43.8238 32.9841 43.3959 32.4882 42.6319C32.3722 42.448 32.2682 42.272 32.1722 42.1C32.2322 42.6319 32.0402 44.2678 31.6683 44.0838C30.6764 43.5918 29.5005 42.7079 29.0086 41.64C28.9926 41.94 28.9846 42.244 28.9966 42.5519C29.0286 43.2039 29.0486 44.8197 28.9486 44.7517C27.3327 43.6478 26.3928 42.316 26.3648 40.3002C26.3648 40.1562 26.3568 40.0042 26.3528 39.8482C26.2649 40.2242 26.2009 40.6001 26.1489 40.9921C26.0729 41.608 25.8089 43.0719 25.7009 43.0279C24.929 42.6959 24.645 41.1721 24.533 40.4322C24.425 39.7362 24.445 39.0603 24.529 38.3884C24.3891 38.8323 24.2611 39.2803 24.1611 39.7362C24.0811 40.1002 23.4971 40.7681 23.4651 40.6641C22.9132 38.9803 23.0652 37.2125 23.7491 35.6207C23.3292 36.1846 22.1373 37.4885 22.1253 37.2805C22.0533 36.1486 22.3653 35.0527 22.8572 34.0328C22.6052 34.2408 22.3493 34.4528 22.1053 34.6728C21.8213 34.9287 21.0214 35.2127 21.0254 35.1647C21.2854 33.5009 21.5533 31.9691 22.5092 30.5252C22.9732 29.8213 23.4931 29.1974 24.1211 28.6294C24.521 28.2694 25.001 27.9575 25.4369 27.6095C24.941 27.8175 24.421 27.9975 23.9331 28.2175C23.3332 28.4894 22.0013 29.0694 22.0093 28.9854C22.1013 28.0455 23.0492 27.1976 23.6891 26.5736C24.3571 25.9177 25.061 25.2898 25.8249 24.7378C24.881 25.0858 22.8812 25.7097 22.9092 25.6537C23.2692 24.9058 24.2291 24.2819 24.873 23.8139C25.173 23.5939 25.4809 23.386 25.8009 23.198C26.6288 22.614 27.5007 22.0901 28.4366 21.6701C30.6444 20.6783 32.9961 20.2503 35.4039 20.0663C37.8076 19.8863 40.2954 19.8223 42.6751 20.3023C43.807 20.5303 44.9189 20.8302 45.9748 21.2942C46.6987 21.6102 47.6146 21.9141 48.2105 22.4501C48.2905 22.522 47.6546 22.85 47.3666 22.922C47.1627 22.974 46.9627 23.022 46.7667 23.078C46.8507 23.126 46.9307 23.174 47.0107 23.226C47.7266 23.7059 48.3705 24.3738 48.7625 25.1458C48.9585 25.5337 49.4744 26.1097 49.2824 26.5616C49.2504 26.6336 48.9865 26.7336 48.9385 26.7256C49.5904 27.6095 49.9664 28.7294 50.1463 29.7853C50.1743 29.9333 49.4864 30.0893 49.2784 30.0053V30.0013Z" fill="#004673"/>
<path d="M48.4745 28.8054C47.6746 28.4574 46.6907 28.6414 45.9028 28.9254C45.8068 28.9614 47.3186 29.7533 47.6226 30.4652C47.1466 30.2132 45.9588 30.1012 45.9988 30.1652C46.4707 30.9091 46.8347 31.6931 46.9467 32.573C47.0387 33.2729 46.9267 33.9768 46.7467 34.6568C46.6147 34.2088 45.8988 33.3649 45.9348 33.4889C46.2747 34.8047 46.0508 36.0006 45.7148 37.2645C45.4588 36.3286 44.107 34.8727 44.099 34.9447C43.879 36.3286 44.023 37.7524 43.575 39.0723C43.2031 38.0324 42.0192 36.0966 42.0432 36.1926C42.3231 37.3405 42.8591 38.6323 42.5671 39.8282C41.3952 39.0243 40.0074 36.2886 39.9914 36.4086C39.7674 38.0124 39.7354 39.7402 39.0875 41.2401C38.3076 40.2642 37.8236 38.9603 37.6556 37.7604C37.6396 37.6565 36.7237 40.4562 35.6559 41.2601C35.6439 40.0162 35.3439 37.4605 35.3319 37.5765C35.1799 39.1883 34.8159 40.7641 34.576 42.36C32.9721 41.1641 31.9802 39.2963 31.7643 37.3045C31.7483 37.1645 31.1443 39.8522 30.6284 40.9921C29.9924 39.5602 29.9884 36.2766 29.9045 36.3606C29.0605 37.2245 28.4846 38.3324 28.0567 39.4523C27.8327 40.0442 27.6447 40.6921 27.5687 41.344C27.1207 39.9362 27.2167 38.4004 27.2207 36.9245C27.2207 36.8085 25.8329 38.7523 25.4689 39.8082C25.4649 38.1604 26.2208 34.8287 26.1529 34.9247C25.5649 35.7686 25.085 36.6806 24.545 37.5565C24.461 36.0286 25.7609 32.8809 25.6489 32.9409C24.765 33.4089 24.1011 34.1728 23.2612 34.7048C23.5651 33.2489 25.109 30.4532 24.997 30.5092C24.1011 30.9812 23.3571 31.6611 22.6052 32.329C23.0532 29.7293 25.4809 28.0974 27.2927 26.4096C27.3647 26.3456 27.3087 26.2256 27.2167 26.2256C26.0649 26.2096 25.045 26.7576 23.9611 27.0536C24.713 26.3376 25.4649 25.6257 26.2768 24.9738C26.2928 24.9698 26.3048 24.9618 26.3208 24.9498C26.3648 24.9098 26.4128 24.8738 26.4608 24.8338C26.5888 24.7338 26.7128 24.6338 26.8408 24.5378C26.8608 24.5218 26.8728 24.5018 26.8808 24.4818C32.0802 20.3263 39.3155 21.1622 45.2988 23.122C44.5069 23.5779 43.467 23.8859 43.1271 24.7938C43.1031 24.8578 43.1631 24.9378 43.2311 24.9298C44.4389 24.8138 46.3547 24.3978 47.3426 25.3457C46.4787 25.4977 45.4348 25.6017 44.9269 26.3896C44.8869 26.4496 48.3945 27.3895 48.4785 28.8134L48.4745 28.8054Z" fill="#00304F"/>
<path d="M45.8586 25.6497C47.2304 29.2813 43.1189 33.8408 37.7834 34.7807C32.448 35.7166 27.0406 34.3488 25.3088 30.8171C24.1569 28.4614 25.2608 26.0856 28.6244 23.6899C36.7036 18.3665 44.4867 22.0181 45.8586 25.6497Z" fill="#A1613D"/>
<g style="mix-blend-mode:multiply" opacity="0.5">
<path d="M37.7835 34.7807C32.4481 35.7167 27.0406 34.3488 25.3088 30.8172C24.5049 29.1733 25.1648 27.5215 26.1007 26.2216C25.6168 27.7855 25.2208 30.1252 26.3007 31.5211C28.2725 34.0688 32.776 34.6807 35.8717 34.5208C39.9193 34.3128 44.8028 31.8931 45.3347 27.4295C45.4427 26.5376 45.5267 24.8298 44.8828 24.1099C45.3267 24.6058 45.6587 25.1298 45.8587 25.6537C47.2305 29.2853 43.119 33.8449 37.7835 34.7848V34.7807Z" fill="#7D4C2D"/>
</g>
<g style="mix-blend-mode:multiply" opacity="0.3">
<path d="M25.6689 26.8856C26.3809 25.6497 27.3688 24.5858 28.6246 23.6899C35.5199 19.1464 42.1992 21.1422 44.8589 24.0819C43.2351 24.5298 41.9792 26.3016 42.0592 28.0374C41.6913 27.5775 41.4433 26.9855 41.5273 26.4096C41.5353 26.3376 41.4793 26.2456 41.3953 26.2776C40.0834 26.7256 38.7756 26.4656 37.5717 25.8417C37.0238 25.5577 36.5038 25.2577 36.0598 24.8258C35.6399 24.4178 35.5519 23.8579 35.1919 23.4259C35.1359 23.3579 35.036 23.4059 35.008 23.4739C34.344 25.2937 33.0322 27.9375 30.6724 27.4015C30.5764 27.3815 30.5084 27.4735 30.5524 27.5575C30.8884 28.2374 30.7484 29.2373 30.0645 29.6253C30.3644 27.2855 27.5288 25.9817 25.6729 26.8896L25.6689 26.8856Z" fill="#7D4C2D"/>
</g>
<g style="mix-blend-mode:multiply">
<path d="M27.2966 25.9737C27.2886 25.9737 27.2726 25.9977 27.2886 25.9977C28.0205 26.0657 28.7244 26.2777 29.3004 26.7496C29.7563 27.1216 29.9883 27.6655 30.2363 28.1775C30.2803 28.2775 30.4323 28.1575 30.4163 28.0735C30.0923 26.6096 28.7124 25.9217 27.3006 25.9777L27.2966 25.9737Z" fill="#7D4C2D"/>
</g>
<path d="M45.8267 2.18418C45.8427 3.47604 45.0947 4.64391 44.3748 5.66381C43.4949 6.90767 42.395 7.98356 41.2391 8.96346C39.4433 10.4833 37.2076 12.4231 36.3637 14.6709C35.4078 17.2146 35.7477 19.6783 35.8357 22.3141C35.8397 22.478 35.4997 22.81 35.4198 22.558C34.7878 20.4863 34.6798 18.2625 35.1398 16.1427C35.3598 15.1348 35.8037 14.3149 36.2877 13.419C36.6596 12.7311 37.1116 12.0711 37.6515 11.4632C38.2595 10.7793 38.9274 10.1433 39.6033 9.5314C41.6391 7.6836 44.7268 5.42383 45.0107 2.44814C45.0667 1.8962 45.0027 1.48024 44.7228 1.00029C44.6068 0.804315 44.1868 0.124386 44.6948 0.0123982C45.1947 -0.0955904 45.4947 0.520348 45.6627 1.14028C45.7787 1.56424 45.8307 1.9882 45.8307 2.18418H45.8267Z" fill="#412510"/>
<path d="M22.2091 2.02422C22.2891 1.38829 22.505 0.736364 23.009 0.772361C23.5249 0.812356 23.205 1.54428 23.121 1.75625C22.913 2.2682 22.905 2.69216 23.037 3.2321C23.7409 6.13579 27.1125 7.9396 29.3923 9.47944C30.1522 9.99139 30.9001 10.5233 31.6001 11.1153C32.22 11.6432 32.764 12.2272 33.2239 12.8591C33.8278 13.679 34.3838 14.4229 34.7437 15.3948C35.4997 17.4266 35.7036 19.6464 35.3717 21.7861C35.3317 22.0461 34.9477 21.7661 34.9277 21.6062C34.6438 18.9784 34.6278 16.4987 33.3239 14.1109C32.168 12.0032 29.6843 10.4033 27.6925 9.15147C26.4086 8.34356 25.1648 7.43165 24.1209 6.32377C23.265 5.41586 22.357 4.36798 22.1891 3.08412C22.1611 2.89214 22.1531 2.46418 22.2051 2.02822L22.2091 2.02422Z" fill="#412510"/>
<g style="mix-blend-mode:multiply">
<path d="M43.9909 24.1978C43.5309 24.4978 42.975 24.7618 42.659 25.2337C42.315 25.7417 42.1311 26.2336 42.0071 26.8296C41.9871 26.9136 41.8151 27.0495 41.7871 26.9016C41.6671 26.2336 41.9751 25.5737 42.415 25.0777C42.863 24.5698 43.3749 24.3818 43.9869 24.1658C44.0109 24.1578 44.0109 24.1858 43.9989 24.1978H43.9909Z" fill="#7D4C2D"/>
</g>
<path d="M34.9918 22.494C34.6319 24.3498 33.332 26.9336 31.0162 27.0415C30.2843 27.0735 29.2244 26.5976 28.6925 26.1176C26.6167 24.2378 27.1446 19.9663 28.1485 17.6865C28.8085 16.1947 30.6083 14.6908 32.2081 15.0348C35.2158 15.6867 35.4198 20.2943 34.9878 22.498L34.9918 22.494Z" fill="#CACACA"/>
<path d="M34.5998 22.338C34.2758 23.9979 33.112 26.3136 31.0442 26.4096C30.3882 26.4376 29.4443 26.0137 28.9644 25.5817C27.1086 23.8979 27.5765 20.0783 28.4764 18.0345C29.0684 16.6986 30.6842 15.3548 32.1121 15.6627C34.8038 16.2467 34.9878 20.3702 34.6038 22.342L34.5998 22.338Z" fill="white"/>
<path d="M43.279 20.4183C43.599 22.2781 43.307 25.1618 41.1792 26.0817C40.5073 26.3737 39.3474 26.3017 38.6795 26.0417C36.0718 25.0218 35.0479 20.8463 35.1759 18.3545C35.2639 16.7267 36.4117 14.6829 38.0276 14.4349C41.0713 13.975 42.8951 18.2065 43.279 20.4183Z" fill="#CACACA"/>
<path d="M42.855 20.4102C43.139 22.0781 42.875 24.6578 40.9752 25.4817C40.3713 25.7417 39.3354 25.6817 38.7354 25.4457C36.4037 24.5298 35.4838 20.7942 35.5998 18.5624C35.6758 17.1026 36.7076 15.2748 38.1515 15.0508C40.8752 14.6428 42.511 18.4305 42.855 20.4062V20.4102Z" fill="white"/>
<path d="M33.284 21.8181C33.22 23.426 32.4521 24.6818 31.5762 24.6258C30.6843 24.5698 30.0203 23.218 30.0843 21.6102C30.1443 20.0063 30.9123 18.7465 31.7922 18.8025C32.6761 18.8545 33.348 20.2063 33.288 21.8181H33.284Z" fill="#1D1D1B"/>
<path d="M31.4442 20.4383C31.3322 20.9142 31.0323 21.2502 30.7723 21.1942C30.5083 21.1382 30.3843 20.7022 30.4923 20.2303C30.6083 19.7583 30.9083 19.4224 31.1762 19.4744C31.4282 19.5344 31.5522 19.9663 31.4442 20.4383Z" fill="white"/>
<path d="M40.8513 20.9222C41.1672 22.5021 40.7153 23.9059 39.8514 24.0539C38.9715 24.2099 38.0076 23.054 37.6916 21.4742C37.3756 19.8983 37.8276 18.4945 38.6995 18.3465C39.5714 18.1905 40.5393 19.3464 40.8553 20.9222H40.8513Z" fill="#1D1D1B"/>
<path d="M38.7435 20.0143C38.7435 20.5023 38.5315 20.9022 38.2635 20.9062C37.9916 20.9102 37.7716 20.5223 37.7676 20.0343C37.7676 19.5424 37.9836 19.1464 38.2555 19.1384C38.5155 19.1384 38.7395 19.5264 38.7435 20.0143Z" fill="white"/>
<g style="mix-blend-mode:multiply" opacity="0.5">
<path d="M30.3603 30.0253C30.7363 30.5252 32.1441 30.5252 34.5919 30.0253C37.0356 29.5213 39.6593 28.5974 42.467 27.2496C42.651 27.1216 42.763 27.1696 42.811 27.3935C42.1711 27.7975 41.7151 28.4214 41.4392 29.2653C41.0272 30.5372 41.3312 32.401 37.8915 33.6649C34.4479 34.9287 32.968 33.4849 31.8082 32.225C31.0323 31.3811 30.3723 30.7452 29.8324 30.3132C29.6404 29.8333 29.8164 29.7373 30.3643 30.0253H30.3603Z" fill="#7D4C2D"/>
</g>
<path d="M30.2363 30.4092C31.6802 31.1171 33.664 30.7092 35.1358 30.3892C37.6635 29.8292 40.1633 28.9614 42.3431 27.5415C41.5911 28.1854 40.9832 28.9693 40.6792 29.9652C40.3873 30.9211 40.1473 31.757 39.3674 32.441C38.6314 33.0769 37.6875 33.4409 36.7516 33.6609C35.0998 34.0528 33.736 33.6809 32.4801 32.561C31.7042 31.8691 31.0242 31.0811 30.2403 30.4092H30.2363Z" fill="#C51C2F"/>
<path d="M40.1912 31.3371C39.9993 31.7371 39.7513 32.105 39.3713 32.437C38.6354 33.0729 37.6915 33.4369 36.7556 33.6569C35.5917 33.9328 34.5678 33.8288 33.6279 33.3489C33.9639 32.113 35.3397 31.3171 36.5156 31.0131C37.7475 30.6972 39.0434 30.8452 40.1952 31.3331L40.1912 31.3371Z" fill="#F19798"/>
<path d="M35.6678 32.841C35.5558 32.941 35.4239 33.017 35.2839 33.049C35.0959 33.0929 34.8479 33.049 34.7639 32.849C34.6039 32.469 34.9279 32.0771 35.1999 31.8371C35.4399 31.6291 36.0078 31.5611 36.1438 31.9331C36.2678 32.277 35.9798 32.653 35.6718 32.841H35.6678Z" fill="white"/>
<path d="M36.7956 31.5931C36.7596 31.6411 36.7116 31.6771 36.6516 31.6731C36.6436 31.6731 36.6356 31.6691 36.6196 31.6651C36.6156 31.6611 36.6156 31.6611 36.6116 31.6571C36.6076 31.6571 36.6036 31.6571 36.5996 31.6571C36.5877 31.6491 36.5757 31.6491 36.5637 31.6371C36.5397 31.6131 36.5437 31.5771 36.5637 31.5451C36.5637 31.5371 36.5637 31.5331 36.5717 31.5211C36.6036 31.4411 36.6636 31.3771 36.7516 31.3651C36.9076 31.3451 36.8716 31.5211 36.7916 31.5931H36.7956Z" fill="white"/>
<path d="M44.7708 41.628C44.7188 41.676 44.6588 41.628 44.7068 41.564C45.9027 40.1801 46.5906 38.4603 46.8786 36.6605C46.8826 36.6405 46.9226 36.6165 46.9266 36.6445C47.0345 38.6563 46.2466 40.2721 44.7708 41.624V41.628Z" fill="#427CBE"/>
<path d="M48.1544 36.4446C48.1344 36.5046 48.0064 36.5486 48.0224 36.4566C48.1784 35.4247 48.2184 34.3808 48.0464 33.3449C48.0424 33.3329 48.0584 33.3169 48.0704 33.3289C48.6863 34.2808 48.4823 35.4447 48.1584 36.4446H48.1544Z" fill="#427CBE"/>
<path d="M49.4304 32.457C49.4184 32.521 49.2984 32.6049 49.2824 32.509C49.2025 32.093 49.1865 31.665 49.1145 31.2491C49.0425 30.8251 48.8705 30.4092 48.7105 30.0132C48.6985 29.9772 48.7505 29.9332 48.7785 29.9692C49.3424 30.7371 49.5744 31.5051 49.4344 32.461L49.4304 32.457Z" fill="#427CBE"/>
<path d="M39.7433 44.2397C38.4994 44.1917 37.2876 43.3238 36.5637 42.3519C36.5477 42.3359 36.5757 42.3039 36.5876 42.3199C37.4076 43.1878 38.6474 43.8278 39.8033 44.1117C39.8753 44.1277 39.7913 44.2397 39.7393 44.2397H39.7433Z" fill="#427CBE"/>
<path d="M35.9518 44.6277C34.432 44.2877 33.0361 43.0839 32.3602 41.704C32.3482 41.676 32.3922 41.636 32.4162 41.664C33.3121 42.9079 34.6839 43.8078 36.0158 44.5237C36.0758 44.5557 36.0038 44.6397 35.9518 44.6237V44.6277Z" fill="#427CBE"/>
<path d="M31.1641 43.4398C30.2002 43.0399 29.4843 42.1599 29.1444 41.1881C29.1364 41.1641 29.1764 41.1281 29.1884 41.1561C29.6083 42.06 30.4082 42.8039 31.2361 43.3478C31.2841 43.3718 31.2081 43.4598 31.1641 43.4398Z" fill="#427CBE"/>
<path d="M25.2849 41.9639C25.2889 41.9999 25.229 42.0519 25.209 42.0119C24.685 40.9521 24.669 39.8561 24.849 38.7163C24.853 38.7003 24.885 38.6843 24.885 38.7083C24.849 39.8362 25.089 40.864 25.2849 41.9639Z" fill="#427CBE"/>
<path d="M28.2485 44.0678C27.7406 43.4478 27.3166 43.0039 27.0127 42.248C26.7327 41.568 26.7127 40.9001 26.6367 40.1762C26.6367 40.1602 26.6687 40.1402 26.6727 40.1602C26.8887 40.8961 26.9887 41.628 27.3246 42.3279C27.6086 42.9279 27.9846 43.4358 28.3085 44.0118C28.3245 44.0358 28.2725 44.0917 28.2485 44.0638V44.0678Z" fill="#427CBE"/>
<path d="M23.1012 30.3891C22.3572 31.581 22.1893 32.8649 21.6813 34.1448C21.6613 34.1968 21.5453 34.2408 21.5613 34.1528C21.7813 32.6969 22.1333 31.525 23.0692 30.3651C23.0852 30.3452 23.1172 30.3572 23.1052 30.3852L23.1012 30.3891Z" fill="#427CBE"/>
<path d="M26.5847 23.302C25.8328 23.8539 24.9849 24.3578 24.165 24.8098C24.133 24.8298 24.125 24.7778 24.149 24.7618C24.5769 24.4418 24.9769 24.0899 25.4168 23.7819C25.7688 23.5379 26.1368 23.226 26.5527 23.102C26.6887 23.062 26.6447 23.25 26.5807 23.298L26.5847 23.302Z" fill="#427CBE"/>
<path d="M46.9747 22.2701C45.9548 22.1141 44.9189 21.6101 43.995 21.1622C43.963 21.1462 44.003 21.0982 44.031 21.1062C45.0309 21.4301 46.1308 21.5821 47.0787 22.0581C47.1827 22.1141 47.0707 22.2861 46.9747 22.2701Z" fill="#427CBE"/>
<g style="mix-blend-mode:screen">
<path d="M49.8424 73.4367C46.4787 71.9448 44.3269 68.8571 42.8191 65.6215C41.2353 62.2138 40.2794 58.3622 39.8994 54.6226C39.8994 54.5946 39.9514 54.5546 39.9554 54.5946C40.5913 58.2543 41.8712 61.8459 43.355 65.2335C44.083 66.9014 45.0389 68.4372 46.0948 69.917C47.1347 71.3769 48.5385 72.2448 49.9304 73.3167C49.9823 73.3567 49.8944 73.4607 49.8424 73.4327V73.4367Z" fill="#A1613D"/>
</g>
<path fill-rule="evenodd" clip-rule="evenodd" d="M41.1872 45.5316C41.1592 45.5516 41.1152 45.5836 41.0632 45.6276C40.9752 45.6876 40.8592 45.7796 40.7033 45.8876C40.6273 45.9436 40.5433 46.0036 40.4513 46.0756C40.3633 46.1436 40.2633 46.2155 40.1593 46.2955C39.9513 46.4515 39.7234 46.6395 39.4754 46.8355C38.9834 47.2355 38.4195 47.7114 37.8076 48.2233C37.5036 48.4793 37.1836 48.7473 36.8437 49.0073C36.6677 49.1392 36.4957 49.2752 36.3077 49.3992C36.1197 49.5272 35.9278 49.6552 35.6998 49.7752C35.6478 49.8032 35.5838 49.8312 35.5238 49.8592C35.4638 49.8912 35.3958 49.9151 35.3278 49.9391C35.1918 49.9871 35.0238 50.0311 34.8319 50.0431C34.7839 50.0471 34.7239 50.0392 34.6719 50.0352L34.5879 50.0272C34.5559 50.0232 34.5279 50.0152 34.4999 50.0072C34.4399 49.9912 34.3799 49.9752 34.3239 49.9512C34.2679 49.9192 34.2079 49.8912 34.1559 49.8592C34.1039 49.8312 34.048 49.7752 33.992 49.7232C33.968 49.6952 33.944 49.6672 33.92 49.6392C33.908 49.6312 33.892 49.6072 33.888 49.6032L33.88 49.5872L33.836 49.5192L33.828 49.5032L33.792 49.4512L33.788 49.4432L33.78 49.4272L33.756 49.3712C33.608 49.0672 33.576 48.7953 33.556 48.5473C33.54 48.2953 33.548 48.0674 33.576 47.8474C33.616 47.4074 33.708 47.0075 33.808 46.6395C33.908 46.2675 34.024 45.9316 34.1359 45.6196C34.2199 45.4036 34.2959 45.2077 34.3759 45.0277C34.5319 44.9517 34.7159 44.9957 34.8079 45.1837C34.8519 45.2757 34.8759 45.3796 34.8879 45.4836C34.8759 45.5836 34.8639 45.6876 34.8519 45.7916C34.8159 46.1076 34.7759 46.4475 34.7479 46.8035C34.7159 47.1595 34.6919 47.5314 34.6999 47.8954C34.7039 48.0753 34.7119 48.2593 34.7359 48.4193C34.7599 48.5553 34.7959 48.6793 34.8279 48.7593C34.8959 48.7393 35.0079 48.6953 35.1158 48.6353C35.2718 48.5593 35.4398 48.4513 35.6078 48.3433C35.7758 48.2273 35.9438 48.1113 36.1157 47.9994C36.4557 47.7634 36.7997 47.5274 37.1396 47.3034C37.4796 47.0835 37.8156 46.8755 38.1475 46.6875C38.4795 46.4995 38.7955 46.3395 39.0954 46.1996C39.3994 46.0636 39.6794 45.9476 39.9353 45.8596C40.1873 45.7676 40.4113 45.7036 40.5993 45.6556C40.7872 45.6036 40.9352 45.5756 41.0352 45.5556C41.1032 45.5436 41.1552 45.5356 41.1912 45.5276L41.1872 45.5316ZM34.8959 48.8673C34.8919 48.8593 34.8839 48.8513 34.8799 48.8433C34.8759 48.8313 34.8679 48.8273 34.8559 48.8193L34.8879 48.8593L34.8999 48.8753C34.9039 48.8833 34.8999 48.8713 34.8999 48.8673H34.8959Z" fill="#893A1C"/>
<g style="mix-blend-mode:multiply">
<path d="M34.244 45.3236C34.284 45.2237 34.328 45.1237 34.368 45.0277C34.524 44.9517 34.7079 44.9957 34.7999 45.1837C34.8439 45.2757 34.8679 45.3796 34.8799 45.4836C34.8679 45.5836 34.8559 45.6876 34.8439 45.7916C34.8079 46.1076 34.7679 46.4475 34.7399 46.8035C34.7079 47.1595 34.6839 47.5314 34.6919 47.8954C34.6959 48.0753 34.7039 48.2593 34.7279 48.4193C34.7519 48.5553 34.7879 48.6793 34.8199 48.7593C34.8239 48.7553 34.8279 48.7553 34.8319 48.7553C34.8359 48.9553 34.8679 49.1632 34.8359 49.3552C34.8119 49.4992 34.488 48.9633 34.504 48.9912C34.42 48.8233 34.388 48.6273 34.36 48.4433C34.316 48.1353 34.328 47.8194 34.332 47.5114C34.34 46.8835 34.6 46.0196 34.316 45.4316C34.292 45.3836 34.268 45.3476 34.24 45.3196L34.244 45.3236Z" fill="#893A1C"/>
</g>
<g style="mix-blend-mode:multiply">
<path d="M40.7312 45.8636C40.7232 45.8756 40.7152 45.8796 40.6992 45.8836C40.6232 45.9396 40.5392 45.9996 40.4472 46.0716C40.3592 46.1396 40.2592 46.2116 40.1552 46.2916C39.9472 46.4475 39.7193 46.6355 39.4713 46.8315C38.9793 47.2315 38.4154 47.7074 37.8035 48.2194C37.4995 48.4753 37.1795 48.7433 36.8396 49.0033C36.6636 49.1353 36.4916 49.2712 36.3036 49.3952C36.1156 49.5232 35.9237 49.6512 35.6957 49.7712C35.6437 49.7992 35.5797 49.8272 35.5197 49.8552C35.4597 49.8872 35.3917 49.9112 35.3237 49.9352C35.1877 49.9832 35.0198 50.0272 34.8278 50.0392C34.7798 50.0432 34.7198 50.0352 34.6678 50.0312L34.5838 50.0232C34.5518 50.0192 34.5238 50.0112 34.4958 50.0032C34.4358 49.9872 34.3758 49.9712 34.3198 49.9472C34.2638 49.9152 34.2038 49.8872 34.1518 49.8552C34.0999 49.8272 34.0439 49.7712 33.9879 49.7192C33.9639 49.6912 33.9399 49.6632 33.9159 49.6352C33.9039 49.6272 33.8879 49.6032 33.8839 49.5992L33.8759 49.5832L33.8319 49.5152L33.8279 49.5072C33.9919 49.6472 34.1958 49.7432 34.4398 49.7832C35.2357 49.9112 35.9437 49.2073 36.4836 48.7353C37.2675 48.0394 38.1034 47.4034 38.9753 46.8235C39.5313 46.4515 40.1192 46.1116 40.7352 45.8596L40.7312 45.8636Z" fill="#893A1C"/>
</g>
<g style="mix-blend-mode:multiply">
<path d="M39.1553 47.1035C38.7434 47.4395 38.2954 47.8194 37.8115 48.2234C37.7635 48.2674 37.7115 48.3074 37.6635 48.3474C37.0996 48.2794 36.5316 48.1834 35.9717 48.1034C36.0197 48.0714 36.0677 48.0394 36.1157 48.0074C36.4556 47.7714 36.7996 47.5355 37.1396 47.3115C37.3235 47.1915 37.5035 47.0795 37.6835 46.9715C38.1754 47.0035 38.6674 47.0475 39.1593 47.1035H39.1553Z" fill="#893A1C"/>
</g>
<path d="M45.9746 45.9636C45.9986 46.2475 45.9746 46.5715 45.8546 46.8835C45.7946 47.0395 45.7146 47.1915 45.6106 47.3314L45.5746 47.3794L45.5386 47.4274L45.4826 47.4954C45.4466 47.5434 45.3946 47.5954 45.3507 47.6474C45.1627 47.8554 44.9667 48.0474 44.7347 48.2233C44.2748 48.5673 43.6908 48.8273 43.1029 48.9073C42.5189 48.9953 41.955 48.9353 41.4431 48.8513C40.9311 48.7553 40.4552 48.6313 40.0072 48.5033C39.5593 48.3793 39.1393 48.2593 38.7393 48.1594C38.3354 48.0634 37.9554 47.9794 37.6035 47.9274C37.2475 47.8754 36.9195 47.8434 36.6236 47.8274C36.3316 47.8114 36.0676 47.8074 35.8517 47.8194C35.6357 47.8274 35.4637 47.8354 35.3437 47.8434C35.2677 47.8514 35.2077 47.8554 35.1677 47.8594C35.2037 47.8394 35.2597 47.8114 35.3277 47.7754C35.4357 47.7274 35.5957 47.6514 35.8077 47.5794C36.0156 47.5034 36.2796 47.4194 36.5836 47.3554C36.8915 47.2874 37.2475 47.2394 37.6355 47.2194C38.0234 47.1994 38.4474 47.2034 38.8873 47.2434C39.3313 47.2794 39.7872 47.3474 40.2472 47.4274C40.7071 47.5034 41.1711 47.5914 41.623 47.6434C42.075 47.6994 42.511 47.7114 42.9069 47.6514C43.3029 47.5874 43.6588 47.4394 43.9868 47.2075C44.1468 47.0955 44.3068 46.9595 44.4467 46.8155C44.4787 46.7795 44.5147 46.7515 44.5547 46.7035L44.6547 46.5955C44.6987 46.5475 44.7347 46.4955 44.7667 46.4355C44.8227 46.3195 44.8627 46.1756 44.8707 46.0116C44.8747 45.8476 44.8627 45.6716 44.8227 45.4916C44.7507 45.1317 44.6227 44.7757 44.4827 44.4517C44.3428 44.1238 44.1908 43.8238 44.0548 43.5598C44.0508 43.5558 44.0468 43.5478 44.0428 43.5438C44.0548 43.3598 44.1548 43.1879 44.3788 43.2239C44.4187 43.2319 44.4627 43.2439 44.4987 43.2599C44.7147 43.4798 44.9467 43.7438 45.1707 44.0558C45.4026 44.3757 45.6306 44.7437 45.8026 45.2037C45.8866 45.4316 45.9586 45.6876 45.9826 45.9716L45.9746 45.9636Z" fill="#893A1C"/>
<g style="mix-blend-mode:multiply">
<path d="M45.9748 45.9636C45.9988 46.2476 45.9748 46.5715 45.8548 46.8835C45.7948 47.0395 45.7148 47.1915 45.6108 47.3315L45.5748 47.3795L45.5388 47.4274L45.4829 47.4954C45.4469 47.5434 45.3949 47.5954 45.3509 47.6474C45.1629 47.8554 44.9669 48.0474 44.7349 48.2234C44.275 48.5673 43.691 48.8273 43.1031 48.9073C42.5192 48.9953 41.9552 48.9353 41.4433 48.8513C40.9313 48.7553 40.4554 48.6313 40.0074 48.5033C39.6635 48.4073 39.3355 48.3154 39.0195 48.2314C40.7793 48.2554 42.6312 48.8153 44.223 48.0114C44.9149 47.7914 45.4709 47.2155 45.6428 46.4516C45.7788 45.8636 45.5428 45.2317 45.3269 44.6917C45.1069 44.1398 44.7869 43.6318 44.367 43.2159H44.375C44.415 43.2239 44.459 43.2359 44.495 43.2519C44.7109 43.4719 44.9429 43.7358 45.1669 44.0478C45.3989 44.3678 45.6268 44.7357 45.7988 45.1957C45.8828 45.4237 45.9548 45.6796 45.9788 45.9636H45.9748Z" fill="#893A1C"/>
</g>
<g style="mix-blend-mode:multiply">
<path d="M36.4317 47.3874C36.4797 47.3754 36.5317 47.3634 36.5797 47.3514C36.8877 47.2834 37.2436 47.2354 37.6316 47.2154C38.0196 47.1954 38.4435 47.1994 38.8835 47.2394C39.3274 47.2754 39.7834 47.3434 40.2433 47.4234C40.7033 47.4994 41.1672 47.5874 41.6192 47.6394C42.0711 47.6954 42.5071 47.7074 42.9031 47.6474C43.159 47.6034 43.399 47.5234 43.623 47.4114C42.8031 48.0314 41.5192 47.8993 40.5073 47.7634C39.1474 47.5794 37.7756 47.2554 36.4277 47.3874H36.4317Z" fill="#893A1C"/>
</g>
</svg>
