<svg width="93" height="80" viewBox="0 0 93 80" fill="none" xmlns="http://www.w3.org/2000/svg">
<path d="M57.5259 53.464C58.67 55.3601 63.6862 59.0483 66.3184 60.7084C65.5103 64.1766 62.2102 70.1889 55.4178 74.4651C51.3056 77.1292 47.8814 77.5013 46.8853 75.2732C45.8253 75.1492 45.2652 72.421 47.1333 71.617C47.6334 70.5649 49.1895 70.7489 50.0615 71.3089C50.9336 71.865 52.4296 73.4171 53.5497 72.177C54.6698 70.9369 58.2219 65.0526 57.2859 63.1925C56.3498 61.3324 52.0536 59.2883 51.4936 56.8122C51.7856 56.2481 54.2497 53.852 57.5219 53.472L57.5259 53.464Z" fill="#7A6572"/>
<g style="mix-blend-mode:multiply" opacity="0.7">
<g style="mix-blend-mode:multiply" opacity="0.7">
<path d="M46.7935 74.2011C47.3055 76.2452 50.1096 76.2932 49.8296 74.4331C49.6416 73.193 48.5455 72.721 46.5374 73.013C46.6374 72.469 47.1455 72.289 48.0575 72.481C50.3976 72.973 49.9776 71.9729 47.2135 71.5849C48.2975 70.9009 50.3016 72.0169 50.2056 71.6889C50.1416 71.4729 49.8176 71.2249 49.2256 70.9449C49.5336 71.0249 49.8256 71.1489 50.0656 71.3009C50.9377 71.8569 52.4337 73.409 53.5538 72.169C53.7418 71.9609 53.9978 71.6249 54.2858 71.2009C53.1978 73.441 55.7819 73.297 60.4022 68.5248C65.3944 63.7445 60.3102 56.3161 57.074 55.5161C54.2379 54.812 52.9978 57.8722 54.9939 59.6083C56.99 61.3444 58.3221 61.9644 58.1141 63.9085C57.974 65.2046 57.422 66.3766 56.45 67.4247L56.422 67.4207C57.206 65.7206 57.718 64.0285 57.29 63.1805C56.354 61.3204 52.0577 59.2763 51.4977 56.8001C51.7897 56.2361 54.2539 53.84 57.526 53.46C58.6701 55.3561 63.6864 59.0443 66.3185 60.7043C65.5105 64.1725 62.2103 70.1849 55.4179 74.4611C51.3057 77.1252 47.8815 77.4972 46.8855 75.2691C46.6734 75.2451 46.4814 75.1131 46.3254 74.9131C46.5214 74.7491 46.6855 74.5091 46.7935 74.2011Z" fill="#A5959E"/>
</g>
</g>
<g style="mix-blend-mode:screen" opacity="0.5">
<path d="M59.874 62.3804C58.4899 64.9086 57.1779 67.3967 55.9458 69.8488C57.1019 66.3446 58.718 63.5845 59.874 62.3804Z" fill="#A5959E"/>
</g>
<path d="M55.0095 57.2562C55.7815 59.0483 56.9176 60.5683 58.4177 61.8164C56.2936 60.5963 54.7655 58.4362 55.0095 57.2562Z" fill="#A5959E"/>
<path d="M48.5493 73.613C47.6933 73.197 46.9452 73.221 46.3092 73.677C45.6812 74.069 46.5092 72.2649 48.5493 73.613Z" fill="#A5959E"/>
<path d="M48.6815 72.265C47.6695 71.961 46.9135 72.005 46.4094 72.397C46.7734 71.645 47.8895 71.841 48.6815 72.265Z" fill="#A5959E"/>
<path d="M49.6854 71.2689C48.6734 70.9609 47.9174 71.0049 47.4133 71.4009C47.7773 70.6489 48.8974 70.8449 49.6854 71.2689Z" fill="#A5959E"/>
<path d="M67.6263 36.6551C100.024 33.8629 93.0436 18.0861 89.4794 11.7458C86.2792 6.06145 90.8435 4.57338 91.8315 3.36531C93.7996 0.957185 90.4675 -0.938916 87.9633 0.497161C85.4592 1.92924 83.7871 5.78144 86.9753 12.7258C91.7556 22.0863 88.9474 26.7666 82.7271 30.6148C78.5788 33.1829 72.3425 34.683 64.0181 35.119C65.6142 36.2471 66.8182 36.7591 67.6302 36.6551H67.6263Z" fill="#A5959E"/>
<path d="M87.8632 9.50967C86.9872 8.38961 87.8632 10.7577 87.2352 10.1337C86.7312 9.63368 86.4712 10.3417 86.3872 11.3498C84.019 5.26944 85.6231 1.83326 87.9592 0.501189C90.4634 -0.934887 93.7956 0.961213 91.8275 3.36934C90.9354 4.4654 87.0912 5.78947 88.7753 10.2697C88.4753 10.1217 88.1553 9.88969 87.8592 9.50967H87.8632Z" fill="white"/>
<g style="mix-blend-mode:multiply" opacity="0.7">
<path d="M87.8834 11.5898C85.5473 6.84952 87.3394 5.09742 90.5155 2.7733C91.7396 1.87725 91.8516 1.09321 91.5316 0.469177C92.4596 1.06121 92.8277 2.14927 91.8316 3.36933C90.8476 4.5774 86.2793 6.06147 89.4795 11.7498C91.7596 15.81 95.4438 23.7384 89.2955 29.6507C94.4798 23.2584 90.2035 16.302 87.8874 11.5938L87.8834 11.5898Z" fill="#A5959E"/>
</g>
<g style="mix-blend-mode:multiply" opacity="0.7">
<path d="M76.8788 33.0269C75.5348 33.699 74.0187 34.275 72.3586 34.619C67.9464 35.5311 68.1544 36.0551 69.7065 36.4471C69.0304 36.5231 68.3384 36.5911 67.6264 36.6511C66.8143 36.7511 65.6102 36.2391 64.0142 35.115C68.5464 34.879 72.8346 34.183 76.8788 33.0269Z" fill="#A5959E"/>
</g>
<g style="mix-blend-mode:screen">
<path d="M89.3956 28.1466C86.2794 31.8028 81.5472 33.9989 75.1948 34.743C82.4792 34.559 88.8356 30.5627 89.3956 28.1466Z" fill="#A5959E"/>
</g>
<path d="M89.0795 0.137128C88.9275 0.185131 88.7435 0.245138 88.5435 0.341143C88.3435 0.433148 88.1195 0.545152 87.8875 0.68916C87.6595 0.837167 87.4195 1.00517 87.1954 1.21718C86.9714 1.4292 86.7434 1.66921 86.5514 1.94123C86.3554 2.21324 86.1714 2.51325 86.0314 2.83727C85.8794 3.15729 85.7753 3.50131 85.6793 3.84933C85.6393 4.02533 85.5993 4.20134 85.5633 4.37335C85.5393 4.55336 85.5073 4.72537 85.4833 4.90138C85.4673 5.08139 85.4473 5.25341 85.4393 5.42941C85.4353 5.60142 85.4314 5.77343 85.4274 5.94544C85.4394 6.28146 85.4353 6.60948 85.4633 6.92149C85.4793 7.23351 85.5194 7.52553 85.5514 7.79754C85.5794 8.06955 85.6313 8.31357 85.6593 8.53358C85.6873 8.75359 85.7314 8.9416 85.7594 9.09761C85.7994 9.30562 85.8314 9.46963 85.8554 9.58963C85.8234 9.47363 85.7794 9.30962 85.7274 9.10561C85.6874 8.9496 85.6354 8.76159 85.5914 8.54558C85.5473 8.32957 85.4834 8.08555 85.4473 7.81354C85.4033 7.54152 85.3553 7.24951 85.3273 6.93349C85.2873 6.62148 85.2753 6.28946 85.2673 5.94544C85.2673 5.77343 85.2713 5.59742 85.2753 5.42141C85.2833 5.2454 85.3033 5.06539 85.3153 4.88539C85.3313 4.70538 85.3673 4.52537 85.3913 4.34136C85.4233 4.16135 85.4633 3.98133 85.5033 3.80132C85.6033 3.44531 85.7193 3.09329 85.8794 2.76527C86.0314 2.43325 86.2194 2.12524 86.4274 1.84522C86.6314 1.56121 86.8754 1.32519 87.1114 1.11318C87.3514 0.90517 87.6035 0.737164 87.8435 0.597156C88.0835 0.453149 88.3195 0.353138 88.5275 0.273134C88.7355 0.19313 88.9275 0.14113 89.0835 0.101128C89.2915 0.049125 89.4595 0.021123 89.5836 0.0131226C89.4635 0.0291234 89.2996 0.0691268 89.0955 0.13313L89.0795 0.137128Z" fill="#A5959E"/>
<path d="M21.1517 48.3637C21.1997 48.1997 21.2437 48.0397 21.2837 47.8797C21.7838 45.8156 21.4478 44.1435 20.2837 42.8674L29.8602 40.1433C32.2043 42.3634 34.4524 43.3954 36.6046 43.2474C39.8367 43.0234 45.9571 39.1312 49.6413 36.5351C53.3255 33.9429 57.2937 33.2629 61.5459 33.8829C65.7981 34.503 71.8624 38.5632 73.2225 46.1196C74.5826 53.676 72.1064 56.9282 74.6586 58.2882C77.2147 59.6523 80.2669 59.7123 79.3948 66.8367C78.5228 73.9651 76.1547 79.4174 73.0425 79.7854C71.3824 79.8294 70.2824 79.6014 69.7423 79.1053C68.1822 79.1053 66.9382 78.7333 66.6262 77.1212C66.3142 75.5092 67.5622 74.5171 68.3703 75.3891C68.9103 74.8931 69.5983 74.8731 70.4264 75.3251C70.8824 75.0371 71.5464 75.1611 72.4185 75.6972C74.9106 73.405 75.4106 65.5366 66.3141 60.7044C63.678 59.0483 58.6657 55.3601 57.5217 53.46C54.2495 53.84 51.7854 56.2361 51.4934 56.8001C49.0012 60.0243 47.5091 61.0124 44.829 61.5724C43.2089 66.4687 38.6647 74.5851 35.9845 77.6813C34.5685 79.3093 33.0644 80.1654 30.3522 79.9734C29.2202 79.8574 28.4361 79.5574 28.0081 79.0733C27.3201 79.1573 27.1481 78.4733 27.0401 78.1293C26.5 78.0653 25.796 76.8652 26.192 75.4931C26.588 74.1211 28.1081 73.193 29.7402 74.2411C31.3763 75.2851 34.2964 75.3571 34.8565 74.3571C35.4165 73.357 37.9166 64.7286 35.4245 59.9563C33.7644 59.5843 31.5603 58.8603 28.8202 57.7882C22.8878 55.8441 20.3317 52.7039 21.1517 48.3597V48.3637Z" fill="#A5959E"/>
<g style="mix-blend-mode:multiply" opacity="0.7">
<path d="M21.2837 47.8797C21.7838 45.8156 21.4478 44.1435 20.2837 42.8674L29.8602 40.1433C32.2043 42.3634 34.4524 43.3955 36.6046 43.2474C39.8367 43.0234 45.9571 39.1312 49.6413 36.5351C51.6374 35.131 53.7175 34.287 55.8816 33.9109C55.6736 34.003 55.4496 34.099 55.1976 34.191C52.1134 35.307 46.6971 40.0473 41.7448 42.4634C38.8487 43.4875 41.7448 43.4875 44.265 42.5554C46.6011 41.7194 42.8649 44.6915 38.0046 44.4155C33.1484 44.1355 32.0603 43.2195 30.6602 42.7554C29.2562 42.2914 27.6521 43.1874 25.764 44.5115C23.3479 46.1996 22.3078 46.6476 22.3078 49.9958C22.3078 53.34 26.42 55.6641 30.5282 57.4282C34.6404 59.1963 32.9564 57.2442 30.7163 53.896C28.4721 50.5478 29.1282 51.1079 31.3683 53.152C33.6124 55.1961 38.4687 58.0762 37.1606 67.9288C36.3805 72.177 35.2565 74.3411 35.9325 74.5651C36.6046 74.7891 43.5809 65.7086 44.113 56.0121C44.377 48.7597 42.3889 46.4836 45.305 46.5836C47.2291 46.6476 48.6212 51.3999 47.1611 55.9441C46.5971 57.8882 54.4455 53.984 53.4175 48.9638C52.3894 43.9475 55.1015 42.1794 56.7816 41.5274C58.4617 40.8753 55.2856 54.5721 67.4942 58.1642C73.2265 59.6203 74.8986 45.0316 68.8783 37.7952C70.9144 39.8073 72.5825 42.5794 73.2185 46.1196C74.5786 53.676 72.1024 56.9282 74.6546 58.2882C77.2107 59.6523 80.2629 59.7123 79.3908 66.8367C78.5188 73.9651 76.1507 79.4174 73.0385 79.7854C71.3784 79.8294 70.2784 79.6014 69.7383 79.1054C69.0183 79.1054 68.3663 79.0214 67.8462 78.7813C67.9382 78.6813 67.9982 78.5813 68.0182 78.4933C68.2383 78.9534 69.4103 79.1534 69.6983 78.8893C70.3184 79.5254 72.6145 79.7694 72.9465 78.9133C73.3865 77.5493 72.2385 76.0972 70.7824 75.9452C69.3263 75.7932 69.1023 77.1773 69.4343 78.5413C68.5743 77.5293 69.3903 75.8812 68.7503 75.7932C68.1102 75.7052 67.7582 76.5852 67.9342 78.1453C67.2702 76.7812 68.2223 75.5972 67.4502 75.5732C66.7582 75.5532 66.6142 76.6372 66.5942 76.8692C66.4542 75.4132 67.6102 74.5731 68.3743 75.3932C68.9143 74.8971 69.6023 74.8771 70.4304 75.3292C70.8864 75.0411 71.5504 75.1651 72.4225 75.7012C73.1185 75.0611 73.6585 73.9851 73.8785 72.665C73.8745 72.817 73.8585 72.985 73.8185 73.181C73.2465 76.1812 75.1266 77.1573 76.9987 71.2329C78.5508 64.3366 75.3706 60.4444 72.5145 60.2003C69.9223 59.9803 68.4063 61.1644 70.2904 63.5125C69.2423 62.5125 67.9302 61.5604 66.3181 60.7044C63.682 59.0483 58.6698 55.3601 57.5257 53.46C54.2535 53.84 51.7894 56.2361 51.4974 56.8002C49.0052 60.0243 47.5131 61.0124 44.833 61.5724C43.2129 66.4687 38.6687 74.5851 35.9885 77.6813C34.5725 79.3094 33.0684 80.1654 30.3562 79.9734C29.2242 79.8574 28.4401 79.5574 28.0121 79.0734C27.3241 79.1574 27.1521 78.4733 27.0441 78.1293C26.9361 78.1173 26.824 78.0573 26.716 77.9653C26.832 77.9253 26.932 77.8453 27 77.7053C27.052 78.2213 27.6481 78.9694 27.9601 78.6573C28.0121 78.8653 29.0482 79.7414 31.2243 79.5854C33.4044 79.4294 33.8924 76.9292 32.2083 76.1052C30.5242 75.2812 29.1242 76.1572 27.9841 78.0893C28.3241 76.3612 30.0842 75.5892 29.3322 75.1251C28.5801 74.6611 27.2081 75.7172 26.8961 77.1613C26.664 75.3292 28.4241 74.5571 28.0881 74.3011C27.7521 74.0451 27.076 74.0691 26.428 74.9451C26.42 74.9531 26.416 74.9611 26.412 74.9691C27.0001 73.9091 28.3281 73.333 29.7442 74.2371C31.3803 75.2812 34.3004 75.3532 34.8605 74.3531C35.4205 73.3531 37.9206 64.7246 35.4285 59.9523C33.7684 59.5803 31.5643 58.8563 28.8242 57.7842C22.8918 55.8401 20.3357 52.7 21.1557 48.3557C21.2037 48.1917 21.2477 48.0317 21.2877 47.8717L21.2837 47.8797Z" fill="#A5959E"/>
</g>
<g style="mix-blend-mode:multiply" opacity="0.7">
<path d="M20.2837 42.8674L29.8602 40.1432C30.6042 40.8473 31.4923 41.4953 32.5283 42.0834C32.1723 42.0234 31.3803 41.9073 30.7002 41.5833C29.4802 41.0033 29.0682 41.1833 28.0161 41.9713C26.816 42.8714 25.46 44.3595 23.2839 44.2315C21.7718 44.0515 21.1037 43.7834 21.2837 44.3395C21.4598 44.8915 21.5878 45.7155 21.4678 46.4716C21.4958 44.9675 21.0997 43.7634 20.2837 42.8674Z" fill="#A5959E"/>
</g>
<g style="mix-blend-mode:multiply">
<path d="M35.3047 60.1803C34.3206 59.8243 31.4845 59.2323 27.9363 57.3602C31.4565 58.6643 34.7966 59.6443 34.0766 58.0602C33.3526 56.5201 31.9205 54.524 29.7804 52.0719C33.6246 55.5921 36.2887 60.5363 35.3047 60.1803Z" fill="#A5959E"/>
</g>
<g style="mix-blend-mode:multiply">
<path d="M46.4172 52.5439C47.1652 50.3598 46.4612 48.5957 46.9772 49.6598C47.6172 50.9918 46.9292 52.8199 46.6052 53.748C46.2772 54.676 46.2332 57.9762 45.7172 59.7403C45.2051 61.5044 47.0252 60.5323 49.9214 58.8123C48.7373 60.3003 47.0412 61.2204 44.8291 61.5684C46.0412 56.1561 46.1372 51.8919 45.1091 48.7717C45.8092 49.7958 46.0892 50.1198 46.4172 52.5359V52.5439Z" fill="#A5959E"/>
</g>
<g style="mix-blend-mode:multiply">
<path d="M56.2938 42.6754C52.8456 46.7636 55.1097 52.0119 63.0821 58.4123C55.9617 53.548 52.1175 48.0037 56.2938 42.6754Z" fill="#A5959E"/>
</g>
<path d="M34.0325 10.5777C35.9486 11.1417 37.1887 17.4781 36.9327 22.4263C39.5568 25.6905 41.869 26.5665 43.8691 25.0545C43.593 25.9145 43.025 26.4105 42.161 26.5465C43.609 27.3706 43.561 28.7107 43.561 28.5546C43.561 28.3986 43.097 27.9866 42.161 27.9866C44.1811 29.5867 41.2289 33.9629 37.3447 36.7431C34.7566 38.5992 31.3564 40.2273 27.1442 41.6353C26.4201 42.6314 25.3321 43.2834 23.884 43.5914C21.9839 43.9715 20.4638 43.6434 19.3277 42.6114C16.4596 41.9594 13.5275 41.1873 10.5233 40.2913C5.28302 38.7352 2.64285 36.5351 2.59885 33.6989C1.77081 33.9069 1.37079 34.439 1.40679 35.295C0.646754 34.507 0.630751 33.6989 1.35479 32.8749C0.386738 32.8389 -0.0612835 32.3428 0.00672017 31.3828C2.33484 32.5669 3.94294 29.6307 6.17106 25.2505C4.61898 22.6743 2.70287 13.7659 3.73893 13.4018C4.77498 13.0418 11.0393 13.8139 15.3355 17.7301C19.3398 15.67 23.1199 15.3779 26.6761 16.854C27.2962 15.566 33.2005 10.3657 34.0285 10.5697L34.0325 10.5777Z" fill="#A5959E"/>
<g style="mix-blend-mode:screen">
<path d="M8.33116 31.4988C6.05904 33.6309 6.43106 35.747 9.45122 37.8471C6.96708 36.7831 4.96698 33.3389 8.33116 31.4988Z" fill="#A5959E"/>
</g>
<g style="mix-blend-mode:multiply" opacity="0.7">
<path d="M29.0363 29.0667C28.1082 28.7507 27.2402 28.7027 26.4321 28.9187C26.5921 28.7627 26.8282 28.6547 27.1442 28.5946C26.4161 27.1826 26.3641 26.1985 26.9962 25.6505C27.6162 25.2705 28.7162 26.9706 28.0002 28.5666C28.5522 28.6827 28.8963 28.8507 29.0363 29.0667Z" fill="#A5959E"/>
</g>
<g style="mix-blend-mode:multiply" opacity="0.7">
<path d="M18.5596 29.8907C17.6915 29.7547 16.8515 29.9627 16.0435 30.5108C16.2195 30.2147 16.4475 30.0387 16.7235 29.9787C15.7554 28.1946 15.7074 27.1426 16.5755 26.8306C17.8795 26.3585 17.9355 29.0107 17.7275 29.7147C18.0836 29.6187 18.3596 29.6747 18.5556 29.8907H18.5596Z" fill="#A5959E"/>
</g>
<g style="mix-blend-mode:multiply" opacity="0.7">
<path d="M25.7085 41.0033C25.7725 42.1794 25.8325 42.0554 27.4246 40.9753C28.1286 40.7753 29.7847 39.9313 32.3928 38.4432C41.1333 34.243 42.3054 30.4708 35.913 27.1226C38.3332 27.3386 40.1013 27.3986 41.2213 27.3026C40.9653 26.8946 38.2851 26.2986 37.8531 26.0505C38.1331 26.1905 40.6573 26.2946 41.2613 25.9705C39.6572 25.6345 38.2011 24.6465 36.8891 23.0064C34.925 20.5503 31.1008 17.8461 26.6765 16.8661C27.0965 15.998 29.9167 13.3499 31.9648 11.7818C31.3368 12.3698 30.7008 13.0699 30.0687 13.9299C28.5126 16.038 28.0766 16.286 30.0087 16.7181C31.5168 13.3619 33.5569 11.3458 34.2849 10.6937C36.057 11.7058 37.1851 17.7021 36.9371 22.4304C39.5612 25.6945 41.8734 26.5706 43.8735 25.0585C43.5974 25.9185 43.0294 26.4146 42.1654 26.5506C43.4614 27.2866 43.5574 28.4347 43.5654 28.5587C43.5614 28.4027 43.0934 27.9947 42.1654 27.9947C44.1855 29.5947 41.2333 33.971 37.3491 36.7511C34.761 38.6072 31.3608 40.2353 27.1486 41.6434C26.4245 42.6394 25.3365 43.2915 23.8884 43.5995C21.9883 43.9795 20.4682 43.6515 19.3321 42.6194C16.464 41.9674 13.5318 41.1953 10.5277 40.2993C5.28739 38.7432 2.64725 36.5431 2.60324 33.707C1.7752 33.915 1.37519 34.447 1.41119 35.303C0.651149 34.515 0.635146 33.707 1.35918 32.8829C0.391133 32.8469 -0.0568889 32.3509 0.0111147 31.3908C2.33924 32.5749 3.94731 29.6387 6.17543 25.2585C5.87142 24.7545 5.55542 24.0064 5.2474 23.1304C5.83544 23.1584 6.46345 22.9224 5.90342 21.5463C4.96737 19.2542 4.03533 15.722 4.53535 14.3579C4.78337 13.3659 9.70364 15.286 12.0718 17.6421C12.6958 18.2021 13.1918 17.7061 13.5678 17.4541C13.8359 17.2781 11.7437 15.198 8.52756 14.0299C10.7157 14.6819 13.2598 15.838 15.3439 17.7381C9.75564 20.6023 6.74748 25.0825 5.79543 27.2226C4.84338 29.3667 3.3233 31.6988 1.86722 32.0109C2.37525 32.3909 3.5393 32.1829 5.3594 31.3948L2.44726 33.1469C2.41125 33.1749 2.38723 33.1949 2.37523 33.2069L2.44726 33.1469C2.57926 33.0589 6.71147 31.6228 7.55551 31.4468C4.43534 33.6829 5.90744 38.1272 12.3198 39.8873C16.484 41.0313 19.1201 42.5794 17.9521 41.3514C17.032 40.3833 18.0921 40.8793 19.5882 41.6834C21.0802 42.4874 22.2923 43.1074 21.6683 42.1754C21.0442 41.2474 21.7483 40.7153 20.4842 40.9353C19.1281 41.1713 16.92 39.9633 16.712 38.1352C16.36 35.023 19.4602 32.5269 24.5964 32.6349C28.1766 32.7109 30.3887 34.183 30.3847 35.9711C30.3807 39.3073 25.6525 39.8233 25.7165 41.0033H25.7085Z" fill="#A5959E"/>
</g>
<path d="M23.4638 32.6389C28.1841 32.8509 30.3722 34.035 30.0242 36.1871C29.5322 39.2472 23.9358 40.5713 23.6118 38.4312C22.6398 40.0433 21.3317 40.7193 19.6876 40.4633C17.2235 40.0793 15.7874 37.2231 18.1035 34.871C19.6476 33.3029 21.4357 32.5589 23.4598 32.6389H23.4638Z" fill="white"/>
<path d="M18.9037 40.3073C16.7236 39.4072 16.7876 38.1232 17.4236 37.2111C16.6916 38.6672 17.4076 39.4432 18.9357 40.1673C20.4598 40.8953 22.4239 39.8992 23.1079 39.2752C23.564 38.8592 23.696 37.9591 23.508 36.5791L23.632 36.5311C23.492 38.3552 24.056 39.3512 25.3241 39.5192C27.2242 39.7712 30.3443 36.9791 29.9323 35.987C29.6643 35.347 28.9242 34.979 28.3562 34.979C28.9122 34.723 30.5643 35.331 30.0963 36.7351C29.6243 38.1392 25.7961 41.1233 23.856 38.8992C23.2799 39.7032 21.0838 41.2073 18.9037 40.3073Z" fill="#5B4854"/>
<path d="M26.1923 34.959C24.8682 36.3631 22.9961 37.7351 20.5799 36.5071C18.1638 35.275 17.7598 33.9869 19.7719 33.1869C21.116 32.6509 22.7921 32.3868 24.8082 32.3868C27.1403 32.5028 27.5123 33.5589 26.1883 34.963L26.1923 34.959Z" fill="#F79AA7"/>
<g style="mix-blend-mode:multiply" opacity="0.5">
<g style="mix-blend-mode:multiply" opacity="0.5">
<path d="M19.664 33.2309C18.704 34.627 21.5001 37.1031 24.5803 35.371C25.9924 34.579 26.6444 33.8829 26.9204 33.3229C27.0404 33.7629 26.7884 34.327 26.1924 34.959C24.8683 36.3631 22.9962 37.7351 20.5801 36.5071C18.2079 35.299 17.7759 34.0349 19.66 33.2309H19.664Z" fill="#F79AA7"/>
</g>
</g>
<g style="mix-blend-mode:screen">
<path d="M22.4678 33.0749C23.5438 32.8749 24.6999 32.9549 25.944 33.3149C26.372 33.4949 24.9239 31.8268 22.4678 33.0749Z" fill="#F79AA7"/>
</g>
<g style="mix-blend-mode:screen">
<path d="M21.892 33.1109C22.056 33.0669 22.204 33.0829 22.22 33.1469C22.236 33.2109 22.12 33.2989 21.956 33.3429C21.792 33.3869 21.6479 33.3709 21.6279 33.3069C21.6119 33.2429 21.728 33.1549 21.892 33.1149V33.1109Z" fill="#F79AA7"/>
</g>
<path d="M16.6955 27.0146C17.0395 26.9546 17.4275 27.5346 17.5636 28.3106C17.6996 29.0907 17.5275 29.7667 17.1835 29.8227C16.8395 29.8827 16.4515 29.2987 16.3155 28.5227C16.1835 27.7466 16.3515 27.0666 16.6955 27.0106V27.0146Z" fill="#383135"/>
<path d="M16.6396 27.4626C16.7916 27.4466 16.9436 27.6826 16.9756 27.9907C17.0076 28.2987 16.9076 28.5587 16.7516 28.5747C16.5956 28.5907 16.4476 28.3547 16.4156 28.0466C16.3836 27.7386 16.4836 27.4786 16.6396 27.4626Z" fill="white"/>
<path d="M27.16 25.8065C27.5041 25.7465 27.8921 26.3265 28.0281 27.1066C28.1601 27.8826 27.9921 28.5626 27.6481 28.6227C27.3041 28.6787 26.916 28.0986 26.78 27.3226C26.644 26.5465 26.816 25.8665 27.16 25.8105V25.8065Z" fill="#383135"/>
<path d="M27.104 26.2546C27.256 26.2386 27.408 26.4746 27.44 26.7786C27.472 27.0866 27.372 27.3466 27.216 27.3626C27.06 27.3786 26.912 27.1426 26.88 26.8346C26.848 26.5266 26.948 26.2666 27.104 26.2546Z" fill="white"/>
<g style="mix-blend-mode:multiply" opacity="0.5">
<path d="M28.3563 23.6664C27.5843 22.5503 26.8282 22.7424 26.0962 24.2424C26.4162 21.8343 27.7603 22.0783 28.3563 23.6664Z" fill="#A5959E"/>
</g>
<g style="mix-blend-mode:multiply" opacity="0.5">
<path d="M17.1078 24.9384C16.2158 23.8024 15.2997 23.9664 14.3677 25.4345C14.8357 23.0503 16.4838 23.7624 17.1078 24.9384Z" fill="#A5959E"/>
</g>
<path d="M28.3964 23.4064C27.6203 22.2903 26.8683 22.4783 26.1362 23.9824C26.4562 21.5783 27.7963 21.8223 28.3964 23.4064Z" fill="#63545D"/>
<path d="M17.1437 24.6784C16.2517 23.5424 15.3356 23.7064 14.4036 25.1745C14.8716 22.7903 16.5197 23.5024 17.1437 24.6784Z" fill="#63545D"/>
<path d="M32.0324 31.1188C26.4881 28.7627 20.1038 29.2267 12.8794 32.5108C16.0556 30.0947 26.5201 27.9586 32.0324 31.1188Z" fill="#5B4854"/>
<path d="M24.9761 39.5793C25.6282 41.2513 25.2401 42.1994 23.8081 42.4154C22.376 42.6314 21.784 41.8754 22.032 40.1393C23.008 39.7033 23.572 39.1792 23.7321 38.5752C23.9081 38.8552 24.3201 39.3512 24.9761 39.5833V39.5793Z" fill="#F79AA7"/>
<g style="mix-blend-mode:multiply">
<path d="M23.768 39.0192C23.788 39.0472 23.804 39.0872 23.828 39.1312C23.848 39.1752 23.872 39.2272 23.884 39.2832C23.9 39.3392 23.924 39.4033 23.932 39.4713C23.94 39.5393 23.952 39.6113 23.96 39.6873C23.984 39.8353 23.96 39.9953 23.96 40.1553C23.96 40.2353 23.94 40.3113 23.928 40.3873C23.916 40.4633 23.9 40.5393 23.888 40.6113C23.868 40.7593 23.816 40.8873 23.78 40.9993C23.728 41.1473 23.68 41.2713 23.636 41.3634C23.64 41.2593 23.652 41.1273 23.676 40.9753C23.684 40.9193 23.692 40.8553 23.704 40.7913C23.72 40.7273 23.72 40.6553 23.728 40.5833C23.736 40.5113 23.74 40.4353 23.752 40.3633C23.76 40.2873 23.776 40.2113 23.776 40.1353C23.78 40.0593 23.784 39.9833 23.788 39.9073C23.792 39.8313 23.8 39.7593 23.796 39.6873C23.792 39.6153 23.796 39.5473 23.796 39.4793C23.792 39.4152 23.784 39.3553 23.78 39.2952C23.776 39.2392 23.768 39.1872 23.76 39.1432C23.748 39.0992 23.748 39.0552 23.736 39.0232C23.724 38.9792 23.716 38.9472 23.704 38.9232C23.724 38.9392 23.744 38.9712 23.772 39.0072L23.768 39.0192Z" fill="#F79AA7"/>
</g>
<path d="M35.9247 21.2983C34.4286 19.8542 32.6245 18.7181 30.5044 17.8901C30.6284 15.0819 31.8325 12.9538 34.1166 11.5057C36.1927 13.3258 36.7967 16.59 35.9247 21.2983Z" fill="#F79AA7"/>
<path d="M12.6915 19.2542C10.4074 20.5783 8.72728 21.8783 7.64722 23.1584C4.90708 17.8941 4.53505 14.978 5.21909 14.67C5.90313 14.3619 10.2674 15.722 12.6955 19.2542H12.6915Z" fill="#F79AA7"/>
<g style="mix-blend-mode:multiply">
<g style="mix-blend-mode:multiply">
<path d="M30.504 17.8901C30.628 15.0819 31.8321 12.9538 34.1162 11.5057C34.1362 11.5257 34.1682 11.5537 34.2042 11.5937C33.6042 12.8658 32.5561 15.3219 32.5561 16.958C32.5561 19.0421 34.2562 18.9261 35.9243 21.2663C35.9243 21.2743 35.9203 21.2823 35.9203 21.2943C34.4242 19.8502 32.6201 18.7141 30.5 17.8861L30.504 17.8901Z" fill="#F79AA7"/>
</g>
</g>
<g style="mix-blend-mode:multiply">
<path d="M10.5112 18.3861C8.75506 16.322 6.27894 15.266 5.04688 14.842C5.09488 14.758 5.15088 14.702 5.21888 14.67C5.90292 14.3619 10.2672 15.722 12.6953 19.2542C10.4112 20.5783 8.73105 21.8783 7.65099 23.1584C7.63099 23.1184 7.61101 23.0784 7.591 23.0384C8.70706 20.2462 11.4672 19.6662 10.5152 18.3861H10.5112Z" fill="#F79AA7"/>
</g>
<path d="M28.6403 35.503C28.7403 35.503 28.8243 35.583 28.8243 35.687C28.8243 35.787 28.7403 35.867 28.6403 35.867C28.5403 35.867 28.4563 35.783 28.4563 35.687C28.4563 35.587 28.5363 35.503 28.6403 35.503Z" fill="#A5959E"/>
<path d="M28.2682 36.143C28.3683 36.143 28.4483 36.223 28.4483 36.327C28.4483 36.427 28.3683 36.511 28.2682 36.511C28.1682 36.511 28.0842 36.431 28.0842 36.327C28.0842 36.227 28.1682 36.143 28.2682 36.143Z" fill="#A5959E"/>
<path d="M28.6403 36.4951C28.7403 36.4951 28.8243 36.5791 28.8243 36.6791C28.8243 36.7791 28.7403 36.8631 28.6403 36.8631C28.5403 36.8631 28.4563 36.7791 28.4563 36.6791C28.4563 36.5791 28.5363 36.4951 28.6403 36.4951Z" fill="#A5959E"/>
<path d="M18.8556 37.8712C18.9556 37.8712 19.0356 37.9512 19.0356 38.0512C19.0356 38.1512 18.9556 38.2352 18.8556 38.2352C18.7516 38.2352 18.6716 38.1552 18.6716 38.0512C18.6716 37.9512 18.7516 37.8712 18.8556 37.8712Z" fill="#A5959E"/>
<path d="M19.0756 38.4272C19.1756 38.4272 19.2596 38.5112 19.2596 38.6112C19.2596 38.7112 19.1756 38.7952 19.0756 38.7952C18.9756 38.7952 18.8916 38.7112 18.8916 38.6112C18.8916 38.5112 18.9756 38.4272 19.0756 38.4272Z" fill="#A5959E"/>
<path d="M18.9557 39.0152C19.0557 39.0152 19.1357 39.0992 19.1357 39.1992C19.1357 39.2992 19.0557 39.3792 18.9557 39.3792C18.8557 39.3792 18.7717 39.2952 18.7717 39.1992C18.7717 39.0992 18.8557 39.0152 18.9557 39.0152Z" fill="#A5959E"/>
<path d="M28.7802 35.663C28.8682 35.651 28.9922 35.615 29.1402 35.587C29.2122 35.571 29.2922 35.559 29.3802 35.543C29.4642 35.523 29.5562 35.499 29.6482 35.475C29.8323 35.431 30.0282 35.391 30.2283 35.347C30.3283 35.331 30.4243 35.303 30.5203 35.275C30.6163 35.251 30.7123 35.227 30.8043 35.207C30.9883 35.163 31.1603 35.123 31.3123 35.095C31.4603 35.063 31.5883 35.047 31.6763 35.031C31.7363 35.023 31.7844 35.015 31.8164 35.011C31.7844 35.027 31.7403 35.043 31.6883 35.067C31.6043 35.099 31.4883 35.147 31.3443 35.199C31.2003 35.251 31.0323 35.311 30.8483 35.367C30.6643 35.423 30.4723 35.487 30.2723 35.527C30.0723 35.567 29.8682 35.607 29.6802 35.635C29.5882 35.647 29.4962 35.663 29.4082 35.679C29.3202 35.687 29.2362 35.691 29.1602 35.695C29.0802 35.699 29.0122 35.699 28.9482 35.703C28.8842 35.703 28.8322 35.707 28.7882 35.703C28.7282 35.699 28.6842 35.695 28.6482 35.691C28.6802 35.683 28.7282 35.675 28.7882 35.667L28.7802 35.663Z" fill="#665E63"/>
<path d="M28.4322 36.3231C28.5362 36.3271 28.6882 36.3311 28.8682 36.3391C29.2282 36.3591 29.7082 36.3991 30.1843 36.4511C30.6603 36.5071 31.1363 36.5791 31.4923 36.6431C31.6723 36.6751 31.8164 36.7071 31.9204 36.7311C31.9884 36.7471 32.0404 36.7591 32.0844 36.7671C32.0444 36.7671 31.9884 36.7671 31.9164 36.7671C31.8084 36.7631 31.6603 36.7631 31.4803 36.7511C31.1203 36.7311 30.6403 36.6911 30.1643 36.6391C29.6882 36.5831 29.2122 36.5111 28.8562 36.4471C28.6762 36.4151 28.5322 36.3831 28.4282 36.3631C28.3602 36.3471 28.3042 36.3351 28.2642 36.3271C28.3042 36.3271 28.3602 36.3271 28.4322 36.3271V36.3231Z" fill="#665E63"/>
<path d="M29.1962 36.8511C29.3602 36.9071 29.5522 36.9831 29.7522 37.0671C29.9562 37.1471 30.1642 37.2511 30.3762 37.3511C30.5842 37.4552 30.7882 37.5672 30.9803 37.6752C31.1643 37.7912 31.3363 37.9032 31.4803 37.9992C31.6203 38.1032 31.7323 38.2032 31.8083 38.2672C31.8603 38.3112 31.9003 38.3472 31.9283 38.3712C31.8923 38.3552 31.8443 38.3312 31.7843 38.2952C31.6963 38.2432 31.5683 38.1752 31.4203 38.0912C31.2643 38.0152 31.0843 37.9192 30.8963 37.8192C30.7003 37.7272 30.4962 37.6192 30.2922 37.5152C30.0842 37.4112 29.8762 37.3111 29.6842 37.2151C29.4882 37.1151 29.3082 37.0271 29.1522 36.9471C29.0001 36.8671 28.8681 36.7991 28.7801 36.7511C28.7201 36.7191 28.6721 36.6951 28.6401 36.6751C28.7921 36.7111 28.9762 36.7711 29.1962 36.8471V36.8511Z" fill="#665E63"/>
<path d="M18.6716 38.0792C18.5556 38.0912 18.3876 38.1111 18.1876 38.1232C17.9876 38.1392 17.7516 38.1472 17.4995 38.1512C17.3755 38.1512 17.2435 38.1592 17.1115 38.1512C16.9795 38.1472 16.8435 38.1432 16.7115 38.1392C16.4435 38.1312 16.1715 38.0992 15.9235 38.0792C15.7955 38.0712 15.6755 38.0432 15.5595 38.0271C15.4474 38.0071 15.3354 37.9872 15.2354 37.9712C15.1354 37.9592 15.0474 37.9231 14.9674 37.9031C14.8874 37.8791 14.8194 37.8591 14.7634 37.8391C14.6874 37.8151 14.6274 37.7991 14.5874 37.7831C14.6314 37.7871 14.6954 37.7951 14.7714 37.8031C14.8314 37.8111 14.8994 37.8191 14.9794 37.8311C15.0634 37.8391 15.1514 37.8591 15.2514 37.8631C15.3514 37.8711 15.4594 37.8791 15.5754 37.8871C15.6914 37.8951 15.8115 37.9111 15.9355 37.9151C16.1875 37.9231 16.4515 37.9471 16.7195 37.9551C17.2516 37.9751 17.7876 37.9991 18.1916 38.0151C18.3916 38.0271 18.5596 38.0352 18.6756 38.0432C18.7556 38.0472 18.8156 38.0512 18.8596 38.0552C18.8156 38.0632 18.7516 38.0712 18.6756 38.0792H18.6716Z" fill="#665E63"/>
<path d="M18.9238 38.6632C18.8238 38.6952 18.6838 38.7472 18.5157 38.7912C18.3437 38.8432 18.1437 38.8952 17.9317 38.9432C17.7157 38.9952 17.4837 39.0392 17.2557 39.0832C17.0237 39.1232 16.7877 39.1592 16.5676 39.1832C16.3476 39.2072 16.1396 39.2232 15.9636 39.2312C15.7836 39.2392 15.6396 39.2272 15.5356 39.2272C15.4676 39.2232 15.4116 39.2232 15.3716 39.2192C15.4116 39.2112 15.4636 39.2032 15.5316 39.1912C15.6316 39.1752 15.7796 39.1512 15.9516 39.1272C16.2996 39.0672 16.7597 38.9832 17.2197 38.9032C17.4517 38.8632 17.6837 38.8192 17.8997 38.7832C18.1157 38.7472 18.3197 38.7152 18.4917 38.6872C18.6678 38.6632 18.8118 38.6392 18.9158 38.6272C18.9838 38.6192 19.0358 38.6112 19.0758 38.6072C19.0398 38.6232 18.9878 38.6392 18.9238 38.6632Z" fill="#665E63"/>
<path d="M18.4996 39.4952C18.3596 39.5792 18.1916 39.6712 18.0156 39.7712C17.8396 39.8712 17.6396 39.9592 17.4436 40.0512C17.2436 40.1392 17.0475 40.2312 16.8595 40.3072C16.6675 40.3753 16.4835 40.4353 16.3275 40.4833C16.1715 40.5313 16.0395 40.5673 15.9475 40.5953C15.8875 40.6113 15.8395 40.6273 15.8035 40.6313C15.8355 40.6113 15.8795 40.5873 15.9355 40.5593C16.0195 40.5153 16.1395 40.4513 16.2875 40.3833C16.4355 40.3113 16.6075 40.2352 16.7915 40.1552C16.9715 40.0672 17.1675 39.9712 17.3636 39.8792C17.5596 39.7912 17.7596 39.7032 17.9436 39.6192C18.1316 39.5352 18.3036 39.4592 18.4516 39.3952C18.6036 39.3352 18.7316 39.2832 18.8156 39.2472C18.8756 39.2232 18.9236 39.2072 18.9556 39.1952C18.8396 39.2792 18.6876 39.3792 18.4996 39.4912V39.4952Z" fill="#665E63"/>
<path d="M2.44309 33.1509L2.37109 33.2109C2.38309 33.1949 2.40709 33.1749 2.44309 33.1509Z" fill="#A5959E"/>
<path d="M26.6805 16.8621C26.2525 16.77 25.8765 16.65 25.5444 16.514C26.0285 16.634 26.4045 16.75 26.6805 16.8621Z" fill="#A5959E"/>
<path d="M39.7731 25.9306C39.7051 25.8946 39.653 25.8666 39.613 25.8386C39.653 25.8626 39.7051 25.8906 39.7731 25.9306Z" fill="#A5959E"/>
<g style="mix-blend-mode:screen">
<path d="M29.5082 29.9748C26.02 28.9827 22.0118 29.1907 17.4875 30.5948C19.4797 29.4187 24.0919 28.1787 29.5082 29.9748Z" fill="#A5959E"/>
</g>
<g style="mix-blend-mode:screen">
<path d="M31.3924 19.1942C26.8962 16.958 23.144 16.126 20.1318 16.698C22.284 15.626 26.8762 16.414 31.3924 19.1942Z" fill="#A5959E"/>
</g>
<g style="mix-blend-mode:multiply" opacity="0.7">
<path d="M31.0002 30.7788C24.8959 29.5387 18.9396 30.0987 13.1233 32.4509C17.7955 29.8467 25.3919 28.6107 31.0002 30.7788Z" fill="#A5959E"/>
</g>
<g style="mix-blend-mode:screen">
<path d="M4.40698 13.7419C6.89912 13.7819 9.32725 14.8139 11.6914 16.838C12.5034 17.3981 9.32724 13.3099 4.40698 13.7419Z" fill="#A5959E"/>
</g>
<g style="mix-blend-mode:screen">
<path d="M33.4924 11.0777C32.0803 12.6898 30.8123 14.3219 29.6922 15.974C29.0682 16.778 30.3763 12.9978 33.4924 11.0777Z" fill="#A5959E"/>
</g>
<g style="mix-blend-mode:screen">
<path d="M36.9326 23.5744C37.8687 24.8025 38.9767 25.5505 40.2528 25.8225C38.6807 26.0945 37.1726 24.6625 36.9326 23.5744Z" fill="#A5959E"/>
</g>
<g style="mix-blend-mode:screen">
<path d="M36.6245 26.6746C37.9246 26.5626 39.1006 26.6506 40.1487 26.9466C38.9486 26.1985 37.7526 26.0265 36.6245 26.6746Z" fill="#A5959E"/>
</g>
<g style="mix-blend-mode:screen">
<path d="M5.35894 29.0267C4.89091 30.3587 3.97486 31.2908 2.60278 31.8148C3.81885 32.1388 5.40294 30.5148 5.35894 29.0267Z" fill="#A5959E"/>
</g>
<g style="mix-blend-mode:screen">
<path d="M6.75891 31.9548C5.63885 31.9228 4.64281 32.1268 3.77076 32.5589C2.46269 33.2109 5.03082 30.7908 6.75891 31.9548Z" fill="#A5959E"/>
</g>
<g style="mix-blend-mode:multiply" opacity="0.5">
<g style="mix-blend-mode:multiply" opacity="0.5">
<path d="M22.0321 40.1352C23.0081 39.6992 23.5721 39.1752 23.7322 38.5712C23.9082 38.8512 24.3202 39.3472 24.9762 39.5792C25.2082 40.1712 25.2682 40.7313 25.1522 41.2593C25.1522 41.0433 25.1082 39.8712 24.4122 39.5792C24.0162 39.3592 24.1922 40.4153 23.6722 41.2233C23.7202 39.8992 22.6121 39.5792 22.4881 40.4873C22.3641 41.3953 22.9801 42.3754 23.9402 42.2274C24.5562 42.1314 24.8562 41.8593 24.9962 41.6713C24.8042 42.0314 24.4442 42.3154 23.8042 42.4154C22.3721 42.6314 21.78 41.8753 22.0281 40.1392L22.0321 40.1352Z" fill="#F79AA7"/>
</g>
</g>
<g style="mix-blend-mode:screen">
<path d="M24.7078 40.2633C24.9559 40.9673 24.7919 41.4834 24.2158 41.8074C24.8559 41.9274 25.2759 41.0473 24.7078 40.2633Z" fill="#F79AA7"/>
</g>
<g style="mix-blend-mode:screen">
<path d="M29.2044 29.2067C28.1003 28.8387 27.1603 28.8066 26.3762 29.1107C27.2883 28.6546 28.0523 28.6306 29.2044 29.2067Z" fill="#A5959E"/>
</g>
<g style="mix-blend-mode:screen">
<path d="M18.4836 30.0667C17.5275 29.9827 16.7395 30.1787 16.1155 30.6548C16.9555 29.8187 18.0156 29.6627 18.4836 30.0667Z" fill="#A5959E"/>
</g>
<g style="mix-blend-mode:screen">
<path d="M36.3325 27.8906C39.8007 30.2428 39.4326 33.1469 35.2324 36.5951C37.8006 35.439 41.2287 30.4468 36.3325 27.8906Z" fill="#A5959E"/>
</g>
<g style="mix-blend-mode:screen">
<path d="M56.6855 34.2869C63.5699 33.3589 68.4302 36.7271 71.2663 44.3795C70.4143 40.3313 66.5261 32.6548 56.6855 34.2869Z" fill="#A5959E"/>
</g>
<path d="M2.92691 74.3411C3.30293 73.0851 4.46701 72.065 5.59107 72.621C7.59917 69.2289 11.9914 62.7245 14.7916 59.0523C17.4517 55.5681 20.2358 51.4319 21.1519 48.3677C20.3318 52.712 22.888 55.8561 28.8203 57.7962C27.2242 59.3563 24.5881 61.1804 20.9119 63.2765C14.2315 67.0887 11.0074 70.0649 10.8234 70.4809C10.6393 70.9009 12.0394 71.457 11.5234 74.7571C11.0114 78.0573 7.59916 79.4054 5.73106 77.6373C5.17103 77.7773 4.14299 77.3573 3.81497 76.8012C3.43895 76.8933 2.55489 75.5932 2.92691 74.3371V74.3411Z" fill="#7A6572"/>
<g style="mix-blend-mode:multiply" opacity="0.7">
<g style="mix-blend-mode:multiply" opacity="0.7">
<path d="M3.75095 75.9092C3.97896 76.8572 4.93102 77.2652 5.13503 76.7892C5.27104 77.1052 5.97507 77.5773 7.13114 77.4453C8.2912 77.3093 8.87923 75.2972 7.92718 74.3731C6.97512 73.4491 5.43104 74.0571 4.99902 75.7732C4.88301 74.0091 5.97508 73.6291 5.61106 73.445C5.24704 73.265 4.54301 73.4451 3.79497 74.7091C3.93098 73.153 5.15503 73.061 4.727 72.833C4.43899 72.681 3.93097 72.969 3.20693 73.6891H3.20292C3.71895 72.761 4.67102 72.153 5.59106 72.613C5.88308 72.117 6.2311 71.5489 6.61912 70.9369C5.92308 72.817 8.20319 73.8571 9.23125 72.513C10.2993 71.1169 8.78323 70.0009 10.6353 68.7728C14.0555 66.2607 16.6917 64.0285 19.9438 61.4644C23.196 58.8963 22.2999 54.8801 20.7319 53.876C19.1598 52.8719 13.9995 61.0164 11.1954 64.1406C11.0954 64.2526 10.9993 64.3566 10.9033 64.4566C12.2874 62.4525 13.6675 60.5164 14.7956 59.0403C17.4557 55.5561 20.2398 51.4199 21.1559 48.3557C20.3358 52.6999 22.892 55.8441 28.8243 57.7842C25.1401 61.3804 24.8601 61.0164 20.9159 63.2645C14.2355 67.0767 11.0113 70.0529 10.8273 70.4689C10.6433 70.8889 12.0434 71.4449 11.5274 74.7451C11.0153 78.0453 7.60317 79.3934 5.73507 77.6253C5.17504 77.7653 4.14699 77.3453 3.81897 76.7892C3.52296 76.8652 2.90293 76.0612 2.84692 75.1011C2.96293 75.6652 3.42293 76.3252 3.75095 75.8972V75.9092Z" fill="#A5959E"/>
</g>
</g>
<g style="mix-blend-mode:screen" opacity="0.5">
<path d="M18.9638 55.8121C14.3596 60.8803 10.9074 65.2846 8.60327 69.0328C10.1754 64.9726 16.8717 57.3722 18.9638 55.8121Z" fill="#A5959E"/>
</g>
<path d="M6.53929 74.4371C5.72325 74.6531 5.31922 75.3412 5.33522 76.5092C5.40722 77.2253 4.8272 76.1212 5.51924 74.9451C6.21528 73.7731 6.95531 74.0931 6.53528 74.4371H6.53929Z" fill="#A5959E"/>
<path d="M5.05109 73.6731C4.25104 74.1171 3.95505 74.9371 4.17106 76.1372C4.28707 76.6452 3.68702 75.5372 4.07904 74.5731C4.47106 73.6051 5.09509 73.4691 5.05109 73.6731Z" fill="#A5959E"/>
<path d="M4.13103 73.229C3.33499 73.609 3.00699 74.3771 3.147 75.5331C3.227 76.0252 2.71495 74.9331 3.15098 74.0291C3.583 73.125 4.19104 73.029 4.13504 73.225L4.13103 73.229Z" fill="#A5959E"/>
<g style="mix-blend-mode:screen">
<path d="M30.6765 76.1972C29.6484 76.4452 28.9324 77.2212 28.5284 78.5213C28.3403 79.0333 28.2963 76.1532 30.6765 76.1972Z" fill="#A5959E"/>
</g>
<g style="mix-blend-mode:screen">
<path d="M29.2002 75.2571C28.1722 75.5051 27.4562 76.2812 27.0482 77.5812C26.8641 78.0933 26.8161 75.2091 29.2002 75.2571Z" fill="#A5959E"/>
</g>
<g style="mix-blend-mode:screen">
<path d="M27.7481 74.2491C26.86 74.6571 26.348 75.4892 26.216 76.7452C26.14 77.2413 25.576 74.6331 27.7481 74.2491Z" fill="#A5959E"/>
</g>
<g style="mix-blend-mode:screen">
<path d="M70.1144 76.3132C69.5824 76.8012 69.5344 77.5653 69.9664 78.6093C70.1544 79.2774 69.4624 78.4853 69.4624 77.3573C69.4624 76.2292 70.1784 76.0012 70.1144 76.3132Z" fill="#A5959E"/>
</g>
<g style="mix-blend-mode:screen">
<path d="M68.6063 76.0732C68.0743 76.5612 68.0263 77.3253 68.4583 78.3693C68.6503 79.0374 67.9583 78.2453 67.9583 77.1173C67.9583 75.9892 68.6703 75.7612 68.6063 76.0732Z" fill="#A5959E"/>
</g>
<g style="mix-blend-mode:screen">
<path d="M67.3704 75.8212C66.8663 76.3372 66.8583 77.1053 67.3504 78.1213C67.5784 78.7773 66.8423 78.0253 66.7783 76.8972C66.7143 75.7732 67.4144 75.5012 67.3704 75.8172V75.8212Z" fill="#A5959E"/>
</g>
<g style="mix-blend-mode:screen">
<path d="M70.7505 63.0605C73.8787 65.1046 74.9987 68.3768 74.1107 72.881C75.5107 69.0488 74.2507 64.4526 70.7505 63.0605Z" fill="#A5959E"/>
</g>
<g style="mix-blend-mode:screen">
<path d="M33.8044 54.172C38.2247 57.2962 39.3488 62.6564 37.1686 70.2488C39.5048 65.6966 39.8768 58.0722 33.8044 54.172Z" fill="#A5959E"/>
</g>
<g style="mix-blend-mode:screen">
<path d="M23.2401 47.9597C22.4241 51.0598 24.6682 53.9 29.9805 56.4921C26.3803 55.428 21.708 52.0759 23.2401 47.9597Z" fill="#A5959E"/>
</g>
<path d="M34.6245 12.8818C35.7286 14.8859 36.0646 17.1221 35.6325 19.5902C36.2806 17.4701 36.1646 14.9979 34.6245 12.8818Z" fill="white"/>
<path d="M5.71503 15.7859C5.83903 17.562 6.37906 19.4621 7.33511 21.4863C6.21505 19.7502 5.59102 17.9541 5.71503 15.7859Z" fill="white"/>
</svg>
