<svg width="83" height="65" viewBox="0 0 83 65" fill="none" xmlns="http://www.w3.org/2000/svg">
<path d="M77.3693 26.2919C77.3953 26.2724 77.418 26.2529 77.444 26.2334C79.9693 24.3581 80.2131 20.8578 78.1753 16.7076C76.1668 13.178 73.6967 11.4978 70.7652 11.6603L68.7307 7.91626C72.0977 8.24126 75.026 10.305 77.522 14.1043C81.2693 19.8048 80.2098 23.7114 78.9065 25.2584C78.471 25.7751 78.2728 26.1456 78.2793 26.4576C77.99 26.2821 77.6748 26.2431 77.3628 26.2951L77.3693 26.2919Z" fill="#BBBECF"/>
<g style="mix-blend-mode:multiply" opacity="0.5">
<g style="mix-blend-mode:multiply" opacity="0.5">
<path d="M79.8229 23.4872C79.5954 24.2444 79.2639 24.8359 78.9096 25.2584C78.4741 25.7752 78.2759 26.1457 78.2824 26.4577C77.9931 26.2822 77.6779 26.2432 77.3659 26.2952C77.3919 26.2757 77.4146 26.2562 77.4406 26.2367C79.9659 24.3614 80.2096 20.8611 78.1719 16.7109C76.1634 13.1813 73.6933 11.5011 70.7618 11.6636L68.7273 7.91956C69.1628 7.96181 69.7153 8.09831 70.3881 8.32906C70.3296 8.43956 70.3426 8.58907 70.4693 8.80032C71.0803 9.83057 71.7271 10.6333 73.0629 11.3191C74.3986 12.0081 79.6669 15.1379 79.8294 21.4884C79.7741 22.5056 79.7156 23.2727 79.8196 23.4904L79.8229 23.4872Z" fill="#BBBECF"/>
</g>
</g>
<path d="M81.5163 31.2839C81.76 32.5839 81.1913 34.9466 78.8285 35.7624C79.316 35.3269 79.4785 34.7581 79.316 34.0529C79.2055 34.5404 79.017 34.7289 78.7472 34.6216C78.8285 33.9684 78.341 33.1559 77.5252 32.9121C76.7127 32.6651 75.9782 32.8309 75.4095 31.1181C74.5222 29.9936 74.9155 28.1443 77.3692 26.2918C77.6812 26.2398 77.9965 26.2788 78.2857 26.4543C78.2987 27.0751 79.1307 27.4553 80.538 28.2678C82.657 29.4898 82.0038 32.1776 81.5163 31.2806V31.2839Z" fill="#6E717F"/>
<g style="mix-blend-mode:multiply" opacity="0.5">
<path d="M81.5486 32.0931C81.5551 32.0216 81.5583 31.9631 81.5648 31.9111C81.5551 33.2404 80.8433 35.0669 78.8251 35.7624C79.3126 35.3269 79.4751 34.7581 79.3126 34.0529C79.2021 34.5404 79.0136 34.7289 78.7438 34.6216C78.8251 33.9684 78.3376 33.1559 77.5218 32.9121C76.7093 32.6651 75.9748 32.8309 75.406 31.1181C74.5188 29.9936 74.9121 28.1443 77.3658 26.2918C77.6778 26.2398 77.9931 26.2788 78.2823 26.4543C78.2953 27.0751 79.1273 27.4553 80.5346 28.2678C81.0643 28.5733 81.4218 28.9698 81.6493 29.3761C81.2106 28.8431 80.6093 28.2516 79.9496 27.9818C78.6041 27.4358 78.4221 27.5463 78.1686 27.1108C77.9151 26.6721 76.9335 27.5106 76.8588 28.6351C77.005 29.6913 76.5306 28.8918 76.6768 27.9818C76.8231 27.0718 75.2955 28.7813 75.4775 30.2016C75.6953 31.0011 75.8383 30.2374 76.1308 29.9091C76.4233 29.5809 75.8773 31.9826 77.5868 32.2719C78.8576 32.5286 78.9681 33.2176 78.9681 33.6531C78.9681 34.0886 79.5888 33.1819 79.2216 32.2719C78.8576 31.3619 80.0568 32.8146 79.8781 34.0529C79.6993 35.2911 81.4771 33.7636 81.5486 32.0899V32.0931Z" fill="#6E717F"/>
</g>
<g style="mix-blend-mode:screen">
<path d="M81.8249 31.063C81.6722 30.504 81.4057 30.1985 81.0254 30.1432C81.5942 31.1182 81.5129 32.4247 80.7004 32.7497C81.6364 31.271 81.1034 29.7142 79.1079 28.0795C80.9149 28.801 81.8184 29.7987 81.8249 31.0662V31.063Z" fill="#6E717F"/>
</g>
<g style="mix-blend-mode:screen">
<path d="M72.9133 10.1523C75.7538 11.7904 77.7916 14.1466 79.0201 17.2179C78.2141 14.4911 75.4873 11.0363 72.9133 10.1523Z" fill="#BBBECF"/>
</g>
<path d="M60.4528 44.3391C60.4755 44.3489 60.4983 44.3554 60.5243 44.3651C60.3423 44.7064 60.495 45.0736 60.6738 46.1656C60.9468 47.8036 61.834 51.7654 61.834 54.9049C61.834 56.4779 60.4008 58.5255 56.0977 58.7985C53.2312 58.9805 51.2487 58.5482 50.1567 57.5017C50.6767 55.0317 50.862 51.9247 50.7157 48.1774C53.384 48.0116 58.8928 45.8959 60.4528 44.3391Z" fill="#9C9FAF"/>
<g style="mix-blend-mode:multiply" opacity="0.7">
<g style="mix-blend-mode:multiply" opacity="0.7">
<path d="M61.834 54.554C61.8372 54.6742 61.8373 54.7912 61.8373 54.9082C61.8373 56.4812 60.404 58.5288 56.101 58.8018C53.2344 58.9838 51.2519 58.5515 50.1599 57.505C50.6799 55.035 50.8652 51.928 50.7189 48.1807C53.3872 48.0149 58.896 45.8992 60.456 44.3424C60.4787 44.3522 60.5015 44.3587 60.5275 44.3684C60.3455 44.7097 60.4983 45.0769 60.677 46.1689C60.8103 46.9684 61.0897 48.3172 61.34 49.8577C60.911 48.3854 59.936 46.6174 57.7845 47.3974C54.2907 48.6584 52.6429 49.3377 52.4479 51.9572C52.2562 54.5767 52.838 54.9635 54.2907 54.5767C55.7467 54.19 54.97 55.256 56.426 54.9667C57.882 54.6775 57.9762 55.7435 58.0737 56.712C58.168 57.648 61.5057 56.9557 61.8307 54.5605L61.834 54.554Z" fill="#9C9FAF"/>
</g>
</g>
<path d="M25.9312 44.1767C28.2647 48.4114 30.9265 50.745 31.9015 51.72C32.8797 52.6982 32.9318 53.4587 32.6068 55.6817C32.1713 58.8862 29.295 60.079 25.9832 60.729C22.6714 61.379 21.0952 58.6652 20.0129 56.8192C15.9212 49.0744 15.7229 43.4487 19.4149 39.9386C20.8807 39.0189 23.5944 39.9386 25.928 44.1734L25.9312 44.1767Z" fill="#9C9FAF"/>
<g style="mix-blend-mode:multiply" opacity="0.7">
<g style="mix-blend-mode:multiply" opacity="0.7">
<path d="M32.6102 55.6817C32.1747 58.8862 29.2985 60.079 25.9867 60.729C23.1397 61.288 21.5764 59.3575 20.5007 57.6317C21.2612 56.8582 22.7692 58.051 23.5427 57.4173C24.4364 56.6828 25.7397 58.0673 25.9867 57.4173C26.2304 56.764 27.2087 56.0328 28.1057 56.8453C28.9994 57.661 29.9809 58.6393 30.7122 57.5798C31.4434 56.5203 31.5279 54.7295 25.0961 50.9042C18.6611 47.0789 20.2081 42.5192 18.8236 43.0879C17.9006 43.4682 17.4131 45.5287 17.3611 49.2759L17.3383 49.2792C16.6526 45.0282 17.3481 41.9147 19.4249 39.9386C20.8906 39.0189 23.6044 39.9386 25.9379 44.1734C28.2714 48.4082 30.9332 50.7417 31.9082 51.7167C32.8865 52.695 32.9384 53.4555 32.6134 55.6785L32.6102 55.6817Z" fill="#9C9FAF"/>
</g>
</g>
<path d="M82.8717 47.2707C82.8717 51.5023 79.8751 56.4455 77.7854 55.6395C75.9101 54.6743 75.5916 54.5671 73.7164 54.086C71.8411 53.605 63.1181 51.967 62.9556 42.113C62.3023 42.7207 61.6815 43.2765 61.09 43.777C60.7943 44.0272 60.6188 44.193 60.5278 44.3652C60.505 44.3555 60.4823 44.349 60.4563 44.3392C58.8995 45.896 53.3908 48.0117 50.7192 48.1775C50.8687 51.9248 50.6802 55.0318 50.1602 57.5018C50.4202 61.1386 49.7605 63.4104 48.181 64.3204C47.2937 63.2284 41.6192 61.9933 37.2772 61.0541C35.0021 60.5633 33.8354 60.7063 33.2536 61.0443C33.0391 60.4041 33.2601 59.5688 33.9784 58.2526C36.0941 54.3623 37.8036 50.6703 38.2781 47.4625C36.9131 47.7355 31.3588 46.9977 27.6148 42.438C23.8675 37.8782 27.4523 31.4464 32.9059 28.9211C36.5426 27.2376 43.7902 19.8568 54.6452 6.77548C56.6733 4.96522 59.4585 4.31523 63.0043 4.82223C68.3246 5.58274 75.0554 10.682 74.1876 28.2711C73.5344 33.9197 72.6666 36.9584 75.9231 40.2149C77.7691 41.9505 78.8546 40.8649 79.9434 40.8649C81.0289 40.8649 82.8717 43.0359 82.8717 47.2707Z" fill="#BBBECF"/>
<g style="mix-blend-mode:multiply" opacity="0.5">
<g style="mix-blend-mode:multiply" opacity="0.5">
<path d="M82.8717 47.2707C82.8717 51.5023 79.8751 56.4455 77.7854 55.6395C75.9101 54.6743 75.5916 54.5671 73.7164 54.086C71.8411 53.605 63.1181 51.967 62.9556 42.113C62.3023 42.7207 61.6815 43.2765 61.09 43.777C60.7943 44.0272 60.6188 44.193 60.5278 44.3652C60.505 44.3555 60.4823 44.349 60.4563 44.3392C58.8995 45.896 53.3908 48.0117 50.7192 48.1775C50.8687 51.9248 50.6802 55.0318 50.1602 57.5018C50.4202 61.1386 49.7605 63.4104 48.181 64.3204C47.2937 63.2284 41.6192 61.9933 37.2772 61.0541C35.0021 60.5633 33.8354 60.7063 33.2536 61.0443C33.0391 60.4041 33.2601 59.5688 33.9784 58.2526C36.0941 54.3623 37.8036 50.6703 38.2781 47.4625C36.9131 47.7355 31.3588 46.9977 27.6148 42.438C23.8675 37.8782 27.4523 31.4464 32.9059 28.9211C36.5426 27.2376 43.7902 19.8568 54.6452 6.77548C56.6733 4.96522 59.4585 4.31523 63.0043 4.82223C63.2708 4.86124 63.5373 4.90672 63.8071 4.96847C63.6868 4.95547 63.5633 4.94247 63.4366 4.92947C60.18 4.60447 56.9235 6.55773 56.163 12.7458C55.4058 18.9338 51.821 20.1266 48.8895 21.6476C45.958 23.1686 44.2224 30.6599 36.4061 34.0237C32.7141 35.6552 31.9211 38.3104 33.0391 41.1899C34.5601 45.0965 38.3594 46.0747 38.5772 41.84C38.7949 37.6084 40.0982 39.1262 39.6627 44.011C39.1199 48.028 38.1417 49.5458 39.8804 49.6563C41.3982 49.7635 40.3127 50.7417 39.2272 50.524C38.2489 50.3062 38.1416 52.37 36.8416 55.0838C35.5384 57.3653 39.3377 56.9298 41.4014 58.9936C43.4652 61.0541 44.3329 61.7073 46.3967 61.8146C48.4572 61.9218 50.6315 49.5458 48.5677 39.1262C48.0217 36.5197 49.7605 39.6689 50.3032 41.4077C50.846 43.1432 51.2815 40.4294 51.6097 39.0189C51.9347 37.6084 52.6952 38.9084 51.9347 42.386C51.1742 45.857 70.8271 39.9972 68.9811 19.9121C68.3311 16.7628 73.2159 25.2324 69.7416 33.6987C66.5956 41.515 63.8786 43.14 65.6141 46.507C67.3528 49.874 68.7633 48.353 69.4166 47.9207C70.0666 47.4852 70.6093 47.9207 69.6343 49.4418C68.6561 50.9628 72.6731 53.0233 75.1724 52.8088C77.6684 52.591 80.7072 50.095 80.4894 46.078C80.2749 42.061 78.8612 42.9287 76.8007 43.0392C74.7369 43.1465 70.8303 39.7827 72.6731 33.2664C73.4271 30.6111 73.9276 28.4791 74.2526 26.5714C74.2396 27.1271 74.2201 27.6926 74.1941 28.2711C73.5409 33.9197 72.6731 36.9584 75.9296 40.2149C77.7756 41.9505 78.8611 40.8649 79.9499 40.8649C81.0354 40.8649 82.8782 43.0359 82.8782 47.2707H82.8717Z" fill="#BBBECF"/>
</g>
</g>
<g style="mix-blend-mode:multiply" opacity="0.7">
<path d="M38.2976 48.1319C38.2229 48.3302 38.1319 48.5154 38.0409 48.6909C38.1384 48.2717 38.2164 47.8654 38.2781 47.4624C36.9131 47.7354 31.3588 46.9977 27.6148 42.4379C23.8675 37.8781 27.4523 31.4463 32.9059 28.9211C36.5426 27.2376 43.7902 19.8567 54.6452 6.77542C55.4968 6.01491 56.7058 5.43642 58.269 5.03992C57.4955 5.68667 56.7773 6.67791 56.4815 8.19567C55.9778 10.7924 55.6528 11.3677 55.5098 9.92469C55.4383 13.8215 54.2097 15.986 51.8307 16.4182C50.2057 18.9078 48.909 19.2328 47.5017 20.2078C46.0944 21.1795 46.6079 22.928 43.1727 27.0263C40.6246 30.0651 35.9739 33.3736 34.0564 33.4516C33.1919 34.8231 32.2981 35.4243 31.3751 35.2521C31.8106 38.5704 32.0251 41.2062 32.0251 43.1529C31.9146 45.8602 37.6509 47.6997 38.7364 44.2352C39.6009 40.9884 39.2759 45.6424 38.3009 48.1319H38.2976Z" fill="#7F85A0"/>
</g>
<path d="M77.9351 55.7273C76.5896 55.1878 76.0891 54.6679 76.4271 54.1673C76.6968 53.8098 77.4411 53.9593 78.6631 54.6256C78.1788 53.6928 78.1788 53.0298 78.6631 52.6333C79.1474 52.2368 79.7648 52.2206 80.5188 52.5781C80.1938 52.0776 80.1776 51.6193 80.4636 51.2066C80.7529 50.7938 81.3444 50.6768 82.2381 50.8556C81.3411 54.1218 79.9079 55.7468 77.9318 55.7273H77.9351Z" fill="#D9DBE8"/>
<path d="M15.645 35.6811C13.8543 35.5998 12.3072 34.5436 13.2823 34.0528C13.9355 33.7278 14.3678 33.3996 14.5855 33.0746C14.9138 33.7278 15.2648 34.5956 15.645 35.6811Z" fill="#EDE7CD"/>
<g style="mix-blend-mode:multiply">
<g style="mix-blend-mode:multiply">
<path d="M15.6452 35.6811C14.836 35.6453 14.0755 35.4081 13.575 35.1123C14.9562 35.5543 14.953 34.7028 14.628 34.0528C14.303 33.3996 14.1795 34.0106 13.2825 34.0528C13.9357 33.7278 14.368 33.3996 14.5857 33.0746C14.914 33.7278 15.265 34.5956 15.6452 35.6811Z" fill="#EDE7CD"/>
</g>
</g>
<path d="M13.1135 34.2738C13.6238 34.3681 14.0463 34.2348 14.3843 33.8773C14.524 34.2738 13.6498 34.7808 13.1135 34.2738Z" fill="white"/>
<path d="M14.517 28.1833C14.5658 29.0933 11.527 28.6545 10.5552 28.4303C9.58021 28.2093 7.01594 27.504 6.73644 26.1325C4.37042 26.4867 1.66966 22.291 2.06941 21.3355C1.17241 21.4297 0.164914 19.5935 0.00891259 17.9197C-0.117838 16.5774 2.06941 16.1842 4.50042 13.8572C8.8652 9.64191 10.591 6.37237 13.5582 6.48937C15.5342 6.56737 17.0975 7.5879 18.2513 9.55416C16.1128 19.4927 14.868 25.7035 14.5203 28.1833H14.517Z" fill="#BBBECF"/>
<g style="mix-blend-mode:multiply" opacity="0.5">
<g style="mix-blend-mode:multiply" opacity="0.5">
<path d="M0.00543652 17.9197C-0.111564 16.7042 1.67594 16.2655 3.82096 14.4649C3.77221 14.5234 3.72021 14.5819 3.66496 14.6404C2.15695 16.1744 4.1232 15.9177 7.17821 12.7327C10.2332 9.55091 12.0923 8.25415 13.012 8.1599C13.9285 8.06565 14.4908 7.23364 13.3988 6.96064C12.0988 6.65514 10.451 7.59765 8.45224 9.78816L8.384 9.76866C10.2755 7.7179 11.6633 6.41463 13.5548 6.48938C15.5308 6.56738 17.094 7.58791 18.2478 9.55417C16.1093 19.4927 14.8645 25.7035 14.5168 28.1833C14.5655 29.0933 11.5267 28.6545 10.555 28.4303C9.57998 28.2093 7.01572 27.504 6.73622 26.1325C4.3702 26.4868 1.66944 22.291 2.06919 21.3355C1.17219 21.4297 0.164691 19.5935 0.00868972 17.9197H0.00543652Z" fill="#83ABC6"/>
</g>
</g>
<path d="M2.07303 17.5557C5.5018 15.6155 7.92959 12.6352 10.7084 10.1489C13.4676 7.67891 15.2454 8.43292 17.8811 11.2734C17.0231 15.3002 14.9301 25.242 14.5174 28.1865C14.5661 29.0965 11.5273 28.6578 10.5556 28.4335C9.58057 28.2125 7.01631 27.5073 6.7368 26.1358C4.37079 26.49 1.67003 22.2943 2.06978 21.3387C1.44253 21.4037 0.760012 20.523 0.35376 19.4147C0.581261 18.768 1.09153 18.1147 2.07303 17.559V17.5557Z" fill="#F9A3C6"/>
<g style="mix-blend-mode:multiply" opacity="0.5">
<g style="mix-blend-mode:multiply" opacity="0.5">
<path d="M0.35376 19.4115C0.581261 18.7647 1.09153 18.1115 2.07303 17.5557C3.65904 16.662 5.02732 15.5375 6.32083 14.348C6.30458 14.3772 6.28832 14.4065 6.26882 14.4325C4.88431 16.6295 1.54979 17.7962 1.92029 19.1255C2.16729 20.0127 2.71006 20.276 3.55831 19.9153C3.17481 20.276 3.09679 21.0137 3.32754 22.1318C3.67529 23.8055 6.63282 25.1413 7.32508 24.592C7.81908 27.1433 11.9856 27.2083 11.4623 24.5075C10.9358 21.8035 10.4126 21.3388 11.5924 19.8697C12.7721 18.3975 13.8869 16.3727 13.8901 13.1097C13.8966 9.55094 12.4504 9.55418 10.2923 10.5454C10.2826 10.5519 10.2729 10.5552 10.2599 10.5617C10.4094 10.4219 10.5621 10.2854 10.7116 10.1489C13.4709 7.67891 15.2486 8.43292 17.8844 11.2734C17.0264 15.3002 14.9334 25.242 14.5206 28.1865C14.5694 29.0965 11.5306 28.6578 10.5588 28.4335C9.58383 28.2125 7.01956 27.5073 6.74006 26.1358C4.37404 26.49 1.67328 22.2943 2.07303 21.3387C1.44578 21.4037 0.763266 20.523 0.357013 19.4147L0.35376 19.4115Z" fill="#F9A3C6"/>
</g>
</g>
<g style="mix-blend-mode:screen">
<path d="M12.1345 7.62689C10.6687 8.19239 9.047 9.57691 7.27249 11.7804C6.14148 13.1682 6.56724 11.4067 9.22575 9.1349C11.8843 6.86639 13.3305 6.85339 12.1345 7.63014V7.62689Z" fill="#BBBECF"/>
</g>
<path d="M56.2182 7.6335C55.8347 8.6215 55.201 9.36901 54.6452 9.46326C53.6702 9.62576 55.0515 9.54451 54.8077 11.1728C54.564 12.8043 52.3637 16.7108 50.6542 15.3263C51.0604 16.467 49.1885 17.9328 45.9287 20.2111C46.2082 16.5711 44.1444 15.4758 40.9204 14.9591C39.0516 12.8985 35.0541 7.67574 35.8926 6.06373C36.7279 4.45172 38.9574 1.63721 43.1109 2.96647C48.1387 4.57848 50.6575 5.35523 52.718 5.47873C54.4145 5.58598 55.9257 6.13524 56.215 7.6335H56.2182Z" fill="#83ABC6"/>
<path d="M56.2182 7.63347C55.929 6.13522 54.4177 5.58596 52.7212 5.47871C50.6607 5.35196 48.1419 4.57846 43.1142 2.96645C38.9606 1.63394 36.7311 4.44845 35.8959 6.06371C35.0574 7.67572 39.0549 12.8985 40.9237 14.959C44.1477 15.4758 46.2114 16.571 45.9319 20.2111C44.6319 25.0958 39.9096 31.2026 33.5558 33.3184C32.9871 34.6217 31.2776 34.7842 30.5431 34.0529C30.4748 34.6964 30.6373 36.3799 31.0306 39.1002C31.7651 44.1475 32.3338 53.267 21.014 56.1173C13.526 57.3361 8.55671 54.4078 6.11269 50.0917C5.82019 49.5002 5.73569 49.5555 5.25793 49.302C4.77693 49.0485 4.13342 47.5827 5.65117 45.4995C7.17218 43.4162 9.25545 42.3729 10.159 45.1062C11.0592 47.8395 13.9842 51.9897 18.4335 50.8522C22.886 49.7115 22.6683 44.7715 18.219 39.7794C13.7665 34.7842 14.3092 30.1724 14.3645 29.5191C13.877 28.7619 13.2237 28.7066 11.8132 26.4251C10.4027 24.1468 10.2922 21.6476 11.6507 20.6173C13.0092 19.5838 13.5325 19.4473 13.6495 19.1093C13.4577 13.113 16.1812 9.00173 21.8265 6.77546C26.0613 5.30971 29.5616 5.25446 32.3306 6.61296C33.7963 3.19394 35.3694 1.10419 37.0529 0.343681C39.5781 -0.797076 45.4412 1.15944 49.1852 2.45945C52.9325 3.76271 56.3092 3.91871 56.514 5.14722C56.6537 5.99223 56.5075 6.88272 56.2118 7.63673L56.2182 7.63347Z" fill="#BBBECF"/>
<g style="mix-blend-mode:multiply">
<path d="M19.8569 19.6552C19.3467 18.5729 19.6814 17.3737 20.1332 17.4744C20.6337 17.6044 20.7767 18.3129 20.5687 19.5967C20.9229 19.6227 21.1894 19.7462 21.3714 19.9705C20.5069 19.6552 19.7789 19.7462 19.1907 20.2467C19.2947 19.9575 19.5189 19.7625 19.8602 19.6585L19.8569 19.6552Z" fill="#BBBECF"/>
</g>
<g style="mix-blend-mode:multiply">
<path d="M30.5172 17.793C29.6755 17.143 29.2985 15.7585 29.786 15.4595C30.3807 15.2255 30.8877 15.869 31.3038 17.3868C31.8303 17.1885 32.3632 17.1593 32.906 17.3055C31.4955 17.2698 30.5107 17.8483 29.9485 19.0443C30.0752 18.3195 30.2637 17.9035 30.5172 17.7963V17.793Z" fill="#BBBECF"/>
</g>
<path d="M20.572 18.6446C20.611 19.2166 20.4485 19.6911 20.208 19.7008C19.9675 19.7106 19.7465 19.2523 19.7107 18.6771C19.675 18.1018 19.8375 17.6273 20.078 17.6176C20.3185 17.6078 20.5395 18.0661 20.5753 18.6413L20.572 18.6446Z" fill="black"/>
<path d="M20.4291 18.313C20.4583 18.5373 20.3966 18.729 20.2893 18.7388C20.1853 18.7518 20.0781 18.5795 20.0456 18.3553C20.0163 18.131 20.0781 17.9393 20.1853 17.9295C20.2893 17.9165 20.3998 18.0888 20.4291 18.3098V18.313Z" fill="white"/>
<path d="M30.7771 16.4182C31.0208 16.9415 31.0371 17.442 30.8193 17.5362C30.6016 17.6305 30.2278 17.2827 29.984 16.7627C29.7435 16.2427 29.724 15.7422 29.9418 15.648C30.1595 15.5537 30.5333 15.8982 30.7771 16.4215V16.4182Z" fill="black"/>
<path d="M30.5235 16.1649C30.634 16.3631 30.6437 16.5614 30.5527 16.6134C30.4585 16.6621 30.296 16.5419 30.1855 16.3436C30.0782 16.1454 30.0652 15.9439 30.1595 15.8951C30.2537 15.8464 30.4162 15.9666 30.5235 16.1649Z" fill="white"/>
<g style="mix-blend-mode:multiply">
<path d="M26.6396 14.3188C27.5627 12.5833 28.9179 12.0406 30.7087 12.6906C28.9179 11.1436 27.5334 10.9811 26.6396 14.3188Z" fill="#BBBECF"/>
</g>
<g style="mix-blend-mode:multiply">
<path d="M18.011 16.3534C18.2287 14.9948 19.0965 14.9136 20.6175 16.1096C19.3955 14.1563 18.1735 13.5843 18.011 16.3534Z" fill="#BBBECF"/>
</g>
<path d="M26.5552 14.0231C27.4782 12.2843 28.8334 11.7415 30.6274 12.3948C28.8367 10.8478 27.4522 10.6853 26.5552 14.0231Z" fill="#5B6072"/>
<path d="M17.9231 16.0575C18.1408 14.7022 19.0086 14.6177 20.5296 15.8137C19.3076 13.8604 18.0856 13.2884 17.9231 16.0575Z" fill="#5B6072"/>
<g style="mix-blend-mode:multiply" opacity="0.5">
<g style="mix-blend-mode:multiply" opacity="0.5">
<path d="M56.2182 7.63352C55.929 6.13526 54.4177 5.586 52.7212 5.47875C50.6607 5.352 48.1419 4.5785 43.1142 2.96649C38.9606 1.63398 36.7311 4.44849 35.8959 6.06375C35.0574 7.67576 39.0549 12.8986 40.9237 14.9591C44.1477 15.4758 46.2114 16.5711 45.9319 20.2111C44.6319 25.0959 39.9096 31.2027 33.5558 33.3184C32.9871 34.6217 31.2776 34.7842 30.5431 34.0529C30.4748 34.6964 30.6373 36.38 31.0306 39.1002C31.7651 44.1475 32.3338 53.2671 21.014 56.1173C13.526 57.3361 8.55671 54.4078 6.11269 50.0918C5.82019 49.5003 5.73569 49.5555 5.25793 49.302C4.77693 49.0485 4.13342 47.5828 5.65117 45.4995C7.17218 43.4162 9.25545 42.373 10.159 45.1063C11.0592 47.8395 13.9842 51.9898 18.4335 50.8523C22.886 49.7115 22.6683 44.7715 18.219 39.7795C13.7665 34.7842 14.3092 30.1724 14.3645 29.5192C13.877 28.7619 13.2237 28.7067 11.8132 26.4251C10.4027 24.1469 10.2922 21.6476 11.6507 20.6174C13.0092 19.5838 13.5325 19.4473 13.6495 19.1093C13.5812 17.0358 14.0947 14.9201 15.1867 12.7588C14.8552 13.7858 14.1305 16.3761 14.4717 18.4983C14.579 19.9088 15.8823 18.4983 17.7283 18.9338C18.8105 19.0411 12.6257 20.1299 12.8402 22.8404C13.0547 25.5541 15.554 23.9259 16.8572 22.9476C18.1605 21.9694 25.3268 17.5201 28.6906 23.0581C26.9551 21.4299 22.067 20.0161 18.0533 23.8186C16.7468 25.0114 23.289 23.7114 24.5923 26.2366C19.1355 24.1989 15.3362 26.6429 15.4467 30.2244C15.554 32.2882 18.5928 30.0099 20.6565 31.5309C17.6145 31.6382 15.008 32.8309 16.9645 36.198C18.4855 38.1512 20.7638 36.1979 23.6953 37.6084C22.1255 37.4199 20.9523 37.6442 20.1755 38.2845C19.0088 39.2432 19.9643 40.0785 21.1765 39.825C22.3823 39.5747 23.4678 39.7437 23.9715 40.033C22.0508 40.033 21.0075 41.1997 21.3845 42.4087C21.7615 43.6177 22.5513 43.66 23.5945 43.8257C24.29 43.9362 24.7743 44.1735 25.0506 44.5343C23.4711 44.2515 22.6293 45.0348 22.522 46.8775C22.3595 48.0475 23.5328 48.0475 24.2771 49.484C23.0551 48.6325 22.2035 48.8991 21.352 50.0691C20.5005 51.2391 20.8743 51.3983 21.3 52.6755C20.4485 51.4503 19.1713 51.4503 17.894 51.7201C16.6168 51.9833 16.7792 52.3051 16.4575 53.3158C16.4055 51.8273 15.957 52.1263 13.76 50.823C11.5597 49.523 11.4785 49.198 10.7472 48.2198C10.0127 47.2415 9.85346 48.951 8.54695 49.6855C7.2437 50.4168 10.0127 54.7328 15.7945 55.3828C21.5763 56.0361 29.7988 52.7763 29.4738 41.6255C29.0676 34.6249 26.6203 31.6804 29.7176 30.7932C44.1022 26.6949 35.4181 19.2588 37.1536 19.6943C39.9747 20.3476 44.6449 18.6088 41.2779 16.3858C39.7276 15.3588 37.2901 15.4888 35.7398 15.8951C34.1928 16.3013 33.3771 15.8138 35.9023 15.1638C39.8934 14.0231 35.6586 8.81328 34.3554 8.56952C33.0554 8.32577 34.0303 6.77877 35.8211 4.33476C37.6151 1.89074 40.2216 1.40324 44.1249 2.78775C48.0314 4.17225 51.0475 4.41601 50.8817 3.92851C50.7192 3.43775 45.5094 1.89074 40.6246 0.83448C37.0496 0.0609753 34.8721 2.29048 33.9621 3.54499C34.8006 2.22548 35.8894 0.86698 37.0431 0.346977C39.5684 -0.79378 45.4314 1.16274 49.1755 2.46274C52.9227 3.766 56.2995 3.92199 56.5042 5.1505C56.644 5.9955 56.4978 6.88602 56.202 7.64002L56.2182 7.63352Z" fill="#BBBECF"/>
</g>
</g>
<path d="M56.218 7.6335C55.8345 8.6215 55.2007 9.36901 54.645 9.46326C53.67 9.62576 55.0512 9.54451 54.8075 11.1728C54.5637 12.8043 52.3635 16.7108 50.654 15.3263C51.0602 16.467 49.1882 17.9328 45.9284 20.2111C46.208 16.5711 44.1442 15.4758 40.9202 14.9591C39.0514 12.8985 35.0539 7.67574 35.8924 6.06373C36.7276 4.45172 38.9571 1.63721 43.1107 2.96647C48.1384 4.57848 50.6572 5.35523 52.7177 5.47873C54.4143 5.58598 55.9255 6.13524 56.2147 7.6335H56.218Z" fill="#F9A3C6"/>
<g style="mix-blend-mode:screen">
<path d="M35.8372 3.02816C37.1404 1.5104 39.2302 1.1009 42.1065 1.80615C44.4692 2.37491 37.7904 -0.962862 35.8372 3.02816Z" fill="#BBBECF"/>
</g>
<g style="mix-blend-mode:screen">
<path d="M16.051 13.0448C17.3543 10.2758 19.7138 8.29327 23.1361 7.10051C20.8546 6.69751 16.376 9.95079 16.051 13.0448Z" fill="#BBBECF"/>
</g>
<g style="mix-blend-mode:multiply" opacity="0.7">
<path d="M17.738 24.8131C20.5753 24.3874 22.2653 25.1381 22.951 25.3526C18.3912 25.0276 15.32 26.3959 14.8325 29.4899C14.7512 31.4432 15.7295 32.0964 17.5202 31.6057C15.3232 32.5807 15.242 34.4559 16.789 36.7375C17.9297 38.0407 19.6393 37.55 20.5363 37.6312C18.1768 38.2 18.5018 39.097 19.233 39.994C19.9643 40.891 21.1863 40.1565 21.5958 40.1565C20.6728 40.4815 20.3998 41.216 20.78 42.3535C21.352 44.063 22.9803 44.063 23.4678 44.2255C22.6 44.7163 22.1353 45.3923 22.0833 46.2633C22.002 47.5665 22.4928 48.054 23.1428 48.4603C21.8395 48.4603 21.2513 49.3443 20.6988 50.251C20.3998 50.7386 20.3997 51.0636 20.6727 51.4438C19.8602 50.7386 19.0997 51.1741 18.1215 51.2813C17.1465 51.3918 16.8735 51.7168 16.711 52.0418C16.7467 51.7298 16.321 51.4145 15.4272 51.0993C14.488 50.7678 12.5965 49.6986 11.472 48.2816C10.432 46.9718 10.1785 47.0335 9.57396 47.8331C8.76795 48.8958 8.26095 49.653 5.71293 49.5263C5.60568 49.4613 5.47564 49.406 5.27089 49.2988C5.06939 49.1948 4.8419 48.8763 4.75415 48.392C5.51466 48.9218 6.44418 48.8958 7.24693 48.5058C8.12119 48.3823 8.93043 47.8428 9.38543 47.0823C9.88918 46.247 9.74944 45.0088 9.35619 44.167C9.22944 43.8973 9.06369 43.6763 8.86543 43.504C9.39844 43.6503 9.85995 44.1443 10.1752 45.0998C11.0755 47.833 14.0005 51.9833 18.4497 50.8458C22.9023 49.705 22.6845 44.765 18.2352 39.773C13.7827 34.7777 14.3255 30.1659 14.3807 29.5127C13.8932 28.7554 13.24 28.7002 11.8295 26.4186C10.4189 24.1404 10.3084 21.6411 11.667 20.6109C11.7807 20.5231 11.8879 20.4451 11.9887 20.3704C11.9302 20.4646 10.1622 23.3279 12.7265 25.1706C15.3167 27.0329 20.2437 17.1431 27.5043 21.5956C27.5205 21.6119 27.5368 21.6249 27.5531 21.6411C24.7093 20.4484 20.7118 20.2696 17.0327 24.0169C16.1325 24.8456 17.1302 24.9042 17.751 24.8099L17.738 24.8131Z" fill="#BBBECF"/>
</g>
<path d="M8.173 43.7966C8.8295 43.5399 9.28449 43.8486 9.53799 44.7164C9.91824 46.0196 9.32026 48.4636 7.367 49.1136C5.79399 49.3866 4.38349 48.8959 5.30324 46.7801C6.22625 44.6611 7.51974 44.0469 8.173 43.7966Z" fill="#F9A3C6"/>
<g style="mix-blend-mode:multiply">
<path d="M6.93143 45.6945C6.46018 47.3585 6.04414 48.1742 5.68339 48.1385C5.14064 48.0832 5.41041 47.1082 5.90116 46.2372C6.38866 45.3695 6.93143 45.207 6.93143 45.6945Z" fill="#F9A3C6"/>
</g>
<g style="mix-blend-mode:multiply">
<path d="M8.12747 45.3142C8.23472 46.1299 8.56296 47.4332 7.5847 47.5957C6.93145 47.7029 6.89571 46.9977 7.47421 45.4767C7.69196 44.7714 8.02021 44.5017 8.12421 45.3142H8.12747Z" fill="#F9A3C6"/>
</g>
<g style="mix-blend-mode:multiply" opacity="0.5">
<g style="mix-blend-mode:multiply" opacity="0.5">
<path d="M7.36724 49.1135C5.79423 49.3865 4.38373 48.8957 5.30349 46.78C5.42049 46.5135 5.54074 46.2697 5.67074 46.0455C5.29699 46.8547 4.78673 48.2522 5.62849 48.4082C6.38899 48.4082 6.71397 47.1602 6.82447 47.8102C6.93172 48.4602 8.34547 48.6227 8.88498 47.1017C9.40173 45.6555 9.18073 43.6209 8.03347 43.8484C8.07897 43.8289 8.12774 43.8127 8.16999 43.7932C8.82649 43.5364 9.28148 43.8452 9.53498 44.713C9.91523 46.0162 9.31725 48.4602 7.36399 49.1102L7.36724 49.1135Z" fill="#F79AA7"/>
</g>
</g>
<g style="mix-blend-mode:screen">
<path d="M8.23147 44.2059C7.49372 44.2806 6.73321 44.9046 5.94995 46.0844C6.20995 45.2004 7.31497 43.8776 8.23147 44.2059Z" fill="#F79AA7"/>
</g>
<g style="mix-blend-mode:multiply">
<path d="M5.0498 48.2067C5.42031 49.1752 6.39854 49.3734 7.99105 48.7982C7.41905 49.3734 5.20256 49.4092 5.0498 48.2067Z" fill="#C6665C"/>
</g>
<g style="mix-blend-mode:screen">
<path d="M19.0542 21.5306C22.6455 19.4993 25.564 19.6293 27.8065 21.9206C26.8153 20.3248 23.6627 18.4821 19.0542 21.5306Z" fill="#BBBECF"/>
</g>
<g style="mix-blend-mode:multiply" opacity="0.5">
<g style="mix-blend-mode:multiply" opacity="0.5">
<path d="M54.8075 11.1695C54.5637 12.801 52.3635 16.7075 50.654 15.323C51.0602 16.4638 49.1882 17.9295 45.9285 20.2078C46.208 16.5678 44.1442 15.4725 40.9202 14.9558C39.0514 12.8952 35.0539 7.67246 35.8924 6.06045C36.7276 4.44844 38.9571 1.63392 43.1107 2.96317C43.1529 2.97617 43.1984 2.99243 43.2407 3.00543C40.7154 2.77792 38.3494 4.08769 39.4446 6.44721C41.5051 10.8965 44.1117 12.5247 45.9577 12.853C47.8037 13.178 46.6077 15.4595 48.0182 15.999C49.4287 16.545 50.2965 13.7208 50.1892 12.0925C52.253 13.0707 54.5312 11.007 52.578 8.83596C55.5192 8.05271 54.918 6.55769 52.695 5.47543C52.7015 5.47543 52.708 5.47543 52.7177 5.47543C54.4143 5.58268 55.9255 6.13194 56.2147 7.6302C55.8312 8.61821 55.1975 9.36571 54.6417 9.45996C53.6667 9.62246 55.048 9.54122 54.8042 11.1695H54.8075Z" fill="#F9A3C6"/>
</g>
</g>
<g style="mix-blend-mode:multiply" opacity="0.7">
<g style="mix-blend-mode:multiply" opacity="0.7">
<path d="M39.2923 13.0025C39.8968 13.776 40.472 14.4585 40.9238 14.959C44.1478 15.4758 46.2116 16.571 45.9321 20.2111C44.6321 25.0958 39.9098 31.2026 33.556 33.3184C32.9872 34.6217 31.2777 34.7842 30.5432 34.0529C30.475 34.6964 30.6375 36.3799 31.0307 39.1002C31.58 42.867 32.035 48.8957 27.5337 52.8998C27.5564 52.8738 27.5727 52.8543 27.5955 52.8283C30.4847 49.7148 31.3427 47.0075 30.7512 42.0447C30.1662 37.0819 29.1717 34.4201 29.7795 33.4516C30.2962 32.6229 31.0795 34.1439 32.1065 33.8936C34.2125 33.3119 33.8258 29.6556 34.102 30.1821C34.2873 30.5331 34.2937 30.9264 34.1247 31.3619C39.5815 29.7336 40.2055 25.7718 39.3833 22.5641C38.756 20.1266 43.8098 21.1893 44.19 19.0541C44.5735 16.9188 42.8933 15.9275 38.3173 14.7803C39.2403 14.5398 39.4418 13.841 39.2923 12.9993V13.0025Z" fill="#BBBECF"/>
</g>
</g>
<path d="M32.5806 31.1993C33.0681 32.2588 32.9869 32.9121 31.3586 33.5621C29.7304 34.2121 27.2896 33.1558 28.1833 32.5838C28.9991 32.0963 29.8116 31.2286 30.6274 29.9805C30.7899 29.7368 32.0931 30.143 32.5806 31.1993Z" fill="#EDE7CD"/>
<g style="mix-blend-mode:screen">
<path d="M19.0964 20.3607C19.8212 19.8764 20.6402 19.8017 21.547 20.1364C21.0465 19.7464 19.9024 19.5254 19.0964 20.3607Z" fill="#BBBECF"/>
</g>
<g style="mix-blend-mode:screen">
<path d="M30.0198 19.2198C30.7803 17.9198 31.8495 17.3251 33.2275 17.4356C31.999 17.0163 30.1595 17.9101 30.0198 19.2198Z" fill="#BBBECF"/>
</g>
<g style="mix-blend-mode:multiply">
<g style="mix-blend-mode:multiply">
<path d="M31.3586 33.5621C29.7304 34.2121 27.2896 33.1558 28.1833 32.5838C29.1518 32.0053 30.1204 30.7086 30.4811 30.1951C30.4714 30.2666 30.4649 30.3446 30.4714 30.4258C30.5234 31.3618 29.8474 32.4018 28.8594 32.5578C27.8714 32.7138 30.2114 33.8059 31.5601 32.9739C32.6391 32.3108 32.4604 31.2221 31.9241 30.3836C32.1841 30.5883 32.4246 30.8581 32.5806 31.1993C33.0681 32.2588 32.9869 32.9121 31.3586 33.5621Z" fill="#EDE7CD"/>
</g>
</g>
<path d="M30.8324 30.2699C30.8129 31.5504 30.2019 32.3727 28.9961 32.7399C31.2874 32.6099 31.3524 30.4779 30.8324 30.2699Z" fill="white"/>
<g style="mix-blend-mode:screen">
<path d="M19.6326 24.3613C22.1838 24.306 24.1111 24.8488 25.4144 25.9895C24.9269 24.4425 21.0951 23.63 19.6326 24.3613Z" fill="#BBBECF"/>
</g>
<g style="mix-blend-mode:screen">
<path d="M16.7207 31.0857C18.4985 30.6209 20.2145 30.7899 21.8655 31.5959C20.5947 30.2602 18.245 30.2602 16.7207 31.0857Z" fill="#BBBECF"/>
</g>
<g style="mix-blend-mode:screen">
<path d="M18.9077 37.1079C20.9357 36.8739 22.447 37.0039 23.4447 37.5044C22.0797 36.6237 20.8447 36.3604 18.9077 37.1079Z" fill="#BBBECF"/>
</g>
<path d="M23.3411 59.494C23.1396 57.3782 24.7646 57.4595 26.0289 59.0877C25.7851 56.7672 28.1056 57.4172 28.9604 58.805C29.8152 60.1895 28.0244 61.1255 26.8836 60.5145C26.0419 61.1937 25.0701 61.3465 23.9651 60.9792C23.8969 61.249 23.1754 61.2035 21.7974 60.8427C20.4551 57.6317 22.0411 57.9047 23.3444 59.494H23.3411Z" fill="#D9DBE8"/>
<path d="M50.1602 57.5018C50.3032 56.0653 50.5989 55.3665 51.0442 55.399C51.4894 55.4315 51.8859 56.1303 52.2337 57.4888C52.5262 56.4001 53.0332 55.8183 53.7514 55.7436C54.2844 55.6981 54.6907 56.166 54.9767 57.1475C55.019 56.4423 55.2432 56.0653 55.6462 56.0198C56.2507 55.9548 57.0502 57.0793 57.1445 58.6621C55.6592 58.9253 52.1167 59.0488 50.1602 57.5018Z" fill="#D9DBE8"/>
<g style="mix-blend-mode:screen">
<path d="M62.0747 6.00518C68.37 5.78743 72.062 10.9452 73.1475 21.4753C74.1226 13.659 69.7253 5.35193 62.0747 6.00518Z" fill="#BBBECF"/>
</g>
<g style="mix-blend-mode:screen">
<path d="M40.6409 41.1899C40.5694 44.1572 40.3159 46.4355 39.8804 48.028C39.2272 50.4168 42.5942 47.1602 40.6409 41.1899Z" fill="#BBBECF"/>
</g>
<g style="mix-blend-mode:screen">
<path d="M38.9347 54.2225C38.1547 56.1725 36.7897 56.7576 37.4722 55.5876C37.9272 54.8076 38.5122 53.475 39.2272 51.59C39.7147 50.5175 39.7147 52.2725 38.9347 54.2225Z" fill="#BBBECF"/>
</g>
<g style="mix-blend-mode:multiply">
<g style="mix-blend-mode:multiply">
<path d="M67.2423 36.3052C65.1786 39.396 63.3358 41.9667 63.2253 44.7293C63.0661 43.9297 62.9686 43.0587 62.9556 42.113C62.3023 42.7207 61.6815 43.2765 61.09 43.777C60.7943 44.0273 60.6188 44.193 60.5278 44.3653C60.505 44.3555 60.4823 44.349 60.4563 44.3392C58.8995 45.896 53.3908 48.0118 50.7192 48.1775C50.8687 51.9248 50.6802 55.0318 50.1602 57.5018C50.4202 61.1386 49.7605 63.4104 48.181 64.3204C47.2937 63.2284 41.6192 61.9934 37.2772 61.0541C35.0021 60.5633 33.8354 60.7063 33.2536 61.0443C33.0391 60.4041 33.2601 59.5688 33.9784 58.2526C34.8266 56.6861 35.6131 55.1521 36.2794 53.6701C36.2404 53.8651 36.1786 54.0828 36.0811 54.3266C35.2784 56.3936 35.4214 57.7423 36.0259 57.4596C36.6304 57.1736 37.5144 57.4466 38.0377 58.2038C38.5609 58.9611 39.0322 58.6784 39.7439 58.6784C40.4524 58.6784 41.2097 59.3413 41.8272 60.4788C42.4447 61.6163 43.0849 61.7659 45.4184 62.5264C47.752 63.2869 49.0292 62.7961 49.598 58.7238C50.1667 54.6515 50.4917 48.301 49.7605 42.9287C49.351 39.7535 50.404 43.0912 50.6542 44.7195C50.9792 46.8385 56.709 46.078 62.2438 40.865C67.7818 35.6552 69.0201 32.2037 69.5173 28.5961C69.9529 25.4469 70.4956 31.4204 67.2391 36.3052H67.2423Z" fill="#BBBECF"/>
</g>
</g>
<path d="M48.181 64.3204C48.1355 64.3464 48.0933 64.3756 48.0445 64.3984C45.5192 65.6269 40.121 64.8761 35.8894 63.0334C34.4237 62.3184 33.5137 61.8309 33.2537 61.0444C33.8354 60.7096 35.0022 60.5666 37.2772 61.0541C41.6192 61.9901 47.2937 63.2284 48.181 64.3204Z" fill="#F9A3C6"/>
<path d="M33.3998 59.2731C33.9653 58.3631 34.482 57.9666 34.9468 58.0901C35.4115 58.2104 35.6228 58.6036 35.5838 59.2731C35.8275 58.5256 36.2403 58.1714 36.8285 58.2104C37.7093 58.2689 38.135 59.5136 38.2845 60.5146C38.7493 59.6046 39.1945 59.1529 39.6203 59.1529C40.2573 59.1529 41.3786 60.2449 41.3786 62.0357C39.6203 61.4897 34.261 60.1474 33.2535 61.0444C32.974 60.3651 33.1268 59.7574 33.3998 59.2731Z" fill="#D9DBE8"/>
<g style="mix-blend-mode:multiply" opacity="0.5">
<g style="mix-blend-mode:multiply" opacity="0.5">
<path fill-rule="evenodd" clip-rule="evenodd" d="M48.1807 64.3204C48.1352 64.3464 48.093 64.3756 48.0443 64.3984C45.519 65.6269 40.1207 64.8761 35.8892 63.0334C34.4234 62.3184 33.5134 61.8309 33.2534 61.0444C33.8352 60.7096 35.0019 60.5666 37.2769 61.0541C41.619 61.9901 47.2935 63.2284 48.1807 64.3204ZM45.0152 63.4624C43.114 62.5686 40.1402 61.9121 36.1004 61.4896C33.0357 61.2069 36.7342 63.2154 40.0459 63.9531C43.3577 64.6941 47.8655 64.7981 45.0152 63.4591V63.4624Z" fill="#F9A3C6"/>
</g>
</g>
<g style="mix-blend-mode:screen">
<path d="M66.4818 42.9254C66.407 44.4464 66.9498 45.8212 68.11 47.0529C69.8455 48.899 65.0712 46.6174 66.4818 42.9254Z" fill="#BBBECF"/>
</g>
<g style="mix-blend-mode:screen">
<path d="M71.1487 49.6562C72.959 50.6702 74.48 51.1772 75.7118 51.1772C77.5578 51.1772 75.3867 52.5877 72.6697 51.5022C69.9559 50.4167 70.1705 49.3312 71.1487 49.6594V49.6562Z" fill="#BBBECF"/>
</g>
<g style="mix-blend-mode:screen">
<path d="M9.15796 50.8523C11.4752 54.2551 15.0567 55.4836 19.9058 54.5443C17.517 55.9548 11.2185 55.3048 9.15796 50.8523Z" fill="#BBBECF"/>
</g>
<g style="mix-blend-mode:multiply">
<path d="M28.9571 58.805C28.1024 57.4205 25.7819 56.7673 26.0256 59.0878C24.7646 57.4595 23.1364 57.3783 23.3379 59.4941C22.6846 58.6978 21.9598 58.233 21.5698 58.3728C21.6803 58.4215 21.7843 58.4898 21.8656 58.5483C22.5091 59.013 22.9836 59.6468 23.5231 60.2188C23.5751 59.5298 23.3313 58.5386 24.2251 58.3955C25.2034 58.2395 25.5316 59.3478 26.1881 59.8255C26.2856 59.2275 26.0191 58.2005 26.7341 57.9503C27.4069 57.713 28.2616 58.2753 28.6061 58.8375C28.9344 59.3771 28.8304 60.1213 28.2389 60.43C27.7059 60.7063 27.0916 60.6348 26.6431 60.2546C26.5229 60.5893 26.2856 60.8233 25.9931 60.9826C26.2888 60.8883 26.5911 60.7388 26.8706 60.5145C28.0146 61.1255 29.8021 60.1895 28.9474 58.805H28.9571Z" fill="#D9DBE8"/>
</g>
<g style="mix-blend-mode:multiply">
<path d="M34.6707 58.0901C34.7649 58.0673 34.8559 58.0641 34.9469 58.0901C35.5644 58.2493 35.5871 59.0521 35.5839 59.2341C35.5189 59.3121 35.4572 59.3999 35.4052 59.4876C35.2719 59.0294 35.0119 58.4151 34.6707 58.0901Z" fill="#D9DBE8"/>
</g>
<g style="mix-blend-mode:multiply">
<path d="M41.3753 62.0323C39.617 61.4863 34.2577 60.144 33.2502 61.041C33.182 60.872 33.1364 60.7096 33.1169 60.5503C33.3379 60.5016 33.5687 60.4723 33.8027 60.4528C35.119 60.365 36.4189 60.8883 37.732 60.6413C37.7677 60.6348 37.7905 60.599 37.7905 60.5633C37.7742 59.8743 37.485 59.1235 36.8187 58.8245C36.3312 58.6068 35.9087 58.8473 35.6065 59.2015C35.6975 58.9643 36.0712 58.155 36.8252 58.2038C37.706 58.2623 38.1317 59.5071 38.2812 60.5081C38.343 60.3878 38.421 60.2513 38.5185 60.0986C38.5412 60.2383 38.5737 60.378 38.6225 60.5178C38.824 61.1125 39.6105 61.1743 40.1532 61.0963C40.6927 61.0183 40.7837 60.2871 40.423 59.8516C40.1045 59.4681 39.6982 59.3088 39.1685 59.3316C39.3147 59.2178 39.4642 59.143 39.6137 59.143C40.2507 59.143 41.372 60.235 41.372 62.0258L41.3753 62.0323Z" fill="#D9DBE8"/>
</g>
<g style="mix-blend-mode:multiply">
<path d="M50.4753 56.0328C50.6086 55.6656 50.7938 55.3796 51.0441 55.3958C51.4893 55.4283 51.8858 56.1271 52.2336 57.4856C52.5261 56.3968 53.0331 55.8151 53.7513 55.7403C54.2844 55.6948 54.6906 56.1628 54.9766 57.1443C55.0189 56.4391 55.2431 56.0621 55.6461 56.0166C56.2506 55.9516 57.0501 57.0761 57.1444 58.6588C56.6471 58.7466 55.9191 58.8181 55.0936 58.8181C55.2984 58.7823 55.5064 58.7433 55.7111 58.6913C56.0654 58.6003 56.3514 58.4248 56.4651 58.0641C56.5594 57.7618 56.2831 57.3946 56.1141 57.1736C55.9841 57.0013 55.7501 56.7836 55.5161 56.9266C55.1976 57.1248 55.1846 57.5083 55.0026 57.7943C54.6061 57.2418 54.2551 56.5496 53.4946 56.5073C52.7276 56.4651 52.5716 57.3881 52.2466 57.9081C51.7591 57.4043 51.4958 56.7088 50.9563 56.2408C50.7808 56.0881 50.6183 56.0296 50.4753 56.0328Z" fill="#D9DBE8"/>
</g>
<g style="mix-blend-mode:multiply">
<path d="M76.3651 54.5443C76.3293 54.4208 76.3424 54.2908 76.4269 54.1641C76.6966 53.8066 77.4409 53.956 78.6629 54.6223C78.1786 53.6895 78.1786 53.0265 78.6629 52.63C79.1471 52.2335 79.7646 52.2173 80.5186 52.5748C80.1936 52.0743 80.1774 51.616 80.4634 51.2033C80.7527 50.7905 81.3441 50.6735 82.2379 50.8523C82.1859 51.0505 82.1014 51.2975 81.9909 51.5933C81.8739 51.265 81.6236 51.031 81.1979 51.174C80.4731 51.4178 80.7916 52.2823 80.7559 52.8575C80.2164 52.5715 79.4526 52.3863 78.9294 52.7633C78.1916 53.2995 79.0919 54.268 78.9521 54.957C78.2436 54.84 77.5806 54.5183 76.8559 54.4728C76.6576 54.4598 76.4951 54.4858 76.3554 54.541L76.3651 54.5443Z" fill="#D9DBE8"/>
</g>
<g style="mix-blend-mode:screen">
<path d="M34.3618 58.4768C33.8451 59.1041 33.6631 59.6208 33.8159 60.027C34.0141 60.6088 33.3251 60.04 33.5851 59.4193C33.8451 58.7985 34.4886 58.1518 34.3618 58.4768Z" fill="#BBBECF"/>
</g>
<g style="mix-blend-mode:screen">
<path d="M76.9566 54.7913C77.5709 55.3243 78.0811 55.5161 78.4906 55.3731C79.0756 55.1911 78.4906 55.8638 77.8764 55.5876C77.2621 55.3113 76.6316 54.6515 76.9566 54.7913Z" fill="#BBBECF"/>
</g>
<g style="mix-blend-mode:screen">
<path d="M78.8449 53.215C79.1504 53.969 79.5209 54.372 79.9499 54.4305C80.5544 54.528 79.7289 54.866 79.3031 54.3428C78.8806 53.8163 78.6206 52.942 78.8449 53.215Z" fill="#BBBECF"/>
</g>
<g style="mix-blend-mode:screen">
<path d="M80.8276 51.7883C80.9868 52.1783 81.1785 52.3895 81.4028 52.4188C81.7148 52.4708 81.2858 52.6463 81.0648 52.3733C80.8438 52.1003 80.7106 51.6453 80.8276 51.7883Z" fill="#BBBECF"/>
</g>
<g style="mix-blend-mode:screen">
<path d="M36.1558 59.0292C35.8113 59.4745 35.7366 59.8775 35.9316 60.2415C36.1883 60.7582 35.5123 60.1765 35.639 59.6955C35.7658 59.2145 36.2143 58.7725 36.1558 59.0292Z" fill="#BBBECF"/>
</g>
<g style="mix-blend-mode:screen">
<path d="M39.3311 59.4778C38.9866 59.9231 38.9118 60.3293 39.1036 60.6901C39.3636 61.2068 38.6843 60.6251 38.8143 60.1473C38.9411 59.6663 39.3896 59.2243 39.3311 59.4778Z" fill="#BBBECF"/>
</g>
<g style="mix-blend-mode:screen">
<path d="M21.6186 58.7271C21.7778 59.5623 21.9566 60.1376 22.1548 60.4561C22.4538 60.9306 21.1116 60.0986 21.6186 58.7271Z" fill="#BBBECF"/>
</g>
<g style="mix-blend-mode:screen">
<path d="M23.8545 58.8766C24.0138 59.7118 24.1926 60.2871 24.3941 60.6056C24.6931 61.0833 23.3508 60.2448 23.8545 58.8766Z" fill="#BBBECF"/>
</g>
<g style="mix-blend-mode:screen">
<path d="M26.6301 58.3403C26.7893 59.1756 26.968 59.7508 27.1663 60.0693C27.4653 60.5471 26.1231 59.7118 26.6301 58.3403Z" fill="#BBBECF"/>
</g>
<g style="mix-blend-mode:screen">
<path d="M50.7158 56.296C50.5923 56.8355 50.537 57.2613 50.5533 57.57C50.576 58.0348 49.9975 57.037 50.7158 56.296Z" fill="#BBBECF"/>
</g>
<g style="mix-blend-mode:screen">
<path d="M53.0561 56.8745C52.9326 57.414 52.8806 57.8398 52.8936 58.1485C52.9163 58.61 52.3378 57.6155 53.0561 56.8745Z" fill="#BBBECF"/>
</g>
<g style="mix-blend-mode:screen">
<path d="M55.6496 57.0826C55.5261 57.6254 55.4708 58.0479 55.4871 58.3567C55.5098 58.8214 54.9313 57.8236 55.6496 57.0826Z" fill="#BBBECF"/>
</g>
</svg>
