<svg width="86" height="64" viewBox="0 0 86 64" fill="none" xmlns="http://www.w3.org/2000/svg">
<path d="M21.1309 53.682C21.1533 53.7236 21.1469 53.7748 21.1021 53.8164C20.3726 54.5139 19.3902 55.0451 18.4783 55.4707C17.5152 55.9186 16.5041 56.277 15.4641 56.4978C14.341 56.7346 13.2147 56.8274 12.0692 56.8114C11.1701 56.8018 10.3221 56.837 9.46138 57.0546C9.57337 57.3393 9.65017 57.6433 9.68857 57.9473C9.78456 58.6864 9.69496 59.5568 9.08061 60.0687C8.37666 60.6543 7.23435 60.7759 6.4504 60.2959C6.14643 60.5423 5.76566 60.6831 5.33049 60.6991C4.78333 60.7183 4.03458 60.6863 3.44903 60.4335C1.95794 61.0415 0.0732761 60.0239 0.00288127 58.3441C-0.0451152 57.1826 0.56604 56.1586 1.50997 55.6115C1.94194 54.7795 2.70028 54.0724 3.41703 53.506C4.35456 52.7669 5.38488 52.1941 6.4888 51.743C7.67911 51.2566 8.93662 50.9302 10.1173 50.4247C11.1413 49.9863 11.8324 49.1831 12.6195 48.4312C12.6611 48.3928 12.7091 48.3768 12.7571 48.38C13.3747 47.8648 14.4626 48.0632 15.1634 48.2392C16.3345 48.5304 17.5184 48.9592 18.5999 49.4871C19.643 49.9991 21.0733 50.6998 21.5949 51.8133C21.9597 52.6005 21.6621 53.2148 21.1341 53.6852L21.1309 53.682Z" fill="#F4A54E"/>
<path d="M21.1309 53.682C21.1533 53.7236 21.1469 53.7748 21.1021 53.8164C20.3726 54.514 19.3902 55.0451 18.4783 55.4707C17.5152 55.9186 16.5041 56.277 15.4641 56.4978C14.341 56.7346 13.2147 56.8274 12.0692 56.8114C11.1701 56.8018 10.3221 56.837 9.46138 57.0546C9.57337 57.3393 9.65017 57.6433 9.68857 57.9473C9.78456 58.6864 9.69496 59.5568 9.08061 60.0687C8.37666 60.6543 7.23435 60.7759 6.4504 60.2959C6.14643 60.5423 5.76566 60.6831 5.33049 60.6991C4.78333 60.7183 4.03458 60.6863 3.44903 60.4335C1.95794 61.0415 0.0732761 60.0239 0.00288127 58.3441C-0.0451152 57.1826 0.56604 56.1586 1.50997 55.6115C1.94194 54.7795 2.70028 54.0724 3.41703 53.506C3.71461 53.2724 4.01858 53.0581 4.33216 52.8565C4.24577 53.0741 4.22977 53.2948 4.33856 53.5092C4.68413 54.178 6.04083 53.8164 6.61679 53.8452C7.25354 53.8804 7.8807 53.986 8.48225 54.1972C9.13821 54.4276 9.65337 54.8563 10.2261 55.2403C10.9877 55.7491 11.9124 55.925 12.8147 55.8419C14.7474 55.6627 16.4721 54.3252 17.6944 52.9045C18.3183 52.1781 18.8367 51.3526 19.2015 50.4663C19.2783 50.2775 19.3391 50.0887 19.3902 49.8935C20.2702 50.3607 21.1917 50.9686 21.5853 51.8166C21.9501 52.6037 21.6525 53.2181 21.1245 53.6884L21.1309 53.682Z" fill="#FAF9E8"/>
<g style="mix-blend-mode:multiply" opacity="0.2">
<path fill-rule="evenodd" clip-rule="evenodd" d="M21.1309 53.682C21.1533 53.7236 21.1469 53.7748 21.1021 53.8164C20.3726 54.5139 19.3902 55.0451 18.4783 55.4707C17.5152 55.9186 16.5041 56.277 15.4641 56.4978C14.341 56.7346 13.2147 56.8274 12.0692 56.8114C11.1701 56.8018 10.3221 56.837 9.46138 57.0546C9.57337 57.3393 9.65017 57.6433 9.68857 57.9473C9.78456 58.6864 9.69496 59.5568 9.08061 60.0687C8.37666 60.6543 7.23435 60.7759 6.4504 60.2959C6.14643 60.5423 5.76566 60.6831 5.33049 60.6991C4.78333 60.7183 4.03458 60.6863 3.44903 60.4335C1.95794 61.0415 0.0732761 60.0239 0.00288127 58.3441C-0.0451152 57.1826 0.56604 56.1586 1.50997 55.6115C1.94194 54.7795 2.70028 54.0724 3.41703 53.506C4.35456 52.7669 5.38488 52.1941 6.4888 51.743C7.67911 51.2566 8.93662 50.9302 10.1173 50.4247C11.1413 49.9863 11.8324 49.1831 12.6195 48.4312C12.6611 48.3928 12.7091 48.3768 12.7571 48.38C13.3747 47.8648 14.4626 48.0632 15.1634 48.2392C16.3345 48.5304 17.5184 48.9592 18.5999 49.4871C19.643 49.9991 21.0733 50.6998 21.5949 51.8133C21.9597 52.6005 21.6621 53.2148 21.1341 53.6852L21.1309 53.682ZM2.70668 55.7715C1.95794 55.4355 1.1036 56.3282 0.777224 56.8978C0.393252 57.5665 0.297259 58.4721 1.0652 58.8752C1.48757 59.0992 1.99313 58.9872 2.12432 58.5744C2.14352 58.5584 2.15632 58.5328 2.15632 58.5008C2.16912 57.7713 2.4347 57.1762 2.74508 56.5266C2.83467 56.3346 2.99146 55.9026 2.70668 55.7747V55.7715ZM6.37361 55.8163C6.22962 55.1795 5.54487 54.4852 4.99771 54.8179C4.98491 54.8211 4.97211 54.8243 4.95611 54.8371C4.19777 55.4131 3.70821 56.4338 3.67621 57.3809C3.64741 58.2993 4.53695 59.048 5.42648 58.648C6.524 58.1585 6.61359 56.8626 6.37361 55.8163ZM8.31587 55.9026C7.16715 55.1763 7.53832 56.405 7.74631 57.093C7.8519 57.4481 7.8295 57.8225 7.94469 58.1745C8.10148 58.6608 8.65824 58.7504 8.94942 58.3057C9.43578 57.5665 9.02621 56.3506 8.31587 55.8995V55.9026ZM12.2516 52.4949C12.0564 51.8357 11.1509 51.5414 10.5717 51.375C9.59257 51.0966 8.64864 51.2374 7.67591 51.4774H7.67271C7.64712 51.4582 7.60872 51.455 7.57352 51.4806C7.55432 51.4934 7.53192 51.5062 7.51593 51.5222C6.36401 51.8293 5.32089 52.3765 4.31936 53.0229C3.71781 53.41 2.83787 53.8388 2.56909 54.5587C2.4027 54.7347 2.27471 54.9523 2.4859 55.0867C2.78028 55.2723 3.38183 55.2467 3.7594 55.1027C3.8042 55.1347 3.8714 55.1379 3.90659 55.0771C4.22017 54.5331 5.1001 54.2452 5.68566 54.4052C6.10803 54.5203 6.44401 54.8755 6.86317 55.0195C7.62472 55.2787 8.62304 54.7379 9.30139 54.4404C10.0949 54.0916 12.6675 53.8772 12.2548 52.4949H12.2516Z" fill="#AC5C1A"/>
</g>
<g style="mix-blend-mode:multiply" opacity="0.4">
<path d="M21.1309 53.682C21.1533 53.7236 21.1469 53.7748 21.1021 53.8164C20.3726 54.5139 19.3903 55.0451 18.4783 55.4707C17.5152 55.9186 16.5041 56.277 15.4642 56.4978C14.341 56.7346 13.2147 56.8274 12.0692 56.8114C11.1765 56.8018 10.3317 56.837 9.4806 57.0482C9.26302 56.6546 8.99744 56.293 8.68066 56.0018C9.33662 56.2962 9.87098 56.4242 10.6037 56.309C11.3525 56.1938 12.1172 55.9954 12.8596 55.8355C13.5059 55.6947 14.1491 55.4867 14.6802 55.0803C15.7137 54.2868 14.3538 53.2404 13.7427 52.7413C13.0899 52.2101 12.466 51.647 11.9476 50.9814C11.6532 50.6006 11.4357 50.1751 11.1925 49.7623C11.6948 49.3623 12.1364 48.8856 12.6164 48.4312C12.658 48.3928 12.706 48.3768 12.754 48.38C13.3715 47.8648 14.4594 48.0632 15.1602 48.2392C16.3313 48.5304 17.5152 48.9592 18.5967 49.4871C19.6399 49.9991 21.0701 50.6998 21.5917 51.8133C21.9565 52.6005 21.6589 53.2148 21.1309 53.6852V53.682Z" fill="#AC5C1A"/>
</g>
<g style="mix-blend-mode:multiply" opacity="0.4">
<path fill-rule="evenodd" clip-rule="evenodd" d="M21.1309 53.682C21.1533 53.7236 21.1469 53.7748 21.1021 53.8164C20.3725 54.5139 19.3902 55.0451 18.4783 55.4707C17.5151 55.9186 16.504 56.277 15.4641 56.4978C14.341 56.7346 13.2147 56.8274 12.0691 56.8114C11.17 56.8018 10.3221 56.837 9.46133 57.0545C9.57333 57.3393 9.65012 57.6433 9.68852 57.9473C9.78451 58.6864 9.69492 59.5568 9.08056 60.0687C8.37662 60.6543 7.2343 60.7759 6.45036 60.2959C6.14638 60.5423 5.76561 60.6831 5.33044 60.6991C4.78328 60.7183 4.03454 60.6863 3.44898 60.4335C1.95789 61.0414 0.0732293 60.0239 0.00283449 58.344C-0.0419622 57.3009 0.447602 56.373 1.23154 55.797C1.66031 55.5891 2.12108 55.4643 2.59144 55.3459C2.19787 55.5219 1.8139 55.6754 1.47153 55.9122C1.44273 55.9474 1.41393 55.9794 1.38513 56.0114C1.36913 56.0274 1.34674 56.021 1.34034 56.0018C1.20275 56.1106 1.07796 56.2354 0.959564 56.3858C0.565993 56.8914 0.284414 57.5505 0.316411 58.2065C0.348409 58.84 0.61079 59.4384 1.13875 59.8191C1.43633 60.0335 1.8139 60.2415 2.18507 60.2799C2.49545 60.3119 2.79943 60.2735 3.1066 60.2479C2.96262 60.1423 2.83463 60.0175 2.73543 59.8639C2.23947 59.0736 2.49545 57.9473 2.84102 57.1409C2.92102 56.9585 3.01061 56.7826 3.1098 56.613C3.08101 56.6066 3.05541 56.581 3.07141 56.549C3.44578 55.8194 3.99614 54.9203 4.77048 54.5651C5.42643 54.2611 6.16558 54.4467 6.57515 55.0547C6.68074 55.2083 6.77033 55.3747 6.84393 55.5506C7.08391 55.1603 8.21343 55.5826 8.44701 55.7426C8.87258 56.0338 9.18295 56.4466 9.38774 56.9074C10.0501 56.5586 10.882 56.517 11.6052 56.5074C12.6643 56.4946 13.7074 56.4914 14.7569 56.309C15.8993 56.1138 17.016 55.7842 18.0719 55.3075C18.8462 54.9587 19.5246 54.5075 20.2189 54.0564C20.2221 54.0532 20.2221 54.0532 20.2221 54.05C20.5901 53.746 21.1149 53.4132 21.3133 52.9652C21.5756 52.3829 21.2749 51.7941 20.8525 51.375C20.0174 50.5494 18.9134 49.9735 17.8415 49.5191C16.9584 49.1447 16.0336 48.7832 15.0993 48.5592C14.7249 48.4696 14.3058 48.3768 13.8962 48.364C13.6562 48.2968 13.413 48.2264 13.1699 48.156C13.7874 47.9512 14.5906 48.1048 15.1505 48.2456C16.3216 48.5368 17.5055 48.9655 18.5871 49.4935C19.6302 50.0055 21.0605 50.7062 21.582 51.8197C21.9468 52.6069 21.6492 53.2212 21.1213 53.6916L21.1309 53.682ZM6.78953 59.0864C7.00392 57.9889 7.02951 56.373 6.42476 55.3843C6.00879 54.7059 5.27604 54.5203 4.59769 54.9875C4.5113 55.0451 4.43131 55.1091 4.35451 55.1731C3.90975 55.6914 3.49058 56.2386 3.2218 56.8722C2.92742 57.5697 2.51465 58.7536 2.88902 59.4928C3.30179 60.3151 4.62329 60.4655 5.43923 60.3567C6.17518 60.2575 6.65194 59.8191 6.79273 59.0864H6.78953ZM9.39094 58.1873C9.35574 57.8481 9.28855 57.4769 9.16376 57.1345C9.15416 57.1377 9.14776 57.1409 9.13816 57.1409C9.09976 57.1537 9.07096 57.1025 9.10296 57.0769C9.11256 57.0705 9.12536 57.0641 9.13496 57.0545C9.05177 56.8466 8.94617 56.6482 8.81498 56.4786C8.5398 56.1298 8.16543 55.8194 7.72386 55.717C7.47748 55.6626 7.12551 55.5411 6.93032 55.7458C7.09671 56.2066 7.1703 56.7026 7.1959 57.1825C7.2343 57.9185 7.2663 58.76 7.01992 59.4672C6.93992 59.6975 6.82153 59.8927 6.68074 60.0655C7.38789 60.3471 8.37981 60.3695 8.93657 59.7615C9.33014 59.3328 9.44854 58.7536 9.39414 58.1841L9.39094 58.1873Z" fill="#AC5C1A"/>
</g>
<path d="M85.5293 48.3416C85.1421 49.0327 85.0781 49.8455 84.675 50.5206C83.9166 51.7813 82.5663 52.6389 81.3504 53.4004C79.8945 54.3092 78.0771 54.4147 76.4324 54.7539C75.5236 54.9427 74.6245 55.1571 73.735 55.4163C73.7318 55.4227 73.7286 55.4291 73.719 55.4291C73.5206 55.4963 73.319 55.5507 73.1174 55.6019C72.5639 55.7778 72.0167 55.9698 71.4759 56.181C71.1496 56.3506 70.8424 56.549 70.548 56.7794C69.7097 57.4385 68.8873 58.1105 67.8794 58.4976C66.3947 59.0736 64.3213 59.3712 62.8206 58.648C62.683 58.5808 62.5582 58.5008 62.4398 58.4177C62.0814 58.5808 61.7231 58.4528 61.3551 58.3121C60.9327 58.1521 60.488 58.0337 60.12 57.7649C60.0688 57.7265 60.0176 57.6849 59.9696 57.6433C59.9536 57.6497 59.9376 57.6529 59.9152 57.6529C59.2881 57.6497 58.4753 57.3969 57.9601 56.9362C57.9473 56.9426 57.9345 56.9458 57.9185 56.9458C56.8178 56.9714 55.7075 56.9074 54.6036 56.9362C54.0116 56.9522 53.4229 57.0002 52.8597 57.1953C52.3862 57.3617 51.9222 57.5793 51.4326 57.7041C50.4567 57.9569 49.3624 57.9729 48.3577 57.9793C48.1305 57.9793 47.8777 57.9985 47.6217 58.0081C47.2793 58.4368 46.8922 58.8272 46.4762 59.1376C45.6091 59.784 44.4923 60.1743 43.4428 60.4015C40.963 60.9359 38.4032 60.9967 35.8754 61.0127C33.3444 61.0287 30.807 61.0351 28.2759 61.1438C27.6552 61.1694 27.0344 61.2046 26.4137 61.227C25.8569 61.2462 25.2746 61.2878 24.7466 61.4734C24.3146 61.6238 23.9307 61.8702 23.5659 62.1486C23.2235 62.5325 22.8907 62.9389 22.478 63.2333C22.0972 63.5085 21.6652 63.7037 21.2077 63.822C20.3053 64.0524 19.2014 64.126 18.3727 63.6269C18.2127 63.5309 18.0719 63.4221 17.9503 63.3037C17.9375 63.3421 17.9151 63.3773 17.8735 63.3997C17.2176 63.7421 16.2352 63.6109 15.4993 63.2365C15.4705 63.2493 15.4417 63.2621 15.4033 63.2589C14.6066 63.2109 13.3394 63.1693 12.8531 62.395C12.4691 61.787 12.6419 61.0415 12.9363 60.4303C13.5922 59.0704 15.0449 57.4065 16.7312 57.8897C16.9584 57.7169 17.2112 57.5825 17.4959 57.5313C17.8127 57.4737 18.1455 57.4801 18.4751 57.5057C18.9294 57.4897 19.387 57.4961 19.8446 57.4449C20.6989 57.3489 21.5244 57.1313 22.3276 56.8306C22.7563 56.6706 23.1787 56.5042 23.6011 56.3378C19.2078 55.3459 14.8145 53.3044 11.6404 50.0791C9.9861 48.396 8.71259 46.4057 7.89025 44.1915C7.08071 42.0061 6.59435 39.5486 6.84713 37.2032C6.60715 36.2305 6.52715 35.1842 6.85993 34.2434C6.48876 34.829 6.15598 35.4401 6.27437 36.1665C6.28397 36.2337 6.18798 36.2465 6.16238 36.1921C6.16238 36.1889 6.16238 36.1857 6.15918 36.1825C6.13998 36.1793 6.12078 36.1729 6.11438 36.1473C5.77201 35.1042 5.9064 33.7507 6.07919 32.682C6.13678 32.3332 6.21038 31.9844 6.30637 31.6516C6.48556 29.7638 6.88553 27.9463 7.99584 26.3592C9.10936 24.7657 10.4213 23.3098 11.8932 22.0331C13.749 20.4237 15.8513 19.0574 18.1391 18.1486C20.5677 17.1855 23.1979 16.7791 25.8025 16.7023C27.1272 16.6639 28.4551 16.7023 29.7766 16.8207C31.0309 16.9327 32.3236 17.0479 33.5268 17.4319C34.6979 17.8063 35.7922 18.379 36.8257 19.0414C37.8464 19.6941 38.8 20.3565 39.4943 21.3676C39.5071 21.3868 39.5103 21.406 39.5071 21.422C41.091 22.3371 42.0765 24.2666 42.2045 26.0712C42.6813 26.388 43.1548 26.708 43.6636 26.9736C44.4411 27.3831 45.2603 27.7223 46.1146 27.9335C46.3706 27.9975 46.6266 28.0487 46.8826 28.0903C47.6025 27.5111 48.4185 27.0248 49.1832 26.5096C50.3735 25.7065 51.5862 24.9289 52.8277 24.2026C53.906 23.5722 55.0356 22.9771 56.2515 22.6635C58.6577 22.0459 61.2463 22.6891 63.5437 23.4826C68.3594 25.1465 72.3783 28.5927 75.2837 32.7363C75.6452 33.1235 75.9876 33.5267 76.2916 33.9619C76.9219 34.861 77.3667 35.8657 77.7731 36.88C78.2306 38.0256 78.6306 39.1967 78.925 40.3934C79.2098 41.5453 79.3058 42.7132 79.5074 43.8779C79.7217 44.1147 80.0769 44.2331 80.3649 44.3483C80.6913 44.4827 81.024 44.6043 81.344 44.7515C82.0512 45.0746 82.7583 45.4106 83.4367 45.7914C83.9582 46.0826 84.4958 46.3705 84.9949 46.6969C85.3501 46.9273 85.6093 47.2025 85.6861 47.532C85.7405 47.772 85.7021 48.0376 85.5325 48.3448L85.5293 48.3416Z" fill="#F4A54E"/>
<path d="M19.8638 48.348C14.5938 46.4601 11.1829 43.1836 10.2933 42.3036C9.85496 41.8685 9.50618 41.4589 9.10941 40.403C9.11901 40.5534 9.3046 41.3469 9.3526 41.4909C8.72864 40.8414 8.15909 40.1502 7.71432 39.3567C7.26955 38.5535 6.93358 37.7056 6.75759 36.8064C6.588 35.9489 6.5656 35.0562 6.85358 34.2434C6.48241 34.829 6.14963 35.4401 6.26802 36.1665C6.27762 36.2337 6.18163 36.2465 6.15603 36.1921C6.15603 36.1889 6.15603 36.1857 6.15283 36.1825C6.13363 36.1793 6.11444 36.1729 6.10804 36.1473C5.76566 35.1042 5.90005 33.7507 6.07284 32.682C6.13043 32.3332 6.20403 31.9844 6.30002 31.6516C6.47921 29.7638 6.87918 27.9463 7.9895 26.3592C9.10301 24.7657 10.4149 23.3098 11.8868 22.0331C13.7427 20.4237 15.8449 19.0574 18.1327 18.1486C20.5614 17.1855 23.1916 16.7791 25.7962 16.7023C27.1209 16.6639 28.4488 16.7023 29.7703 16.8207C31.0246 16.9327 32.3173 17.0479 33.5204 17.4319C34.6915 17.8063 35.7858 18.379 36.8194 19.0414C37.8401 19.6941 38.7936 20.3565 39.488 21.3676C39.5008 21.3868 39.504 21.406 39.5008 21.422C41.0527 22.3147 42.0254 24.1866 42.1854 25.956C42.051 25.9209 41.9198 25.8825 41.7918 25.8345C41.699 25.8025 41.427 25.7001 41.4654 25.7737C42.4317 27.6519 42.5917 30.3749 41.7694 32.3172C41.747 32.2564 41.7246 32.1924 41.7022 32.1316C41.6478 31.9748 41.5646 31.642 41.4526 31.5204C41.571 32.138 41.5614 32.4804 41.5518 32.7843C41.4974 35.0818 40.7199 36.7617 39.8847 38.3071C38.9344 40.0702 37.6225 41.7181 36.1762 43.1068C34.6531 44.5691 32.9157 45.8074 31.0694 46.8249C28.8839 48.0312 28.148 48.5272 25.4122 48.8856C23.9371 49.0807 21.4061 48.9016 19.8574 48.3448L19.8638 48.348Z" fill="#FAF9E8"/>
<path d="M36.6049 53.5476C36.1249 53.5732 35.6482 53.6052 35.1714 53.6564C33.5587 53.8228 31.9557 54.0596 30.3686 54.386C29.2647 54.6132 28.1767 54.8979 27.1112 55.2467C26.756 55.3395 26.4009 55.4355 26.0489 55.5411C25.3801 55.7363 24.9258 55.9187 24.2474 56.0818C24.017 56.1362 23.8251 56.2642 23.5979 56.3378C19.211 55.3523 14.7505 53.2437 11.6372 50.0791C10.1109 48.5272 8.91096 46.7129 8.08862 44.7035C8.71578 45.4842 9.45492 46.185 10.2197 46.8185C12.1011 48.3704 14.2418 49.7271 16.3984 50.8566C18.8558 52.1429 21.5116 52.9845 24.2826 53.1765C25.5561 53.2661 26.7592 52.9461 27.7576 52.1365C28.7399 51.3398 29.511 50.3127 30.5414 49.5767C30.6662 49.9031 30.7877 50.2199 30.9989 50.5079C31.0373 50.5623 31.1077 50.5751 31.1589 50.5271C31.8885 49.8231 32.3236 48.8824 33.0628 48.1816C32.666 48.9464 32.2564 49.7047 32.0772 50.5527C31.8949 51.4102 32.106 52.4565 32.8612 52.9749C33.5651 53.458 34.6211 53.1445 35.4082 53.2629C35.805 53.3237 36.2017 53.442 36.6049 53.5508V53.5476Z" fill="#FAF9E8"/>
<path d="M85.5422 48.3416C85.1582 49.0327 85.0911 49.8455 84.6879 50.5206C83.9296 51.7813 82.5825 52.6389 81.3633 53.4004C79.9074 54.3092 78.09 54.4147 76.4453 54.7539C75.5366 54.9427 74.6374 55.1571 73.7479 55.4163C73.7447 55.4227 73.7383 55.4291 73.7319 55.4291C73.5335 55.4963 73.3319 55.5507 73.1303 55.6019C72.5768 55.7778 72.0296 55.9698 71.4889 56.181C71.1625 56.3506 70.8553 56.549 70.5609 56.7794C69.7226 57.4353 68.8971 58.1105 67.8923 58.4977C66.4044 59.0736 64.3342 59.3712 62.8335 58.648C62.6959 58.5808 62.5679 58.5009 62.4527 58.4177C62.0944 58.5808 61.736 58.4528 61.368 58.3121C60.9456 58.1521 60.5041 58.0337 60.1329 57.7649C60.0817 57.7265 60.0305 57.6849 59.9825 57.6433C59.9665 57.6497 59.9505 57.6529 59.9281 57.6529C59.301 57.6529 58.4882 57.3969 57.9731 56.9362C57.9603 56.9426 57.9475 56.9458 57.9315 56.9458C56.8308 56.9714 55.7204 56.9074 54.6165 56.9362C54.0246 56.9522 53.439 57.0002 52.8726 57.1953C52.3959 57.3617 51.9319 57.5793 51.4456 57.7041C50.4696 57.9537 49.3753 57.9729 48.3706 57.9793C48.1434 57.9793 47.8906 57.9985 47.6346 58.0081C47.2923 58.4369 46.9051 58.8272 46.4891 59.1376C45.622 59.784 44.5053 60.1743 43.4557 60.4015C40.9759 60.9359 38.4161 60.9967 35.8883 61.0127C33.3541 61.0287 30.8199 61.0351 28.2889 61.1439C27.6681 61.1694 27.0506 61.2046 26.4298 61.227C25.873 61.2462 25.2875 61.2878 24.7595 61.4734C24.3276 61.6238 23.9436 61.8702 23.5788 62.1486C23.2364 62.5326 22.9037 62.9389 22.4909 63.2333C22.1101 63.5085 21.6782 63.7037 21.2206 63.8221C20.3215 64.0524 19.2143 64.126 18.3856 63.6269C18.2256 63.5309 18.0848 63.4221 17.9632 63.3037C17.9536 63.3421 17.928 63.3773 17.8864 63.3997C17.2305 63.7421 16.2514 63.6109 15.5122 63.2365C15.4866 63.2493 15.4546 63.2621 15.4194 63.2589C14.6227 63.2141 13.3556 63.1693 12.8692 62.3982C12.4852 61.7902 12.658 61.0447 12.9524 60.4335C13.6084 59.0736 15.061 57.4097 16.7473 57.8929C16.9745 57.7201 17.2273 57.5857 17.5121 57.5345C17.8288 57.4769 18.1616 57.4833 18.4912 57.5089C18.9456 57.4929 19.4031 57.4993 19.8607 57.4481C20.3695 57.3905 20.8654 57.2881 21.355 57.1505C21.2462 57.3521 20.0975 57.7553 19.9247 57.9985C19.4383 58.6768 22.9613 59.0352 23.8604 59.1568C25.2139 59.3392 26.5962 59.2048 27.9529 59.1504C29.204 59.0992 30.4615 59.1664 31.7126 59.208C34.346 59.2976 36.9858 59.3808 39.6128 59.1152C41.9263 58.8816 44.3741 58.3601 46.3355 57.0514C49.2601 55.0995 49.3785 51.0518 48.8281 47.9384C48.4954 46.057 47.8618 44.2235 47.0235 42.5084C46.3419 41.1229 45.4876 39.7694 44.3805 38.6815C45.5804 39.5615 46.9051 42.2684 47.4394 43.1356C47.4938 43.2252 47.8106 43.9163 47.6634 42.3516C47.5994 41.6637 47.2827 40.147 46.7323 39.1391C47.3403 39.8878 47.7658 40.7518 48.1402 41.6413C48.5882 42.7068 49.0361 43.7787 49.4265 44.8667C49.8297 45.993 50.172 47.1385 50.5368 48.2776C50.812 49.1447 51.0392 50.0631 51.4104 50.895C51.6695 51.4742 52.0279 51.9445 52.6071 52.2261C53.2758 52.5525 54.1334 52.5365 54.8629 52.5909C55.6948 52.6549 59.0802 52.9685 58.0307 51.2502C57.9859 51.1798 57.8867 51.0614 57.8451 51.1126C52.863 48.1112 53.7654 44.5115 55.2597 40.9853C55.0837 41.9581 54.8661 42.9212 54.8981 43.9227C54.9365 45.0618 55.3653 46.1466 56.066 47.0361C57.6659 49.0711 60.5137 49.6567 62.9519 49.8391C68.8811 50.2839 74.855 49.3335 80.717 48.5496C80.9826 48.5688 81.2545 48.5528 81.5137 48.492C81.5297 48.5016 81.5521 48.5048 81.5681 48.5016C80.2626 49.2279 79.1459 49.5287 78.106 49.9767C76.6981 50.5878 75.9077 50.687 74.1607 51.3782C73.4855 51.647 72.8424 51.8645 72.1608 52.1173C71.9304 52.2005 71.3993 52.3957 71.4953 52.7413C71.5977 53.1092 72.1832 53.1988 72.484 53.2628C73.1463 53.41 73.8439 53.4036 74.519 53.378C76.0101 53.3268 77.4564 52.9813 78.8643 52.5045C80.1858 52.0597 81.5137 51.5222 82.6944 50.7702C83.6768 50.1463 84.6783 49.1831 84.9055 47.9928C85.0591 47.1897 84.4511 46.4889 83.8304 45.9962C84.2303 46.217 84.6303 46.4441 85.0079 46.6905C85.363 46.9209 85.6222 47.1961 85.699 47.5225C85.7534 47.7624 85.7118 48.0312 85.5454 48.3352L85.5422 48.3416Z" fill="#FAF9E8"/>
<g style="mix-blend-mode:multiply" opacity="0.2">
<path d="M23.422 56.2898C19.0895 55.2819 14.7698 53.2564 11.634 50.0727C9.97975 48.3896 8.70624 46.3993 7.88391 44.1851C7.07437 41.9997 6.588 39.5422 6.84078 37.1968C6.6008 36.2241 6.52081 35.1778 6.85358 34.237C6.48241 34.8226 6.14963 35.4337 6.26802 36.1601C6.27762 36.2273 6.18163 36.2401 6.15603 36.1857C6.15603 36.1825 6.15603 36.1793 6.15283 36.1761C6.13363 36.1729 6.11444 36.1665 6.10804 36.1409C5.76566 35.0978 5.90005 33.7443 6.07284 32.6755C6.13043 32.3268 6.20403 31.978 6.30002 31.6452C6.47921 29.7574 6.87918 27.9399 7.9895 26.3528C9.10301 24.7593 10.4149 23.3034 11.8868 22.0267C13.7427 20.4173 15.8449 19.051 18.1327 18.1422C20.5614 17.1791 23.1916 16.7727 25.7962 16.6959C27.1209 16.6575 28.4488 16.6959 29.7703 16.8143C31.0246 16.9263 32.3173 17.0415 33.5204 17.4255C34.6915 17.7998 35.7858 18.3726 36.8194 19.035C37.7665 19.6429 38.6528 20.2573 39.3312 21.15C39.9775 23.7482 39.6064 26.3848 38.4896 28.839C37.3121 31.434 35.4723 33.8883 33.2068 35.6257C32.0933 36.4801 30.8134 37.2352 29.4919 37.7152C28.4616 38.0895 27.5816 38.4031 27.0281 39.4142C26.4169 40.531 26.7209 41.8685 25.8218 42.8764C25.073 43.7179 23.8411 43.9195 22.7724 43.8235C22.0461 43.7595 21.3261 43.5068 20.7214 43.1004C20.5134 42.9596 20.3342 42.7868 20.1582 42.6044C20.1582 42.5628 20.1358 42.5212 20.091 42.502C20.0718 42.4924 20.0558 42.486 20.0366 42.4764C19.9374 42.374 19.8382 42.2684 19.7326 42.1724C19.5182 41.9677 19.2687 41.8269 19.0063 41.7117C18.6703 41.3693 18.3631 40.9949 18.008 40.6814C17.368 40.1246 16.4881 39.8526 15.7041 39.5646C13.6403 38.8063 11.7044 37.5552 9.92535 36.2785C9.92215 36.2753 9.91895 36.2753 9.91895 36.2721C9.91256 36.2689 9.90936 36.2657 9.90296 36.2625C9.85816 36.2305 9.81656 36.2433 9.78776 36.2753C9.76537 36.2913 9.75257 36.3169 9.75257 36.3521C9.69817 38.7615 11.4068 40.9341 13.0099 42.5628C14.773 44.3547 16.9392 45.5706 19.3199 46.3449C21.7741 47.1449 24.3627 47.3689 26.9033 46.8825C29.4919 46.3897 31.8789 45.1514 34.0068 43.6283C35.1171 42.8348 36.157 41.9421 37.1489 41.0077C38.1665 40.0542 39.1328 39.0591 39.8655 37.8656C41.1838 35.7153 41.4046 33.2035 41.0878 30.7557C41.299 31.0117 41.4462 31.3029 41.5998 31.6068C41.6446 31.6932 41.7598 31.658 41.7854 31.5812C42.2878 30.2245 41.8686 28.7814 41.8238 27.3767C42.8573 29.1686 42.5277 31.706 42.2526 33.6323C41.8878 36.1921 41.2126 38.6239 40.0799 40.9565C39.4048 42.3548 38.608 43.6891 37.7665 44.9946C37.2385 45.8138 36.6274 46.5113 35.981 47.2377C35.3411 47.964 34.7043 48.7128 34.2212 49.5543C33.914 50.0887 33.5876 50.8374 33.8756 51.4454C34.2308 52.1941 35.1619 52.6069 35.8658 52.9397C36.429 53.2084 37.021 53.426 37.5969 53.6724C36.4066 53.8004 35.1971 53.6564 34.0036 53.794C32.6693 53.9476 31.3446 54.1812 30.0327 54.4659C28.6568 54.7667 27.3065 55.1891 25.9658 55.6179C25.1274 55.8834 24.2667 56.069 23.4156 56.277L23.422 56.2898Z" fill="#AC5C1A"/>
</g>
<g style="mix-blend-mode:multiply" opacity="0.2">
<path d="M48.9433 28.6023C46.8986 28.5831 44.8636 27.9975 43.2605 26.7496C43.3885 26.8264 43.5229 26.9 43.6541 26.9704C44.4316 27.38 45.2508 27.7191 46.1051 27.9303C46.3611 27.9943 46.617 28.0455 46.873 28.0871C47.593 27.5079 48.4089 27.0216 49.1737 26.5064C50.364 25.7033 51.5767 24.9257 52.8182 24.1994C53.7077 23.6778 54.6325 23.1883 55.6084 22.8523C54.4725 23.3611 53.4101 24.1418 52.5622 25.0089C52.1846 25.3961 51.1991 26.5128 51.9479 27.0216C52.6262 27.4824 53.7365 27.2616 54.4853 27.1624C54.8564 27.1112 55.234 27.028 55.6116 26.948C54.6485 27.3704 53.7045 27.8183 52.6838 28.1063C51.4679 28.4519 50.2008 28.6119 48.9369 28.5991L48.9433 28.6023Z" fill="#AC5C1A"/>
</g>
<g style="mix-blend-mode:multiply" opacity="0.2">
<path fill-rule="evenodd" clip-rule="evenodd" d="M85.5293 48.3416C85.1422 49.0327 85.0782 49.8455 84.675 50.5206C83.9166 51.7813 82.5663 52.6389 81.3504 53.4004C79.8945 54.3092 78.0771 54.4147 76.4324 54.7539C75.5237 54.9427 74.6245 55.1571 73.735 55.4163C73.7318 55.4227 73.7286 55.4291 73.719 55.4291C73.5206 55.4963 73.319 55.5507 73.1174 55.6019C72.5639 55.7778 72.0167 55.9698 71.476 56.181C71.1496 56.3506 70.8424 56.549 70.548 56.7794C69.7097 57.4385 68.8874 58.1105 67.8794 58.4976C66.3947 59.0736 64.3213 59.3712 62.8206 58.648C62.683 58.5808 62.5582 58.5008 62.4398 58.4177C62.0815 58.5808 61.7231 58.4528 61.3551 58.3121C60.9327 58.1521 60.488 58.0337 60.12 57.7649C60.0688 57.7265 60.0176 57.6849 59.9696 57.6433C59.9536 57.6497 59.9376 57.6529 59.9152 57.6529C59.2881 57.6497 58.4753 57.3969 57.9602 56.9362C57.9474 56.9426 57.9346 56.9458 57.9186 56.9458C56.8178 56.9714 55.7075 56.9074 54.6036 56.9362C54.0117 56.9522 53.4229 57.0002 52.8597 57.1953C52.3862 57.3617 51.9222 57.5793 51.4326 57.7041C50.4567 57.9569 49.3624 57.9729 48.3577 57.9793C48.1305 57.9793 47.8777 57.9985 47.6217 58.0081C47.2794 58.4369 46.8922 58.8272 46.4762 59.1376C45.6091 59.784 44.4924 60.1743 43.4428 60.4015C40.963 60.9359 38.4032 60.9967 35.8754 61.0127C33.3444 61.0287 30.807 61.0351 28.276 61.1438C27.6552 61.1694 27.0344 61.2046 26.4137 61.227C25.8569 61.2462 25.2746 61.2878 24.7466 61.4734C24.3146 61.6238 23.9307 61.8702 23.5659 62.1486C23.2235 62.5326 22.8908 62.9389 22.478 63.2333C22.0972 63.5085 21.6652 63.7037 21.2077 63.822C20.3053 64.0524 19.2014 64.126 18.3727 63.6269C18.2127 63.5309 18.0719 63.4221 17.9503 63.3037C17.9375 63.3421 17.9151 63.3773 17.8735 63.3997C17.2176 63.7421 16.2352 63.6109 15.4993 63.2365C15.4705 63.2493 15.4417 63.2621 15.4033 63.2589C14.6066 63.2109 13.3395 63.1693 12.8531 62.395C12.4691 61.787 12.6419 61.0415 12.9363 60.4303C12.9427 60.4207 12.9491 60.4079 12.9523 60.3983C12.9747 60.4783 13.0003 60.5551 13.0451 60.6287C13.2403 60.9711 13.6882 60.9679 13.9538 60.7343C14.4466 60.3023 14.7346 59.656 15.1665 59.1632C15.6017 58.6704 16.1105 58.2481 16.648 57.8673C16.664 57.8705 16.6768 57.8769 16.6928 57.8801C16.0817 58.4113 15.5281 59.0096 15.2273 59.7711C15.0257 60.2767 14.9425 61.3198 15.7393 61.3422C16.6608 61.3646 17.1984 60.4111 17.6943 59.7807C18.0623 59.3104 18.4783 58.936 19.0766 58.8048C19.6302 58.6832 20.3053 58.7824 20.8653 58.9904C19.979 59.112 19.1534 59.5504 18.6159 60.2831C18.2159 60.8303 17.9887 61.7454 18.7855 62.0206C19.483 62.2606 20.3917 61.9214 20.9325 61.4894C21.4701 61.0607 21.79 60.4079 22.1868 59.8415C23.0251 59.304 23.9851 59.1056 25.0442 59.0896C26.5417 59.0672 28.0456 59.1888 29.5431 59.1888C32.4612 59.1888 35.389 59 38.2912 58.6928C39.8239 58.5296 41.3886 58.2833 42.8509 57.7617C44.4732 57.3329 45.9802 56.4914 47.0746 55.2019C48.4249 53.6116 48.6105 51.583 48.5049 49.5767C48.3865 47.2825 47.7657 45.0106 46.793 42.934C46.249 41.7693 45.5931 40.643 44.9019 39.5615C44.502 38.9343 44.1244 38.2431 43.6828 37.6192C44.1724 38.0672 44.6875 38.4895 45.1323 38.9887C45.7499 39.6766 46.3034 40.4158 47.0458 40.9789C47.113 41.0301 47.1962 40.9565 47.1994 40.8894C47.2474 40.1214 46.7418 39.4463 46.4026 38.7967C46.0378 38.1024 45.7211 37.3856 45.3851 36.6753C45.9674 37.2032 46.473 37.8144 47.0138 38.3871C47.3529 38.7487 47.6857 39.1231 47.9993 39.5071C48.3161 39.8942 48.5241 40.3294 48.9304 40.6238C50.3319 41.6477 51.9286 41.3629 53.2821 40.4286C54.7636 39.4015 55.8771 37.8976 57.1442 36.6337C58.3345 35.4433 59.6368 34.3714 61.0767 33.5075C60.9295 33.6259 60.7855 33.7443 60.6416 33.8659C60.1008 34.3138 59.6688 34.813 59.2497 35.3698C58.3505 36.5633 57.4194 37.7472 56.7187 39.0719C55.6659 41.0621 54.9332 43.5836 56.1171 45.6794C57.3106 47.7944 59.9184 48.6136 62.1582 48.9527C65.0764 49.3975 68.081 49.4807 71.0248 49.4231C74.0358 49.3655 76.9923 49.1607 79.9201 48.4376C80.6401 48.2584 83.5039 47.3593 82.176 46.1786C81.7152 45.769 81.0081 45.6186 80.4225 45.4906C80.0705 45.4138 79.7154 45.3562 79.357 45.3114C79.309 45.2986 79.261 45.2858 79.213 45.2698C78.669 45.1034 78.4738 44.7579 78.4802 44.2011C78.4866 43.5068 78.6466 42.8124 78.6594 42.1117C78.6722 41.3661 78.5922 40.6206 78.4482 39.8878C77.9907 37.552 76.6372 35.2834 74.2758 34.5314C72.8615 34.0803 71.3064 33.9971 69.8409 33.8307C68.2954 33.6547 66.7467 33.4339 65.2748 32.8995C62.635 31.9428 60.3568 29.9974 58.6001 27.8439C57.9218 27.012 57.3586 26.0936 56.9074 25.1209C56.5491 24.3466 56.3859 23.505 56.1299 22.6955C56.1715 22.6859 56.2099 22.6731 56.2483 22.6603C58.6545 22.0427 61.2431 22.6859 63.5406 23.4794C68.3562 25.1433 72.3751 28.5895 75.2805 32.7331C75.6421 33.1203 75.9844 33.5235 76.2884 33.9587C76.9188 34.8578 77.3635 35.8625 77.7699 36.8768C78.2275 38.0224 78.6274 39.1935 78.9218 40.3902C79.2066 41.5421 79.3026 42.71 79.5042 43.8747C79.7186 44.1115 80.0737 44.2299 80.3617 44.3451C80.6881 44.4795 81.0209 44.6011 81.3408 44.7483C82.048 45.0714 82.7551 45.4074 83.4335 45.7882C83.955 46.0794 84.4926 46.3673 84.9918 46.6937C85.3469 46.9241 85.6061 47.1993 85.6829 47.5289C85.7373 47.7688 85.6989 48.0344 85.5293 48.3416ZM60.5744 53.6948C60.5872 53.6884 60.5936 53.682 60.6 53.6756C60.6064 53.6756 60.6096 53.6756 60.616 53.6788C60.7472 53.6916 60.744 53.49 60.616 53.474C59.9184 53.3972 59.2977 53.2692 58.6961 53.7076C58.3345 53.97 57.621 54.6931 57.9826 55.2019C58.2641 55.5955 58.7569 55.5763 59.1121 55.2755C59.6752 54.8019 59.8704 54.0148 60.5776 53.6948H60.5744ZM61.5823 54.9779C61.7263 54.7315 61.9023 54.5203 62.1391 54.3604C62.3118 54.242 62.5646 54.1908 62.7502 54.0788C62.8206 54.0372 62.8142 53.906 62.7246 53.8932C62.5486 53.8644 62.3918 53.8484 62.2158 53.8612C61.5727 53.7588 61.0479 53.6852 60.4816 54.2324C60.1232 54.5811 59.3329 55.5027 59.624 56.053C59.9312 56.6322 60.5936 56.3474 60.9487 55.9762C61.2207 55.6947 61.3839 55.3107 61.5791 54.9779H61.5823ZM83.0847 47.9448C82.6847 47.8872 82.2016 48.1912 81.872 48.38C81.552 48.5656 81.2384 48.7512 80.9185 48.9336C79.7698 49.4903 78.557 49.9159 77.3251 50.2487C75.6293 50.7094 73.9686 51.279 72.2599 51.6886C70.596 52.0853 68.9449 52.5109 67.2555 52.7701C66.8331 52.8341 64.7149 53.3364 62.7854 53.5028C63.6397 54.13 65.5628 53.698 66.5963 53.8964C67.1339 53.9988 67.6586 54.1172 68.177 54.1396C67.6714 54.3636 67.1275 54.4563 66.5739 54.4211C65.7036 54.0084 64.6093 53.826 63.7421 54.0564C63.1182 54.2228 62.4334 54.7379 62.1231 55.3683C61.7135 55.893 61.6015 56.5138 62.1903 57.0354C62.875 57.6433 63.7325 56.8658 64.2029 56.3762C64.6253 55.9346 64.9676 55.5379 65.598 55.3811C65.6908 55.3587 65.7804 55.3395 65.8732 55.3235C65.8892 55.3267 65.902 55.3267 65.918 55.3235C66.5515 55.2083 67.2043 55.3203 67.8442 55.2435C68.3274 55.1859 68.785 55.0227 69.2233 54.8211C69.8473 54.5363 70.4136 54.1908 71.0664 53.97C71.6711 53.7652 72.3047 53.65 72.9287 53.5252C74.2598 53.2596 75.5365 52.7797 76.7908 52.2709C77.8659 51.8357 78.9346 51.3878 79.9681 50.8662C80.9921 50.3478 81.9744 49.7367 82.8319 48.9719C83.0303 48.796 83.6767 48.028 83.0751 47.9384L83.0847 47.9448Z" fill="#AC5C1A"/>
</g>
<g style="mix-blend-mode:multiply" opacity="0.4">
<path d="M57.5666 56.2994C57.6402 56.533 57.765 56.7442 57.9154 56.9426C56.8147 56.9682 55.7043 56.9042 54.6036 56.933C54.0117 56.949 53.4229 56.9969 52.8597 57.1921C52.3862 57.3585 51.9222 57.5761 51.4326 57.7009C50.4567 57.9537 49.3624 57.9697 48.3577 57.9761C48.1625 57.9761 47.9449 57.9889 47.7241 57.9985C47.9897 57.4705 48.1977 56.9138 48.3705 56.389C48.9784 54.5459 49.196 52.6005 49.1 50.6678C49.0008 48.716 48.5657 46.8057 47.8777 44.9786C48.764 46.3801 49.3112 48.0056 49.6856 49.6663C49.6728 49.6855 49.6664 49.7143 49.676 49.7463C50.5751 52.7733 51.6278 53.8804 53.2309 53.8036C54.6996 53.7332 54.5844 51.3334 54.0053 50.0599C53.0581 47.9864 53.4805 44.3643 54.3604 43.1036C54.0853 44.6043 53.9669 46.1754 54.5844 47.5992C55.2948 49.2343 56.6099 50.4758 58.1969 51.247C59.6912 51.9765 61.3711 52.2805 63.0094 52.4853C64.2509 52.6421 71.7287 52.4021 80.5953 49.1607C71.3608 52.4629 66.3563 52.8053 66.1804 52.8437C64.5773 53.1188 62.9646 53.314 61.3487 53.4964C61.3391 53.4964 61.3327 53.5028 61.3231 53.5028C60.12 53.186 58.9009 52.9397 58.0338 54.098C57.5602 54.7315 57.3202 55.5187 57.5666 56.293V56.2994Z" fill="#AC5C1A"/>
</g>
<g style="mix-blend-mode:multiply" opacity="0.4">
<path d="M6.85358 34.2403C6.48241 34.8258 6.14963 35.437 6.26802 36.1633C6.27762 36.2305 6.18163 36.2433 6.15603 36.1889C6.15603 36.1857 6.15603 36.1825 6.15283 36.1793C6.13363 36.1761 6.11444 36.1697 6.10804 36.1441C5.76566 35.101 5.90005 33.7475 6.07284 32.6788C6.13043 32.33 6.20403 31.9812 6.30002 31.6485C6.47921 29.7606 6.87918 27.9431 7.9895 26.356C9.10301 24.7626 10.4149 23.3067 11.8868 22.03C13.7427 20.4205 15.8449 19.0542 18.1327 18.1455C20.5614 17.1823 23.1916 16.776 25.7962 16.6992C27.1209 16.6608 28.4488 16.6992 29.7703 16.8176C31.0246 16.9295 32.3173 17.0447 33.5204 17.4287C34.6915 17.8031 35.7858 18.3758 36.8194 19.0382C37.8401 19.6909 38.7936 20.3533 39.488 21.3644C39.5008 21.3836 39.504 21.4028 39.5008 21.4188C41.0847 22.3339 42.0702 24.2634 42.1982 26.0681C42.2654 26.1097 41.6702 26.0169 41.6286 25.9817C41.7214 26.1737 41.7918 26.3784 41.859 26.58C42.051 27.1656 42.1918 27.7767 42.2654 28.3879C42.4158 29.6678 42.3838 30.8549 41.8782 32.0548C41.8686 32.0772 41.8494 32.0868 41.8302 32.09C41.827 32.1252 41.8238 32.1604 41.8142 32.1924C41.8014 32.234 41.7374 32.2628 41.7118 32.2148C41.6318 32.0676 41.6158 31.8916 41.5486 31.7348C41.507 31.6389 41.4654 31.5461 41.4174 31.4533C41.6222 32.2852 41.6318 33.1267 41.4782 34.0067C41.2798 35.1362 41.0367 36.2817 40.4639 37.2864C40.4479 37.3152 40.4095 37.296 40.4191 37.2672C40.7999 36.1825 41.0751 35.1074 41.2094 33.9619C41.283 33.3475 41.3598 32.7236 41.299 32.106C41.251 31.6133 41.1486 31.1429 41.0591 30.6565C41.0495 30.6021 41.1294 30.5893 41.1486 30.6373C41.2222 30.8165 41.283 30.9957 41.3374 31.1781C41.4846 31.3445 41.6926 31.5813 41.7822 31.8276C41.8782 31.2581 42.067 30.7173 42.067 30.1254C42.067 29.4982 42.051 28.8679 41.9582 28.2439C41.8622 27.6072 41.715 26.9736 41.5006 26.3656C41.3406 25.9145 41.0815 25.5337 40.9055 25.0953C40.8863 25.0473 40.9567 25.0089 40.9855 25.0537C41.091 25.2169 41.219 25.3609 41.3342 25.5145C41.5742 25.6617 41.8078 25.8153 42.0414 25.9689C41.4782 23.9882 40.4895 21.9596 38.5184 21.0828C38.4832 21.0668 38.4992 21.0092 38.5376 21.0188C38.7488 21.0764 38.9536 21.1532 39.1488 21.246C38.0641 20.1421 36.6818 19.2654 35.3219 18.5614C33.8372 17.7967 32.3205 17.4447 30.6694 17.2559C27.9272 16.9423 25.1274 16.9104 22.3948 17.3519C19.7902 17.7711 17.3392 18.6574 15.0994 20.0557C12.9459 21.4028 10.9973 23.0859 9.3718 25.0409C8.55586 26.0233 7.76231 27.0568 7.28235 28.2535C6.93358 29.1206 6.72239 30.0262 6.556 30.9413C6.75119 30.5061 7.01357 30.0998 7.36234 29.7414C7.41354 29.6902 7.49353 29.7542 7.44874 29.8118C6.77679 30.6597 6.48561 31.8148 6.34162 32.8676C6.27122 33.3859 6.23283 33.9043 6.20403 34.4258C6.19763 34.5826 6.19443 34.7362 6.19763 34.8898C6.38642 34.3939 6.72239 33.9331 7.06477 33.6195C7.08716 33.5971 7.12236 33.6003 7.14796 33.6163C7.15756 33.6003 7.16396 33.5843 7.17676 33.5715C7.19916 33.5363 7.24395 33.5747 7.23435 33.6067C6.79279 35.0594 6.84718 36.5025 7.38794 37.9232C7.75911 38.8991 8.28388 39.8686 8.92383 40.7134C8.85343 40.3038 8.90463 39.8463 8.90143 39.4687C8.90143 39.4399 8.93343 39.4207 8.95903 39.4271C8.95903 39.3791 8.95583 39.3311 8.95583 39.2831C8.95583 39.2415 9.01342 39.2351 9.01982 39.2767C9.19901 40.6558 10.0405 41.7277 10.9237 42.7388C10.9525 42.774 11.8036 43.7436 11.7716 43.7212C10.0149 42.3069 9.3686 41.3053 9.09342 40.3134C9.09342 40.3262 9.09342 40.3358 9.09662 40.3486C9.14781 40.7358 9.279 41.0174 9.45499 41.3533C9.45499 41.3565 9.45819 41.3565 9.45819 41.3597C9.46779 41.3693 9.47099 41.3789 9.47099 41.3885C9.47099 41.3917 9.47419 41.3917 9.47419 41.3949C9.51258 41.4685 9.43579 41.5485 9.3654 41.4973C9.2758 41.4301 9.20541 41.3533 9.14461 41.2701C8.61345 40.8446 8.21988 40.2046 7.87751 39.6351C7.66312 39.2799 7.41354 38.8223 7.24395 38.4416C7.15116 38.24 6.97837 37.6928 6.83118 37.1456C6.5752 36.1985 6.52721 35.165 6.85358 34.2467V34.2403Z" fill="#AC5C1A"/>
</g>
<g style="mix-blend-mode:multiply" opacity="0.4">
<path fill-rule="evenodd" clip-rule="evenodd" d="M57.7042 56.5746C57.7906 56.6962 57.8834 56.8242 57.9602 56.933C57.9602 56.933 57.957 56.933 57.957 56.9298C57.9442 56.9362 57.9314 56.9394 57.9154 56.9394C56.8147 56.965 55.7044 56.901 54.6004 56.9298C54.0085 56.9458 53.4197 56.9938 52.8566 57.1889C52.383 57.3553 51.919 57.5729 51.4295 57.6977C50.4535 57.9505 49.3592 57.9665 48.3545 57.9729C48.1273 57.9729 47.8745 57.9921 47.6185 58.0017C47.2762 58.4304 46.889 58.8208 46.473 59.1312C45.6059 59.7775 44.4892 60.1679 43.4397 60.3951C40.9598 60.9295 38.4 60.9903 35.8722 61.0063C33.3412 61.0223 30.8038 61.0287 28.2728 61.1374C27.652 61.163 27.0313 61.1982 26.4105 61.2206C25.8538 61.2398 25.2714 61.2814 24.7434 61.467C24.3115 61.6174 23.9275 61.8638 23.5627 62.1422C23.2204 62.5261 22.8876 62.9325 22.4748 63.2269C22.094 63.5021 21.6621 63.6973 21.2045 63.8156C20.3022 64.046 19.1983 64.1196 18.3695 63.6205C18.2095 63.5245 18.0687 63.4157 17.9471 63.2973C17.9343 63.3357 17.9119 63.3709 17.8704 63.3933C17.2144 63.7357 16.2321 63.6045 15.4961 63.2301C15.4673 63.2429 15.4385 63.2557 15.4001 63.2525C14.6034 63.2045 13.3363 63.1629 12.8499 62.3886C12.466 61.7806 12.6387 61.0351 12.9331 60.4239C13.5891 59.064 15.0418 57.4001 16.728 57.8833C16.9552 57.7105 17.208 57.5761 17.4928 57.5249C17.8096 57.4673 18.1423 57.4737 18.4719 57.4993C18.8431 57.4865 19.2143 57.4865 19.5854 57.4609C19.4766 57.4865 19.3646 57.5089 19.2526 57.5313C18.9647 57.5921 18.6575 57.6369 18.3599 57.7009C18.1551 57.7105 17.9503 57.7265 17.7456 57.7713C17.2464 57.8801 16.8592 58.1457 16.5105 58.5104C15.9761 59.0736 15.4833 59.7136 15.1442 60.4175C14.8562 61.0223 14.5298 61.9246 15.0482 62.5037C15.6241 63.1501 16.984 63.4637 17.768 63.1245C17.7744 63.1213 17.7808 63.1213 17.784 63.1213C17.432 62.6701 17.3456 62.1006 17.6272 61.483C18.0207 60.6159 18.7311 59.8415 19.5182 59.3104C19.5534 59.2848 19.6046 59.336 19.5726 59.368C18.5807 60.3311 16.5328 62.6381 18.7855 63.4637C19.6494 63.7804 20.6669 63.6973 21.5149 63.3677C21.8349 63.2429 22.1388 63.0893 22.4172 62.8877C22.9836 62.2542 23.6395 61.5854 24.3723 61.275C25.3226 60.8687 26.3497 60.8879 27.3608 60.8367C29.8919 60.7055 32.4293 60.6735 34.9603 60.6607C37.4881 60.6511 40.0351 60.6415 42.5341 60.2127C43.7052 60.0111 45.0363 59.7104 46.0283 59.0192C46.553 58.6544 46.9466 58.1873 47.3338 57.7105C47.6985 57.0609 48.1209 56.4594 48.3833 55.7458C48.6713 54.9555 48.8505 54.1332 48.9305 53.298C49.1064 51.503 48.9912 49.6791 48.6169 47.916C47.8809 44.4571 46.1979 41.2573 44.1596 38.3935C44.134 38.3583 44.1884 38.3199 44.214 38.3551C45.3179 39.7662 46.0667 40.371 46.905 41.9581C47.3082 42.7228 47.6058 42.406 47.5482 41.8941C47.4522 41.0493 47.2026 40.4862 46.8922 39.6958C46.8826 39.6766 46.9114 39.6702 46.921 39.6862C47.6441 41.0909 48.0537 42.8764 47.9033 44.4699C48.3705 45.6282 48.7353 46.8313 48.9753 48.0536C49.3368 49.8999 49.7912 52.1621 48.8313 55.861C48.5913 56.7826 48.9656 57.8833 52.1718 57.0769C53.2437 56.8082 54.1749 56.5682 55.2788 56.5906C55.8227 56.6002 56.3603 56.6066 56.9043 56.581C57.0802 56.5746 57.4322 56.5682 57.7074 56.5842L57.7042 56.5746ZM14.9746 62.8909C14.9362 62.8589 14.8978 62.8269 14.8658 62.7917C14.2898 62.2286 14.4018 61.3358 14.6738 60.6575C15.0354 59.7583 15.6337 58.92 16.3217 58.2417C16.3857 58.1777 16.4529 58.1169 16.5233 58.0561C15.7745 58.1041 15.125 58.2609 14.517 58.792C14.0274 59.2208 13.6147 59.7743 13.3203 60.3535C13.0643 60.8623 12.7091 61.675 13.1155 62.203C13.5283 62.7373 14.293 62.8397 14.9746 62.8909Z" fill="#AC5C1A"/>
</g>
<g style="mix-blend-mode:multiply" opacity="0.3">
<path fill-rule="evenodd" clip-rule="evenodd" d="M85.5292 48.3416C85.1421 49.0327 85.0781 49.8455 84.6749 50.5206C83.9165 51.7813 82.5662 52.6389 81.3503 53.4004C79.8944 54.3091 78.077 54.4147 76.4323 54.7539C75.5236 54.9427 74.6244 55.1571 73.7349 55.4163C73.7317 55.4227 73.7285 55.4291 73.7189 55.4291C73.5205 55.4963 73.3189 55.5506 73.1173 55.6018C72.5638 55.7778 72.0166 55.9698 71.4759 56.181C71.1495 56.3506 70.8423 56.549 70.5479 56.7794C69.7096 57.4385 68.8873 58.1105 67.8793 58.4976C66.3946 59.0736 64.3212 59.3712 62.8205 58.648C62.6829 58.5808 62.5581 58.5008 62.4397 58.4176C62.0814 58.5808 61.723 58.4528 61.355 58.312C60.9327 58.152 60.4879 58.0337 60.1199 57.7649C60.0687 57.7265 60.0175 57.6849 59.9695 57.6433C59.9535 57.6497 59.9375 57.6529 59.9151 57.6529C59.3392 57.6497 58.6096 57.4353 58.0945 57.0417C58.0497 57.0065 58.0017 56.9745 57.9633 56.9361C57.8865 56.8273 57.7905 56.6994 57.7073 56.5778C57.5985 56.421 57.5057 56.2834 57.4897 56.2354C57.3137 55.7394 57.3745 55.1955 57.6145 54.7091C57.9377 54.0596 58.4944 53.4388 59.1984 53.1988C59.5472 53.0804 59.8799 53.0676 60.2287 53.1988C60.4655 53.2884 60.7119 53.4068 60.9646 53.4292C61.0286 53.4356 61.0958 53.4356 61.1598 53.4388C61.1726 53.4484 61.1822 53.4516 61.1982 53.4548C61.6334 53.5508 62.0558 53.6884 62.4877 53.7844C62.4941 53.7844 62.4973 53.7844 62.5037 53.7844C62.5069 53.7844 62.5101 53.7876 62.5133 53.7876C62.7469 53.8388 62.9613 53.8836 63.1757 53.9892C63.2109 54.0052 63.1949 54.0596 63.1565 54.0532C62.3085 53.9156 61.3998 53.506 60.7151 54.2195C60.2543 54.6995 59.7583 55.2787 59.6623 55.9634C59.5727 56.581 59.8191 57.1441 60.3503 57.4865C60.6735 57.6945 61.0254 57.7937 61.3806 57.9345C61.627 58.0305 61.8798 58.1265 62.1422 58.1648C61.8126 57.8353 61.6014 57.4289 61.5182 56.9969C61.387 56.3186 61.5726 55.573 62.1198 54.9683C62.6413 54.3891 63.4125 53.8932 64.222 53.8932C65.3067 53.8964 66.3019 54.3955 67.3898 54.3635C67.4282 54.3603 67.4314 54.4179 67.393 54.4211C66.4778 54.5107 65.5947 54.2483 64.686 54.2003C63.7612 54.1492 62.8493 54.5075 62.2861 55.2723C61.7774 55.9634 61.5694 56.9585 62.1422 57.6881C62.5613 58.2224 63.2141 58.488 63.87 58.5968C65.5979 58.8816 67.505 58.4976 68.9769 57.5473C69.732 57.0609 70.404 56.4146 71.2199 56.0306C71.5463 55.877 71.8886 55.7554 72.2374 55.6562C73.2901 55.1827 74.4101 54.8595 75.5396 54.6067C76.3171 54.4307 77.1011 54.2835 77.8818 54.1331C78.6209 53.9892 79.3825 53.8868 80.0928 53.6308C80.8064 53.3716 81.4431 52.9556 82.0671 52.5269C82.643 52.1301 83.219 51.7077 83.699 51.199C83.9645 50.9206 84.2493 50.6102 84.4253 50.2646C84.5629 49.9927 84.6429 49.7047 84.7261 49.4167C85.0909 48.7639 85.6124 48.0792 85.3404 47.3305C85.2317 47.0297 84.9725 46.7577 84.7165 46.5241C84.8093 46.5817 84.9021 46.6361 84.9949 46.6969C85.35 46.9273 85.6092 47.2025 85.686 47.532C85.7404 47.772 85.702 48.0376 85.5324 48.3448L85.5292 48.3416ZM59.6335 57.2753C59.3744 56.9169 59.2368 56.4818 59.3104 56.0114C59.4352 55.1891 59.9759 54.4371 60.5999 53.906C60.7407 53.7876 60.9071 53.666 61.0894 53.586C60.9423 53.5892 60.7919 53.5828 60.6511 53.554C60.2671 53.4772 59.8895 53.2756 59.4928 53.4004C58.9232 53.5764 58.424 53.9796 58.1009 54.4819C57.7553 55.0195 57.4897 55.813 57.9185 56.389C58.3568 56.9777 58.9904 57.1089 59.6399 57.2785L59.6335 57.2753Z" fill="#AC5C1A"/>
</g>
<g style="mix-blend-mode:multiply" opacity="0.5">
<path d="M37.1585 53.6052C35.3986 53.7012 33.6484 53.8164 31.9077 54.1012C29.8439 54.4404 25.6906 55.5923 23.6235 56.3218C23.5595 56.3122 23.4923 56.2994 23.4283 56.2898C19.0926 55.2851 14.773 53.2565 11.6372 50.0727C11.0452 49.4711 10.5045 48.8312 10.0117 48.1528C11.9572 50.1911 14.4562 52.2229 17.0032 53.4324C17.9919 53.8996 19.0095 54.274 20.0526 54.6036C22.7436 55.4579 24.5866 55.4131 27.252 54.7891C28.5 54.498 29.5495 54.2068 30.8006 53.9412C31.6869 53.7524 31.4949 52.9685 31.3445 52.6517C31.1846 52.3125 30.487 50.7254 30.503 50.7606C30.8646 51.4646 31.4821 51.9734 31.8341 52.6773C31.9973 53.0005 32.2917 53.4228 32.3525 53.7972C33.9363 53.5796 37.1873 53.602 37.1553 53.602L37.1585 53.6052Z" fill="#AC5C1A"/>
</g>
<g style="mix-blend-mode:multiply" opacity="0.4">
<path d="M44.2237 27.3896C43.8173 27.1912 43.3982 26.9544 43.0718 26.6312C43.2638 26.7496 43.4557 26.8648 43.6573 26.9704C44.4349 27.38 45.254 27.7192 46.1083 27.9303C46.3643 27.9943 46.6203 28.0455 46.8763 28.0871C47.5962 27.508 48.4122 27.0216 49.1769 26.5064C50.3672 25.7033 51.5799 24.9258 52.8215 24.1994C53.7814 23.6363 54.7797 23.1051 55.8452 22.7755C55.1925 23.0315 54.5461 23.3419 53.9446 23.6811C52.3255 24.5962 50.364 26.0937 49.0521 27.2968C48.4538 27.8471 48.5242 28.2919 49.0905 28.2887C49.3241 28.2887 49.5321 28.2823 49.6729 28.2727C50.156 28.2503 51.8167 28.2599 53.1638 27.9431C51.4232 28.6599 49.4041 28.7015 48.6042 28.7079C46.9275 28.7207 45.7212 28.1191 44.2237 27.3896Z" fill="#AC5C1A"/>
</g>
<path d="M80.7969 22.4364C80.7617 23.7035 80.5217 24.9034 80.237 26.1289C80.157 26.7752 79.965 27.3992 79.7442 28.0135C79.4466 28.8295 79.1682 29.6518 78.7651 30.4262C78.1091 31.6837 77.2548 33.1812 75.9781 33.8979C75.8245 33.9843 75.6645 33.8339 75.6869 33.7091C75.4917 33.4979 75.3061 33.1556 75.2389 33.0628C74.8806 32.5668 74.5094 32.1252 74.0262 31.7733C73.5815 31.9397 73.1079 31.9397 72.6183 31.8821C72.0584 32.0517 71.4632 32.1316 70.8969 32.1476C69.6074 32.1892 68.2987 32.0772 67.0315 31.8373C64.6093 31.3829 62.2383 30.4422 60.2992 28.8935C56.9875 26.2505 54.914 21.6076 56.2227 17.4831C56.1524 17.5887 56.0756 17.6911 56.0148 17.7967C55.8708 18.0431 55.73 18.2799 55.6372 18.5454C55.6308 18.6638 55.6212 18.7822 55.6084 18.8974C55.602 18.9518 55.5188 18.9454 55.5156 18.8942C55.4516 18.2223 55.3396 17.5055 55.5092 16.8432C55.5732 16.5872 55.7172 16.3056 55.9124 16.0848C55.5828 16.2704 55.2724 16.5008 55.1124 16.8272C55.09 16.9808 55.058 17.1343 55.0036 17.2847C54.9908 17.3199 54.9332 17.3103 54.9332 17.2719C54.9332 17.2367 54.9364 17.2015 54.9364 17.1695C54.93 17.1056 54.93 17.0416 54.9364 16.9744C54.9332 16.328 54.882 15.6945 55.3268 15.1441C55.5604 14.8561 55.8388 14.6545 56.1556 14.5905C55.5348 13.8194 55.9796 12.7891 56.6643 12.2131C56.7539 12.0787 56.8755 11.9667 57.0387 11.8931C57.0707 11.8803 57.1027 11.9219 57.0771 11.9475C56.8051 12.2227 56.6227 12.5843 56.7795 12.9715C56.8243 13.0867 56.8915 13.173 56.9683 13.2434C57.653 10.8308 59.6753 9.14454 61.9759 8.3222C63.2622 7.86143 64.6541 7.61505 66.0204 7.63745C67.3419 7.65985 68.5962 7.94143 69.8473 8.3446C72.2376 9.11894 74.6886 10.2133 76.4452 12.0659C78.1411 13.8578 79.453 16.2256 80.2178 18.5678C80.6241 19.8158 80.8353 21.1181 80.8001 22.4332L80.7969 22.4364Z" fill="#F4A54E"/>
<path d="M80.7969 22.4363C80.7617 23.7034 80.5217 24.9033 80.237 26.1288C80.157 26.7752 79.965 27.3992 79.7442 28.0135C79.693 28.1543 79.6418 28.2919 79.5938 28.4327C79.7122 27.6007 79.7986 26.756 79.8178 25.9273C79.9202 21.4188 76.5188 15.0641 72.2984 13.2402C69.169 11.8867 65.7132 11.9091 63.2718 14.4241C63.2174 14.4817 64.3341 13.7202 64.2638 13.797C62.4367 15.6912 63.7166 14.5297 64.2222 14.3953C62.9135 15.5344 62.9007 16.9263 62.6319 18.6062C62.6159 18.7022 63.2526 17.0991 63.227 17.2047C62.5999 20.0109 63.707 17.8383 64.1582 17.4063C63.2878 19.3549 63.819 21.758 64.8781 23.5402C64.9261 23.6234 64.2766 21.8956 64.267 21.7932C64.2158 21.3228 65.1341 23.7098 65.2461 22.4235C65.4989 23.0123 65.8444 23.5562 66.3212 24.0106C66.9516 24.6122 67.7707 24.9737 68.5738 25.2841C69.553 25.6617 70.6089 25.9145 71.5176 26.4488C72.5575 27.0568 73.2551 28.1575 73.5079 29.319C73.7479 30.4133 73.5335 31.2645 73.0407 31.9108C72.9031 31.9076 72.7623 31.8948 72.6183 31.8788C72.0584 32.0484 71.4632 32.1284 70.8969 32.1444C69.6074 32.186 68.2987 32.074 67.0315 31.834C64.6093 31.3797 62.2383 30.4389 60.2992 28.8902C56.9875 26.2472 54.914 21.6044 56.2227 17.4799C56.1524 17.5855 56.0756 17.6879 56.0148 17.7935C55.8708 18.0398 55.73 18.2766 55.6372 18.5422C55.6308 18.6606 55.6212 18.779 55.6084 18.8942C55.602 18.9486 55.5188 18.9422 55.5156 18.891C55.4516 18.219 55.3396 17.5023 55.5092 16.8399C55.5732 16.584 55.7172 16.3024 55.9124 16.0816C55.5828 16.2672 55.2724 16.4976 55.1124 16.8239C55.09 16.9775 55.058 17.1311 55.0036 17.2815C54.9908 17.3167 54.9332 17.3071 54.9332 17.2687C54.9332 17.2335 54.9364 17.1983 54.9364 17.1663C54.93 17.1023 54.93 17.0383 54.9364 16.9711C54.9332 16.3248 54.882 15.6912 55.3268 15.1409C55.5604 14.8529 55.8388 14.6513 56.1556 14.5873C55.5348 13.8162 55.9796 12.7858 56.6643 12.2099C56.7539 12.0755 56.8755 11.9635 57.0387 11.8899C57.0707 11.8771 57.1027 11.9187 57.0771 11.9443C56.8051 12.2195 56.6227 12.581 56.7795 12.9682C56.8243 13.0834 56.8915 13.1698 56.9683 13.2402C57.653 10.8276 59.6753 9.1413 61.9759 8.31897C63.2622 7.8582 64.6541 7.61182 66.0204 7.63422C67.3419 7.65661 68.5962 7.9382 69.8473 8.34137C72.2376 9.11571 74.6886 10.21 76.4452 12.0627C78.1411 13.8546 79.453 16.2224 80.2178 18.5646C80.6241 19.8125 80.8353 21.1148 80.8001 22.4299L80.7969 22.4363Z" fill="#FAF9E8"/>
<g style="mix-blend-mode:multiply" opacity="0.2">
<path d="M80.7361 23.361C80.6401 24.2954 80.4513 25.2041 80.2369 26.1288C80.157 26.7752 79.965 27.3991 79.7442 28.0135C79.4466 28.8294 79.1682 29.6518 78.7651 30.4261C78.1091 31.6836 77.2548 33.1811 75.9781 33.8979C75.8245 33.9843 75.6645 33.8339 75.6869 33.7091C75.4917 33.4979 75.3061 33.1555 75.2389 33.0627C74.8805 32.5668 74.5094 32.1252 74.0262 31.7732C73.5814 31.9396 73.1079 31.9396 72.6183 31.882C72.0584 32.0516 71.4632 32.1316 70.8968 32.1476C69.6073 32.1892 68.2986 32.0772 67.0315 31.8372C64.6093 31.3829 62.2383 30.4421 60.2992 28.8934C56.9875 26.2504 54.914 21.6076 56.2227 17.4831C56.1523 17.5887 56.0755 17.6911 56.0147 17.7967C55.8708 18.043 55.73 18.2798 55.6372 18.5454C55.6308 18.6638 55.6212 18.7822 55.6084 18.8974C55.602 18.9518 55.5188 18.9454 55.5156 18.8942C55.4516 18.2222 55.3396 17.5055 55.5092 16.8431C55.5732 16.5872 55.7172 16.3056 55.9123 16.0848C55.5828 16.2704 55.2724 16.5008 55.1124 16.8271C55.09 16.9807 55.058 17.1343 55.0036 17.2847C54.9972 17.3071 54.9684 17.3103 54.9492 17.2975C55.202 16.0624 56.2739 14.8561 57.7906 14.9393C57.9058 14.9457 57.3778 14.8209 57.2658 14.7985C56.5075 14.6545 55.6276 14.4945 55.154 15.4128C55.202 15.32 55.2596 15.2304 55.33 15.1409C55.5636 14.8529 55.842 14.6513 56.1587 14.5873C55.73 14.0529 55.81 13.397 56.1267 12.853C56.0915 13.1698 56.2067 13.5442 56.3987 13.7778C56.9139 14.4017 57.7618 14.0625 58.2962 13.6466C58.3826 13.5794 58.3378 13.4226 58.2162 13.461C57.8194 13.589 57.3938 13.5922 57.1379 13.2146C57.0963 13.1538 57.0675 13.0866 57.0451 13.0162C57.7554 10.834 59.5793 9.27249 61.6783 8.44055C61.128 8.75733 60.6128 9.1285 60.1456 9.57646C59.2337 10.45 58.5873 11.5667 58.0114 12.6834C57.9602 12.7794 58.1778 12.4467 58.2514 12.3507C58.9201 11.4803 60.0816 10.93 60.9968 10.9524C60.12 11.7011 59.4513 12.5298 59.0417 13.669C58.3986 15.4608 58.1522 16.3952 58.3506 18.4782C58.3634 18.6094 58.4466 19.4637 58.469 19.3325C58.6225 18.3822 59.2721 17.5951 59.9376 16.9007C58.4466 20.4237 59.96 24.3754 63.195 26.404C64.9421 27.4983 67.1659 28.0583 69.217 27.7703C70.0617 27.6519 71.0408 27.3352 71.5656 26.6216C72.0008 26.0329 71.6584 25.2745 71.316 24.6857C71.7 24.9193 72.0264 25.2233 72.3527 25.5433C72.4295 25.6169 72.5447 25.5401 72.5223 25.4441C72.0807 23.4922 70.4137 22.6027 68.7786 21.758C69.8057 21.5532 70.836 22.2091 71.7128 22.6667C71.8088 22.7179 71.8952 22.6187 71.8504 22.5259C71.4824 21.7516 70.9096 21.1148 70.4329 20.4077C69.8313 19.5213 69.7065 18.6094 70.1641 17.6303C70.5993 16.6991 71.3576 15.976 72.3719 15.7552C73.1975 15.576 74.071 15.7936 74.8517 16.1072C74.0454 16.2576 73.623 17.1823 73.607 18.0142C73.6038 18.0878 73.6966 18.1486 73.7606 18.1038C74.1734 17.8063 74.615 17.6207 75.0917 17.5023C74.1446 18.427 74.743 19.8765 75.3605 20.9324C75.7925 21.6684 76.3236 22.3403 76.7652 23.0699C77.3636 24.0522 77.7091 25.1177 77.7955 26.2664C77.8019 26.372 77.9267 26.3976 77.9875 26.3144C78.0899 26.1736 78.1795 26.0296 78.2659 25.8793C78.2659 26.4488 78.1635 27.012 78.2659 27.5751C78.2755 27.6199 78.3235 27.6519 78.3651 27.6487C79.0722 27.6295 79.4978 26.7464 79.7666 26.2056C80.2177 25.3065 80.5537 24.3498 80.7361 23.3642V23.361Z" fill="#AC5C1A"/>
</g>
<g style="mix-blend-mode:multiply" opacity="0.4">
<path d="M57.0194 12.0083C56.7794 12.2739 56.6322 12.6131 56.7762 12.9714C56.821 13.0866 56.8882 13.173 56.965 13.2434C57.0322 13.0034 57.1154 12.7762 57.2082 12.5523C57.1218 12.821 57.0642 13.0962 57.0898 13.317C57.0866 13.3234 57.0834 13.3298 57.0802 13.3362C57.0834 13.3394 57.0898 13.3426 57.093 13.3458C57.1122 13.4802 57.173 13.5858 57.2786 13.6626C57.1122 13.6306 56.9522 13.5698 56.8178 13.4578C56.4082 13.1186 56.613 12.5779 56.8306 12.1587C56.8882 12.1043 56.949 12.0531 57.0162 12.0083H57.0194Z" fill="#AC5C1A"/>
</g>
<g style="mix-blend-mode:multiply" opacity="0.2">
<path d="M80.7969 22.3499C80.7969 22.3787 80.7969 22.4075 80.7969 22.4395C80.7617 23.7066 80.5217 24.9066 80.237 26.1321C80.157 26.7784 79.965 27.4024 79.7442 28.0167C79.4466 28.8327 79.1682 29.655 78.7651 30.4293C78.1091 31.6869 77.2548 33.1843 75.9781 33.9011C75.8245 33.9875 75.6645 33.8371 75.6869 33.7123C75.4917 33.5011 75.3061 33.1587 75.2389 33.0659C74.8806 32.57 74.5094 32.1284 74.0262 31.7764C73.5815 31.9428 73.1079 31.9428 72.6183 31.8852C72.0584 32.0548 71.4632 32.1348 70.8969 32.1508C69.6074 32.1924 68.2987 32.0804 67.0315 31.8404C64.6093 31.3861 62.2383 30.4453 60.2992 28.8967C56.9875 26.2537 54.914 21.6108 56.2227 17.4863C56.1524 17.5919 56.0756 17.6943 56.0148 17.7999C55.8708 18.0463 55.73 18.283 55.6372 18.5486C55.6308 18.667 55.6212 18.7854 55.6084 18.9006C55.602 18.955 55.5188 18.9486 55.5156 18.8974C55.4516 18.2254 55.3396 17.5087 55.5092 16.8463C55.5732 16.5904 55.7172 16.3088 55.9124 16.088C55.5828 16.2736 55.2724 16.504 55.1124 16.8304C55.09 16.9839 55.058 17.1375 55.0036 17.2879C54.9908 17.3231 54.9332 17.3135 54.9332 17.2751C54.9332 17.2399 54.9364 17.2047 54.9364 17.1727C54.93 17.1087 54.93 17.0447 54.9364 16.9775C54.9332 16.3312 54.882 15.6976 55.3268 15.1473C55.5604 14.8593 55.8388 14.6577 56.1556 14.5937C55.858 14.2257 55.8068 13.8002 55.906 13.3938C55.8708 13.9378 56.1844 14.5265 56.6611 14.7665C56.1108 14.8369 55.618 15.0961 55.3684 15.6208C55.25 15.8672 55.2052 16.12 55.17 16.3728C55.4548 15.9536 55.954 15.6528 56.4371 15.7168C56.4467 15.72 56.4499 15.7232 56.4563 15.7264C56.4979 15.7168 56.5363 15.7072 56.5779 15.7008C56.6099 15.6976 56.6291 15.7456 56.6003 15.7616C55.8868 16.2064 55.7204 16.8463 55.6724 17.5375C55.9956 16.4624 56.9715 15.5792 58.0018 15.2209C58.0178 15.2145 58.0306 15.2177 58.0402 15.2273C58.0562 15.2145 58.0722 15.2017 58.0882 15.1889C58.1234 15.1633 58.1618 15.2081 58.1394 15.2433C57.2915 16.488 56.9395 17.6751 56.9971 19.1918C57.0451 20.4365 57.2435 21.678 57.6722 22.8523C58.5298 25.2041 60.1297 27.4312 62.3375 28.6887C63.3838 29.2838 64.5133 29.719 65.694 29.9654C66.9644 30.231 68.2795 30.6021 69.585 30.6021C70.5833 30.6021 71.5592 30.4165 72.3784 29.9046C72.8583 29.5366 73.2615 29.1238 73.3703 28.4359C73.5239 27.46 73.1271 26.516 72.4455 25.8249C72.4167 25.7961 72.4455 25.7385 72.4839 25.7609C72.6727 25.8697 72.8487 25.9913 73.0087 26.1321C73.0439 26.1129 73.0823 26.1065 73.1239 26.1289C73.4023 26.2857 73.6807 26.4712 73.9174 26.692C74.0326 26.4872 74.1158 26.2825 74.087 26.0009C74.0486 25.6489 73.9398 25.3129 73.7766 24.9993C73.5719 24.609 73.3127 24.1994 72.9767 23.8954C72.9511 23.8922 72.9255 23.8826 72.8967 23.8794C72.8647 23.8762 72.8679 23.8314 72.8935 23.825C72.6727 23.6426 72.4199 23.5019 72.1256 23.4411C72.0936 23.4347 72.0936 23.3803 72.1288 23.3803C72.5575 23.3931 72.9767 23.5723 73.3383 23.8378C73.5559 23.8666 73.7638 23.9242 73.9558 24.0106C73.5495 22.3787 71.4568 21.71 70.7273 20.2477C69.9785 18.7502 70.5737 17.2399 71.6328 16.072C71.652 16.0528 71.6712 16.0496 71.6904 16.056C72.1288 15.6816 72.6919 15.5024 73.3799 15.656C73.3991 15.6592 73.4055 15.672 73.4087 15.6848C73.4727 15.6976 73.5399 15.7136 73.6103 15.7328C73.6487 15.7456 73.6519 15.8064 73.6071 15.8064C70.9417 15.8992 71.7 19.451 72.9959 20.7085C72.7111 20.1517 72.5543 19.5501 72.6631 18.8942C72.6695 18.8526 72.7399 18.8526 72.7399 18.8974C72.7655 20.3021 73.8982 21.2812 74.7942 22.2316C75.6261 23.1115 76.2693 23.9466 76.5764 25.1305C76.9604 26.6056 77.002 27.9463 76.89 29.4534C76.8612 29.8374 76.746 30.6341 77.0244 30.9637C77.6708 31.7348 78.9315 29.2838 79.0467 29.0311C79.9842 26.948 80.7457 24.5546 80.7969 22.3531V22.3499Z" fill="#AC5C1A"/>
</g>
<g style="mix-blend-mode:multiply" opacity="0.4">
<path d="M73.9685 31.7924C73.5397 31.9396 73.0821 31.9396 72.6118 31.8852C72.0518 32.0548 71.4566 32.1348 70.8903 32.1508C70.7847 32.154 70.6759 32.154 70.5703 32.1572C71.1079 32.0804 71.6422 31.9716 72.151 31.8596C72.7654 31.7221 73.3829 31.4949 73.9045 31.1397C73.9493 31.1205 73.9941 31.0981 74.0389 31.0757C74.0645 31.0629 74.0773 31.1013 74.0581 31.1173C73.7445 31.3893 73.3829 31.5941 72.9957 31.7509C73.4789 31.6869 73.9493 31.5973 74.3364 31.2517C74.7524 30.8805 75.0212 30.3526 75.114 29.8022C75.2004 29.2774 75.2068 28.7079 75.0116 28.2023C74.8164 27.6936 74.4548 27.348 74.0581 26.9928C74.0197 26.9576 74.0677 26.9032 74.1093 26.932C74.5348 27.2232 75.0244 27.588 75.2612 28.0711C75.3764 27.2104 75.306 26.3081 74.9636 25.5049C74.5668 24.577 73.9045 24.0074 72.8965 23.873C72.8645 23.8666 72.8645 23.8186 72.8997 23.8154C73.6325 23.7674 74.2788 24.065 74.7364 24.5738C74.6052 24.1514 74.4836 23.7514 74.1828 23.3739C73.7669 22.8523 73.2357 22.4683 72.7046 22.0748C71.815 21.4188 70.8455 20.6029 70.6375 19.4542C70.3431 17.8159 71.2903 15.1793 73.3797 15.6528C73.4309 15.6656 73.4181 15.736 73.3669 15.7296C71.0823 15.5601 70.2023 18.7854 71.3639 20.3917C72.0518 21.3452 73.0821 21.8444 73.9173 22.6347C74.6052 23.2843 74.9636 23.953 74.9796 24.8842C75.066 25.0153 75.146 25.1561 75.21 25.3033C75.6195 26.2409 75.8115 27.492 75.4052 28.4679C75.5363 28.9927 75.5203 29.5814 75.3764 30.0934C75.2164 30.6501 74.9284 31.2421 74.4292 31.5749C74.362 31.6197 74.2916 31.6613 74.2244 31.6965C74.2244 31.6965 74.2244 31.6965 74.2276 31.6965C74.1445 31.7317 74.0613 31.7668 73.9749 31.7956L73.9685 31.7924Z" fill="#AC5C1A"/>
</g>
<g style="mix-blend-mode:multiply" opacity="0.4">
<path d="M8.90132 39.4655C11.6211 44.0027 15.64 46.8665 20.958 48.06C28.935 49.8487 39.7342 42.0605 41.2189 34.5762C40.7934 38.256 38.9343 41.6157 35.6417 44.6619C35.9265 44.0475 35.7409 44.0667 35.0914 44.7259C34.1155 45.7114 31.9236 47.6249 29.479 48.7448C27.0344 49.8615 24.401 50.1847 24.1642 51.167C24.0362 50.5975 22.9323 50.0919 20.846 49.6567C17.7167 49.0008 14.5201 47.6121 13.349 46.5178C12.1779 45.4202 12.9842 46.5817 13.3522 46.8857C11.6275 45.5898 10.434 44.1243 9.77166 42.4956C9.10931 40.867 8.81813 39.8558 8.90132 39.4687V39.4655Z" fill="#AC5C1A"/>
</g>
<path d="M39.4624 54.162C37.8369 54.3732 36.189 54.3892 34.5571 54.5876C33.0756 54.7699 31.5973 54.9427 30.1254 55.1859C27.1465 55.6787 24.2987 56.5746 21.4829 57.6465C21.4157 57.6721 21.3581 57.5665 21.4221 57.5281C24.0747 56.053 27.1017 55.2083 30.0806 54.6996C33.13 54.1812 36.3714 53.714 39.4624 54.0756C39.5103 54.082 39.5039 54.1524 39.4592 54.1588L39.4624 54.162Z" fill="#FFD4A9"/>
<path d="M43.3916 37.984C43.3564 37.9456 43.2956 37.9872 43.3244 38.032C44.3771 39.6735 45.3403 41.3469 46.1722 43.1132C46.9497 44.7643 47.7113 46.361 48.1241 48.1464C48.1337 48.1848 48.1912 48.1688 48.188 48.1336C47.8105 44.5307 45.8266 40.627 43.3916 37.984Z" fill="#FFD4A9"/>
<path d="M62.2094 33.3027C58.9904 36.0097 56.2322 39.6926 55.6755 43.9643C55.6659 44.0283 55.5635 44.0251 55.5635 43.9611C55.6243 41.8045 56.3826 39.7022 57.5569 37.9008C58.728 36.1025 60.2447 34.2722 62.1358 33.2035C62.203 33.1651 62.2702 33.2547 62.2062 33.3059L62.2094 33.3027Z" fill="#FFD4A9"/>
<path d="M39.5169 22.0108C39.3793 22.9099 39.1521 23.7866 38.9249 24.6634C38.9089 24.6986 38.8929 24.7338 38.8801 24.769C38.2466 27.4024 36.3843 29.7734 34.4964 31.6197C33.4629 32.6308 32.3366 33.5395 31.1111 34.3107C29.7896 35.1394 28.3689 36.0097 26.8554 36.4353C26.8362 36.4417 26.817 36.4417 26.7978 36.4385C26.369 37.4688 25.5467 38.4192 24.5548 38.9023C24.19 39.1327 23.7932 39.3023 23.3517 39.3535C22.4845 39.4495 21.5982 39.4655 20.7343 39.3343C19.9215 39.2095 19.1216 38.9887 18.44 38.5119C18.1616 38.3168 17.8961 38.0928 17.6433 37.8592C17.2913 37.68 16.8881 37.5712 16.5298 37.44C15.9954 37.248 15.4706 37.0369 14.9587 36.7937C13.9252 36.3041 12.93 35.7282 11.9605 35.1234C10.1014 33.9619 8.29037 32.6948 6.71289 31.1621C5.2058 29.6966 3.71471 28.0263 2.73878 26.1513C2.27162 25.2553 1.72766 24.1962 1.76285 23.1563C1.76925 22.9963 1.78845 22.8363 1.81405 22.6827C1.79485 22.6731 1.78205 22.6539 1.79165 22.6251C1.82365 22.5323 1.85565 22.4395 1.89084 22.3435C1.96764 22.0652 2.07323 21.7932 2.19802 21.5276C2.4476 20.9165 2.74518 20.3277 3.14515 19.8029C3.46513 19.3838 3.8011 18.9454 4.18507 18.5838C4.55945 18.2318 5.01701 17.9407 5.27299 17.4831C5.51298 17.0607 5.71776 16.616 5.91295 16.1648C5.90655 16.1584 5.90015 16.1552 5.89375 16.1488C4.19147 13.7394 3.67631 10.5204 3.8363 7.62464C3.92269 6.07595 4.20427 4.50167 4.76103 3.04898C4.89542 2.7002 5.06501 1.99945 5.43938 1.80427C5.59617 1.72108 5.73696 1.72427 5.86815 1.76267C6.4857 1.75947 7.09366 2.07945 7.61202 2.37702C8.40876 2.83139 9.2151 3.24736 9.96065 3.78173C10.7606 4.35448 11.5125 4.99443 12.2101 5.68878C12.9076 6.37993 13.4772 7.17347 14.1043 7.92542C14.6611 7.64384 15.2563 7.42625 15.8258 7.25666C16.8593 6.94629 17.9281 6.7319 19.0032 6.62951C20.6191 6.47592 22.3725 6.45352 23.9596 6.91749C24.4172 5.96076 25.1275 5.10003 25.8283 4.31608C26.5642 3.49695 27.3994 2.7674 28.3113 2.14665C29.1848 1.54829 30.1 0.98513 31.0823 0.58516C31.9366 0.236386 32.8486 -0.0739907 33.7765 0.0156027C33.9141 -0.00359588 34.0517 -0.00679779 34.1925 0.0283996C34.5316 0.114793 34.634 0.649155 34.7428 0.914735C34.9956 1.53229 35.1012 2.22664 35.1972 2.88579C35.306 3.63134 35.4244 4.38328 35.4916 5.13522C35.6227 6.64551 35.594 8.17819 35.4052 9.68208C35.2132 11.2116 34.7812 12.6611 34.442 14.1586C34.4292 14.213 34.4004 14.2481 34.362 14.2705C34.4004 14.3217 34.442 14.3729 34.4804 14.4241C35.8563 16.1072 37.9778 17.0319 39.1201 18.9358C39.3857 19.3806 39.6449 19.8573 39.6672 20.3853C39.6928 20.9356 39.5937 21.47 39.5105 22.014L39.5169 22.0108Z" fill="#F4A54E"/>
<path d="M39.5169 22.0108C39.3793 22.9099 39.1521 23.7866 38.9249 24.6634C38.9089 24.6986 38.8929 24.7338 38.8801 24.769C38.2466 27.4024 36.3843 29.7734 34.4964 31.6197C33.4629 32.6308 32.3366 33.5395 31.1111 34.3107C29.7896 35.1394 28.3689 36.0097 26.8554 36.4353C26.8362 36.4417 26.817 36.4417 26.7978 36.4385C26.369 37.4688 25.5467 38.4192 24.5548 38.9023C24.19 39.1327 23.7932 39.3023 23.3517 39.3535C22.4845 39.4495 21.5982 39.4655 20.7343 39.3343C19.9215 39.2095 19.1216 38.9887 18.44 38.5119C18.1616 38.3168 17.8961 38.0928 17.6433 37.8592C17.2913 37.68 16.8881 37.5712 16.5298 37.44C15.9954 37.248 15.4706 37.0369 14.9587 36.7937C13.9252 36.3041 12.93 35.7282 11.9605 35.1234C10.1014 33.9619 8.29037 32.6948 6.71289 31.1621C5.2058 29.6966 3.71471 28.0263 2.73878 26.1513C2.27162 25.2553 1.72766 24.1962 1.76285 23.1563C1.76925 22.9963 1.78845 22.8363 1.81405 22.6827C1.79485 22.6731 1.78205 22.6539 1.79165 22.6251C1.82365 22.5323 1.85565 22.4395 1.89084 22.3435C1.96764 22.0652 2.07323 21.7932 2.19802 21.5276C2.4476 20.9165 2.74518 20.3277 3.14515 19.8029C3.46513 19.3838 3.8011 18.9454 4.18507 18.5838C4.55945 18.2318 5.01701 17.9407 5.27299 17.4831C5.51298 17.0607 5.71776 16.616 5.91295 16.1648C5.90655 16.1584 5.90015 16.1552 5.89375 16.1488C4.19147 13.7394 3.67631 10.5204 3.8363 7.62464C3.92269 6.07595 4.20427 4.50167 4.76103 3.04898C4.89542 2.7002 5.06501 1.99945 5.43938 1.80427C5.59617 1.72108 5.73696 1.72427 5.86815 1.76267C6.4857 1.75947 7.09366 2.07945 7.61202 2.37702C8.40876 2.83139 9.2151 3.24736 9.96065 3.78173C10.7606 4.35448 11.5125 4.99443 12.2101 5.68878C12.9076 6.37993 13.4772 7.17347 14.1043 7.92542C14.6611 7.64384 15.2563 7.42625 15.8258 7.25666C16.8593 6.94629 17.9281 6.7319 19.0032 6.62951C20.6191 6.47592 22.3725 6.45352 23.9596 6.91749C24.4172 5.96076 25.1275 5.10003 25.8283 4.31608C26.5642 3.49695 27.3994 2.7674 28.3113 2.14665C29.1848 1.54829 30.1 0.98513 31.0823 0.58516C31.9366 0.236386 32.8486 -0.0739907 33.7765 0.0156027C33.9141 -0.00359588 34.0517 -0.00679779 34.1925 0.0283996C34.5316 0.114793 34.634 0.649155 34.7428 0.914735C34.9956 1.53229 35.1012 2.22664 35.1972 2.88579C35.306 3.63134 35.4244 4.38328 35.4916 5.13522C35.6227 6.64551 35.594 8.17819 35.4052 9.68208C35.2132 11.2116 34.7812 12.6611 34.442 14.1586C34.4292 14.213 34.4004 14.2481 34.362 14.2705C34.4004 14.3217 34.442 14.3729 34.4804 14.4241C35.8563 16.1072 37.9778 17.0319 39.1201 18.9358C39.3857 19.3806 39.6449 19.8573 39.6672 20.3853C39.6928 20.9356 39.5937 21.47 39.5105 22.014L39.5169 22.0108Z" fill="#F4A54E"/>
<g style="mix-blend-mode:multiply">
<path d="M27.3737 33.0723C27.2265 33.6131 26.9385 34.1378 26.5321 34.5282C26.1034 34.941 25.5914 35.2449 25.1466 35.6385C24.3243 36.3649 23.5724 37.2896 22.414 37.4368C21.1405 37.5968 19.9086 37.1264 18.8143 36.5153C17.736 35.9105 16.6321 35.3729 15.6306 34.6402C15.6242 34.6402 15.6242 34.6402 15.6178 34.6402C15.5314 34.6338 15.5442 34.4994 15.6242 34.493C17.6176 34.3202 18.7215 32.394 20.5998 31.994C21.6621 31.7668 22.686 32.074 23.694 32.3844C24.2187 32.5475 24.7499 32.7203 25.297 32.7971C25.921 32.8835 26.5481 32.8579 27.1785 32.8323C27.2585 32.8291 27.3097 32.8803 27.3257 32.9411C27.3673 32.9667 27.3897 33.0115 27.3737 33.0723Z" fill="#68151A"/>
</g>
<g style="mix-blend-mode:multiply" opacity="0.4">
<path fill-rule="evenodd" clip-rule="evenodd" d="M27.3737 33.0723C27.2265 33.6131 26.9385 34.1378 26.5321 34.5282C26.1034 34.941 25.5914 35.2449 25.1466 35.6385C24.3243 36.3649 23.5724 37.2896 22.414 37.4368C21.1405 37.5968 19.9086 37.1264 18.8143 36.5153C17.736 35.9105 16.6321 35.3729 15.6306 34.6402C15.6242 34.6402 15.6242 34.6402 15.6178 34.6402C15.5314 34.6338 15.5442 34.4994 15.6242 34.493C17.6176 34.3202 18.7215 32.394 20.5998 31.994C21.6621 31.7668 22.686 32.074 23.694 32.3844C24.2187 32.5475 24.7499 32.7203 25.297 32.7971C25.921 32.8835 26.5481 32.8579 27.1785 32.8323C27.2585 32.8291 27.3097 32.8803 27.3257 32.9411C27.3673 32.9667 27.3897 33.0115 27.3737 33.0723ZM27.0377 33.1363C25.9434 33.1939 24.9515 33.0915 23.8955 32.7587C22.7884 32.4132 21.5245 31.93 20.3662 32.3556C18.7855 32.9411 17.6112 34.6146 15.8417 34.6402C16.8113 35.1842 17.8256 35.6353 18.8015 36.1601C19.8254 36.7136 21.0222 37.2864 22.2253 37.1328C23.374 36.9856 24.0395 36.1825 24.8587 35.4593C25.3162 35.0562 25.857 34.7522 26.2858 34.3202C26.6377 33.9682 26.8329 33.5619 27.0409 33.1299L27.0377 33.1363Z" fill="#AC5C1A"/>
</g>
<path d="M38.88 24.7722C38.2465 27.4056 36.3842 29.7766 34.4964 31.6228C33.4628 32.634 32.3365 33.5427 31.111 34.3138C29.7895 35.1426 28.3688 36.0129 26.8553 36.4385C26.8361 36.4449 26.8169 36.4449 26.7977 36.4417C26.369 37.472 25.5466 38.4223 24.5547 38.9055C24.1899 39.1359 23.7932 39.3055 23.3516 39.3567C22.4844 39.4527 21.5981 39.4687 20.7342 39.3375C19.9214 39.2127 19.1215 38.9919 18.4399 38.5151C18.1616 38.3199 17.896 38.096 17.6432 37.8624C17.2912 37.6832 16.8881 37.5744 16.5297 37.4432C15.9953 37.2512 15.4706 37.04 14.9586 36.7969C13.9251 36.3073 12.93 35.7313 11.9604 35.1266C10.1014 33.9651 8.2903 32.698 6.71282 31.1653C5.20573 29.6998 3.71464 28.0295 2.73871 26.1544C2.33874 25.3865 1.88118 24.5002 1.78198 23.6074C2.47633 19.7549 7.57355 18.9806 11.0389 18.8142C11.1029 18.811 11.1797 18.7406 11.1381 18.683C8.97185 15.7232 13.9283 12.4211 15.8641 13.7458C17.1632 14.6353 15.6498 17.9567 15.1666 19.1406C15.1442 19.195 15.189 19.2494 15.237 19.2654C15.7042 19.4253 16.2833 19.6653 16.1585 20.2573C16.0785 20.6349 15.8033 20.9868 15.6114 21.3132C15.125 22.1259 15.1186 22.8203 15.3042 23.7386C15.4642 24.5354 15.6562 25.8057 16.4625 26.2248C16.7601 26.3784 17.1152 26.3944 17.4832 26.3592C17.4992 26.3816 17.5248 26.3976 17.5632 26.3944C17.9312 26.3656 18.2832 26.2792 18.6351 26.1832C18.7087 26.1736 18.7823 26.1672 18.8527 26.164C18.9007 26.1608 18.9295 26.1352 18.9423 26.1001C19.1951 26.0297 19.4479 25.9593 19.7039 25.9049C20.5966 25.7161 21.5501 25.9081 22.4237 26.116C22.9868 26.2504 23.5724 26.4904 24.1451 26.276C24.5291 26.132 24.7339 27.156 24.8747 26.8008C25.0795 26.2856 25.1914 24.3146 25.3706 23.7898C25.569 23.2107 25.7546 22.6283 25.825 22.0204C25.8826 21.5628 25.8282 21.1276 25.4762 20.8108C25.2778 20.6317 25.0123 20.5261 24.9163 20.2509C24.7563 19.8029 25.3514 19.4221 25.6362 19.195C25.697 19.1502 25.6714 19.0798 25.6202 19.0478C25.6202 19.035 25.6202 19.019 25.6138 19.003C25.1691 17.5599 22.974 13.0674 26.3434 13.2402C27.3449 13.2914 28.4104 13.9761 29.1016 14.6641C30.1863 15.7488 30.2951 16.9167 30.0135 18.0366C29.9911 18.1294 30.0871 18.1902 30.1639 18.1518C31.3926 17.5247 32.8581 17.7071 34.1604 17.9631C34.7523 18.0814 35.3379 18.235 35.9203 18.395C36.5922 18.5774 37.277 18.7278 37.9105 19.0318C39.3632 19.7293 39.5968 21.0956 39.4368 22.5195C39.2992 23.2427 39.1168 23.9498 38.9344 24.6602C38.9184 24.6954 38.9024 24.7305 38.8896 24.7657L38.88 24.7722Z" fill="#FAF9E8"/>
<path d="M29.5206 32.298C28.9703 32.9764 28.3079 33.5779 27.556 34.0227C27.2936 34.1763 27.0184 34.3331 26.7336 34.4803C26.4808 34.5794 26.2217 34.6914 25.9561 34.781C25.5593 34.9538 25.1337 35.0338 24.6858 34.9474C23.8922 34.7938 23.0603 34.653 22.3243 34.2979C21.8156 34.0515 21.2108 33.6483 21.0028 33.082C20.9868 33.13 20.9676 33.1779 20.9452 33.2259C20.6637 33.8211 20.1997 34.3715 19.6493 34.7394C18.635 35.4178 17.3903 35.5426 16.2224 35.2418C14.8817 34.8994 13.605 34.1699 12.6195 33.1939C12.1235 32.7012 11.6531 32.1348 11.41 31.4693C11.2756 31.0949 11.1988 30.7109 11.1508 30.3206C10.9524 29.479 10.9044 28.6087 11.0644 27.7255C11.3364 26.2409 11.9923 24.8298 12.7795 23.5531C13.4226 22.5067 14.2001 21.5724 15.0449 20.6829C15.2785 20.4365 15.5184 20.1901 15.7648 19.9469C15.9568 20.2573 15.9184 20.5709 15.8192 20.9356C15.7552 21.1724 15.5408 21.3036 15.4481 21.5212C15.2913 21.8956 15.5344 22.2859 15.688 22.6251C15.9728 23.2427 16.0144 23.9338 16.1296 24.5994C16.2704 25.4121 16.4208 26.2249 16.6384 27.0184C16.648 27.06 16.6608 27.1144 16.6768 27.1752C16.5488 27.1592 16.4944 27.3544 16.6256 27.3704C16.6608 27.3768 16.696 27.3768 16.7344 27.38C16.8176 27.6744 16.9519 28.0135 17.1791 28.0423C17.3071 28.0583 17.3615 27.8631 17.2335 27.8471C17.1119 27.8311 17.0095 27.6424 16.9263 27.4024C18.1391 27.5176 19.3486 27.348 20.5613 27.2712C21.9276 27.1848 23.3131 27.252 24.6826 27.252C24.7274 27.252 24.769 27.22 24.7818 27.1784C24.9833 26.2665 25.0057 25.3353 25.0665 24.4074C25.1017 23.8794 25.1369 23.3355 25.3001 22.8267C25.4057 22.4971 25.4281 22.2092 25.3577 21.87C25.2969 21.5788 25.0377 21.374 24.929 21.1052C24.7786 20.7341 25.0441 20.3597 25.2585 20.0813C25.3513 19.9629 25.4441 19.8509 25.5369 19.7325C25.7769 19.9501 26.0105 20.1709 26.2409 20.3981C27.0376 21.1884 27.8439 21.998 28.5319 22.8875C29.2358 23.7962 29.8502 24.7882 30.2598 25.8633C30.5637 26.6568 30.7525 27.4632 30.8005 28.2599C30.8869 29.6838 30.5157 31.0725 29.5206 32.298Z" fill="#FAF9E8"/>
<path d="M32.7107 1.99625C33.8434 1.3851 33.9042 4.23289 33.8146 7.32706C33.7218 10.4212 33.0499 13.1186 32.2243 11.6819C31.3988 10.2452 29.0374 8.73816 28.4518 8.43098C27.8695 8.1238 27.991 7.90302 28.1158 7.39106C28.8198 4.45047 31.578 2.61061 32.7107 1.99625Z" fill="#F9A793"/>
<path d="M5.34964 9.77807C4.94967 7.50944 5.22805 4.44727 6.51436 4.69045C7.80066 4.93683 9.51894 7.69503 10.0085 8.52057C10.4981 9.3461 10.2997 9.79087 9.93171 10.1588C8.6582 11.4323 7.61828 12.965 6.80554 14.7569C6.10159 12.949 5.61522 11.2884 5.34964 9.77807Z" fill="#F9A793"/>
<g style="mix-blend-mode:multiply" opacity="0.4">
<path d="M32.8547 1.99629C31.7156 2.75464 30.6981 3.55457 29.8406 4.63289C29.4278 5.15446 29.0502 5.70482 28.7366 6.29357C28.4039 6.91753 28.2503 7.54468 28.0455 8.21663C28.0295 8.27102 27.9399 8.28063 27.9367 8.21343C27.9143 6.79914 28.775 5.53523 29.6582 4.48891C30.5125 3.47458 31.61 2.49545 32.8323 1.96429C32.8547 1.95469 32.8707 1.98669 32.8515 1.99949L32.8547 1.99629Z" fill="#AC5C1A"/>
</g>
<g style="mix-blend-mode:multiply" opacity="0.4">
<path d="M35.9427 15.8608C35.9459 15.8704 35.066 15.2081 35.0692 15.2177C34.6436 14.8273 34.4101 14.8273 34.0517 14.3537C33.4021 13.4898 32.8614 12.5523 32.2214 11.6819C31.6167 10.8628 30.8967 10.1428 30.0904 9.52209C30.068 9.50289 30.0968 9.47089 30.1192 9.48689C31.0087 10.1044 31.8566 10.7924 32.519 11.6563C33.0886 12.4051 33.5749 13.2146 34.1317 13.9698C34.4325 12.6899 34.8292 11.4451 35.0244 10.1428C35.082 9.76527 35.13 9.3845 35.1684 9.00373C35.4852 7.71103 35.5172 6.37033 35.4756 5.02643C35.4788 5.06163 35.4852 5.10002 35.4852 5.13522C35.6164 6.64551 35.5876 8.17819 35.3988 9.68208C35.2068 11.2116 34.7748 12.6611 34.4357 14.1585C34.4229 14.2129 34.3941 14.2481 34.3557 14.2705C34.3941 14.3217 34.4357 14.3729 34.4741 14.4241C34.6116 14.5937 34.7588 14.7537 34.9124 14.9105C34.9828 15.1761 35.866 15.7072 35.9331 15.864L35.9427 15.8608Z" fill="#AC5C1A"/>
</g>
<g style="mix-blend-mode:multiply" opacity="0.4">
<path d="M5.88711 16.1552C4.90479 14.7633 4.31923 13.1026 4.03125 11.3907C4.27123 12.2291 4.61361 13.0386 5.02638 13.7874C5.29836 14.4945 5.63753 15.1761 6.0631 15.8128C6.24549 15.3937 6.42147 14.9713 6.62306 14.5617C7.05183 13.6722 7.69178 12.901 8.23894 12.0851C8.26134 12.0531 8.30933 12.0883 8.29653 12.1203C7.82937 13.1026 7.20221 13.9954 6.74465 14.9873C6.72225 15.0385 6.69985 15.0897 6.67745 15.1409C6.46947 15.448 6.27108 15.7616 6.0727 16.0752C5.97351 16.2352 5.86151 16.3824 5.74632 16.5296C5.80072 16.4112 5.85511 16.2896 5.90951 16.1712C5.90311 16.1648 5.89671 16.1616 5.89031 16.1552H5.88711Z" fill="#AC5C1A"/>
</g>
<g style="mix-blend-mode:multiply" opacity="0.4">
<path d="M39.1359 23.8346C39.0687 24.113 38.9983 24.3882 38.9247 24.6633C38.9087 24.6985 38.8927 24.7337 38.8799 24.7689C38.2463 27.4023 36.3841 29.7734 34.4962 31.6196C33.4627 32.6307 32.3364 33.5395 31.1109 34.3106C29.7894 35.1394 28.3687 36.0097 26.8552 36.4353C26.836 36.4417 26.8168 36.4417 26.7976 36.4385C26.3688 37.4688 25.5465 38.4191 24.5546 38.9023C24.1898 39.1327 23.793 39.3023 23.3514 39.3534C22.4843 39.4494 21.598 39.4654 20.734 39.3342C19.9213 39.2095 19.1214 38.9887 18.4398 38.5119C18.1614 38.3167 17.8959 38.0927 17.6431 37.8592C17.2911 37.68 16.8879 37.5712 16.5296 37.44C15.9952 37.248 15.4704 37.0368 14.9585 36.7936C13.9249 36.3041 12.9298 35.7281 11.9603 35.1234C10.1012 33.9618 8.29016 32.6947 6.71268 31.1621C5.20559 29.6966 3.7145 28.0263 2.73857 26.1512C2.4378 25.5785 2.10822 24.9385 1.91943 24.2794C2.68098 26.2408 3.99288 27.7191 5.35598 29.2806C6.06313 30.0901 6.82147 30.8549 7.61501 31.5588C9.25649 33.0115 11.0964 34.253 12.9842 35.3569C13.9185 35.9041 14.8689 36.4257 15.8736 36.8352C16.2 36.9664 16.5967 37.0784 16.9743 37.2256C16.8079 37.0656 16.6383 36.9056 16.4688 36.7552C16.408 36.704 16.4848 36.6145 16.5456 36.6593C16.8943 36.9216 17.2143 37.2128 17.5471 37.4944C17.7359 37.6064 17.9023 37.7344 18.0398 37.8944C18.1486 37.9807 18.2606 38.0607 18.3758 38.1375C19.1086 38.6335 19.9181 38.9119 20.7948 39.0239C21.6268 39.1263 22.4971 39.1423 23.3291 39.0271C24.1034 38.9183 24.6794 38.4063 25.3289 38.0255C25.5049 37.856 25.6745 37.68 25.8281 37.488C26.1352 37.1072 26.3976 36.6912 26.6408 36.2689C26.6408 36.2209 26.6632 36.1793 26.708 36.1473C26.7624 36.0513 26.8168 35.9521 26.868 35.8561C26.9032 35.7921 27.0152 35.8177 26.996 35.8945C26.98 35.9489 26.964 36.0033 26.9448 36.0577C28.3527 35.5841 29.6774 34.8354 30.9253 34.0386C32.1188 33.2771 33.2387 32.4068 34.2466 31.4116C35.9489 29.7286 37.344 27.7447 38.3839 25.6009C38.6623 25.0249 38.9183 24.4362 39.1455 23.8378L39.1359 23.8346Z" fill="#AC5C1A"/>
</g>
<g style="mix-blend-mode:multiply" opacity="0.4">
<path d="M9.85497 10.3412C9.4742 10.722 9.20862 11.202 8.80865 11.5635C8.76705 11.6019 8.71585 11.5347 8.74465 11.4931C8.99743 11.138 9.21822 10.7636 9.4742 10.4084C9.78457 9.97325 10.1877 9.60208 9.94136 9.02292C9.58619 8.19418 9.01983 7.38145 8.45987 6.6743C8.0567 6.16874 7.61513 5.65998 7.12877 5.23121C6.95598 5.08082 6.764 4.90163 6.55601 4.78324C6.45362 4.97522 6.29363 5.13201 6.20404 5.33679C6.07925 5.61517 5.98965 5.90635 5.91926 6.20713C5.80087 6.71589 5.76567 7.19586 5.77207 7.72062C5.77207 7.74622 5.73367 7.75902 5.72407 7.73022C5.55129 7.19266 5.58008 6.46631 5.71128 5.92235C5.80727 5.54158 5.95766 4.94323 6.30323 4.67445C5.97046 4.58165 5.77847 4.78324 5.62488 5.10002C5.60888 5.13201 5.55129 5.11602 5.56089 5.08082C5.96086 3.33055 8.0567 5.69517 8.51107 6.24233C8.92704 6.74149 9.30461 7.26945 9.64378 7.82301C9.89656 8.23258 10.2517 8.70295 10.3285 9.18931C10.4053 9.68208 10.1941 9.99885 9.85497 10.338V10.3412Z" fill="#AC5C1A"/>
</g>
<g style="mix-blend-mode:multiply" opacity="0.5">
<path d="M29.5206 32.298C28.9703 32.9764 28.3079 33.5779 27.556 34.0227C27.2936 34.1763 27.0184 34.3331 26.7336 34.4803C26.4808 34.5794 26.2217 34.6914 25.9561 34.781C25.5593 34.9538 25.1337 35.0338 24.6858 34.9474C23.8922 34.7938 23.0603 34.653 22.3243 34.2979C21.8156 34.0515 21.2108 33.6483 21.0028 33.082C20.9868 33.13 20.9676 33.1779 20.9452 33.2259C20.6637 33.8211 20.1997 34.3715 19.6493 34.7394C18.635 35.4178 17.3903 35.5426 16.2224 35.2418C14.8817 34.8994 13.605 34.1699 12.6195 33.1939C12.1235 32.7012 11.6531 32.1348 11.41 31.4693C11.2756 31.0949 11.1988 30.7109 11.1508 30.3206C10.9524 29.479 10.9044 28.6087 11.0644 27.7255C11.3364 26.2409 11.9923 24.8298 12.7795 23.5531C12.8306 23.4699 12.8818 23.3899 12.9362 23.3067C11.6339 25.3257 10.7188 28.8967 11.5763 31.1685C11.6019 31.2389 11.6307 31.3093 11.6595 31.3765C11.9475 32.0132 12.4019 32.5828 12.9202 33.05C13.813 33.8499 14.8689 34.5314 16.04 34.8482C17.0895 35.133 18.2894 35.1874 19.2494 34.5922C19.7805 34.2659 20.3021 33.7859 20.5741 33.2131C20.7853 32.7684 20.8717 32.3076 20.8845 31.834C20.8845 31.7125 20.8845 31.5877 20.8845 31.4629C20.8813 31.3541 20.878 31.2453 20.8685 31.1333C20.8685 31.1109 20.8781 31.0917 20.894 31.0757C20.91 30.6277 20.9452 30.183 20.9964 29.7414C21.0028 29.703 21.0636 29.7062 21.0636 29.7446C21.0988 30.6053 21.214 31.4725 21.2012 32.33C21.1948 32.8132 21.2332 33.1875 21.6364 33.5139C21.918 33.7411 22.2315 33.9139 22.5675 34.0483C23.2299 34.3107 23.9242 34.4515 24.6218 34.5858C25.5081 34.7554 26.2121 34.2979 26.9768 33.9363C26.9864 33.9331 26.996 33.9299 27.0056 33.9299C27.8695 33.4531 28.6535 32.8356 29.2518 32.0804C30.5477 30.4454 30.8069 28.6023 30.1798 26.6344C29.8566 25.6233 29.4566 24.5322 28.9799 23.5915C28.9223 23.4827 28.8071 23.3067 28.7015 23.1211C29.3286 23.9658 29.8758 24.8746 30.2502 25.8601C30.5541 26.6536 30.7429 27.46 30.7909 28.2567C30.8773 29.6806 30.5061 31.0693 29.511 32.2948L29.5206 32.298Z" fill="#AF743C"/>
</g>
<g style="mix-blend-mode:screen" opacity="0.4">
<path d="M21.0827 19.4638C27.0407 19.579 25.252 24.5322 20.7212 24.961C19.1661 25.1082 16.7535 23.5083 16.5679 21.902C16.3759 20.2541 18.3821 19.4094 21.0827 19.4638Z" fill="#F4A54E"/>
</g>
<g style="mix-blend-mode:multiply" opacity="0.4">
<path d="M39.5169 22.0107C39.3793 22.9099 39.1521 23.7866 38.9249 24.6633C38.9089 24.6985 38.8929 24.7337 38.8801 24.7689C38.2466 27.4023 36.3843 29.7734 34.4964 31.6196C33.4629 32.6308 32.3366 33.5395 31.1111 34.3106C29.7896 35.1394 28.3689 36.0097 26.8554 36.4353C26.8362 36.4417 26.817 36.4417 26.7978 36.4385C26.369 37.4688 25.5467 38.4191 24.5548 38.9023C24.19 39.1327 23.7932 39.3023 23.3517 39.3535C22.4845 39.4494 21.5982 39.4654 20.7343 39.3343C19.9215 39.2095 19.1216 38.9887 18.44 38.5119C18.1616 38.3167 17.8961 38.0928 17.6433 37.8592C17.2913 37.68 16.8881 37.5712 16.5298 37.44C15.9954 37.248 15.4706 37.0368 14.9587 36.7936C13.9252 36.3041 12.93 35.7281 11.9605 35.1234C10.1014 33.9619 8.29037 32.6948 6.71289 31.1621C5.2058 29.6966 3.71471 28.0263 2.73878 26.1512C2.27162 25.2553 1.72766 24.1962 1.76285 23.1563C1.76925 22.9963 1.78845 22.8363 1.81405 22.6827C1.79485 22.6731 1.78205 22.6539 1.79165 22.6251C1.82365 22.5323 1.85565 22.4395 1.89084 22.3435C1.96764 22.0651 2.07323 21.7932 2.19802 21.5276C2.4476 20.9164 2.74518 20.3277 3.14515 19.8029C3.46513 19.3837 3.8011 18.9454 4.18507 18.5838C4.55945 18.2318 5.01701 17.9406 5.27299 17.4831C5.51298 17.0607 5.71776 16.6159 5.91295 16.1648C5.90655 16.1584 5.90015 16.1552 5.89375 16.1488C4.19147 13.7394 3.67631 10.5204 3.8363 7.62461C3.92269 6.07592 4.20427 4.50164 4.76103 3.04894C4.76423 3.04574 4.76423 3.03935 4.76743 3.03615C4.65224 3.6633 4.65864 4.33205 4.68744 4.9176C4.69064 4.9976 4.80263 5.0648 4.86342 4.9912C5.2122 4.57203 5.38179 3.87768 5.92575 3.6697C6.61369 3.40732 7.39124 4.39924 7.78801 4.82801C8.97192 6.10152 10.0054 7.49662 11.1542 8.80532C11.1862 8.84052 11.2406 8.84372 11.279 8.82132C11.6021 8.64533 11.9477 8.53974 12.2965 8.44694C9.93185 10.3156 7.9064 12.7218 6.69689 15.496C6.4761 15.8832 6.27772 16.28 6.11133 16.6799C5.84895 17.3071 6.00894 17.7775 6.37051 18.2702C4.57545 18.219 3.14835 19.9021 2.77078 21.5436C2.25242 23.8186 4.47305 25.4345 6.11773 26.5576C7.25685 27.3383 8.46636 28.0807 9.72067 28.6599C10.879 29.191 12.2805 30.0645 13.57 30.0741C14.5843 30.0837 14.8915 28.727 15.1987 28.0103C15.733 26.772 17.1025 26.0296 18.344 25.7129C20.3567 25.2009 22.6157 25.1721 24.494 26.1448C24.9387 26.3752 25.3515 26.6792 25.7067 27.0344C26.1227 27.4471 26.3402 28.0423 26.6282 28.5415C27.5401 30.1285 29.4696 29.303 30.8199 28.663C32.0966 28.0615 33.3157 27.4087 34.442 26.548C36.3107 25.1209 38.2914 23.0027 38.8481 20.6412C39.1841 19.2174 37.773 17.7647 36.7651 16.9903C35.8851 16.312 34.6116 15.5632 33.4117 15.6048C33.5685 15.3488 33.6421 15.0353 33.5909 14.6609C33.4405 13.5698 32.6918 12.6034 31.9974 11.7875C31.1687 10.8148 30.1704 9.97643 29.1784 9.17649C28.3657 8.52374 27.457 7.89658 26.4586 7.55741C26.673 7.55741 26.8874 7.55101 27.1018 7.53181C27.4058 7.50301 27.5241 7.25983 27.6553 7.01665C28.3273 5.76234 29.1432 4.56243 30.1352 3.53531C30.8039 2.84096 31.591 2.18501 32.487 1.80743C32.8774 1.64425 33.5301 1.34667 33.6965 1.74344C34.0101 2.49538 34.0805 2.72257 34.2468 3.49051C34.6148 5.18959 35.0756 3.80409 35.0756 3.6729C35.0756 3.18973 34.8484 0.850708 34.3556 0.105164C34.5732 0.28755 34.6564 0.687519 34.746 0.908302C34.9988 1.52586 35.1044 2.22021 35.2004 2.87936C35.3092 3.6249 35.4276 4.37685 35.4948 5.12879C35.6259 6.63908 35.5972 8.17177 35.4084 9.67566C35.2164 11.2051 34.7844 12.6546 34.4452 14.1521C34.4324 14.2065 34.4036 14.2417 34.3652 14.2641C34.4036 14.3153 34.4452 14.3665 34.4836 14.4177C35.8595 16.1008 37.981 17.0255 39.1233 18.9294C39.3889 19.3741 39.6481 19.8509 39.6704 20.3789C39.696 20.9292 39.5969 21.4636 39.5137 22.0075L39.5169 22.0107Z" fill="#AC5C1A"/>
</g>
<g style="mix-blend-mode:multiply" opacity="0.4">
<path d="M38.9184 24.6826C38.9056 24.7114 38.8928 24.7434 38.8801 24.7722C38.2465 27.4056 36.3842 29.7766 34.4964 31.6229C33.4629 32.634 32.3365 33.5427 31.111 34.3139C29.7895 35.1426 28.3688 36.0129 26.8553 36.4385C26.8361 36.4449 26.8169 36.4449 26.7977 36.4417C26.369 37.472 25.5466 38.4224 24.5547 38.9055C24.1899 39.1359 23.7932 39.3055 23.3516 39.3567C22.4845 39.4527 21.5981 39.4687 20.7342 39.3375C19.9215 39.2127 19.1215 38.9919 18.44 38.5151C18.1616 38.32 17.896 38.096 17.6432 37.8624C17.2912 37.6832 16.8881 37.5744 16.5297 37.4432C15.9953 37.2512 15.4706 37.0401 14.9586 36.7969C13.9251 36.3073 12.93 35.7314 11.9604 35.1266C10.1014 33.9651 8.29031 32.698 6.71283 31.1653C5.20574 29.6998 3.71465 28.0295 2.73872 26.1545C2.46034 25.6201 2.15637 25.0281 1.96118 24.417C2.76752 26.1001 4.23301 27.5336 5.49372 28.7975C6.50165 29.8054 7.47757 30.8357 8.57509 31.7444C9.09665 32.1732 9.64701 32.5636 10.223 32.9124C10.5813 33.1267 11.1701 33.5267 11.6341 33.6003C11.7525 33.6355 11.8772 33.6579 12.0052 33.6579C12.0852 33.6579 12.13 33.5715 12.0948 33.5043C11.4773 32.3524 10.5621 30.6821 11.0997 29.3446C11.7461 31.6389 13.5955 33.2931 15.8994 33.8915C17.1377 34.2147 18.488 34.2627 19.6047 33.5651C20.0846 33.2643 20.4398 32.874 20.5934 32.3236C20.6606 32.0836 20.7662 31.6325 20.491 31.5397C20.5166 31.4853 20.5038 31.4149 20.4302 31.4021C18.9839 31.1653 17.544 31.0053 16.3441 30.055C15.6658 29.5142 15.3586 28.7431 15.5954 27.8919C15.765 27.284 16.2001 26.7752 16.7185 26.3817C17.2305 26.0745 17.8 25.8569 18.3408 25.7161C20.3534 25.2041 22.6125 25.1753 24.4907 26.1481C24.8235 26.3209 25.1403 26.5352 25.425 26.7784C25.9466 27.3608 26.2666 28.1255 26.1226 28.8679C25.9178 29.927 24.8075 30.5061 23.8892 30.8325C23.4604 30.9861 23.0156 31.0949 22.5741 31.2005C22.3533 31.2517 21.9053 31.2613 21.7677 31.4821C21.5533 31.8276 21.6141 32.3876 21.6269 32.7684C21.6397 33.1299 21.9629 33.3475 22.2957 33.5523C22.9548 33.9619 23.8092 34.1123 24.5515 34.0419C25.5594 33.9491 26.5258 33.5459 27.3833 33.0244C28.9704 32.0644 30.3367 30.4837 30.8134 28.6663C30.8262 28.6631 30.8358 28.6567 30.8454 28.6503C31.1142 30.167 30.3751 31.6037 29.7415 32.9508C29.7095 33.018 29.7479 33.1043 29.8311 33.1043C30.3879 33.1075 30.903 32.8164 31.3734 32.5476C32.023 32.1732 32.6757 31.7701 33.2869 31.3381C34.5764 30.4165 35.6643 29.1238 36.6786 27.9111C37.5266 26.8968 38.2785 25.8185 38.9184 24.6826Z" fill="#AC5C1A"/>
</g>
<g style="mix-blend-mode:multiply" opacity="0.4">
<path d="M33.7988 3.70817C33.8116 3.79136 33.8212 3.87136 33.834 3.95455C33.8564 5.21206 33.8884 6.46317 33.8468 7.71427C33.8244 7.46149 33.802 7.21191 33.7732 6.96233C33.7188 6.47276 33.7188 5.89361 33.5333 5.42964C33.1333 4.44732 32.1734 6.20718 32.0326 6.49196C31.7446 7.07432 31.367 7.64708 31.2454 8.29343C31.143 8.84699 31.4566 9.41975 31.7254 9.87731C32.3237 10.8884 33.1717 11.9604 33.4053 13.1507C32.9445 12.2099 32.1862 11.3684 31.4662 10.6677C30.9734 10.1909 30.4487 9.73013 29.8983 9.32056C29.556 9.06457 29.1976 8.83419 28.8232 8.623C28.5288 8.45982 28.1897 8.38302 27.9241 8.16864C27.9369 8.08225 27.9497 7.99265 27.9657 7.90626C28.0201 7.57989 28.1577 7.25031 28.2792 6.94313C28.5416 6.25838 28.9448 5.62803 29.3768 5.03607C30.1543 3.96735 31.1526 3.09702 32.2182 2.32587C32.4357 2.16908 32.6661 2.03149 32.9189 1.9387C33.3221 1.79471 33.4949 2.09229 33.6005 2.42507C33.7316 2.83783 33.7348 3.2826 33.7988 3.70817Z" fill="#AC5C1A"/>
</g>
<g style="mix-blend-mode:multiply" opacity="0.4">
<path d="M8.41811 12.0179C7.72057 12.9746 7.2214 14.0562 6.62305 15.0769C6.60705 15.0801 6.58785 15.0865 6.57185 15.0993C6.49506 15.1665 6.43426 15.2401 6.38307 15.3169C6.52705 14.2546 6.74464 13.2402 7.2374 12.2515C7.42619 11.8707 7.41979 11.538 7.2662 11.1476C7.01662 10.5172 6.80863 9.88688 6.60385 9.23733C6.46626 8.80216 6.04389 8.13341 5.78791 8.93975C5.64392 9.38772 5.59912 9.84848 5.62152 10.306C5.49033 9.85808 5.35914 9.40691 5.22795 8.95895C5.09356 7.82943 5.02637 6.73191 5.24395 5.5928C5.28875 5.34321 5.37514 5.10963 5.49993 4.88885C5.68232 4.57527 5.9703 4.51128 6.26467 4.55608C7.2694 4.93045 7.94775 5.81998 8.5973 6.63272C9.19246 7.37826 9.9508 8.07581 10.2004 9.02614C10.3796 9.71089 9.86121 10.1973 9.45804 10.6708C9.09006 11.1028 8.75089 11.5604 8.41491 12.0179H8.41811Z" fill="#AC5C1A"/>
</g>
<path d="M26.0267 11.8163C25.5339 11.9411 25.0731 12.1171 24.5868 12.2771C24.2476 12.3859 23.8636 12.4595 23.582 12.3123C23.0637 12.0403 23.0157 11.3204 23.5532 10.7764C24.6444 9.6853 25.5595 10.93 25.9691 11.7043C25.9755 11.7139 25.9723 11.7203 25.9691 11.7267C25.9947 11.7363 26.0203 11.7459 26.0459 11.7619C26.0651 11.7715 26.0523 11.8131 26.0299 11.8195L26.0267 11.8163Z" fill="#FAF9E8"/>
<g style="mix-blend-mode:multiply" opacity="0.1">
<path d="M12.1045 19.2398C11.8453 19.035 11.6757 18.4111 12.0533 17.0224C12.4308 15.6337 13.9347 13.8706 14.8755 14.6897C15.5026 15.2369 15.4066 16.8368 14.5875 19.4894C14.9682 19.7934 15.2178 20.1005 15.3394 20.4109C14.8819 20.1165 13.9507 19.8126 13.5795 19.7678C12.4052 19.627 11.3717 19.771 10.4822 20.2029C10.9557 19.7454 11.4965 19.4254 12.1045 19.243V19.2398Z" fill="#AC5C1A"/>
</g>
<g style="mix-blend-mode:multiply" opacity="0.3">
<path d="M12.6229 19.3262C12.3637 19.1214 12.2325 18.7246 12.6069 17.3327C12.9812 15.944 14.7219 14.7633 14.9139 15.9984C15.0899 17.1343 14.8979 18.315 14.3315 19.5406C14.7091 19.8413 15.0451 20.1325 15.3363 20.4077C14.8787 20.1133 13.9476 19.8093 13.5764 19.7645C12.4021 19.6237 11.4293 19.7741 10.6582 20.2125C11.1318 19.7549 11.7877 19.4606 12.6165 19.3262H12.6229Z" fill="#AC5C1A"/>
</g>
<g style="mix-blend-mode:multiply">
<path d="M10.943 20.0782C11.5765 19.9502 12.1781 19.7614 12.8308 19.7454C13.5572 19.7262 14.1555 19.9342 14.8371 20.155C14.8947 20.171 14.9235 20.0878 14.8851 20.0558C13.8452 19.1438 12.0309 19.3358 10.9334 20.0558C10.9238 20.0622 10.927 20.0846 10.943 20.0814V20.0782Z" fill="#AF743C"/>
</g>
<path d="M16.9971 12.7219C16.1716 12.7027 15.586 11.8643 14.7349 11.8931C14.6485 11.8963 14.6005 11.8099 14.6389 11.7171C14.7253 11.5027 14.8533 11.362 15.0036 11.2468C15.7524 10.2836 17.4291 9.70768 17.7394 11.1988C17.8578 11.7619 17.7042 12.741 16.9971 12.725V12.7219Z" fill="#FAF9E8"/>
<g style="mix-blend-mode:multiply">
<path d="M14.3765 16.2001C14.9269 16.1233 14.8277 16.8752 14.7253 17.7135C14.5109 19.4222 14.1013 19.739 13.759 19.755C12.991 19.7902 12.7574 19.3422 12.8406 18.5039C12.9238 17.6623 13.6406 16.3056 14.3765 16.2001Z" fill="#491C00"/>
</g>
<path d="M14.1879 17.1504C13.9607 17.4992 13.6695 17.7135 13.5319 17.6272C13.3943 17.5376 13.4679 17.1856 13.6919 16.8336C13.9159 16.4816 14.2102 16.2705 14.3478 16.3568C14.4854 16.4464 14.4118 16.7984 14.1879 17.1504Z" fill="white"/>
<g style="mix-blend-mode:multiply" opacity="0.1">
<path d="M30.4903 19.1694C29.5592 18.8366 28.5161 18.8046 27.3642 19.0702C27.0026 19.1534 26.1066 19.5566 25.6843 19.899C25.7707 19.5758 25.9883 19.243 26.3306 18.9006C25.2299 16.3504 24.9643 14.7697 25.5275 14.1586C26.3754 13.2435 28.0617 14.8337 28.5833 16.1776C29.1048 17.5215 29.0056 18.1583 28.7688 18.3887C29.3928 18.5071 29.9656 18.7662 30.4871 19.1694H30.4903Z" fill="#AC5C1A"/>
</g>
<g style="mix-blend-mode:multiply" opacity="0.3">
<path d="M30.3114 19.2014C29.4986 18.8462 28.5131 18.8046 27.3644 19.0702C27.0028 19.1534 26.1069 19.5565 25.6845 19.8989C25.8093 19.6365 26.0429 19.3357 26.3884 18.9934C25.6493 18.139 25.3965 16.9647 25.6333 15.4704C25.8285 14.2385 27.5468 15.2081 28.0715 16.552C28.5931 17.8959 28.5067 18.3022 28.2699 18.5358C29.1114 18.5806 29.793 18.8046 30.3146 19.2078L30.3114 19.2014Z" fill="#AC5C1A"/>
</g>
<g style="mix-blend-mode:multiply">
<path d="M29.9273 18.9614C28.7402 18.4047 26.9131 18.4782 26.0172 19.5278C25.982 19.5662 26.0236 19.6462 26.078 19.6206C26.7211 19.3038 27.2811 19.0126 28.0042 18.9294C28.6506 18.8526 29.2777 18.9518 29.9209 18.987C29.9337 18.9902 29.9369 18.9678 29.9273 18.9614Z" fill="#AF743C"/>
</g>
<g style="mix-blend-mode:multiply">
<path d="M27.8091 17.8959C27.8091 18.7439 27.534 19.163 26.7724 19.0542C26.4332 19.003 26.0589 18.6479 26.0141 16.9264C25.9949 16.0817 25.9693 15.3201 26.51 15.4545C27.23 15.6305 27.8091 17.0544 27.8091 17.8991V17.8959Z" fill="#491C00"/>
</g>
<path d="M26.3659 15.6337C26.5323 15.6241 26.6443 15.8225 26.6411 16.2257C26.6347 16.6256 26.6123 17.0256 26.4459 17.0352C26.2795 17.0448 26.1515 16.728 26.1579 16.328C26.1643 15.9281 26.2027 15.6465 26.3691 15.6337H26.3659Z" fill="white"/>
<path d="M23.6844 30.1446C21.8829 31.0789 19.3167 30.9349 17.544 30.023C16.8849 29.6838 16.0081 29.2391 15.6882 28.5191C15.301 27.6488 15.8993 26.9544 16.6097 26.4937C18.2672 25.4185 20.2478 25.0186 22.2093 25.3481C23.4156 25.5497 25.473 26.0361 25.6394 27.5496C25.7706 28.7239 24.6187 29.6646 23.6844 30.1446Z" fill="#6A5D53"/>
<g style="mix-blend-mode:multiply" opacity="0.5">
<path fill-rule="evenodd" clip-rule="evenodd" d="M23.7996 30.2342C21.9981 31.1685 19.4319 31.0245 17.6593 30.1126C17.0001 29.7734 16.1234 29.3255 15.8034 28.6087C15.4162 27.7384 16.0146 27.044 16.7249 26.5833C18.3824 25.5081 20.3631 25.1082 22.3245 25.4377C23.5308 25.6393 25.5883 26.1257 25.7547 27.6392C25.8858 28.8135 24.7339 29.751 23.7996 30.2342ZM24.6859 27.14C24.7659 26.7048 23.3484 26.2025 22.9997 26.1353C21.4478 25.8345 19.8927 25.7737 18.5008 26.1929C18.2128 26.2793 16.1522 27.2168 17.0257 27.7C17.3297 27.8664 17.7169 27.7832 17.9984 27.6936C18.456 27.5496 18.8656 27.3352 19.3327 27.2008C20.3887 26.9032 21.5374 26.8968 22.6797 27.044C23.0349 27.0888 24.2796 27.5688 24.6091 27.2776C24.6475 27.2424 24.6731 27.1976 24.6859 27.14Z" fill="#393335"/>
</g>
<g style="mix-blend-mode:multiply" opacity="0.5">
<path d="M25.7612 27.8536C25.7388 28.9287 24.6733 29.783 23.7965 30.2342C21.9951 31.1685 19.4289 31.0245 17.6562 30.1126C16.997 29.7734 16.1203 29.3255 15.8003 28.6087C15.7075 28.4071 15.6755 28.212 15.6819 28.0264C15.9187 28.3399 16.2579 28.5671 16.7251 28.6535C17.813 28.8583 18.9489 28.5479 20.0336 28.4455C20.872 28.3655 21.7071 28.3527 22.539 28.4871C23.1022 28.5767 23.6238 28.7015 24.1997 28.6503C24.8397 28.5927 25.358 28.2887 25.7612 27.8536Z" fill="#393335"/>
</g>
<g style="mix-blend-mode:multiply">
<path fill-rule="evenodd" clip-rule="evenodd" d="M23.6844 30.1446C21.8829 31.0789 19.3167 30.9349 17.544 30.023C16.8849 29.6838 16.0081 29.2391 15.6882 28.5191C15.301 27.6488 15.8993 26.9544 16.6097 26.4937C18.2672 25.4185 20.2478 25.0186 22.2093 25.3481C23.4156 25.5497 25.473 26.0361 25.6394 27.5496C25.7706 28.7239 24.6187 29.6646 23.6844 30.1446ZM23.3324 29.959C24.1515 29.5558 25.441 28.7143 25.329 27.6392C25.1723 26.1065 22.9004 25.7321 21.7037 25.5625C20.5262 25.3961 19.4063 25.5881 18.296 25.9049C17.8352 26.0841 17.4096 26.3273 16.9969 26.5928C16.2833 27.0504 15.4162 27.8216 16.1521 28.6631C16.6257 29.2071 17.2912 29.5526 17.9312 29.8662C18.3376 30.0678 18.7759 30.2246 19.2271 30.3334C20.587 30.6661 22.0845 30.5734 23.3356 29.9558L23.3324 29.959Z" fill="#393335"/>
</g>
<path d="M23.0349 27.1528C22.827 27.1464 21.9566 27.0888 20.7439 27.1528C19.56 27.2136 18.5841 27.3288 18.1745 27.3224C17.9665 27.3192 17.6561 26.9928 18.7665 26.6792C20.2223 26.2633 20.9775 26.1417 23.1501 26.6856C23.3741 26.7432 23.8541 27.1784 23.0349 27.156V27.1528Z" fill="white"/>
<path d="M22.3276 34.2947C23.022 34.6338 23.8059 34.7746 24.5611 34.9218C24.5899 35.5746 24.6954 36.2209 24.9066 36.8609C25.1626 37.6352 25.473 38.4224 25.5146 39.2479C25.5722 40.4254 24.977 41.4302 24.0299 41.9613C22.4492 42.9564 20.123 42.774 18.9327 41.2222C18.0271 40.0382 18.4175 38.7871 18.6927 37.4624C18.8559 36.6753 18.8495 35.9266 18.7183 35.1906C19.0447 35.085 19.3582 34.9346 19.6526 34.7394C20.203 34.3715 20.6637 33.8179 20.9485 33.226C20.9709 33.178 20.9869 33.13 21.0061 33.082C21.2141 33.6483 21.8189 34.0515 22.3276 34.2979V34.2947Z" fill="#FFAEBC"/>
<g style="mix-blend-mode:multiply" opacity="0.4">
<g style="mix-blend-mode:multiply" opacity="0.4">
<path fill-rule="evenodd" clip-rule="evenodd" d="M24.0299 41.9613C22.4492 42.9564 20.123 42.774 18.9327 41.2222C18.0271 40.0382 18.4175 38.7871 18.6927 37.4624C18.8559 36.6753 18.8495 35.9266 18.7183 35.1906C19.0447 35.085 19.3582 34.9346 19.6526 34.7394C20.203 34.3715 20.6637 33.8179 20.9485 33.226C20.9709 33.178 20.9869 33.13 21.0061 33.082C21.2141 33.6483 21.8189 34.0515 22.3276 34.2979C23.022 34.6371 23.8059 34.7778 24.5611 34.925C24.5899 35.5778 24.6954 36.2241 24.9066 36.8641C25.1626 37.6384 25.473 38.4256 25.5146 39.2511C25.5722 40.4286 24.977 41.4333 24.0299 41.9645V41.9613ZM24.2347 37.4144C23.9851 36.9089 24.0811 36.3105 23.7835 35.837C23.5947 35.5394 23.1564 35.469 22.8364 35.453C22.4684 35.4338 22.11 35.5362 21.8573 35.8082C20.9549 36.7873 21.4669 39.9583 21.9245 41.0622C20.9133 39.9903 20.9581 37.76 20.9005 36.1793C20.8845 35.7634 20.7917 35.1906 20.251 35.3122C19.339 35.5202 19.4414 35.9778 19.1055 37.1393C18.7695 38.304 18.8271 39.7343 18.9647 40.2494C19.1887 41.091 19.8478 41.6893 20.6573 41.9549C22.2156 42.4733 24.4811 41.7789 24.833 40.0191C25.0186 39.0975 24.6283 38.2144 24.2347 37.4112V37.4144Z" fill="#991E0A"/>
</g>
</g>
<g style="mix-blend-mode:multiply" opacity="0.4">
<g style="mix-blend-mode:multiply" opacity="0.4">
<path d="M18.7183 35.1906C19.0446 35.085 19.3582 34.9346 19.6526 34.7394C20.203 34.3715 20.6637 33.8179 20.9485 33.226C20.9709 33.178 20.9869 33.13 21.0061 33.082C21.2141 33.6483 21.8188 34.0515 22.3276 34.2979C23.0219 34.6371 23.8059 34.7778 24.561 34.925C24.5802 35.3794 24.641 35.8274 24.7434 36.2753C24.6442 36.0545 24.5706 35.8306 24.4138 35.6386C24.0939 35.245 23.3419 35.3474 22.9004 35.2546C22.2668 35.1234 21.4637 34.8546 21.2493 34.1763C21.2301 34.1155 21.1405 34.0803 21.0957 34.1347C20.5581 34.7842 19.7326 35.0978 19.2046 35.7506C18.9582 36.0577 18.8687 36.4449 18.8207 36.8417C18.8175 36.8449 18.8143 36.8449 18.8143 36.8481C18.8047 36.8705 18.7919 36.8897 18.7791 36.9121C18.8463 36.3233 18.8175 35.7506 18.7183 35.1906Z" fill="#991E0A"/>
</g>
</g>
<g opacity="0.4">
<g style="mix-blend-mode:multiply" opacity="0.7">
<path d="M18.7888 41.0174C18.0721 39.8943 18.4336 38.7136 18.6928 37.4625C18.856 36.6753 18.8496 35.9266 18.7184 35.1907C18.8112 35.1587 18.904 35.1267 18.9968 35.0883C19.0672 35.4338 19.096 35.7858 19.0704 36.141C19.0096 36.9665 18.7152 37.8208 18.6128 38.672C18.4176 39.4623 18.4464 40.2623 18.7888 41.0174Z" fill="#991E0A"/>
</g>
<g style="mix-blend-mode:multiply" opacity="0.7">
<path d="M24.03 41.9613C23.6716 42.1885 23.2717 42.3485 22.8589 42.4509C23.2461 42.3005 23.614 42.1053 23.9436 41.8589C24.6348 41.3438 25.1531 40.6974 25.2075 39.8303C25.2363 39.5743 25.2299 39.3183 25.1979 39.0591C25.1691 38.6496 25.0891 38.2464 24.9259 37.8816C24.7243 37.2577 24.4812 36.6465 24.3852 35.997C24.3308 35.6258 24.3148 35.2482 24.3308 34.8738C24.4076 34.8898 24.4844 34.9026 24.558 34.9186C24.5868 35.5714 24.6924 36.2177 24.9035 36.8577C25.1595 37.632 25.4699 38.4192 25.5115 39.2447C25.5691 40.4222 24.9739 41.427 24.0268 41.9581L24.03 41.9613Z" fill="#991E0A"/>
</g>
<g style="mix-blend-mode:multiply" opacity="0.7">
<path d="M21.1757 33.5747C21.1789 33.5235 21.1821 33.4659 21.1853 33.4083C21.2653 33.5235 21.3613 33.6291 21.4669 33.7251C21.4637 33.7539 21.4605 33.7827 21.4541 33.8083C21.3581 34.5346 21.3069 35.261 21.3005 35.9937C21.2877 37.3504 21.3005 38.7615 21.5661 40.099C21.5725 40.131 21.5181 40.1438 21.5085 40.1118C21.1341 38.7007 21.0221 37.1296 21.0381 35.6738C21.0445 34.9666 21.1213 34.2755 21.1757 33.5715V33.5747Z" fill="#991E0A"/>
</g>
</g>
<path d="M23.9341 40.6303C23.2781 40.7774 22.7118 41.0942 22.0206 41.1742C21.3231 41.2574 20.5359 41.171 20.008 40.659C19.9472 40.6015 19.8416 40.6782 19.8736 40.755C20.4783 42.2237 23.4669 42.2429 23.9981 40.7006C24.0141 40.6558 23.9789 40.6207 23.9341 40.6303Z" fill="#FFF3F6"/>
<path d="M24.097 40.4062C23.9242 40.1022 24.4106 39.3567 24.609 39.5871C24.6122 39.5903 24.6154 39.5935 24.6154 39.5967C24.833 39.875 24.273 40.7198 24.097 40.4062Z" fill="#FFF3F6"/>
<path d="M5.07449 2.63938C5.49366 1.21228 7.41032 2.54338 8.32225 3.15454C10.3573 4.51764 12.034 5.78795 13.5315 7.7462C13.1699 7.7142 12.8499 7.53822 12.5011 7.24064C12.002 6.81507 11.5348 6.3479 11.0548 5.90313C10.0789 4.9944 9.26938 4.26166 8.07587 3.34013C7.47751 2.88256 6.332 2.01542 5.50006 2.3002C5.33367 2.3578 5.20888 2.48899 5.07129 2.63618L5.07449 2.63938Z" fill="#FFD4A9"/>
<path d="M33.5715 0.217175C32.81 0.633144 30.9989 1.3019 30.2758 1.79466C29.6262 2.23303 28.9895 2.697 28.3751 3.18656C26.98 4.30328 25.9017 5.58318 24.9002 7.04547C24.8778 7.08067 24.8106 7.05187 24.8234 7.01028C25.2969 5.3752 26.5449 3.9929 27.8408 2.94018C29.1559 1.87466 30.8453 0.815532 32.522 0.453959C32.586 0.44116 33.6259 0.181979 33.5683 0.213977L33.5715 0.217175Z" fill="#FFD4A9"/>
<path d="M12.6421 8.87572C14.2964 7.67901 16.533 6.99106 19.352 6.80547C23.5789 6.53029 25.5115 7.7238 26.1099 7.95419C21.483 6.66788 16.9938 6.97186 12.6421 8.87252V8.87572Z" fill="#FFD4A9"/>
</svg>
