<svg width="73" height="80" viewBox="0 0 73 80" fill="none" xmlns="http://www.w3.org/2000/svg">
<path d="M68.9659 68.0721C68.8379 69.028 68.0019 69.512 66.462 69.52C64.1502 69.528 58.3665 66.8281 53.7108 67.6121C52.4869 67.8201 51.299 68.128 50.2591 68.448C49.8151 68.516 49.3671 68.564 48.9191 68.468C48.2072 68.32 47.7792 67.6321 48.0912 66.9521C48.1792 66.7601 48.3192 66.5921 48.4872 66.4641C50.3591 66.0962 52.4869 65.8762 54.7868 65.9842C62.8902 66.3682 65.6461 70.2839 68.9659 68.0721Z" fill="#90ADD3"/>
<g style="mix-blend-mode:multiply">
<path d="M68.9659 68.072C68.9379 68.268 68.838 68.476 68.666 68.688C68.618 68.724 68.57 68.752 68.522 68.784C68.118 69.028 67.674 69.104 67.2061 69.14C66.2701 69.2079 65.3462 69.112 64.4342 68.884C62.7743 68.468 61.1704 67.8681 59.5226 67.4121C57.8947 66.9601 56.2108 66.7081 54.5189 66.6801C53.7229 66.6681 52.923 66.7481 52.235 67.1841C51.7391 67.4921 51.3031 67.876 50.8671 68.264C50.6591 68.324 50.4551 68.384 50.2552 68.444C49.8072 68.508 49.3632 68.56 48.9152 68.464C48.2033 68.316 47.7753 67.6281 48.0873 66.9481C48.1753 66.7561 48.3153 66.5881 48.4833 66.4601C50.3551 66.0922 52.483 65.8722 54.7829 65.9802C62.8863 66.3641 65.6422 70.2799 68.9619 68.068L68.9659 68.072Z" fill="#90ADD3"/>
</g>
<path d="M72.6738 67.78C72.3258 67.3281 71.9458 67.396 71.5378 67.976C70.9179 68.8479 70.3979 69.6879 69.55 69.5319C69.77 69.6719 69.9899 69.7279 70.2019 69.6999C69.414 70.2919 68.626 70.1599 67.8421 69.2999C67.4061 68.604 67.7821 67.0281 68.982 66.7601C68.898 66.8161 68.826 66.9721 68.77 67.22C70.2579 66.0401 71.5578 66.2281 72.6698 67.784L72.6738 67.78Z" fill="#314455"/>
<g style="mix-blend-mode:multiply" opacity="0.5">
<g style="mix-blend-mode:multiply" opacity="0.5">
<path d="M68.5342 67.992C68.4342 67.916 68.4622 67.704 68.6262 67.36C68.4022 67.588 67.9502 68.216 68.1382 68.9199C68.3182 69.5959 68.8262 69.8759 69.6581 69.7639C69.4541 69.6359 69.3341 69.4599 69.2981 69.2359C69.7821 69.4959 70.6101 69.1799 71.222 68.164C71.462 67.764 71.714 67.62 71.93 67.596C71.81 67.66 71.678 67.78 71.542 67.972C70.922 68.8439 70.4021 69.6839 69.5541 69.5279C69.7741 69.6679 69.9941 69.7239 70.2061 69.6959C69.4181 70.2878 68.6302 70.1559 67.8462 69.2959C67.4103 68.6 67.7862 67.0241 68.9862 66.7561C68.9022 66.8121 68.8302 66.9681 68.7742 67.216C69.9261 66.3041 71.018 66.2681 72.05 67.1041H72.046C70.818 66.3401 69.6501 66.6361 68.5302 67.992H68.5342Z" fill="#314455"/>
</g>
</g>
<g style="mix-blend-mode:screen" opacity="0.6">
<path d="M69.2261 68.964C69.946 69.1719 70.59 68.796 71.1499 67.84C71.034 68.456 70.194 69.5679 69.2261 68.964Z" fill="#314455"/>
</g>
<path d="M24.6689 63.9444C15.0095 64.7443 21.1131 71.0599 17.0654 74.5877C13.0217 78.1114 3.55828 75.6516 1.07444 73.2678C-1.4094 70.8879 8.49396 56.7368 16.4734 53.0611C21.7931 50.6092 27.1768 51.8932 32.6244 56.9128C32.8724 60.6206 30.0086 63.5044 24.6649 63.9444H24.6689Z" fill="#90ADD3"/>
<g style="mix-blend-mode:multiply" opacity="0.6">
<g style="mix-blend-mode:multiply" opacity="0.6">
<path d="M24.6689 63.9444C15.0095 64.7443 21.1131 71.0599 17.0654 74.5877C13.0217 78.1114 3.55828 75.6516 1.07444 73.2678C-1.4094 70.8879 8.49396 56.7368 16.4734 53.0611C21.7931 50.6092 27.1768 51.8932 32.6244 56.9128C32.8724 60.6206 30.0086 63.5044 24.6649 63.9444H24.6689Z" fill="#90ADD3"/>
</g>
</g>
<g style="mix-blend-mode:multiply" opacity="0.6">
<g style="mix-blend-mode:multiply" opacity="0.6">
<path d="M24.669 63.9443C15.0097 64.7443 21.1133 71.0598 17.0655 74.5876C13.0218 78.1114 3.55841 75.6516 1.07457 73.2677C0.538605 72.7557 0.578602 71.7038 1.04657 70.3239C1.18656 70.2839 1.31855 70.2159 1.42255 70.1319C1.73853 69.8759 1.97051 69.5199 2.35849 69.364C2.75846 69.204 3.24643 69.336 3.53441 69.636C3.99838 70.1239 3.97838 71.0039 3.97838 71.6318C3.97838 71.6838 4.03438 71.7318 4.08638 71.7118C4.83833 71.4678 5.49828 70.9599 6.23824 71.5638C6.7502 71.9838 6.59421 72.8597 6.58621 73.4397C6.58621 73.5117 6.67821 73.5557 6.73021 73.4997C7.22617 72.9477 7.79014 72.2238 8.62608 72.3718C9.37004 72.5038 9.65002 73.4237 9.69801 74.0717C9.70601 74.1637 9.83401 74.1876 9.862 74.0917C10.246 72.9037 10.434 71.6718 10.8699 70.4999C11.3259 69.264 11.9699 68.1041 12.7058 67.0121C13.4138 65.9562 14.2937 65.0202 15.1617 64.0923C15.9056 63.3043 16.7216 62.5644 17.3775 61.6965C18.4454 60.2805 18.5854 58.3807 18.0735 56.7168C17.8535 56.0008 17.4535 55.3369 16.8416 54.8849C16.2056 54.4169 15.4096 54.3969 14.6697 54.5809C13.7338 54.8089 12.8818 55.3409 12.0979 55.9008C13.5658 54.7049 15.0497 53.713 16.4776 53.053C21.7972 50.6012 27.1809 51.8851 32.6285 56.9048C32.8765 60.6125 30.0127 63.4964 24.669 63.9363V63.9443Z" fill="#90ADD3"/>
</g>
</g>
<g style="mix-blend-mode:multiply" opacity="0.6">
<g style="mix-blend-mode:multiply" opacity="0.6">
<path d="M9.58179 76.2755C6.01002 75.9476 2.45825 74.5956 1.07434 73.2677C0.730361 72.9397 0.626368 72.3878 0.718362 71.6718C1.03834 71.2919 1.44231 70.9679 1.79829 70.7839C2.38625 70.4839 2.94222 70.8039 3.2502 71.3438C3.53418 71.8438 3.51818 72.4878 3.51818 73.0437C3.51818 73.1157 3.61018 73.1597 3.66217 73.1037C3.89816 72.8518 4.11814 72.5838 4.39412 72.3718C4.85409 72.0198 5.35806 72.2638 5.71404 72.6358C6.22201 73.1677 6.12201 74.0557 6.06602 74.7236C6.05802 74.8116 6.18201 74.8356 6.22201 74.7676C6.45799 74.3757 6.74997 74.0117 7.18994 73.8397C7.66191 73.6557 8.09789 73.9557 8.40587 74.2837C8.93383 74.8396 9.21381 75.5956 9.58579 76.2715L9.58179 76.2755Z" fill="#90ADD3"/>
</g>
</g>
<g style="mix-blend-mode:multiply" opacity="0.6">
<g style="mix-blend-mode:multiply" opacity="0.6">
<path d="M24.669 63.9443C15.0096 64.7443 21.1132 71.0599 17.0655 74.5876C15.4256 76.0195 12.8898 76.4635 10.2939 76.3275C12.4178 75.8476 14.7297 75.2996 15.6976 73.2437C16.0776 72.4358 16.1696 71.4998 16.2736 70.6239C16.4016 69.508 16.5095 68.4001 16.8895 67.3361C17.5535 65.4722 18.9654 63.8323 20.6333 62.7924C20.6653 62.7724 20.6853 62.7324 20.6733 62.6964C20.2813 61.3805 19.7453 60.0926 19.4014 58.7647C19.0534 57.4087 19.1614 55.9969 19.2214 54.6129C19.2574 53.737 19.1374 52.893 18.2814 52.4651C18.2574 52.4531 18.2334 52.4451 18.2094 52.4331C23.1331 51.1012 27.9408 52.5931 32.6325 56.9088C32.8805 60.6166 30.0167 63.5004 24.673 63.9403L24.669 63.9443Z" fill="#90ADD3"/>
</g>
</g>
<path d="M2.23836 70.7999C3.02231 70.7759 3.54228 72.6158 3.1663 73.5597C2.79033 74.5077 0.28649 74.3077 0.0265067 73.3637C-0.233477 72.4198 1.48641 70.8199 2.23836 70.7999Z" fill="#EDE7CD"/>
<path d="M2.23836 70.7999C3.02231 70.7759 3.54228 72.6158 3.1663 73.5597C2.79033 74.5077 0.28649 74.3077 0.0265067 73.3637C-0.233477 72.4198 1.48641 70.8199 2.23836 70.7999Z" fill="#EDE7CD"/>
<g style="mix-blend-mode:multiply">
<path d="M3.17023 73.5597C2.90225 74.2357 1.55034 74.3277 0.702393 73.9797C0.970375 73.9917 1.23436 73.9477 1.46634 73.8317C2.1743 73.4677 2.63827 72.5318 2.70626 71.7678C2.76626 71.1279 2.31029 70.8879 1.81832 70.9239C1.97431 70.8479 2.1223 70.8039 2.23829 70.7999C3.02224 70.7759 3.54221 72.6158 3.16623 73.5597H3.17023Z" fill="#EDE7CD"/>
</g>
<path d="M4.50619 72.2078C5.28614 72.1838 5.8101 74.0197 5.43413 74.9676C5.05815 75.9116 2.55431 75.7156 2.29433 74.7716C2.03435 73.8277 3.75423 72.2278 4.50619 72.2078Z" fill="#EDE7CD"/>
<path d="M4.50619 72.2078C5.28614 72.1838 5.8101 74.0197 5.43413 74.9676C5.05815 75.9116 2.55431 75.7156 2.29433 74.7716C2.03435 73.8277 3.75423 72.2278 4.50619 72.2078Z" fill="#EDE7CD"/>
<g style="mix-blend-mode:multiply">
<path d="M5.43405 74.9676C5.05807 75.9116 2.55424 75.7156 2.29425 74.7716C2.25426 74.6236 2.26225 74.4597 2.30625 74.2917C2.31825 74.6356 2.49824 74.9596 2.86622 75.1436C3.48218 75.4476 4.48211 75.4756 4.93008 74.8876C5.33406 74.3597 5.24606 73.1717 4.83809 72.6718C4.6421 72.4318 4.37412 72.3238 4.09414 72.3238C4.24613 72.2518 4.38612 72.2118 4.50611 72.2078C5.28606 72.1838 5.81003 74.0197 5.43405 74.9676Z" fill="#EDE7CD"/>
</g>
<path d="M7.31411 73.8957C7.93007 73.8757 8.82601 75.5876 8.53003 76.3356C8.23405 77.0836 6.25818 76.9236 6.05019 76.1796C5.8422 75.4357 6.72215 73.9077 7.31411 73.8957Z" fill="#EDE7CD"/>
<g style="mix-blend-mode:multiply">
<path d="M8.52984 76.3356C8.33785 76.8236 7.42991 76.9236 6.76195 76.7316C7.47391 76.7676 8.13386 76.4476 7.96987 75.5476C7.87788 75.0277 7.6419 74.1397 6.94994 74.2317C6.84595 74.2437 6.74595 74.2877 6.65796 74.3477C6.87395 74.0837 7.10593 73.8997 7.30992 73.8957C7.92588 73.8757 8.82182 75.5876 8.52584 76.3356H8.52984Z" fill="#EDE7CD"/>
</g>
<path d="M26.7369 38.674C17.7815 36.5101 8.29008 24.1669 6.77417 19.9232C5.25827 15.6795 13.0618 12.0037 14.9216 12.3437C16.1616 12.5717 17.0615 13.5196 17.6295 15.1875C20.7053 22.0751 26.3369 28.8666 34.5284 35.5622C38.9641 38.646 35.6963 40.8419 26.7369 38.678V38.674Z" fill="#90ADD3"/>
<g style="mix-blend-mode:multiply" opacity="0.6">
<path fill-rule="evenodd" clip-rule="evenodd" d="M26.7369 38.674C17.7815 36.5101 8.29008 24.1669 6.77417 19.9232C5.25827 15.6795 13.0618 12.0037 14.9216 12.3437C16.1616 12.5717 17.0615 13.5196 17.6295 15.1875C20.7053 22.0751 26.3369 28.8666 34.5284 35.5622C38.9641 38.646 35.6963 40.8419 26.7369 38.678V38.674ZM22.5732 31.4865C22.0092 28.8866 20.9773 26.4708 19.6053 24.1989C16.4735 18.9913 13.9697 19.8792 13.2978 20.2432C12.5178 20.6672 11.7379 21.0591 10.9059 21.3551C10.4699 21.5111 10.03 21.6471 9.58999 21.7871C9.33401 21.8671 9.00203 21.8551 8.77404 21.9911C8.41007 22.2071 8.78604 22.859 8.90604 23.095C9.78998 24.8189 11.0419 26.3508 12.4378 27.7387C12.9058 28.2947 13.3857 28.8426 13.8817 29.3746C14.7377 30.2985 15.6216 31.2065 16.5655 32.0464C17.4935 32.8744 18.4934 33.6223 19.4654 34.3983C20.2213 35.0062 22.2532 36.6021 22.7971 34.9542C23.1491 33.8863 22.8091 32.5544 22.5772 31.4905L22.5732 31.4865Z" fill="#85A0C5"/>
</g>
<g style="mix-blend-mode:multiply" opacity="0.6">
<path d="M26.7369 38.674C25.9249 38.478 25.109 38.198 24.293 37.846C24.313 36.5621 24.745 35.3942 25.309 34.2583C25.7729 33.3263 26.4449 32.3704 26.5849 31.3145C26.7289 30.2105 26.1769 29.3506 25.521 28.5106C24.757 27.5267 23.8331 26.7028 22.9731 25.8068C21.3172 24.0869 19.6653 22.267 18.3854 20.2472C17.7535 19.2472 16.7095 17.3874 15.2656 17.7393C14.8416 17.8433 14.4617 18.1833 14.1417 18.4633C13.7377 18.8153 13.3737 19.2152 12.9818 19.5792C11.9778 20.4992 10.6459 20.9231 9.302 20.5832C7.63411 20.1592 6.95815 18.7233 6.97415 17.2234C8.42206 14.2436 13.4777 12.0717 14.9256 12.3357C16.1656 12.5637 17.0655 13.5116 17.6335 15.1795C20.7093 22.0671 26.3409 28.8586 34.5324 35.5542C38.9681 38.638 35.7003 40.8338 26.7409 38.67L26.7369 38.674Z" fill="#85A0C5"/>
</g>
<g style="mix-blend-mode:multiply">
<path d="M14.7216 12.3197C14.7656 12.3597 14.8136 12.4037 14.8576 12.4477C15.7815 13.4156 15.4616 14.7595 15.0416 15.8755C14.5496 17.1874 13.7617 18.3993 12.7177 19.3432C11.7658 20.1992 10.4579 20.9271 9.15397 20.9791C7.73007 21.0391 6.77013 19.8192 6.68213 18.4713C6.67013 18.3153 6.67413 18.1633 6.68213 18.0073C7.49408 14.7635 12.9097 12.2517 14.7216 12.3157V12.3197Z" fill="#90ADD3"/>
</g>
<path d="M47.9795 69.384C43.1718 71.5279 36.3802 69.34 31.5006 67.9761C24.741 66.0922 19.6453 62.2565 19.8533 55.1449C20.0253 49.2693 23.5171 44.3016 26.0689 39.2499C27.5528 36.3101 29.7927 30.7505 32.7965 22.571C40.596 19.3832 28.9047 19.1553 35.6003 14.5396C39.2201 15.0075 49.8954 30.3385 51.3993 34.1623C52.9032 37.986 52.0952 42.3377 54.1351 57.2688C54.919 63.0084 53.2432 67.0362 47.9795 69.384Z" fill="#86A1C6"/>
<g style="mix-blend-mode:multiply">
<g style="mix-blend-mode:multiply">
<path d="M47.9793 69.384C43.1716 71.5278 36.38 69.34 31.5003 67.9761C24.7408 66.0922 19.6451 62.2564 19.8531 55.1449C19.8651 54.7129 19.8971 54.2889 19.9451 53.865C19.9651 54.6249 20.0571 55.3849 20.213 56.1208C20.633 58.0967 21.7489 59.9886 23.6408 60.8445C25.3687 61.6245 27.2606 61.1965 28.7125 60.0686C30.3764 58.7687 31.4883 56.9168 33.2282 55.6929C35.1521 54.3409 37.5079 53.741 39.8438 53.989C41.4597 54.1609 43.3036 54.9369 44.8155 53.965C45.5634 53.485 45.9994 52.6411 46.2954 51.8331C46.6993 50.7372 46.8193 49.5453 46.8593 48.3853C46.9473 45.7735 46.5393 43.1537 45.9114 40.6218C44.7875 36.1101 42.5396 31.8544 39.5518 28.2986C37.7919 26.2028 35.0601 24.1709 32.2523 24.0389C32.4803 23.431 32.6602 22.939 32.7962 22.567C40.5957 19.3792 28.9045 19.1512 35.6001 14.5355C39.2198 15.0035 49.8951 30.3345 51.399 34.1583C52.9029 37.982 52.095 42.3337 54.1349 57.2647C54.9188 63.0044 53.2429 67.0321 47.9793 69.38V69.384Z" fill="#90ADD3"/>
</g>
</g>
<path d="M49.3754 27.3147C53.1152 30.8225 53.9831 39.5939 53.5552 43.0977C53.1272 46.5975 41.3159 46.8815 35.9083 43.5977C30.5006 40.3139 25.8369 45.1696 23.6371 43.6617C21.0653 41.8978 22.9691 36.8501 29.3527 28.5147C40.208 25.3749 46.8796 24.9749 49.3754 27.3147Z" fill="#90ADD3"/>
<g style="mix-blend-mode:multiply">
<g style="mix-blend-mode:multiply">
<path d="M53.5511 43.0937C53.1231 46.5935 41.3119 46.8775 35.9042 43.5937C30.4966 40.3099 25.8329 45.1656 23.633 43.6577C22.5491 42.9137 22.5251 41.3978 23.049 39.6019C23.077 40.0779 23.169 40.5539 23.357 40.9859C24.073 42.6058 26.0089 42.3898 27.4368 42.0538C29.8126 41.4978 32.2485 40.9058 34.7003 41.1898C36.0722 41.3458 37.4081 41.7578 38.712 42.2018C39.932 42.6177 41.1319 43.1697 42.3958 43.4537C43.5077 43.7017 44.7117 43.4857 45.6196 42.7737C46.3595 42.1938 46.9315 41.2858 46.7835 40.3139C46.6155 39.206 45.8476 38.174 45.3516 37.1901C44.7516 36.0022 44.3917 34.7622 44.6157 33.4303C44.6237 33.3823 44.5957 33.3183 44.5357 33.3223C43.6837 33.3983 42.8718 33.6903 42.0198 33.7903C41.1719 33.8903 40.3119 33.8943 39.456 33.8623C37.7641 33.8023 36.0642 33.6263 34.4003 33.3023C32.9524 33.0184 31.6725 32.4664 30.4166 31.7064C29.6926 31.2665 28.8287 30.7105 28.2807 29.9786C28.7047 29.3746 29.0607 28.8866 29.3446 28.5147C40.1999 25.3749 46.8715 24.9749 49.3674 27.3147C53.1071 30.8225 53.9751 39.5939 53.5471 43.0977L53.5511 43.0937Z" fill="#90ADD3"/>
</g>
</g>
<g style="mix-blend-mode:multiply">
<g style="mix-blend-mode:multiply">
<path d="M24.417 43.9256C24.317 43.9176 24.225 43.9017 24.125 43.8817C24.485 43.9816 24.889 43.9736 25.3369 43.8976C25.0369 43.9416 24.733 43.9536 24.417 43.9216V43.9256Z" fill="#90ADD3"/>
</g>
</g>
<g style="mix-blend-mode:multiply">
<g style="mix-blend-mode:multiply">
<path d="M53.5509 43.0937C53.1229 46.5935 41.3117 46.8774 35.904 43.5936C32.0203 41.2378 28.5205 43.0737 26.0447 43.7416C26.5526 43.5896 27.0406 43.3697 27.5326 43.1377C29.8924 42.0218 32.0563 41.3898 34.4641 42.4137C36.104 43.1097 39.0918 44.1016 41.4077 44.7576C43.2036 45.2656 45.7354 45.2456 47.6393 45.2136C49.6552 45.1776 51.919 42.4097 48.9392 40.9778C48.0313 40.5418 47.4233 39.3019 46.7593 38.546C46.0754 37.766 45.6154 36.8061 45.5674 35.7622C45.5074 34.5702 46.0674 33.6303 46.8553 32.7864C47.5073 32.0864 48.1553 31.4344 48.4792 30.5145C48.7872 29.6466 48.7432 28.6866 48.5592 27.7987C48.4752 27.3947 48.3512 26.9947 48.1912 26.6068C48.6592 26.7907 49.0592 27.0267 49.3712 27.3187C53.1109 30.8265 53.9789 39.5979 53.5509 43.1017V43.0937Z" fill="#90ADD3"/>
</g>
</g>
<path d="M70.138 24.7709C69.2781 26.2028 68.2582 27.4987 67.1622 28.7586C64.1504 32.2264 61.0466 35.2942 57.1509 37.766C55.907 38.554 54.607 39.4459 53.2351 40.1059C52.0032 40.3499 50.7553 40.3739 49.5434 40.0379C47.6435 39.5099 46.1196 37.846 45.5236 35.9942C45.1516 34.8382 45.3756 33.7463 46.2156 32.8744C46.5516 32.5224 46.9315 32.2184 47.2795 31.8864C52.3272 28.2827 56.5389 22.803 60.1187 17.7713C61.0266 16.1954 62.1346 15.4195 63.4345 15.4435C65.3863 15.4795 72.5379 20.7831 70.142 24.7709H70.138Z" fill="#90ADD3"/>
<g style="mix-blend-mode:multiply" opacity="0.6">
<path fill-rule="evenodd" clip-rule="evenodd" d="M70.138 24.7709C69.2781 26.2028 68.2582 27.4987 67.1622 28.7586C64.1504 32.2264 61.0466 35.2942 57.1509 37.766C55.907 38.554 54.607 39.4459 53.2351 40.1059C52.0032 40.3499 50.7553 40.3739 49.5434 40.0379C47.6435 39.5099 46.1196 37.846 45.5236 35.9942C45.1516 34.8382 45.3756 33.7463 46.2156 32.8744C46.5516 32.5224 46.9315 32.2184 47.2795 31.8864C52.3272 28.2827 56.5389 22.803 60.1187 17.7713C61.0266 16.1954 62.1346 15.4195 63.4345 15.4435C65.3863 15.4795 72.5379 20.7831 70.142 24.7709H70.138ZM58.5548 21.3791C58.0148 21.5031 57.6108 22.195 57.2949 22.595C56.7669 23.263 56.2509 23.9429 55.743 24.6269C55.059 25.5468 54.3991 26.4828 53.7471 27.4307C53.4671 27.7147 53.1871 27.9907 52.8991 28.2627C52.0792 29.0506 51.2273 29.8026 50.3753 30.5585C49.4234 31.4025 48.4954 32.3864 47.3995 33.0423C46.7035 33.4623 46.2276 33.8263 46.3156 34.7062C46.3756 35.3102 46.6995 35.8182 47.1875 36.1661C48.2554 36.9221 49.8713 36.8061 51.0713 36.4901C51.8872 36.2741 52.6552 35.8462 53.3791 35.4182C54.2631 34.8942 55.087 34.2663 55.847 33.5703C57.3629 32.1824 58.5868 30.4705 59.3867 28.5786C59.9947 27.1387 60.3027 25.5268 60.3347 23.9629C60.3547 22.923 60.0387 21.0311 58.5468 21.3791H58.5548Z" fill="#85A0C5"/>
</g>
<g style="mix-blend-mode:multiply" opacity="0.6">
<path d="M70.1379 24.7708C69.278 26.2027 68.2581 27.4987 67.1621 28.7586C64.1503 32.2264 61.0465 35.2941 57.1508 37.766C55.9069 38.5539 54.6069 39.4459 53.235 40.1059C52.0031 40.3498 50.7552 40.3738 49.5433 40.0379C47.6434 39.5099 46.1195 37.846 45.5235 35.9941C45.2715 35.2102 45.2955 34.4622 45.5915 33.7863C45.5035 34.4502 45.6235 35.1622 45.8875 35.8101C46.5195 37.354 47.9034 38.214 49.5113 38.4659C51.2632 38.7419 53.027 38.154 54.5669 37.37C56.2988 36.4901 57.8507 35.2741 59.3186 34.0182C60.7865 32.7623 62.2384 31.4584 63.5584 30.0505C64.2903 29.2705 64.9743 28.4186 65.4422 27.4507C65.7102 26.8907 65.9702 26.1667 65.3422 25.7708C65.0183 25.5628 64.6383 25.4668 64.3103 25.2628C63.8703 24.9828 63.5184 24.5708 63.2264 24.1469C62.6744 23.3549 62.3184 22.431 62.0265 21.5151C61.5385 19.9832 61.3185 18.3552 61.7345 16.7794C61.8305 16.4074 61.9785 16.0594 62.1625 15.7514C62.5424 15.5554 62.9704 15.4314 63.4264 15.4434C65.3782 15.4794 72.5298 20.7831 70.1339 24.7708H70.1379Z" fill="#85A0C5"/>
</g>
<g style="mix-blend-mode:multiply">
<path d="M70.618 23.115C70.462 23.9949 70.0541 24.8149 69.2261 25.2549C68.4142 25.6908 67.4262 25.6468 66.5623 25.4268C64.0304 24.7789 62.3826 22.475 61.7946 20.0272C61.5426 18.9873 61.4266 17.8113 61.7626 16.7754C61.8946 16.3714 62.1226 15.9235 62.4385 15.6275C62.7465 15.5075 63.0785 15.4355 63.4265 15.4435C65.1144 15.4715 70.706 19.4552 70.614 23.115H70.618Z" fill="#90ADD3"/>
</g>
<path d="M50.5232 67.9761C44.9476 72.0758 38.532 69.212 38.088 70.1279C37.3961 71.5638 36.9081 73.0957 36.3361 74.5796C35.9842 75.4916 35.6162 76.3835 35.0722 77.1715C33.7603 78.0434 32.2004 78.5994 30.7365 78.9594C29.6206 79.2313 28.4806 79.3793 27.3287 79.3953C26.2168 79.4153 25.0449 79.3433 23.9969 78.9314C23.533 78.7474 23.073 78.4554 22.845 77.9954C22.653 77.6074 22.593 77.1555 22.569 76.7275C22.509 75.6356 22.717 74.5236 22.961 73.4637C23.217 72.3478 23.545 71.2518 23.9009 70.1639C24.2089 69.22 24.5129 68.272 24.9049 67.3561C26.1168 64.4923 27.7727 61.8285 29.7046 59.3966C31.6604 56.9288 33.9003 54.5729 36.7081 53.069C38.252 52.2451 39.9519 51.7331 41.7038 51.6491C42.0158 51.6651 42.3277 51.6851 42.6317 51.7291C44.0356 51.9291 45.4835 52.4451 46.7355 53.113C48.8513 54.241 51.4632 56.6288 52.7391 59.1726C54.043 61.7685 53.611 65.6962 50.5192 67.9721L50.5232 67.9761Z" fill="#90ADD3"/>
<g style="mix-blend-mode:multiply" opacity="0.6">
<g style="mix-blend-mode:multiply" opacity="0.6">
<path d="M50.5232 67.9761C44.9476 72.0758 38.532 69.212 38.088 70.1279C37.3961 71.5638 36.9081 73.0957 36.3361 74.5796C35.9842 75.4916 35.6162 76.3835 35.0722 77.1715C33.7603 78.0434 32.2004 78.5994 30.7365 78.9594C29.6206 79.2313 28.4806 79.3793 27.3287 79.3953C26.2168 79.4153 25.0449 79.3433 23.9969 78.9314C23.533 78.7474 23.073 78.4554 22.845 77.9954C22.653 77.6074 22.593 77.1555 22.569 76.7275C22.509 75.6356 22.717 74.5236 22.961 73.4637C23.217 72.3478 23.545 71.2518 23.9009 70.1639C24.2089 69.22 24.5129 68.272 24.9049 67.3561C26.1168 64.4923 27.7727 61.8285 29.7046 59.3966C31.6604 56.9288 33.9003 54.5729 36.7081 53.069C38.252 52.2451 39.9519 51.7331 41.7038 51.6491C42.0158 51.6651 42.3277 51.6851 42.6317 51.7291C44.0356 51.9291 45.4835 52.4451 46.7355 53.113C48.8513 54.241 51.4632 56.6288 52.7391 59.1726C54.043 61.7685 53.611 65.6962 50.5192 67.9721L50.5232 67.9761Z" fill="#90ADD3"/>
</g>
</g>
<g style="mix-blend-mode:multiply" opacity="0.6">
<g style="mix-blend-mode:multiply" opacity="0.6">
<path d="M50.5234 67.9761C44.9478 72.0758 38.5322 69.212 38.0882 70.1279C37.3963 71.5639 36.9083 73.0958 36.3363 74.5797C35.9843 75.4916 35.6164 76.3835 35.0724 77.1715C33.7605 78.0434 32.2006 78.5994 30.7367 78.9594C29.6207 79.2314 28.4808 79.3793 27.3289 79.3953C26.217 79.4153 25.045 79.3434 23.9971 78.9314C23.5331 78.7474 23.0732 78.4554 22.8452 77.9954C22.6892 77.6755 22.6172 77.3115 22.5852 76.9555C22.7932 76.5275 23.0932 76.1396 23.4212 75.8196C23.6611 75.5876 23.9651 75.3796 24.3051 75.3516C24.7571 75.3156 25.017 75.7716 25.169 76.1236C25.193 76.1836 25.285 76.1716 25.313 76.1236C25.701 75.4916 26.293 74.8676 27.0449 75.3596C27.6169 75.7316 27.9289 76.4955 28.1288 77.1115C28.1488 77.1755 28.2488 77.1995 28.2808 77.1315C28.7448 76.2116 29.3968 75.2236 30.5727 75.6676C30.9327 75.8036 31.3046 76.0596 31.7086 75.9836C32.0926 75.9156 32.4526 75.7396 32.6486 75.4116C35.9483 69.852 33.4045 69.416 32.3846 69.12C33.5525 69.064 34.7124 69.296 35.8843 69.184C37.0723 69.068 38.2922 68.748 39.4281 68.388C41.164 67.8361 42.7239 66.7522 43.8358 65.3083C46.2037 62.2365 47.1556 57.3608 44.0078 54.477C41.96 52.5971 39.3201 52.3411 36.8163 53.0131C38.3282 52.2251 39.9881 51.7371 41.696 51.6531C42.008 51.6691 42.3199 51.6891 42.6239 51.7331C44.0278 51.9331 45.4757 52.4491 46.7276 53.117C48.8435 54.245 51.4553 56.6328 52.7313 59.1767C54.0352 61.7725 53.6032 65.7002 50.5114 67.9761H50.5234Z" fill="#90ADD3"/>
</g>
</g>
<g style="mix-blend-mode:multiply" opacity="0.6">
<g style="mix-blend-mode:multiply" opacity="0.6">
<path d="M28.4648 79.3354C28.0888 79.3674 27.7088 79.3914 27.3288 79.3954C26.2169 79.4154 25.045 79.3434 23.997 78.9315C23.5331 78.7475 23.0731 78.4555 22.8451 77.9955C22.7171 77.7315 22.6491 77.4475 22.6091 77.1556C22.7691 76.8476 22.9651 76.5596 23.2011 76.3236C23.7331 75.7876 24.493 75.8276 24.901 76.4636C25.161 76.8676 25.213 77.4075 25.269 77.8755C25.281 77.9715 25.397 77.9875 25.4329 77.8955C25.6049 77.4715 25.8209 77.0636 26.1209 76.7156C26.5969 76.1716 27.1288 76.2916 27.6088 76.7636C28.2808 77.4315 28.4768 78.3995 28.4568 79.3354H28.4648Z" fill="#90ADD3"/>
</g>
</g>
<g style="mix-blend-mode:multiply" opacity="0.6">
<g style="mix-blend-mode:multiply" opacity="0.6">
<path d="M50.5232 67.9761C44.9476 72.0758 38.532 69.212 38.088 70.1279C37.3961 71.5638 36.9081 73.0957 36.3361 74.5796C35.9841 75.4916 35.6162 76.3835 35.0722 77.1715C33.7603 78.0434 32.2004 78.5994 30.7365 78.9594C30.3325 79.0594 29.9245 79.1393 29.5166 79.2033C29.4566 78.8834 29.4166 78.5634 29.4006 78.2434C29.3646 77.6314 29.3806 76.7675 29.9205 76.3595C30.2205 76.1355 30.6765 76.1635 30.9845 76.3435C31.3284 76.5435 31.4564 77.0115 31.6204 77.3475C31.9124 77.9554 32.4204 77.8474 32.9683 77.6154C33.6883 77.3114 34.3483 76.9235 34.8562 76.3155C35.4162 75.6476 35.7442 74.8036 36.0081 73.9797C36.2801 73.1157 36.4561 72.2238 36.6921 71.3518C36.8361 70.8159 36.8201 70.4559 36.2681 70.2319C35.6442 69.9799 34.9682 69.8959 34.3323 69.684C35.5522 69.604 36.7761 69.64 37.996 69.656C39.2719 69.676 40.5319 69.6119 41.7998 69.496C43.6876 69.316 45.6195 68.956 47.2914 68.016C51.0272 65.9162 51.4911 60.6685 49.6673 57.1368C48.5713 55.0169 46.5835 53.277 44.3956 52.3571C43.3637 51.9251 42.2877 51.7331 41.1958 51.6891C41.3678 51.6731 41.5358 51.6571 41.7078 51.6491C42.0198 51.6651 42.3317 51.6851 42.6357 51.7291C44.0396 51.9291 45.4875 52.4451 46.7395 53.113C48.8553 54.241 51.4671 56.6288 52.7431 59.1726C54.047 61.7685 53.615 65.6962 50.5232 67.9721V67.9761Z" fill="#90ADD3"/>
</g>
</g>
<path d="M23.701 76.2956C24.4609 76.1036 25.3608 77.7875 25.1969 78.7954C25.0329 79.7993 22.545 80.1393 22.0891 79.2754C21.6331 78.4114 22.969 76.4795 23.701 76.2996V76.2956Z" fill="#EDE7CD"/>
<g style="mix-blend-mode:multiply">
<path d="M25.1967 78.7954C25.0927 79.4154 24.1008 79.7834 23.2529 79.7674C23.3648 79.7514 23.4768 79.7274 23.5888 79.6794C24.3968 79.3434 24.3408 78.2275 24.2528 77.5195C24.1688 76.8636 23.7768 76.4076 23.1169 76.7596C23.0369 76.8036 22.9649 76.8516 22.9009 76.9036C23.1769 76.5836 23.4728 76.3476 23.7008 76.2916C24.4608 76.0996 25.3607 77.7835 25.1967 78.7914V78.7954Z" fill="#EDE7CD"/>
</g>
<path d="M26.2928 76.5276C27.0487 76.3356 27.9527 78.0195 27.7887 79.0274C27.6247 80.0314 25.1369 80.3714 24.6809 79.5034C24.2249 78.6395 25.5648 76.7076 26.2928 76.5276Z" fill="#EDE7CD"/>
<g style="mix-blend-mode:multiply">
<path d="M27.7887 79.0274C27.7127 79.4914 27.1408 79.8114 26.5008 79.9394C26.6208 79.8394 26.7248 79.7274 26.8168 79.5994C27.3008 78.9195 27.0808 77.3916 26.4248 76.8796C26.2168 76.7196 25.9968 76.7316 25.7769 76.8436C25.9608 76.6796 26.1408 76.5636 26.2928 76.5276C27.0488 76.3356 27.9527 78.0195 27.7887 79.0274Z" fill="#EDE7CD"/>
</g>
<path d="M29.6486 76.4355C30.2485 76.2875 31.4845 77.7634 31.3565 78.5554C31.2285 79.3473 29.2646 79.6193 28.9006 78.9354C28.5407 78.2514 29.0726 76.5755 29.6486 76.4355Z" fill="#EDE7CD"/>
<g style="mix-blend-mode:multiply">
<path d="M28.8445 78.8034C28.8245 78.3875 28.8525 77.6635 29.0325 77.1755C28.8125 77.6995 28.7045 78.3755 28.8445 78.8034Z" fill="#EDE7CD"/>
</g>
<g style="mix-blend-mode:multiply">
<path d="M31.3565 78.5554C31.3005 78.8954 30.9125 79.1353 30.4606 79.2513C30.6405 79.0993 30.7445 78.8673 30.7445 78.5194C30.7405 77.8674 30.3886 76.9555 29.7366 76.7035C29.4806 76.6075 29.2926 76.7075 29.1606 76.9195C29.3046 76.6635 29.4766 76.4755 29.6526 76.4355C30.2526 76.2875 31.4885 77.7634 31.3605 78.5554H31.3565Z" fill="#EDE7CD"/>
</g>
<path d="M47.0355 16.9834C46.9595 17.7033 46.5876 18.2593 46.2076 18.2193C45.8236 18.1793 45.5756 17.5634 45.6516 16.8394C45.7276 16.1194 46.0956 15.5635 46.4796 15.6035C46.8636 15.6435 47.1115 16.2594 47.0355 16.9834Z" fill="#1D1E1E"/>
<path d="M46.4475 16.3834C46.4235 16.6114 46.2915 16.7834 46.1476 16.7674C46.0076 16.7514 45.9116 16.5554 45.9356 16.3274C45.9596 16.0994 46.0916 15.9274 46.2355 15.9434C46.3795 15.9594 46.4755 16.1554 46.4515 16.3834H46.4475Z" fill="white"/>
<path d="M46.2395 9.86384C46.1355 9.90784 46.0235 9.94382 45.9155 9.96781C45.8315 9.98381 45.6715 9.99182 45.6075 9.91982C45.4435 9.72783 45.3555 9.49586 45.2275 9.28387C45.5715 9.46786 45.9115 9.65186 46.2395 9.86384Z" fill="#566C84"/>
<path d="M43.2557 10.3518C43.1757 10.3558 43.0117 10.3438 42.9597 10.2638C42.7717 9.97184 42.7397 9.61585 42.5397 9.32387C42.3557 9.05188 42.1037 9.37587 41.8237 9.20388C40.1239 8.16795 39.2879 6.18407 39.0839 5.57211C38.176 2.84028 41.2198 0.532441 43.6116 0.132467C44.0116 0.0684714 44.5356 -0.0875117 44.9355 0.0644785C44.9555 0.072478 44.9835 0.0804716 44.9875 0.10847C44.9995 0.280459 44.8676 0.44844 44.8036 0.60043C44.2276 1.95234 44.0116 3.74023 44.0756 5.20013C44.1236 6.29206 44.4436 7.352 44.6076 8.42793C44.6276 8.55592 44.6036 8.71191 44.6036 8.8559C44.8516 9.63985 44.0476 10.2998 43.2597 10.3478L43.2557 10.3518Z" fill="#728CA9"/>
<path d="M43.6998 10.2598C43.3478 9.94384 42.9558 9.65985 42.5719 9.37987C42.5599 9.35987 42.5519 9.34386 42.5359 9.32386C42.3519 9.05188 42.1239 8.84791 41.8759 8.63592C41.6039 8.40394 41.3039 8.20795 41.008 8.00796C40.928 7.90796 40.852 7.80796 40.784 7.69997C40.428 7.16001 40.288 6.52805 40.308 5.8841C40.328 5.22014 40.508 4.56417 40.792 3.94821C40.848 3.84022 40.908 3.73223 40.968 3.62824C41.7759 2.24033 43.1238 1.38437 44.6437 0.996399C44.1838 2.28832 44.0078 3.88022 44.0678 5.20013C44.1158 6.29206 44.4357 7.352 44.5997 8.42793C44.6197 8.55592 44.5957 8.71191 44.5957 8.8559C44.7957 9.49186 44.3078 10.0438 43.6958 10.2598H43.6998Z" fill="#F9C4CC"/>
<path d="M44.9835 0.112461C44.9955 0.28445 44.8636 0.452431 44.7996 0.604421C44.2236 1.95633 44.0076 3.74422 44.0716 5.20412C44.1196 6.29605 44.4396 7.35599 44.6036 8.43192C44.6236 8.55991 44.5996 8.7159 44.5996 8.85989C44.8276 9.58385 44.1556 10.2038 43.4317 10.3318C43.0957 9.27586 42.3717 8.23592 42.1677 7.22399C41.9157 5.96007 42.2197 4.66416 42.6437 3.47623C43.0797 2.25231 43.7316 1.0044 44.7716 0.188457C44.8236 0.148459 44.8796 0.108446 44.9356 0.0724487C44.9556 0.0804482 44.9835 0.0884623 44.9835 0.112461Z" fill="#849FC0"/>
<g style="mix-blend-mode:multiply" opacity="0.4">
<g style="mix-blend-mode:multiply" opacity="0.4">
<path fill-rule="evenodd" clip-rule="evenodd" d="M44.6038 9.41983C44.5998 9.43583 44.5918 9.45183 44.5838 9.46783C44.5798 9.48383 44.5758 9.49584 44.5678 9.50784C44.5638 9.51984 44.5598 9.52384 44.5558 9.53584C44.5518 9.54784 44.5438 9.55582 44.5398 9.56782C44.5358 9.57582 44.5318 9.57984 44.5318 9.58784C44.5278 9.59584 44.5238 9.60384 44.5158 9.61584C44.5118 9.62784 44.5038 9.63582 44.4958 9.64782C44.4878 9.65982 44.4798 9.67583 44.4718 9.68783C44.4558 9.70783 44.4398 9.73182 44.4238 9.75582C44.4118 9.76782 44.4038 9.77981 44.3958 9.79181C44.3878 9.79981 44.3838 9.81181 44.3758 9.81981C44.3718 9.82381 44.3678 9.82782 44.3638 9.83182C44.3558 9.83982 44.3438 9.85182 44.3358 9.85982C44.3278 9.87182 44.3198 9.87982 44.3118 9.88782C44.3038 9.89582 44.2958 9.89981 44.2878 9.90781C44.2798 9.91581 44.2758 9.91981 44.2678 9.92781C44.2518 9.94381 44.2318 9.9598 44.2158 9.9758C44.2078 9.9838 44.1998 9.9918 44.1878 9.9958C44.1798 9.9998 44.1758 10.0078 44.1678 10.0118C44.1478 10.0278 44.1278 10.0438 44.1078 10.0558C44.0958 10.0638 44.0838 10.0718 44.0718 10.0798C44.0678 10.0838 44.0638 10.0838 44.0598 10.0878C44.0398 10.1038 44.0158 10.1158 43.9918 10.1318C43.9758 10.1438 43.9598 10.1518 43.9438 10.1598C43.9158 10.1758 43.8918 10.1878 43.8638 10.1998C43.8478 10.2078 43.8358 10.2158 43.8198 10.2198C43.7798 10.2398 43.7398 10.2558 43.6958 10.2678C43.6118 10.2998 43.5238 10.3198 43.4319 10.3358H43.4279C43.3719 10.3438 43.3119 10.3518 43.2519 10.3558C43.1719 10.3598 43.0079 10.3478 42.9559 10.2678C42.7679 9.97579 42.7359 9.61983 42.5359 9.32785C42.3519 9.05586 42.0999 9.37985 41.82 9.20786C40.1201 8.17193 39.2841 6.18805 39.0801 5.57609C38.6642 4.32817 39.0761 3.16825 39.8721 2.23631C39.3281 3.25625 39.0561 4.35217 39.3921 5.5601C39.5681 6.19206 39.9441 6.71602 40.508 7.056C40.656 7.14399 41.548 7.62396 41.648 7.28398C41.732 7 41.628 6.62002 41.628 6.32404C41.628 5.81607 41.704 5.30811 41.812 4.81215C42.0199 3.85621 42.4079 2.94026 42.9199 2.10431C43.4159 1.28837 44.0038 0.600421 44.8478 0.14045C44.8878 0.120452 44.9238 0.100443 44.9638 0.0804443C44.9638 0.0804443 44.9638 0.0804443 44.9678 0.0804443C44.9798 0.0884438 44.9878 0.0964462 44.9878 0.108445C44.9998 0.280434 44.8678 0.448416 44.8038 0.600406C44.7518 0.728398 44.6998 0.860385 44.6518 0.996377C44.4238 1.64034 44.2638 2.3563 44.1678 3.08025V3.09224C44.1478 3.26423 44.1278 3.43222 44.1118 3.60021C44.1118 3.61621 44.1078 3.63622 44.1078 3.65621C44.0958 3.8162 44.0838 3.9762 44.0758 4.13619C44.0758 4.16019 44.0758 4.18418 44.0718 4.20418C44.0638 4.36017 44.0638 4.51615 44.0638 4.67214C44.0638 4.69214 44.0638 4.70814 44.0638 4.72814C44.0638 4.88813 44.0678 5.04412 44.0758 5.19611C44.1238 6.28804 44.4438 7.34797 44.6078 8.4239C44.6278 8.55189 44.6038 8.70789 44.6038 8.85188C44.6158 8.89587 44.6278 8.93587 44.6358 8.97987C44.6358 8.98387 44.6358 8.98786 44.6398 8.99186C44.6398 9.00386 44.6438 9.01587 44.6438 9.02787C44.6478 9.05186 44.6518 9.07986 44.6518 9.10386C44.6518 9.11186 44.6518 9.11986 44.6518 9.12786C44.6518 9.13986 44.6518 9.14787 44.6518 9.16387C44.6518 9.18387 44.6518 9.20385 44.6478 9.22385C44.6478 9.23585 44.6438 9.24786 44.6438 9.25986C44.6438 9.26786 44.6398 9.27986 44.6398 9.28786C44.6358 9.30786 44.6318 9.32386 44.6278 9.33986C44.6238 9.35586 44.6198 9.37185 44.6158 9.38785C44.6158 9.39585 44.6118 9.40385 44.6118 9.40785L44.6038 9.41983ZM43.2759 5.02012C43.3559 3.90019 43.6198 2.80027 43.9598 1.73234C43.9838 1.65634 43.8718 1.58834 43.8198 1.65234C43.4239 2.15231 43.1559 2.73627 42.9679 3.34823C42.7559 3.91619 42.6079 4.50415 42.5239 5.12011C42.4279 5.82806 42.2919 6.70001 42.6719 7.34797C42.7039 7.40397 42.7839 7.39997 42.8159 7.34797C43.2559 6.67201 43.2239 5.79607 43.2799 5.02012H43.2759Z" fill="#566C84"/>
</g>
</g>
<path d="M49.6912 28.4386C47.8634 30.7825 45.1595 32.0624 42.2597 32.4984C39.6079 32.8943 36.6681 32.6504 34.0922 31.9104C31.3084 31.1105 28.9566 29.4906 27.2727 28.1347C25.3088 26.5508 24.8728 24.7389 24.7928 23.7709C24.0969 23.207 23.4489 22.707 23.3889 22.619C23.129 22.243 23.3329 21.8191 23.6769 21.5951C23.9209 21.4351 24.1769 21.3151 24.4569 21.2351C24.5369 21.2111 24.6329 21.1751 24.7209 21.1791C24.7888 21.1831 24.8248 21.1871 24.8408 21.1951C24.8208 21.1871 24.7808 21.1631 24.7609 21.1151C24.5529 20.6551 24.5529 19.9752 24.6329 19.4752C24.8408 18.1433 25.7888 16.8114 26.9167 16.0994C28.2366 15.2675 29.6725 14.8995 31.1124 14.3396C33.5043 13.4116 35.7201 12.0877 37.804 10.5998C38.9279 9.79583 40.0559 8.9519 41.3398 8.41193C43.6116 7.45199 46.1755 7.49999 48.4673 8.36394C49.5952 8.78791 50.7512 9.43586 51.7351 10.1278C53.299 11.2317 54.4629 12.8156 54.6189 14.7715C54.7029 15.8274 54.4269 16.8514 54.063 17.8353C53.463 19.4512 52.983 21.1991 52.4111 22.907C51.7431 24.8949 50.9512 26.8307 49.6952 28.4386H49.6912Z" fill="#90ADD3"/>
<g style="mix-blend-mode:multiply" opacity="0.6">
<g style="mix-blend-mode:multiply" opacity="0.6">
<path d="M45.7476 16.1194C46.1595 14.9315 47.9154 14.6995 48.9913 14.9515C50.5752 15.3275 50.1153 17.0794 49.3633 18.0353C49.2993 17.6473 49.2713 17.2714 49.0833 16.9114C48.8794 16.5234 48.4994 16.2074 48.1314 15.9914C47.3955 15.5635 46.4835 15.7555 45.7516 16.1194H45.7476Z" fill="#85A0C5"/>
</g>
</g>
<g style="mix-blend-mode:multiply" opacity="0.6">
<g style="mix-blend-mode:multiply" opacity="0.6">
<path d="M40.332 12.4837C40.144 12.8637 39.848 13.1836 39.568 13.5036C39.568 12.5277 39.1561 11.4718 38.1921 11.1998C38.7801 10.8838 39.62 10.5678 40.18 11.0078C40.632 11.3638 40.552 12.0277 40.328 12.4797L40.332 12.4837Z" fill="#85A0C5"/>
</g>
</g>
<g style="mix-blend-mode:multiply" opacity="0.6">
<g style="mix-blend-mode:multiply" opacity="0.6">
<path d="M27.8369 18.9232C28.0089 19.4632 27.8129 20.0512 27.5849 20.5431C27.4609 20.8071 27.3329 21.0871 27.1409 21.3151C27.3249 20.5511 27.6129 19.5112 27.0849 18.8952C26.865 18.6352 26.529 18.7752 26.229 19.0032C26.337 18.8192 26.461 18.6472 26.613 18.4953C27.1089 18.0073 27.6529 18.3553 27.8329 18.9232H27.8369Z" fill="#85A0C5"/>
</g>
</g>
<g style="mix-blend-mode:multiply" opacity="0.6">
<g style="mix-blend-mode:multiply" opacity="0.6">
<path d="M35.7283 25.9428C35.3803 26.4428 34.6484 26.6028 34.1844 26.1348C33.9964 25.9468 33.9404 25.6588 33.9204 25.3708C34.0124 25.5828 34.1724 25.7748 34.3524 25.8788C34.8124 26.1468 35.2523 26.0428 35.7323 25.9388L35.7283 25.9428Z" fill="#85A0C5"/>
</g>
</g>
<g style="mix-blend-mode:multiply" opacity="0.6">
<g style="mix-blend-mode:multiply" opacity="0.6">
<path d="M26.6928 22.107C26.4448 22.347 26.1288 22.495 25.7648 22.427C25.3288 22.347 25.1729 21.947 25.1729 21.5551C25.3008 21.771 25.4728 21.959 25.7088 22.055C26.0288 22.183 26.3608 22.167 26.6928 22.107Z" fill="#85A0C5"/>
</g>
</g>
<g style="mix-blend-mode:multiply" opacity="0.6">
<g style="mix-blend-mode:multiply" opacity="0.6">
<path d="M32.4726 23.391C31.4727 23.595 30.3207 23.463 29.4368 22.951C28.9488 22.667 28.5648 22.1751 28.5088 21.6031C28.4928 21.4111 28.5168 21.2191 28.5648 21.0311C28.6008 21.0351 28.6408 21.0191 28.6568 20.9751C28.6848 20.8992 28.7168 20.8232 28.7528 20.7512C29.2128 20.2232 29.7688 19.7912 30.3807 19.4552C30.8887 19.2073 31.4167 18.9953 31.9566 18.8193C32.4526 18.6833 32.9566 18.5953 33.4565 18.5513C34.0845 18.4993 34.7524 18.5553 35.2404 18.9993C35.6484 19.3672 35.7404 20.0072 35.6644 20.5312C35.5204 21.5351 34.6884 22.3831 33.7485 22.903C33.3285 23.135 32.8846 23.303 32.4686 23.387L32.4726 23.391Z" fill="#85A0C5"/>
</g>
</g>
<g style="mix-blend-mode:multiply" opacity="0.6">
<g style="mix-blend-mode:multiply" opacity="0.6">
<path d="M37.5322 24.1509C37.3482 24.5509 37.0722 24.9389 36.7162 25.2069C36.9922 24.5829 37.4562 23.695 37.0162 23.143C36.6842 22.727 36.2003 22.831 35.7723 23.031C35.5443 23.139 34.9923 23.659 34.7563 23.815C35.4243 23.035 36.8282 21.7831 37.5842 22.4871C38.0281 22.899 37.7482 23.699 37.5362 24.1509H37.5322Z" fill="#85A0C5"/>
</g>
</g>
<g style="mix-blend-mode:multiply" opacity="0.6">
<g style="mix-blend-mode:multiply" opacity="0.6">
<path d="M38.8439 14.5275C38.616 14.9595 38.232 15.3555 37.824 15.6195C37.78 15.6475 37.776 15.6915 37.796 15.7355C37.94 16.0634 38 16.3914 37.968 16.7314C37.924 16.5954 37.884 16.4594 37.804 16.3234C37.648 16.0554 37.412 15.8234 37.1881 15.6195C36.9921 15.4395 36.7761 15.2715 36.5481 15.1315C36.6361 15.1475 36.7201 15.1635 36.8081 15.1795C36.9161 15.1995 36.9561 15.0355 36.8521 15.0155H36.8441C36.8521 15.0035 36.8561 14.9915 36.8601 14.9755C36.8921 14.2756 37.728 13.1276 38.508 13.2276C39.1759 13.3116 39.0679 14.1156 38.8519 14.5315L38.8439 14.5275Z" fill="#85A0C5"/>
</g>
</g>
<g style="mix-blend-mode:multiply" opacity="0.6">
<g style="mix-blend-mode:multiply" opacity="0.6">
<path d="M48.4033 21.9071C47.7634 21.4271 47.0754 21.0391 46.3275 20.7391C45.8955 20.5671 45.4435 20.4392 45.0036 20.2872C44.9716 20.2752 44.9356 20.2672 44.9036 20.2552C44.9076 20.2552 44.9116 20.2552 44.9156 20.2552C45.1275 20.2672 45.5635 20.4591 45.7355 20.2552C45.8995 20.0632 45.8915 19.7152 45.9995 19.4872C46.1515 19.1632 46.3715 18.8753 46.6155 18.6113C47.1594 18.0313 48.2553 17.6753 48.5633 18.7113C48.7793 19.4312 48.0514 20.3152 47.5234 20.7151C47.4754 20.7511 47.4634 20.8271 47.5234 20.8591C47.9394 21.0951 48.1994 21.4831 48.4033 21.899V21.9071Z" fill="#85A0C5"/>
</g>
</g>
<g style="mix-blend-mode:multiply" opacity="0.6">
<g style="mix-blend-mode:multiply" opacity="0.6">
<path fill-rule="evenodd" clip-rule="evenodd" d="M54.0552 17.8353C53.4552 19.4512 52.9752 21.1991 52.4033 22.907C51.7353 24.8948 50.9434 26.8307 49.6874 28.4386C47.8596 30.7825 45.1557 32.0624 42.2559 32.4983C39.6041 32.8943 36.6643 32.6503 34.0884 31.9104C31.3046 31.1104 28.9528 29.4905 27.2689 28.1346C25.305 26.5507 24.869 24.7388 24.789 23.7709C24.0931 23.2069 23.4451 22.707 23.3851 22.619C23.1491 22.287 23.2931 21.911 23.5691 21.675C23.5331 21.807 23.5491 21.947 23.6371 22.107C23.9091 22.583 24.6731 22.807 25.129 23.063C25.997 23.5549 26.7889 24.1789 27.5929 24.7708C28.4168 25.3788 29.2648 25.9148 30.1807 26.3707C31.8246 27.1947 33.5605 27.7627 35.3764 28.0386C36.0283 28.1386 36.6883 28.1946 37.3482 28.1306C37.6402 28.1026 37.9282 28.0346 38.2042 27.9226C38.5162 27.7986 38.6961 27.5587 38.9761 27.3907C39.0161 27.3667 39.0281 27.3187 39.0041 27.2747C38.7601 26.7667 38.8241 26.2627 39.0601 25.8188C39.1521 26.5507 39.5801 27.1747 40.348 27.5507C41.46 28.0986 42.8759 28.0146 43.9918 27.5267C44.7998 27.1747 45.4877 26.5467 46.0717 25.9028C46.6636 25.2508 47.2116 24.4829 47.4876 23.6429C47.7516 22.823 47.7076 21.899 47.2276 21.1751C47.1356 21.0351 47.0236 20.9111 46.9076 20.7951C46.9356 20.8031 46.9636 20.8071 46.9916 20.8151C47.3876 20.9351 47.6836 21.3071 48.0355 21.519C48.4715 21.783 48.8835 21.4511 49.1395 21.0991C49.5154 20.5831 49.7594 19.9912 50.0074 19.4072C50.3674 18.5553 50.7674 17.7393 51.0314 16.8433C51.3113 15.8994 51.4553 14.8955 51.3593 13.9116C51.2593 12.9116 50.8594 11.9677 50.4354 11.0677C50.0274 10.1998 49.6434 9.30384 48.9715 8.59988C48.9395 8.56789 48.9075 8.5439 48.8755 8.5119C49.8754 8.92788 50.8754 9.50384 51.7433 10.1158C53.3072 11.2197 54.4711 12.8036 54.6271 14.7595C54.7111 15.8154 54.4351 16.8394 54.0712 17.8233L54.0552 17.8353ZM37.2842 30.3585C36.0043 31.1144 33.9885 31.1104 32.6765 30.2625C32.6685 30.2505 31.8326 29.7865 31.8766 29.8505C32.2446 30.3865 32.7205 30.8345 33.2445 31.2144C33.7565 31.5864 34.4484 31.6424 35.0604 31.6784C36.1083 31.7384 36.8123 31.3264 37.4002 30.4745C37.4522 30.4025 37.3522 30.3185 37.2842 30.3625V30.3585Z" fill="#85A0C5"/>
</g>
</g>
<g style="mix-blend-mode:multiply" opacity="0.6">
<g style="mix-blend-mode:multiply" opacity="0.6">
<path d="M24.9169 24.0229C24.8809 24.0309 24.8529 24.0429 24.8249 24.0549C24.8089 23.9549 24.8009 23.8589 24.7929 23.7709C24.7769 23.759 24.7649 23.751 24.7529 23.739C25.0009 23.543 25.6449 23.8949 25.8449 23.9909C26.3368 24.2309 26.8048 24.5229 27.2648 24.8229C28.3927 25.5548 29.5366 26.2588 30.7405 26.8667C32.4044 27.7067 34.2043 28.1867 36.0722 28.2267C36.7802 28.2427 37.6801 28.2267 38.3001 27.8787C38.3161 27.8707 38.3321 27.8587 38.3481 27.8507C38.3681 27.8387 38.3881 27.8267 38.404 27.8147C38.604 27.6867 38.76 27.5227 38.968 27.3907C39.008 27.3667 39.02 27.3187 38.996 27.2747C38.976 27.2307 38.956 27.1867 38.94 27.1388C38.956 27.0948 38.976 27.0507 38.988 27.0027C39.188 27.3387 39.572 27.5627 39.908 27.7467C40.3719 28.0027 40.8079 28.0987 41.2999 28.1267C40.9799 28.2027 40.6439 28.1507 40.3159 28.0747C40.0239 28.0067 39.644 27.7827 39.344 27.8027C39.096 27.8187 38.876 28.0867 38.68 28.2107C38.2801 28.4627 37.8441 28.6226 37.3881 28.7306C35.5682 29.1626 33.6364 28.5946 31.9125 28.0307C30.9965 27.7307 30.1046 27.3627 29.2606 26.9028C28.3807 26.4268 27.5767 25.8068 26.7648 25.2309C26.3408 24.9269 25.9009 24.6349 25.5049 24.2989C25.3649 24.1829 25.1329 23.967 24.9249 24.015L24.9169 24.0229Z" fill="#85A0C5"/>
</g>
</g>
<g style="mix-blend-mode:multiply" opacity="0.6">
<g style="mix-blend-mode:multiply" opacity="0.6">
<path d="M29.7805 26.1588C29.9125 26.2308 30.0445 26.3028 30.1765 26.3708C31.7604 27.1627 33.4283 27.7187 35.1722 28.0067C34.9082 27.9787 34.6442 27.9467 34.3802 27.9067C32.7243 27.6467 31.2284 26.9628 29.7805 26.1628V26.1588Z" fill="#85A0C5"/>
</g>
</g>
<g style="mix-blend-mode:multiply" opacity="0.6">
<g style="mix-blend-mode:multiply" opacity="0.6">
<path d="M54.0552 17.8353C53.4552 19.4512 52.9753 21.1991 52.4033 22.907C51.7353 24.8949 50.9434 26.8308 49.6875 28.4387C47.8596 30.7825 45.1558 32.0624 42.256 32.4984C39.6041 32.8944 36.6643 32.6504 34.0885 31.9104C31.9366 31.2945 30.0447 30.1865 28.5168 29.0866C29.0688 29.4186 29.6448 29.7066 30.2167 29.9665C30.2887 29.9985 30.3807 29.9305 30.3327 29.8506C30.0407 29.3586 29.7368 28.8706 29.4608 28.3706C29.6368 28.5906 29.8088 28.8146 29.9928 29.0306C30.4007 29.5226 30.8807 29.9585 31.3807 30.3465C32.4046 31.1385 33.7005 31.6385 34.9884 31.7384C36.6243 31.8624 38.2882 31.1545 39.6161 30.1105C39.4761 30.5945 39.2842 31.0545 39.0642 31.5065C39.0362 31.5625 39.0682 31.6344 39.1362 31.6344C41.148 31.6105 43.1839 31.4545 45.0798 30.7265C47.0117 29.9865 48.6276 28.6106 49.8195 26.9307C51.2034 24.9749 51.8713 22.675 52.5553 20.4112C53.2752 18.0153 53.9752 15.3515 53.5392 12.8397C53.4272 12.1877 53.0913 11.5957 52.7873 11.0118C53.7992 12.0197 54.4952 13.2876 54.6112 14.7635C54.6952 15.8195 54.4192 16.8434 54.0552 17.8273V17.8353Z" fill="#85A0C5"/>
</g>
</g>
<path d="M53.4512 13.8836C53.8432 13.7316 54.2551 13.5236 54.3351 13.4756C55.0791 13.0196 55.6271 12.0557 55.947 11.3037C56.563 9.86781 57.271 8.80389 58.6509 7.91194C59.9068 7.096 61.4507 6.70801 62.9986 6.852C63.0946 6.86 63.1906 6.87199 63.2826 6.89199C63.5465 6.93999 62.9026 10.3318 62.8386 10.7158C62.5826 12.2477 62.1826 13.5756 61.0307 14.7115C59.9788 15.7434 58.5869 16.3994 57.023 16.4154C56.427 16.4194 55.819 16.3154 55.2311 16.2314C54.7991 16.1674 54.3591 16.2474 53.9272 16.1714C53.2872 16.0594 53.1432 15.4154 53.1552 14.8955C53.1632 14.5395 53.2672 14.1915 53.4512 13.8876V13.8836Z" fill="#849FC0"/>
<path d="M55.391 15.2155C54.703 15.0035 53.7511 14.6075 53.4751 13.8716C53.8591 13.7196 54.255 13.5196 54.335 13.4716C55.079 13.0156 55.627 12.0517 55.9469 11.2997C56.5629 9.86384 57.2709 8.79992 58.6508 7.90797C59.7707 7.18002 61.1186 6.79603 62.4945 6.82003C62.3345 7.04802 62.1905 7.28801 62.0545 7.52799C61.4386 8.61992 61.1946 9.84783 60.9786 11.0678C60.7866 12.1477 60.4946 13.2676 59.7227 14.0916C59.2787 14.5635 58.7068 14.8195 58.1108 15.0555C57.5868 15.2635 57.0589 15.3955 56.5029 15.4395C56.1269 15.4155 55.7469 15.3235 55.391 15.2115V15.2155Z" fill="#F9C4CC"/>
<path d="M53.191 14.5595C53.235 14.3195 53.323 14.0915 53.451 13.8836C53.843 13.7316 54.2549 13.5236 54.3349 13.4756C55.0789 13.0196 55.6269 12.0557 55.9468 11.3037C56.5628 9.86781 57.2708 8.80389 58.6507 7.91194C59.9066 7.096 61.4505 6.70801 62.9984 6.852C63.0944 6.86 63.1904 6.87199 63.2864 6.89199C63.2864 6.89599 63.2904 6.89599 63.2904 6.89599C62.3064 7.11198 61.1985 7.65995 60.2946 8.25191C59.2626 8.92387 58.4147 9.77582 57.7627 10.8038C57.1148 11.8317 56.5188 13.7236 55.4229 14.3435C54.119 15.0795 53.355 14.5235 53.187 14.5635L53.191 14.5595Z" fill="#849FC0"/>
<g style="mix-blend-mode:multiply" opacity="0.4">
<g style="mix-blend-mode:multiply" opacity="0.4">
<path d="M61.7906 13.7796C61.5826 14.0996 61.3346 14.4116 61.0346 14.7075C59.9827 15.7395 58.5908 16.3954 57.0269 16.4114C56.4309 16.4154 55.823 16.3114 55.235 16.2274C54.803 16.1635 54.363 16.2434 53.9311 16.1674C53.2911 16.0554 53.1471 15.4115 53.1591 14.8915C53.1631 14.7795 53.1751 14.6716 53.1991 14.5596H53.1951C53.2071 14.4996 53.2191 14.4436 53.2351 14.3836C53.2431 14.3636 53.2511 14.3396 53.2551 14.3196C53.2751 14.2636 53.2911 14.2116 53.3151 14.1596C53.3231 14.1356 53.3351 14.1156 53.3431 14.0916C53.3751 14.0236 53.4111 13.9516 53.4511 13.8876C53.4751 13.8796 53.4951 13.8676 53.5191 13.8596C53.5511 13.8476 53.5831 13.8316 53.6151 13.8196C53.6231 13.8156 53.6311 13.8116 53.6391 13.8076C53.8711 13.7116 54.0871 13.6076 54.2191 13.5396C54.2231 13.5356 54.2271 13.5356 54.2311 13.5316C54.2511 13.5196 54.2711 13.5116 54.2871 13.5036C54.3071 13.4956 54.323 13.4876 54.331 13.4796C54.391 13.4396 54.451 13.3996 54.511 13.3556C54.503 13.3716 54.495 13.3836 54.487 13.3996C54.2871 13.7036 53.9631 13.8916 53.7991 14.2196C53.7671 14.2796 53.8071 14.3396 53.8751 14.3476C55.539 14.4636 56.4429 12.4477 57.0189 11.2038C57.4908 10.1878 58.0068 9.2159 58.8508 8.45995C59.9027 7.51202 61.2986 7.40403 62.5665 6.91606C62.6025 6.90006 62.6225 6.86806 62.6225 6.83606C62.7465 6.84006 62.8745 6.84806 62.9985 6.86006C63.0945 6.86806 63.1905 6.88005 63.2865 6.90004C63.2865 6.90404 63.2905 6.90405 63.2905 6.90405C63.3745 6.94405 63.3545 7.36801 63.2905 7.91997C63.0385 7.44 62.4145 7.71199 62.0386 7.87198C59.1147 9.1159 57.7868 12.3277 55.8589 14.6235C55.8229 14.6675 55.827 14.7275 55.8749 14.7555C56.1029 14.8955 56.3549 14.9115 56.6149 14.9235C57.0549 14.9435 57.4868 14.9595 57.9268 14.9395C58.6548 14.9035 59.3787 14.7555 60.0787 14.5556C60.6666 14.3876 61.2786 14.1436 61.7906 13.7876V13.7796Z" fill="#566C84"/>
</g>
</g>
<path d="M35.8002 25.0948C35.5042 25.3748 35.1882 25.4068 34.8002 25.3668C34.5522 25.3428 34.5722 25.1629 34.6762 24.9789C34.8402 24.6349 35.2042 24.3469 35.4762 24.1189C35.5602 24.0509 36.2441 23.555 36.3481 23.7829C36.3641 23.7909 36.3721 23.7989 36.3761 23.8189C36.4321 24.2349 36.0961 24.8229 35.8002 25.0989V25.0948Z" fill="#566C84"/>
<g style="mix-blend-mode:multiply">
<path d="M34.7522 23.8189C34.9562 23.611 35.1922 23.455 35.4602 23.279C35.8521 23.023 36.2961 22.763 36.7761 22.743C37.612 22.711 37.288 23.771 36.9481 24.3469C37.0241 24.1309 37.056 23.8989 37.052 23.671C37.044 23.179 36.5921 22.983 36.1641 23.127C35.7481 23.267 35.3482 23.479 34.9722 23.695C34.9402 23.715 34.8522 23.759 34.7522 23.815V23.8189Z" fill="#85A0C5"/>
</g>
<path d="M26.6048 19.6752C26.6208 19.6712 26.6368 19.6752 26.6488 19.6872C26.8968 19.6872 26.7288 20.5151 26.7008 20.6191C26.6008 20.9631 26.4888 21.4111 26.2448 21.7031C26.1168 21.8751 25.9648 21.9631 25.8368 21.7511C25.6408 21.4111 25.5448 21.1111 25.6768 20.7271C25.8088 20.3472 26.2048 19.7992 26.6088 19.6752H26.6048Z" fill="#566C84"/>
<g style="mix-blend-mode:multiply">
<path d="M27.2887 20.9111C27.3327 20.4792 27.3607 20.0272 27.3167 19.5912C27.2727 19.1392 26.9087 18.8073 26.4567 19.0033C26.2487 19.0912 26.0488 19.2192 25.8848 19.3752C26.2687 18.8273 27.1047 18.0953 27.4207 18.8713C27.6007 19.3192 27.5447 19.8312 27.4727 20.2912C27.4207 20.6031 27.3767 20.8831 27.2727 21.1551C27.2847 21.0391 27.2887 20.9431 27.2927 20.9071L27.2887 20.9111Z" fill="#85A0C5"/>
</g>
<g style="mix-blend-mode:multiply" opacity="0.6">
<g style="mix-blend-mode:multiply" opacity="0.6">
<path d="M41.4999 28.1107C41.4559 28.1467 41.3919 28.1787 41.3639 28.1787C40.664 28.1587 39.864 27.9387 39.352 27.4507C39.296 27.5507 39.224 27.6387 39.14 27.7187C38.9001 28.1187 38.7841 28.6066 38.4921 28.9786C38.2121 29.3346 37.9121 29.6906 37.5361 29.9466C36.7362 30.4865 35.7123 30.6825 34.7643 30.5305C33.5884 30.3385 32.4845 29.7866 31.5565 29.0426C31.1046 28.6826 30.6646 28.2907 30.3286 27.8187C29.9846 27.3387 29.5927 26.9548 29.1967 26.5308C28.9007 26.3628 28.6047 26.1908 28.3167 26.0068C27.6728 25.5988 27.0168 25.1869 26.3969 24.7389C25.9009 24.3789 25.3449 24.1029 24.865 23.727C24.853 23.719 24.885 23.695 24.893 23.703C27.0848 24.9429 29.1407 26.4388 31.4805 27.4107C32.7525 27.9387 34.0124 28.3707 35.3963 28.4666C36.0682 28.5146 36.7762 28.4827 37.4322 28.3227C38.0161 28.1827 38.6481 28.0187 39.0641 27.5787C39.1001 27.5307 39.136 27.4787 39.18 27.4307C39.184 27.4267 39.192 27.4227 39.196 27.4147C39.212 27.3907 39.232 27.3667 39.248 27.3427C39.0481 27.1187 38.9041 26.8468 38.8521 26.5188C38.9241 26.6548 39.0161 26.7868 39.096 26.9108C39.32 27.2627 39.696 27.4827 40.056 27.6747C40.452 27.8787 40.8919 27.9427 41.3199 28.0547C41.3759 28.0707 41.4359 28.0867 41.4919 28.1027L41.4999 28.1107Z" fill="#85A0C5"/>
</g>
</g>
<path d="M38.6641 28.3826C38.4161 28.8626 38.0722 29.2826 37.6722 29.6465C36.7283 30.5105 35.3083 30.4865 34.1564 30.1425C33.1885 29.8545 32.2845 29.2906 31.5086 28.6586C31.0646 28.2986 30.6886 27.8787 30.3407 27.4307C30.1567 27.1907 29.9447 26.9987 29.7207 26.8187C30.6486 27.3067 31.6126 27.7307 32.6085 28.0946C33.9284 28.5786 35.3163 28.7706 36.7163 28.6106C37.2962 28.5466 37.8842 28.3906 38.4241 28.1627C38.5801 28.0987 38.7321 28.0227 38.8761 27.9307C38.8121 28.0747 38.7481 28.2226 38.6681 28.3826H38.6641Z" fill="white"/>
<g style="mix-blend-mode:multiply">
<path d="M38.8721 27.9307C38.8081 28.0747 38.7441 28.2227 38.6641 28.3827C38.4161 28.8626 38.0721 29.2826 37.6721 29.6466C37.3802 29.9106 37.0482 30.0946 36.6922 30.2065C36.7242 30.1145 36.7522 30.0225 36.7762 29.9266C36.7922 29.8626 36.7322 29.8106 36.6722 29.8226C36.1163 29.9625 35.4883 30.0946 34.9003 30.0106C35.6643 29.8946 36.4442 29.7626 37.0802 29.3106C37.1522 29.2586 37.1202 29.1626 37.0362 29.1546C36.3482 29.0826 35.6523 29.1826 34.9643 29.0786C34.2124 28.9666 33.4764 28.8506 32.7485 28.6426C31.7285 28.3506 30.7486 27.7947 30.0566 26.9868C30.8806 27.4027 31.7285 27.7667 32.6005 28.0907C33.9204 28.5746 35.3083 28.7666 36.7082 28.6066C37.2882 28.5427 37.8761 28.3867 38.4161 28.1587C38.5721 28.0947 38.7241 28.0187 38.8681 27.9267L38.8721 27.9307Z" fill="#D1D3D4"/>
</g>
<g style="mix-blend-mode:multiply" opacity="0.6">
<g style="mix-blend-mode:multiply" opacity="0.6">
<path d="M39.1 30.7745C38.756 31.0945 38.408 31.3864 37.9681 31.5704C37.8801 31.6104 37.7881 31.6424 37.7001 31.6744C37.4561 31.7864 37.1921 31.8704 36.9001 31.9304C36.2162 32.0704 35.5522 32.0904 34.8923 31.9664C34.8803 31.9664 34.8683 31.9624 34.8563 31.9624C33.7563 31.8224 32.7004 31.4424 31.7925 30.8025C31.2965 30.4545 30.8325 30.0705 30.4126 29.6306C30.2966 29.5066 30.1726 29.3906 30.0486 29.2706C30.1646 29.4026 30.2846 29.5346 30.3966 29.6626C30.7725 30.0905 31.1405 30.4785 31.6005 30.8185C32.4644 31.4584 33.5204 31.9584 34.5683 32.2024C36.3682 32.6224 38.424 31.9584 39.452 30.4105C39.336 30.5465 39.208 30.6665 39.092 30.7745H39.1Z" fill="#85A0C5"/>
</g>
</g>
<path d="M47.6596 19.9192C47.2836 20.5152 46.7196 20.8351 46.4037 20.6352C46.0877 20.4352 46.1397 19.7872 46.5156 19.1952C46.8916 18.5993 47.4556 18.2793 47.7716 18.4793C48.0875 18.6793 48.0355 19.3272 47.6596 19.9192Z" fill="#322A2E"/>
<path d="M47.3516 19.0992C47.2556 19.2512 47.0996 19.3272 47.0036 19.2672C46.9076 19.2072 46.9076 19.0353 47.0076 18.8793C47.1036 18.7273 47.2596 18.6513 47.3556 18.7113C47.4516 18.7753 47.4476 18.9473 47.3516 19.0992Z" fill="white"/>
<path d="M38.3641 14.7635C38.0281 15.2955 37.5282 15.5795 37.2442 15.4035C36.9642 15.2235 37.0082 14.6515 37.3442 14.1195C37.6802 13.5916 38.1801 13.3036 38.4641 13.4836C38.7441 13.6636 38.7001 14.2355 38.3641 14.7675V14.7635Z" fill="#322A2E"/>
<path d="M38.092 14.0316C38.008 14.1676 37.864 14.2356 37.78 14.1796C37.696 14.1276 37.696 13.9716 37.784 13.8356C37.872 13.6996 38.012 13.6316 38.096 13.6836C38.18 13.7356 38.18 13.8916 38.092 14.0316Z" fill="white"/>
<path d="M46.4875 15.5395C47.1355 15.1955 47.9195 15.1115 48.6274 15.2635C49.0114 15.3475 49.6033 15.6555 49.7433 16.0634C49.8753 16.4514 49.7993 16.7114 49.6073 17.0674C49.5593 17.1514 49.4554 17.2554 49.3354 17.3394C49.2394 16.8594 48.9994 16.4074 48.6434 16.0634C48.3154 15.7435 47.8915 15.6275 47.4515 15.5595C47.1635 15.5155 46.8395 15.4915 46.5475 15.5315C46.5275 15.5355 46.5115 15.5395 46.4915 15.5435L46.4875 15.5395Z" fill="#314455"/>
<path d="M39.7801 12.6036C39.7041 12.1877 39.5721 11.7797 39.2441 11.4957C39.0001 11.2877 38.7201 11.1317 38.4001 11.1118C38.9401 10.8358 39.6721 10.8638 40.02 11.3797C40.196 11.6437 40.2 11.9677 40.108 12.2797C40.1 12.2957 40.092 12.3117 40.08 12.3277C40.08 12.3237 40.084 12.3237 40.088 12.3197C40.076 12.3437 40.052 12.3717 40.024 12.4037C40.024 12.4037 40.024 12.4077 40.02 12.4117C40.012 12.4197 40.004 12.4277 40 12.4317C39.996 12.4357 39.996 12.4397 39.992 12.4397C39.94 12.4877 39.92 12.5076 39.936 12.4916C39.892 12.5276 39.8401 12.5676 39.7881 12.6036H39.7801Z" fill="#314455"/>
<g style="mix-blend-mode:multiply" opacity="0.6">
<g style="mix-blend-mode:multiply" opacity="0.6">
<path d="M37.572 18.3793C37.196 18.7233 36.8081 18.9512 36.3241 19.1032C35.9881 19.2072 35.4082 19.1792 35.1922 18.8472C34.9242 18.4273 35.2122 18.0673 35.5962 17.8033C35.7321 17.5953 35.9161 17.4153 36.1321 17.2874C36.5041 17.0634 36.9841 16.7114 37.448 16.7474C38.524 16.8314 38.14 17.8633 37.576 18.3793H37.572Z" fill="#85A0C5"/>
</g>
</g>
<path d="M35.8364 14.8475C36.4284 15.5395 37.2283 16.4714 37.5803 16.9874C37.9083 17.4634 37.3803 18.1473 36.6883 18.5593C36.3884 18.7113 36.0404 18.7873 35.7044 18.7753C35.3164 18.7593 35.1524 18.4073 35.0844 18.0793C34.9645 17.4994 35.0764 16.8314 35.1684 16.2514C35.2324 15.8515 35.3524 15.4595 35.5284 15.0955C35.6204 14.9075 35.7244 14.8435 35.8324 14.8475H35.8364Z" fill="#EDE7CD"/>
<g style="mix-blend-mode:multiply">
<path fill-rule="evenodd" clip-rule="evenodd" d="M36.6883 18.5593C36.3884 18.7113 36.0404 18.7873 35.7044 18.7753C35.3164 18.7593 35.1524 18.4073 35.0844 18.0793C34.9645 17.4994 35.0764 16.8314 35.1684 16.2514C35.2324 15.8515 35.3524 15.4595 35.5284 15.0955C35.6204 14.9075 35.7244 14.8435 35.8324 14.8475C36.4244 15.5395 37.2243 16.4714 37.5763 16.9874C37.9043 17.4634 37.3763 18.1473 36.6843 18.5593H36.6883ZM36.6963 17.6634C36.7603 17.2234 36.4484 16.7594 36.3244 16.3514C36.2044 15.9675 36.1044 15.5475 35.8084 15.2595C35.7684 15.2235 35.7044 15.2275 35.6764 15.2795C35.5324 15.5355 35.4644 15.8075 35.4444 16.0875C35.3804 16.4034 35.3404 16.7274 35.3124 17.0394C35.2764 17.4314 35.2164 18.1033 35.5804 18.3793C36.0164 18.7153 36.6403 18.0593 36.7003 17.6634H36.6963Z" fill="#EDE7CD"/>
</g>
<path d="M34.0924 22.0311C33.7204 22.323 33.2764 22.551 32.8045 22.707C31.8765 23.011 30.8326 23.019 29.9686 22.623C26.2009 20.8951 27.9368 14.9275 29.5247 12.2877C29.8886 11.6837 30.8886 10.2358 30.8446 11.8477C30.8006 13.4356 31.5565 14.7715 32.5565 15.9474C33.3844 16.9194 34.5923 17.6873 35.1043 18.8992C35.6003 20.0832 35.0643 21.2751 34.0924 22.0311Z" fill="#EDE7CD"/>
<g style="mix-blend-mode:multiply">
<path fill-rule="evenodd" clip-rule="evenodd" d="M34.0924 22.0311C33.7204 22.323 33.2764 22.551 32.8045 22.707C31.8765 23.011 30.8326 23.019 29.9686 22.623C26.2009 20.8951 27.9368 14.9275 29.5247 12.2877C29.8886 11.6837 30.8886 10.2358 30.8446 11.8477C30.8006 13.4356 31.5565 14.7715 32.5565 15.9474C33.3844 16.9194 34.5923 17.6873 35.1043 18.8992C35.6003 20.0832 35.0643 21.2751 34.0924 22.0311ZM31.4445 18.3993C30.9366 17.4153 30.5406 16.3794 30.3046 15.2995C30.1766 14.7195 30.1126 14.1316 30.1006 13.5396C30.0886 12.9356 30.2246 12.3757 30.3046 11.7837C30.3166 11.6997 29.2407 13.1556 29.1007 14.0236C28.6167 15.3155 28.2168 16.6394 28.1488 18.0313C28.0768 19.5592 28.4847 21.9231 30.4646 21.8231C31.0806 21.7951 31.9725 21.4871 32.1885 20.8351C32.4725 19.9792 31.8165 19.1192 31.4445 18.3993Z" fill="#EDE7CD"/>
</g>
<path d="M28.8806 20.1751C28.1207 17.9633 28.7526 15.1795 29.7126 13.1276C29.7286 13.0956 29.8246 13.0476 29.8006 13.1076C28.8686 15.3555 28.6766 17.7193 28.9806 20.1152C28.9846 20.1512 28.8926 20.2191 28.8806 20.1751Z" fill="white"/>
<path d="M35.7242 16.7434C35.7202 16.7674 35.6362 16.8194 35.6362 16.7834C35.6402 16.5954 35.6482 16.4034 35.6642 16.2155C35.6682 16.1795 35.7602 16.1275 35.7562 16.1635C35.7442 16.3554 35.7562 16.5514 35.7202 16.7434H35.7242Z" fill="white"/>
<g style="mix-blend-mode:screen">
<g style="mix-blend-mode:screen">
<path d="M27.7048 16.0594C27.1169 16.4354 26.5049 16.7754 26.0969 17.3634C25.6409 18.0153 25.393 18.7353 25.145 19.4832C25.137 19.5112 25.045 19.5712 25.053 19.5192C25.225 18.6433 25.493 17.8593 26.0569 17.1634C26.5049 16.6154 27.0928 16.3354 27.6968 16.0034C27.7568 15.9714 27.7408 16.0314 27.7008 16.0554L27.7048 16.0594Z" fill="#90ADD3"/>
</g>
</g>
<g style="mix-blend-mode:screen">
<g style="mix-blend-mode:screen">
<path d="M43.0357 0.644393C41.0998 1.19236 39.8159 2.54028 39.484 4.52815C39.48 4.55615 39.38 4.62415 39.376 4.58015C39.268 2.43629 41.0679 0.872377 43.0637 0.592395C43.1077 0.584395 43.0517 0.640394 43.0357 0.644393Z" fill="#90ADD3"/>
</g>
</g>
<g style="mix-blend-mode:screen">
<g style="mix-blend-mode:screen">
<path d="M47.8235 21.9831C47.5795 21.7791 47.3195 21.5951 47.0475 21.4271C46.7876 21.2671 46.4996 21.1951 46.2316 21.0591C46.1996 21.0431 46.2756 20.9751 46.3036 20.9871C46.6356 21.1151 46.9636 21.1671 47.2795 21.3471C47.5035 21.4751 47.8555 21.6271 47.9835 21.8631C48.0155 21.9231 47.8755 22.0271 47.8235 21.9831Z" fill="#90ADD3"/>
</g>
</g>
<g style="mix-blend-mode:screen">
<g style="mix-blend-mode:screen">
<path d="M42.1519 8.49988C40.052 9.20784 38.4281 10.8597 36.4882 11.8917C36.4202 11.9277 36.4402 11.8597 36.4802 11.8357C38.3001 10.6518 40.032 9.03986 42.1639 8.45989C42.1959 8.45189 42.1639 8.49588 42.1479 8.49988H42.1519Z" fill="#90ADD3"/>
</g>
</g>
<g style="mix-blend-mode:screen">
<g style="mix-blend-mode:screen">
<path d="M33.3003 27.2587C31.8844 27.0908 30.2845 26.2668 29.1085 25.5228C28.4886 25.1309 27.9526 24.6629 27.3647 24.2229C26.9567 23.919 26.5247 23.659 26.1047 23.383C26.6127 23.643 27.1087 23.9229 27.5926 24.2189C29.1285 25.2549 30.6644 26.3268 32.4203 26.8908C32.7083 27.0107 33.0043 27.1428 33.3043 27.2587H33.3003Z" fill="#90ADD3"/>
</g>
</g>
<path d="M61.0026 17.8193C60.8626 17.9633 60.6826 18.1033 60.4826 18.2233C60.4066 18.2393 60.3266 18.2473 60.2466 18.2513C59.4227 18.2833 59.6227 17.1674 59.8347 16.6994C60.0306 16.2674 60.3826 16.0035 60.7706 15.7635C60.9066 15.6795 61.1706 15.5235 61.4225 15.4435C62.2505 15.4475 61.6465 17.1434 60.9986 17.8193H61.0026Z" fill="#EDE7CD"/>
<g style="mix-blend-mode:multiply">
<path d="M61.5505 16.9834C61.3985 17.3074 61.2025 17.6113 61.0025 17.8193C60.8626 17.9633 60.6826 18.1033 60.4826 18.2233C60.4066 18.2393 60.3266 18.2473 60.2466 18.2513C59.7986 18.2673 59.6546 17.9473 59.6506 17.5754C59.8986 17.1514 60.1066 16.7034 60.4466 16.3434C60.7226 16.0554 61.1745 15.8075 61.4185 16.2514C61.5345 16.4634 61.5585 16.7354 61.5505 16.9834Z" fill="#EDE7CD"/>
</g>
<path d="M59.1826 20.4231C58.5227 20.0032 59.8106 17.0193 60.6545 16.4474C61.4985 15.8754 61.6945 17.7953 61.3825 18.7232C61.0665 19.6512 59.8186 20.8311 59.1826 20.4231Z" fill="#EDE7CD"/>
<g style="mix-blend-mode:multiply">
<path d="M61.3825 18.7233C61.0666 19.6512 59.8186 20.8311 59.1827 20.4231C58.9627 20.2832 58.9587 19.8592 59.0867 19.3312C59.0907 19.4472 59.1027 19.5592 59.1267 19.6752C59.2147 20.0952 59.6107 19.9272 59.8386 19.7472C60.3586 19.3352 60.7706 18.6793 61.0466 18.0913C61.2665 17.6273 61.3585 17.1314 61.3225 16.6394C61.5745 17.1314 61.5825 18.1273 61.3825 18.7233Z" fill="#EDE7CD"/>
</g>
<path d="M15.0616 12.6357C14.7616 11.7037 15.8015 11.3517 16.6375 11.9317C17.4734 12.5117 18.3734 15.2275 17.7094 15.6395C17.0694 16.0395 15.3655 13.5636 15.0616 12.6317V12.6357Z" fill="#EDE7CD"/>
<g style="mix-blend-mode:multiply">
<path d="M17.7095 15.6434C17.1855 15.9714 15.9456 14.3675 15.3496 13.2676C15.4256 13.1116 15.5176 12.9636 15.6336 12.8316C16.1456 12.2677 16.7255 13.0476 16.9815 13.4636C17.0295 13.5436 17.1655 13.4916 17.1335 13.3996C16.9935 12.9356 16.8615 12.3397 16.5735 11.8957C16.5935 11.9077 16.6135 11.9197 16.6335 11.9317C17.4695 12.5117 18.3694 15.2275 17.7055 15.6395L17.7095 15.6434Z" fill="#EDE7CD"/>
</g>
<path d="M15.6736 15.4715C15.3696 14.5395 15.5896 12.6237 16.4255 13.2076C17.2615 13.7916 18.5174 16.7874 17.8534 17.1993C17.2135 17.5993 15.9775 16.4034 15.6736 15.4715Z" fill="#EDE7CD"/>
<g style="mix-blend-mode:multiply">
<path d="M17.8533 17.1993C17.2134 17.5993 15.9774 16.4034 15.6735 15.4715C15.4655 14.8275 15.5015 13.7156 15.8254 13.2796C15.3655 14.3075 15.8054 15.8714 16.7294 16.4554C17.3093 16.8194 17.6013 16.2594 17.6413 15.7314C17.6573 15.5355 17.6613 15.3395 17.6533 15.1435C18.0213 16.0594 18.2013 16.9834 17.8533 17.1993Z" fill="#EDE7CD"/>
</g>
<g style="mix-blend-mode:screen">
<g style="mix-blend-mode:screen">
<path d="M35.1883 55.0529C32.3085 57.2368 29.9846 59.7966 27.9927 62.8044C27.0928 64.1604 26.3008 65.6443 25.6689 67.1442C25.0289 68.6521 24.6849 70.244 24.081 71.7559C24.069 71.7839 23.981 71.8479 24.001 71.7879C24.505 70.116 24.7849 68.3641 25.5449 66.7762C26.2848 65.2283 27.0488 63.7244 28.0007 62.2965C29.9486 59.3767 32.3165 56.9888 35.1923 54.9889C35.2483 54.9489 35.2203 55.037 35.1923 55.057L35.1883 55.0529Z" fill="#90ADD3"/>
</g>
</g>
<g style="mix-blend-mode:screen">
<g style="mix-blend-mode:screen">
<path d="M10.5179 58.3207C9.23795 59.8086 7.73405 61.0845 6.50213 62.6204C5.24621 64.1843 4.02629 65.7442 3.08635 67.5201C3.06635 67.5561 2.97835 67.5961 3.01035 67.5241C3.7743 65.6922 4.92623 64.2203 6.16215 62.6924C6.82211 61.8765 7.52606 61.1085 8.27001 60.3645C8.98597 59.6486 9.79791 59.0166 10.4859 58.2727C10.5379 58.2207 10.5579 58.2767 10.5219 58.3207H10.5179Z" fill="#90ADD3"/>
</g>
</g>
<g style="mix-blend-mode:screen">
<g style="mix-blend-mode:screen">
<path d="M24.0328 44.2857C22.2169 48.0734 20.569 52.0092 20.993 56.3169C20.997 56.3649 20.873 56.4809 20.861 56.4249C20.1211 52.0612 21.9049 48.0174 23.9688 44.2857C23.9848 44.2537 24.0608 44.2217 24.0328 44.2817V44.2857Z" fill="#90ADD3"/>
</g>
</g>
<g style="mix-blend-mode:screen">
<g style="mix-blend-mode:screen">
<path d="M27.5208 32.0904C27.0168 33.1023 26.3808 34.0863 25.8089 35.0582C25.0769 36.3062 24.481 37.6741 23.993 39.03C23.985 39.054 23.905 39.122 23.917 39.058C24.173 37.7061 24.6609 36.4421 25.3809 35.2582C26.0369 34.1823 26.8208 33.1743 27.4648 32.0944C27.4808 32.0704 27.5488 32.0384 27.5208 32.0904Z" fill="#90ADD3"/>
</g>
</g>
<g style="mix-blend-mode:screen">
<g style="mix-blend-mode:screen">
<path d="M18.9893 33.1623C17.0414 31.9624 15.4535 30.3505 13.8456 28.7546C12.1417 27.0627 10.6378 25.1388 9.61387 22.963C9.59787 22.931 9.66987 22.851 9.68987 22.887C10.8858 25.0229 12.5257 26.9387 14.2456 28.6666C15.7935 30.2185 17.3134 31.7224 19.0773 33.0463C19.1173 33.0743 19.0253 33.1863 18.9853 33.1623H18.9893Z" fill="#90ADD3"/>
</g>
</g>
<g style="mix-blend-mode:screen">
<g style="mix-blend-mode:screen">
<path d="M56.8188 24.2269C55.8709 25.6348 54.847 26.9227 53.7271 28.1946C52.4231 29.6785 50.6712 30.9065 49.1513 32.1584C49.1033 32.1984 49.0433 32.3584 49.1513 32.2824C52.2071 30.1385 55.199 27.6227 56.8868 24.2189C56.9188 24.1549 56.8388 24.1949 56.8228 24.2229L56.8188 24.2269Z" fill="#90ADD3"/>
</g>
</g>
</svg>
