<svg width="86" height="80" viewBox="0 0 86 80" fill="none" xmlns="http://www.w3.org/2000/svg">
<path d="M48.2524 53.9371C47.2003 55.4052 45.8162 56.6693 44.2361 57.6014C43.392 58.1014 42.4839 58.4814 41.6439 58.9895C41.1878 59.2655 40.7638 59.5615 40.3597 59.8856C39.4117 61.3777 38.7036 62.8738 38.9636 64.766C39.2957 67.1622 40.0117 69.5184 40.5998 71.8666C41.2398 72.3947 41.8999 73.1147 41.6919 73.8388C41.4158 74.8028 39.9077 74.8069 39.1196 74.9989C37.6275 75.3629 36.2234 75.9669 34.7553 76.395C33.2391 76.839 31.683 77.215 30.1429 77.5751C27.3026 78.2431 24.4584 78.5152 21.6262 77.6311C20.9021 77.4071 19.506 76.9991 19.474 76.055C19.466 75.827 19.518 75.6309 19.61 75.4549C19.3499 75.1229 19.1779 74.7389 19.2539 74.3068C19.3739 73.6348 19.806 73.0147 20.394 72.6347C21.0141 72.2346 21.7542 72.0066 22.5022 72.1506C23.3543 72.3146 24.0864 72.7427 24.8984 73.0147C27.0306 73.7228 29.3468 73.4507 31.515 73.0507C33.4632 72.6907 35.3433 72.2066 37.1955 71.5546C36.9115 69.5184 36.4114 67.5302 35.6073 65.6061C35.2073 64.642 34.6913 63.7579 34.1512 62.8738C33.3112 62.0497 32.4431 61.1897 31.667 60.3456C30.5069 59.0815 29.5028 58.2534 28.3627 56.9733C27.3586 55.8452 26.3506 54.1451 25.9945 52.6649C25.6585 51.2568 26.1105 49.7647 26.7666 48.5086C29.3908 43.4802 34.9033 40.7439 39.8837 38.3117C39.9637 38.2717 40.0277 38.3997 39.9557 38.4437C39.5677 38.6878 39.1756 38.9278 38.7796 39.1638C39.5157 38.7678 40.2877 38.4437 41.1158 38.4277C42.4799 38.3957 43.688 39.1198 44.6321 40.0239C45.6202 40.972 46.4003 42.08 47.2403 43.1481C47.8724 43.9442 48.5885 44.7483 49.0685 45.6564C48.9445 45.2483 48.7845 44.8443 48.5965 44.4442C48.5525 44.3522 48.7125 44.2722 48.7605 44.3602C50.5246 47.4485 50.3166 51.0288 48.2364 53.9291L48.2524 53.9371Z" fill="#725E51"/>
<g style="mix-blend-mode:multiply" opacity="0.6">
<path d="M48.2525 53.9371C47.2004 55.4052 45.8163 56.6693 44.2362 57.6014C43.3921 58.1014 42.484 58.4815 41.644 58.9895C41.1879 59.2655 40.7639 59.5615 40.3598 59.8856C39.4118 61.3777 38.7037 62.8739 38.9637 64.766C39.2958 67.1622 40.0118 69.5184 40.5999 71.8666C41.2399 72.3947 41.9 73.1147 41.692 73.8388C41.4159 74.8028 39.9078 74.8069 39.1197 74.9989C37.6276 75.3629 36.2235 75.967 34.7554 76.395C33.2392 76.839 31.6831 77.215 30.143 77.5751C27.3027 78.2431 24.4585 78.5152 21.6263 77.6311C20.9022 77.4071 19.5061 76.9991 19.4741 76.055C19.4661 75.827 19.5181 75.6309 19.6101 75.4549C19.398 75.1869 19.246 74.8789 19.238 74.5428C19.258 74.5828 19.3141 74.5828 19.3461 74.5548C19.4861 74.4268 19.5301 74.2588 19.5901 74.0868C19.7141 73.7308 20.0021 73.4387 20.3141 73.2267C20.8862 72.8387 21.6223 72.7747 22.2983 72.8467C23.0024 72.9187 23.6864 73.1627 24.3545 73.3907C25.0585 73.6308 25.7826 73.8268 26.5187 73.9428C27.7188 74.1308 28.9029 73.9708 30.079 73.7588C28.4068 74.1708 26.7227 74.4028 24.9745 74.0548C24.4145 73.9428 23.9224 73.7468 23.3944 73.5347C22.9704 73.3627 22.5463 73.2507 22.0823 73.2547C21.4342 73.2587 20.7302 73.4988 20.3501 74.0188C20.3221 74.0068 20.2901 74.0108 20.2701 74.0468C20.2261 74.1308 20.2021 74.2068 20.1741 74.2988C20.1621 74.3508 20.2061 74.3908 20.2581 74.3788C20.4861 74.3308 20.6542 74.1868 20.8462 74.0668C21.1302 73.8908 21.5022 73.8228 21.8263 73.7908C22.5183 73.7188 23.1744 73.9108 23.8384 74.0748C25.0865 74.3908 26.3186 74.6109 27.6188 74.5229C28.9109 74.4349 30.199 74.1388 31.4831 73.9668C31.5991 73.9508 31.7111 73.9348 31.8311 73.9188C31.115 74.1068 30.399 74.2908 29.6829 74.4668C28.8709 74.6669 28.0548 74.8869 27.2147 74.9349C26.5107 74.9749 25.8026 74.8829 25.1185 74.7348C23.4544 74.3668 20.9142 73.4427 19.8061 75.2789C19.8021 75.2789 19.8021 75.2829 19.8021 75.2869C19.3861 75.9429 20.7702 76.407 21.2262 76.559C22.6143 77.0111 24.1425 77.039 25.5826 76.935C27.5627 76.795 29.5429 76.479 31.4711 76.023C32.2952 75.827 33.1072 75.5749 33.9193 75.3269C33.9313 75.3349 33.9513 75.3389 33.9713 75.3309C34.0633 75.2949 34.1553 75.2629 34.2513 75.2309C34.3033 75.2149 34.3513 75.1989 34.4034 75.1869C34.8354 75.0629 35.2714 74.9589 35.7074 74.8469C35.9595 74.7949 36.2075 74.7428 36.4595 74.6948C36.8595 74.6148 37.2556 74.5308 37.6476 74.4308C37.9837 74.3428 38.3077 74.1828 38.6477 74.1188C39.2158 74.0108 40.5759 74.2868 40.5919 73.4108C40.5999 72.9667 40.1958 72.7107 39.8078 72.5907C39.1837 72.3946 38.3997 72.6307 37.8916 72.1586C37.7476 72.0226 37.6076 71.7826 37.3956 71.7266C37.1516 71.6626 36.8915 71.7306 36.6555 71.7906C36.4475 71.8426 36.2395 71.8946 36.0355 71.9426C36.4275 71.8186 36.8195 71.6906 37.2116 71.5546C36.9276 69.5184 36.4275 67.5302 35.6235 65.6061C35.2234 64.642 34.7074 63.7579 34.1673 62.8738C33.3272 62.0497 32.4592 61.1897 31.6831 60.3456C30.523 59.0815 29.5189 58.2534 28.3788 56.9733C27.3747 55.8452 26.3666 54.1451 26.0106 52.665C25.6746 51.2568 26.1266 49.7647 26.7827 48.5086C27.4827 47.1605 28.3948 45.9804 29.4469 44.9243C28.3508 46.6725 27.7308 48.6246 28.2588 50.7488C28.5908 52.0849 29.3029 53.381 30.395 54.2731C31.3031 55.0132 32.4352 55.4492 33.5873 55.6812C36.1115 56.1933 38.8517 55.7892 41.2479 54.9212C42.464 54.4811 43.5721 53.8691 44.6122 53.117C46.0523 52.0769 47.3885 50.7408 48.0725 49.1087C48.7206 47.5725 48.6526 45.9604 48.2565 44.3882C48.5685 44.7923 48.8566 45.2083 49.0926 45.6524C48.9686 45.2443 48.8086 44.8403 48.6206 44.4403C48.5766 44.3482 48.8566 44.7123 48.9086 44.8003C50.6767 47.8886 50.3407 51.0248 48.2605 53.9291L48.2525 53.9371Z" fill="#725E51"/>
</g>
<path d="M28.8667 74.6949C28.0986 74.8869 27.1426 75.1149 26.3465 75.0589C25.4824 74.9989 24.6743 74.7389 23.8423 74.5349C22.2421 74.1428 20.274 74.1708 19.5779 75.899C19.5739 75.911 19.5539 75.903 19.5579 75.891C19.5699 75.743 19.6019 75.603 19.6499 75.471C19.6459 75.463 19.6459 75.455 19.6459 75.4469C19.7779 74.2468 20.582 73.1027 21.9221 73.0947C22.8582 73.0907 23.7223 73.6988 24.6024 73.9308C25.7785 74.2388 27.1986 74.3228 28.5387 74.0388C28.5747 74.0308 31.3589 73.4428 28.5547 74.1108C26.9265 74.4989 24.9824 74.3628 23.4102 73.7348C22.5702 73.3988 21.4941 73.0067 20.69 73.6548C20.21 74.0428 19.9659 74.5549 19.8299 75.1189C20.378 74.3229 21.6101 73.9548 22.5262 74.0348C23.5423 74.1268 24.4823 74.4909 25.4744 74.6829C26.5905 74.9029 28.6467 74.8149 30.6068 74.2468C30.6548 74.2348 28.9227 74.6789 28.8627 74.6949H28.8667Z" fill="#4C403E"/>
<path d="M33.8393 73.5588C32.4872 73.8508 31.1711 74.2908 29.8429 74.6709C28.7508 74.9829 27.6067 75.4389 26.4586 75.4669C25.2185 75.4989 24.0744 75.0549 22.8583 74.8709C21.6662 74.6869 20.7382 74.7749 19.9501 75.7389C19.9381 75.7549 19.9021 75.743 19.9101 75.723C20.5701 73.5228 23.7624 74.7268 25.2585 74.9829C26.8427 75.2549 28.2428 74.8509 29.7669 74.4628C31.1111 74.1228 32.4592 73.7428 33.8233 73.4827C33.8713 73.4747 34.9194 73.3308 33.8393 73.5628V73.5588Z" fill="#A58B76"/>
<path d="M34.9115 72.4546C33.5353 72.7826 32.1672 73.2547 30.7671 73.4707C29.439 73.6747 28.0789 73.7427 26.7428 73.5987C25.9947 73.5187 25.2506 73.3987 24.5266 73.1947C23.9665 73.0387 23.4185 72.8227 22.8464 72.7187C21.5383 72.4786 20.5102 72.7866 19.5942 73.7307C19.5742 73.7507 19.5461 73.7307 19.5541 73.7027C19.7982 73.0907 20.8142 72.2186 21.8303 72.2026C23.0784 72.1866 24.4266 72.9707 25.6267 73.2187C27.2548 73.5547 28.8429 73.5547 30.4951 73.3067C31.9512 73.0867 34.3594 72.5026 36.2396 72.0066C36.2796 71.9946 34.9595 72.4426 34.9115 72.4546Z" fill="#A58B76"/>
<path d="M29.1227 74.1108C27.5506 74.4468 25.9104 74.5508 24.3343 74.1988C23.5622 74.0228 22.7982 73.6227 22.0101 73.5427C21.15 73.4587 20.638 73.8948 20.0739 74.4588C20.0619 74.4708 20.0419 74.4548 20.0499 74.4428C20.758 73.3587 21.7901 73.0987 23.0022 73.5267C23.9863 73.8708 25.0143 74.1508 26.0624 74.2308C27.1185 74.3148 28.0706 74.2268 29.1067 74.0548C30.6068 73.8028 29.1547 74.1068 29.1227 74.1148V74.1108Z" fill="#A58B76"/>
<g style="mix-blend-mode:multiply" opacity="0.6">
<path d="M48.2524 53.9371C47.2003 55.4052 45.8162 56.6693 44.2361 57.6014C43.392 58.1014 42.4839 58.4814 41.6439 58.9895C41.1878 59.2655 40.7638 59.5615 40.3597 59.8856C39.4117 61.3777 38.7036 62.8738 38.9636 64.766C39.2957 67.1622 40.0117 69.5184 40.5998 71.8666C41.2398 72.3947 41.8999 73.1147 41.6919 73.8388C41.4158 74.8028 39.9077 74.8069 39.1196 74.9989C37.6275 75.3629 36.2234 75.9669 34.7553 76.395C33.2391 76.839 31.683 77.215 30.1429 77.5751C27.3026 78.2431 24.4584 78.5152 21.6262 77.6311C20.9021 77.4071 19.506 76.9991 19.474 76.055C19.466 75.827 19.518 75.6309 19.61 75.4549C19.3499 75.1229 19.1779 74.7389 19.2539 74.3068C19.3739 73.6348 19.806 73.0147 20.394 72.6347C21.0141 72.2346 21.7542 72.0066 22.5022 72.1506C23.3543 72.3146 24.0864 72.7427 24.8984 73.0147C27.0306 73.7228 29.3468 73.4507 31.515 73.0507C33.4632 72.6907 35.3433 72.2066 37.1955 71.5546C36.9115 69.5184 36.4114 67.5302 35.6073 65.6061C35.2073 64.642 34.6913 63.7579 34.1512 62.8738C33.3112 62.0497 32.4431 61.1897 31.667 60.3456C30.5069 59.0815 29.5028 58.2534 28.3627 56.9733C27.3586 55.8452 26.3506 54.1451 25.9945 52.6649C25.6585 51.2568 26.1105 49.7647 26.7666 48.5086C29.3908 43.4802 34.9033 40.7439 39.8837 38.3117C39.9637 38.2717 40.0277 38.3997 39.9557 38.4437C39.5677 38.6878 39.1756 38.9278 38.7796 39.1638C39.5157 38.7678 40.2877 38.4437 41.1158 38.4277C42.4799 38.3957 43.688 39.1198 44.6321 40.0239C45.6202 40.972 46.4003 42.08 47.2403 43.1481C47.8724 43.9442 48.5885 44.7483 49.0685 45.6564C48.9445 45.2483 48.7845 44.8443 48.5965 44.4442C48.5525 44.3522 48.7125 44.2722 48.7605 44.3602C50.5246 47.4485 50.3166 51.0288 48.2364 53.9291L48.2524 53.9371Z" fill="#725E51"/>
</g>
<path d="M22.3781 62.3977C22.2741 63.1138 21.8501 64.1379 20.93 63.8338C20.794 63.7898 20.67 63.7259 20.546 63.6539C20.31 64.2419 19.5819 64.4579 18.9259 64.1179C18.7938 64.0499 18.6658 63.9699 18.5378 63.8819C18.2378 64.1699 17.8577 64.2899 17.3577 64.1579C16.6816 63.9779 16.0776 63.3098 15.8216 62.6817C15.4696 61.8177 15.7256 61.0536 16.0496 60.2136C16.4056 59.2895 16.8337 58.3974 17.2177 57.4853C17.2217 57.4253 17.2297 57.3653 17.2337 57.3053C17.2737 56.6853 17.2697 56.0012 16.8537 55.4971C16.5096 55.0771 16.0936 54.7331 15.7296 54.3331C14.1694 52.6049 12.0973 51.4528 11.2452 49.1686C10.3211 46.7004 10.6291 43.8121 11.1572 41.2839C11.6812 38.7637 12.6813 36.4995 14.1334 34.3833C14.1534 34.3553 14.1774 34.3553 14.2015 34.3633C16.1776 33.9193 16.7537 36.8635 17.0057 38.2357C17.3537 40.1118 17.7457 41.972 18.2138 43.8241C18.5698 45.2443 18.9218 46.6924 18.9939 48.1605C19.2979 48.9606 19.5699 49.7767 19.7819 50.6087C20.1019 51.8728 20.35 53.1049 19.8619 54.3571C19.5939 55.0411 19.0418 56.0172 19.5539 56.7053C19.8299 57.0773 20.1899 57.3973 20.386 57.8214C20.65 58.3854 20.63 59.0055 20.53 59.6095C20.466 60.0015 20.434 60.3696 20.43 60.7376C20.582 60.8216 20.726 60.9256 20.854 61.0296C20.858 61.0336 20.862 61.0376 20.862 61.0376C20.994 60.6776 21.206 60.3775 21.5461 60.3255C21.8661 60.2775 22.1421 60.7096 22.2381 60.9496C22.4181 61.4017 22.4422 61.9217 22.3741 62.3977H22.3781Z" fill="#725E51"/>
<g style="mix-blend-mode:multiply" opacity="0.6">
<path d="M22.3781 62.3978C22.2741 63.1138 21.8501 64.1379 20.93 63.8339C20.794 63.7899 20.67 63.7259 20.546 63.6539C20.31 64.2419 19.5819 64.458 18.9258 64.1179C18.7938 64.0499 18.6658 63.9699 18.5378 63.8819C18.2378 64.1699 17.8577 64.2899 17.3577 64.1579C16.6816 63.9779 16.0776 63.3098 15.8216 62.6818C15.6816 62.3377 15.6416 62.0097 15.6576 61.6857C15.6936 61.7257 15.7296 61.7617 15.7696 61.7937C15.8856 62.3938 16.1296 62.9698 16.6296 63.2418C17.3777 63.6499 17.3097 62.4458 17.2057 61.7137C17.4857 62.3578 17.8938 63.0618 18.6178 63.1498C18.9738 63.1938 19.2299 63.0458 19.3659 62.8138C19.6579 62.6098 19.4219 61.9297 19.4179 61.5497C19.7459 61.8657 19.9419 62.2898 20.318 62.5658C20.37 62.6018 20.434 62.5418 20.422 62.4858C20.198 61.5417 19.3019 60.7296 19.4459 59.7055C19.4979 59.3335 19.7619 58.6654 19.5539 58.2774C19.5419 57.5533 19.0379 57.3653 18.8458 56.6013C18.7538 56.2292 18.6818 55.8572 18.6538 55.4772C18.6178 55.0211 18.6698 54.5651 18.6498 54.113C18.5178 51.1008 15.8576 48.9606 14.1814 46.7244C13.7334 46.1244 13.3334 45.4883 13.0213 44.8083C12.6093 43.9122 12.3973 42.9081 12.2333 41.944C12.0492 40.8559 12.0213 39.7278 12.2173 38.6357C12.2733 38.3197 12.4053 37.9077 12.3533 37.5636C12.8413 36.4635 13.4334 35.4074 14.1334 34.3874C14.1534 34.3593 14.1774 34.3594 14.2014 34.3674C16.1776 33.9233 16.7536 36.8676 17.0057 38.2397C17.3537 40.1158 17.7457 41.976 18.2138 43.8282C18.5698 45.2483 18.9218 46.6964 18.9938 48.1645C19.2979 48.9646 19.5699 49.7807 19.7819 50.6127C20.1019 51.8769 20.35 53.109 19.8619 54.3611C19.5939 55.0451 19.0418 56.0212 19.5539 56.7093C19.8299 57.0813 20.1899 57.4013 20.386 57.8253C20.65 58.3894 20.63 59.0095 20.53 59.6135C20.466 60.0056 20.434 60.3736 20.43 60.7416C20.582 60.8256 20.726 60.9296 20.854 61.0336C20.858 61.0376 20.862 61.0416 20.862 61.0416C20.994 60.6816 21.206 60.3816 21.5461 60.3296C21.8661 60.2816 22.1421 60.7136 22.2381 60.9536C22.4181 61.4057 22.4421 61.9257 22.3741 62.4018L22.3781 62.3978Z" fill="#725E51"/>
</g>
<path d="M84.7594 75.5869C83.8474 75.4989 82.9513 75.0828 82.0392 74.9268C81.0351 74.7548 80.023 74.6868 79.007 74.6868C77.0148 74.6908 75.0346 74.8828 73.0704 75.1908C66.3538 76.2429 59.1252 77.8751 55.6729 70.2824C53.7368 66.026 53.5928 59.8575 49.8724 56.7813C48.7123 56.8933 47.5562 57.0773 46.4201 57.3373C44.296 57.8213 42.2358 58.5214 40.1356 59.1055C39.3075 59.4295 38.4395 59.6775 37.6194 59.8775C36.3233 60.1855 35.0312 60.3296 33.695 60.2536C31.3788 60.1256 29.0707 59.5655 27.1025 58.2934C23.7902 56.1572 22.4301 52.3929 20.2899 49.2806C20.2219 49.1766 20.1499 49.0726 20.0819 48.9686C19.5658 48.8646 19.0458 48.6806 18.5018 48.3925C17.2416 47.7285 15.9535 46.9564 14.9694 45.9083C13.2053 44.0282 12.5292 41.624 12.9893 39.2238C12.8533 39.5278 12.7412 39.8438 12.6612 40.1758C12.6452 40.2398 12.5452 40.2398 12.5412 40.1678C12.5412 40.0158 12.5532 39.8598 12.5732 39.7078C12.3252 38.2557 12.3892 36.5995 12.9933 35.2434C13.2093 34.7594 13.5173 34.2713 13.8974 33.8433C13.3973 34.2593 13.0213 34.7594 12.8253 35.3914C12.8133 35.4274 12.7492 35.4354 12.7532 35.3874C12.7652 35.0434 12.8613 34.7034 13.0173 34.3833C13.2533 33.5033 13.6613 32.5072 14.2374 31.6391C14.1254 31.7311 14.0134 31.8271 13.8974 31.9231C13.8653 31.9511 13.8133 31.9071 13.8333 31.8711C13.9693 31.6431 14.1374 31.4071 14.3294 31.1791C14.3134 31.1511 14.3054 31.111 14.3294 31.083C14.9134 30.311 15.3335 29.5189 15.6095 28.6949C15.6975 27.5748 15.3335 26.5747 14.9214 25.5186C14.5854 24.6625 14.2134 23.7144 14.3454 22.7744C14.5734 21.1742 15.8375 19.9741 17.2456 19.31C18.6618 18.646 20.4699 18.302 21.942 18.998C22.7021 19.3581 22.8501 20.6302 22.9981 21.3422C23.0061 21.3782 23.0101 21.4142 23.0181 21.4502C24.2662 23.8264 26.2504 25.7666 28.5026 27.2587C29.9667 28.2268 31.5308 29.0669 33.183 29.6629C33.823 29.8949 34.4711 30.087 35.1232 30.263C35.6872 30.127 36.2433 29.975 36.7953 29.7949C38.5155 29.2309 40.1436 28.3908 41.9157 27.9908C43.4719 27.6348 45.264 27.4107 46.7882 28.0428C48.2603 28.6588 49.4444 29.7669 50.5325 30.915C51.7646 32.2192 53.0207 33.5153 54.0928 34.9594C54.8249 35.9435 55.5129 36.9716 56.153 38.0277C56.577 38.6437 56.969 39.2798 57.3371 39.8958C58.2011 41.3399 58.9532 42.8761 59.5213 44.4562C60.7814 47.9525 61.1854 51.6408 61.3094 55.3371C61.4494 59.3735 61.2574 63.4138 61.2574 67.4542C61.2574 68.7663 61.1694 70.1024 61.7614 71.2105C62.2775 71.6745 62.8816 72.0626 63.5776 72.3706C65.5778 73.2547 67.654 73.2907 69.8062 73.2587C72.5384 73.2147 75.2746 73.0787 78.0069 73.1467C80.2271 73.2027 82.4433 73.5627 84.3674 74.7188C84.5954 74.8028 84.8194 74.9028 85.0234 75.0308C85.3235 75.2188 85.0435 75.6229 84.7635 75.5949L84.7594 75.5869Z" fill="#725E51"/>
<g style="mix-blend-mode:multiply" opacity="0.6">
<path d="M84.9155 75.5589C84.8675 75.5789 84.8155 75.5909 84.7635 75.5829C83.8514 75.4949 82.9553 75.0789 82.0433 74.9229C81.0392 74.7509 80.0271 74.6828 79.011 74.6828C77.0189 74.6868 75.0387 74.8788 73.0745 75.1869C66.3579 76.239 59.1293 77.8711 55.677 70.2784C53.7409 66.0221 53.5968 59.8536 49.8765 56.7773C48.7164 56.8893 47.5603 57.0733 46.4242 57.3334C44.3 57.8174 42.2399 58.5175 40.1397 59.1015C39.3116 59.4255 38.4435 59.6735 37.6235 59.8735C36.3274 60.1816 35.0352 60.3256 33.6991 60.2496C31.3829 60.1216 29.0747 59.5615 27.1066 58.2894C23.7943 56.1532 22.4342 52.3889 20.294 49.2767C20.226 49.1727 20.154 49.0686 20.086 48.9646C19.5699 48.8606 19.0499 48.6766 18.5058 48.3886C17.2457 47.7245 15.9576 46.9525 14.9735 45.9044C13.2094 44.0242 12.5333 41.62 12.9934 39.2198C12.8573 39.5238 12.7453 39.8399 12.6653 40.1719C12.6493 40.2359 12.5493 40.2359 12.5453 40.1639C12.5453 40.0119 12.5573 39.8559 12.5773 39.7038C12.5453 39.5198 12.5213 39.3278 12.4973 39.1398C12.7413 38.3117 13.0573 37.5037 13.5094 36.7716C13.1774 37.8437 13.0974 38.9838 13.2814 40.0959C13.5054 41.444 14.2375 42.5481 15.2135 43.4762C16.1496 44.3682 17.3377 44.9763 18.6578 44.7243C19.6979 44.5243 20.31 43.6002 20.826 42.7561C20.898 43.1401 20.85 43.5162 20.786 43.9002C20.774 43.9762 20.874 44.0322 20.914 43.9562C22.4502 41.1 22.0701 37.7517 22.8182 34.6754C22.8542 35.3755 23.1142 36.0235 23.6343 36.5476C24.3263 37.2436 25.3144 37.5957 26.2505 37.8237C28.4507 38.3597 30.8069 38.2837 33.0471 38.0917C33.6111 38.0437 34.1712 37.9717 34.7272 37.8917C34.7792 38.2317 34.8312 38.5718 34.9232 38.9038C35.0873 39.4958 35.5033 39.9959 36.0713 40.2319C36.6554 40.4759 37.3474 40.3759 37.9515 40.2759C38.7876 40.1359 39.6276 39.9599 40.4517 39.7559C43.0799 39.1078 45.6682 38.1437 48.0964 36.8996C49.7645 37.3236 51.3406 38.0797 52.5967 39.2238C53.7889 40.7639 54.6689 42.5041 55.421 44.3042C56.2291 46.2324 56.9851 48.1606 57.3212 50.2367C57.6652 52.3809 57.6692 54.5611 57.7772 56.7213C57.8812 58.8455 57.9012 60.9777 58.0572 63.0978C58.2612 65.8741 58.7693 68.9224 60.4734 71.2106C61.1975 72.1826 62.1976 73.0147 63.3577 73.3947C63.5497 73.4587 63.7457 73.5067 63.9417 73.5467C65.1618 74.0628 66.538 74.2028 67.8541 74.2548C69.9542 74.3348 72.0304 74.1748 74.1186 73.9708C76.3348 73.7588 78.583 73.5747 80.7912 73.9468C82.2753 74.1948 83.6834 74.7309 84.9195 75.5589H84.9155Z" fill="#725E51"/>
</g>
<g style="mix-blend-mode:multiply" opacity="0.6">
<path d="M14.9215 25.5186C14.5854 24.6625 14.2134 23.7144 14.3454 22.7744C14.5734 21.1742 15.8375 19.9741 17.2457 19.31C18.6618 18.646 20.4699 18.302 21.9421 18.998C22.7021 19.3581 22.8501 20.6302 22.9982 21.3422C23.0062 21.3782 23.0101 21.4142 23.0181 21.4502C23.2822 21.9503 23.5782 22.4303 23.9022 22.8904C23.5662 23.8464 22.5901 24.7105 21.93 25.2906C20.87 26.2266 19.7179 26.9987 18.4898 27.6948C17.3697 28.3308 16.2176 28.9349 15.1895 29.7109C15.3575 29.3789 15.4975 29.0389 15.6135 28.6949C15.7015 27.5748 15.3375 26.5747 14.9255 25.5186H14.9215Z" fill="#725E51"/>
</g>
<path d="M84.6394 75.5669C83.7713 75.4549 82.9113 75.0749 82.0392 74.9229C81.0351 74.7509 80.023 74.6828 79.0069 74.6828C77.0148 74.6868 75.0346 74.8788 73.0704 75.1869C66.3538 76.2389 59.1252 77.8711 55.6729 70.2784C53.7368 66.0221 53.5928 59.8536 49.8724 56.7773C48.7123 56.8893 47.5562 57.0733 46.4201 57.3334C44.296 57.8174 42.2358 58.5174 40.1356 59.1015C39.3075 59.4255 38.4394 59.6735 37.6194 59.8735C36.3233 60.1816 35.0312 60.3256 33.695 60.2496C31.3788 60.1216 29.0707 59.5615 27.1025 58.2894C23.7902 56.1532 22.4301 52.3889 20.2899 49.2767C20.2219 49.1726 20.1499 49.0686 20.0819 48.9646C19.5658 48.8606 19.0458 48.6766 18.5017 48.3886C17.2416 47.7245 15.9535 46.9525 14.9694 45.9044C13.2053 44.0242 12.5292 41.62 12.9893 39.2198C12.8533 39.5238 12.7412 39.8398 12.6612 40.1719C12.6452 40.2359 12.5452 40.2359 12.5412 40.1639C12.5412 40.0118 12.5532 39.8558 12.5732 39.7038C12.3252 38.2517 12.3892 36.5956 12.9933 35.2394C13.2093 34.7554 13.5173 34.2674 13.8974 33.8393C13.3973 34.2554 13.0213 34.7554 12.8253 35.3874C12.8133 35.4235 12.7492 35.4314 12.7532 35.3834C12.7652 35.0394 12.8613 34.6994 13.0173 34.3794C13.2533 33.4993 13.6613 32.5032 14.2374 31.6351C14.1254 31.7271 14.0134 31.8232 13.8974 31.9192C13.8653 31.9472 13.8133 31.9032 13.8333 31.8672C13.9693 31.6391 14.1374 31.4031 14.3294 31.1751C14.3134 31.1471 14.3054 31.1071 14.3294 31.0791C14.9134 30.307 15.3335 29.5149 15.6095 28.6909C15.6975 27.5708 15.3335 26.5707 14.9214 25.5146C14.5854 24.6585 14.2134 23.7105 14.3454 22.7704C14.5734 21.1702 15.8375 19.9701 17.2456 19.3061C18.0457 18.9301 18.9658 18.658 19.8859 18.614C20.4019 19.9701 21.102 21.2543 21.574 22.6264C22.2821 24.6865 22.202 26.9907 22.058 29.1349C21.99 30.143 21.83 31.1391 21.762 32.1472C21.706 33.0073 21.73 33.8673 21.802 34.7274C21.95 36.4876 22.3541 38.2317 23.0101 39.8678C23.6382 41.436 24.5423 42.9721 25.8504 44.0642C27.0585 45.0723 28.5386 45.4363 30.0827 45.1843C31.7309 44.9123 33.231 44.0362 34.7231 43.3281C36.2473 42.6041 37.7834 41.904 39.3595 41.292C42.0517 40.2479 44.932 39.4358 47.8443 39.5798C49.5524 39.6638 51.1405 40.1479 52.5566 40.9599C53.0167 41.588 53.3767 42.308 53.6807 42.9841C54.2848 44.3282 54.7128 45.7644 55.0209 47.2045C55.4969 49.4327 55.8129 51.6849 56.001 53.9571C56.185 56.2333 56.253 58.5174 56.393 60.7976C56.529 62.9778 56.733 65.162 57.1691 67.3062C57.4251 68.5703 57.8691 69.8024 58.5732 70.8865C59.7733 72.7266 61.6974 73.8028 63.7936 74.3028C66.1538 74.8708 68.642 74.8068 71.0503 74.6908C73.5945 74.5668 76.1347 74.3108 78.6789 74.3428C80.255 74.3588 81.8832 74.4788 83.3753 75.0149C83.8113 75.1709 84.2274 75.3629 84.6354 75.5709L84.6394 75.5669Z" fill="#F0D9BB"/>
<g style="mix-blend-mode:multiply">
<path d="M14.9215 25.5186C14.5854 24.6625 14.2134 23.7144 14.3454 22.7743C14.5734 21.1742 15.8375 19.9741 17.2457 19.31C18.0457 18.934 18.9658 18.662 19.8859 18.618C20.4019 19.9741 21.102 21.2582 21.574 22.6303C21.8541 23.4424 22.0101 24.2905 22.0861 25.1505C22.0341 25.1986 21.9821 25.2425 21.934 25.2865C20.874 26.2226 19.7219 26.9947 18.4938 27.6908C17.3737 28.3268 16.2216 28.9309 15.1935 29.7069C15.3615 29.3749 15.5015 29.0349 15.6175 28.6908C15.7055 27.5707 15.3415 26.5707 14.9294 25.5146L14.9215 25.5186Z" fill="#F0D9BB"/>
</g>
<g style="mix-blend-mode:multiply">
<path d="M84.6393 75.5669C83.7713 75.4549 82.9112 75.0748 82.0391 74.9228C81.035 74.7508 80.023 74.6828 79.0069 74.6828C77.0147 74.6868 75.0345 74.8788 73.0703 75.1868C66.3538 76.2389 59.1252 77.871 55.6729 70.2784C53.7367 66.022 53.5927 59.8535 49.8724 56.7773C48.7123 56.8893 47.5562 57.0733 46.4201 57.3333C44.2959 57.8174 42.2357 58.5174 40.1355 59.1015C39.3075 59.4255 38.4394 59.6735 37.6193 59.8735C36.3232 60.1815 35.0311 60.3256 33.695 60.2496C31.3788 60.1215 29.0706 59.5615 27.1024 58.2894C23.7901 56.1532 22.43 52.3889 20.2898 49.2766C20.2218 49.1726 20.1498 49.0686 20.0818 48.9646C19.5658 48.8606 19.0457 48.6766 18.5017 48.3885C17.2416 47.7245 15.9535 46.9524 14.9694 45.9043C13.2052 44.0242 12.5292 41.62 12.9892 39.2198C12.8532 39.5238 12.7412 39.8398 12.6612 40.1718C12.6452 40.2358 12.5452 40.2358 12.5412 40.1638C12.5412 40.0118 12.5532 39.8558 12.5732 39.7038C12.5412 39.5198 12.5172 39.3278 12.4932 39.1397C12.7372 38.3117 13.0532 37.5036 13.5052 36.7715C13.1732 37.8436 13.0932 38.9837 13.2772 40.0958C13.5012 41.4439 14.2333 42.548 15.2094 43.4761C16.1455 44.3682 17.3336 44.9763 18.6537 44.7242C19.6938 44.5242 20.3058 43.6001 20.8219 42.7561C20.8939 43.1401 20.8459 43.5161 20.7819 43.9002C20.7699 43.9762 20.8699 44.0322 20.9099 43.9562C21.938 42.048 22.106 39.9198 22.33 37.8036C22.514 38.5037 22.738 39.1958 23.0101 39.8718C23.6381 41.4399 24.5422 42.9761 25.8503 44.0682C27.0584 45.0763 28.5385 45.4403 30.0827 45.1883C31.7308 44.9162 33.2309 44.0402 34.7231 43.3321C36.2472 42.6081 37.7833 41.908 39.3595 41.2959C42.0517 40.2518 44.9319 39.4398 47.8442 39.5838C49.5523 39.6678 51.1405 40.1518 52.5566 40.9639C53.0166 41.592 53.3767 42.312 53.6807 42.9881C54.2847 44.3322 54.7128 45.7683 55.0208 47.2085C55.4969 49.4366 55.8129 51.6888 56.0009 53.961C56.1849 56.2372 56.2529 58.5214 56.3929 60.8016C56.5289 62.9818 56.733 65.166 57.169 67.3102C57.425 68.5743 57.8691 69.8064 58.5731 70.8905C59.7732 72.7306 61.6974 73.8067 63.7936 74.3068C66.1538 74.8748 68.642 74.8108 71.0502 74.6948C73.5944 74.5708 76.1346 74.3148 78.6788 74.3468C80.255 74.3628 81.8831 74.4828 83.3752 75.0188C83.8113 75.1749 84.2273 75.3668 84.6353 75.5748L84.6393 75.5669Z" fill="#F0D9BB"/>
</g>
<g style="mix-blend-mode:multiply">
<path d="M56.1209 71.1825C55.9649 70.8985 55.8129 70.5984 55.6688 70.2824C53.7327 66.0261 53.5887 59.8576 49.8683 56.7813C48.7082 56.8933 47.5521 57.0773 46.416 57.3373C44.2919 57.8214 42.2317 58.5214 40.1315 59.1055C39.3034 59.4295 38.4354 59.6775 37.6153 59.8775C36.3192 60.1856 35.0271 60.3296 33.691 60.2536C32.2388 60.1736 30.7907 59.9215 29.4306 59.4335C29.8146 59.4175 30.1987 59.3775 30.5907 59.3055C31.9028 59.0615 33.719 58.4894 33.879 56.9173C34.023 55.5092 33.2509 54.1411 32.3828 53.097C31.3708 51.8809 30.0466 50.9168 28.6625 50.1687C27.4984 49.5367 26.2183 49.0126 24.8862 48.9206C23.8221 48.8486 22.338 48.9926 21.8379 50.1047C21.5939 50.6488 21.6979 51.2848 21.8779 51.8489C21.3699 50.9768 20.8619 50.1087 20.2938 49.2846C20.2258 49.1806 20.1538 49.0766 20.0858 48.9726C19.5697 48.8686 19.0497 48.6846 18.5056 48.3966C17.2495 47.7365 15.9654 46.9644 14.9854 45.9203C17.3376 47.7325 20.2698 49.2646 23.158 47.9965C23.7741 47.7245 24.4262 47.2445 24.6702 46.5884C24.9582 45.8163 24.6302 45.1723 24.1861 44.5442C23.6341 43.7722 23.1461 42.9881 22.846 42.084C22.498 41.0399 22.426 39.9118 22.422 38.8197C22.422 38.4917 22.382 38.1637 22.338 37.8397C22.338 37.8317 22.338 37.8196 22.342 37.8116C22.526 38.5117 22.75 39.2038 23.0221 39.8798C23.6501 41.448 24.5542 42.9841 25.8623 44.0762C27.0704 45.0843 28.5505 45.4483 30.0947 45.1963C31.7428 44.9243 33.2429 44.0482 34.735 43.3401C36.2592 42.6161 37.7953 41.916 39.3715 41.304C42.0637 40.2599 44.9439 39.4478 47.8562 39.5918C49.5643 39.6758 51.1525 40.1599 52.5686 40.9719C53.0286 41.6 53.3886 42.32 53.6927 42.9961C54.2967 44.3402 54.7248 45.7763 55.0328 47.2165C55.5088 49.4446 55.8249 51.6968 56.0129 53.969C56.0529 54.4491 56.0849 54.9291 56.1129 55.4132C55.5568 56.4492 54.9568 57.4694 54.5288 58.5695C54.2087 59.3975 54.0127 60.2736 54.0487 61.1657C54.0927 62.2378 54.3207 63.2978 54.5688 64.3379C54.7928 65.278 55.0048 66.2101 55.1768 67.1582C55.3328 68.0223 55.5008 68.8823 55.7128 69.7344C55.8329 70.2184 55.9689 70.7105 56.1289 71.1905L56.1209 71.1825Z" fill="#F0D9BB"/>
</g>
<path d="M57.0372 53.477C55.9211 55.0852 54.4569 56.4613 52.7888 57.4814C51.8967 58.0254 50.9326 58.4455 50.0446 59.0015C49.5605 59.3015 49.1125 59.6296 48.6884 59.9816C47.6844 61.6137 46.9363 63.2499 47.2123 65.3181C47.5603 67.9383 48.3204 70.5185 48.9445 73.0827C49.6205 73.6588 50.3166 74.4508 50.1006 75.2389C49.8085 76.295 48.2124 76.295 47.3803 76.507C45.8042 76.9031 44.3161 77.5671 42.7639 78.0351C41.1558 78.5192 39.5116 78.9312 37.8835 79.3272C34.8753 80.0593 31.867 80.3513 28.8667 79.3873C28.1027 79.1392 26.6226 78.6952 26.5905 77.6631C26.5825 77.4111 26.6385 77.1991 26.7386 77.0071C26.4625 76.643 26.2785 76.227 26.3625 75.755C26.4905 75.0229 26.9466 74.3428 27.5666 73.9268C28.2227 73.4907 29.0108 73.2427 29.7988 73.3988C30.7029 73.5748 31.479 74.0468 32.339 74.3428C34.5912 75.1189 37.0514 74.8189 39.3396 74.3828C41.3998 73.9908 43.388 73.4628 45.3522 72.7507C45.0521 70.5225 44.5201 68.3503 43.672 66.2461C43.248 65.194 42.6999 64.226 42.1279 63.2579C41.2398 62.3578 40.3197 61.4177 39.4997 60.4936C38.2716 59.1135 37.2075 58.2095 35.9994 56.8053C34.9353 55.5732 33.8712 53.7131 33.4911 52.0929C33.1351 50.5528 33.6151 48.9207 34.3072 47.5485C37.0834 42.0481 42.9199 39.0558 48.1924 36.3956C48.2764 36.3516 48.3444 36.4916 48.2684 36.5436C47.8604 36.8076 47.4443 37.0716 47.0283 37.3277C47.8084 36.8956 48.6244 36.5436 49.5005 36.5196C50.9446 36.4836 52.2248 37.2756 53.2208 38.2637C54.2649 39.2998 55.089 40.5159 55.9811 41.68C56.6491 42.5521 57.4052 43.4322 57.9172 44.4203C57.7852 43.9762 57.6172 43.5362 57.4172 43.1002C57.3732 43.0001 57.5372 42.9121 57.5932 43.0121C59.4654 46.3844 59.2373 50.3008 57.0372 53.473V53.477Z" fill="#725E51"/>
<g style="mix-blend-mode:multiply" opacity="0.6">
<path d="M57.0371 53.4771C55.921 55.0852 54.4568 56.4613 52.7887 57.4814C51.8966 58.0255 50.9325 58.4455 50.0445 59.0015C49.5604 59.3016 49.1124 59.6296 48.6883 59.9816C47.6843 61.6137 46.9362 63.2499 47.2122 65.3181C47.5602 67.9383 48.3203 70.5185 48.9444 73.0827C49.6204 73.6588 50.3165 74.4509 50.1005 75.2389C49.8084 76.295 48.2123 76.295 47.3802 76.507C45.8041 76.9031 44.316 77.5671 42.7638 78.0352C41.1557 78.5192 39.5116 78.9312 37.8834 79.3273C34.8752 80.0593 31.8669 80.3514 28.8666 79.3873C28.1026 79.1393 26.6225 78.6952 26.5905 77.6632C26.5824 77.4111 26.6385 77.1991 26.7385 77.0071C26.5144 76.7111 26.3544 76.379 26.3464 76.011C26.3664 76.055 26.4264 76.055 26.4584 76.027C26.6024 75.887 26.6545 75.703 26.7185 75.515C26.8465 75.1229 27.1545 74.8069 27.4865 74.5748C28.0906 74.1508 28.8706 74.0788 29.5827 74.1548C30.3308 74.2348 31.0548 74.5029 31.7589 74.7509C32.503 75.0109 33.271 75.2269 34.0511 75.3549C35.3192 75.559 36.5713 75.3869 37.8194 75.1549C36.0513 75.603 34.2671 75.859 32.4149 75.4749C31.8229 75.3509 31.2989 75.1389 30.7428 74.9069C30.2908 74.7189 29.8427 74.5989 29.3507 74.6029C28.6666 74.6069 27.9226 74.8709 27.5145 75.4389C27.4865 75.4269 27.4465 75.431 27.4305 75.467C27.3825 75.559 27.3545 75.643 27.3305 75.743C27.3145 75.795 27.3665 75.843 27.4145 75.831C27.6545 75.779 27.8346 75.6189 28.0346 75.4869C28.3346 75.2949 28.7266 75.2229 29.0707 75.1869C29.8027 75.1069 30.4988 75.3189 31.1989 75.499C32.523 75.843 33.8271 76.083 35.1992 75.991C36.5673 75.895 37.9314 75.5709 39.2915 75.3829C39.4116 75.3669 39.5356 75.3509 39.6556 75.3309C38.8995 75.5389 38.1434 75.739 37.3834 75.931C36.5233 76.147 35.6592 76.391 34.7712 76.443C34.0271 76.487 33.279 76.3871 32.555 76.223C30.7908 75.819 28.1026 74.8109 26.9305 76.8151C26.9305 76.8191 26.9305 76.8191 26.9305 76.8231C26.4904 77.5392 27.9546 78.0512 28.4386 78.2152C29.9067 78.7072 31.5229 78.7352 33.055 78.6272C35.1472 78.4752 37.2474 78.1312 39.2835 77.6311C40.1556 77.4191 41.0157 77.1391 41.8758 76.8711C41.8918 76.8791 41.9078 76.883 41.9318 76.875C42.0278 76.835 42.1278 76.7991 42.2238 76.7631C42.2758 76.7471 42.3318 76.7311 42.3798 76.7151C42.8358 76.5791 43.2999 76.467 43.7599 76.343C44.0239 76.287 44.288 76.231 44.556 76.175C44.976 76.091 45.4001 75.999 45.8161 75.887C46.1721 75.791 46.5122 75.615 46.8722 75.547C47.4722 75.4309 48.9084 75.7309 48.9284 74.7749C48.9364 74.2908 48.5083 74.0108 48.1003 73.8788C47.4402 73.6668 46.6082 73.9228 46.0681 73.4068C45.9121 73.2588 45.7641 72.9947 45.5441 72.9347C45.2841 72.8667 45.012 72.9387 44.756 73.0067C44.54 73.0627 44.32 73.1187 44.104 73.1747C44.52 73.0387 44.932 72.9027 45.3481 72.7507C45.048 70.5225 44.516 68.3503 43.6679 66.2462C43.2439 65.1941 42.6958 64.226 42.1238 63.2579C41.2357 62.3578 40.3156 61.4177 39.4956 60.4937C38.2675 59.1135 37.2034 58.2095 35.9953 56.8054C34.9312 55.5732 33.8671 53.7131 33.487 52.0929C33.131 50.5528 33.6111 48.9207 34.3031 47.5486C35.0472 46.0764 36.0113 44.7843 37.1234 43.6282C35.9633 45.5404 35.3032 47.6766 35.8672 49.9968C36.2193 51.4569 36.9673 52.877 38.1234 53.8531C39.0835 54.6612 40.2836 55.1372 41.5037 55.3892C44.176 55.9493 47.0802 55.5052 49.6124 54.5572C50.8965 54.0771 52.0726 53.405 53.1727 52.585C54.6969 51.4449 56.109 49.9848 56.837 48.2006C57.5211 46.5205 57.4531 44.7603 57.0331 43.0402C57.3611 43.4842 57.6691 43.9362 57.9171 44.4203C57.7851 43.9762 57.6171 43.5362 57.4171 43.1002C57.3731 43.0002 57.6691 43.3922 57.7251 43.4922C59.5933 46.8685 59.2372 50.3008 57.0371 53.4731V53.4771Z" fill="#725E51"/>
</g>
<path d="M36.5194 76.175C35.7033 76.383 34.6952 76.635 33.8551 76.575C32.939 76.511 32.087 76.227 31.2029 75.999C29.5108 75.5669 27.4306 75.5989 26.6905 77.4911C26.6865 77.5031 26.6665 77.4951 26.6665 77.4831C26.6785 77.3191 26.7105 77.1671 26.7625 77.0231C26.7585 77.0151 26.7585 77.0071 26.7585 76.9951C26.8945 75.683 27.7466 74.4309 29.1667 74.4229C30.1588 74.4189 31.0709 75.0829 32.003 75.3349C33.2431 75.6709 34.7512 75.763 36.1673 75.4549C36.2073 75.4469 39.1556 74.8029 36.1873 75.5349C34.4632 75.959 32.403 75.8149 30.7429 75.1269C29.8548 74.7589 28.7107 74.3308 27.8626 75.0389C27.3546 75.4629 27.0985 76.023 26.9505 76.639C27.5306 75.771 28.8387 75.3669 29.8028 75.4549C30.8789 75.5549 31.871 75.951 32.923 76.163C34.6152 76.507 36.5713 76.219 38.3555 75.6869C38.4075 75.6709 36.5753 76.159 36.5113 76.175H36.5194Z" fill="#4C403E"/>
<path d="M36.9635 76.051C35.5434 76.4271 34.2033 76.7511 32.7031 76.4871C31.119 76.207 27.7427 74.8909 27.0426 77.2991C27.0346 77.3231 27.0706 77.3352 27.0866 77.3192C27.9227 76.2631 28.9028 76.1711 30.1669 76.3671C32.9872 76.8151 34.2913 77.2151 36.9675 76.051H36.9635Z" fill="#A58B76"/>
<path d="M42.9161 73.7228C41.4599 74.0788 40.0118 74.5989 38.5317 74.8349C37.1236 75.0549 35.6875 75.1309 34.2713 74.9749C33.4793 74.8909 32.6912 74.7549 31.9271 74.5349C31.3351 74.3628 30.755 74.1268 30.147 74.0148C28.7629 73.7508 27.6748 74.0908 26.7067 75.1229C26.6867 75.1469 26.6547 75.1229 26.6667 75.0909C26.9227 74.4228 27.9988 73.4668 29.0749 73.4508C30.395 73.4308 31.8231 74.2909 33.0912 74.5629C34.8154 74.9309 36.4955 74.9309 38.2437 74.6589C39.7878 74.4189 42.336 73.7788 44.3202 73.2387C44.3642 73.2267 42.9641 73.7148 42.9161 73.7268V73.7228Z" fill="#A58B76"/>
<path d="M36.7913 75.5389C35.1312 75.9069 33.391 76.0189 31.7269 75.6309C30.9108 75.4429 30.0987 74.9989 29.2707 74.9149C28.3586 74.8228 27.8185 75.2989 27.2225 75.9149C27.2065 75.9309 27.1865 75.9109 27.1985 75.8949C27.9465 74.7068 29.0386 74.4268 30.3228 74.8948C31.3628 75.2709 32.4549 75.5749 33.559 75.6669C34.6751 75.7589 35.6832 75.6629 36.7793 75.4709C38.3634 75.1989 36.8313 75.5269 36.7953 75.5349L36.7913 75.5389Z" fill="#A58B76"/>
<path opacity="0.5" d="M54.1408 40.9119C56.077 44.0602 53.8928 47.9845 51.5286 50.2087C49.2284 52.3689 45.8761 53.985 42.6639 53.781C39.8236 53.601 36.4473 51.9288 36.1713 48.7686C36.0233 47.1204 36.7714 45.4963 37.7674 44.2242C38.8595 42.8241 40.3157 41.748 41.8198 40.8319C43.1999 39.9878 44.652 39.2038 46.1362 38.5557C46.6282 38.3397 47.1402 38.1357 47.6603 37.9636C48.1123 37.9076 48.5724 37.8796 49.0364 37.9037C51.0846 37.9997 53.0728 39.1758 54.1488 40.9199L54.1408 40.9119Z" fill="#A58B76"/>
<path d="M34.639 42.9401C34.555 43.9042 34.467 44.9523 34.027 45.8324C33.5629 46.7644 32.8189 47.5445 32.1028 48.2885C29.6586 50.8288 26.7303 53.689 25.9543 57.2213C26.2703 57.7134 26.6984 58.0574 27.1704 58.5054C27.5584 58.8735 27.9345 59.3015 28.1185 59.8176C28.1985 60.0496 28.2785 60.3216 28.3385 60.6096C28.4225 60.5496 28.5185 60.5056 28.6225 60.4856C28.9225 60.4296 29.1786 60.7656 29.2386 61.0137C29.3226 61.3617 29.2226 61.7737 29.0385 62.1337C28.9945 62.3057 28.9345 62.4738 28.8585 62.6378C28.6305 63.1418 28.1865 63.8939 27.5384 63.8939C27.2104 63.8939 26.9504 63.8019 26.7303 63.6459C26.2423 64.4739 25.1302 64.5419 24.4462 63.9259C23.7861 63.9699 23.3541 63.7899 22.994 63.1338C22.57 62.3577 22.282 61.4817 22.202 60.5936C22.066 59.0495 22.498 57.4053 23.11 55.9172C23.142 55.7612 23.178 55.6052 23.2141 55.4492C23.5101 54.2411 23.9581 53.109 24.4382 51.9689C25.3342 49.8447 26.9184 46.6164 25.2182 44.5122C24.5342 43.6642 23.7141 42.9401 23.234 41.94C22.698 40.8239 22.43 39.6118 22.162 38.4077C21.9059 37.2516 21.7259 36.0635 21.6739 34.8794C21.6259 33.7873 21.5659 32.5512 21.8419 31.4871C21.8579 31.4311 21.9019 31.3991 21.95 31.3871C22.018 31.0191 22.118 30.659 22.262 30.311C22.738 29.1789 23.7181 28.4788 24.9382 28.3348C26.7023 28.1268 28.5305 28.9309 30.0346 29.783C30.7987 30.215 31.4388 30.7951 31.9868 31.4751C32.5668 32.1952 33.1389 32.9752 33.6109 33.7713C34.079 34.5634 34.327 35.4114 34.447 36.2835C34.9631 38.4237 34.8311 40.7799 34.647 42.9361L34.639 42.9401Z" fill="#725E51"/>
<path opacity="0.5" d="M32.831 39.8799C32.983 41.288 32.4509 42.8641 31.8069 44.1642C31.5469 44.6963 31.1268 45.1483 30.5268 45.2643C29.7387 45.4203 28.9707 44.8923 28.3746 44.4483C26.8945 43.3362 25.8664 41.664 25.0583 40.0279C24.0502 37.9757 23.5102 35.7115 23.4542 33.4193C23.4302 32.3752 23.5022 31.2311 24.0302 30.3031C24.3342 29.763 24.7903 29.459 25.3143 29.335C28.1506 30.195 31.1788 31.1911 32.2629 33.9154C32.847 35.3835 32.663 38.3037 32.827 39.8719L32.831 39.8799Z" fill="#A58B76"/>
<g style="mix-blend-mode:multiply" opacity="0.6">
<path d="M34.6392 42.9401C34.5552 43.9041 34.4672 44.9522 34.0271 45.8323C33.5631 46.7644 32.819 47.5445 32.103 48.2885C29.6588 50.8287 26.7305 53.689 25.9544 57.2213C26.2705 57.7133 26.6985 58.0574 27.1705 58.5054C27.5586 58.8734 27.9346 59.3015 28.1186 59.8175C28.1986 60.0496 28.2786 60.3216 28.3386 60.6096C28.4226 60.5496 28.5187 60.5056 28.6227 60.4856C28.9227 60.4296 29.1787 60.7656 29.2387 61.0136C29.3227 61.3617 29.2227 61.7737 29.0387 62.1337C28.9947 62.3057 28.9347 62.4737 28.8587 62.6377C28.6307 63.1418 28.1866 63.8939 27.5386 63.8939C27.2105 63.8939 26.9505 63.8019 26.7305 63.6458C26.2425 64.4739 25.1304 64.5419 24.4463 63.9258C23.7943 63.9698 23.3622 63.7939 23.0022 63.1498C23.1502 63.2898 23.3182 63.4018 23.5102 63.4818C23.5622 63.5058 23.6102 63.4778 23.6182 63.4218C23.7223 62.4378 23.4462 61.4737 23.3582 60.4976C23.4742 60.9736 23.6142 61.4456 23.8102 61.8937C24.0223 62.3817 24.4303 63.1938 25.0944 63.0938C25.6504 63.0098 25.5584 62.1937 25.5144 61.8017C25.4504 61.2336 25.2584 60.6656 25.1944 60.0935C25.4424 60.5216 25.6464 60.9736 25.8944 61.4017C26.1225 61.7937 26.4105 62.2697 26.8585 62.4297C26.9065 62.4457 26.9425 62.4017 26.9465 62.3617C27.1986 60.4536 26.2585 58.4414 24.4503 57.6813C24.8384 57.5013 25.1264 57.1493 25.3664 56.8013C25.7544 56.2412 26.0304 55.6012 26.2945 54.9771C26.5505 54.369 26.7705 53.745 27.0345 53.1409C27.3986 52.3009 27.9706 51.5208 28.5107 50.7887C29.1387 49.9407 29.8348 49.1446 30.5348 48.3605C31.1669 47.6445 31.8389 46.9804 32.267 46.1163C33.0911 44.4682 33.0471 42.544 33.1711 40.7519C33.3351 38.3237 33.4271 35.8075 32.727 33.4513C32.523 32.7712 32.263 32.1071 31.971 31.4631C31.975 31.4671 31.9789 31.4711 31.9829 31.4751C32.563 32.1951 33.135 32.9752 33.6071 33.7713C34.0751 34.5633 34.3232 35.4114 34.4432 36.2835C34.9592 38.4237 34.8272 40.7799 34.6432 42.9361L34.6392 42.9401Z" fill="#725E51"/>
</g>
<path d="M47.8202 36.8556C46.6281 37.5396 46.044 37.7476 44.8319 38.3997C43.6878 39.0118 42.5557 39.6518 41.4676 40.3519C39.2114 41.8 36.9272 43.4921 35.3711 45.7083C33.863 47.8605 33.0949 50.5807 34.043 53.129C35.0191 55.7532 37.0912 57.9174 39.0074 59.8895C39.0514 59.9335 38.9874 60.0096 38.9434 59.9656C36.9912 57.9414 34.591 55.7572 33.699 53.009C32.9149 50.5888 33.3389 48.2245 34.659 46.0764C36.1271 43.6922 38.5074 41.804 40.8436 40.3199C42.0197 39.5718 43.2358 38.8917 44.4839 38.2717C45.776 37.6236 47.0921 36.9156 48.4522 36.4155C48.5242 36.3915 47.8802 36.8196 47.8122 36.8596L47.8202 36.8556Z" fill="#4C403E"/>
<path d="M58.7572 48.1685C58.6572 49.8127 58.2131 51.4968 57.4331 52.9529C55.7049 56.1852 52.6687 58.0133 49.3044 59.2295C49.2204 59.2615 49.1844 59.1415 49.2604 59.1055C50.9765 58.2254 52.7687 57.5493 54.2728 56.3052C55.4409 55.3411 56.457 54.181 57.1491 52.8249C58.7132 49.7487 58.9012 46.1724 57.3451 43.0521C57.3331 43.0321 57.3691 43.0121 57.3811 43.0321C58.2171 44.6242 58.8612 46.3324 58.7532 48.1645L58.7572 48.1685Z" fill="#4C403E"/>
<g style="mix-blend-mode:multiply" opacity="0.7">
<path d="M23.8262 48.0445C22.4501 49.9847 19.1778 49.0606 17.6017 47.8925C17.5897 47.8845 17.6016 47.8645 17.6136 47.8725C19.4458 48.8366 22.07 49.5367 23.7862 48.0005C23.8142 47.9765 23.8462 48.0205 23.8262 48.0445Z" fill="#725E51"/>
</g>
<path d="M25.1265 0.372449C24.9505 1.74457 24.7625 3.10867 24.6185 4.48479C24.5025 5.60088 24.3505 6.75299 23.7464 7.71707C23.1704 8.63315 22.2103 8.82916 21.2062 8.95717C20.0821 9.09718 19.278 9.48524 18.706 10.2773C19.482 10.7333 20.1461 11.3254 20.5901 12.0775C20.7661 12.3775 20.8901 12.7095 20.9822 13.0575C21.2662 13.5456 21.4862 14.0736 21.6302 14.6257C21.7262 14.9857 21.8142 15.3697 21.8862 15.7618C22.6463 16.0058 23.3904 16.3778 23.8864 17.0099C24.5585 17.8739 24.7625 19.046 24.5145 20.1101C24.1984 21.4782 23.2904 22.5823 22.2263 23.5184C21.4502 24.3705 20.5621 25.1106 19.59 25.6706C18.654 26.2107 17.6139 26.5507 16.6738 27.0707C16.4178 27.2228 16.1617 27.3828 15.9137 27.5508C15.6697 27.7188 15.4297 27.8948 15.1937 28.0748C14.8496 28.3469 14.5336 28.6389 14.2256 28.9629C14.0816 29.1149 13.9416 29.2629 13.7976 29.4109C13.5535 29.799 13.3255 30.195 13.0895 30.595C12.7055 31.2511 12.0974 32.3832 11.2453 32.5032C10.8493 32.6632 10.4133 32.7392 9.98922 32.8312C9.36117 32.9673 8.70911 33.0952 8.06506 33.1112C7.21299 33.1272 6.07289 33.0192 5.59685 32.2472C5.06881 32.4672 4.50875 32.5072 4.05671 32.2032C3.40465 31.7631 2.98063 30.9911 2.5966 30.323C2.18456 29.599 1.80453 28.8469 1.50051 28.0708C0.524422 25.5626 0.132367 22.8624 0.528401 20.2421C0.5204 18.946 0.84044 17.6539 1.81652 16.7218C2.59659 15.9778 3.54067 15.5297 4.51676 15.0937C4.78078 14.9777 5.04079 14.8577 5.30882 14.7377C6.06488 13.3776 6.94097 12.0494 8.09707 11.0374C8.05306 10.9293 8.00105 10.8213 7.93704 10.7213C7.52101 10.0653 6.63693 10.3373 5.95687 10.2453C4.84877 10.0973 3.64467 9.73724 2.8086 8.95717C1.70851 7.93708 1.56051 6.56498 1.62452 5.12085C1.69252 3.62073 1.6765 1.92858 2.18054 0.496459C2.14854 0.424453 2.21655 0.332442 2.31256 0.368445C3.67268 0.852486 5.08481 1.28853 6.36892 1.95259C7.337 2.45263 8.38907 3.00467 8.95312 3.97276C9.49717 4.90884 9.62519 6.10094 9.84121 7.14503C10.0172 7.9731 10.2253 8.80517 10.3973 9.64124C11.6854 9.13719 13.0975 8.96117 14.5136 9.06118C14.9936 9.09719 15.5017 9.16521 16.0177 9.27722C16.1858 8.83318 16.3218 8.37714 16.3618 7.9011C16.4338 7.07303 16.2258 6.22095 16.3898 5.39688C16.5978 4.34079 17.1298 3.48872 17.9859 2.82466C18.926 2.0966 20.0061 1.60454 21.0942 1.1365C22.3183 0.608459 23.5584 0.0804269 24.9065 0.000420038C25.1345 -0.011581 25.2185 0.236421 25.1305 0.380433L25.1265 0.372449Z" fill="#725E51"/>
<path d="M23.8864 17.0139C24.5585 17.878 24.7625 19.0501 24.5145 20.1141C24.1984 21.4823 23.2904 22.5864 22.2263 23.5224C21.4502 24.3745 20.5621 25.1146 19.59 25.6746C18.654 26.2147 17.6139 26.5547 16.6738 27.0748C16.4178 27.2268 16.1617 27.3868 15.9137 27.5548C15.6697 27.7228 15.4297 27.8988 15.1937 28.0788C14.8496 28.3509 14.5336 28.6429 14.2256 28.9669C14.0816 29.1189 13.9416 29.2669 13.7976 29.4149C13.5535 29.803 13.3255 30.199 13.0895 30.5991C12.7055 31.2551 12.0974 32.3872 11.2453 32.5072C10.8493 32.6672 10.4133 32.7432 9.98922 32.8352C9.36117 32.9712 8.70911 33.0993 8.06506 33.1153C7.21299 33.1313 6.07289 33.0233 5.59685 32.2512C5.06881 32.4712 4.50875 32.5112 4.05671 32.2072C3.40465 31.7672 2.98063 30.9951 2.5966 30.327C2.18456 29.603 1.80453 28.8509 1.50051 28.0748C0.524422 25.5666 0.132367 22.8664 0.528401 20.2462C0.524401 19.4861 0.632427 18.726 0.920451 18.042C0.768438 18.906 0.644424 19.7741 0.616421 20.6542C0.576418 21.7583 0.660422 23.1024 1.48849 23.9345C1.95653 24.4025 2.6126 24.5065 3.24865 24.5145C4.19674 24.5225 5.1328 24.2745 6.08088 24.2905C7.10097 24.3025 8.09307 24.6625 9.12516 24.6665C10.1092 24.6705 10.9893 24.2305 11.8294 23.7705C12.9775 23.1424 14.0336 22.3663 15.0617 21.5623C16.0217 20.8102 17.0058 20.0301 17.7339 19.0461C18.4379 18.094 18.678 16.8619 19.6941 16.1458C20.3501 15.6818 21.1182 15.6258 21.8822 15.7498C21.8862 15.7618 21.8862 15.7698 21.8902 15.7818C22.6503 16.0258 23.3944 16.3978 23.8904 17.0299L23.8864 17.0139Z" fill="#F0D9BB"/>
<g style="mix-blend-mode:multiply">
<path d="M24.5182 20.1141C24.2022 21.4822 23.2941 22.5863 22.23 23.5224C21.4539 24.3745 20.5659 25.1146 19.5938 25.6746C18.6577 26.2147 17.6176 26.5547 16.6775 27.0747C16.4215 27.2267 16.1655 27.3868 15.9175 27.5548C15.6735 27.7228 15.4334 27.8988 15.1974 28.0788C14.8534 28.3508 14.5373 28.6429 14.2293 28.9669C14.0853 29.1189 13.9453 29.2669 13.8013 29.4149C13.5573 29.803 13.3293 30.199 13.0932 30.599C12.7092 31.2551 12.1012 32.3872 11.2491 32.5072C10.853 32.6672 10.417 32.7432 9.99297 32.8352C9.36491 32.9712 8.71286 33.0992 8.0688 33.1152C7.21673 33.1312 6.07664 33.0232 5.6006 32.2512C5.07255 32.4712 4.51249 32.5112 4.06045 32.2072C3.4084 31.7671 2.98438 30.9951 2.60034 30.327C2.18831 29.603 1.80825 28.8509 1.50423 28.0748C1.26021 27.4508 1.0562 26.8187 0.888184 26.1747C1.38023 25.5186 2.40431 25.2546 3.16438 25.1186C4.33248 24.9065 5.54858 24.9025 6.73268 24.9905C7.90878 25.0746 10.037 25.3546 10.129 26.8667C10.169 27.5308 9.97697 28.2028 10.149 28.8589C10.281 29.3549 10.785 29.6349 11.2651 29.4669C12.1051 29.1749 12.4732 28.0668 12.9812 27.4268C13.7333 26.4907 14.8534 26.3947 15.8855 25.9546C16.6335 25.6346 17.2616 24.8665 16.8736 24.0185C16.5655 23.3384 15.2614 22.7864 15.8855 21.9663C16.1095 22.8944 16.9936 23.0024 17.8576 22.8344C18.8857 22.6383 19.5418 22.0143 20.0378 21.1582C20.0378 21.5262 20.0338 21.8903 19.9658 22.2503C19.8978 22.5983 19.6898 22.8464 19.5098 23.1424C19.3738 23.3624 19.2618 23.7344 19.5938 23.8344C19.9018 23.9264 20.3058 23.6264 20.5379 23.4744C20.9379 23.2144 21.3099 22.9024 21.674 22.5943C22.6821 21.7383 23.5781 20.7742 24.1022 19.5421C24.3062 19.066 24.4182 18.578 24.4502 18.098C24.6582 18.75 24.6782 19.4581 24.5222 20.1301L24.5182 20.1141Z" fill="#F0D9BB"/>
</g>
<g style="mix-blend-mode:multiply">
<path d="M23.1502 22.6103C22.8662 22.9303 22.5541 23.2344 22.2261 23.5224C21.4501 24.3745 20.562 25.1145 19.5899 25.6746C18.6538 26.2146 17.6137 26.5547 16.6736 27.0747C16.4176 27.2267 16.1616 27.3867 15.9136 27.5547C15.6695 27.7228 15.4295 27.8988 15.1935 28.0788C14.8495 28.3508 14.5335 28.6428 14.2254 28.9669C14.0814 29.1189 13.9414 29.2669 13.7974 29.4149C13.5534 29.8029 13.3253 30.199 13.0893 30.599C12.7053 31.2551 12.0972 32.3872 11.2452 32.5072C10.8491 32.6672 10.4131 32.7432 9.98906 32.8352C9.36101 32.9712 8.70895 33.0992 8.0649 33.1152C7.21282 33.1312 6.07273 33.0232 5.59669 32.2511C5.06865 32.4712 4.50859 32.5112 4.05655 32.2071C3.94454 32.1311 3.84054 32.0431 3.74053 31.9511C4.21657 32.0791 4.7326 32.0591 5.17664 31.8231C5.32465 31.7431 5.44468 31.4791 5.29667 31.3431C5.09665 31.159 4.76461 31.1791 4.50859 31.175C3.88853 31.167 3.25648 30.939 2.73644 30.567C2.68843 30.483 2.64044 30.403 2.59644 30.323C2.1844 29.5989 1.80437 28.8468 1.50035 28.0708C1.25632 27.4467 1.05229 26.8147 0.884277 26.1706C1.37632 25.5146 2.40041 25.2505 3.16047 25.1145C4.32857 24.9025 5.54467 24.8985 6.72877 24.9865C7.31682 25.0305 8.1449 25.1225 8.83696 25.3905C8.84496 25.4065 8.86096 25.4186 8.88096 25.4226C8.90096 25.4266 8.91696 25.4305 8.93297 25.4345C9.13298 25.5186 9.321 25.6226 9.48501 25.7466C9.98506 26.2866 9.97706 27.3587 9.86105 28.0068C9.72904 28.7428 9.16099 29.3549 8.63694 29.8469C8.1089 30.343 7.36883 30.475 6.82878 30.947C6.80478 30.967 6.80079 31.011 6.81679 31.031C7.67287 32.1391 9.381 32.1431 10.5291 31.5191C12.0252 30.699 12.3973 28.8949 13.4494 27.6788C14.0694 26.9627 14.9615 26.6067 15.8616 26.3946C16.5416 26.2346 17.2737 26.0466 17.6257 25.3865C18.1698 24.3745 16.6256 23.5664 16.0936 22.9623C15.9016 22.7423 15.8216 22.4703 15.8456 22.1943C16.0656 22.8183 16.6576 23.1223 17.3417 23.1823C18.2058 23.2544 18.9458 22.9103 19.5459 22.3303C19.3139 22.9263 18.9058 23.3224 18.2898 23.5944C18.2458 23.6144 18.2458 23.6744 18.2738 23.7064C18.5858 24.0104 18.5618 24.3985 18.5818 24.7985C18.5898 24.9985 18.6458 25.1865 18.8618 25.2305C19.2739 25.3146 19.8259 24.9625 20.1699 24.7905C20.746 24.5025 21.278 24.1384 21.7741 23.7344C22.2061 23.3824 22.6782 23.0143 23.1462 22.6223L23.1502 22.6103Z" fill="#F0D9BB"/>
</g>
<g style="mix-blend-mode:multiply" opacity="0.6">
<path d="M25.1184 0.42046C24.9464 1.77658 24.7584 3.12468 24.6184 4.4848C24.5024 5.60089 24.3503 6.753 23.7463 7.71708C23.1702 8.63316 22.2101 8.82917 21.2061 8.95718C20.082 9.09719 19.2779 9.48524 18.7058 10.2773C19.4819 10.7334 20.146 11.3254 20.59 12.0775C20.766 12.3775 20.89 12.7095 20.982 13.0575C21.2661 13.5456 21.4861 14.0736 21.6301 14.6257C21.7261 14.9857 21.8141 15.3697 21.8861 15.7618C22.0781 15.8218 22.2742 15.8938 22.4582 15.9738C22.3902 15.9498 22.3222 15.9258 22.2502 15.9058C21.8341 15.7818 21.4381 15.7738 21.03 15.7818C21.05 15.7738 21.0741 15.7658 21.0941 15.7618C21.1501 15.7418 21.1541 15.6738 21.1221 15.6418C20.9821 15.0657 21.0061 14.4657 20.866 13.8856C20.714 13.2536 20.51 12.6135 20.27 12.0094C19.866 11.0094 18.8539 10.4213 17.8178 10.2733C17.7778 10.2693 17.7538 10.2893 17.7378 10.3133C17.3097 10.4173 17.0097 10.6813 16.7337 11.0214C16.5817 11.2054 16.4657 11.4174 16.3377 11.6174C16.1496 11.9134 15.8816 12.0894 15.6216 12.3095C15.5896 12.3375 15.5976 12.4015 15.6376 12.4215C16.0576 12.6175 16.2096 13.1535 16.3296 13.5616C16.4937 14.1376 16.3777 14.5617 16.1936 15.1097C16.1856 15.1377 16.1977 15.1777 16.2257 15.1897C16.8937 15.4817 17.5898 15.7258 18.1498 16.1938C17.4578 15.9498 16.7297 15.8258 16.0136 15.6458C15.9576 15.6338 15.9216 15.6818 15.9256 15.7258C14.8575 15.6178 13.7894 15.4818 12.7133 15.4457C11.4212 15.4057 10.1211 15.5018 8.82502 15.5458C7.62492 15.5898 6.4408 15.6098 5.2647 15.8738C4.30862 16.0898 3.48056 16.5298 2.64849 17.0139C2.93251 16.7379 3.22453 16.4698 3.54456 16.2338C4.0286 15.8778 4.58064 15.6298 5.08869 15.3137C5.13269 15.2857 5.13669 15.2177 5.08869 15.1897C4.90067 15.0897 4.68465 15.0737 4.46063 15.1057C4.48063 15.0977 4.50064 15.0897 4.51664 15.0817C4.78066 14.9657 5.04068 14.8457 5.3087 14.7257C5.49672 14.3817 5.69673 14.0456 5.90475 13.7096C5.88075 13.7656 5.85274 13.8256 5.82874 13.8816C5.72073 14.1336 5.51673 14.5497 5.64875 14.8337C5.80876 15.1737 7.08086 14.9617 7.36488 14.8297C7.82492 14.6137 7.88093 14.5937 8.04094 14.0136C8.24896 13.2576 8.35696 12.4495 9.18503 12.0895C9.22904 12.0695 9.22905 12.0095 9.20105 11.9775C8.89303 11.6334 9.08102 11.0454 8.95301 10.6253C8.94101 10.5813 8.88902 10.5573 8.84902 10.5813C8.40898 10.8373 8.03695 11.1734 7.64892 11.4974C7.5009 11.6214 7.36487 11.7614 7.22886 11.9015C7.50488 11.5894 7.78893 11.2934 8.10096 11.0254C8.05695 10.9174 8.00494 10.8093 7.94093 10.7093C7.5249 10.0533 6.64082 10.3253 5.96076 10.2333C4.85266 10.0853 3.64856 9.72526 2.81249 8.94519C1.7364 7.94911 1.5724 6.613 1.6244 5.20488C1.70441 5.68892 1.79641 6.16894 1.94843 6.63298C2.19645 7.38905 2.66449 8.01711 3.24854 8.54516C3.31654 8.60516 3.41655 8.50915 3.34855 8.44515C2.45647 7.61308 2.48446 6.20895 2.56047 5.08485C2.65648 3.68473 2.7925 2.30862 2.50048 0.920503C2.97252 0.988509 3.41254 1.23653 3.83658 1.44855C4.27262 1.66857 4.72064 1.84458 5.15268 2.0646C6.16477 2.58464 7.09686 3.2807 7.76492 4.21278C8.07694 4.64882 8.31697 5.13286 8.47299 5.6409C8.641 6.17695 8.689 6.753 8.82101 7.29705C8.91302 7.68508 9.02903 8.07711 9.14104 8.46114C9.22104 8.74116 9.34104 9.0452 9.60507 9.19321C9.63707 9.20921 9.68509 9.20521 9.70109 9.16921C9.98112 8.54115 9.76908 7.81308 9.60507 7.18503C9.42505 6.50097 9.30905 5.81292 9.18503 5.11686C9.11303 4.72883 9.03702 4.32878 8.92901 3.93275C8.93701 3.94075 8.94102 3.94875 8.94502 3.96075C9.48907 4.89683 9.61707 6.08893 9.83309 7.13302C10.0011 7.93309 10.2011 8.73717 10.3691 9.54524C10.1931 9.65725 10.0291 9.78927 9.8931 9.92928C9.66108 10.1653 9.93709 10.4053 10.1051 10.5693C10.6732 11.1294 10.3691 11.9654 10.2051 12.6375C10.0371 13.3176 10.1331 13.9456 9.56507 14.6297C11.4052 14.4657 13.6094 14.8177 14.0655 14.8257C14.1055 14.8257 14.1495 14.7897 14.1335 14.7537C13.5294 13.2096 14.3855 12.6095 14.0895 11.8014C13.9574 11.4454 14.0215 11.0894 14.2175 10.7774C14.7535 9.90528 16.1816 9.97728 17.0617 9.94928C17.1457 9.94528 17.1537 9.83726 17.0817 9.80925C15.9016 9.38922 15.0015 8.9812 13.4374 9.0252C13.7894 9.0132 14.1495 9.0212 14.5055 9.0452C14.9855 9.0812 15.4936 9.1492 16.0096 9.26121C16.1776 8.81717 16.3136 8.36113 16.3536 7.88509C16.4256 7.05702 16.2176 6.20494 16.3816 5.38087C16.4457 5.05684 16.5457 4.75283 16.6697 4.4648C16.5457 4.86084 16.4497 5.26487 16.4417 5.68891C16.4217 6.55698 16.5777 7.42505 16.6297 8.28913C16.6337 8.36114 16.7217 8.38515 16.7617 8.32514C17.0817 7.8451 17.1537 7.30104 17.1857 6.73699C17.2257 6.02093 17.2577 5.36088 17.6178 4.71683C18.2898 3.50072 19.746 2.79666 20.9461 2.22061C21.6621 1.87258 22.4022 1.57256 23.1382 1.26853C23.5303 1.10852 23.9343 1.0045 24.3343 0.864492C24.6304 0.760483 24.9264 0.612465 25.1104 0.408447L25.1184 0.42046Z" fill="#725E51"/>
</g>
<path d="M7.92868 9.14919C7.92468 9.21719 7.81668 9.20919 7.81268 9.14118C7.80868 9.10518 7.80867 9.06917 7.80467 9.03717C7.78067 9.02917 7.76467 9.01317 7.75667 8.98917C7.65266 8.64914 7.24862 8.46112 6.92859 8.2611C7.0286 8.52912 7.13662 8.79315 7.21663 9.06918C7.24463 9.16518 7.14462 9.2332 7.06461 9.17719C6.75659 8.96518 6.46455 8.73314 6.12852 8.58112C6.32054 8.76914 6.49655 8.97718 6.65257 9.2012C6.69257 9.2612 6.62858 9.34119 6.56457 9.30919C6.09653 9.08517 5.56448 9.20518 5.08444 9.03316C4.71241 8.89715 4.33637 8.71315 4.05635 8.42112C3.5443 7.89708 3.34429 7.21302 3.25628 6.50096C3.16027 5.7049 3.13227 4.92883 3.18428 4.12476C3.24428 3.23268 3.30428 2.34861 2.90425 1.52454C2.90025 1.51653 2.90027 1.50854 2.90027 1.50454C2.82826 1.46854 2.75224 1.43252 2.68023 1.39252C2.65223 1.37652 2.67225 1.33251 2.70025 1.34452C4.24838 1.90056 5.81251 2.73664 6.8886 4.00475C7.40864 4.62081 7.79668 5.32485 7.96469 6.11692C8.18071 7.10101 8.01271 8.1571 7.9247 9.14518L7.92868 9.14919Z" fill="#FFA482"/>
<path d="M24.0381 1.49253C23.9461 1.54054 23.8501 1.58853 23.7501 1.63654C23.6341 2.20059 23.5341 2.75663 23.4981 3.33668C23.4621 3.94074 23.4461 4.5488 23.386 5.14885C23.31 5.89291 23.174 6.70498 22.518 7.16902C21.9659 7.56105 21.2819 7.65306 20.6378 7.81707C19.8577 8.01309 18.8617 8.39712 18.4416 9.13718C18.3976 9.21319 18.2616 9.18518 18.2816 9.08517C18.3456 8.79715 18.3536 8.51314 18.3496 8.22512C18.1496 8.54514 17.8376 8.78516 17.5496 9.04518C17.4936 9.09318 17.4375 9.00917 17.4696 8.96116C17.5056 8.90516 17.5496 8.84917 17.5896 8.79716C17.7616 7.88508 17.6216 6.94899 17.7656 6.03291C17.8936 5.20084 18.3016 4.5328 18.9537 4.00476C19.6377 3.44871 20.4258 3.06466 21.1979 2.65662C22.0899 2.18058 23.018 1.71255 23.9781 1.38852C24.0421 1.36852 24.0981 1.46453 24.0341 1.49654L24.0381 1.49253Z" fill="#FFA482"/>
<g style="mix-blend-mode:multiply" opacity="0.4">
<path d="M7.92889 9.14917C7.92489 9.21718 7.81689 9.20917 7.81289 9.14116C7.80889 9.10516 7.80888 9.06915 7.80488 9.03715C7.78088 9.02915 7.76488 9.01315 7.75688 8.98915C7.65287 8.64912 7.24883 8.4611 6.9288 8.26108C7.02881 8.5291 7.13683 8.79313 7.21684 9.06916C7.24484 9.16517 7.14483 9.23318 7.06482 9.17717C6.7568 8.96516 6.46476 8.73312 6.12873 8.5811C6.32075 8.76912 6.49676 8.97716 6.65278 9.20118C6.69278 9.26118 6.62879 9.34117 6.56478 9.30917C6.09674 9.08515 5.56469 9.20516 5.08465 9.03314C4.71262 8.89713 4.33658 8.71313 4.05656 8.4211C3.54451 7.89706 3.3445 7.21301 3.25649 6.50094C3.25249 6.47694 3.25251 6.44894 3.2485 6.42494C3.26451 6.46894 3.2765 6.51293 3.2925 6.55693C3.39251 6.81295 3.58452 7.121 3.88855 7.153C4.37259 7.20501 4.40059 6.81696 4.5086 6.46893C4.84863 6.64095 5.33667 6.80097 5.5887 6.42093C5.85272 6.0249 5.77672 5.46085 5.70072 5.02081C5.60871 4.48077 5.44069 3.90471 5.14466 3.44067C4.62862 2.6366 3.84854 1.97255 3.03247 1.46851C4.46859 2.02455 5.89273 2.82461 6.89682 4.00871C7.41686 4.62477 7.80489 5.32884 7.97291 6.12091C8.18893 7.10499 8.0209 8.16108 7.93289 9.14917H7.92889Z" fill="#D17537"/>
</g>
<g style="mix-blend-mode:multiply" opacity="0.4">
<path d="M7.92886 9.1492C7.92486 9.21721 7.81686 9.2092 7.81286 9.14119C7.80886 9.10519 7.80885 9.06918 7.80485 9.03718C7.78085 9.02918 7.76485 9.01318 7.75685 8.98918C7.65284 8.64915 7.2488 8.46113 6.92877 8.26111C7.02878 8.52913 7.1368 8.79316 7.21681 9.06919C7.24481 9.1652 7.1448 9.23321 7.06479 9.17721C6.75677 8.96519 6.46473 8.73315 6.1287 8.58113C6.32072 8.76915 6.49673 8.97719 6.65275 9.20121C6.69275 9.26121 6.62876 9.3412 6.56475 9.3092C6.09671 9.08518 5.56466 9.20519 5.08462 9.03317C4.71259 8.89716 4.33655 8.71316 4.05653 8.42113C3.7045 8.0571 3.50048 7.62107 3.37646 7.14903C3.52048 7.37305 3.69651 7.57706 3.92453 7.74908C4.85261 8.45314 6.77676 8.72516 7.2768 7.39304C7.50082 6.79699 7.40481 6.09693 7.2768 5.49288C7.11279 4.71281 6.64876 4.05274 6.11271 3.4807C5.68867 3.02466 5.21663 2.62062 4.71259 2.25659C5.53266 2.72063 6.28873 3.2927 6.89278 4.00476C7.41283 4.62082 7.80086 5.32486 7.96888 6.11693C8.18489 7.10102 8.01686 8.15711 7.92886 9.1452V9.1492Z" fill="#D17537"/>
</g>
<g style="mix-blend-mode:multiply" opacity="0.4">
<path d="M23.33 5.59691C23.234 6.20096 23.042 6.80102 22.518 7.17305C21.9659 7.56508 21.2819 7.65709 20.6378 7.8211C19.8577 8.01712 18.8617 8.40115 18.4416 9.14121C18.3976 9.21722 18.2616 9.18921 18.2816 9.0892C18.3456 8.80118 18.3536 8.51717 18.3496 8.22914C18.1496 8.54917 17.8376 8.78919 17.5496 9.04921C17.4936 9.09721 17.4375 9.0132 17.4696 8.96519C17.5056 8.90919 17.5496 8.85319 17.5896 8.80119C17.7616 7.88911 17.6216 6.95302 17.7656 6.03694C17.8936 5.20487 18.3016 4.53681 18.9537 4.00876C19.6377 3.45271 20.4258 3.06868 21.1979 2.66065C22.0899 2.18461 23.018 1.71657 23.9781 1.39255C24.0421 1.37254 24.0981 1.46856 24.0341 1.50056C23.9421 1.54857 23.8461 1.59657 23.7461 1.64457C23.7381 1.67657 23.7341 1.71258 23.7261 1.74458C23.146 2.07661 22.522 2.33262 21.9859 2.73666C21.2899 3.2567 20.7898 3.92077 20.3018 4.62883C20.0618 4.97286 19.6577 5.65692 20.3258 5.80494C20.8258 5.91295 21.2859 5.43688 21.7219 5.20887C21.5699 5.52889 21.4139 5.93694 21.5819 6.24496C21.8019 6.649 22.51 6.31297 22.766 6.14095C22.982 5.99694 23.162 5.81293 23.3261 5.60092L23.33 5.59691Z" fill="#D17537"/>
</g>
<g style="mix-blend-mode:multiply" opacity="0.4">
<path d="M22.806 6.90501C22.722 7.00102 22.63 7.09302 22.518 7.16902C21.9659 7.56106 21.2819 7.65306 20.6378 7.81708C19.8577 8.01309 18.8617 8.39712 18.4416 9.13718C18.3976 9.21319 18.2616 9.18519 18.2816 9.08518C18.3456 8.79715 18.3536 8.51314 18.3496 8.22512C18.1496 8.54515 17.8376 8.78516 17.5496 9.04518C17.4936 9.09319 17.4375 9.00917 17.4696 8.96117C17.5056 8.90516 17.5496 8.84917 17.5896 8.79716C17.7616 7.88509 17.6216 6.94899 17.7656 6.03291C17.8936 5.20084 18.3016 4.53281 18.9537 4.00476C19.6377 3.44871 20.4258 3.06466 21.1979 2.65662C21.4259 2.53261 21.6619 2.40861 21.8979 2.2926C21.2379 2.68064 20.6178 3.12467 20.0618 3.64072C19.4897 4.17276 19.0257 4.85282 18.7257 5.56888C18.5096 6.08093 18.1736 7.04102 18.6416 7.52506C19.0337 7.93309 19.6777 7.78106 20.1738 7.70906C20.8578 7.60905 21.5379 7.46504 22.1859 7.21702C22.41 7.13302 22.614 7.029 22.806 6.91299V6.90501Z" fill="#D17537"/>
</g>
<path d="M16.7337 10.1533C17.0977 10.0853 16.7737 10.2653 16.7297 10.2973C16.4617 10.4934 16.2537 10.9694 16.0497 11.2494C15.8256 11.5574 15.5496 11.8775 15.2256 12.0375C14.7496 12.2775 14.0895 11.9535 14.1375 11.2734C14.1815 10.6694 14.8736 10.3933 15.2896 10.2573C15.7976 10.0893 16.3137 10.0373 16.8297 9.9213C16.9257 9.8973 16.7817 10.1373 16.7377 10.1573L16.7337 10.1533Z" fill="#F0D9BB"/>
<path d="M10.389 11.1614C10.481 11.5734 10.233 12.2935 9.66091 11.9894C9.35689 11.8254 9.34088 11.6334 9.30488 11.2574C9.27687 10.9733 9.09287 10.3013 8.91686 10.0893C8.88885 10.0573 9.4169 10.4453 8.94086 9.98526C8.93286 9.97726 8.96484 9.98126 8.97685 9.98926C9.54489 10.2813 10.1329 10.3453 10.353 11.0174C10.369 11.0614 10.381 11.1094 10.393 11.1614H10.389Z" fill="#F0D9BB"/>
<g style="mix-blend-mode:multiply" opacity="0.7">
<path d="M19.1658 22.6903C18.7938 23.2944 18.1457 23.4944 17.5217 23.4064C18.0097 23.7544 18.4697 24.3385 18.2537 24.9345C17.9817 25.6866 17.2976 26.1026 16.5776 26.3666C15.6255 26.7107 14.5334 26.8907 13.8293 27.6827C13.1133 28.4868 12.7533 29.5029 12.1932 30.407C11.4252 31.6431 9.98903 32.4192 8.5369 32.4752C7.75283 32.5032 6.87676 32.3232 6.2127 31.8751C5.65666 32.4272 4.72857 32.6832 4.13252 32.0871C4.12452 32.0791 4.13653 32.0631 4.14453 32.0711C4.66858 32.4832 5.53664 32.1511 5.98068 31.7031C5.66465 31.4391 5.41264 31.0991 5.26863 30.679C5.24863 30.619 5.33263 30.571 5.36864 30.627C5.60466 30.983 5.87268 31.2791 6.1647 31.5151C6.25671 31.4751 6.37272 31.5671 6.36872 31.6671C7.09678 32.1711 7.98486 32.3472 8.99295 32.1551C10.5491 31.8631 11.6292 30.991 12.3452 29.5909C13.0053 28.3028 13.6373 27.0867 15.0815 26.5747C15.7975 26.3226 16.6296 26.1706 17.2616 25.7346C17.8057 25.3585 18.2937 24.7225 17.8177 24.0545C17.6377 23.8064 17.4337 23.5784 17.2417 23.3424C16.6776 23.1824 16.1656 22.7903 15.9415 22.2463C15.9295 22.2223 15.9655 22.2023 15.9815 22.2263C16.7496 23.3784 18.0497 23.2264 19.1018 22.6263C19.1378 22.6063 19.2018 22.6423 19.1738 22.6863L19.1658 22.6903Z" fill="#725E51"/>
</g>
<path d="M15.3496 13.9816C15.3456 14.8137 15.0976 15.4857 14.7976 15.4857C14.4976 15.4817 14.2575 14.8057 14.2615 13.9736C14.2655 13.1415 14.5135 12.4695 14.8136 12.4695C15.1136 12.4735 15.3536 13.1495 15.3496 13.9816Z" fill="black"/>
<path d="M15.1135 13.0295C15.2175 13.3295 15.3575 13.9176 15.0895 13.9496C14.8255 13.9856 14.7935 13.3655 14.7935 12.9735C14.7975 12.5295 15.0095 12.7255 15.1135 13.0295Z" fill="white"/>
<path d="M9.40115 14.0976C9.13713 14.8857 8.72508 15.4617 8.48906 15.3817C8.24904 15.3017 8.27305 14.5977 8.54107 13.8096C8.80909 13.0215 9.21712 12.4455 9.45314 12.5255C9.68916 12.6055 9.66918 13.3096 9.40115 14.0976Z" fill="black"/>
<path d="M9.51295 13.1295C9.50095 13.4456 9.42493 14.0376 9.20492 13.9976C8.9849 13.9616 9.15291 13.3655 9.28092 12.9935C9.42094 12.5735 9.52896 12.8135 9.51695 13.1295H9.51295Z" fill="white"/>
<path d="M17.9295 16.1578C15.6053 15.4938 13.1971 15.3418 10.7889 15.3498C8.51273 15.3578 5.89251 15.5578 3.72033 16.3338C3.69633 16.3418 3.6163 16.2978 4.10435 16.0658C6.26053 15.0457 8.67276 14.9337 11.025 14.9297C13.2972 14.9257 16.2374 15.2497 18.3296 16.2258C18.4016 16.2578 18.0095 16.1778 17.9295 16.1538V16.1578Z" fill="#4C403E"/>
<path d="M16.0134 10.1773C15.4373 10.4133 14.1572 10.5333 14.3812 11.4614C14.3972 11.5134 14.4853 11.5174 14.5013 11.4694C14.6293 11.0733 14.8253 10.8613 15.1973 10.6773C15.4814 10.5373 15.7814 10.4213 16.0494 10.2413C16.0854 10.2173 16.0534 10.1573 16.0134 10.1733V10.1773Z" fill="#FFF6EB"/>
<path d="M9.39283 10.2373C9.36883 10.2293 9.34483 10.2573 9.36883 10.2773C9.61285 10.4733 9.76487 10.6454 9.89688 10.9294C10.0129 11.1814 10.0129 11.4454 10.0689 11.7054C10.0769 11.7494 10.1369 11.7694 10.1609 11.7214C10.4409 11.1494 9.94088 10.4173 9.39283 10.2373Z" fill="#FFF6EB"/>
<path d="M6.95273 30.459C5.12457 31.3071 3.17241 31.1871 1.58427 29.907C-1.09195 27.7508 -0.211879 25.2546 2.98439 24.8225C4.38451 24.6345 8.96892 23.9545 9.56897 25.8826C10.161 27.7868 8.58087 29.703 6.95273 30.459Z" fill="#3F3934"/>
<g style="mix-blend-mode:multiply">
<path d="M6.95278 30.459C5.12462 31.3071 3.17246 31.1871 1.58432 29.907C0.0961966 28.7109 -0.291842 27.4067 0.204201 26.4107C0.252205 26.6067 0.336218 26.7947 0.460229 26.9707C0.848262 27.5068 1.62833 27.5507 2.16037 27.8828C2.73242 28.2388 3.13645 28.9229 3.78051 29.1669C4.22855 29.3389 4.60459 29.1629 4.94462 28.8549C5.40066 28.4388 5.71267 27.8988 6.22872 27.5428C6.76476 27.1707 7.42884 27.0427 8.02089 26.7867C8.50093 26.5787 8.96897 26.2546 9.07298 25.7106C9.10498 25.5386 9.09697 25.3626 9.06497 25.1906C9.30499 25.3706 9.48501 25.5986 9.57302 25.8866C10.1651 27.7908 8.58492 29.7069 6.95678 30.463L6.95278 30.459Z" fill="#3F3934"/>
</g>
<path d="M7.96899 26.1266C6.70488 27.2907 4.65271 27.2787 3.04857 27.1587C2.42452 27.1107 0.900373 27.0987 0.880371 26.1946C0.880371 26.1506 0.944381 26.1346 0.960383 26.1786C1.2084 27.0587 3.02856 26.8627 3.73662 26.8307C4.48869 26.7987 5.22475 26.6947 5.96482 26.5746C6.66488 26.4586 7.26092 26.2506 7.92897 26.0386C7.98898 26.0226 8.01698 26.0906 7.97698 26.1266H7.96899Z" fill="#D3CBC5"/>
<path d="M3.88443 15.4457C2.93235 16.0978 1.96828 16.6458 1.52424 17.7739C1.15621 18.71 1.10019 19.6661 1.08419 20.6582C1.08419 20.6862 1.04019 20.6902 1.04019 20.6622C0.980186 19.6421 0.844161 18.414 1.2762 17.4459C1.79624 16.2858 2.73634 15.8578 3.84844 15.3737C3.89244 15.3537 3.92043 15.4177 3.88443 15.4457Z" fill="#A58B76"/>
<path d="M8.26892 11.5094C7.34884 12.3095 6.69679 13.2416 6.10074 14.2977C6.07274 14.3497 5.99673 14.3136 6.02073 14.2576C6.43277 13.1936 7.13681 11.9335 8.1769 11.3734C8.26891 11.3254 8.35293 11.4374 8.27293 11.5094H8.26892Z" fill="#A58B76"/>
<path d="M15.3737 9.84526C13.6855 9.48122 12.0574 9.40121 10.3972 9.98926C10.3572 10.0053 10.3292 9.94927 10.3652 9.92126C11.6493 8.96118 14.1135 8.66115 15.4297 9.72125C15.4817 9.76525 15.4417 9.85726 15.3737 9.84526Z" fill="#A58B76"/>
<path d="M23.5982 0.824439C20.914 1.82853 17.7337 2.80861 16.7336 5.82086C16.7216 5.86487 16.6496 5.84087 16.6576 5.79686C16.8976 4.38074 17.7137 3.26465 18.9578 2.54859C20.3819 1.73252 21.9661 1.09245 23.5582 0.712418C23.6302 0.696416 23.6662 0.796433 23.5982 0.820435V0.824439Z" fill="#A58B76"/>
<path d="M2.45242 7.34501C1.91638 6.57695 1.78439 5.53286 1.79639 4.61678C1.80839 3.61669 1.78837 2.6006 1.90438 1.60851C1.91238 1.55651 1.9884 1.56451 1.9964 1.61252C2.10841 2.6126 2.15641 3.58469 2.1124 4.59278C2.0684 5.56486 2.07241 6.42493 2.51644 7.31701C2.53244 7.35301 2.48043 7.37702 2.45643 7.34501H2.45242Z" fill="#A58B76"/>
<path d="M9.537 7.18498C9.541 7.23699 9.46899 7.24099 9.45699 7.18899C9.28897 6.28091 9.15698 5.26082 8.64493 4.46075C8.2609 3.8567 7.76484 3.34867 7.18079 2.92864C6.04069 2.10057 4.7366 1.50451 3.42048 1.00447C3.39248 0.992471 3.40447 0.948465 3.43648 0.952466C4.9246 1.3445 6.47273 1.94053 7.67683 2.93262C8.18887 3.35665 8.71692 3.85669 8.98095 4.48075C9.34098 5.33282 9.45299 6.2729 9.537 7.18498Z" fill="#A58B76"/>
<g style="mix-blend-mode:screen" opacity="0.6">
<path d="M2.85637 17.1859C5.66061 15.0297 11.3651 15.4377 14.4854 15.8618C17.6056 16.2858 17.0856 17.7979 14.5334 20.6382C11.9812 23.4744 8.66888 24.7505 7.53678 24.5145C6.40068 24.2785 5.26859 24.4185 3.24442 24.4945C1.22425 24.5705 0.832205 23.0864 1.43626 20.0701C1.62427 19.1261 2.24032 17.6579 2.85637 17.1859Z" fill="#725E51"/>
</g>
<path d="M23.3702 17.3619C22.6622 16.6818 21.5061 15.9778 20.514 16.4698C19.7179 16.8618 19.2019 17.5939 18.7058 18.298C18.6538 18.37 18.5418 18.294 18.5778 18.2139C19.0338 17.2299 19.7339 16.1618 20.858 15.9018C21.8981 15.6617 22.9302 16.4538 23.4382 17.2979C23.4622 17.3379 23.4102 17.3979 23.3742 17.3579L23.3702 17.3619Z" fill="#FFF6EB"/>
<path d="M19.5338 21.6103C18.6457 22.9024 17.0175 23.0864 16.0615 21.8223C16.0295 21.7823 16.0935 21.7223 16.1255 21.7623C17.2056 22.9184 18.4016 22.3223 19.4777 21.5503C19.5177 21.5223 19.5618 21.5743 19.5338 21.6103Z" fill="#FFF6EB"/>
<g style="mix-blend-mode:multiply" opacity="0.7">
<path d="M21.1702 63.922C20.7501 63.922 20.3821 63.5379 20.1661 63.2179C19.8381 62.7379 19.494 62.2138 19.318 61.6577C19.314 61.6457 19.33 61.6377 19.338 61.6457C19.594 62.1018 19.8541 62.5418 20.1621 62.9659C20.4221 63.3299 20.7381 63.7499 21.1782 63.8979C21.1902 63.9019 21.1862 63.922 21.1742 63.922H21.1702Z" fill="#725E51"/>
</g>
<g style="mix-blend-mode:multiply" opacity="0.7">
<path d="M19.2819 64.218C18.7739 63.9579 18.3298 63.5819 17.9698 63.1378C17.6498 62.7378 17.4418 62.2778 17.1897 61.8417C17.1857 61.8337 17.1777 61.8417 17.1777 61.8457C17.4178 62.7898 18.2258 64.0699 19.2739 64.246C19.2899 64.25 19.2939 64.226 19.2819 64.222V64.218Z" fill="#725E51"/>
</g>
<g style="mix-blend-mode:multiply" opacity="0.7">
<path d="M21.2981 61.7578C21.3021 61.7738 21.2781 61.7778 21.2741 61.7658C21.1061 61.3897 20.754 61.1737 20.482 60.8857C20.474 61.0577 20.474 61.2297 20.486 61.4057C20.486 61.4217 20.466 61.4257 20.462 61.4097C20.306 61.0337 20.35 60.6376 20.41 60.2416C20.486 59.7696 20.566 59.2895 20.55 58.8055C20.55 58.7975 20.558 58.7975 20.562 58.8055C20.654 59.4376 20.542 60.0656 20.494 60.7017C20.51 60.7057 20.522 60.7097 20.534 60.7217C20.814 61.0497 21.2261 61.3017 21.3021 61.7578H21.2981Z" fill="#725E51"/>
</g>
<g style="mix-blend-mode:multiply" opacity="0.7">
<path d="M24.7864 64.1498C24.2623 63.8898 24.0743 63.2578 23.9063 62.7377C23.6863 62.0497 23.5182 61.3456 23.4302 60.6255C23.4262 60.6055 23.4623 60.5976 23.4703 60.6176C23.6263 61.2376 23.8183 61.8336 24.0303 62.4377C24.2183 62.9737 24.3863 63.7018 24.8224 64.0898C24.8504 64.1138 24.8224 64.1658 24.7864 64.1458V64.1498Z" fill="#725E51"/>
</g>
<g style="mix-blend-mode:multiply" opacity="0.7">
<path d="M27.0306 63.8139C26.6345 63.6979 26.4185 63.0738 26.2705 62.7298C26.0505 62.2137 25.8945 61.6737 25.8025 61.1217C25.8025 61.1097 25.8185 61.1057 25.8225 61.1177C25.9585 61.5737 26.1145 62.0257 26.3145 62.4538C26.5185 62.8858 26.7025 63.4218 27.0586 63.7539C27.0826 63.7739 27.0666 63.8259 27.0306 63.8139Z" fill="#725E51"/>
</g>
<g style="mix-blend-mode:multiply" opacity="0.7">
<path d="M28.2625 62.2777C28.2585 62.2977 28.2225 62.2977 28.2225 62.2737C28.2225 61.3896 28.3185 60.4215 27.9385 59.5975C27.9385 59.5895 27.9465 59.5894 27.9465 59.5934C28.4105 60.4135 28.4185 61.3656 28.2665 62.2777H28.2625Z" fill="#725E51"/>
</g>
<path d="M50.6406 38.1437C48.8084 38.0597 47.0363 38.7838 45.3921 39.5318C43.96 40.1839 42.5679 40.936 41.2918 41.856C38.6635 43.7602 36.4473 46.2604 36.0593 49.6007C36.0553 49.6407 35.9873 49.6367 35.9873 49.5967C36.0193 46.2684 38.2115 43.3882 40.7357 41.408C42.1318 40.3159 43.656 39.3838 45.2721 38.6477C46.0402 38.2997 46.8482 37.9037 47.6763 37.7317C48.6964 37.5197 49.6525 37.6477 50.6526 37.9317C50.7606 37.9597 50.7726 38.1477 50.6406 38.1437Z" fill="#A58B76"/>
<path d="M28.5747 30.591C29.3028 30.883 30.1428 31.1631 30.5189 31.4711C31.583 32.3512 32.283 33.6113 32.6951 34.9154C33.2071 36.5475 33.2351 39.4718 32.7151 41.888C32.8071 40.4078 32.619 38.8797 32.415 37.6636C32.167 36.1915 31.763 34.7234 30.9749 33.4432C30.3429 32.4152 29.5188 31.4191 28.5747 30.591Z" fill="#A58B76"/>
<path d="M53.8248 34.8114C52.9007 33.9673 51.1845 31.8952 50.1965 31.1191C49.2604 30.383 48.2683 29.703 47.2442 29.0989C46.1081 28.4349 44.724 27.9188 43.4039 28.1068C42.2238 28.2749 41.5957 28.4269 40.1436 28.8269C40.1276 28.8309 38.4595 29.2469 38.4755 29.2389C42.4838 27.7508 42.9158 27.8908 44.3799 27.7428C45.516 27.6308 46.5322 27.9508 47.5042 28.5349C48.5523 29.1669 49.5244 30.015 50.4445 30.8151C51.4006 31.6471 51.9446 32.4912 52.7647 33.4593C53.2567 34.0393 53.9008 34.8754 53.8288 34.8074L53.8248 34.8114Z" fill="#A58B76"/>
<path d="M61.2374 67.0421C61.2374 67.0781 61.0974 65.518 61.0934 65.482C61.0374 62.8618 61.1014 60.4816 61.0214 57.8574C60.9534 55.5212 60.7374 53.525 60.5613 51.1928C60.1973 46.4084 58.6292 41.7319 55.8449 37.6836C55.4529 37.1156 54.7528 36.1995 54.7808 36.2275C58.1291 39.6718 60.4854 46.3403 60.9534 51.0127C61.1974 53.485 61.3254 55.4812 61.3414 57.9614C61.3614 60.5776 61.3054 64.1659 61.2334 67.0381L61.2374 67.0421Z" fill="#A58B76"/>
<path d="M79.031 73.5067C76.6468 73.5827 74.2746 73.4627 71.8864 73.5907C70.1863 73.6827 68.4701 73.7627 66.778 73.5707C65.2499 73.3947 63.6777 73.0066 62.4176 72.0905C61.1215 71.1505 60.2174 69.6424 59.9654 68.0622C59.9534 67.9982 60.0494 67.9822 60.0734 68.0382C60.7095 69.6983 61.5215 71.1665 63.1297 72.0626C64.5098 72.8346 66.0899 73.1227 67.658 73.2147C69.3222 73.3107 70.9904 73.2107 72.6585 73.1187C74.7867 73.0027 76.9308 73.0706 79.043 73.3907C79.107 73.3987 79.103 73.4987 79.039 73.5027L79.031 73.5067Z" fill="#A58B76"/>
<path d="M15.5455 30.723C14.4334 31.9711 13.7814 33.4032 12.9733 34.8394C12.9453 34.8874 12.8613 34.8674 12.8773 34.8114C13.3333 33.2072 14.2574 31.7751 15.5135 30.687C15.5335 30.667 15.5655 30.703 15.5455 30.723Z" fill="#FFF6EB"/>
<path d="M15.5617 29.931C15.1976 30.443 14.7616 30.8991 14.3856 31.4031C14.3496 31.4511 14.2696 31.3991 14.2976 31.3471C14.5736 30.775 15.0696 30.339 15.4937 29.875C15.5337 29.835 15.5897 29.883 15.5617 29.927V29.931Z" fill="#FFF6EB"/>
<path d="M14.5733 33.4832C13.5853 34.9314 13.0452 36.4955 12.6452 38.1877C12.6332 38.2397 12.5452 38.2437 12.5452 38.1837C12.5572 36.3835 13.3132 34.7474 14.4973 33.4193C14.5413 33.3712 14.6093 33.4312 14.5733 33.4832Z" fill="#FFF6EB"/>
<path d="M14.5335 41.74C13.9974 40.8439 13.6494 39.9758 13.6174 38.9237C13.5854 37.9037 13.8454 36.9516 14.0654 35.9675C14.0774 35.9115 13.9974 35.8875 13.9734 35.9395C12.9973 37.7836 13.1014 40.1679 14.4455 41.808C14.4935 41.864 14.5775 41.808 14.5375 41.744L14.5335 41.74Z" fill="#FFF6EB"/>
<path d="M26.2585 47.0405C26.0824 48.7366 25.4504 50.3127 24.7743 51.8609C24.1783 53.225 23.4062 54.6291 23.1582 56.1132C23.1542 56.1492 23.2022 56.1653 23.2182 56.1333C24.4423 53.185 26.1905 50.3168 26.2865 47.0445C26.2865 47.0285 26.2665 47.0285 26.2625 47.0445L26.2585 47.0405Z" fill="#A58B76"/>
<path d="M23.0263 62.7658C22.0623 61.1857 21.8662 59.0015 22.7383 57.3493C22.7543 57.3173 22.7983 57.3373 22.7863 57.3693C22.1703 59.0175 22.2983 61.1617 23.0703 62.7378C23.0823 62.7658 23.0423 62.7858 23.0223 62.7618L23.0263 62.7658Z" fill="#A58B76"/>
<path d="M16.9057 59.0055C16.4936 60.0376 15.7656 61.2937 16.1216 62.4258C16.1296 62.4498 16.0936 62.4738 16.0776 62.4458C15.6536 61.6297 15.9616 60.7656 16.2496 59.9376C16.6617 58.7535 17.2697 57.6174 17.3177 56.3373C17.3177 56.3133 17.3537 56.3093 17.3537 56.3333C17.4417 57.2734 17.2497 58.1334 16.9017 59.0055H16.9057Z" fill="#A58B76"/>
<path d="M15.8934 54.4131C14.7333 53.453 13.6372 52.3889 12.5811 51.3208C11.801 50.5327 11.421 49.5687 11.185 48.5006C10.6009 45.8483 11.037 43.1761 11.545 40.5559C11.549 40.5359 11.573 40.5399 11.573 40.5599C11.285 43.0721 11.005 45.7083 11.493 48.2125C11.737 49.4646 12.1971 50.6007 13.1012 51.5208C14.0412 52.4729 15.0213 53.385 15.9414 54.3571C15.9694 54.3931 15.9294 54.4451 15.8934 54.4131Z" fill="#A58B76"/>
</svg>
