<svg width="72" height="80" viewBox="0 0 72 80" fill="none" xmlns="http://www.w3.org/2000/svg">
<path d="M62.8391 42.4701C62.6271 42.6701 62.4711 42.9061 62.4231 43.4581C60.9352 41.6302 61.1072 39.3983 62.9351 36.7624C65.679 32.8065 67.3989 31.9186 66.123 28.4707C65.275 26.1748 63.6591 24.5789 61.2752 23.6869L57.5474 14.8873C60.9472 18.5032 63.4551 21.291 65.075 23.247C67.5109 26.1828 68.8629 30.2707 66.855 33.0945C64.8471 35.9144 61.2592 39.1663 62.8391 42.4701Z" fill="#CC7206"/>
<path d="M71.4787 49.6418C71.4387 49.9818 71.3107 50.2818 71.0987 50.5338C70.6747 50.0218 70.4628 49.8298 70.4628 49.9578C70.4628 50.1498 71.9907 53.1456 67.9109 56.9735C68.8668 54.9976 68.4188 54.0416 66.7669 53.5296C65.107 53.0217 63.763 53.2136 64.151 50.9177C63.5551 51.3017 63.047 51.4097 62.6191 51.2377C63.639 50.4298 63.5551 49.6858 62.3631 49.0058C60.7112 48.0619 60.2072 45.978 61.9511 43.9541C62.0951 43.7861 62.2551 43.6221 62.4271 43.4541C62.4791 42.9021 62.6311 42.6661 62.8431 42.4661C64.611 41.3662 65.299 42.2421 67.1469 43.1341C68.9948 44.026 68.9308 44.922 68.9948 45.558C69.0628 46.194 69.8908 47.1499 70.5267 46.3859C70.8467 47.0859 69.7628 47.7219 69.1868 47.4699C71.4187 49.0018 71.5467 49.1258 71.4827 49.6378L71.4787 49.6418Z" fill="#782600"/>
<g style="mix-blend-mode:multiply">
<g style="mix-blend-mode:multiply">
<path d="M64.0431 35.4185C63.8711 35.5865 63.7031 35.7504 63.5391 35.9104C65.923 32.6586 67.3029 31.6506 66.123 28.4668C65.275 26.1709 63.6591 24.5749 61.2752 23.683L57.5474 14.8834C60.1432 17.6472 62.3112 20.0311 64.0511 22.035C63.2671 21.2511 61.5952 19.7311 61.5952 20.9791C61.5952 22.611 62.8191 22.527 64.367 24.4869C65.919 26.4468 69.8308 29.7867 64.0431 35.4145V35.4185Z" fill="#CC7206"/>
</g>
</g>
<g style="mix-blend-mode:multiply" opacity="0.5">
<g style="mix-blend-mode:multiply" opacity="0.5">
<path d="M71.4787 49.6419C71.4387 49.9819 71.3107 50.2818 71.0987 50.5338C70.6747 50.0218 70.4628 49.8299 70.4628 49.9579C70.4628 50.1499 71.9907 53.1457 67.9109 56.9735C68.8668 54.9976 68.4188 54.0417 66.7669 53.5297C65.107 53.0217 63.763 53.2137 64.151 50.9178C63.5551 51.3018 63.047 51.4098 62.6191 51.2378C63.639 50.4298 63.5551 49.6859 62.3631 49.0059C60.7112 48.0619 60.2072 45.978 61.9511 43.9541C62.0951 43.7861 62.2551 43.6221 62.4271 43.4541C62.4791 42.9022 62.6311 42.6662 62.8431 42.4662C63.0911 42.3102 63.319 42.1942 63.531 42.1142C63.1751 42.5822 63.0631 43.2262 63.483 44.1181C62.1751 43.7541 60.6512 46.442 62.9751 47.386C64.523 48.0139 64.911 48.7179 64.135 49.4939C65.247 50.0259 65.803 49.4459 65.803 47.7499C67.4749 50.3658 68.4908 47.53 68.1988 45.5701C69.0348 46.586 69.3828 47.598 70.5667 46.714C70.4987 47.266 69.6628 47.6859 69.1788 47.474C71.4107 49.0059 71.5387 49.1299 71.4747 49.6419H71.4787Z" fill="#782600"/>
</g>
</g>
<g style="mix-blend-mode:screen">
<path d="M64.3872 43.3101C65.9711 43.2621 67.1711 43.8221 67.987 44.9941C69.215 46.758 67.9111 41.7782 64.3872 43.3101Z" fill="#782600"/>
</g>
<g style="mix-blend-mode:screen">
<path d="M65.2312 24.379C68.2471 27.1388 68.5791 30.1547 66.2272 33.4226C68.4511 31.6586 68.679 27.5988 65.2312 24.379Z" fill="#CC7206"/>
</g>
<path d="M44.948 13.5794C45.84 11.1555 47.6599 9.62357 50.4038 8.9876C52.3157 8.50762 55.6635 11.2835 58.4354 16.3553C60.8273 20.6631 65.8991 25.9229 55.8515 41.8022C53.8436 44.0981 53.5556 45.63 54.2236 46.7739C54.8955 47.9219 55.1275 50.7858 52.2797 55.0576C50.4837 57.5975 49.5078 58.3894 50.4197 59.6414C51.4117 61.0053 52.0317 64.2892 49.0558 64.8451C48.2519 65.5891 45.34 65.8971 44.472 65.1531C43.356 65.6491 41.7441 64.2252 42.1201 62.0573C42.4921 59.8894 43.232 59.9494 44.968 58.7134C46.7039 57.4735 47.9439 56.9775 48.2519 52.3937C48.4559 49.3378 48.2719 47.5019 47.6919 46.8819C46.5359 47.7499 45.604 48.2019 44.904 48.2459C44.204 48.2859 44.556 46.7379 45.96 43.6021C57.2075 33.4745 56.8715 23.471 44.944 13.5874L44.948 13.5794Z" fill="#CC7206"/>
<g style="mix-blend-mode:multiply" opacity="0.5">
<g style="mix-blend-mode:multiply" opacity="0.5">
<path d="M53.5275 52.9057C53.1995 53.5776 52.7955 54.2936 52.2836 55.0536C50.4876 57.5935 49.5117 58.3854 50.4236 59.6374C51.4156 61.0013 52.0356 64.2852 49.0597 64.8412C48.2558 65.5851 45.3439 65.8931 44.4759 65.1491C43.36 65.6451 41.748 64.2212 42.124 62.0533C42.496 59.8854 43.236 59.9454 44.9719 58.7094C46.7078 57.4695 47.9478 56.9735 48.2558 52.3897C48.4598 49.3338 48.2758 47.4979 47.6958 46.8779C46.5398 47.7459 45.6079 48.1979 44.9079 48.2419C44.2079 48.2819 44.5599 46.7339 45.9639 43.5981C57.2114 33.4705 56.8754 23.467 44.9479 13.5834C45.8399 11.1595 47.6598 9.62758 50.4037 8.9916C52.1196 8.56362 54.9915 10.7555 57.5634 14.8713L57.5474 14.8953C54.6515 10.8195 52.3996 9.38759 50.7836 10.5995C48.3637 12.4155 57.4433 16.4553 56.1314 24.5269C55.5274 28.7627 55.2234 30.8826 56.7354 30.8826C58.2513 30.8826 56.7354 32.9026 55.6234 33.0026C54.5115 33.1025 55.6235 35.3225 54.3155 38.9583C56.1314 38.0503 58.8513 32.0986 59.0553 27.9588C59.2593 24.2269 60.9712 34.5185 53.8075 42.2861C51.1836 45.514 50.0717 45.618 50.2757 47.9379C50.4756 50.2578 49.6677 53.1857 48.6598 55.3056C47.6518 57.4255 50.1757 58.6374 52.7996 53.8936C53.0596 53.4257 53.2995 53.1097 53.5235 52.9217L53.5275 52.9057Z" fill="#CC7206"/>
</g>
</g>
<path d="M34.2167 51.9457C34.6767 53.0657 34.3847 55.7576 34.1807 57.1255C33.9687 58.4935 35.1727 59.3654 34.9647 61.9333C34.5527 65.0412 31.0288 65.6611 29.8289 64.9572C29.5529 65.3452 29.1529 65.4412 28.6249 65.2492C27.925 65.8291 25.8931 64.9172 25.3691 62.3853C24.9611 60.4014 26.7811 58.3135 27.617 59.5134C28.085 59.0414 28.6609 58.7854 29.1809 59.4094C30.5409 57.7375 30.9569 59.9294 31.6368 58.6255C32.0888 57.7535 31.5848 56.1016 30.1209 53.6657L34.2167 51.9457Z" fill="#CC7206"/>
<g style="mix-blend-mode:multiply" opacity="0.5">
<g style="mix-blend-mode:multiply" opacity="0.5">
<path d="M34.961 61.9333C34.549 65.0411 31.0251 65.6611 29.8252 64.9571C29.5492 65.3451 29.1492 65.4411 28.6212 65.2491C27.9213 65.8291 25.8894 64.9171 25.3654 62.3852C24.9574 60.4013 26.7774 58.3134 27.6133 59.5134C28.0813 59.0414 28.6572 58.7854 29.1772 59.4094C30.5372 57.7375 30.9531 59.9294 31.6331 58.6254C31.7651 58.3694 31.7851 58.0214 31.7371 57.6295C31.7371 57.6335 31.7411 57.6375 31.7411 57.6415C32.1331 59.0814 33.3531 58.9174 33.3531 56.7535C33.3531 54.5896 33.2411 53.3136 31.9091 53.8096C31.0252 54.1416 30.8572 54.9576 31.4132 56.2495L31.3771 56.2615C31.0531 55.3816 30.6371 54.5176 30.1212 53.6616L34.217 51.9417C34.677 53.0617 34.385 55.7535 34.181 57.1215C33.969 58.4894 35.173 59.3614 34.965 61.9293L34.961 61.9333Z" fill="#CC7206"/>
</g>
</g>
<path d="M27.6132 59.5134C27.4612 59.7654 27.3052 60.0813 27.1452 60.4693C27.0852 60.6173 27.0253 60.7773 26.9653 60.9493C26.9053 61.1173 26.8613 61.3013 26.8173 61.4853C26.7733 61.6733 26.7532 61.8733 26.7332 62.0733C26.7252 62.2732 26.7173 62.4732 26.7493 62.6692C26.7533 62.7692 26.7812 62.8692 26.7932 62.9692C26.8212 63.0612 26.8412 63.1612 26.8772 63.2532C26.9132 63.3452 26.9452 63.4372 26.9892 63.5252C27.0252 63.6132 27.0732 63.6972 27.1212 63.7812C27.1652 63.8652 27.2252 63.9372 27.2772 64.0132C27.3292 64.0932 27.3852 64.1572 27.4412 64.2252C27.4932 64.2972 27.5572 64.3612 27.6132 64.4172C27.6732 64.4772 27.7252 64.5371 27.7852 64.5891C27.9052 64.6891 28.0092 64.7931 28.1092 64.8691C28.2132 64.9491 28.3012 65.0251 28.3772 65.0771C28.4772 65.1491 28.5572 65.2091 28.6132 65.2531C28.5452 65.2291 28.4572 65.1931 28.3372 65.1451C28.2492 65.1131 28.1452 65.0571 28.0252 64.9971C27.9052 64.9411 27.7772 64.8571 27.6412 64.7651C27.5652 64.7211 27.5052 64.6651 27.4332 64.6091C27.3572 64.5571 27.2892 64.4931 27.2252 64.4252C27.0852 64.2932 26.9492 64.1372 26.8292 63.9612C26.7652 63.8732 26.7093 63.7812 26.6573 63.6852C26.6013 63.5892 26.5612 63.4852 26.5212 63.3772C26.4772 63.2732 26.4493 63.1612 26.4173 63.0532C26.4013 62.9412 26.3653 62.8332 26.3573 62.7172C26.3253 62.4892 26.3373 62.2612 26.3533 62.0413C26.3773 61.8213 26.4253 61.6053 26.4813 61.4053C26.5972 61.0013 26.7692 60.6573 26.9372 60.3733C27.1092 60.0933 27.2772 59.8773 27.3972 59.7334C27.4812 59.6374 27.5492 59.5654 27.6012 59.5134H27.6132Z" fill="#782600"/>
<path d="M29.181 59.4134C29.145 59.4654 29.097 59.5414 29.033 59.6414C28.941 59.7894 28.821 60.0054 28.701 60.2654C28.577 60.5293 28.453 60.8453 28.373 61.1893C28.333 61.3613 28.301 61.5413 28.285 61.7253C28.269 61.9093 28.269 62.0973 28.281 62.2773C28.293 62.4653 28.325 62.6492 28.369 62.8252C28.417 63.0052 28.473 63.1772 28.541 63.3412C28.617 63.5012 28.689 63.6572 28.773 63.7972C28.813 63.8732 28.857 63.9372 28.901 64.0052C28.941 64.0692 28.981 64.1332 29.025 64.1932C29.113 64.3132 29.189 64.4212 29.265 64.5132C29.337 64.6052 29.401 64.6892 29.461 64.7572C29.537 64.8452 29.597 64.9132 29.637 64.9692C29.581 64.9292 29.505 64.8772 29.409 64.8132C29.333 64.7652 29.253 64.6972 29.161 64.6172C29.061 64.5372 28.965 64.4452 28.857 64.3332C28.749 64.2292 28.641 64.1012 28.537 63.9572C28.433 63.8172 28.333 63.6612 28.241 63.4892C28.157 63.3132 28.0691 63.1292 28.0171 62.9292C27.9611 62.7292 27.9211 62.5213 27.9051 62.3133C27.8891 62.1013 27.897 61.8893 27.921 61.6853C27.941 61.4813 28.0011 61.2853 28.0531 61.1013C28.173 60.7293 28.3411 60.4133 28.513 60.1614C28.681 59.9054 28.853 59.7174 28.977 59.5934C29.061 59.5094 29.129 59.4494 29.181 59.4134Z" fill="#782600"/>
<g style="mix-blend-mode:multiply">
<path d="M34.5448 59.0094C34.8008 59.7333 35.0728 60.6053 34.9608 61.9332C34.5488 65.0411 31.0249 65.6611 29.8249 64.9571C29.549 65.3451 29.149 65.4411 28.621 65.2491C27.921 65.8291 25.8892 64.9171 25.3652 62.3852C25.3532 62.3252 25.3452 62.2692 25.3372 62.2052C25.4932 62.8652 25.7652 63.5092 26.2531 63.5972C25.8132 62.7172 26.0131 61.7532 26.8451 60.7013C26.5811 62.5452 26.8011 63.5092 27.5051 63.5972C28.557 63.7292 27.3051 61.8852 28.361 60.5693C28.493 62.8052 28.953 63.9252 30.7289 63.4652C32.4088 63.0292 34.7888 61.6533 34.5488 59.0054L34.5448 59.0094Z" fill="#CC7206"/>
</g>
<path d="M22.8169 51.4977C22.4249 53.2617 22.3849 55.5736 22.6969 58.4334C23.1689 62.7252 24.4048 66.9011 25.6968 68.665C26.9887 70.4289 25.4008 71.0729 24.2848 72.0728C23.1689 73.0728 22.5809 74.4847 21.345 75.2447C19.349 76.0687 17.5291 76.0687 15.4652 74.8327C14.9373 75.1287 13.9973 75.1887 13.1133 73.7768C10.1735 73.3048 11.2894 69.8969 12.0534 68.545C12.8173 67.193 14.1733 67.485 15.2852 68.017C16.4052 68.545 18.6971 66.6051 19.989 65.7251C21.285 64.8412 20.401 62.3733 19.345 58.7294C18.3251 56.4975 16.5252 52.5777 13.9373 46.9739C18.0131 47.7979 20.969 49.3058 22.8129 51.5017L22.8169 51.4977Z" fill="#FF9911"/>
<g style="mix-blend-mode:multiply" opacity="0.5">
<g style="mix-blend-mode:multiply" opacity="0.5">
<path d="M24.289 72.0769C23.173 73.0768 22.5851 74.4888 21.3491 75.2487C19.3532 76.0727 17.5332 76.0727 15.4693 74.8367C14.9414 75.1327 14.0014 75.1927 13.1175 73.7808C10.1776 73.3088 11.2936 69.901 12.0575 68.549C12.8215 67.1971 14.1774 67.4891 15.2894 68.021C16.3813 68.537 18.5892 66.7051 19.8972 65.7971C19.2972 66.4571 18.4252 67.1491 17.7573 67.6771C16.6333 68.565 19.0572 69.925 20.6571 68.741C22.2531 67.5571 23.969 67.0251 22.901 64.2412C20.9971 59.2614 20.8891 52.1737 19.1172 52.2937C17.6093 52.3937 18.7052 56.8015 19.0692 58.1295C17.9532 55.6896 16.2453 51.9737 13.9374 46.978C18.0132 47.8019 20.9691 49.3099 22.8131 51.5058C22.4211 53.2697 22.3811 55.5816 22.693 58.4415C23.165 62.7333 24.401 66.9091 25.6929 68.673C26.9849 70.4369 25.3969 71.0809 24.281 72.0809L24.289 72.0769Z" fill="#C97106"/>
</g>
</g>
<g style="mix-blend-mode:multiply">
<g style="mix-blend-mode:multiply">
<path d="M24.2888 72.0769C23.1729 73.0768 22.5849 74.4887 21.3489 75.2487C19.353 76.0727 17.5331 76.0727 15.4692 74.8367C14.9412 75.1327 14.0013 75.1927 13.1173 73.7808C10.4894 73.3608 11.1054 70.5889 11.8094 69.037L11.8253 69.061C11.2374 70.4489 11.1974 71.4049 11.7094 71.9289C12.3293 72.5528 11.8773 69.9689 13.9333 68.609C12.7853 70.5929 12.8573 72.5528 13.8133 73.1768C14.5773 73.6288 15.0292 71.1689 16.1812 70.0449C15.1292 72.1968 14.8892 73.7008 17.3531 74.3967C19.817 75.0887 21.5129 73.6568 22.1329 72.5568C22.7569 71.4569 23.4728 71.1689 24.3328 70.7369C24.9928 70.4089 25.7327 69.805 25.5327 68.429C25.5887 68.513 25.6448 68.593 25.7008 68.673C26.9927 70.4369 25.4048 71.0809 24.2888 72.0809V72.0769Z" fill="#C97106"/>
</g>
</g>
<g style="mix-blend-mode:multiply" opacity="0.5">
<g style="mix-blend-mode:multiply" opacity="0.5">
<path d="M13.1214 73.7808C13.0734 73.6968 13.0215 73.5808 12.9615 73.4248C12.9175 73.3088 12.8655 73.1648 12.8175 72.9968C12.7975 72.9128 12.7695 72.8248 12.7455 72.7288C12.7255 72.6368 12.7055 72.5328 12.6855 72.4288C12.6495 72.2168 12.6215 71.9849 12.6135 71.7369C12.6055 71.4889 12.6095 71.2249 12.6495 70.9529C12.6655 70.8169 12.6815 70.6809 12.7175 70.5449C12.7495 70.4089 12.7775 70.2649 12.8295 70.1289C12.8735 69.9929 12.9215 69.8529 12.9814 69.721L13.0734 69.521C13.0814 69.501 13.0815 69.497 13.1015 69.465L13.1254 69.421L13.1774 69.329L13.2854 69.145C13.3254 69.081 13.3734 69.021 13.4214 68.961C13.4694 68.901 13.5135 68.837 13.5655 68.781L13.7294 68.625C13.7814 68.573 13.8454 68.525 13.9054 68.485C13.9694 68.445 14.0294 68.401 14.0974 68.365C14.2294 68.301 14.3614 68.233 14.5054 68.201C14.6414 68.157 14.7854 68.145 14.9214 68.129C14.9893 68.129 15.0533 68.129 15.1213 68.129C15.1853 68.129 15.2534 68.137 15.3134 68.145C15.5694 68.169 15.7973 68.245 16.0013 68.321C16.2053 68.393 16.3813 68.485 16.5373 68.569C16.6893 68.649 16.8173 68.733 16.9213 68.801C17.0213 68.869 17.1013 68.929 17.1533 68.969C17.1893 68.993 17.2173 69.013 17.2373 69.025C17.1493 68.985 17.0333 68.929 16.8813 68.869C16.6573 68.773 16.3333 68.633 15.9333 68.533C15.8333 68.513 15.7293 68.481 15.6213 68.473C15.5693 68.465 15.5134 68.453 15.4574 68.445C15.4014 68.445 15.3453 68.437 15.2854 68.433C15.2294 68.429 15.1734 68.433 15.1134 68.433C15.0574 68.437 14.9974 68.437 14.9414 68.445C14.8254 68.473 14.7054 68.481 14.5934 68.525C14.4774 68.553 14.3734 68.617 14.2654 68.673C14.2134 68.705 14.1654 68.749 14.1174 68.785C14.0654 68.821 14.0134 68.857 13.9734 68.901L13.8374 69.037C13.7934 69.081 13.7614 69.137 13.7214 69.189C13.6814 69.237 13.6414 69.285 13.6054 69.341L13.5014 69.521L13.4454 69.613L13.4214 69.657C13.4214 69.653 13.4055 69.681 13.4055 69.693L13.3214 69.8769C13.2574 69.9969 13.2174 70.1209 13.1694 70.2489C13.0814 70.4969 13.0134 70.7529 12.9694 71.0009C12.9254 71.2529 12.9015 71.4969 12.8895 71.7369C12.8815 71.9729 12.8855 72.1968 12.8975 72.4008C12.9095 72.6088 12.9295 72.8008 12.9535 72.9648C12.9815 73.1328 13.0014 73.2808 13.0294 73.4008C13.0574 73.5208 13.0735 73.6128 13.0895 73.6808C13.1015 73.7208 13.1095 73.7568 13.1175 73.7808H13.1214Z" fill="#782600"/>
</g>
<g style="mix-blend-mode:multiply" opacity="0.5">
<path d="M15.4694 74.8367C15.4454 74.8207 15.4134 74.7967 15.3774 74.7647C15.3214 74.7087 15.2375 74.6287 15.1575 74.5087C15.0775 74.3847 14.9855 74.2247 14.9215 74.0287C14.8815 73.9287 14.8655 73.8247 14.8335 73.7087C14.8215 73.5927 14.7935 73.4727 14.7935 73.3447C14.7695 73.0888 14.7975 72.8128 14.8415 72.5248C14.8655 72.3808 14.9055 72.2368 14.9375 72.0888C14.9775 71.9408 15.0295 71.7968 15.0775 71.6408C15.1335 71.4968 15.1855 71.3528 15.2495 71.2049C15.3175 71.0569 15.3775 70.8969 15.4615 70.7529C15.6135 70.4569 15.8055 70.1609 16.0614 69.9089C16.1174 69.8449 16.1974 69.7929 16.2694 69.7369C16.3414 69.6809 16.4214 69.6369 16.5014 69.5889C16.6654 69.5089 16.8374 69.4449 17.0134 69.4169C17.3654 69.3489 17.6974 69.3769 18.0094 69.4089C18.1693 69.4249 18.3173 69.4409 18.4653 69.4689C18.6133 69.4969 18.7573 69.5169 18.8973 69.5449C19.1813 69.6009 19.4453 69.6729 19.6773 69.7369C19.9172 69.8009 20.1052 69.8329 20.2692 69.7409C20.2852 69.7329 20.3132 69.7209 20.3252 69.7129C20.3452 69.7009 20.3652 69.6849 20.3812 69.6689C20.4212 69.6409 20.4572 69.6169 20.4932 69.5929C20.5652 69.5449 20.6332 69.4969 20.6772 69.4489C20.7292 69.4009 20.7812 69.3609 20.8212 69.3249C20.8612 69.2849 20.8932 69.2529 20.9212 69.2209C20.9572 69.1849 20.9852 69.1569 21.0012 69.1329C20.9892 69.1569 20.9652 69.1929 20.9372 69.2369C20.9132 69.2689 20.8892 69.3089 20.8572 69.3529C20.8252 69.3969 20.7812 69.4489 20.7332 69.5049C20.6892 69.5649 20.6292 69.6209 20.5652 69.6769C20.5333 69.7049 20.5013 69.7369 20.4653 69.7689L20.4133 69.8169C20.3893 69.8369 20.3652 69.8489 20.3412 69.8649C20.2932 69.8929 20.2532 69.9289 20.1892 69.9449C20.1332 69.9649 20.0733 69.9849 20.0093 69.9809C19.9773 69.9849 19.9453 69.9849 19.9133 69.9849C19.8813 69.9809 19.8532 69.9769 19.8212 69.9769C19.7612 69.9689 19.6973 69.9609 19.6373 69.9489C19.3893 69.9049 19.1333 69.8649 18.8573 69.8249C18.7213 69.8049 18.5733 69.7929 18.4253 69.7769C18.2853 69.7649 18.1293 69.7489 17.9813 69.7369C17.6813 69.7169 17.3734 69.7169 17.0854 69.7729C16.9414 69.8009 16.8054 69.8529 16.6774 69.9169C16.6174 69.9609 16.5534 69.9889 16.4934 70.0369C16.4374 70.0849 16.3774 70.1249 16.3254 70.1809C16.1094 70.3849 15.9334 70.6489 15.7854 70.9249C15.7054 71.0609 15.6454 71.2009 15.5774 71.3408C15.5094 71.4808 15.4534 71.6248 15.3895 71.7688C15.3375 71.9048 15.2895 72.0448 15.2375 72.1808C15.2015 72.3168 15.1534 72.4528 15.1214 72.5888C15.0934 72.7248 15.0615 72.8488 15.0455 72.9768C15.0375 73.0408 15.0254 73.1048 15.0214 73.1648C15.0175 73.2248 15.0135 73.2848 15.0135 73.3488C15.0015 73.4687 15.0175 73.5807 15.0175 73.6887C15.0335 73.7967 15.0375 73.9007 15.0615 73.9927C15.0975 74.1847 15.1614 74.3447 15.2214 74.4727C15.3014 74.6407 15.3854 74.7647 15.4694 74.8447V74.8367Z" fill="#782600"/>
</g>
</g>
<path d="M46.2441 45.29C45.7641 48.1939 44.5202 51.0777 42.5123 53.9496C39.4964 58.2534 38.3044 61.9373 37.8844 67.117C37.4365 71.5608 41.5043 71.4048 41.4563 74.9727C41.4123 78.5445 39.0484 79.5725 37.0365 78.8565C36.2325 80.2405 33.2887 80.2845 32.2167 79.4365C29.1368 80.4205 26.8129 78.2286 27.4409 75.7287C28.0609 73.2288 29.7168 71.5768 30.5207 70.1009C31.5487 67.601 33.0646 64.5212 34.9846 60.6813C36.2645 58.1214 36.2925 54.9496 35.0725 51.1697C38.7564 47.0259 42.4802 45.062 46.2441 45.282V45.29Z" fill="#FF9911"/>
<path d="M21.0212 6.15576C22.4611 2.9079 25.149 0.855991 29.0929 0.00402832C27.2289 1.65596 28.4809 3.62787 32.8487 5.91977C32.6887 5.2278 32.6087 4.69182 32.6087 4.31984C32.5287 4.95981 33.2727 5.67578 34.8446 6.47574C38.6004 8.39566 46.3521 11.3515 50.6679 16.6273C54.9837 21.9031 55.3037 23.899 54.1078 26.7789C53.0678 29.4147 53.3878 30.9347 55.6237 31.4146C55.0397 32.2706 54.2638 32.5106 53.3038 32.1346C55.0997 35.1345 54.6237 37.6744 51.8839 39.7463C49.396 41.7062 49.444 42.3302 50.064 43.2861C49.588 43.6381 48.932 43.3021 48.104 42.2822C48.612 44.7381 46.6841 46.346 42.3163 47.11C40.5004 47.11 39.9244 48.3539 40.4044 49.0219C39.5404 49.0699 39.2084 48.9739 38.9684 48.4019C38.7764 49.6938 37.4365 51.4618 34.0406 52.4657C30.6448 53.4697 28.1569 55.3336 27.7249 56.6295C27.4369 54.3336 25.525 51.8458 20.6012 51.2258C17.8254 51.0818 15.8654 50.3658 16.3454 48.3579C15.5815 48.7859 15.1495 49.2179 15.1495 48.6899C15.1495 48.1659 15.2455 47.4459 14.4815 47.5899C13.7175 47.7339 10.1737 48.8339 8.50577 47.7339C6.82985 46.634 7.59779 45.822 7.73779 44.4341C7.88178 43.0461 7.8818 43.3341 7.40182 43.6221C6.92184 43.9101 6.25386 44.1461 5.29791 43.6701C6.78184 43.1901 7.64178 40.7502 5.92185 40.0303C4.19793 39.3143 1.13808 39.2183 2.13803 36.5424C2.81 34.7545 3.18999 33.6705 3.28598 33.2866C2.58601 33.9585 1.81805 34.1825 0.990086 33.9585C2.57002 32.2866 2.85803 29.8467 2.71403 29.4627C2.57004 29.0788 -0.345861 25.9229 0.0341223 22.715C0.418105 19.5112 3.57399 17.2153 7.20983 14.7274C10.8417 12.2395 19.9813 7.55569 20.4572 5.01981C20.9052 5.36779 21.0892 5.74778 21.0172 6.15976L21.0212 6.15576Z" fill="#782600"/>
<path d="M32.6165 4.39983C32.6125 4.36383 32.6125 4.33982 32.6125 4.31982C32.6085 4.33982 32.6085 4.36783 32.6165 4.39983Z" fill="#782600"/>
<g style="mix-blend-mode:multiply" opacity="0.5">
<path d="M53.3077 32.1306C55.1036 35.1305 54.6276 37.6703 51.8878 39.7423C49.3999 41.7022 49.4478 42.3261 50.0678 43.2821C49.5918 43.6341 48.9359 43.2981 48.1079 42.2781C48.6159 44.734 46.688 46.342 42.3202 47.1059C40.5042 47.1059 39.9283 48.3499 40.4083 49.0178C39.5443 49.0658 39.2123 48.9698 38.9723 48.3979C38.7803 49.6898 37.4404 51.4577 34.0445 52.4617C30.6487 53.4656 28.1608 55.3296 27.7288 56.6255C27.4408 54.3296 25.5289 51.8417 20.6051 51.2217C17.8293 51.0778 15.8693 50.3618 16.3493 48.3539C15.5854 48.7819 15.1534 49.2138 15.1534 48.6859C15.1534 48.1619 15.2494 47.4419 14.4854 47.5859C13.7214 47.7299 10.1776 48.8299 8.50968 47.7299C6.83375 46.63 7.6017 45.818 7.74169 44.43C7.88569 43.0421 7.8857 43.3301 7.40572 43.6181C6.92574 43.9061 6.25777 44.1421 5.30181 43.6661C6.78575 43.1861 7.64568 40.7462 5.92576 40.0262C4.20183 39.3103 1.14198 39.2143 2.14194 36.5384C2.81391 34.7505 3.19389 33.6665 3.28989 33.2825C2.58992 33.9545 1.82196 34.1785 0.993992 33.9545C2.57392 32.2826 2.86193 29.8427 2.71794 29.4587C2.57395 29.0747 -0.341955 25.9189 0.0380286 22.711C0.422012 19.5071 3.5779 17.2112 7.21374 14.7233C10.8456 12.2355 19.9852 7.55167 20.4612 5.01578C20.9091 5.36376 21.0931 5.74375 21.0211 6.15573C21.2851 5.56776 21.7171 4.89978 22.321 4.15981C21.6491 5.60775 21.1611 7.13968 20.6531 8.31963C21.0771 7.46767 20.9491 6.6837 20.2691 5.95974C20.0971 7.15168 18.9092 8.27564 16.6973 9.33559C13.3815 10.9315 16.4413 12.2715 15.2294 13.6754C14.0174 15.0753 14.1454 17.3072 13.3175 15.6513C13.5295 17.2232 13.0215 17.6912 11.7855 17.0553C12.6135 17.7552 12.9335 18.0112 7.70571 17.6952C2.15395 17.5672 0.182028 24.0069 2.59392 25.7949C5.78178 28.5268 4.14185 30.6227 2.68591 32.0786C4.62983 31.2266 5.96577 30.2547 6.69374 29.1627C5.72179 30.8626 5.72179 32.2626 6.69374 33.3545C6.78974 30.2587 9.33765 28.0708 14.6174 28.7067C19.9012 29.3467 47.6799 21.0551 47.04 30.5307C47.9519 29.9227 48.4079 28.8907 48.4079 27.4308C49.0159 28.8907 50.3838 29.9827 52.5077 30.7106C50.9318 29.0707 50.7198 27.0988 51.8717 24.7909C53.6037 21.3271 48.8359 15.3513 44.8521 15.4593C41.9842 15.5673 40.9722 15.6713 40.3363 16.6313C40.1563 15.5353 40.1923 14.8233 40.4443 14.5034C39.7723 14.9273 39.4323 15.3193 39.4323 15.6713C39.3963 14.4314 39.2723 13.6714 39.0603 13.3874L38.2124 14.5034C38.3204 11.5275 37.7684 9.54758 36.5645 8.55162C35.3605 7.55966 34.2446 6.6557 33.2166 5.83974C33.6046 7.04369 33.8726 7.69966 34.0126 7.80765C34.2126 7.95965 25.6649 2.99987 28.9848 0.0279956C29.0248 0.0199959 29.0608 0.00799965 29.1008 0C27.2369 1.65193 28.4888 3.62384 32.8566 5.91574C32.6686 5.10377 32.6286 4.5838 32.6206 4.3958C32.6486 4.64779 32.8966 5.47576 34.8525 6.47171C38.6084 8.39163 46.36 11.3475 50.6758 16.6233C54.9916 21.899 55.3116 23.8949 54.1157 26.7748C53.0757 29.4107 53.3957 30.9306 55.6316 31.4106C55.0476 32.2666 54.2717 32.5066 53.3117 32.1306H53.3077Z" fill="#782600"/>
</g>
<g style="mix-blend-mode:multiply" opacity="0.5">
<path d="M22.1891 19.9311C22.1891 19.4192 22.3531 18.8872 22.6771 18.3312C23.0051 19.3992 24.117 21.0231 26.0209 23.203C26.2529 21.5311 27.3209 19.4192 29.2248 16.8673C29.3168 17.0553 29.5048 17.6792 29.7808 18.7472C30.3368 17.4232 34.4446 12.8994 35.6285 13.0394C36.5285 13.1434 40.1523 19.0952 40.6403 22.019C38.9244 22.991 37.8804 24.015 37.5085 25.0829C39.7364 24.203 41.3843 23.875 42.4522 24.107C41.8963 24.199 41.3403 24.5709 40.7803 25.2189C42.9602 24.4309 44.6562 24.6149 45.8601 25.7789C47.672 27.5148 47.532 30.1627 44.4002 31.1346C41.2683 32.1106 39.1764 33.2225 35.9765 36.8464C36.3965 38.0983 36.2565 39.0743 34.2366 40.7462C34.1686 41.3702 33.6806 42.6941 32.9846 43.1821C32.5207 43.5101 32.6127 43.8581 33.2647 44.2301C32.3807 44.3661 31.8247 44.5061 31.5927 44.646C31.3607 44.786 31.4087 45.202 31.7327 45.898C31.3607 45.898 30.8727 45.618 30.2687 45.062C29.8488 45.526 28.8968 45.966 27.4129 46.386L28.0409 45.274L25.397 45.97C25.489 45.786 25.653 45.366 25.885 44.7181C24.837 44.5101 22.8211 43.6741 22.4011 42.5621C19.1293 42.0062 19.7532 39.5703 19.7532 38.7343C19.7532 37.8983 15.9254 35.5304 13.0735 34.8345C10.0216 34.0905 7.92176 33.4425 7.85376 31.8426C7.94576 29.2427 9.98964 27.8028 13.9775 27.5268C13.5135 27.2468 12.7256 27.0868 11.6096 27.0388C12.5856 26.5308 13.8135 26.4828 15.3014 26.8988C13.2575 25.4149 12.2376 24.5309 12.2376 24.2549C12.2376 20.8231 13.7935 17.6432 16.9014 14.7154C18.7093 15.4793 21.0092 17.0153 22.1891 19.9351V19.9311Z" fill="#782600"/>
</g>
<path d="M22.6331 20.7551C22.6331 20.2871 22.7811 19.7951 23.0771 19.2871C23.3771 20.2671 24.397 21.755 26.141 23.751C26.353 22.219 27.3329 20.2871 29.0768 17.9512C29.1608 18.1192 29.3288 18.6952 29.5888 19.6711C30.0968 18.4552 33.8606 14.3114 34.9446 14.4394C35.7686 14.5354 39.0924 19.9871 39.5364 22.667C37.9644 23.559 37.0085 24.4949 36.6645 25.4749C38.7044 24.6669 40.2164 24.3669 41.1963 24.5829C40.6843 24.6669 40.1764 25.0069 39.6644 25.6029C41.6603 24.8789 43.2122 25.0509 44.3202 26.1108C45.9761 27.7068 45.8481 30.1307 42.9802 31.0226C40.1083 31.9186 38.1965 32.9346 35.2646 36.2504C35.6446 37.3984 35.5165 38.2943 33.6686 39.8222C33.6046 40.3982 33.1606 41.6062 32.5207 42.0542C32.0927 42.3501 32.1807 42.6701 32.7767 43.0101C31.9687 43.1381 31.4607 43.2661 31.2448 43.3941C31.0328 43.5221 31.0727 43.9061 31.3727 44.542C31.0327 44.542 30.5888 44.2861 30.0328 43.7781C29.6528 44.2021 28.7809 44.606 27.4169 44.99L27.9929 43.9701L25.573 44.606C25.657 44.4381 25.805 44.0541 26.017 43.4581C25.061 43.2701 23.2131 42.5021 22.8291 41.4822C19.8332 40.9702 20.4052 38.7383 20.4052 37.9743C20.4052 37.2064 16.8974 35.0385 14.2815 34.4025C11.4856 33.7185 9.56171 33.1266 9.50171 31.6586C9.58571 29.2787 11.4576 27.9628 15.1135 27.7068C14.6895 27.4508 13.9655 27.3028 12.9456 27.2588C13.8375 26.7908 14.9654 26.7508 16.3294 27.1308C14.4575 25.7709 13.5215 24.9629 13.5215 24.7069C13.5215 21.5591 14.9455 18.6472 17.7933 15.9713C19.4533 16.6713 21.5572 18.0752 22.6451 20.7551H22.6331Z" fill="#FF9911"/>
<g style="mix-blend-mode:multiply" opacity="0.5">
<g style="mix-blend-mode:multiply" opacity="0.5">
<path fill-rule="evenodd" clip-rule="evenodd" d="M42.9761 31.0186C40.1042 31.9146 38.1923 32.9305 35.2604 36.2464C35.6404 37.3944 35.5124 38.2903 33.6645 39.8183C33.6005 40.3942 33.1565 41.6022 32.5166 42.0502C32.0886 42.3461 32.1765 42.6661 32.7725 43.0061C31.9646 43.1341 31.4566 43.2621 31.2406 43.3901C31.0286 43.5181 31.0686 43.9021 31.3686 44.538C31.0286 44.538 30.5846 44.2821 30.0286 43.7741C29.6487 44.1981 28.7767 44.602 27.4128 44.986L27.9887 43.9661L25.5688 44.602C25.6528 44.434 25.8009 44.0501 26.0128 43.4541C25.0569 43.2661 23.2089 42.4981 22.825 41.4782C19.8291 40.9662 20.4011 38.7343 20.4011 37.9703C20.4011 37.2024 16.8932 35.0345 14.2773 34.3985C11.4815 33.7145 9.55756 33.1225 9.49756 31.6546C9.58155 29.2747 11.4535 27.9588 15.1093 27.7028C14.6853 27.4468 13.9614 27.2988 12.9414 27.2548C13.8334 26.7868 14.9613 26.7468 16.3252 27.1268C14.4533 25.7669 13.5174 24.9589 13.5174 24.7029C13.5174 21.5551 14.9413 18.6432 17.7892 15.9673C19.4491 16.6673 21.553 18.0712 22.641 20.7511C20.8091 18.1592 19.3211 17.0113 18.1772 17.3032C16.4532 17.7512 13.2654 23.619 16.3252 25.8509C18.6171 27.6348 18.2372 29.4227 20.0251 28.6587C21.217 28.1468 22.065 27.8908 22.577 27.8908C20.5771 28.6147 19.2171 29.2947 18.4972 29.9307C17.7332 30.4427 17.9212 28.4628 16.2013 28.1428C16.5413 28.5267 16.7532 28.8867 16.8372 29.2307C16.0293 28.5507 14.8613 28.6347 13.3294 29.4867C10.3575 31.1386 12.3734 33.3145 14.9893 33.5665C17.6012 33.8225 18.2412 34.7785 18.9411 35.3504C19.6411 35.9264 19.7051 32.1626 23.3409 28.5267C21.873 31.0786 19.5131 35.6064 22.513 34.3305C25.5089 33.0546 29.9087 32.8626 32.2046 33.3705C34.5005 33.8825 31.8246 29.6067 30.5486 28.0148C31.9526 29.4187 33.1405 31.0146 34.1205 32.7986C35.0124 34.5225 35.5844 34.2665 36.2244 33.5025C36.8643 32.7386 39.0283 30.6947 41.2602 30.5067C43.4921 30.3147 44.764 28.9507 43.876 27.3828C43.0481 25.9189 40.2402 25.8509 38.3283 26.8748C38.5843 26.1948 38.8802 25.6829 39.2202 25.3429C38.4123 25.4309 37.6883 25.7909 37.0484 26.4268C36.1564 27.3828 35.2004 28.2148 33.0925 27.4508C31.6926 26.9388 30.8006 26.7068 30.4286 26.7548C31.3566 26.6228 32.1606 26.6428 32.8405 26.8108C33.8605 27.0628 35.0724 26.9388 35.8364 25.2189C36.6044 23.499 38.5163 22.539 37.8163 20.5631C37.1124 18.5872 34.4964 12.7194 29.5247 20.7551C29.2287 20.0311 29.0567 19.5631 29.0127 19.3511C28.4487 19.4751 27.7968 20.0871 27.0608 21.1951C27.6408 20.0551 28.3127 18.9752 29.0767 17.9512C29.1607 18.1192 29.3287 18.6952 29.5887 19.6711C30.0966 18.4552 33.8605 14.3114 34.9444 14.4394C35.7684 14.5354 39.0923 19.9871 39.5362 22.667C37.9643 23.559 37.0084 24.4949 36.6644 25.4749C38.7043 24.6669 40.2162 24.3669 41.1962 24.5829C40.6842 24.6669 40.1762 25.0069 39.6643 25.6029C41.6602 24.8789 43.2121 25.0509 44.32 26.1108C45.9759 27.7068 45.8479 30.1307 42.9801 31.0226L42.9761 31.0186ZM32.2765 40.9302C30.5686 42.0542 29.0287 42.1981 27.9447 41.6382C27.4168 42.3741 26.3688 42.5221 24.8009 42.0742C23.5089 42.1581 25.5528 43.8421 27.6327 42.7621C27.5488 43.1381 25.9488 44.0341 26.8008 43.8661C27.3728 43.7541 27.9327 43.5341 28.4887 43.2021C28.6007 43.3821 28.4407 43.8061 28.0088 44.4701C28.8007 43.9501 29.2367 42.4901 29.8007 43.0941C30.3606 43.6981 30.9886 44.738 31.0086 44.0341C31.0286 43.3261 30.5926 43.0141 30.8006 42.8861C31.0086 42.7621 32.4446 43.1981 32.1126 42.8661C31.7806 42.5341 30.9486 42.4701 31.8246 42.1381C33.2805 41.5542 32.9485 40.4902 32.2805 40.9302H32.2765Z" fill="#C97106"/>
</g>
</g>
<g style="mix-blend-mode:multiply" opacity="0.5">
<path d="M33.1168 21.3591C33.4368 21.3591 34.3927 22.827 34.3927 23.211C34.3927 23.467 33.0128 23.847 30.2489 24.3549C29.8009 23.911 32.7968 21.3591 33.1168 21.3591Z" fill="#C97106"/>
</g>
<g style="mix-blend-mode:multiply" opacity="0.5">
<path d="M22.7853 25.4429C20.5334 25.1429 19.2375 24.9509 18.8975 24.8669C18.8575 23.379 18.9215 22.679 19.0895 22.763C19.3455 22.891 22.2174 24.2949 22.7893 25.4429H22.7853Z" fill="#C97106"/>
</g>
<path d="M33.0247 20.9431C33.3407 20.9431 34.3006 22.411 34.3006 22.795C34.3006 23.051 32.9207 23.4309 30.1568 23.9429C29.7088 23.4949 32.7087 20.9431 33.0287 20.9431H33.0247Z" fill="#762B04"/>
<path d="M22.693 25.0269C20.4411 24.7309 19.1452 24.5389 18.8012 24.4509C18.7612 22.963 18.8212 22.263 18.9932 22.347C19.2492 22.475 22.1171 23.879 22.693 25.0269Z" fill="#762B04"/>
<path d="M21.7013 26.8068C21.6853 27.4868 21.4413 28.0188 21.1613 28.0068C20.8813 27.9908 20.6693 27.4308 20.6893 26.7548C20.7093 26.0789 20.9493 25.5389 21.2293 25.5589C21.5092 25.5749 21.7213 26.1349 21.7013 26.8108V26.8068Z" fill="black"/>
<path d="M21.5692 26.4069C21.5772 26.6708 21.4892 26.8908 21.3612 26.8908C21.2372 26.8948 21.1292 26.6828 21.1172 26.4189C21.1052 26.1549 21.2012 25.9349 21.3212 25.9349C21.4452 25.9309 21.5532 26.1429 21.5652 26.4069H21.5692Z" fill="white"/>
<path d="M32.0768 25.7909C32.0568 26.4709 31.8169 27.0028 31.5369 26.9908C31.2569 26.9748 31.0449 26.4149 31.0609 25.7389C31.0809 25.0629 31.3209 24.527 31.6009 24.543C31.8809 24.555 32.0928 25.1149 32.0768 25.7909Z" fill="black"/>
<path d="M31.9447 25.3909C31.9527 25.6549 31.8607 25.8709 31.7367 25.8749C31.6127 25.8749 31.5048 25.6629 31.4928 25.3989C31.4808 25.1349 31.5728 24.9189 31.7007 24.9149C31.8247 24.9109 31.9327 25.1229 31.9447 25.3909Z" fill="white"/>
<path d="M23.513 34.8305C26.5129 33.7345 29.4207 33.5425 32.2286 34.2585C33.8245 34.7585 34.5645 34.8865 35.0125 35.8824C35.4645 36.8824 31.7286 40.2262 27.9688 40.2902C24.2009 40.3542 20.5651 38.1663 20.3092 37.1704C20.1372 36.5064 21.2051 35.7264 23.513 34.8305Z" fill="#573220"/>
<g style="mix-blend-mode:multiply">
<path d="M23.3812 38.4983C22.1372 38.5943 22.1853 37.3024 23.8132 37.3984C24.8972 37.4623 25.6611 38.2263 26.1091 39.6943C25.6291 38.9303 24.6251 38.4063 23.3852 38.5023L23.3812 38.4983Z" fill="#573220"/>
</g>
<g style="mix-blend-mode:multiply">
<path d="M29.693 39.3583C30.077 38.3703 30.6049 37.8423 31.2729 37.7783C32.2768 37.6863 32.9488 37.2543 32.5609 36.7304C32.1809 36.2024 29.689 36.0104 29.689 39.3583H29.693Z" fill="#573220"/>
</g>
<g style="mix-blend-mode:multiply">
<path d="M18.6575 29.7227C18.7895 29.6187 18.9814 29.4907 19.2294 29.3347C19.6054 29.1027 20.1414 28.7787 20.8213 28.4467C21.1573 28.2827 21.5333 28.1107 21.9333 27.9467C22.3333 27.7828 22.7613 27.6188 23.2133 27.4748C23.6613 27.3308 24.1332 27.1868 24.6172 27.0748C24.8612 27.0188 25.1052 26.9628 25.3532 26.9188C25.6012 26.8668 25.8491 26.8268 26.1011 26.7868C26.6011 26.7108 27.1051 26.6668 27.6011 26.6348C27.8491 26.6188 28.097 26.6148 28.341 26.6148C28.585 26.6188 28.829 26.6188 29.061 26.6308C29.297 26.6468 29.533 26.6548 29.761 26.6828C29.985 26.7068 30.2049 26.7348 30.4249 26.7588C30.6409 26.7988 30.8449 26.8308 31.0489 26.8668C31.2489 26.9068 31.4409 26.9548 31.6249 26.9948C31.9929 27.0748 32.3249 27.1868 32.6169 27.2748C32.9049 27.3828 33.1568 27.4628 33.3608 27.5468C33.6288 27.6628 33.8408 27.7548 33.9928 27.8227C33.8328 27.7748 33.6128 27.7068 33.3368 27.6188C33.1288 27.5508 32.8688 27.4908 32.5768 27.4108C32.4288 27.3748 32.2729 27.3468 32.1049 27.3108C31.9369 27.2748 31.7689 27.2308 31.5809 27.2068C31.3969 27.1788 31.2089 27.1388 31.0089 27.1148C30.8089 27.0908 30.6049 27.0668 30.3929 27.0388C30.181 27.0228 29.961 27.0068 29.741 26.9908C29.517 26.9828 29.289 26.9748 29.057 26.9668C28.825 26.9628 28.589 26.9708 28.353 26.9708C28.1131 26.9828 27.873 26.9948 27.629 27.0068C27.1411 27.0428 26.6491 27.0908 26.1611 27.1708C25.9172 27.2068 25.6691 27.2428 25.4291 27.2908C25.1852 27.3348 24.9492 27.3868 24.7092 27.4388C24.4692 27.4908 24.2372 27.5548 24.0012 27.6108C23.7692 27.6748 23.5413 27.7308 23.3173 27.7988C22.4253 28.0667 21.6054 28.3627 20.9174 28.6467C20.2254 28.9347 19.6614 29.1987 19.2734 29.3987C19.0814 29.4987 18.9254 29.5787 18.8214 29.6307C18.7534 29.6707 18.7015 29.6987 18.6655 29.7187L18.6575 29.7227Z" fill="#C97106"/>
</g>
<path d="M20.5692 37.6544C22.5931 39.4343 25.021 40.3222 27.8449 40.3222C31.0808 40.2582 34.2526 37.8544 35.1246 36.2504C35.6565 37.0184 35.5406 38.5143 33.6647 39.8183C31.7887 41.1222 28.8489 42.8941 27.9129 40.6582C27.7489 41.9582 26.7489 42.3342 22.8251 41.4782C20.8732 40.9582 20.1052 39.7543 20.5732 37.6544H20.5692Z" fill="#FED57B"/>
<g style="mix-blend-mode:multiply" opacity="0.5">
<g style="mix-blend-mode:multiply" opacity="0.5">
<path d="M27.9688 40.2902C24.2009 40.3542 20.5651 38.1663 20.3091 37.1704C20.2691 37.0064 20.3291 36.8344 20.4571 36.6584C20.4891 37.1584 20.8251 37.6583 22.169 37.4064C24.6169 36.9424 24.9529 37.0344 26.0369 38.0423C27.5608 39.4583 28.5888 39.1063 29.5847 37.4064C30.5767 35.7024 32.0686 35.9144 33.4526 36.5184C34.8365 37.1184 35.4765 33.7865 27.8808 33.9665C27.8088 33.9665 27.7408 33.9665 27.6728 33.9705C29.0687 33.8425 30.6687 33.8665 32.2326 34.2625C33.8285 34.7625 34.5685 34.8905 35.0165 35.8864C35.4685 36.8864 31.7326 40.2302 27.9728 40.2942L27.9688 40.2902Z" fill="#573220"/>
</g>
</g>
<g style="mix-blend-mode:screen">
<path d="M31.8089 34.9224C31.7809 35.0584 31.4769 35.1064 31.1329 35.0344C30.7889 34.9624 30.533 34.7904 30.565 34.6544C30.589 34.5225 30.8929 34.4704 31.2409 34.5464C31.5849 34.6184 31.8409 34.7864 31.8129 34.9224H31.8089Z" fill="white"/>
</g>
<g style="mix-blend-mode:screen">
<path d="M21.3291 36.4704C23.893 35.1184 26.6449 34.5705 29.5887 34.8344C31.0847 35.0144 27.3808 32.9825 21.3291 36.4704Z" fill="white"/>
</g>
<g style="mix-blend-mode:screen">
<path d="M21.8852 38.9583C23.0932 39.8103 24.6771 40.3262 26.641 40.5022C27.681 40.6262 27.049 41.8422 24.3971 41.4182C21.0413 40.8862 20.9213 38.6663 21.8852 38.9583Z" fill="#FED57B"/>
</g>
<g style="mix-blend-mode:screen">
<path d="M29.2091 40.4862C31.349 39.8942 32.9769 39.0863 34.0888 38.0623C35.1008 37.1583 34.9608 39.1423 31.7929 40.6742C29.597 41.8581 28.4091 40.8702 29.2091 40.4862Z" fill="#FED57B"/>
</g>
<path d="M22.205 40.1263C22.157 40.1383 22.089 40.1503 21.997 40.1623C21.861 40.1823 21.669 40.2103 21.441 40.2223C21.209 40.2343 20.9411 40.2423 20.6491 40.2383C20.5051 40.2303 20.3531 40.2263 20.2011 40.2143C20.0491 40.1983 19.8931 40.1903 19.7411 40.1663C19.5851 40.1463 19.4331 40.1223 19.2851 40.0903C19.1371 40.0663 18.9891 40.0303 18.8492 39.9943C18.7052 39.9623 18.5732 39.9183 18.4492 39.8743C18.3212 39.8343 18.2012 39.7943 18.0972 39.7503C17.9892 39.7063 17.8932 39.6663 17.8052 39.6303C17.7212 39.5863 17.6492 39.5503 17.5892 39.5223C17.5092 39.4823 17.4452 39.4503 17.3972 39.4223C17.4492 39.4383 17.5172 39.4583 17.6012 39.4863C17.6652 39.5063 17.7412 39.5343 17.8292 39.5663C17.9212 39.5863 18.0212 39.6183 18.1292 39.6503C18.2372 39.6863 18.3612 39.7143 18.4852 39.7423C18.6132 39.7743 18.7451 39.8023 18.8851 39.8303C19.0251 39.8623 19.1692 39.8863 19.3172 39.9143C19.4651 39.9423 19.6171 39.9623 19.7651 39.9823C20.0651 40.0263 20.3691 40.0503 20.6531 40.0783C20.7931 40.0863 20.9331 40.1023 21.0651 40.1063C21.1971 40.1143 21.317 40.1183 21.433 40.1223C21.737 40.1343 21.993 40.1383 22.197 40.1343L22.205 40.1263Z" fill="black"/>
<path d="M22.849 40.6022C22.785 40.6382 22.701 40.6862 22.593 40.7542C22.433 40.8502 22.213 40.9982 21.957 41.1862C21.825 41.2742 21.689 41.3862 21.549 41.4982C21.405 41.6142 21.2611 41.7422 21.1131 41.8702C20.9691 42.0062 20.8131 42.1422 20.6651 42.2942C20.5931 42.3662 20.5171 42.4422 20.4451 42.5141C20.3731 42.5941 20.3051 42.6741 20.2331 42.7501C20.0851 42.9061 19.9571 43.0701 19.8251 43.2341C19.6891 43.3941 19.5771 43.5661 19.4611 43.7261C19.3451 43.8861 19.2491 44.0541 19.1531 44.2061C19.1051 44.2861 19.0572 44.3581 19.0132 44.4341C18.9732 44.5101 18.9332 44.5821 18.9012 44.6541C18.8292 44.7981 18.7532 44.922 18.7012 45.042C18.6492 45.162 18.6012 45.266 18.5652 45.35C18.5132 45.466 18.4732 45.554 18.4412 45.618C18.4612 45.55 18.4891 45.454 18.5251 45.334C18.5531 45.246 18.5931 45.134 18.6291 45.014C18.6731 44.89 18.7332 44.7541 18.8012 44.6061C18.8332 44.5341 18.8692 44.4581 18.9012 44.3741C18.9411 44.2981 18.9851 44.2181 19.0291 44.1341C19.1171 43.9741 19.2011 43.7981 19.3211 43.6301C19.4371 43.4661 19.5371 43.2821 19.6771 43.1181C19.8051 42.9501 19.9371 42.7821 20.0851 42.6221C20.1611 42.5421 20.2291 42.4622 20.3051 42.3822C20.3851 42.3062 20.4611 42.2342 20.5371 42.1582C20.6811 42.0062 20.8491 41.8782 21.0011 41.7422C21.1571 41.6142 21.3131 41.4942 21.4651 41.3902C21.617 41.2862 21.761 41.1822 21.897 41.1022C22.169 40.9262 22.409 40.8062 22.577 40.7262C22.689 40.6702 22.781 40.6302 22.849 40.6062V40.6022Z" fill="black"/>
<path d="M23.661 41.0422C23.613 41.0782 23.549 41.1302 23.465 41.1982C23.341 41.2942 23.169 41.4462 22.965 41.6302C22.865 41.7182 22.753 41.8182 22.641 41.9302C22.529 42.0342 22.421 42.1582 22.297 42.2782C22.181 42.4022 22.065 42.5301 21.945 42.6621C21.833 42.7981 21.7051 42.9301 21.5971 43.0781C21.4851 43.2181 21.373 43.3581 21.273 43.5061C21.221 43.5781 21.1691 43.6501 21.1211 43.7181C21.0731 43.7901 21.0291 43.8621 20.9811 43.9381C20.9371 44.0101 20.8931 44.0781 20.8491 44.1461C20.8091 44.2141 20.7691 44.2861 20.7331 44.3541C20.6571 44.4901 20.5851 44.6141 20.5331 44.742C20.4771 44.866 20.4211 44.978 20.3731 45.078C20.3331 45.182 20.2971 45.27 20.2691 45.342C20.2291 45.442 20.1971 45.518 20.1731 45.578C20.1891 45.518 20.2091 45.438 20.2291 45.334C20.2531 45.254 20.2771 45.158 20.3051 45.054C20.3371 44.946 20.3811 44.826 20.4291 44.698C20.4731 44.5701 20.5371 44.4341 20.6091 44.2901C20.6411 44.2181 20.6771 44.1461 20.7091 44.0701C20.7491 43.9941 20.7931 43.9221 20.8371 43.8461C20.8771 43.7741 20.9211 43.6941 20.9691 43.6221C21.0171 43.5461 21.0691 43.4701 21.1171 43.3981C21.2171 43.2461 21.3331 43.0981 21.4451 42.9541C21.5531 42.8061 21.6811 42.6741 21.8011 42.5341C21.925 42.4021 22.053 42.2782 22.173 42.1542C22.297 42.0382 22.421 41.9222 22.545 41.8222C22.661 41.7182 22.781 41.6262 22.889 41.5422C23.109 41.3702 23.301 41.2502 23.437 41.1662C23.529 41.1062 23.601 41.0662 23.653 41.0382L23.661 41.0422Z" fill="black"/>
<path d="M31.7886 40.2622C31.8566 40.2462 31.9566 40.2342 32.0806 40.2182C32.1725 40.2062 32.2885 40.1982 32.4205 40.1862C32.5525 40.1782 32.7006 40.1702 32.8646 40.1782C33.0285 40.1742 33.2005 40.1862 33.3885 40.1982C33.5765 40.2142 33.7725 40.2382 33.9725 40.2662C34.1725 40.3062 34.3805 40.3342 34.5885 40.3942C34.6924 40.4222 34.7965 40.4462 34.9004 40.4782C35.0044 40.5102 35.1085 40.5502 35.2124 40.5822C35.4204 40.6462 35.6164 40.7382 35.8124 40.8222C36.0124 40.9022 36.1924 41.0182 36.3724 41.1102C36.5563 41.1982 36.7123 41.3222 36.8683 41.4262C36.9443 41.4822 37.0203 41.5262 37.0883 41.5822C37.1563 41.6382 37.2203 41.6942 37.2843 41.7462C37.4083 41.8502 37.5243 41.9422 37.6163 42.0382C37.7083 42.1342 37.7883 42.2141 37.8523 42.2861C37.9363 42.3781 38.0043 42.4501 38.0563 42.5021C38.0003 42.4581 37.9243 42.3941 37.8243 42.3101C37.7523 42.2501 37.6643 42.1742 37.5683 42.0902C37.4683 42.0062 37.3444 41.9262 37.2164 41.8302C37.1524 41.7822 37.0844 41.7342 37.0164 41.6822C36.9444 41.6302 36.8684 41.5902 36.7884 41.5422C36.6324 41.4542 36.4724 41.3422 36.2884 41.2582C36.1084 41.1702 35.9324 41.0662 35.7364 40.9902C35.5444 40.9062 35.3484 40.8222 35.1444 40.7582C35.0444 40.7262 34.9444 40.6862 34.8444 40.6542C34.7405 40.6262 34.6405 40.5982 34.5405 40.5742C34.3405 40.5102 34.1325 40.4782 33.9405 40.4302C33.7445 40.3982 33.5525 40.3582 33.3685 40.3342C33.1885 40.3142 33.0165 40.2902 32.8565 40.2822C32.5366 40.2582 32.2685 40.2502 32.0806 40.2542C31.9566 40.2542 31.8566 40.2582 31.7886 40.2622Z" fill="black"/>
<path d="M32.6003 39.8223C32.8723 39.7503 33.2123 39.6783 33.6243 39.6103C33.9363 39.5623 34.3003 39.5023 34.6882 39.4663C34.8842 39.4423 35.0882 39.4263 35.2962 39.4143C35.5002 39.3983 35.7122 39.3943 35.9202 39.3863C36.1322 39.3863 36.3442 39.3863 36.5482 39.3863C36.7562 39.3943 36.9602 39.4023 37.1561 39.4143C37.3521 39.4343 37.5441 39.4463 37.7201 39.4743C37.9001 39.4983 38.0681 39.5263 38.2241 39.5503C38.3801 39.5823 38.5201 39.6143 38.6441 39.6463C38.7681 39.6703 38.8761 39.7103 38.9641 39.7343C39.0801 39.7703 39.172 39.7983 39.24 39.8223C39.172 39.8103 39.0761 39.7943 38.9561 39.7743C38.8681 39.7583 38.7601 39.7303 38.6321 39.7183C38.5041 39.7023 38.3641 39.6863 38.2121 39.6623C38.0601 39.6463 37.8881 39.6343 37.7081 39.6183C37.5361 39.6023 37.3441 39.6023 37.1521 39.5903C36.9562 39.5783 36.7562 39.5863 36.5522 39.5783C36.3482 39.5783 36.1402 39.5823 35.9322 39.5823C35.7242 39.5903 35.5162 39.5903 35.3122 39.6023C35.1082 39.6183 34.9042 39.6183 34.7083 39.6383C34.3163 39.6583 33.9563 39.6903 33.6443 39.7183C33.3323 39.7503 33.0723 39.7743 32.8923 39.7943C32.7723 39.8063 32.6763 39.8183 32.6083 39.8263L32.6003 39.8223Z" fill="black"/>
<path d="M31.9925 39.5183C32.0685 39.5023 32.1765 39.4863 32.3085 39.4623C32.5125 39.4263 32.7965 39.3663 33.1405 39.2983C33.4845 39.2343 33.8805 39.1383 34.3044 39.0423C34.7284 38.9383 35.1804 38.8343 35.6244 38.6983C35.8483 38.6343 36.0723 38.5703 36.2883 38.4983C36.5043 38.4303 36.7163 38.3543 36.9203 38.2783C37.1243 38.2063 37.3163 38.1184 37.5003 38.0424C37.6843 37.9704 37.8483 37.8744 38.0043 37.7984C38.1603 37.7224 38.2923 37.6304 38.4123 37.5584C38.4723 37.5184 38.5322 37.4864 38.5842 37.4544C38.6322 37.4184 38.6763 37.3784 38.7163 37.3504C38.8203 37.2664 38.9042 37.1984 38.9642 37.1504C38.9082 37.2064 38.8322 37.2824 38.7362 37.3784C38.7002 37.4144 38.6563 37.4544 38.6163 37.4984C38.5643 37.5384 38.5083 37.5784 38.4523 37.6184C38.3363 37.7064 38.2123 37.8104 38.0563 37.8944C37.9043 37.9824 37.7443 38.0864 37.5603 38.1704C37.3763 38.2583 37.1883 38.3583 36.9803 38.4383C36.7763 38.5183 36.5643 38.6063 36.3443 38.6783C36.1243 38.7583 35.9003 38.8223 35.6764 38.8863C35.4524 38.9543 35.2204 39.0063 35.0004 39.0663C34.7724 39.1223 34.5524 39.1623 34.3364 39.2143C33.9044 39.2983 33.5005 39.3583 33.1525 39.4103C32.8045 39.4583 32.5125 39.4863 32.3085 39.5023C32.1725 39.5143 32.0645 39.5223 31.9885 39.5223L31.9925 39.5183Z" fill="black"/>
<path d="M21.6971 27.8188C21.7851 27.7748 21.9051 27.7188 22.0611 27.6548C22.2931 27.5588 22.6331 27.4148 23.0491 27.2788C23.2571 27.2068 23.481 27.1428 23.725 27.0708C23.965 26.9988 24.225 26.9388 24.493 26.8708C24.761 26.8188 25.0369 26.7508 25.3209 26.7068C25.6009 26.6588 25.8889 26.6068 26.1809 26.5788C26.3289 26.5668 26.4729 26.5468 26.6169 26.5308C26.7609 26.5268 26.9049 26.5148 27.0529 26.5068C27.1969 26.4988 27.3369 26.4908 27.4808 26.4868C27.6208 26.4828 27.7609 26.4828 27.8968 26.4828C28.0328 26.4828 28.1688 26.4748 28.3008 26.4868C28.4328 26.4948 28.5608 26.5028 28.6848 26.5148C28.8088 26.5228 28.9328 26.5308 29.0488 26.5388C29.1688 26.5468 29.2768 26.5668 29.3888 26.5828C29.6048 26.6108 29.8047 26.6348 29.9767 26.6668C30.1527 26.7028 30.3007 26.7348 30.4287 26.7628C30.5927 26.8028 30.7247 26.8308 30.8167 26.8508C30.7207 26.8388 30.5887 26.8228 30.4168 26.7988C30.2928 26.7828 30.1408 26.7588 29.9648 26.7348C29.7888 26.7228 29.5887 26.7068 29.3728 26.6868C29.2648 26.6788 29.1528 26.6668 29.0368 26.6628C28.9208 26.6588 28.7968 26.6548 28.6728 26.6548C28.4248 26.6468 28.1608 26.6388 27.8888 26.6508C27.7528 26.6548 27.6168 26.6588 27.4768 26.6588C27.3369 26.6628 27.1969 26.6748 27.0529 26.6868C26.9129 26.6948 26.7689 26.7068 26.6249 26.7188C26.4849 26.7388 26.3369 26.7508 26.1969 26.7708C25.9089 26.7948 25.6249 26.8428 25.341 26.8868C25.057 26.9228 24.785 26.9868 24.521 27.0348C24.253 27.0948 23.997 27.1428 23.753 27.2028C23.513 27.2628 23.285 27.3188 23.077 27.3788C22.6571 27.4988 22.3131 27.6028 22.0731 27.6868C21.9131 27.7388 21.7851 27.7828 21.6931 27.8188H21.6971Z" fill="white"/>
<g style="mix-blend-mode:screen" opacity="0.5">
<path d="M30.5726 33.1226C26.8888 32.5866 23.221 34.3345 23.4889 33.3306C23.6689 31.9026 24.2049 30.3547 25.1009 28.6828C27.4408 23.335 30.9046 32.3066 30.5726 33.1226Z" fill="#FF9911"/>
</g>
<g style="mix-blend-mode:screen" opacity="0.5">
<path d="M25.593 33.4385C25.845 29.3587 26.213 27.2468 26.697 27.1028C27.185 26.9588 27.8569 28.9627 28.7089 33.1106L25.593 33.4385Z" fill="white"/>
</g>
<path d="M13.9654 14.9833C13.7934 14.6114 13.6174 14.1634 13.4294 13.6354C12.6014 14.7194 12.2175 15.6713 12.2855 16.4873C11.9655 16.4033 11.4055 16.1993 10.6056 15.8753C10.6216 15.9593 10.7655 16.3073 11.0375 16.9193C8.64562 16.8953 7.42166 16.7393 5.82173 15.5713C4.1938 13.9674 4.87778 10.6355 7.93365 8.49562C11.7015 6.17972 14.7054 7.47967 14.2934 10.1476C14.0214 11.9315 14.0574 13.1274 14.4014 13.7354C14.0574 14.0234 13.9094 14.4394 13.9654 14.9793V14.9833Z" fill="#FF9911"/>
<path d="M7.15365 11.4915C7.85362 10.1436 8.81356 9.39159 10.0375 9.23159C11.3534 9.0636 12.5294 10.7515 12.3334 12.6594C12.1374 14.5674 10.5055 15.4673 8.32157 14.8033C6.14166 14.1434 6.72567 12.3515 7.15365 11.4915Z" fill="#D35E00"/>
<g style="mix-blend-mode:multiply">
<g style="mix-blend-mode:multiply">
<path d="M12.3334 12.6594C12.1375 14.5674 10.5055 15.4673 8.32161 14.8033C8.18562 14.7633 8.05764 14.7153 7.93765 14.6633C7.95765 14.6553 7.96564 14.6513 7.98164 14.6473C12.0295 15.8193 11.9215 10.4595 9.78957 10.1755C7.92165 9.92356 7.00971 11.9155 6.81372 12.4074C6.89372 12.0595 7.0297 11.7355 7.14969 11.4915C7.84966 10.1436 8.8096 9.39159 10.0336 9.23159C11.3495 9.0636 12.5254 10.7515 12.3294 12.6594H12.3334Z" fill="#D35E00"/>
</g>
</g>
<g style="mix-blend-mode:multiply" opacity="0.5">
<g style="mix-blend-mode:multiply" opacity="0.5">
<path d="M13.9651 14.9834C13.7931 14.6114 13.6171 14.1634 13.4291 13.6354C12.6011 14.7194 12.2172 15.6713 12.2852 16.4873C11.9652 16.4033 11.4052 16.1993 10.6053 15.8753C10.6213 15.9593 10.7652 16.3073 11.0372 16.9193C8.64533 16.8953 7.42136 16.7393 5.82143 15.5713C4.52149 14.2954 4.69753 11.9195 6.36545 9.92757C5.92947 10.6075 4.37752 13.3114 6.19344 14.8914C7.1574 15.6273 7.71735 15.2153 6.82139 14.0634C5.92543 12.9154 6.53744 10.8675 8.50935 9.4316C10.4813 7.99966 12.2692 8.84362 12.5291 10.7635C12.7851 12.6794 13.7291 11.4515 13.8331 9.84358C13.9331 8.23165 12.9092 7.17969 10.7133 7.38769C10.6893 7.39169 10.6652 7.39168 10.6412 7.39168C13.0171 6.9397 14.5971 8.16765 14.2931 10.1516C14.0211 11.9355 14.0571 13.1314 14.4011 13.7394C14.0571 14.0274 13.9091 14.4434 13.9651 14.9834Z" fill="#C97106"/>
</g>
</g>
<g style="mix-blend-mode:screen" opacity="0.5">
<path d="M9.11367 8.57163C7.32574 9.3796 6.30578 10.8275 6.05379 12.9074C5.60581 14.1194 4.96585 12.3955 6.56178 10.1036C8.15371 7.80367 10.5776 7.93166 9.11367 8.57163Z" fill="white"/>
</g>
<path d="M38.6085 12.9394C38.3525 11.3875 38.1285 9.86759 37.9365 8.37965C37.6485 6.14775 39.7564 4.36383 42.6203 4.8718C45.4921 5.38378 47.9481 8.02767 47.9481 11.7595C47.7881 13.1634 45.8401 14.1194 43.7682 14.1834C42.3883 14.2234 41.5283 14.2874 41.1883 14.3714C41.1683 13.9674 41.3483 13.5834 41.7283 13.2234C40.9643 13.2034 40.3604 13.3634 39.9124 13.7034C39.6164 12.8115 39.2524 12.1435 38.8284 11.6955C38.9124 12.0955 38.8365 12.5115 38.6045 12.9355L38.6085 12.9394Z" fill="#FF9911"/>
<path d="M45.6601 10.9395C45.1322 12.3115 42.5483 12.1995 41.0643 10.7555C39.5844 9.30761 39.4724 6.67973 41.4363 6.34374C42.7442 6.12375 43.9442 6.59173 45.0321 7.75568C45.8081 8.53165 46.2321 9.47161 45.6641 10.9435L45.6601 10.9395Z" fill="#D35E00"/>
<g style="mix-blend-mode:multiply">
<g style="mix-blend-mode:multiply">
<path d="M45.1162 11.5875C44.1362 12.2115 42.2483 11.9075 41.0643 10.7556C39.5844 9.30762 39.4724 6.67974 41.4363 6.34375C42.9602 6.08776 44.2842 7.07572 44.8002 7.5357C43.8522 7.03172 42.6042 6.74773 41.6843 7.90768C40.0724 9.95159 42.5323 12.5635 45.1122 11.5875H45.1162Z" fill="#C97106"/>
</g>
</g>
<g style="mix-blend-mode:multiply" opacity="0.5">
<g style="mix-blend-mode:multiply" opacity="0.5">
<path d="M47.7003 9.77559C47.8603 10.3956 47.9483 11.0595 47.9483 11.7595C47.7883 13.1634 45.8404 14.1194 43.7685 14.1834C42.3885 14.2234 41.5286 14.2874 41.1886 14.3714C41.1686 13.9674 41.3486 13.5834 41.7286 13.2234C40.9646 13.2034 40.3607 13.3634 39.9127 13.7034C39.6167 12.8115 39.2527 12.1435 38.8287 11.6955C38.9127 12.0955 38.8367 12.5115 38.6047 12.9355C38.3487 11.3835 38.1247 9.86359 37.9327 8.37565C37.6807 6.42774 39.2527 4.82381 41.5606 4.78381C40.6526 4.90381 39.7927 5.31579 39.1567 6.21975C38.4247 7.73568 39.3807 7.5117 40.0527 6.61174C40.7246 5.71178 43.9285 5.31979 45.7244 7.79168C47.5203 10.2596 45.7804 12.1715 44.2085 12.3395C42.6365 12.5075 43.8165 13.9114 46.1204 13.0155C47.7603 12.3755 47.9763 11.0755 47.7003 9.77559Z" fill="#C97106"/>
</g>
</g>
<g style="mix-blend-mode:screen" opacity="0.5">
<path d="M47.1959 8.93961C48.1559 11.6195 46.4799 11.9995 46.7199 10.8515C47.1359 8.93961 46.432 7.47168 44.612 6.45172C43.8001 5.53976 46.24 6.25973 47.1959 8.93562V8.93961Z" fill="white"/>
</g>
<g style="mix-blend-mode:multiply" opacity="0.5">
<path d="M20.7573 8.06763C20.7213 8.14762 20.6893 8.23562 20.6533 8.31561C20.6933 8.23162 20.7293 8.14762 20.7573 8.06763Z" fill="#782600"/>
</g>
<g style="mix-blend-mode:multiply" opacity="0.5">
<path d="M48.832 41.2902C48.836 41.3422 48.84 41.3822 48.848 41.4102C48.844 41.3822 48.84 41.3422 48.832 41.2902Z" fill="#782600"/>
</g>
<g style="mix-blend-mode:multiply" opacity="0.5">
<path d="M53.3079 32.1306C55.1038 35.1304 54.6278 37.6703 51.8879 39.7422C49.4 41.7021 49.448 42.3261 50.068 43.2821C49.592 43.6341 48.9361 43.2981 48.1081 42.2781C48.6161 44.734 46.6881 46.3419 42.3203 47.1059C40.5044 47.1059 39.9285 48.3498 40.4084 49.0178C39.5445 49.0658 39.2124 48.9698 38.9725 48.3978C38.7805 49.6898 37.4405 51.4577 34.0447 52.4617C30.6488 53.4656 28.1609 55.3295 27.729 56.6255C27.441 54.3296 25.5291 51.8417 20.6053 51.2217C17.8294 51.0777 15.8695 50.3618 16.3495 48.3538C15.5855 48.7818 15.1535 49.2138 15.1535 48.6858C15.1535 48.1618 15.2495 47.4419 14.4855 47.5859C13.7216 47.7299 10.1778 48.8298 8.50983 47.7299C6.8339 46.6299 7.60185 45.818 7.74184 44.43C7.88584 43.0421 7.88585 43.3301 7.40587 43.6181C6.92589 43.906 6.25792 44.142 5.30196 43.666C6.7859 43.1861 7.64583 40.7462 5.92591 40.0262C4.20198 39.3102 1.14213 39.2142 2.14209 36.5384C2.42608 35.7904 2.63407 35.2104 2.79807 34.7584L2.91808 34.6904C2.02212 36.5504 2.88207 37.3783 5.50195 37.1743C9.43378 36.8623 10.1537 40.2782 8.39782 41.6221C9.56977 41.0702 10.4657 40.0342 11.0857 38.5183C11.1577 41.4821 10.7417 43.554 9.84576 44.726C8.50181 46.4859 13.9856 47.1059 16.1535 44.726C16.0815 46.1059 16.1535 46.9299 16.3615 47.2099C16.7055 46.5219 17.1894 45.9699 17.8094 45.554C17.3934 47.9339 19.2573 49.4818 23.3932 49.4818C27.529 49.4818 28.9769 50.0018 28.6649 53.4136C35.4926 49.2738 38.0805 49.2738 36.8406 45.658C38.7005 47.1059 39.6324 47.8299 39.6324 47.8299C39.0805 46.0379 39.5964 44.934 41.1844 44.518C43.5643 44.002 48.6321 42.7621 47.3921 39.3462C48.5241 39.6102 48.776 40.8942 48.828 41.2942C48.832 41.3462 48.836 41.3861 48.844 41.4141C48.84 41.3861 48.836 41.3462 48.828 41.2942C48.788 40.7742 48.792 38.7223 51.2199 38.0023C54.0118 37.1743 54.0478 34.5504 53.3039 32.1385L53.3079 32.1306Z" fill="#782600"/>
</g>
<g style="mix-blend-mode:screen">
<path d="M27.7289 1.00793C23.2731 2.45987 21.4812 5.12376 22.3532 8.99959C20.9012 6.89568 21.1172 2.82385 27.7289 1.00793Z" fill="#782600"/>
</g>
<g style="mix-blend-mode:screen">
<path d="M20.3054 6.77173C19.5574 8.41966 18.0814 9.51961 15.8735 10.0796C17.5575 10.5836 20.5894 9.23962 20.3054 6.77173Z" fill="#782600"/>
</g>
<g style="mix-blend-mode:screen">
<path d="M24.0971 5.2558C23.0131 7.35971 23.2971 9.30362 24.957 11.0875C22.5652 9.94359 21.8052 6.97572 24.0971 5.2558Z" fill="#782600"/>
</g>
<g style="mix-blend-mode:multiply" opacity="0.5">
<g style="mix-blend-mode:multiply" opacity="0.5">
<path d="M37.8844 67.1131C37.4365 71.5569 41.5043 71.4009 41.4563 74.9687C41.4123 78.5406 39.0484 79.5685 37.0365 78.8526C36.2325 80.2365 33.2887 80.2805 32.2167 79.4325C29.1368 80.4165 26.8129 78.2246 27.4409 75.7247C28.0609 73.2248 29.7168 71.5729 30.5207 70.0969C31.0847 68.725 31.8007 67.1771 32.6407 65.4251C31.2647 68.373 30.5488 70.029 31.5807 71.0049C32.7687 72.1329 34.3126 70.2929 35.6765 71.3009C37.0405 72.3128 38.6484 71.9569 37.4005 69.581C36.1525 67.2051 37.4005 61.8613 39.9524 57.2295C42.5042 52.5977 43.2762 49.5098 40.9003 49.9858C38.5244 50.4618 36.6285 52.0057 36.7405 54.7336C36.8405 56.9855 35.8126 59.2734 34.9126 60.8093C34.9326 60.7614 34.9566 60.7214 34.9806 60.6774C36.2605 58.1175 36.2885 54.9456 35.0685 51.1658C38.7524 47.022 42.4762 45.058 46.2401 45.278C45.7601 48.1819 44.5162 51.0658 42.5083 53.9377C39.4924 58.2415 38.3004 61.9253 37.8804 67.1051L37.8844 67.1131Z" fill="#C97106"/>
</g>
</g>
<g style="mix-blend-mode:multiply">
<g style="mix-blend-mode:multiply">
<path d="M41.1843 76.7766C40.5003 78.8766 38.6524 79.4325 37.0365 78.8566C36.2325 80.2405 33.2887 80.2845 32.2167 79.4365C29.1368 80.4205 26.8129 78.2286 27.4409 75.7287C27.7089 74.6487 28.1688 73.7288 28.6728 72.9128C27.4489 75.1007 27.3849 76.8206 28.9328 77.5686C30.5088 78.3366 31.0607 76.7246 31.1327 75.2767C31.1967 73.9688 31.6127 73.1368 32.3767 72.7888C31.6127 76.2007 32.3127 77.9566 34.4806 78.0486C36.6325 78.0486 37.9244 76.1367 37.6884 73.8408C38.7884 74.7047 37.5924 77.5246 39.2204 77.7646C39.9523 77.8726 40.7203 77.5366 41.1923 76.7766H41.1843Z" fill="#C97106"/>
</g>
</g>
<path d="M32.9926 71.7888C32.9526 71.8608 32.9046 71.9688 32.8486 72.1008C32.7646 72.3008 32.6446 72.5848 32.5286 72.9328C32.4606 73.1048 32.4086 73.2967 32.3406 73.4967C32.2806 73.6967 32.2286 73.9127 32.1686 74.1327C32.1206 74.3607 32.0646 74.5847 32.0286 74.8247C32.0086 74.9447 31.9886 75.0647 31.9686 75.1807L31.9286 75.5446C31.8926 75.7846 31.8846 76.0286 31.8766 76.2686C31.8606 76.5086 31.8766 76.7446 31.8726 76.9726C31.8766 77.0326 31.8766 77.0886 31.8766 77.1446C31.8806 77.2006 31.8847 77.2566 31.8887 77.3086C31.9007 77.4166 31.9047 77.5286 31.9167 77.6326C31.9287 77.8405 31.9607 78.0365 31.9887 78.2205C32.0206 78.4005 32.0286 78.5725 32.0686 78.7205C32.0966 78.8685 32.1287 78.9965 32.1527 79.1005C32.1807 79.2405 32.2046 79.3565 32.2206 79.4405C32.1846 79.3645 32.1406 79.2605 32.0846 79.1245C32.0366 79.0245 31.9886 78.9005 31.9326 78.7605C31.8727 78.6205 31.8366 78.4485 31.7807 78.2685C31.7567 78.1765 31.7287 78.0845 31.7007 77.9845C31.6687 77.8845 31.6607 77.7806 31.6407 77.6766C31.6087 77.4606 31.5527 77.2366 31.5487 76.9966C31.5407 76.8766 31.5327 76.7566 31.5247 76.6366C31.5207 76.5726 31.5167 76.5126 31.5127 76.4486L31.5207 76.2646C31.5287 76.0166 31.5287 75.7606 31.5647 75.5087C31.5807 75.3847 31.5967 75.2567 31.6127 75.1287C31.6367 75.0047 31.6607 74.8807 31.6847 74.7567C31.7247 74.5127 31.8047 74.2767 31.8647 74.0487C31.9327 73.8247 32.0127 73.6047 32.0927 73.4048C32.1766 73.2048 32.2526 73.0128 32.3406 72.8488C32.4206 72.6768 32.5126 72.5288 32.5886 72.3968C32.6686 72.2688 32.7406 72.1528 32.8046 72.0608C32.8886 71.9408 32.9566 71.8488 33.0126 71.7888H32.9926Z" fill="#782600"/>
<path d="M36.5326 72.0728C36.6006 72.1048 36.6886 72.1568 36.7926 72.2367C36.8326 72.2687 36.8765 72.3047 36.9205 72.3367C36.9685 72.3767 37.0126 72.4247 37.0606 72.4727C37.1126 72.5207 37.1566 72.5767 37.2046 72.6367C37.2566 72.6967 37.3086 72.7607 37.3526 72.8367C37.3965 72.9087 37.4485 72.9807 37.5005 73.0647C37.5405 73.1447 37.5845 73.2327 37.6245 73.3207C37.6725 73.4087 37.7005 73.5047 37.7405 73.6007C37.7725 73.6967 37.8205 73.7967 37.8365 73.9007C37.8845 74.1087 37.9445 74.3247 37.9565 74.5526C37.9685 74.6646 37.9845 74.7806 37.9885 74.8886L37.9925 75.2326C37.9965 75.4606 37.9685 75.6846 37.9445 75.9086C37.9285 76.1326 37.8765 76.3446 37.8325 76.5526C37.7885 76.7606 37.7485 76.9605 37.6845 77.1405C37.6245 77.3245 37.5686 77.4965 37.5126 77.6565C37.4646 77.8165 37.3925 77.9565 37.3365 78.0805C37.2805 78.2005 37.2285 78.3085 37.1885 78.3965C37.1325 78.5125 37.0886 78.6045 37.0526 78.6725C37.0686 78.6005 37.0886 78.5005 37.1166 78.3725C37.1406 78.2805 37.1686 78.1645 37.1966 78.0325C37.2246 77.9005 37.2726 77.7565 37.3006 77.5965C37.3326 77.4325 37.3646 77.2565 37.4046 77.0765C37.4485 76.8925 37.4685 76.6965 37.5005 76.4966C37.5165 76.3966 37.5285 76.2926 37.5445 76.1886C37.5605 76.0846 37.5605 75.9806 37.5725 75.8766C37.5885 75.6646 37.6165 75.4486 37.6085 75.2366L37.6126 74.9126C37.6086 74.8046 37.5965 74.7006 37.5885 74.5966C37.5765 74.3847 37.5365 74.1847 37.5045 73.9887C37.4965 73.8887 37.4565 73.7967 37.4365 73.7047C37.4085 73.6127 37.3926 73.5207 37.3566 73.4327C37.3246 73.3487 37.2926 73.2647 37.2646 73.1847C37.2326 73.1047 37.1926 73.0287 37.1606 72.9567C37.1286 72.8807 37.0846 72.8167 37.0486 72.7527C37.0086 72.6887 36.9806 72.6287 36.9406 72.5727C36.9006 72.5167 36.8646 72.4687 36.8366 72.4207C36.7966 72.3767 36.7646 72.3367 36.7366 72.2967C36.6726 72.2247 36.6246 72.1687 36.5846 72.1327C36.5606 72.1087 36.5406 72.0888 36.5286 72.0768L36.5326 72.0728Z" fill="#782600"/>
<path d="M45.896 59.5494C45.88 59.5574 45.86 59.5734 45.836 59.5934C45.796 59.6214 45.748 59.6694 45.684 59.7294C45.616 59.7854 45.54 59.8614 45.452 59.9454C45.368 60.0374 45.276 60.1334 45.184 60.2493C45.084 60.3573 45 60.4973 44.9001 60.6253C44.8561 60.6973 44.812 60.7733 44.768 60.8453C44.748 60.8813 44.7241 60.9213 44.7001 60.9573C44.6801 60.9973 44.6601 61.0373 44.6401 61.0773C44.6041 61.1573 44.564 61.2413 44.524 61.3213C44.496 61.4093 44.4641 61.5013 44.4321 61.5853C44.4161 61.6293 44.3961 61.6733 44.3841 61.7173L44.3521 61.8573L44.2881 62.1373C44.2681 62.3253 44.2361 62.5173 44.2321 62.7052C44.2441 62.8932 44.2241 63.0852 44.2441 63.2652C44.2681 63.4452 44.2841 63.6212 44.3041 63.7892C44.3441 63.9532 44.3801 64.1132 44.4081 64.2572C44.4241 64.3332 44.4361 64.4012 44.4521 64.4652C44.4721 64.5292 44.4921 64.5932 44.5081 64.6532C44.5441 64.7692 44.5721 64.8731 44.5961 64.9611C44.6281 65.0731 44.652 65.1651 44.668 65.2291C44.632 65.1731 44.584 65.0931 44.524 64.9891C44.48 64.9091 44.428 64.8172 44.368 64.7052C44.34 64.6492 44.3081 64.5932 44.2761 64.5292C44.2521 64.4612 44.2241 64.3932 44.1961 64.3212C44.1401 64.1772 44.0841 64.0212 44.0241 63.8492C43.9881 63.6772 43.9441 63.4932 43.9081 63.3012C43.8841 63.2052 43.8881 63.1052 43.8801 63.0052C43.8721 62.9012 43.8681 62.8012 43.8601 62.6972C43.8601 62.4892 43.8921 62.2773 43.9121 62.0693L43.9881 61.7653L44.0241 61.6093C44.0441 61.5613 44.0641 61.5133 44.0801 61.4653C44.1161 61.3693 44.1561 61.2693 44.1961 61.1773C44.2481 61.0893 44.2961 61.0013 44.3441 60.9173C44.3721 60.8733 44.392 60.8333 44.42 60.7893C44.448 60.7533 44.4761 60.7133 44.5041 60.6773C44.5641 60.5973 44.616 60.5253 44.672 60.4573C44.792 60.3254 44.908 60.1974 45.028 60.1014C45.144 59.9934 45.26 59.9134 45.364 59.8414C45.468 59.7734 45.56 59.7174 45.644 59.6774C45.724 59.6334 45.788 59.6054 45.832 59.5854C45.86 59.5734 45.884 59.5654 45.9 59.5614L45.896 59.5494Z" fill="#782600"/>
<path d="M48.8279 59.6694C48.8759 59.6974 48.9359 59.7494 49.0079 59.8214C49.0639 59.8734 49.1279 59.9414 49.1879 60.0294C49.2519 60.1134 49.3239 60.2173 49.3839 60.3293C49.4159 60.3893 49.4479 60.4493 49.4799 60.5133C49.5079 60.5773 49.5319 60.6493 49.5599 60.7213C49.6159 60.8613 49.6559 61.0173 49.6999 61.1773C49.7159 61.2573 49.7279 61.3413 49.7479 61.4253C49.7639 61.5093 49.7758 61.5933 49.7798 61.6773C49.7918 61.8493 49.8079 62.0253 49.7999 62.1973L49.7919 62.4612C49.7799 62.5492 49.7719 62.6332 49.7639 62.7172C49.7479 62.8852 49.7158 63.0572 49.6798 63.2092C49.6398 63.3692 49.6119 63.5252 49.5639 63.6652C49.5199 63.8052 49.4759 63.9372 49.4279 64.0612C49.3919 64.1852 49.3399 64.2892 49.2919 64.3852C49.2479 64.4812 49.2079 64.5652 49.1759 64.6292C49.1319 64.7211 49.0959 64.7891 49.0679 64.8411C49.0759 64.7811 49.0879 64.7052 49.1039 64.6052C49.1239 64.4572 49.1759 64.2532 49.2159 64.0012C49.2359 63.8772 49.2559 63.7412 49.2879 63.6012C49.3119 63.4612 49.3199 63.3092 49.3479 63.1532C49.3559 63.0732 49.3679 62.9972 49.3759 62.9212C49.3799 62.8412 49.3879 62.7612 49.3919 62.6772C49.3999 62.5972 49.4039 62.5172 49.4119 62.4372L49.4159 62.1893C49.4279 62.0253 49.4199 61.8613 49.4119 61.7013C49.4079 61.5413 49.3839 61.3853 49.3719 61.2333C49.3439 61.0853 49.3279 60.9333 49.2919 60.8013C49.2759 60.7333 49.2599 60.6653 49.2439 60.6013C49.2239 60.5373 49.2039 60.4773 49.1879 60.4173C49.1479 60.2973 49.1079 60.1933 49.0679 60.1013C49.0279 60.0094 48.9879 59.9294 48.9519 59.8654C48.9159 59.8054 48.8919 59.7494 48.8679 59.7174C48.8519 59.6934 48.8399 59.6774 48.8319 59.6694H48.8279Z" fill="#782600"/>
<g style="mix-blend-mode:multiply">
<g style="mix-blend-mode:multiply">
<path d="M51.0875 61.0813C51.4875 62.5852 51.2315 64.4371 49.0636 64.8451C48.2597 65.5891 45.3478 65.8971 44.4798 65.1531C43.3639 65.6491 41.7519 64.2252 42.1279 62.0572C42.1839 61.7213 42.2479 61.4413 42.3279 61.2013C42.2399 61.7533 42.0199 63.5572 42.7679 64.0572C43.6558 64.6491 42.8279 62.4012 44.5998 60.7453C44.0119 62.5212 44.5998 64.3531 46.1958 64.4131C47.7957 64.4691 49.8036 63.5852 49.3316 60.5653C50.0996 61.9852 49.7436 63.4652 50.5116 63.4052C51.1156 63.3572 51.3515 62.3652 51.0875 61.0813Z" fill="#CC7206"/>
</g>
</g>
<g style="mix-blend-mode:screen">
<path d="M53.4957 47.0139C53.9037 49.4458 53.1797 52.0817 51.3238 54.9216C50.1958 56.8375 55.4076 51.4457 53.4957 47.0139Z" fill="#CC7206"/>
</g>
<g style="mix-blend-mode:screen">
<path d="M55.3477 13.4194C61.0434 20.3911 62.4033 27.0268 59.4275 33.3146C62.1073 28.7228 63.2513 21.7071 55.3477 13.4194Z" fill="#CC7206"/>
</g>
<g style="mix-blend-mode:screen" opacity="0.5">
<path d="M36.1484 60.6413C34.3004 64.5332 33.5285 67.241 33.8324 68.773C34.5484 72.3528 31.1246 70.5009 32.6125 66.6691C34.0965 62.8332 37.5603 58.2934 36.1484 60.6413Z" fill="#FF9911"/>
</g>
</svg>
