<svg width="79" height="80" viewBox="0 0 79 80" fill="none" xmlns="http://www.w3.org/2000/svg">
<path d="M78.5356 26.4705C78.5156 26.8184 78.3956 27.1704 78.0716 27.3224C77.4356 27.6264 76.8197 27.3744 76.1757 27.2464C75.4077 27.0904 74.4438 26.9865 73.8638 27.6304C73.4118 28.1344 73.0238 28.7824 72.3318 28.9904C71.7318 29.1744 71.1878 29.1024 70.6319 28.8344C70.3039 28.6784 69.9599 28.4264 69.5959 28.3704C69.1719 28.3064 68.7479 28.4264 68.3399 28.5464C67.92 28.6704 67.332 28.9064 67.016 28.4544C66.82 28.1744 66.744 27.8344 66.916 27.5464C66.92 27.5184 66.928 27.4944 66.944 27.4664C67.2 27.0784 67.52 26.7265 67.72 26.3025C67.936 25.8505 68.012 25.4345 68.0319 24.9345C68.0599 24.2025 68.2679 23.4946 68.4839 22.8026C68.7479 21.9666 69.2959 20.8707 68.9639 19.9867C68.8399 19.6547 68.5959 19.0947 68.9399 18.7987C69.7719 18.0947 70.8679 19.4987 70.8599 20.2707C70.8519 20.8946 70.6359 21.4706 70.5479 22.0866C70.5159 22.3066 70.4759 22.5546 70.4799 22.7946C71.3478 21.8706 72.4158 21.0826 73.1518 20.0547C73.4438 19.6427 74.3078 18.3027 74.9837 18.9227C75.7197 19.6027 75.1277 20.5627 74.5557 21.1266C74.2837 21.3946 73.9878 21.6266 73.6878 21.8626C73.3838 22.1026 72.8998 22.4106 72.7638 22.7906C72.5438 23.4186 73.5158 23.0706 73.7438 22.9706C74.0438 22.8306 74.3478 22.7066 74.6437 22.5626C75.2157 22.2826 75.7797 21.9826 76.3797 21.7586C76.7277 21.6266 77.3037 21.4106 77.6556 21.6626C77.9476 21.8706 77.9716 22.2026 77.8556 22.5266C77.4836 23.5586 76.5397 23.9306 75.5757 24.2585C75.2517 24.3705 74.9157 24.5025 74.6357 24.7025C74.4837 24.8065 74.3078 24.9225 74.1918 25.0705C73.9158 25.4265 74.6917 25.2985 74.8597 25.2665C76.0517 25.0425 77.1956 25.3905 78.2956 25.8225C78.4636 25.9705 78.5236 26.2145 78.5396 26.4665L78.5356 26.4705Z" fill="#EA9A98"/>
<g style="mix-blend-mode:multiply" opacity="0.4">
<path fill-rule="evenodd" clip-rule="evenodd" d="M78.5356 26.4704C78.5156 26.8184 78.3956 27.1704 78.0716 27.3224C77.4356 27.6264 76.8197 27.3744 76.1757 27.2464C75.4077 27.0904 74.4438 26.9864 73.8638 27.6304C73.4118 28.1344 73.0238 28.7823 72.3318 28.9903C71.7318 29.1743 71.1878 29.1023 70.6319 28.8344C70.3039 28.6784 69.9599 28.4264 69.5959 28.3704C69.1719 28.3064 68.7479 28.4264 68.3399 28.5464C67.92 28.6704 67.332 28.9064 67.016 28.4544C66.82 28.1744 66.744 27.8344 66.916 27.5464C66.92 27.5184 66.928 27.4944 66.944 27.4664C67.2 27.0784 67.52 26.7264 67.72 26.3024C67.936 25.8504 68.012 25.4345 68.0319 24.9345C68.0599 24.2025 68.2679 23.4945 68.4839 22.8025C68.7479 21.9666 69.2959 20.8706 68.9639 19.9866C68.8399 19.6547 68.5959 19.0947 68.9399 18.7987C68.9519 18.7867 68.9679 18.7787 68.9839 18.7667C68.9599 18.9347 68.9799 19.1267 69.0239 19.2666C69.1239 19.6066 69.3879 19.9466 69.6039 20.2226C69.7959 20.4706 70.0039 20.6146 70.3239 20.6186C70.6599 20.6186 70.8159 20.4786 70.8599 20.2706C70.8519 20.8946 70.6359 21.4746 70.5479 22.0866C70.5159 22.3066 70.4759 22.5545 70.4799 22.7945C70.7319 22.5225 71.0039 22.2666 71.2798 22.0106C71.2438 22.0946 71.2239 22.1866 71.2199 22.2786C71.2079 22.4826 71.4279 22.5586 71.5918 22.5786C71.9358 22.6186 72.2878 22.2106 72.4878 21.9946C72.8518 21.5986 73.1118 21.2546 73.5958 20.9786C74.0917 20.6946 74.4958 20.4506 74.8197 19.9706C74.9837 19.7266 75.1637 19.3507 75.0917 19.0387C75.6517 19.7067 75.0957 20.5946 74.5517 21.1266C74.2797 21.3946 73.9838 21.6266 73.6838 21.8626C73.3798 22.1026 72.8958 22.4105 72.7598 22.7905C72.5398 23.4185 73.5118 23.0705 73.7398 22.9705C74.0198 22.8425 74.3037 22.7225 74.5797 22.5905C74.4237 22.6945 74.2718 22.8026 74.1158 22.9105C73.8238 23.1185 73.5158 23.3705 73.4238 23.7345C73.1958 24.6185 74.7837 23.6265 74.9277 23.5825C75.2197 23.4905 75.5357 23.5065 75.8317 23.4385C76.0757 23.3825 76.3117 23.2385 76.5237 23.1145C76.9437 22.8706 77.3796 22.6346 77.6036 22.1826C77.7116 21.9586 77.7076 21.7866 77.6356 21.6626C77.6396 21.6666 77.6436 21.6666 77.6476 21.6706C77.9396 21.8786 77.9636 22.2106 77.8476 22.5346C77.4756 23.5665 76.5317 23.9385 75.5677 24.2665C75.2437 24.3785 74.9077 24.5105 74.6277 24.7105C74.4757 24.8145 74.2998 24.9305 74.1838 25.0785C73.9078 25.4345 74.6837 25.3065 74.8517 25.2745C74.8637 25.2705 74.8757 25.2705 74.8877 25.2665C74.5757 25.3585 74.2878 25.4985 74.0878 25.6984C73.9478 25.8344 73.9078 26.0385 74.0717 26.1624C74.2637 26.3104 74.7117 26.1584 74.9157 26.1144C75.5597 25.9705 75.9957 26.1304 76.5717 26.3824C76.9557 26.5544 77.3597 26.6824 77.7836 26.6224C78.1156 26.5744 78.3596 26.2584 78.3796 25.9385C78.4796 26.0864 78.5196 26.2784 78.5316 26.4744L78.5356 26.4704ZM71.4718 23.8945C71.3998 23.8545 71.2998 23.9225 71.3278 24.0025C71.3438 24.0425 71.5358 24.5225 71.4439 24.4785C71.2599 24.3865 71.0918 24.2465 70.9279 24.1185C70.7359 23.9705 70.1279 23.2225 70.2519 22.9025C70.2639 22.8905 70.2759 22.8745 70.2799 22.8545C70.2839 22.8505 70.2839 22.8465 70.2879 22.8425C70.3439 22.7785 70.2959 22.6905 70.2319 22.6785C70.0959 22.3986 69.7439 22.2786 69.4959 22.5346C69.1079 22.9465 69.1679 23.8825 69.2079 24.3785C69.2599 25.0385 69.4039 25.5664 70.0279 25.8464C70.5079 26.0624 70.3479 26.5704 70.4199 26.9664C70.4639 27.1904 70.6119 27.3824 70.7679 27.5344C71.4199 28.1704 72.6158 28.0584 72.8718 27.1144C73.1838 25.9705 72.4638 24.4705 71.4638 23.8945H71.4718Z" fill="#C94C57"/>
</g>
<path d="M70.5918 19.4667C70.7597 19.7467 70.8637 20.0427 70.8597 20.2827C70.8517 20.9066 70.6357 21.4826 70.5477 22.0986C70.5197 22.2946 70.4877 22.5146 70.4837 22.7306C70.4277 22.9186 70.4277 23.1066 70.5517 23.2466C70.5557 23.2586 70.5597 23.2666 70.5597 23.2746C70.7157 23.6705 71.0677 23.8905 71.3077 24.2265C71.3197 24.2425 71.2957 24.2625 71.2797 24.2505C70.8597 23.9505 70.3437 23.6025 70.2797 23.0466C70.2238 22.5706 70.2877 22.1066 70.3797 21.6426C70.6557 20.9466 70.8037 20.1467 70.5957 19.4667H70.5918Z" fill="#C94C57"/>
<path d="M73.8798 25.2225C73.8918 25.0545 74.0158 24.8945 74.1838 24.7545C75.1237 24.2385 76.2197 24.0705 77.0996 23.4505C77.5236 23.1506 77.7676 22.7466 77.9116 22.2986C77.8996 22.3746 77.8836 22.4506 77.8556 22.5266C77.4836 23.5585 76.5397 23.9305 75.5757 24.2585C75.2517 24.3705 74.9157 24.5025 74.6357 24.7025C74.4837 24.8065 74.3078 24.9225 74.1918 25.0705C73.9158 25.4265 74.6917 25.2985 74.8597 25.2665C75.0557 25.2305 75.2517 25.2105 75.4477 25.2025C75.2597 25.2305 75.0757 25.2785 74.8997 25.3385C74.6677 25.4185 74.4198 25.4585 74.1918 25.5385C74.0358 25.4945 73.8678 25.4105 73.8798 25.2265V25.2225Z" fill="#C94C57"/>
<path d="M78.5155 26.6584C78.4675 26.9384 78.3395 27.1984 78.0755 27.3224C77.4395 27.6264 76.8236 27.3744 76.1796 27.2464C75.4116 27.0904 74.4477 26.9864 73.8677 27.6304C73.4157 28.1344 73.0277 28.7823 72.3357 28.9903C71.7357 29.1743 71.1918 29.1023 70.6358 28.8344C70.3078 28.6784 69.9638 28.4264 69.5998 28.3704C69.1758 28.3064 68.7518 28.4264 68.3439 28.5463C67.9239 28.6703 67.3359 28.9063 67.0199 28.4544C66.8239 28.1744 66.7479 27.8344 66.9199 27.5464C66.9239 27.5184 66.9319 27.4944 66.9479 27.4664C67.2039 27.0784 67.5239 26.7264 67.7239 26.3024C67.9398 25.8504 68.0159 25.4345 68.0359 24.9345C68.0599 24.3305 68.2078 23.7425 68.3798 23.1625C68.3358 23.4465 68.3199 23.7345 68.3159 24.0225C68.3159 24.0305 68.3118 24.0385 68.3118 24.0465C68.2359 24.7425 68.3918 25.4665 68.1318 26.1384C67.9199 26.6864 67.5879 27.2304 67.1879 27.6624C67.1559 27.6984 67.1199 27.7144 67.0839 27.7144C67.0759 28.0424 67.2679 28.4463 67.6359 28.3903C67.9479 28.3423 68.2438 28.2264 68.5478 28.1504C68.9758 28.0464 69.3798 27.9944 69.8038 28.1464C70.2558 28.3104 70.6358 28.6304 71.0878 28.7864C71.7917 29.0263 72.6237 28.7983 73.0877 28.2024C73.3957 27.8024 73.6757 27.2704 74.1557 27.0504C74.5476 26.8704 74.9716 26.8384 75.3996 26.8824C75.6836 26.9104 76.0916 27.0064 76.5036 27.0744C77.0996 27.2744 77.8715 27.4184 78.3355 26.9344C78.4155 26.8504 78.4755 26.7544 78.5155 26.6504V26.6584Z" fill="#C94C57"/>
<path d="M72.6918 23.2226C72.5398 23.0866 72.5718 22.8106 72.6438 22.6506C72.9758 21.9306 73.6998 21.5666 74.2438 21.0347C74.2718 21.0067 74.3078 20.9747 74.3398 20.9387C74.6958 20.6827 74.9998 20.3747 75.1558 19.9947C75.2438 19.7827 75.2517 19.4507 75.1757 19.1627C75.5917 19.8147 75.0638 20.6347 74.5558 21.1347C74.2838 21.4026 73.9878 21.6346 73.6878 21.8706C73.3838 22.1106 72.8998 22.4186 72.7638 22.7986C72.5438 23.4266 73.5158 23.0786 73.7438 22.9786C74.0438 22.8386 74.3478 22.7146 74.6438 22.5706C74.7638 22.5106 74.8838 22.4506 74.9998 22.3906C74.7078 22.5546 74.4198 22.7226 74.1278 22.8866C73.8518 23.0426 73.5238 23.2386 73.1998 23.3666C73.0158 23.3826 72.8398 23.3546 72.6918 23.2226Z" fill="#C94C57"/>
<path d="M73.2476 26.9024C73.2476 26.9304 73.2117 26.9344 73.2077 26.9064C73.0157 25.6425 72.4797 24.5545 71.4637 23.7585C71.4517 23.7505 71.4637 23.7305 71.4757 23.7385C72.6197 24.3905 73.2956 25.5905 73.2476 26.9024Z" fill="#C94C57"/>
<path d="M77.4718 21.7866C76.7719 21.7906 76.0319 22.1786 75.4159 22.4946C74.8359 22.7905 74.3119 23.1545 73.772 23.5225C73.756 23.5345 73.732 23.5105 73.748 23.4945C74.3039 22.9785 74.9599 22.5466 75.6279 22.1946C76.1679 21.9106 76.8479 21.5586 77.4718 21.7106C77.5118 21.7226 77.5159 21.7826 77.4679 21.7826L77.4718 21.7866Z" fill="#FFC7C7"/>
<path d="M78.1358 26.0904C77.5998 25.7585 77.0318 25.5545 76.4159 25.4225C75.7159 25.2745 75.1599 25.4265 74.4879 25.6065C74.4599 25.6145 74.4439 25.5745 74.4719 25.5625C75.1439 25.2945 75.7239 25.0745 76.4478 25.2305C77.0718 25.3665 77.7398 25.5385 78.1798 26.0345C78.2038 26.0625 78.1638 26.1065 78.1358 26.0865V26.0904Z" fill="#FFC7C7"/>
<path d="M74.5878 18.8587C73.8078 19.2187 73.5438 20.0267 73.0438 20.6587C72.5998 21.2186 71.9918 21.6306 71.4879 22.1386C71.4719 22.1546 71.4439 22.1346 71.4599 22.1146C71.7078 21.7386 72.0438 21.4506 72.3598 21.1346C72.7038 20.7986 72.9758 20.4506 73.2318 20.0427C73.5638 19.5147 73.9238 18.9427 74.5717 18.7947C74.6157 18.7827 74.6358 18.8387 74.5918 18.8587H74.5878Z" fill="#FFC7C7"/>
<path d="M70.7198 20.0026C70.7158 20.0346 70.6758 20.0306 70.6638 20.0066C70.4038 19.4867 69.8718 18.5347 69.1398 18.8707C69.1079 18.8867 69.0918 18.8387 69.1118 18.8227C69.6998 18.3227 70.8158 19.3747 70.7198 20.0066V20.0026Z" fill="#FFC7C7"/>
<path d="M70.808 25.9385C70.78 25.9625 70.748 25.9225 70.768 25.8945C71.216 25.2665 71.144 24.6305 70.692 24.0265C70.456 23.7145 70.252 23.4425 70.172 23.0546C70.168 23.0346 70.2 23.0306 70.208 23.0466C70.444 23.6465 71.16 24.0345 71.264 24.6825C71.336 25.1305 71.16 25.6505 70.808 25.9385Z" fill="#FFC7C7"/>
<path d="M72.6519 27.4304C72.6239 27.4584 72.5759 27.4304 72.5919 27.3944C72.9759 26.5064 72.7359 25.4065 72.1399 24.6705C72.1279 24.6585 72.1479 24.6385 72.1599 24.6505C72.7959 25.2665 73.4039 26.6664 72.6479 27.4304H72.6519Z" fill="#FFC7C7"/>
<path d="M39.8609 75.6328C38.8769 76.3008 37.217 77.6048 36.305 78.3568C34.9931 79.4407 33.2211 80.4367 31.4612 79.8007C30.9612 79.6207 30.5332 79.2647 30.3692 78.7727C29.7572 79.0687 28.6413 78.8727 28.1653 78.4368C27.9253 78.2128 27.8093 77.9648 27.7893 77.7088C26.6413 77.5288 26.6453 76.2328 27.1893 75.3609C26.4733 74.7449 27.0773 73.9649 27.7453 73.5889C28.6133 73.1009 29.6333 73.6129 30.4932 73.8369C31.1572 74.0089 31.8692 74.0409 32.5531 74.0649C33.1571 74.0889 33.7691 74.0889 34.3651 73.9809C35.4491 73.7809 36.373 73.3009 37.301 72.7609C38.185 72.089 38.581 70.973 39.4289 70.249C40.2329 69.561 41.0769 69.733 41.5929 70.657C41.9129 71.233 42.2089 71.693 42.7208 72.1209C43.1368 72.4689 43.4008 72.8569 43.3488 73.4089C43.1768 75.3649 40.9649 74.8849 39.8649 75.6328H39.8609Z" fill="#EA9A98"/>
<g style="mix-blend-mode:multiply" opacity="0.4">
<path d="M43.3489 73.409C43.1769 75.3649 40.965 74.8849 39.865 75.6329C38.8811 76.3009 37.2211 77.6048 36.3091 78.3568C34.9972 79.4408 33.2252 80.4367 31.4653 79.8007C30.9653 79.6207 30.5373 79.2648 30.3733 78.7728C29.7613 79.0688 28.6454 78.8728 28.1694 78.4368C27.9294 78.2128 27.8134 77.9648 27.7934 77.7088C26.8375 77.5608 26.6815 76.6368 26.9695 75.8249C26.9575 75.8849 26.9574 75.9409 26.9654 76.0009C26.9694 76.0209 26.9814 76.0369 26.9894 76.0449C27.0574 76.2609 27.2854 76.3448 27.6054 76.2888C28.0334 76.2088 28.4454 75.9169 28.8494 75.7649C29.4334 75.5449 30.0814 75.5849 30.6933 75.6169C30.7973 75.6209 30.9013 75.6289 31.0053 75.6329C31.0853 75.6409 31.1653 75.6489 31.2453 75.6569C31.4573 75.6729 31.6733 75.6769 31.8853 75.6649C32.0653 75.6689 32.2413 75.6649 32.4173 75.6569C32.9493 75.6249 33.4612 75.4689 33.9812 75.3609C34.5532 75.2409 35.0892 75.0889 35.6172 74.9049C35.0932 75.3889 34.5492 75.5929 33.7772 75.8089C32.7493 76.0969 31.3813 76.1128 30.3213 76.0889C29.6294 76.0729 28.2014 76.2329 28.2494 77.0968C28.1974 77.2128 28.1974 77.3368 28.2774 77.4528C28.8774 78.3328 30.0573 77.5648 30.7133 77.2088C31.3933 76.8408 32.0773 76.6449 32.8413 76.5569C33.4852 76.4849 34.1372 76.4608 34.7652 76.2928C35.3252 76.1449 35.8651 75.8889 36.3731 75.5849C36.1171 75.9129 35.8172 76.1969 35.4572 76.4289C34.8492 76.8208 34.1692 76.8248 33.4732 76.8288C32.6732 76.8368 31.9213 76.9128 31.2213 77.3328C30.7533 77.6168 30.7013 78.0288 31.1453 78.3568C31.8613 78.8888 32.9053 78.6048 33.6452 78.2888C34.5652 77.8968 35.4772 77.4128 36.2412 76.7688C36.6771 76.4008 37.0771 75.9929 37.5211 75.6289C38.0451 75.1969 38.6371 74.9449 39.273 74.7249C40.137 74.4249 41.141 74.1369 41.701 73.3489C41.845 73.149 42.057 72.809 41.913 72.553C41.665 72.117 41.105 72.237 40.841 71.821C40.813 71.777 40.757 71.757 40.709 71.785C40.557 71.877 40.437 71.993 40.309 72.121C40.065 72.373 39.801 72.489 39.4691 72.589C39.0251 72.721 38.7131 72.817 38.3211 73.073C38.0371 73.2569 37.7331 73.353 37.3971 73.361C37.2131 73.365 36.9811 73.289 36.8051 73.337C36.5211 73.413 36.3291 73.4849 36.0372 73.4209C36.4651 73.2249 36.8811 72.997 37.2931 72.757C38.1771 72.085 38.5731 70.969 39.4211 70.245C40.225 69.5571 41.069 69.7291 41.585 70.653C41.905 71.229 42.201 71.689 42.7129 72.117C43.1289 72.465 43.3929 72.853 43.3409 73.405L43.3489 73.409Z" fill="#C94C57"/>
</g>
<g style="mix-blend-mode:multiply" opacity="0.4">
<path d="M27.5012 73.749C27.4732 73.789 27.4412 73.833 27.4212 73.873C27.0972 74.4889 28.1131 74.3809 28.3811 74.3209C28.9891 74.1849 29.6411 74.4169 30.2251 74.5729C30.7931 74.7289 31.3451 74.8129 31.937 74.8289C32.153 74.8369 32.369 74.8289 32.585 74.8129C33.061 74.8169 33.533 74.7169 34.013 74.6529C34.341 74.6049 34.6649 74.5569 34.9849 74.4889C33.345 75.4649 31.2731 75.8289 29.5131 75.0249C28.9651 74.7769 28.3051 74.457 27.7572 74.8609C27.5772 74.9929 27.2932 75.2369 27.1212 75.5009C27.1492 75.4529 27.1732 75.4049 27.2012 75.3609C26.5732 74.8209 26.9572 74.1569 27.5092 73.749H27.5012Z" fill="#C94C57"/>
</g>
<path d="M22.6734 41.642C22.6254 41.886 22.5574 42.142 22.4334 42.354C22.4774 42.378 22.4974 42.446 22.4454 42.482C21.8535 42.8419 21.4015 43.2019 20.9295 43.7099C20.5615 44.1059 20.1695 44.4259 19.6975 44.6859C19.2175 44.9459 18.4736 45.1019 18.2576 45.6698C18.0536 46.2098 17.9656 46.8218 17.6776 47.3298C17.3976 47.8218 16.5376 48.9377 15.8656 48.3018C15.1897 47.6658 15.7296 46.5658 16.1056 45.9178C16.3696 45.4619 17.0056 44.8059 16.9496 44.2579C16.9056 43.8339 16.1216 44.1299 15.8936 44.2139C15.1857 44.4739 14.6017 44.8819 13.9377 45.2179C13.3657 45.5098 12.2817 45.9738 11.7738 45.2979C11.3178 44.6899 11.7098 44.1219 12.2737 43.7539C12.8297 43.3939 13.4417 43.1899 14.0617 42.9699C14.4417 42.8339 14.8497 42.698 15.1937 42.486C15.2337 42.462 15.5737 42.262 15.4697 42.194C15.1977 42.014 14.8177 42.062 14.5137 42.11C13.4777 42.27 12.4657 42.594 11.4298 42.238C10.9978 42.09 10.6938 41.834 10.6938 41.522C10.6818 41.518 10.6738 41.506 10.6778 41.49C10.6858 41.474 10.6938 41.458 10.6978 41.442C10.7178 41.318 10.7898 41.186 10.9178 41.046C11.0658 40.818 11.2458 40.606 11.4818 40.506C11.9978 40.278 12.5377 40.446 13.0737 40.494C13.7817 40.558 14.5177 40.678 15.2217 40.534C15.8776 40.398 16.3896 40.01 16.9936 39.754H16.9976C16.8496 39.4421 16.6696 39.1621 16.4696 38.8781C16.2056 38.5101 15.8976 38.1061 15.8576 37.6381C15.8216 37.2341 16.0776 35.5942 16.8416 36.0342C17.1976 36.2382 17.3456 36.6541 17.4576 37.0261C17.6656 37.7221 17.9296 38.3301 18.4255 38.8701C18.9055 39.39 19.3895 40.326 20.1135 40.49C20.8855 40.666 21.5414 40.41 22.2974 40.378C22.3334 40.378 22.3574 40.394 22.3774 40.414C22.8174 40.63 22.7534 41.23 22.6734 41.65V41.642Z" fill="#EA9A98"/>
<g style="mix-blend-mode:multiply" opacity="0.4">
<path fill-rule="evenodd" clip-rule="evenodd" d="M22.6736 41.642C22.6256 41.886 22.5576 42.142 22.4336 42.354C22.4776 42.378 22.4976 42.446 22.4456 42.482C21.8536 42.842 21.4016 43.202 20.9296 43.7099C20.5616 44.1059 20.1696 44.4259 19.6977 44.6859C19.2177 44.9459 18.4737 45.1019 18.2577 45.6699C18.0537 46.2098 17.9657 46.8218 17.6777 47.3298C17.3977 47.8218 16.5378 48.9378 15.8658 48.3018C15.6378 48.0858 15.5498 47.8218 15.5458 47.5418C15.6218 47.7618 15.7658 47.9418 16.0098 47.9378C16.6458 47.9178 17.0138 47.1058 17.2218 46.6058C17.3897 46.2018 17.7817 45.3299 17.4697 44.9059C17.2858 44.6539 16.9698 44.8219 16.6698 45.0939C16.8458 44.8139 16.9777 44.5259 16.9537 44.2619C16.9097 43.8379 16.1258 44.1339 15.8978 44.2179C15.1898 44.4779 14.6058 44.8859 13.9419 45.2219C13.3699 45.5139 12.2859 45.9779 11.7779 45.3019C11.5219 44.9579 11.5339 44.6259 11.6979 44.3379C11.6339 44.5419 11.6339 44.7539 11.7379 44.9459C11.9819 45.3939 12.7739 44.9779 13.0779 44.8539C13.9818 44.4819 15.8458 44.0099 15.9458 42.814C15.9498 42.774 15.9138 42.73 15.8738 42.722C15.5018 42.65 15.1258 42.654 14.7578 42.714C14.9098 42.65 15.0618 42.578 15.1978 42.49C15.2378 42.466 15.5778 42.266 15.4738 42.198C15.2018 42.018 14.8218 42.066 14.5178 42.114C13.4819 42.274 12.4699 42.598 11.4339 42.242C11.0019 42.094 10.6979 41.838 10.6979 41.526C10.6859 41.522 10.6779 41.51 10.6819 41.494C10.6899 41.478 10.6979 41.462 10.7019 41.446C10.7219 41.326 10.79 41.194 10.9139 41.058C10.9179 41.246 11.0219 41.43 11.2779 41.574C11.6259 41.774 12.1139 41.75 12.4979 41.746C13.1339 41.742 13.7539 41.714 14.3818 41.586C14.7338 41.514 15.9498 41.27 15.3858 40.666C15.3378 40.614 15.2858 40.574 15.2258 40.534C15.8778 40.398 16.3898 40.01 16.9977 39.7541H17.0017C16.8537 39.4421 16.6737 39.1621 16.4738 38.8781C16.4378 38.8301 16.4058 38.7821 16.3698 38.7341C16.8018 39.0581 17.5897 39.2901 17.3497 38.4901C17.2537 38.1661 17.0177 37.8661 16.9777 37.5261C16.9377 37.1701 16.9418 36.8102 16.8938 36.4582C16.8738 36.3062 16.8377 36.1422 16.7778 35.9982C16.8017 36.0062 16.8257 36.0182 16.8497 36.0342C17.2057 36.2382 17.3537 36.6542 17.4657 37.0261C17.6737 37.7221 17.9377 38.3301 18.4337 38.8701C18.9137 39.3901 19.3977 40.326 20.1217 40.49C20.8936 40.666 21.5496 40.41 22.3056 40.378C22.3416 40.378 22.3656 40.394 22.3856 40.414C22.8256 40.63 22.7616 41.23 22.6816 41.65L22.6736 41.642ZM19.3977 42.734C19.0257 42.586 19.5697 41.962 19.6017 41.714C19.6497 41.346 19.5537 41.018 19.3777 40.698C19.1297 40.234 18.3657 39.6261 17.8257 39.974C17.6737 40.07 17.6337 40.294 17.6137 40.454C17.5937 40.618 17.5777 40.782 17.5417 40.946C17.4137 41.514 17.0298 41.042 16.8658 40.842C16.5498 40.446 16.4138 40.686 16.3738 41.002C16.2458 41.57 16.4258 42.206 16.6258 42.726C16.8537 43.3219 17.2378 44.0139 17.8457 44.2859C18.3777 44.5259 19.2097 44.2619 19.6377 43.9099C20.1937 43.4539 20.0296 42.986 19.4017 42.734H19.3977Z" fill="#C94C57"/>
</g>
<g style="mix-blend-mode:multiply" opacity="0.6">
<path d="M14.9736 40.57C15.0576 40.558 15.1416 40.546 15.2216 40.53C15.8776 40.394 16.3896 40.006 16.9936 39.75H16.9976C16.8496 39.4381 16.6696 39.1581 16.4696 38.8741C16.2056 38.5061 15.8976 38.1021 15.8576 37.6341C15.8416 37.4461 15.8896 36.9781 16.0256 36.5822C15.6176 38.2861 16.7416 38.4861 17.1416 39.4461C17.3416 39.93 17.3416 40.498 17.2856 41.01C17.2816 41.042 17.2336 41.038 17.2296 41.006C17.1936 40.666 17.1936 40.334 17.1016 40.01C17.0976 40.01 17.0936 40.018 17.0896 40.018C16.8896 40.102 16.6976 40.206 16.5096 40.31C16.2256 41.414 16.5216 42.538 17.0656 43.5019C17.2256 43.7899 17.0336 43.5499 17.0216 43.5219C16.6656 42.9099 16.3736 42.274 16.2296 41.578C16.1656 41.282 16.0776 40.818 16.1816 40.474C15.9096 40.482 15.7016 40.578 15.4736 40.582C15.1816 40.586 15.0776 40.598 14.9776 40.558L14.9736 40.57Z" fill="#C94C57"/>
</g>
<g style="mix-blend-mode:multiply" opacity="0.6">
<path d="M14.5098 42.106C13.4738 42.266 12.4618 42.59 11.4259 42.234C10.9939 42.086 10.6899 41.83 10.6899 41.518C10.6779 41.514 10.6699 41.502 10.6739 41.486C10.6819 41.47 10.6899 41.454 10.6939 41.438C10.7139 41.314 10.7859 41.182 10.9139 41.042C10.9619 40.97 11.0099 40.902 11.0619 40.838C10.9619 41.002 10.8899 41.19 10.9019 41.346C10.7539 41.894 11.7779 42.094 12.2659 42.134C13.1618 42.21 14.0098 41.79 14.8938 41.802C15.1738 41.806 15.8297 41.862 15.7457 42.2939C15.7337 42.3499 15.7097 42.3979 15.6737 42.4459C15.3657 42.8659 14.4698 42.8339 14.0218 42.9779C14.0298 42.9739 14.0418 42.9699 14.0498 42.9699C14.4298 42.8339 14.8378 42.698 15.1818 42.486C15.2218 42.462 15.5617 42.2619 15.4577 42.194C15.1858 42.014 14.8058 42.062 14.5018 42.11L14.5098 42.106Z" fill="#C94C57"/>
</g>
<g style="mix-blend-mode:multiply" opacity="0.6">
<path d="M15.8896 44.2139C15.1816 44.4739 14.5976 44.8818 13.9337 45.2178C13.3617 45.5098 12.2777 45.9738 11.7697 45.2978C11.6417 45.1218 11.5817 44.9538 11.5737 44.7898C11.7617 45.2178 12.1577 45.5018 12.6657 45.4498C13.0057 45.4138 13.3297 45.2618 13.6337 45.0698C14.0777 44.8578 14.5017 44.5858 14.9456 44.3699C15.4456 44.1299 16.3096 43.6379 16.8856 43.8499C17.7335 44.1619 16.2576 45.7658 16.0016 46.0978C16.0376 46.0338 16.0696 45.9738 16.1016 45.9178C16.3656 45.4618 17.0016 44.8059 16.9456 44.2579C16.9016 43.8339 16.1176 44.1299 15.8896 44.2139Z" fill="#C94C57"/>
</g>
<g style="mix-blend-mode:multiply" opacity="0.6">
<path d="M22.6735 41.642C22.6255 41.8859 22.5576 42.142 22.4336 42.3539C22.4776 42.3779 22.4976 42.4459 22.4456 42.4819C21.8536 42.8419 21.4016 43.2019 20.9296 43.7099C20.5616 44.1059 20.1696 44.4259 19.6976 44.6859C19.2176 44.9459 18.4737 45.1018 18.2577 45.6698C18.0537 46.2098 17.9657 46.8218 17.6777 47.3298C17.3977 47.8218 16.5378 48.9377 15.8658 48.3018C15.6178 48.0658 15.5338 47.7698 15.5458 47.4538C15.5898 47.7098 15.7098 47.9458 15.9258 48.1258C16.3337 48.4657 16.7897 48.0138 17.0817 47.7458C17.1097 47.7178 17.1177 47.6858 17.1057 47.6578C17.2937 47.4498 17.4457 47.2298 17.5057 47.0778C17.7337 46.5418 17.7777 45.7578 18.1697 45.3059C18.4777 44.9459 18.8897 44.8139 19.3016 44.5979C20.0016 44.2379 20.4656 43.7539 21.0176 43.2099C21.2456 42.9899 21.4896 42.8059 21.7496 42.6539C22.0936 42.3179 22.2736 42.066 22.3735 41.586C22.4415 41.254 22.5216 40.85 22.2936 40.57C21.3936 40.838 19.9496 41.054 19.2697 40.25C18.8857 39.794 18.5657 39.29 18.1697 38.8341C17.7697 38.3781 17.5337 37.8741 17.3257 37.3101C17.2417 37.0781 17.1817 36.8261 17.0737 36.6061C17.0657 36.5901 17.0577 36.5701 17.0457 36.5501C16.9657 36.3141 16.8457 36.0942 16.6817 35.9622C16.7297 35.9742 16.7817 35.9901 16.8337 36.0221C17.1897 36.2261 17.3377 36.6421 17.4497 37.0141C17.6577 37.7101 17.9217 38.3181 18.4177 38.8581C18.8977 39.378 19.3816 40.314 20.1056 40.478C20.8776 40.654 21.5336 40.398 22.2896 40.366C22.3256 40.366 22.3496 40.382 22.3696 40.402C22.8096 40.618 22.7456 41.218 22.6656 41.638L22.6735 41.642Z" fill="#C94C57"/>
</g>
<path d="M14.5379 40.746C13.47 41.022 12.09 40.238 11.178 41.014C11.158 41.03 11.1301 41.002 11.142 40.982C11.394 40.534 11.882 40.422 12.366 40.45C12.702 40.47 13.022 40.538 13.35 40.594C13.742 40.662 14.1379 40.65 14.5339 40.686C14.5659 40.69 14.5699 40.738 14.5379 40.746Z" fill="#FFC7C7"/>
<path d="M15.3818 42.8299C14.2538 43.5459 12.4979 43.4899 11.9179 44.9019C11.9019 44.9379 11.8459 44.9259 11.8419 44.8899C11.8059 44.2019 12.4939 43.7379 13.0539 43.4939C13.7739 43.1819 14.5978 43.0019 15.3618 42.7939C15.3858 42.7859 15.4058 42.8179 15.3818 42.8339V42.8299Z" fill="#FFC7C7"/>
<path d="M17.0218 45.0139C16.6458 45.9019 15.8019 46.6938 15.8699 47.7218C15.8739 47.7698 15.8138 47.7738 15.7978 47.7378C15.2899 46.7538 16.5258 45.7299 16.9818 44.9979C16.9978 44.9779 17.0298 44.9899 17.0178 45.0139H17.0218Z" fill="#FFC7C7"/>
<path d="M17.1936 43.5299C16.8696 43.098 16.6376 42.594 16.5376 42.062C16.4616 41.666 16.3656 41.198 16.6976 40.898C16.7336 40.862 16.7816 40.918 16.7656 40.954C16.6296 41.306 16.7016 41.834 16.7696 42.202C16.8536 42.674 16.9896 43.09 17.2256 43.5099C17.2376 43.5339 17.2056 43.5539 17.1896 43.5339L17.1936 43.5299Z" fill="#FFC7C7"/>
<path d="M18.8256 40.482C18.6216 40.394 18.3736 40.206 18.1376 40.302C17.9016 40.398 17.8936 40.666 17.8376 40.878C17.7816 41.098 17.7096 41.406 17.4216 41.37C17.4136 41.37 17.4096 41.354 17.4216 41.35C17.6776 41.286 17.6696 40.886 17.6976 40.678C17.7216 40.486 17.7656 40.31 17.9096 40.174C18.1976 39.902 18.6816 40.154 18.8736 40.422C18.8976 40.454 18.8576 40.498 18.8216 40.482H18.8256Z" fill="#FFC7C7"/>
<path d="M16.5818 36.2062C16.4178 36.5621 16.1978 36.8301 16.2058 37.2501C16.2138 37.6221 16.2538 37.9581 16.4538 38.2781C16.4658 38.2981 16.4418 38.3221 16.4218 38.3061C16.1018 38.0101 15.9298 37.5701 15.9618 37.1341C15.9858 36.7701 16.1098 36.2501 16.5018 36.1221C16.5538 36.1061 16.6018 36.1542 16.5818 36.2062Z" fill="#FFC7C7"/>
<path d="M16.2577 40.146C16.6137 42.4979 16.3977 44.9418 15.6657 47.2058C14.0538 52.1896 9.58588 57.1654 13.8497 62.2533C15.4297 64.1372 17.6136 65.3932 20.1136 65.4372C21.4215 65.4612 22.6695 65.2372 23.9054 64.9372C25.1214 64.6412 26.3254 64.2452 27.5773 64.1492C26.9253 64.9212 26.4774 66.0331 25.5454 66.5651C24.5254 67.1491 23.1815 67.5451 22.0375 67.7811C19.6496 68.2771 16.9536 68.1331 14.7257 67.0851C10.7178 65.1972 8.26594 60.9013 9.20991 56.5135C9.65389 54.4575 10.6099 52.5256 11.6658 50.7176C12.7378 48.8777 13.5978 46.9618 14.0777 44.8938C15.3857 41.042 14.3457 36.2981 11.4978 33.4382C9.90587 31.8423 7.61795 30.8343 5.35402 30.9383C3.0301 31.0423 1.19017 32.5862 0.446197 34.7342C0.246204 35.3102 0.090201 35.9581 0.0382027 36.6061C-0.125792 34.4262 0.174195 32.3022 2.21013 30.9983C4.33806 29.6343 6.92599 29.4383 9.24592 30.4063C13.0658 32.0023 15.6457 36.1501 16.2537 40.138L16.2577 40.146Z" fill="#A55856"/>
<path d="M13.1898 33.7502C16.0177 37.4901 16.5056 42.4419 14.9137 46.7978C13.3777 50.9976 10.5738 55.2055 11.0898 58.5454C11.4818 61.0773 13.1017 63.5292 15.4297 64.5692C17.8656 65.6532 20.0735 65.8532 22.6494 65.3572C22.9054 65.3052 22.7454 66.0492 22.5094 66.1812C22.1175 66.3972 21.7215 66.4852 21.2895 66.6132C17.0096 67.8891 11.5658 65.7132 9.88585 61.5173C8.17391 57.2454 10.5658 53.1816 12.5258 49.4537C14.9097 44.9178 15.9817 39.674 13.0858 35.0981C11.8098 33.0822 9.86185 31.0623 7.38193 30.6823C4.89401 30.3023 1.8181 31.0143 0.598138 33.4262C0.574139 33.4742 0.498157 33.4382 0.514156 33.3902C0.810147 32.5102 1.34613 31.8583 2.0861 31.3063C3.63005 30.1623 5.56198 29.6303 7.40192 29.9863C9.54586 30.4023 11.8858 32.0383 13.1898 33.7622V33.7502Z" fill="#EA9A98"/>
<g opacity="0.7">
<g style="mix-blend-mode:multiply" opacity="0.7">
<path d="M7.75778 29.9623C7.47779 30.2943 7.42579 30.7223 7.52578 31.1463C7.52178 31.1543 7.51779 31.1623 7.5138 31.1703C7.2378 31.1023 6.96181 31.0503 6.68181 31.0103C6.63382 30.9423 6.58981 30.8743 6.54981 30.8023C6.32182 30.3863 6.66582 30.0583 7.01381 29.8503C7.2618 29.8743 7.51379 29.9104 7.75778 29.9623Z" fill="#C94C57"/>
</g>
<g style="mix-blend-mode:multiply" opacity="0.7">
<path d="M3.27407 31.4743C3.12607 31.5463 2.9821 31.6263 2.8461 31.7103C2.62611 31.4943 2.46211 31.2103 2.37012 30.9143C2.60211 30.7743 2.83809 30.6423 3.07808 30.5303C3.07808 30.8143 3.13408 31.0943 3.23408 31.3783C3.24608 31.4103 3.25807 31.4423 3.27407 31.4743Z" fill="#C94C57"/>
</g>
<g style="mix-blend-mode:multiply" opacity="0.7">
<path d="M11.4978 33.4422C11.3818 33.3222 11.2578 33.2103 11.1338 33.0983C11.1898 32.7383 11.3658 32.4143 11.7778 32.1783C11.8298 32.1503 11.8818 32.1223 11.9338 32.1023C12.2138 32.3463 12.4817 32.6023 12.7377 32.8743C12.2738 33.0463 12.0218 33.4143 11.9098 33.8822C11.7778 33.7302 11.6418 33.5823 11.4978 33.4383V33.4422Z" fill="#C94C57"/>
</g>
<g style="mix-blend-mode:multiply" opacity="0.7">
<path d="M14.1297 44.7259C14.2057 44.4779 14.2737 44.2299 14.3337 43.9779C14.9657 43.4539 15.6057 43.2219 16.3417 43.9339C16.3017 44.3499 16.2377 44.7619 16.1657 45.1739C15.8017 44.7699 15.2657 44.5299 14.7137 44.5779C14.4937 44.5939 14.2977 44.6499 14.1257 44.7259H14.1297Z" fill="#C94C57"/>
</g>
<g style="mix-blend-mode:multiply" opacity="0.7">
<path d="M11.7817 50.5097C11.9097 50.2857 12.0377 50.0617 12.1577 49.8337C12.5617 49.7577 12.9617 49.6417 13.3737 49.8937C13.7577 50.1257 13.9817 50.5337 14.0817 50.9897C13.9657 51.2377 13.8537 51.4857 13.7417 51.7337C13.6697 51.5377 13.5777 51.3417 13.4537 51.1577C13.1457 50.6977 12.3857 50.3857 11.8417 50.4937C11.8217 50.4977 11.8057 50.5057 11.7857 50.5097H11.7817Z" fill="#C94C57"/>
</g>
<g style="mix-blend-mode:multiply" opacity="0.7">
<path d="M9.29792 56.1735C9.39792 55.7655 9.50994 55.3615 9.64594 54.9655C9.94193 54.7615 10.2659 54.6056 10.5979 54.6096C11.1059 54.6176 11.5819 55.0176 11.9459 55.3295C12.0539 55.4215 12.1738 55.5375 12.2898 55.6655C12.2178 55.9935 12.1579 56.3255 12.1179 56.6575C11.7899 56.2855 11.3819 56.0015 10.9019 55.8695C10.2899 55.7015 9.74593 55.8495 9.29395 56.1735H9.29792Z" fill="#C94C57"/>
</g>
<g style="mix-blend-mode:multiply" opacity="0.7">
<path d="M16.1897 67.6291C15.8457 67.5291 15.5057 67.4171 15.1737 67.2811C14.9297 66.8892 14.8337 66.4532 15.0377 65.9452C15.4017 65.0332 16.2817 64.8892 17.1576 64.7772C17.2816 64.8332 17.4096 64.8852 17.5376 64.9332C16.8217 65.3212 16.2097 65.8892 16.0737 66.7132C16.0217 67.0332 16.0737 67.3371 16.1937 67.6251L16.1897 67.6291Z" fill="#C94C57"/>
</g>
<g style="mix-blend-mode:multiply" opacity="0.7">
<path d="M22.0173 67.7852C21.5533 67.8812 21.0733 67.9532 20.5893 67.9972C20.0934 67.4612 19.8054 66.8012 20.0734 66.0452C20.1493 65.8292 20.2613 65.6252 20.4013 65.4332C20.8373 65.4292 21.2653 65.3972 21.6893 65.3492C21.6293 65.4412 21.5733 65.5332 21.5293 65.6332C21.1533 66.4812 21.4533 67.2092 22.0173 67.7812V67.7852Z" fill="#C94C57"/>
</g>
<g style="mix-blend-mode:multiply" opacity="0.7">
<path d="M11.8177 65.0292C11.5898 64.7972 11.3698 64.5572 11.1658 64.3092C10.8978 63.3452 11.0898 62.3173 12.2457 62.0493C12.7537 61.9333 13.3017 62.0213 13.8257 62.2253C13.8337 62.2373 13.8457 62.2493 13.8537 62.2613C14.0217 62.4613 14.1977 62.6533 14.3776 62.8372C13.5137 62.7573 12.6897 62.9572 12.1577 63.7692C11.8937 64.1732 11.7937 64.6012 11.8177 65.0332V65.0292Z" fill="#C94C57"/>
</g>
<g style="mix-blend-mode:multiply" opacity="0.7">
<path d="M14.5257 39.834C14.4977 39.626 14.4657 39.418 14.4297 39.21C14.7297 38.83 15.2017 38.646 15.7576 38.782C15.8416 38.802 15.9177 38.83 15.9937 38.858C16.0776 39.194 16.1496 39.53 16.2096 39.866C15.8016 39.618 15.3217 39.51 14.8497 39.678C14.7337 39.718 14.6297 39.77 14.5297 39.83L14.5257 39.834Z" fill="#C94C57"/>
</g>
</g>
<g style="mix-blend-mode:screen" opacity="0.6">
<path d="M13.6098 48.1938C12.9698 49.9817 11.9378 51.6016 11.2619 53.3736C10.5339 55.2895 10.0979 57.4015 10.4219 59.4534C11.0859 63.6653 14.9257 65.8052 18.9056 66.1652C18.9336 66.1692 18.9336 66.2092 18.9056 66.2132C15.0697 66.2692 10.7699 64.2693 10.0139 60.1614C9.19793 55.7335 11.5339 51.9256 13.4338 48.1178C13.4818 48.0218 13.6418 48.0938 13.6058 48.1938H13.6098Z" fill="#FFC7C7"/>
</g>
<g style="mix-blend-mode:screen" opacity="0.6">
<path d="M14.8178 37.5461C15.4818 39.734 15.3378 41.7739 15.1258 44.0179C15.1218 44.0459 15.0778 44.0459 15.0818 44.0179C15.5698 39.814 14.6258 35.8501 11.6459 32.7422C9.106 30.0903 5.58212 29.6464 2.34622 31.3143C2.32622 31.3223 2.30222 31.2943 2.32222 31.2823C4.93414 29.3584 9.05399 29.7623 11.3299 32.0663C12.8579 33.6182 14.1778 35.4421 14.8178 37.5461Z" fill="#FFC7C7"/>
</g>
<g style="mix-blend-mode:screen" opacity="0.6">
<path d="M15.0098 44.3979C14.9818 44.6619 14.9138 44.9458 14.8138 45.1898C14.8018 45.2138 14.7658 45.2059 14.7698 45.1779C14.8138 44.9139 14.9378 44.6659 14.9778 44.3979C14.9818 44.3779 15.0138 44.3779 15.0098 44.3979Z" fill="#FFC7C7"/>
</g>
<path d="M72.1037 50.8257C71.4557 52.3896 70.6198 53.7456 69.7638 55.1736C69.0278 56.3935 68.2679 57.5975 67.5199 58.8094C67.0199 59.6254 66.5199 60.4374 66.0399 61.2614C65.7559 61.7414 65.4239 62.1933 65.112 62.6573C64.984 62.9333 64.856 63.2093 64.716 63.4773C64.384 64.1173 64.06 64.7572 63.784 65.4212C63.552 65.9772 63.288 66.6772 63.748 67.1852C63.78 67.2212 63.728 67.2852 63.684 67.2612C63.616 67.2212 63.556 67.1772 63.504 67.1292C63.5 67.1292 63.496 67.1332 63.492 67.1332C63.008 67.1412 62.648 66.6412 62.436 66.2612C62.3 66.0212 62.224 65.7572 62.2 65.4892C61.6721 66.0052 61.1001 66.5772 60.9961 67.2732C60.9881 67.3252 60.9121 67.3212 60.9081 67.2692C60.9041 67.2252 60.9041 67.1852 60.9041 67.1412C60.9001 67.1372 60.8961 67.1292 60.8921 67.1252C60.7641 66.4692 60.5401 65.9052 60.5361 65.3052C60.4241 65.4572 60.3041 65.6052 60.1801 65.7292C59.9361 65.9892 59.6681 66.2412 59.3721 66.4372C59.0081 66.6812 58.5762 66.8412 58.4202 67.2812C58.4082 67.3172 58.3482 67.3052 58.3482 67.2692C58.3522 67.0852 58.4122 66.9332 58.5082 66.7932C59.0121 65.3212 59.2441 63.8093 59.5561 62.2893C59.7041 61.5813 59.7801 60.8374 59.9041 60.1054C58.3882 60.5614 57.0162 61.4934 55.7242 62.3813C54.0723 63.5133 52.2764 64.4493 50.3884 65.1212C48.4725 65.8052 46.2926 66.4412 44.2406 66.3732C43.6886 66.3572 43.1487 66.2972 42.6047 66.2212C42.3767 66.7732 42.1727 67.3372 42.0327 67.9171C41.7647 69.0611 41.5407 70.997 42.7647 71.717C42.7967 71.733 42.7847 71.793 42.7447 71.781C42.6447 71.753 42.5567 71.713 42.4727 71.665C42.4687 71.677 42.4607 71.685 42.4487 71.689C42.0367 71.825 41.4687 71.545 41.1647 71.281C41.0287 71.165 40.9207 71.033 40.8367 70.893C40.7847 71.029 40.7087 71.1571 40.6287 71.261C40.4487 71.481 40.2487 71.637 40.0048 71.777C39.7408 71.929 39.4688 71.985 39.2488 72.213C39.2168 72.245 39.1688 72.213 39.1808 72.169C39.1968 72.117 39.2208 72.069 39.2448 72.025C39.2648 71.853 39.2928 71.685 39.3168 71.513C39.1608 71.829 38.9368 72.113 38.6888 72.329C38.3608 72.617 37.9968 72.813 37.5728 72.913C37.1608 73.013 36.7489 72.885 36.3489 73.061C36.3209 73.073 36.3009 73.033 36.3249 73.013C36.3249 73.009 36.3289 73.009 36.3329 73.009C36.3329 73.001 36.3369 72.989 36.3449 72.985C37.1449 72.429 37.4928 71.673 37.4008 70.7011C37.3648 70.3251 37.2968 69.9011 37.0808 69.5811C37.0448 69.5291 37.0049 69.4851 36.9649 69.4451C35.7249 70.2011 34.4449 70.5971 33.005 70.7851C31.589 70.9691 30.1411 71.345 28.7091 71.233C27.5052 71.141 26.3252 70.689 25.3692 69.9411C24.5573 69.3051 23.8853 68.4691 23.5293 67.4972C23.1133 66.3612 23.1093 65.1572 23.2093 63.9693C23.4413 61.1934 24.1733 58.3575 25.2812 55.8015C26.3252 53.3896 27.7411 50.9297 29.5571 49.0058C29.8491 48.0618 30.2291 47.1538 30.6851 46.2778C31.209 45.2699 31.669 44.2339 32.209 43.2339C32.373 42.93 32.545 42.6379 32.725 42.346C32.057 42.338 31.381 42.242 30.7571 42.174C29.4371 42.022 28.1291 42.038 26.8052 42.178C25.5812 42.306 24.2213 42.362 23.0453 42.75C22.2813 43.0019 21.0494 43.5259 20.7574 44.3499C20.7534 44.3579 20.7454 44.3619 20.7414 44.3619C20.7374 44.3659 20.7374 44.3699 20.7334 44.3739C20.7214 44.3979 20.6894 44.3859 20.6934 44.3619C20.7854 43.6899 20.9654 42.9619 21.3293 42.366C21.2894 42.362 21.2454 42.358 21.2054 42.35C20.6974 42.278 20.2054 42.338 19.6934 42.378C19.6614 42.382 19.6454 42.342 19.6614 42.322C19.6614 42.314 19.6614 42.306 19.6694 42.302C19.8534 42.106 19.9494 41.846 20.1094 41.634C20.3054 41.378 20.5094 41.138 20.7454 40.914C20.8374 40.83 20.9334 40.746 21.0374 40.67C20.7094 40.678 20.3694 40.618 20.1494 40.558C19.7174 40.434 19.1774 40.198 19.1774 39.6821C19.1734 39.6501 19.1694 39.6221 19.1694 39.5861C19.1694 39.5501 19.2214 39.5341 19.2334 39.574C19.4854 40.298 20.8614 39.5341 21.2894 39.3061C22.2693 38.7901 23.2133 38.2181 24.1853 37.6861C25.3532 37.0461 26.5412 36.4501 27.8051 36.0222C28.7251 35.7102 29.6371 35.4022 30.5251 35.0262C31.709 34.3262 32.909 33.6582 34.037 32.8783C35.2489 32.0423 36.3929 31.1183 37.5088 30.1584C38.3408 29.4424 39.5168 28.3424 40.7367 28.5584C41.1287 28.6264 41.3927 28.8504 41.5767 29.1464C43.0687 27.6384 45.2846 27.0465 47.4085 27.0265C48.7365 27.0145 50.1524 27.1025 51.4444 27.4304C51.8844 27.5424 52.3084 27.6904 52.7243 27.8704C52.9043 27.7184 53.0963 27.5864 53.3003 27.4664C54.2243 26.9424 55.2243 26.8905 56.2602 27.0545C56.6042 27.1105 56.9442 27.1785 57.2842 27.2544C58.1322 27.2504 58.9841 27.3424 59.8321 27.3744C60.9001 27.4144 61.9601 27.3905 63.02 27.2105C64.04 27.0345 65.044 26.7585 65.9879 26.3265C66.3439 26.1625 66.7639 25.9905 67.1559 25.7785C67.4999 25.4905 67.9879 25.2705 67.9999 24.7825C68.2318 24.9465 68.3118 25.4585 68.3238 25.6265C68.3518 26.0065 68.2078 26.4185 68.0478 26.7585C68.1278 26.5905 68.7558 26.6105 68.9038 26.6385C69.0598 26.6665 69.3878 26.9345 69.5478 26.8545C69.1478 27.0545 68.8438 27.3784 68.5398 27.7064C69.0478 27.7144 69.5838 27.8344 69.9518 28.2064C70.0438 28.3024 70.2318 28.7304 70.3238 28.7584C70.2998 28.7504 70.2718 28.7424 70.2478 28.7304C69.3598 28.9304 68.5158 29.1344 67.6799 29.5104C66.7999 29.9064 65.9279 30.3223 65.088 30.7903C63.508 31.6623 62.0001 32.6783 60.6841 33.9222C59.3961 35.1382 58.2842 36.5262 57.4722 38.1061C57.0282 38.9781 56.7122 39.866 56.4642 40.782C57.1122 42.286 57.7082 43.8099 58.1522 45.3899C58.1962 45.5419 58.2322 45.6979 58.2722 45.8498C58.9441 45.5059 59.6281 45.1899 60.3481 44.9659C61.6081 44.5739 62.904 44.5299 64.216 44.5899C65.5879 44.6539 66.9719 44.6939 68.3359 44.8619C69.3278 44.9819 70.4438 45.0939 71.3678 45.5019C73.4597 46.4178 72.7797 49.1657 72.0957 50.8217L72.1037 50.8257Z" fill="#C49257"/>
<g style="mix-blend-mode:multiply" opacity="0.5">
<path d="M39.325 28.8344C39.7809 28.6104 40.2609 28.4824 40.7449 28.5704C41.1369 28.6384 41.4009 28.8664 41.5849 29.1584C43.0768 27.6504 45.2928 27.0584 47.4167 27.0384C48.7447 27.0224 50.1606 27.1144 51.4526 27.4424C51.8926 27.5544 52.3165 27.7064 52.7325 27.8824C52.9125 27.7344 53.1045 27.5984 53.3085 27.4824C53.9005 27.1464 54.5245 27.0064 55.1645 26.9904C54.6405 27.2904 54.0925 27.5704 53.5325 27.8424C52.5565 28.3144 51.5846 28.7944 50.6846 29.4064C49.7566 30.0383 48.8967 30.7743 47.9407 31.3703C45.8808 32.6542 43.7128 31.6783 41.9209 30.4143C41.0849 29.8224 40.2409 29.2063 39.325 28.8424V28.8344Z" fill="#CE956F"/>
</g>
<g style="mix-blend-mode:multiply">
<path d="M41.781 28.9743C43.269 27.6024 45.3809 27.0584 47.4168 27.0384C48.7448 27.0224 50.1607 27.1144 51.4527 27.4424C51.7327 27.5144 52.0087 27.6024 52.2807 27.7024C51.1447 28.3824 49.6288 28.7303 48.8368 29.7503C48.3688 30.3583 47.8888 30.8903 47.1568 31.1743C46.4049 31.4663 45.4209 31.3863 44.7849 30.8783C44.3289 30.5183 43.9809 30.0583 43.457 29.7863C42.885 29.4903 42.265 29.3703 41.781 28.9743Z" fill="#CE956F"/>
</g>
<g style="mix-blend-mode:multiply">
<path d="M72.1078 50.8257C71.4598 52.3896 70.6239 53.7456 69.7639 55.1735C69.0279 56.3935 68.2679 57.5975 67.52 58.8094C67.02 59.6254 66.52 60.4374 66.04 61.2614C65.756 61.7413 65.424 62.1933 65.116 62.6573C64.988 62.9333 64.856 63.2093 64.716 63.4773C64.3881 64.1173 64.0601 64.7572 63.7841 65.4212C63.5521 65.9772 63.2881 66.6772 63.7481 67.1852C63.7841 67.2212 63.7281 67.2852 63.6841 67.2612C63.6161 67.2212 63.5561 67.1772 63.5041 67.1292C63.5001 67.1292 63.4961 67.1332 63.4921 67.1332C63.0081 67.1412 62.6481 66.6412 62.4361 66.2612C62.3041 66.0212 62.2241 65.7572 62.2001 65.4892C61.6721 66.0052 61.1001 66.5772 60.9961 67.2731C60.9881 67.3251 60.9122 67.3211 60.9082 67.2691C60.9042 67.2251 60.9042 67.1851 60.9042 67.1411C60.9002 67.1371 60.8962 67.1292 60.8922 67.1252C60.7642 66.4692 60.5442 65.9052 60.5362 65.3052C60.4242 65.4572 60.3042 65.6052 60.1802 65.7292C59.9362 65.9892 59.6722 66.2412 59.3722 66.4372C59.0082 66.6812 58.5722 66.8412 58.4203 67.2812C58.4083 67.3172 58.3482 67.3051 58.3482 67.2691C58.3522 67.0851 58.4122 66.9332 58.5082 66.7932C59.0122 65.3212 59.2442 63.8092 59.5562 62.2893C59.7042 61.5813 59.7802 60.8374 59.9042 60.1054C58.3882 60.5614 57.0123 61.4933 55.7243 62.3813C54.0724 63.5133 52.2764 64.4492 50.3885 65.1212C48.4726 65.8052 46.2926 66.4412 44.2407 66.3732C43.6887 66.3572 43.1487 66.2972 42.6047 66.2212C42.3768 66.7732 42.1728 67.3371 42.0328 67.9171C41.7648 69.0611 41.5408 70.997 42.7647 71.717C42.7967 71.733 42.7848 71.793 42.7448 71.781C42.6448 71.753 42.5567 71.713 42.4727 71.665C42.4687 71.677 42.4607 71.685 42.4487 71.689C42.0368 71.825 41.4728 71.545 41.1648 71.281C41.0288 71.165 40.9168 71.033 40.8368 70.893C40.7808 71.029 40.7088 71.157 40.6288 71.261C40.4488 71.481 40.2488 71.637 40.0048 71.777C39.7408 71.929 39.4688 71.985 39.2488 72.213C39.2168 72.245 39.1689 72.213 39.1849 72.169C39.2009 72.117 39.2208 72.069 39.2488 72.025C39.2688 71.853 39.2969 71.685 39.3209 71.513C39.1609 71.829 38.9409 72.113 38.6929 72.329C38.3649 72.617 38.0009 72.813 37.5769 72.913C37.1649 73.013 36.7529 72.885 36.3529 73.061C36.3249 73.073 36.3089 73.033 36.3289 73.013C36.3329 73.009 36.333 73.009 36.337 73.009C36.337 73.001 36.3409 72.989 36.3529 72.985C37.1529 72.429 37.5009 71.673 37.4049 70.701C37.3689 70.3251 37.3049 69.9011 37.0849 69.5811C37.0489 69.5291 37.0089 69.4851 36.9689 69.4451C35.729 70.201 34.449 70.5971 33.0131 70.785C31.5971 70.969 30.1491 71.345 28.7132 71.233C27.5092 71.141 26.3293 70.689 25.3733 69.9411C24.5613 69.3051 23.8893 68.4691 23.5334 67.4971C23.4774 67.3451 23.4294 67.1892 23.3894 67.0372C23.7774 67.5532 24.3053 67.9811 25.0173 68.2691C26.9853 69.0611 29.4772 68.3531 30.9211 66.8612C31.6491 66.1092 32.0731 65.1172 32.0611 64.0692C32.0491 63.0573 31.6131 62.1213 31.1131 61.2653C30.4331 60.1054 29.7332 59.0374 29.3292 57.7375C29.1172 57.0575 28.9852 56.3495 28.9012 55.6455C28.8292 55.0215 28.7972 54.3976 28.6012 53.7936C28.4412 53.2976 28.0492 52.6616 27.4452 52.9536C26.8013 53.2656 26.3693 53.9856 26.0093 54.5696C25.5173 55.3735 25.1293 56.2255 24.7933 57.1055C24.5933 57.6215 24.4133 58.1454 24.2373 58.6734C24.5333 57.6895 24.8853 56.7255 25.2853 55.8015C26.3293 53.3896 27.7492 50.9297 29.5612 49.0057C29.8532 48.0618 30.2331 47.1538 30.6891 46.2778C31.2131 45.2699 31.6731 44.2339 32.2171 43.2339C32.3811 42.9299 32.5531 42.6379 32.7331 42.3459C32.0651 42.3379 31.3891 42.242 30.7651 42.174C29.4412 42.022 28.1372 42.038 26.8133 42.178C25.5853 42.306 24.2253 42.3619 23.0534 42.7499C22.2894 43.0019 21.0574 43.5259 20.7655 44.3499C20.7615 44.3579 20.7534 44.3619 20.7494 44.3619C20.7454 44.3659 20.7455 44.3699 20.7415 44.3739C20.7295 44.3979 20.6974 44.3859 20.7014 44.3619C20.7934 43.6899 20.9734 42.9619 21.3374 42.3659C21.2934 42.3619 21.2534 42.3579 21.2134 42.3499C20.7015 42.278 20.2135 42.338 19.7015 42.378C19.6695 42.382 19.6535 42.3419 19.6695 42.3219C19.6695 42.3139 19.6695 42.306 19.6735 42.302C19.8575 42.106 19.9535 41.846 20.1175 41.634C20.3095 41.378 20.5174 41.138 20.7534 40.914C20.8454 40.83 20.9415 40.746 21.0454 40.67C20.7175 40.678 20.3775 40.618 20.1575 40.558C19.7255 40.434 19.1855 40.198 19.1855 39.682C19.1815 39.65 19.1775 39.622 19.1775 39.586C19.1775 39.55 19.2295 39.534 19.2415 39.574C19.4495 40.166 20.3975 39.766 20.9774 39.474C20.8094 39.698 20.7414 39.926 20.8854 40.122C21.1294 40.454 21.7694 40.302 22.0934 40.226C22.1934 40.206 22.2934 40.174 22.3934 40.142C22.0934 40.326 21.8254 40.542 21.6374 40.838C21.2214 41.49 22.4454 41.274 22.6934 41.258C25.1773 41.078 27.6012 40.67 29.9571 39.83C32.0291 39.0941 34.113 38.1021 35.753 36.6101C37.0609 35.4182 37.9529 33.7862 38.6649 32.1583C38.5249 32.7623 38.3369 33.3542 38.2569 33.9702C38.2449 34.0622 38.3689 34.0902 38.4209 34.0382C38.8769 33.6342 39.3528 33.2382 39.8768 32.9222C38.1369 35.0062 36.2689 36.9901 34.777 39.27C33.473 41.266 32.3171 43.4819 31.4451 45.7018C30.6451 47.7338 30.1852 49.9777 30.7651 52.1296C31.3651 54.3536 33.1491 56.1375 35.137 57.1935C37.1409 58.2574 39.4729 58.5654 41.7168 58.4534C43.9567 58.3454 46.2606 57.8175 48.2886 56.8535C52.3524 54.9215 55.0803 50.8217 55.5603 46.3818C55.8683 43.5299 54.8164 40.858 53.8324 38.2341C52.8964 35.7502 51.9445 33.0782 52.4844 30.4263C52.5764 31.3063 52.7924 32.1623 53.0564 33.0143C53.0884 33.1183 53.2444 33.0983 53.2484 32.9863C53.2564 32.2823 53.3364 31.5943 53.4484 30.9023C56.8283 34.5782 62.3761 30.3703 63.7281 29.6824C65.428 28.8184 67.6079 28.7664 68.8079 27.0864C68.8479 27.0305 68.8039 26.9664 68.7519 26.9424C68.4079 26.7984 68.0319 26.8185 67.6559 26.8865C67.7639 26.8185 67.8639 26.7425 67.9559 26.6545C68.1839 26.4345 68.2359 25.9225 67.8559 25.8065C67.5759 25.7225 67.308 25.8025 67.04 25.8945C66.884 25.9505 66.728 26.0065 66.576 26.0585C66.776 25.9705 66.98 25.8745 67.176 25.7665C67.5199 25.4785 68.0079 25.2585 68.0199 24.7705C68.2519 24.9345 68.3319 25.4465 68.3439 25.6145C68.3719 25.9945 68.2279 26.4065 68.0679 26.7464C68.1479 26.5785 68.7759 26.5985 68.9239 26.6265C69.0799 26.6545 69.4079 26.9224 69.5679 26.8424C69.1679 27.0424 68.8639 27.3664 68.5599 27.6944C69.0679 27.7024 69.6039 27.8224 69.9719 28.1944C70.0639 28.2904 70.2519 28.7184 70.3439 28.7464C70.3199 28.7384 70.2919 28.7304 70.2679 28.7184C69.3799 28.9184 68.5359 29.1224 67.6999 29.4984C66.82 29.8943 65.948 30.3103 65.108 30.7783C63.5281 31.6503 62.0201 32.6663 60.7042 33.9102C59.4162 35.1262 58.3042 36.5141 57.4963 38.0941C57.0523 38.9661 56.7323 39.854 56.4843 40.77C57.1323 42.2739 57.7283 43.7979 58.1722 45.3779C58.2162 45.5299 58.2563 45.6859 58.2923 45.8378C58.9642 45.4939 59.6482 45.1779 60.3722 44.9539C60.3802 44.9499 60.3882 44.9499 60.3962 44.9459C60.2762 44.9979 60.1602 45.0579 60.0442 45.1219C59.1042 45.6418 58.8922 46.6098 59.4202 47.5338C60.0482 48.6338 61.6921 48.9897 62.8481 49.0137C63.7801 49.0337 64.696 48.7977 65.552 48.4457C66.088 48.2258 66.696 47.9538 67.216 47.6098C66.992 47.8658 66.744 48.1058 66.512 48.3578C66.436 48.4378 66.532 48.5658 66.628 48.5098C67.3799 48.0738 68.1519 47.6698 68.9719 47.3778C68.1079 47.9218 67.26 48.4898 66.48 49.1497C65.484 49.9897 64.672 51.0097 63.9641 52.1016C62.7041 54.0496 61.8561 56.4215 61.9441 58.7654C61.9681 59.4534 62.2521 60.2054 63.0641 60.0654C63.9561 59.9174 64.772 58.7774 65.328 58.1654C66.276 57.1215 67.116 55.9815 67.9559 54.8495C68.7359 53.7976 69.5399 52.7576 70.2759 51.6736C71.1838 50.3337 72.0038 48.8497 72.1598 47.2098C72.2118 46.6498 72.0998 46.1578 71.8598 45.7538C73.3798 46.8538 72.7518 49.2897 72.1238 50.8097L72.1078 50.8257Z" fill="#CE956F"/>
</g>
<g style="mix-blend-mode:multiply">
<path d="M26.8133 42.186C25.5893 42.314 24.2293 42.37 23.0534 42.758C22.5334 42.9259 21.8014 43.2219 21.2935 43.6539C21.6174 43.3499 21.9774 43.0899 22.2934 42.8939C23.2654 42.302 24.5053 42.178 25.6053 42.014C26.8853 41.822 28.2052 41.834 29.4972 41.854C30.5371 41.87 31.6051 41.934 32.5251 41.378C34.077 40.442 35.061 38.3541 36.153 36.9901C36.8849 36.0741 37.2649 35.2222 37.8169 34.1822C38.0809 33.6862 38.3089 33.1663 38.5329 32.6503C38.4169 33.0903 38.1529 33.7462 37.9329 34.4022C37.9049 34.4902 37.6329 35.0382 37.6889 34.9902C38.1449 34.5862 39.3409 33.2503 39.8609 32.9383C37.9809 34.6502 36.253 37.0061 34.761 39.2861C34.133 40.25 33.5491 41.018 33.0051 42.062C32.7491 42.374 32.4811 42.93 32.2211 43.2379C32.3851 42.942 32.5531 42.65 32.7291 42.362C32.0611 42.354 31.3851 42.258 30.7611 42.19C29.4412 42.038 28.1332 42.054 26.8093 42.194L26.8133 42.186Z" fill="#CE956F"/>
</g>
<g style="mix-blend-mode:multiply">
<path d="M28.8973 49.7697C29.1133 49.5097 29.3373 49.2578 29.5653 49.0138C29.8213 48.1858 30.1493 47.3858 30.5332 46.6058C30.3653 47.0818 30.1293 47.5498 29.9853 47.9738C29.6453 48.9858 29.5773 50.1697 29.5373 51.2257C29.4573 53.4136 29.8453 55.5775 30.4972 57.6535C29.6253 56.3935 29.3173 54.8296 29.1653 53.3216C29.0733 52.4096 29.1373 51.5897 29.2373 50.6817C29.2693 50.4017 29.5133 49.9497 29.1453 49.7817C29.0653 49.7457 28.9813 49.7417 28.8933 49.7657L28.8973 49.7697Z" fill="#CE956F"/>
</g>
<g style="mix-blend-mode:multiply">
<path d="M57.4804 38.1141C57.0364 38.986 56.7204 39.874 56.4724 40.79C56.6244 41.142 56.7725 41.494 56.9165 41.8499C56.6525 41.47 56.3685 41.098 56.0925 40.73C55.3405 39.726 54.7725 38.6141 54.2925 37.4621C53.8486 36.3941 53.5125 35.2902 53.1486 34.1982C52.9526 33.6062 52.7126 33.0382 52.5726 32.4262C52.4606 31.9263 52.4966 31.4183 52.5326 30.9143C52.6446 31.6303 52.5446 32.1863 52.9806 33.2582C53.0206 33.3582 53.3206 34.2222 53.3246 34.1102C53.3286 33.4422 53.3166 31.6783 53.4206 31.0223C53.6446 32.5982 53.4646 33.5942 53.5206 33.9662C53.6686 34.9742 54.1765 35.7421 54.5325 36.6901C55.8365 40.158 58.6124 35.9141 59.2884 35.3221C59.3844 35.2382 59.4844 35.1582 59.5844 35.0782C58.7644 36.0021 58.0484 37.0101 57.4804 38.1181V38.1141Z" fill="#CE956F"/>
</g>
<g style="mix-blend-mode:multiply">
<path d="M63.7521 67.1891C63.7841 67.2251 63.7321 67.2891 63.6881 67.2651C63.6201 67.2251 63.5601 67.1811 63.5081 67.1331C63.5041 67.1331 63.5001 67.1371 63.4961 67.1371C63.0121 67.1451 62.6522 66.6451 62.4402 66.2652C62.3042 66.0252 62.2282 65.7612 62.2042 65.4932C61.6762 66.0092 61.1042 66.5812 61.0002 67.2771C60.9922 67.3291 60.9162 67.3251 60.9122 67.2731C60.9082 67.2291 60.9082 67.1891 60.9082 67.1451C60.9042 67.1411 60.9002 67.1331 60.8962 67.1291C60.7682 66.4732 60.5442 65.9092 60.5402 65.3092C60.4282 65.4612 60.3082 65.6092 60.1842 65.7332C59.9403 65.9932 59.6723 66.2452 59.3763 66.4411C59.0123 66.6851 58.5803 66.8452 58.4243 67.2851C58.4123 67.3211 58.3523 67.3091 58.3523 67.2731C58.3563 67.0891 58.4163 66.9371 58.5123 66.7971C59.0163 65.3252 59.2483 63.8132 59.5603 62.2933C59.7083 61.5853 59.7843 60.8413 59.9083 60.1094C58.3923 60.5654 57.0203 61.4973 55.7284 62.3853C54.0764 63.5173 52.2805 64.4532 50.3926 65.1252C48.4766 65.8092 46.2967 66.4452 44.2448 66.3772C43.6928 66.3612 43.1528 66.3012 42.6088 66.2252C42.3808 66.7771 42.1768 67.3411 42.0368 67.9211C41.7688 69.0651 41.5449 71.001 42.7688 71.721C42.8008 71.737 42.7888 71.797 42.7488 71.785C42.6488 71.757 42.5608 71.717 42.4768 71.669C42.4728 71.681 42.4648 71.689 42.4528 71.693C42.0408 71.829 41.4729 71.549 41.1689 71.285C41.0329 71.169 40.9249 71.037 40.8409 70.897C40.7889 71.033 40.7129 71.161 40.6329 71.265C40.4529 71.485 40.2529 71.641 40.0089 71.781C39.7449 71.933 39.4729 71.989 39.2529 72.217C39.2209 72.249 39.1729 72.217 39.1849 72.173C39.2009 72.121 39.2249 72.073 39.2489 72.029C39.2689 71.857 39.2969 71.689 39.3209 71.517C39.1649 71.833 38.9409 72.117 38.6929 72.333C38.365 72.621 38.001 72.8169 37.577 72.9169C37.165 73.0169 36.753 72.8889 36.353 73.0649C36.325 73.0769 36.305 73.0369 36.329 73.0169C36.329 73.0129 36.333 73.013 36.337 73.013C36.337 73.005 36.341 72.9929 36.349 72.9889C37.149 72.433 37.497 71.677 37.405 70.705C37.369 70.329 37.301 69.9051 37.085 69.5851C37.049 69.5331 37.009 69.4891 36.969 69.4491C35.729 70.205 34.4491 70.601 33.0091 70.789C31.5932 70.973 30.1452 71.349 28.7133 71.237C27.6933 71.161 26.6933 70.821 25.8293 70.265C26.8133 70.609 27.8533 70.745 28.9213 70.541C31.2492 70.101 33.5571 69.3891 35.729 68.4331C36.777 67.9731 39.1409 66.6451 37.625 65.3492C36.989 64.8132 36.149 64.5772 35.429 64.1852C34.2891 63.5613 33.1931 62.6853 32.3411 61.7093C31.8092 61.1013 31.1812 60.3653 30.8412 59.5734C31.2972 60.2214 31.9611 60.7414 32.5771 61.2133C33.6211 62.0133 34.7331 62.7693 35.897 63.3892C37.917 64.4652 40.3489 64.8852 42.6168 64.9132C44.8368 64.9372 47.0767 64.5092 49.0726 63.5333C57.3883 59.4654 58.5163 52.2576 58.2083 46.2138C58.2003 46.0698 58.2003 45.9298 58.2003 45.7858C59.1083 47.6498 59.1163 49.7777 59.1363 51.8176C59.1443 52.4696 59.1443 53.1256 59.1563 53.7776C59.1643 54.2295 59.1523 54.8055 59.4163 55.1935C59.6243 55.5015 59.9802 55.3575 60.2242 55.1815C60.9522 54.6575 61.5242 53.8016 62.0642 53.1016C63.3002 51.4976 64.5881 49.7657 66.3841 48.7497C66.0001 49.1937 65.5561 49.5897 65.1321 50.0017C64.6281 50.4977 64.2081 51.0697 63.7881 51.6376C62.9002 52.8376 62.2002 54.0736 61.7402 55.5015C61.2602 56.9895 61.0402 58.5654 60.7762 60.1054C60.6402 60.8933 60.4923 61.6773 60.3203 62.4573C60.1723 63.1253 60.0243 63.7812 60.1282 64.4692C60.1362 64.5092 60.1843 64.5452 60.2203 64.5412C60.5723 64.5052 60.7682 64.2652 60.9082 63.9772C60.8242 64.5572 60.7642 65.1972 61.1402 65.5412C61.5802 65.9412 62.1402 65.0412 62.4402 64.5452C62.4802 65.1412 62.5242 66.0852 63.0682 66.2052C63.2402 66.2452 63.4041 66.1772 63.5561 66.0652C63.4561 66.4611 63.4521 66.8651 63.7481 67.1931L63.7521 67.1891Z" fill="#CE956F"/>
</g>
<g style="mix-blend-mode:multiply">
<path d="M36.8571 69.5171C35.6532 70.229 34.4092 70.609 33.0133 70.789C31.5973 70.973 30.1494 71.349 28.7174 71.237C28.4974 71.221 28.2814 71.189 28.0654 71.149C28.4134 71.177 28.7654 71.169 29.0894 71.169C30.4494 71.157 31.8333 70.861 33.1373 70.517C34.4012 70.181 35.6772 69.7491 36.8172 69.0971C37.8011 68.5331 38.6891 67.7971 39.4891 66.9852C39.1251 67.6691 38.7211 67.8571 38.1811 68.4011C37.8811 68.7011 37.2571 69.2291 36.9091 69.4731C36.8891 69.4851 36.8731 69.5011 36.8571 69.5171Z" fill="#CE956F"/>
</g>
<g style="mix-blend-mode:multiply">
<path d="M45.6288 66.3211C45.1688 66.3691 44.7088 66.3891 44.2528 66.3771C43.7008 66.3611 43.1609 66.3011 42.6169 66.2251C42.5209 66.4571 42.4289 66.6931 42.3489 66.9291C42.2929 66.7371 42.2049 66.5651 42.0809 66.4251C41.9609 66.2891 41.8209 66.2371 41.6449 66.1891C41.3169 66.0971 40.9889 66.0171 40.6609 65.9171C39.825 65.6531 39.009 65.3332 38.209 64.9772C36.809 64.3572 35.5251 63.5452 34.1931 62.7932C33.5332 62.4212 32.8972 62.0173 32.3932 61.4453C32.2292 61.2613 32.0492 61.0773 31.8772 60.8893C33.6851 62.6292 36.0331 63.8412 38.301 64.8092C39.8329 65.4612 41.4329 65.9411 43.0768 66.1891C43.9208 66.3171 44.7728 66.3531 45.6248 66.3251L45.6288 66.3211Z" fill="#CE956F"/>
</g>
<g style="mix-blend-mode:multiply">
<path d="M59.5643 62.2933C59.7123 61.5853 59.7883 60.8414 59.9123 60.1094C59.8723 60.1214 60.8482 55.8695 61.8322 53.9416C62.4802 52.6696 63.3441 51.5536 64.3521 50.5457C64.7241 50.1737 65.1281 49.8457 65.5441 49.5217C65.5521 49.5137 65.5641 49.5057 65.5721 49.5017C64.4561 50.6297 63.3441 51.7376 62.5002 53.1016C61.5042 54.7175 60.9882 56.5455 60.5682 58.3774C60.3482 59.3494 60.1562 60.3254 59.9403 61.2933C59.7203 62.2933 59.4243 63.2733 59.2043 64.2732C59.1443 64.5492 59.0683 64.8212 58.9883 65.0892C59.2043 64.1652 59.3643 63.2293 59.5603 62.2893L59.5643 62.2933Z" fill="#CE956F"/>
</g>
<g style="mix-blend-mode:multiply" opacity="0.6">
<path d="M43.3489 73.4089C43.1769 75.3648 40.965 74.8849 39.8651 75.6328C38.8811 76.3008 37.2211 77.6048 36.3092 78.3567C34.9972 79.4407 33.2253 80.4367 31.4653 79.8007C30.9654 79.6207 30.5374 79.2647 30.3734 78.7727C29.7614 79.0687 28.6454 78.8727 28.1694 78.4367C27.9295 78.2128 27.8135 77.9648 27.7935 77.7088C26.6455 77.5288 26.6495 76.2328 27.1935 75.3608C26.4775 74.7449 27.0815 73.9649 27.7494 73.5889C28.6174 73.1009 29.6374 73.6129 30.4974 73.8369C31.1613 74.0089 31.8733 74.0409 32.5573 74.0649C33.1613 74.0889 33.7733 74.0889 34.3692 73.9809C34.6332 73.9329 34.8892 73.8649 35.1412 73.7889C34.5412 74.0089 33.9532 74.1889 33.2773 74.2409C32.4173 74.3049 31.5493 74.1849 30.7054 74.0009C29.9614 73.8369 29.0574 73.5089 28.3174 73.7369C28.2534 73.7489 28.1894 73.7649 28.1294 73.7889C27.6494 73.9609 26.8415 74.5929 27.3935 75.0968C27.6135 74.8368 27.8894 74.6449 28.1974 74.5849C28.6814 74.4889 29.0614 74.6849 29.5054 74.8569C30.1494 75.1089 30.7613 75.2209 31.4533 75.2369C32.5933 75.2649 33.6973 75.1608 34.7412 74.6648C34.7612 74.6528 34.7812 74.6889 34.7612 74.7009C34.1252 75.1568 33.3333 75.3448 32.5613 75.4208C31.7413 75.5048 30.8254 75.5688 30.0214 75.3448C29.1694 75.1048 28.2614 74.4769 27.5895 75.3928C27.1455 76.0048 26.8735 77.0968 27.8254 77.4048C27.8894 77.1048 28.0814 76.8168 28.3494 76.5768C28.6934 76.2728 29.1054 76.0208 29.5734 75.9768C30.2254 75.9168 30.8694 76.0568 31.5213 76.0008C32.8373 75.8888 34.0932 75.6448 35.3012 75.0968C35.3292 75.0848 35.3492 75.1288 35.3252 75.1448C34.5172 75.6008 33.6413 75.8968 32.7293 76.0888C32.2333 76.1928 31.7053 76.2888 31.1933 76.2848C30.7214 76.2808 30.2374 76.1928 29.7694 76.2408C29.1334 76.3088 27.4894 77.2088 28.2494 78.0528C28.5734 78.4127 29.0774 78.5207 29.5454 78.5207C29.8014 78.5207 30.0614 78.4567 30.3174 78.4647C30.3134 78.4287 30.3094 78.3887 30.3094 78.3487C30.3054 77.7568 30.8413 77.3328 31.3293 77.1088C31.9173 76.8368 32.6013 76.6888 33.2493 76.6848C33.8972 76.6808 34.5052 76.8168 35.1172 76.5128C35.6092 76.2648 36.0252 75.8928 36.4452 75.5448C36.4612 75.5328 36.4812 75.5528 36.4652 75.5688C35.8732 76.2048 35.1612 76.8808 34.2453 76.9328C33.4973 76.9768 32.8093 76.8728 32.0813 77.1128C31.5293 77.2968 30.5294 77.6608 30.6174 78.4087C30.7174 79.2607 31.5613 79.6127 32.3253 79.6647C34.3252 79.8047 35.8532 78.4447 37.2771 77.2208C38.0051 76.5968 38.7371 76.0048 39.5291 75.5248C40.0091 75.2528 40.493 75.0049 41.049 74.8609C41.677 74.7009 42.341 74.5889 42.833 74.1289C43.313 73.6769 43.3129 73.0649 43.101 72.5129C43.2849 72.7649 43.3849 73.0529 43.3529 73.4089H43.3489Z" fill="#C94C57"/>
</g>
<path d="M39.5608 29.2264C38.2728 30.5383 36.9689 31.8863 35.6089 33.1222C34.469 34.1622 33.037 34.8222 31.625 35.4062C29.9731 36.0901 28.3092 36.7141 26.6372 37.3501C25.8172 37.6621 24.9973 37.9781 24.1893 38.3181C23.2853 38.6981 22.1414 39.038 21.2934 39.526C21.2494 39.55 21.0654 39.638 21.1134 39.614C23.3573 38.5181 24.6093 37.6301 26.1572 36.9781C26.9452 36.6461 27.7532 36.3101 28.5851 36.0941C29.3851 35.8861 30.2211 35.7421 30.9971 35.4462C32.741 34.7822 34.157 33.8102 35.4969 32.5183C36.7329 31.3223 38.0248 30.0623 39.4528 29.1024C39.5248 29.0544 39.6288 29.1544 39.5648 29.2224L39.5608 29.2264Z" fill="#F9F7ED"/>
<path d="M64.2802 27.2144C62.6522 27.8784 60.8163 28.0624 59.0684 28.0504C58.2044 28.0424 57.3684 27.9424 56.5164 27.7744C55.4685 27.5664 54.6485 27.6024 53.6565 28.0224C53.5925 28.0504 53.5365 27.9464 53.6005 27.9104C54.9845 27.0184 56.4604 27.4104 57.9884 27.5304C60.0883 27.7024 62.2083 27.6384 64.2562 27.1464C64.3002 27.1384 64.3242 27.1944 64.2802 27.2144Z" fill="#F9F7ED"/>
<path d="M24.7294 60.8294C24.3254 62.9053 23.8895 65.6292 25.0934 67.5052C25.1654 67.6171 25.0134 67.7131 24.9294 67.6211C23.4695 65.9812 23.6654 63.0613 24.0774 61.0734C24.5894 58.6014 25.6254 56.3375 26.9093 54.1776C26.9453 54.1136 27.0494 54.1576 27.0174 54.2296C26.0534 56.3415 25.1734 58.5494 24.7294 60.8374V60.8294Z" fill="#F9F7ED"/>
<path d="M71.6157 45.9139C67.9998 45.2539 64.1519 44.5259 60.524 45.5459C60.488 45.5539 60.472 45.5059 60.504 45.4939C63.8679 44.1019 68.3398 44.2699 71.6757 45.7179C71.7837 45.7658 71.7277 45.9339 71.6117 45.9139H71.6157Z" fill="#F9F7ED"/>
<path d="M69.4599 47.7777C65.536 49.4537 63.0841 52.9656 62.4281 57.1174C62.4201 57.1694 62.4921 57.1815 62.5081 57.1335C63.0201 55.2095 63.7161 53.3776 64.908 51.7616C66.14 50.0937 67.788 48.9817 69.5439 47.9297C69.6279 47.8817 69.5559 47.7377 69.4639 47.7777H69.4599Z" fill="#F9F7ED"/>
<path d="M39.409 34.5462C35.2931 40.342 27.8333 48.9617 34.5091 55.7175C34.5531 55.7615 34.5091 55.8495 34.4451 55.8135C30.8812 53.7096 30.6653 48.4938 31.9652 45.0259C33.4972 40.938 36.5931 37.7821 39.289 34.4502C39.353 34.3702 39.461 34.4662 39.405 34.5462H39.409Z" fill="#F9F7ED"/>
<path d="M63.884 11.4669C63.892 11.5869 63.78 11.6429 63.692 11.6189C63.62 12.0349 63.456 12.4229 63.148 12.7469C62.3201 13.6228 61.0921 13.8589 59.9241 13.8109C57.8162 13.7269 55.6003 13.1349 53.7843 11.9909C54.1123 12.5069 54.4003 13.0469 54.6283 13.6349C54.8643 14.2468 55.0603 14.8748 55.2563 15.5028C56.6003 14.9348 58.0562 14.7148 59.3042 15.6548C61.0001 16.9348 60.7841 19.2187 59.8761 20.9186C57.8642 24.6785 54.0683 27.1024 50.1045 28.5304C49.1605 28.9584 48.1725 29.3103 47.1406 29.4423C44.3647 29.7943 41.4487 29.0023 38.8168 28.1904C36.3609 27.4304 34.045 26.3304 32.149 24.5665C30.8611 23.3665 29.7651 21.9386 29.4931 20.2226C28.9612 19.1907 29.5651 18.0067 30.6891 17.6787C31.6411 17.3987 32.569 17.4307 33.473 17.6427C33.585 17.0947 33.749 16.5588 33.909 16.0708C34.089 15.5188 34.301 14.9668 34.573 14.4508C33.233 15.2268 31.757 15.8228 30.3491 16.3188C29.2251 16.7187 28.1492 17.0548 26.9412 16.8868C26.1132 16.7708 25.6532 16.2828 25.1973 15.6228C25.1853 15.6068 25.1893 15.5908 25.1973 15.5788C25.1413 15.4908 25.0893 15.4028 25.0453 15.3148C24.8013 14.8108 24.7293 14.3068 24.7293 13.7869C24.5533 12.6229 24.7373 11.3549 25.0373 10.211C25.6413 7.91505 26.7972 5.49512 28.5372 3.83117C29.9771 2.45922 32.129 1.61125 33.681 3.30719C34.409 4.10317 34.8449 5.08714 35.3249 6.03911C35.8889 7.16707 36.5209 8.19902 37.3369 9.14299C37.4009 9.10699 37.4649 9.07101 37.5289 9.03501C38.0288 8.76702 38.5568 8.56701 39.0928 8.39101C40.3768 7.97103 41.6767 7.68705 43.0247 7.53506C44.4446 7.37506 45.8726 7.31907 47.3046 7.33907C48.4125 7.35507 49.5325 7.41906 50.6205 7.63505C50.7045 7.37506 50.7924 7.11507 50.8804 6.85908C51.5244 5.02314 52.3044 3.0472 53.6644 1.61125C54.8763 0.33129 56.6643 -0.428687 58.3922 0.259291C60.1842 0.975268 61.4481 2.6992 62.2881 4.36714C63.396 6.56707 63.78 9.01901 63.884 11.4589V11.4669Z" fill="#C49257"/>
<g style="mix-blend-mode:multiply">
<path d="M30.3452 16.3187C29.2212 16.7187 28.1453 17.0547 26.9373 16.8867C26.1093 16.7707 25.6494 16.2827 25.1934 15.6228C25.1814 15.6068 25.1854 15.5908 25.1934 15.5788C25.1374 15.4908 25.0854 15.4028 25.0414 15.3148C24.7974 14.8108 24.7254 14.3068 24.7254 13.7868C24.5494 12.6229 24.7334 11.3549 25.0334 10.2109C25.0374 10.1909 25.0454 10.1749 25.0494 10.1549C24.8814 11.2389 24.7694 12.3309 24.9094 13.4308C24.9214 13.5308 25.0734 13.5748 25.1014 13.4548C25.5573 11.4469 25.7054 9.35097 26.5173 7.43504C27.2733 5.64709 28.8453 3.76714 30.7932 3.27116C32.6011 2.81117 33.7131 4.26713 34.3891 5.73109C35.169 7.41903 35.305 9.28298 35.937 11.0149C35.965 11.0949 36.065 11.1109 36.117 11.0389C36.573 10.3349 36.821 9.43497 36.869 8.563C37.017 8.759 37.173 8.95097 37.337 9.14296C37.401 9.10697 37.465 9.07098 37.529 9.03498C37.8609 8.85499 38.2049 8.71099 38.5569 8.57899C38.0529 8.91898 37.609 9.34297 37.221 9.80696C36.353 10.8429 35.833 12.1109 35.405 13.3788C35.173 14.0668 34.953 14.7708 34.773 15.4788C34.601 16.1388 34.3811 16.7947 34.3211 17.4787C34.2931 17.8147 34.3931 18.0947 34.5651 18.3347C34.1731 18.1147 33.7451 17.9427 33.3411 17.7907C32.9331 17.6387 32.5171 17.5147 32.0851 17.4787C32.0531 17.4747 32.0212 17.4747 31.9932 17.4747C32.4931 17.4627 32.9851 17.5227 33.4731 17.6347C33.5851 17.0867 33.7491 16.5507 33.9091 16.0628C34.0891 15.5108 34.3011 14.9588 34.573 14.4428C33.2331 15.2188 31.7571 15.8148 30.3492 16.3108L30.3452 16.3187Z" fill="#CE956F"/>
</g>
<g style="mix-blend-mode:multiply">
<path d="M63.8843 11.4669C63.8923 11.5869 63.7803 11.6429 63.6923 11.6189C63.6203 12.0349 63.4563 12.4229 63.1483 12.7469C62.3203 13.6229 61.0924 13.8589 59.9244 13.8109C57.8165 13.7269 55.6006 13.1349 53.7846 11.9909C54.1126 12.5069 54.4006 13.0469 54.6286 13.6349C54.8646 14.2469 55.0606 14.8748 55.2566 15.5028C55.9005 15.2308 56.5685 15.0388 57.2285 15.0148C56.8085 15.1148 56.4045 15.2748 56.0125 15.5068C55.3286 15.9148 54.7606 16.4948 54.2046 17.0628C54.8686 14.7228 53.4846 12.5589 52.4847 10.499C52.0527 9.615 51.5047 8.31104 50.6367 7.59906C50.7167 7.35107 50.8007 7.10709 50.8847 6.8591C50.9247 6.7431 50.9647 6.6271 51.0087 6.50711C50.9807 6.94309 51.0327 7.37507 51.2367 7.77506C51.4447 8.17905 52.0647 8.65104 52.4367 8.16306C52.8366 7.63508 52.8607 6.83509 52.9447 6.20311C53.0606 5.27914 53.3486 4.43516 53.8086 3.62319C54.3646 2.64322 55.1646 1.76326 56.1685 1.23528C57.2965 0.643298 58.5285 0.835283 59.5444 1.55126C60.5804 2.28324 61.2524 3.45921 61.7764 4.58717C62.4203 5.97513 62.9883 7.36308 63.0483 8.90703C63.0763 9.58301 63.0803 10.255 63.2523 10.915C63.2723 10.995 63.3883 11.015 63.4323 10.939C63.6043 10.615 63.7163 10.267 63.7803 9.89899C63.8323 10.419 63.8683 10.943 63.8883 11.463L63.8843 11.4669Z" fill="#CE956F"/>
</g>
<g style="mix-blend-mode:multiply">
<path d="M59.8723 20.9186C57.8604 24.6785 54.0645 27.1024 50.1006 28.5304C49.1567 28.9583 48.1687 29.3103 47.1367 29.4423C44.3608 29.7943 41.4449 29.0023 38.813 28.1904C36.3571 27.4304 34.0412 26.3304 32.1452 24.5665C30.8573 23.3665 29.7613 21.9386 29.4893 20.2226C29.2373 19.7306 29.2413 19.2027 29.4413 18.7507C29.5053 19.0307 29.6053 19.3026 29.6253 19.3746C29.9093 20.3306 30.4413 21.0266 31.1532 21.7226C32.0732 22.6225 33.1852 23.3785 34.2971 24.0265C35.3211 24.6265 36.4331 24.9465 37.6211 24.7865C38.345 24.6905 38.773 24.2665 39.013 23.5985C39.157 23.2025 39.241 22.7865 39.373 22.3826C39.529 21.9106 39.929 21.5466 40.3249 21.2666C41.8569 20.1826 43.9688 19.9306 45.7848 19.7346C46.7327 19.6306 47.6967 19.5826 48.6407 19.7346C49.6967 19.9026 50.4926 20.5426 51.2326 21.2826C51.6686 21.7146 52.0486 22.3345 52.6406 22.5705C53.2645 22.8185 54.0845 22.3826 54.6645 22.1786C56.1565 21.6586 57.7004 21.0946 58.9204 20.0546C59.5163 19.5426 59.9523 18.8947 60.1843 18.1427C60.3363 17.6587 60.3083 17.1707 60.1923 16.6987C60.8563 17.9747 60.5683 19.6186 59.8723 20.9186Z" fill="#CE956F"/>
</g>
<g style="mix-blend-mode:multiply">
<path d="M51.5568 27.2944C50.8688 28.6423 49.0448 29.0423 47.7049 29.3223C45.7369 29.7303 43.809 29.5023 41.8811 28.9584C41.4171 28.8264 40.9971 28.5863 40.7211 28.1904C40.2691 27.5384 40.7291 26.7984 41.3211 26.4184C41.1771 26.7424 41.0931 27.1024 41.4171 27.3424C41.9571 27.7464 42.7011 27.8624 43.345 28.0104C44.653 28.3064 45.433 27.6304 45.321 26.3144C45.313 26.2384 45.265 26.1544 45.185 26.1424C44.285 26.0064 43.525 25.8864 42.737 25.3905C42.2651 25.0945 41.9171 24.6905 41.5691 24.2825C41.6251 24.2945 41.6771 24.3025 41.7251 24.3145C42.681 24.4985 43.661 24.5825 44.633 24.5425C45.7409 24.4985 46.8609 24.2145 47.9049 23.8585C48.9768 23.4945 49.6768 22.8666 50.5128 22.2106C50.5328 24.0505 48.6089 25.3825 46.9889 25.8024C45.669 26.1464 46.6169 27.1984 47.3849 27.6304C49.3128 28.7064 51.5688 26.8344 51.6487 24.8745C51.7207 25.0105 51.7927 25.1505 51.8527 25.2945C52.1327 25.9504 51.8448 26.7104 51.5448 27.2984L51.5568 27.2944Z" fill="#CE956F"/>
</g>
<g style="mix-blend-mode:multiply">
<path d="M51.0247 27.2064C50.5407 27.7784 49.9608 28.3304 49.1688 28.3824C48.1448 28.4464 46.6409 28.1584 46.0929 27.1864C46.1049 27.4264 46.0289 27.6624 45.8969 27.8704C45.4209 28.6184 44.7689 28.9744 43.893 28.8704C43.061 28.7704 42.065 28.7344 41.389 28.1744C40.6371 27.5544 40.701 26.9344 41.361 26.2785C41.381 26.2585 41.413 26.2825 41.397 26.3065C41.209 26.5785 40.853 26.9904 41.049 27.3544C41.153 27.5544 41.285 27.7224 41.465 27.8544C41.721 28.0504 42.001 28.2024 42.297 28.3304C42.845 28.5704 43.6009 28.7664 44.2049 28.7064C44.8889 28.6384 45.5209 28.0984 45.7569 27.4504C46.0089 26.7545 45.6369 25.8065 45.4569 25.1145C45.3969 24.8825 45.7289 24.8025 45.7809 25.0385C45.8969 25.5705 45.9089 26.1065 46.0009 26.6385C46.2569 27.1745 46.6089 27.5264 47.1928 27.7384C47.8168 27.9624 48.6808 28.3144 49.3408 28.1664C50.1088 27.9944 50.5207 27.3544 51.0087 26.7944C51.2167 26.5585 51.4487 26.3105 51.5647 26.0105C51.6607 25.7585 51.6807 25.4905 51.7607 25.2265C51.7687 25.2065 51.7967 25.2145 51.7967 25.2345C51.9167 26.0345 51.5167 26.6185 51.0247 27.1944V27.2064Z" fill="#BAB7A8"/>
</g>
<path d="M51.7566 25.1145C51.7566 25.1225 51.7566 25.1265 51.7526 25.1265C51.7446 25.1265 51.7446 25.1145 51.7526 25.1145H51.7606H51.7566Z" fill="#3B5856"/>
<path d="M42.8649 26.4104C40.9969 25.6065 39.073 25.0265 37.0291 24.9185C35.0371 24.8145 33.0292 24.9065 31.0653 25.2705C31.0453 25.2745 31.0333 25.2385 31.0573 25.2305C32.9292 24.6385 35.1291 24.4585 37.0851 24.5785C39.177 24.7065 41.0969 25.2665 43.0129 26.0744C43.2329 26.1664 43.0849 26.5064 42.8649 26.4144V26.4104Z" fill="#4C4836"/>
<path d="M42.2168 26.3504C38.7929 25.2505 34.977 25.5105 31.7371 27.0344C31.7251 27.0384 31.7331 27.0584 31.7451 27.0544C33.2851 26.4144 34.989 26.1664 36.645 26.0664C38.4609 25.9584 40.3368 26.1224 42.0768 26.6744C42.2928 26.7424 42.4408 26.4184 42.2208 26.3504H42.2168Z" fill="#4C4836"/>
<path d="M42.1409 27.2064C41.3969 27.4304 40.5129 27.3624 39.7409 27.4504C38.849 27.5544 37.969 27.7024 37.089 27.8784C35.5731 28.1744 34.1051 28.5784 32.7972 29.4184C32.7732 29.4344 32.7492 29.4024 32.7692 29.3824C33.8811 28.3904 35.4771 27.8784 36.905 27.5664C37.829 27.3624 38.761 27.1984 39.7049 27.0984C40.4569 27.0184 41.3769 26.8104 42.1209 26.9984C42.2169 27.0224 42.2529 27.1704 42.1409 27.2064Z" fill="#4C4836"/>
<path d="M59.4923 21.4186C58.5443 21.4866 57.6043 21.7066 56.7003 21.9866C55.8804 22.2386 55.0444 22.4626 54.2644 22.8266C52.7805 23.5106 51.2565 24.4425 50.1646 25.6745C50.0606 25.7905 49.8366 25.6785 49.9166 25.5265C50.2806 24.8465 51.0245 24.3705 51.6445 23.9465C52.3925 23.4386 53.1765 22.9946 54.0124 22.6546C55.7124 21.9626 57.6403 21.3066 59.4963 21.3946C59.5123 21.3946 59.5123 21.4226 59.4963 21.4226L59.4923 21.4186Z" fill="#4C4836"/>
<path d="M59.1964 23.8626C58.4004 23.9026 57.6044 23.8786 56.8125 23.9346C56.1045 23.9826 55.4045 24.1066 54.7045 24.2306C53.1926 24.5025 51.9086 24.9865 50.5687 25.7305C50.4607 25.7905 50.3607 25.6585 50.4527 25.5705C51.5046 24.6065 53.1246 24.2305 54.4885 23.9905C56.0605 23.7106 57.6084 23.6946 59.1964 23.8066C59.2284 23.8106 59.2244 23.8626 59.1964 23.8626Z" fill="#4C4836"/>
<path d="M60.0003 25.8665C59.2084 25.8745 58.4324 25.7305 57.6444 25.6705C56.7565 25.6025 55.8525 25.6505 54.9645 25.6465C54.1445 25.6425 53.2926 25.6185 52.4846 25.7825C51.7286 25.9345 51.0126 26.2665 50.2447 26.3705C50.1367 26.3865 50.1087 26.2265 50.2007 26.1865C50.9086 25.8865 51.6846 25.5785 52.4486 25.4585C53.2686 25.3265 54.1005 25.3105 54.9285 25.3345C55.7765 25.3545 56.6365 25.3305 57.4804 25.4305C58.3244 25.5305 59.1644 25.6705 59.9963 25.8505C60.0043 25.8505 60.0043 25.8665 59.9963 25.8665H60.0003Z" fill="#4C4836"/>
<path d="M48.1928 30.1344C48.0728 30.6144 47.7448 30.9823 47.2728 30.9223C47.1168 30.9543 46.9568 30.9303 46.7808 30.8423C46.7528 31.2063 46.0168 31.4423 45.6168 31.1743C44.8369 30.6503 44.6369 29.7304 44.5889 28.8464C44.6609 28.8304 44.7329 28.8144 44.8049 28.7904C45.2448 28.6424 45.6088 28.3344 45.9008 27.8704C45.9288 27.8304 45.9488 27.7864 45.9688 27.7464C46.0568 27.5704 46.1048 27.3785 46.0968 27.1865C46.1288 27.2425 46.1648 27.2984 46.2048 27.3504C46.5488 27.8184 47.1368 28.1064 47.7568 28.2544C47.8728 28.2824 47.9928 28.3064 48.1087 28.3264C48.1287 28.5544 48.1447 28.7824 48.1727 29.0104C48.2167 29.3664 48.2848 29.7824 48.1928 30.1384V30.1344Z" fill="#F7F4E8"/>
<g style="mix-blend-mode:multiply">
<path d="M48.1928 30.1344C48.0728 30.6143 47.7448 30.9823 47.2728 30.9223C47.1168 30.9543 46.9568 30.9303 46.7808 30.8423C46.7528 31.2063 46.0168 31.4423 45.6168 31.1743C44.8369 30.6503 44.6369 29.7304 44.5889 28.8464C44.6609 28.8304 44.7329 28.8144 44.8049 28.7904C44.8209 28.8784 44.8368 28.9664 44.8488 29.0544C44.8888 29.3704 44.8928 29.7584 44.9968 30.0584C45.1368 30.4383 45.3448 30.8103 45.7528 30.9583C46.1568 31.1063 46.5048 31.0023 46.4968 30.5823C46.3928 30.4023 46.3608 30.1743 46.3168 29.9743C46.1488 29.2224 46.0168 28.4904 45.9728 27.7504C46.0608 27.5744 46.1088 27.3824 46.1008 27.1904C46.1328 27.2464 46.1688 27.3024 46.2088 27.3544C46.2688 27.8344 46.3368 28.3104 46.4328 28.7824C46.5368 29.3104 46.5888 30.6863 47.2688 30.7943C47.5688 30.7423 47.8408 30.6423 47.8928 30.2743C47.9328 30.0023 47.9287 29.7224 47.9007 29.4464C47.8607 29.0504 47.8088 28.6544 47.7648 28.2584C47.8808 28.2864 48.0008 28.3104 48.1168 28.3304C48.1368 28.5584 48.1527 28.7864 48.1807 29.0144C48.2247 29.3704 48.2927 29.7863 48.2007 30.1423L48.1928 30.1344Z" fill="#BAB7A8"/>
</g>
<path d="M40.2009 21.2466C41.6769 20.2746 45.2088 18.9986 48.5807 19.4946C51.9566 19.9906 51.0166 22.2146 49.0767 23.9305C47.1407 25.6464 44.1208 25.8824 41.8209 24.6545C39.517 23.4265 38.873 22.1185 40.2009 21.2466Z" fill="#EA9898"/>
<g style="mix-blend-mode:multiply" opacity="0.4">
<path d="M49.0805 23.9346C47.1446 25.6505 44.1247 25.8865 41.8247 24.6585C39.8848 23.6226 39.1249 22.5346 39.7208 21.6946C39.7928 21.9666 40.0248 22.2186 40.3648 22.3986C41.6648 23.0746 43.6807 22.6906 45.0407 22.4906C46.4846 22.2786 48.0006 21.9146 49.3765 21.4186C49.9245 21.2186 50.4885 20.8747 50.5965 20.4147C51.2684 21.3466 50.4085 22.7626 49.0805 23.9346Z" fill="#C94C57"/>
</g>
<g style="mix-blend-mode:screen" opacity="0.6">
<path d="M46.8889 20.2906C45.8169 20.5146 44.7169 20.5146 43.637 20.7946C42.597 21.0626 41.521 21.2586 40.5531 21.7426C40.4691 21.7826 40.3891 21.6706 40.4411 21.5986C41.1811 20.6786 42.401 20.4906 43.481 20.1986C44.5729 19.8986 45.7489 19.5386 46.8889 19.7106C47.2329 19.7626 47.2089 20.2226 46.8889 20.2906Z" fill="#FFC7C7"/>
</g>
<g style="mix-blend-mode:screen" opacity="0.6">
<path d="M49.3728 20.5546C49.0248 20.6066 48.6729 20.6546 48.3169 20.6506C48.0649 20.6506 47.5889 20.6266 47.4929 20.3226C47.4049 20.0386 47.5249 19.8906 47.7249 19.8187C47.7449 19.8027 47.7689 19.7907 47.7889 19.7867C48.2889 19.6347 49.2248 19.6187 49.5608 20.1067C49.6808 20.2826 49.5928 20.5186 49.3768 20.5546H49.3728Z" fill="#FFC7C7"/>
</g>
<g style="mix-blend-mode:multiply">
<path d="M48.1928 30.1383V30.1423C48.2008 29.7623 48.1287 29.3904 48.0007 29.1104C47.8088 28.6944 47.1288 28.6304 46.7368 28.7224C46.4528 28.7904 46.3728 29.1344 46.3608 29.4784C46.2728 29.3104 46.1688 29.1544 46.0408 29.0224C45.7848 28.7664 45.3128 28.9424 45.1568 29.2264C44.9368 29.6223 44.9488 30.1663 45.1008 30.6583C44.7448 30.1423 44.6249 29.4863 44.5889 28.8424C44.6609 28.8264 44.7329 28.8104 44.8049 28.7864C45.2448 28.6384 45.6088 28.3304 45.9008 27.8664C45.9288 27.8264 45.9488 27.7824 45.9688 27.7424C46.0568 27.5664 46.1048 27.3744 46.0968 27.1824C46.1288 27.2384 46.1648 27.2944 46.2048 27.3464C46.5488 27.8144 47.1368 28.1024 47.7568 28.2504C47.8728 28.2784 47.9928 28.3024 48.1087 28.3224C48.1287 28.5504 48.1447 28.7784 48.1727 29.0064C48.2167 29.3624 48.2848 29.7784 48.1928 30.1343V30.1383Z" fill="#BAB7A8"/>
</g>
<path opacity="0.4" d="M38.841 18.5667C40.513 17.6547 45.0568 15.5108 50.1407 17.1428C51.1886 17.4787 51.2926 17.9347 50.2887 18.8347C49.2847 19.7347 49.3807 19.1907 48.2767 19.0187C47.1768 18.8467 42.3849 19.3747 41.137 19.9627C39.893 20.5507 39.765 20.2547 39.149 20.0107C38.537 19.7627 37.5091 19.2907 38.837 18.5667H38.841Z" fill="#F9F7ED"/>
<g style="mix-blend-mode:multiply" opacity="0.4">
<path d="M39.185 17.2268C38.2411 16.4148 39.885 13.3629 40.449 13.5989C40.825 13.7589 40.981 14.8028 40.925 16.7388C43.5969 15.7068 46.1688 15.4548 48.6407 15.9908C48.4687 16.0828 48.4047 15.4668 48.4407 14.1428C48.4967 12.1549 49.4807 13.2269 49.9567 14.6068C50.2727 15.5268 50.3367 16.0348 50.1447 16.1268C51.2407 16.4348 52.3046 16.9988 53.3326 17.8307C52.4686 17.3108 50.5687 16.1148 44.8609 16.5908C41.053 16.9068 38.2011 17.9907 36.2971 19.8427C36.7891 19.0667 37.7531 18.1947 39.189 17.2268H39.185Z" fill="#BAB7A8"/>
</g>
<g style="mix-blend-mode:multiply">
<path d="M52.9806 17.6148C51.7886 17.0748 49.9967 16.6068 48.6927 16.5068C47.1927 16.3908 46.2248 16.4028 44.7448 16.6068C43.2729 16.8068 41.7489 17.0868 40.377 17.6067C39.757 17.8427 39.109 18.0747 38.513 18.3707C37.905 18.6747 37.345 19.0707 36.7731 19.4347C36.7571 19.4427 36.7451 19.4267 36.7571 19.4147C37.873 18.4667 39.065 17.7627 40.437 17.2508C41.8409 16.7268 43.1209 16.4948 44.6008 16.2788C50.0566 15.4908 53.0446 17.6347 52.9806 17.6027V17.6148Z" fill="#BAB7A8"/>
</g>
<path d="M40.277 17.2307C40.069 17.3507 39.825 17.3947 39.617 16.9467C39.405 16.4988 39.761 14.8108 40.129 14.6028C40.497 14.3948 40.537 15.1428 40.529 16.1988C40.529 16.5548 40.481 17.1107 40.277 17.2347V17.2307Z" fill="#141000"/>
<path d="M40.153 15.1948C40.101 15.5548 39.9771 15.7708 39.8931 15.6508C39.8091 15.5308 39.777 15.2548 39.957 14.9148C40.201 14.4588 40.205 14.8308 40.157 15.1908L40.153 15.1948Z" fill="white"/>
<g style="mix-blend-mode:multiply" opacity="0.6">
<path d="M40.6128 12.0949C40.3408 11.5629 39.8488 12.0749 39.5648 12.4069C39.2849 12.7389 39.0569 12.4829 39.0929 12.2909C39.1289 12.0989 39.8328 10.4829 40.5008 10.5229C40.9448 10.5469 41.1968 11.0509 41.2528 12.0229C41.4448 13.5029 40.8888 12.6229 40.6168 12.0949H40.6128Z" fill="#BAB7A8"/>
</g>
<g style="mix-blend-mode:multiply">
<path d="M40.749 11.415C40.477 10.883 40.061 11.307 39.777 11.6389C39.493 11.9709 39.381 11.9829 39.413 11.7869C39.449 11.5949 39.833 10.483 40.501 10.523C40.9449 10.547 41.1969 11.0509 41.2529 12.0229C41.2929 12.4709 41.0209 11.9429 40.749 11.4109V11.415Z" fill="#BAB7A8"/>
</g>
<path d="M48.7368 15.3348C48.6488 14.2829 48.6368 13.5349 49.0168 13.7149C49.4008 13.8949 49.8847 15.5548 49.7047 16.0148C49.5287 16.4788 49.2848 16.4548 49.0688 16.3468C48.8528 16.2428 48.7688 15.6908 48.7368 15.3348Z" fill="#141000"/>
<path d="M49.2168 14.0149C49.4248 14.3388 49.4128 14.6188 49.3328 14.7428C49.2568 14.8668 49.1168 14.6588 49.0408 14.3068C48.9608 13.9509 48.9408 13.5789 49.2168 14.0149Z" fill="white"/>
<g style="mix-blend-mode:multiply" opacity="0.6">
<path d="M47.9128 11.1669C47.9928 10.1949 48.2528 9.69897 48.6968 9.68297C49.3648 9.65897 49.9488 11.1109 50.0088 11.2949C50.3208 12.2589 49.4248 11.3589 49.1488 11.0189C48.8768 10.6789 48.4728 11.2709 48.1888 11.7949C47.9048 12.3189 47.8608 11.6109 47.9088 11.1669H47.9128Z" fill="#BAB7A8"/>
</g>
<g style="mix-blend-mode:multiply">
<path d="M47.9127 11.1669C47.9927 10.195 48.2527 9.699 48.6967 9.683C49.3646 9.659 49.7246 10.779 49.7526 10.9749C49.7846 11.1669 49.6686 11.155 49.3927 10.815C49.1207 10.475 48.7127 10.039 48.4287 10.563C48.1447 11.087 47.8607 11.6109 47.9127 11.163V11.1669Z" fill="#BAB7A8"/>
</g>
<path d="M61.8002 12.0109C60.8482 12.7029 59.5363 12.5189 58.4683 12.2549C57.3284 11.9749 56.1084 11.6509 55.0684 11.1069C54.3165 10.715 53.5485 10.091 53.3245 9.259C53.2005 9.66299 53.1325 10.059 53.0765 10.475C53.0685 10.519 53.0085 10.5109 53.0005 10.4709C52.9925 10.4229 52.9885 10.379 52.9845 10.331C52.9645 10.339 52.9405 10.335 52.9405 10.307C52.9405 10.283 52.9405 10.263 52.9445 10.239C52.8725 9.483 52.9765 8.73501 53.1725 8.00704C53.4205 6.56708 53.8645 5.16713 54.5164 3.85517C55.2964 2.28322 56.8044 0.77927 58.6723 1.70724C60.6362 2.68321 61.6322 4.93113 62.2162 6.92707C62.4362 7.69104 62.7362 8.59903 62.6882 9.439C62.7842 10.419 62.6042 11.4269 61.8002 12.0109Z" fill="#EA9898"/>
<path d="M34.9052 10.6989C34.9692 11.3029 34.8412 12.6629 34.8252 12.5269C34.7452 11.9429 34.5452 10.9509 34.5132 11.0429C34.1652 11.9829 33.4692 12.7909 32.6572 13.3589C32.0493 13.7829 31.4013 14.1308 30.7333 14.4508C30.0693 14.7748 29.4173 15.1588 28.7134 15.3948C27.8414 15.6868 26.5134 15.9668 25.9014 15.0348C25.2855 14.0948 25.4695 12.7869 25.6735 11.7509C25.9014 10.5989 26.2534 9.44298 26.6814 8.35102C27.3054 6.74307 28.3014 4.51515 30.1133 3.93517C31.8493 3.37918 33.1732 4.74314 33.8212 6.20709C34.4412 7.61905 34.7492 9.15899 34.9092 10.6989H34.9052Z" fill="#EA9898"/>
<g style="mix-blend-mode:multiply" opacity="0.4">
<path d="M59.6643 12.4669C59.2523 12.4309 58.8483 12.3469 58.4683 12.2549C57.3284 11.9749 56.1084 11.6509 55.0684 11.1069C54.3165 10.715 53.5485 10.091 53.3245 9.259C53.2005 9.66299 53.1325 10.059 53.0765 10.475C53.0685 10.519 53.0085 10.5109 53.0005 10.4709C52.9925 10.4229 52.9885 10.379 52.9845 10.331C52.9645 10.339 52.9405 10.335 52.9405 10.307C52.9405 10.283 52.9405 10.263 52.9445 10.239C52.8725 9.483 52.9765 8.73501 53.1725 8.00704C53.4205 6.56708 53.8645 5.16713 54.5164 3.85517C55.2964 2.28322 56.8044 0.77927 58.6723 1.70724C60.3402 2.53521 61.3082 4.28316 61.9202 6.01111C61.4402 5.16713 60.9242 4.33915 60.1363 3.75117C59.6523 3.39118 59.0123 3.23918 58.4443 3.49117C57.7083 3.81516 57.3563 4.47516 57.1084 5.21113C56.5644 6.81508 56.3284 8.951 57.1364 10.4949C57.7003 11.5629 58.6243 12.1149 59.6603 12.4709L59.6643 12.4669Z" fill="#C94C57"/>
</g>
<g style="mix-blend-mode:multiply" opacity="0.4">
<path d="M34.8251 12.5269C34.7451 11.9429 34.5451 10.9509 34.5131 11.0429C34.1651 11.9829 33.4692 12.7909 32.6572 13.3589C32.3092 13.5989 31.9492 13.8149 31.5772 14.0189C31.7532 13.5229 31.9052 13.0269 32.0532 12.5749C32.3932 11.5429 32.3252 10.299 32.2172 9.23502C32.1172 8.26705 31.9452 7.13108 31.3532 6.32711C30.3173 4.92315 28.6573 6.35511 27.8694 7.23509C27.1894 7.99106 26.6454 8.85502 26.1814 9.76699C26.3334 9.287 26.4974 8.81503 26.6774 8.35504C27.3014 6.7471 28.2973 4.51918 30.1093 3.93919C31.8452 3.38321 33.1692 4.74717 33.8172 6.21112C34.4371 7.62307 34.7451 9.16302 34.9051 10.703C34.9691 11.3069 34.8411 12.6669 34.8251 12.5309V12.5269Z" fill="#C94C57"/>
</g>
<path d="M59.8323 16.7388C58.1683 14.0628 55.5244 16.2428 53.8605 17.6387C53.8325 17.6627 53.8525 17.7227 53.8925 17.7027C54.7164 17.3587 55.4004 16.7628 56.1964 16.3628C57.4563 15.7268 58.5163 16.2028 59.5723 16.9787C59.7363 17.0987 59.9403 16.9108 59.8323 16.7388Z" fill="#F9F7ED"/>
<path d="M35.6731 19.6186C33.9012 18.7547 31.5372 17.7707 29.8373 19.3587C29.7333 19.4547 29.5853 19.3667 29.6293 19.2267C30.5213 16.5188 34.3652 18.3587 35.7211 19.5347C35.7651 19.5707 35.7211 19.6466 35.6691 19.6186H35.6731Z" fill="#F9F7ED"/>
<path d="M59.4644 1.0513C58.9564 0.779309 58.5204 0.49931 57.9325 0.443312C57.5245 0.403313 57.1165 0.391312 56.7125 0.46731C55.9045 0.623305 55.1685 1.02731 54.5486 1.5633C53.3086 2.64326 52.4526 4.05921 51.7526 5.53517C51.7406 5.55516 51.7087 5.54315 51.7207 5.51915C52.3606 3.9072 53.2806 2.19528 54.6846 1.11531C55.3365 0.611328 56.1045 0.231326 56.9325 0.151329C57.9405 0.0553319 58.7284 0.343335 59.5324 0.939316C59.5884 0.983315 59.5284 1.0833 59.4644 1.0473V1.0513Z" fill="#F9F7ED"/>
<path d="M35.673 7.27505C35.681 7.30705 35.637 7.33105 35.621 7.30305C34.9251 5.9671 34.3171 4.32315 33.1211 3.33118C32.4171 2.7472 31.6011 2.52319 30.7052 2.79119C29.8332 3.05118 29.0652 3.53118 28.3972 4.13916C28.3732 4.16316 28.3333 4.11915 28.3573 4.09515C29.4492 2.95518 31.3412 1.84724 32.8651 2.83921C33.5611 3.29119 34.1251 3.98317 34.5171 4.71114C34.9571 5.52712 35.385 6.39508 35.673 7.27505Z" fill="#F9F7ED"/>
<path d="M50.8606 8.65102C46.8128 7.67505 41.8649 8.08705 38.097 9.85899C38.049 9.87899 38.0251 9.815 38.0571 9.787C39.661 8.33104 41.7929 7.74705 43.9209 7.59905C45.0648 7.51906 46.2048 7.50705 47.3487 7.51905C48.3567 7.53105 48.9567 7.72306 50.1767 8.26305C50.6766 8.48304 50.9406 8.67503 50.8606 8.65503V8.65102Z" fill="#F9F7ED"/>
<path d="M36.6811 75.5569C35.9171 76.2609 35.2292 76.9368 34.1892 77.1728C33.7332 77.2768 33.2412 77.3088 32.7732 77.3048C32.1893 77.3008 31.7373 77.4328 31.2293 77.7288C31.2253 77.7328 31.2213 77.7248 31.2253 77.7208C31.9773 77.0568 32.7533 77.1368 33.6932 77.0368C34.2732 76.9728 34.8932 76.8928 35.3852 76.5448C35.8252 76.2289 36.2251 75.8609 36.6531 75.5289C36.6691 75.5129 36.6971 75.5409 36.6811 75.5569Z" fill="#FFC7C7"/>
<path d="M35.813 75.0729C34.6211 75.6888 33.3291 76.1608 32.0051 76.3808C30.8252 76.5808 29.2732 76.2008 28.3613 77.1488C28.3533 77.1568 28.3413 77.1448 28.3453 77.1368C28.9813 76.1528 30.2732 76.3288 31.2812 76.2528C32.8531 76.1368 34.3571 75.6768 35.797 75.0409C35.813 75.0329 35.829 75.0609 35.813 75.0689V75.0729Z" fill="#FFC7C7"/>
<path d="M34.8971 74.9129C34.2811 75.1529 33.6331 75.3209 32.9852 75.4529C32.3452 75.5848 31.6532 75.7408 30.9972 75.6688C30.3132 75.5928 29.7253 75.2729 29.0613 75.1609C28.2773 75.0289 27.8013 75.2809 27.3053 75.8568C27.2773 75.8888 27.2333 75.8488 27.2533 75.8168C27.5493 75.3928 27.8453 75.0569 28.3693 74.9409C28.9813 74.8049 29.5173 75.0969 30.0732 75.3009C31.6132 75.8648 33.3651 75.2969 34.8811 74.8609C34.9171 74.8529 34.9331 74.9009 34.9011 74.9129H34.8971Z" fill="#FFC7C7"/>
<path d="M34.4769 74.0729C33.397 74.4449 32.325 74.3809 31.2131 74.2049C30.0091 74.0169 28.8131 73.5689 27.6652 74.1729C27.6292 74.1929 27.5932 74.1449 27.6292 74.1209C28.5051 73.4049 29.5251 73.6729 30.5291 73.9009C31.845 74.1969 33.137 74.3409 34.4729 74.0489C34.4889 74.0449 34.4969 74.0689 34.4809 74.0729H34.4769Z" fill="#FFC7C7"/>
<path d="M70.6159 63.2853C70.2239 63.6972 69.6159 63.8612 69.0719 63.9492C68.7199 64.0052 68.3439 64.0092 68 64.1052C67.776 64.1692 67.604 64.2852 67.432 64.4132C67.104 65.1692 66.48 65.7772 65.908 66.3491C65.1041 67.1531 64.4161 68.0371 64.0361 69.1251C63.6841 70.129 63.3401 71.101 62.4881 71.793C61.9282 72.249 61.1002 72.7289 60.3442 72.525C59.5082 72.301 59.0522 71.481 59.0522 70.645C59.0562 70.001 59.3203 69.3571 59.6402 68.7571C59.6242 67.8891 59.7362 67.0131 59.7842 66.1452C59.9042 66.0172 60.0202 65.8772 60.1322 65.7572C60.3122 65.5572 60.4762 65.3452 60.6322 65.1292C60.6922 65.6612 60.7482 66.1892 60.9242 66.7051C60.9482 66.7771 61.0682 66.8131 61.1042 66.7291C61.2722 66.3452 61.5442 66.0372 61.7922 65.7052C62.0562 65.3572 62.1442 65.0012 62.2362 64.5852C62.3521 64.0532 62.4881 63.5252 62.5961 62.9892C62.6281 62.8253 62.6641 62.6613 62.6881 62.4933C62.6921 62.5013 62.6961 62.5053 62.7001 62.5093C62.8081 61.9933 62.9201 61.4773 63.0401 60.9613C63.4041 59.3814 63.4281 57.5094 64.3121 56.1055C64.6761 55.5255 65.3041 54.9175 66.032 54.8695C66.744 54.8255 67.3 55.3135 67.416 56.0175C67.452 56.2415 67.468 56.4655 67.46 56.6855C67.46 56.6815 67.464 56.6775 67.468 56.6735C67.472 56.6655 67.484 56.6695 67.484 56.6815C67.872 56.1655 68.3919 55.7175 69.0799 55.8895C69.7559 56.0575 69.9719 56.8614 69.8999 57.4654C69.8799 57.6414 69.8439 57.8174 69.8079 57.9974C70.0959 57.8054 70.4359 57.7294 70.7079 58.0494C71.0639 58.4694 71.1159 59.1334 71.0599 59.6614C71.0119 60.1374 70.8399 60.6253 70.5599 61.0293C71.4359 61.3853 71.1879 62.7013 70.6159 63.2972V63.2853Z" fill="#EA9A98"/>
<g style="mix-blend-mode:multiply" opacity="0.4">
<path fill-rule="evenodd" clip-rule="evenodd" d="M70.6159 63.2853C70.2239 63.6973 69.6159 63.8612 69.0719 63.9492C68.7199 64.0052 68.3439 64.0092 68 64.1052C67.776 64.1692 67.604 64.2852 67.432 64.4132C67.104 65.1692 66.48 65.7772 65.908 66.3492C65.1041 67.1531 64.4161 68.0371 64.0361 69.1251C63.6841 70.129 63.3401 71.101 62.4881 71.793C61.9282 72.249 61.1002 72.729 60.3442 72.525C59.5082 72.301 59.0522 71.481 59.0522 70.645C59.0562 70.001 59.3203 69.3571 59.6402 68.7571C59.6242 67.8891 59.7362 67.0131 59.7842 66.1452C59.9042 66.0172 60.0202 65.8772 60.1322 65.7572C60.3122 65.5572 60.4762 65.3452 60.6322 65.1292C60.6922 65.6612 60.7482 66.1892 60.9242 66.7052C60.9482 66.7771 61.0682 66.8131 61.1042 66.7291C61.2722 66.3452 61.5442 66.0372 61.7922 65.7052C62.0562 65.3572 62.1442 65.0012 62.2362 64.5852C62.3521 64.0532 62.4881 63.5252 62.5961 62.9893C62.6281 62.8253 62.6641 62.6613 62.6881 62.4933C62.6921 62.5013 62.6961 62.5053 62.7001 62.5093C62.8081 61.9933 62.9201 61.4773 63.0401 60.9613C63.4041 59.3814 63.4281 57.5094 64.3121 56.1055C64.4961 55.8135 64.7441 55.5175 65.0401 55.2855C64.9961 55.3455 64.9561 55.4055 64.9161 55.4695C64.5081 56.1495 64.6681 56.8935 64.7201 57.6334C64.7841 58.5654 64.5361 59.4494 64.3801 60.3534C64.3441 60.5533 64.2041 61.3373 64.5881 61.3493C65.0081 61.3613 65.2081 60.7293 65.332 60.4294C65.636 59.7094 66.04 59.0974 66.46 58.4414C66.9 57.7574 67.108 57.0695 67.212 56.2735C67.24 56.0455 67.26 55.8055 67.264 55.5655C67.336 55.7015 67.384 55.8495 67.412 56.0135C67.448 56.2375 67.464 56.4615 67.456 56.6815C67.456 56.6775 67.46 56.6735 67.464 56.6695C67.468 56.6615 67.48 56.6655 67.48 56.6775C67.708 56.3735 67.98 56.0975 68.308 55.9535C68.016 56.2775 67.96 56.8335 67.96 57.3615C67.956 58.0454 67.828 58.5934 67.496 59.2094C67.128 59.8974 66.692 60.5213 66.544 61.3013C66.528 61.3893 66.608 61.4493 66.688 61.4133C67.168 61.1933 67.3 60.5613 67.68 60.2214C68.168 59.7774 68.6919 59.5174 69.0399 58.9294C69.4679 58.2134 69.7079 57.1534 69.6079 56.2455C69.8639 56.5775 69.9439 57.0654 69.8959 57.4654C69.8759 57.6414 69.8399 57.8174 69.8039 57.9974C69.9679 57.8894 70.1479 57.8214 70.3199 57.8374C69.8199 58.2054 69.6719 59.1094 69.5279 59.6374C69.3639 60.2494 69.0279 60.6133 68.564 61.0333C68.136 61.4173 67.732 61.8253 67.684 62.4253C67.68 62.4893 67.752 62.5333 67.808 62.5213C68.436 62.3493 68.552 61.6173 69.2439 61.5053C69.7479 61.4253 70.2079 61.1373 70.5079 60.7253C70.8079 60.3134 70.9879 59.8334 71.0759 59.3374C71.0759 59.4494 71.0679 59.5574 71.0599 59.6614C71.0399 59.8734 70.9919 60.0813 70.9239 60.2893C70.8759 60.2893 70.8239 60.3174 70.8319 60.3814C70.8359 60.4214 70.8399 60.4654 70.8439 60.5054C70.7639 60.6893 70.6719 60.8653 70.5559 61.0293C70.5919 61.0453 70.6239 61.0653 70.6599 61.0813C70.4959 61.1373 70.3719 61.2453 70.2559 61.4093C70.1519 61.5533 70.0799 61.7293 69.9959 61.8853C69.8519 62.1453 69.5719 62.3173 69.3319 62.4773C69.2039 62.5613 67.932 63.3053 68.5079 63.5452C69.2479 63.8492 70.1119 63.2333 70.6199 62.7693C70.9359 62.4773 71.0559 62.0773 71.0919 61.6573C71.2279 62.1973 70.9959 62.9053 70.6199 63.3013L70.6159 63.2853ZM67.196 63.3652C67.18 63.3052 67.128 63.2893 67.08 63.3013C66.88 62.8173 66.468 62.4093 65.956 62.2733C65.2641 62.0893 63.9201 62.0653 63.7401 62.9773C63.6601 63.3933 64.0601 63.5613 64.3881 63.6573C64.7161 63.7532 65.0121 63.8172 65.3201 63.9892C65.6481 64.1732 65.852 64.4892 66.148 64.7092C66.512 64.9852 67.012 65.1372 67.256 64.6452C67.44 64.2692 67.292 63.7452 67.192 63.3652H67.196Z" fill="#C94C57"/>
</g>
<g style="mix-blend-mode:multiply" opacity="0.4">
<path d="M66.008 66.2452C65.976 66.2771 65.94 66.3091 65.908 66.3451C65.1041 67.1491 64.4161 68.0331 64.0361 69.1211C63.6841 70.125 63.3401 71.097 62.4881 71.789C61.9282 72.245 61.1002 72.7249 60.3442 72.521C59.5082 72.297 59.0522 71.477 59.0522 70.641C59.0562 69.997 59.3203 69.3531 59.6402 68.7531C59.6242 67.8851 59.7362 67.0091 59.7842 66.1412C59.9042 66.0132 60.0202 65.8732 60.1322 65.7532C60.3122 65.5532 60.4762 65.3412 60.6322 65.1252C60.6922 65.6572 60.7482 66.1852 60.9242 66.7011C60.9482 66.7731 61.0682 66.8091 61.1042 66.7251C61.2722 66.3412 61.5442 66.0332 61.7922 65.7012C61.8362 65.6452 62.2401 64.6892 62.2721 64.6292C62.2441 64.7092 61.9842 65.7452 61.9562 65.8212C61.7282 66.4731 61.4442 67.1131 61.0442 67.6731C61.0282 67.4731 60.9642 67.2851 60.7802 67.1291C60.7322 67.0891 60.6602 67.0891 60.6282 67.1491C60.0082 68.2011 59.5842 69.8211 59.8802 71.037C60.0082 71.553 60.5082 71.745 60.9722 71.849C61.7522 72.025 62.3361 71.701 62.8841 71.161C63.3121 70.741 63.4161 70.189 63.4041 69.6131C63.3841 68.7971 63.2921 68.1491 63.9601 67.5491C64.5161 67.0491 65.2681 66.7411 65.888 66.3292C65.928 66.3052 65.964 66.2732 66.004 66.2492L66.008 66.2452Z" fill="#C94C57"/>
</g>
<g style="mix-blend-mode:multiply" opacity="0.6">
<path d="M61.9203 72.181C61.4363 72.465 60.8723 72.661 60.3403 72.517C59.5043 72.293 59.0483 71.473 59.0483 70.6371C59.0523 69.9931 59.3163 69.3491 59.6363 68.7491C59.6203 67.8811 59.7323 67.0052 59.7803 66.1372C59.8883 66.0252 59.9923 65.9012 60.0923 65.7852C60.0683 66.2052 60.0683 66.6252 60.0243 67.0412C59.9763 67.4851 59.9163 67.9211 59.8523 68.3611C59.9403 68.2091 60.0283 68.0571 60.1123 67.9132C59.8883 68.5051 59.6043 69.2331 59.4723 69.9331C59.4363 70.0731 59.4083 70.2171 59.3923 70.3651C59.3723 70.529 59.3763 70.7051 59.4043 70.8811C59.4523 71.485 59.7203 72.001 60.3843 72.289C60.8723 72.501 61.4283 72.397 61.9163 72.177L61.9203 72.181Z" fill="#C94C57"/>
</g>
<g style="mix-blend-mode:multiply" opacity="0.6">
<path fill-rule="evenodd" clip-rule="evenodd" d="M70.6159 63.2853C70.2239 63.6973 69.6159 63.8613 69.0719 63.9493C68.7199 64.0053 68.3439 64.0093 67.9999 64.1053C67.776 64.1693 67.604 64.2853 67.432 64.4133C67.16 65.0412 66.684 65.5652 66.204 66.0532C66.604 65.5332 66.976 64.9932 67.2 64.3732C67.488 63.5573 67.184 62.8213 66.536 62.2973C65.916 61.7933 65.096 61.7493 64.3761 61.9973C65.076 61.4733 65.952 61.5773 66.632 62.0933C66.708 61.4733 67.22 60.9774 67.66 60.5694C68.2399 60.0334 68.8959 59.5854 69.2039 58.8254C69.4559 58.2014 69.8839 57.0895 69.3839 56.4775C68.7199 55.6655 67.932 56.5255 67.432 57.0575C67.348 57.7375 67.096 58.3975 66.74 58.9854C66.496 59.3974 66.216 59.7854 65.948 60.1814C65.64 60.6414 65.432 61.1014 65.2441 61.6213C65.2361 61.6373 65.212 61.6294 65.216 61.6134C65.304 60.7414 65.664 60.0734 66.136 59.3534C66.7 58.4974 67.292 57.3895 67.144 56.3255C67.08 55.8775 66.908 55.2815 66.376 55.1975C65.948 55.1295 65.504 55.3135 65.176 55.5815C64.5801 56.0655 64.2481 56.7975 64.0481 57.5255C63.8601 58.1934 63.7521 58.8774 63.6281 59.5574C63.4401 60.5894 63.1681 61.5934 62.9281 62.6133C62.7001 63.5773 62.6121 64.5932 62.2481 65.5172C61.9081 66.3652 61.4722 67.1532 60.9562 67.9011C60.9482 67.9131 60.9282 67.9011 60.9362 67.8851C61.5002 66.8652 62.0361 65.8412 62.2641 64.6853C62.3801 64.1093 62.4921 63.5333 62.6121 62.9613C62.6441 62.8053 62.6761 62.6453 62.7001 62.4893C62.7041 62.4973 62.7081 62.5013 62.7121 62.5053C62.8201 61.9893 62.9321 61.4733 63.0521 60.9574C63.4161 59.3774 63.4401 57.5055 64.3241 56.1015C64.688 55.5215 65.316 54.9135 66.044 54.8655C66.756 54.8215 67.312 55.3096 67.428 56.0135C67.464 56.2375 67.48 56.4615 67.472 56.6815C67.472 56.6775 67.476 56.6735 67.48 56.6695C67.484 56.6615 67.496 56.6655 67.496 56.6775C67.8839 56.1615 68.4039 55.7135 69.0919 55.8855C69.7679 56.0535 69.9839 56.8575 69.9119 57.4615C69.8919 57.6375 69.8559 57.8135 69.8199 57.9934C70.1079 57.8015 70.4479 57.7255 70.7199 58.0454C71.0759 58.4654 71.1278 59.1294 71.0718 59.6574C71.0238 60.1334 70.8518 60.6214 70.5719 61.0254C71.4478 61.3813 71.1998 62.6973 70.6279 63.2933L70.6159 63.2853ZM67.476 63.1013C67.704 62.6053 68.1399 62.1613 68.5959 61.9013C68.8679 61.7493 69.1839 61.6853 69.4679 61.5493C69.8319 61.3693 70.1639 61.0894 70.3839 60.7454C70.7279 60.2014 70.8559 59.5294 70.7439 58.8934C70.7039 58.6654 70.6439 58.3334 70.4439 58.1815C70.2159 58.0135 69.9559 58.1335 69.7359 58.2774C69.5639 58.9054 69.2759 59.5094 68.8079 59.9614C68.4479 60.3134 68.044 60.6134 67.684 60.9694C67.296 61.3573 67.056 61.7613 66.832 62.2573C67.108 62.5013 67.34 62.7853 67.476 63.1013ZM70.7759 62.5213C70.9478 62.0053 70.8839 61.4653 70.4559 61.1494C70.2919 61.3493 70.0999 61.5294 69.8719 61.6613C69.4359 61.9093 68.8999 61.9853 68.4919 62.2733C68.076 62.5693 67.868 62.9613 67.56 63.3333C67.612 63.5333 67.62 63.7413 67.58 63.9613C68.1359 63.6733 68.9239 63.7413 69.5079 63.5693C70.0719 63.4013 70.5799 63.1053 70.7799 62.5173L70.7759 62.5213Z" fill="#C94C57"/>
</g>
<path d="M64.3201 57.1534C64.3161 57.1534 64.3161 57.1614 64.3201 57.1614C64.3281 57.1614 64.3241 57.1534 64.3201 57.1534Z" fill="#FFC7C7"/>
<path d="M66.9761 56.1455C66.9841 56.2135 66.8921 56.2255 66.8681 56.1695C66.6281 55.6575 65.9881 55.5695 65.5041 55.7815C65.0241 55.9935 64.7521 56.3855 64.4841 56.8174C64.4641 56.8454 64.4042 56.8374 64.4202 56.7974C64.6042 56.1855 65.0281 55.5535 65.7001 55.4215C66.3001 55.3015 66.9001 55.4695 66.9841 56.1495L66.9761 56.1455Z" fill="#FFC7C7"/>
<path d="M69.4799 57.2174C69.4879 57.2694 69.4079 57.3015 69.3799 57.2535C69.2279 56.9695 68.9799 56.4335 68.5759 56.5175C68.252 56.5855 68.024 56.8495 67.756 57.0215C67.716 57.0455 67.68 56.9935 67.716 56.9655C68.044 56.6815 68.332 56.1775 68.8319 56.2815C69.2319 56.3655 69.4159 56.8655 69.4799 57.2174Z" fill="#FFC7C7"/>
<path d="M70.7159 59.6014C70.7119 59.6294 70.6719 59.6254 70.6679 59.5974C70.6359 59.3414 70.6759 59.0814 70.6399 58.8214C70.5999 58.5414 70.3679 58.0134 70.1079 58.4694C70.0879 58.5014 70.0279 58.4894 70.0399 58.4494C70.1199 58.1614 70.4119 57.9734 70.6359 58.2654C70.9159 58.6254 70.7799 59.1814 70.7159 59.5974V59.6014Z" fill="#FFC7C7"/>
<path d="M70.6879 62.5013C70.6679 62.5293 70.6239 62.5213 70.6279 62.4813C70.6679 62.2173 70.8199 61.6333 70.4239 61.5853C70.3719 61.5773 70.3839 61.5093 70.4279 61.5013C70.9599 61.4133 70.8519 62.2253 70.6879 62.4973V62.5013Z" fill="#FFC7C7"/>
<path d="M67.1959 64.0453C67.1959 64.0973 67.1159 64.1212 67.1039 64.0652C66.7799 62.7373 65.288 62.2813 64.072 62.6173C64.028 62.6293 64.008 62.5733 64.052 62.5533C65.296 61.9093 67.1959 62.4133 67.1999 64.0453H67.1959Z" fill="#FFC7C7"/>
</svg>
