<svg width="88" height="72" viewBox="0 0 88 72" fill="none" xmlns="http://www.w3.org/2000/svg">
<path d="M12.7415 9.73648C10.891 8.15244 10.9414 4.64953 14.0555 2.70188C16.1327 1.40584 17.8932 1.76945 19.3368 3.79991C16.6259 6.28038 14.4299 8.26044 12.7415 9.74008V9.73648Z" fill="#3A3438"/>
<g style="mix-blend-mode:screen">
<path d="M14.4336 6.21918C11.928 7.43961 11.8668 4.69273 13.3968 3.4111C15.1896 1.86305 16.7737 1.80185 18.1597 3.22749C18.8942 4.01951 16.9393 4.99874 14.4372 6.21918H14.4336Z" fill="#3A3438"/>
</g>
<g style="mix-blend-mode:multiply">
<g style="mix-blend-mode:multiply">
<path d="M19.3369 3.79987C16.6261 6.28034 14.43 8.2604 12.7416 9.74004C11.7083 8.85442 11.2691 7.37117 11.6255 5.89513C11.6507 6.99316 12.2952 7.68078 13.6992 7.28477C15.5964 6.75196 18.1525 4.20308 18.9589 3.36066C19.1245 3.52986 19.2505 3.67387 19.3406 3.79987H19.3369Z" fill="#3A3438"/>
</g>
</g>
<path d="M17.4683 2.8494C15.5458 2.46419 14.005 3.20221 12.8494 5.06346C13.0402 3.52262 15.445 1.60016 17.4683 2.8494Z" fill="white"/>
<path d="M15.1098 47.2567C14.5194 49.3232 13.929 51.098 13.3386 52.574C12.4529 54.7881 12.0101 57.193 13.0218 57.9526C14.037 58.7122 14.9838 60.6743 13.0218 61.0559C12.4313 61.5635 11.8625 61.7111 11.3153 61.4987C10.6169 62.4491 8.46403 61.9415 6.88358 60.2963C5.30314 58.6474 -0.583031 51.0548 0.0469878 40.0421C0.680606 31.5602 2.13505 26.3077 3.15028 24.2772C4.75592 35.7148 8.74123 43.3722 15.1134 47.2567H15.1098Z" fill="#3A3438"/>
<path d="M9.51538 59.0578C9.67019 59.0506 9.86459 59.0722 10.0986 59.119C10.437 59.191 10.9086 59.3494 11.2542 59.7058C11.3334 59.7994 11.4126 59.8966 11.4666 60.0082C11.5242 60.1162 11.5602 60.2314 11.5818 60.3466C11.6034 60.4582 11.607 60.5734 11.5962 60.6742C11.5926 60.7786 11.5674 60.8723 11.5494 60.9623C11.5242 61.0487 11.5026 61.1243 11.4702 61.1891C11.4414 61.2539 11.4198 61.3115 11.391 61.3583C11.3586 61.4195 11.3334 61.4663 11.3154 61.4987C11.3226 61.4591 11.337 61.4087 11.3586 61.3439C11.373 61.2971 11.3874 61.2359 11.4018 61.1675C11.4198 61.0991 11.427 61.0199 11.4414 60.9407C11.4486 60.8579 11.4594 60.7679 11.4558 60.6706C11.4558 60.5734 11.4414 60.4798 11.4198 60.379C11.3982 60.2782 11.355 60.1846 11.3082 60.091C11.2614 59.9974 11.193 59.9146 11.121 59.8354C11.0454 59.7598 10.9662 59.6842 10.8726 59.6194C10.7826 59.5582 10.6926 59.5006 10.6026 59.4502C10.419 59.3494 10.2354 59.2774 10.0734 59.2198C9.91139 59.1622 9.77459 59.119 9.67739 59.0938C9.61259 59.0758 9.56219 59.0614 9.52259 59.0542L9.51538 59.0578Z" fill="black"/>
<path d="M11.8554 58.7374C11.9922 58.7482 12.1578 58.7878 12.3522 58.8526C12.4962 58.903 12.6618 58.9786 12.8238 59.083C12.9894 59.1874 13.1478 59.3314 13.2702 59.5114C13.3891 59.695 13.4574 59.9146 13.443 60.1162C13.443 60.1666 13.4395 60.217 13.4323 60.2638C13.4251 60.3106 13.4142 60.3574 13.3998 60.4006C13.3782 60.4906 13.3422 60.5662 13.3098 60.6382C13.2414 60.775 13.1658 60.8794 13.1118 60.9478C13.0722 60.9946 13.0434 61.0306 13.0218 61.0558C13.0362 61.0234 13.0542 60.9838 13.0794 60.9298C13.119 60.8506 13.1623 60.7354 13.2091 60.595C13.2271 60.523 13.2522 60.4474 13.2594 60.3682C13.2666 60.3286 13.2702 60.2854 13.2702 60.2458C13.2738 60.2026 13.2738 60.163 13.2702 60.1162C13.2702 60.0298 13.245 59.9434 13.2234 59.857C13.1946 59.7742 13.1514 59.6914 13.1046 59.6158C13.0038 59.461 12.8634 59.3278 12.723 59.2198C12.579 59.1082 12.4314 59.0218 12.3018 58.9498C12.1722 58.8814 12.0606 58.8238 11.9814 58.7878C11.9274 58.7626 11.8842 58.7446 11.8518 58.7302L11.8554 58.7374Z" fill="black"/>
<g style="mix-blend-mode:multiply" opacity="0.5">
<g style="mix-blend-mode:multiply" opacity="0.5">
<path d="M13.3386 52.574C13.3062 52.6532 13.2774 52.7324 13.245 52.8116C13.533 49.8488 12.0173 48.5167 8.50003 44.607C4.94672 40.6577 4.3527 35.4591 2.77585 37.9612C1.19541 40.4633 1.39342 52.3076 7.7764 56.7142C10.6709 58.1434 11.9093 57.7618 12.4565 56.0013C12.3989 56.8834 12.5501 57.5998 13.0218 57.9526C14.037 58.7122 14.9838 60.6743 13.0218 61.0559C12.4313 61.5635 11.8625 61.7111 11.3153 61.4987C10.6169 62.4491 8.46403 61.9415 6.88358 60.2963C5.30314 58.6474 -0.583031 51.0548 0.0469878 40.0421C0.680606 31.5602 2.13505 26.3077 3.15028 24.2772C4.75592 35.7148 8.74123 43.3722 15.1134 47.2567C14.523 49.3232 13.9326 51.098 13.3422 52.574H13.3386Z" fill="#3A3438"/>
</g>
</g>
<g style="mix-blend-mode:screen">
<path d="M11.2974 61.0018C10.9266 62.1359 9.5117 61.8479 10.0913 61.0198C10.6673 59.9218 10.0193 59.371 8.15088 59.371C10.653 58.8202 11.6682 59.8678 11.2974 61.0054V61.0018Z" fill="#3A3438"/>
</g>
<g style="mix-blend-mode:screen">
<path d="M13.2051 60.3323C13.2051 61.3367 11.9811 61.7759 12.1395 60.5843C12.3051 59.4575 11.7723 58.8922 10.541 58.8922C12.7047 58.7662 13.2051 59.3315 13.2051 60.3359V60.3323Z" fill="#3A3438"/>
</g>
<g style="mix-blend-mode:screen">
<path d="M14.0799 59.7959C14.0799 60.6275 13.6083 60.9011 13.7055 59.9147C13.8099 58.9786 13.3779 58.543 12.4131 58.6006C13.7631 58.4962 14.0799 58.9642 14.0799 59.7923V59.7959Z" fill="#3A3438"/>
</g>
<path d="M14.6132 47.8939C10.3579 45.8419 6.85857 40.3301 4.12249 31.3586C1.72842 21.6672 2.52764 19.8419 6.97377 14.7117C12.2191 9.6932 16.8957 6.04629 19.8621 3.07981C22.825 0.116919 24.6503 -0.682305 28.8696 0.570531C31.6849 1.40936 34.0034 2.43539 35.825 3.65222C44.6417 3.27061 50.877 4.37224 54.5275 6.95712C49.815 7.71674 36.509 21.3647 14.6132 47.8939Z" fill="white"/>
<path d="M54.5236 6.9571C49.8111 7.71672 36.5051 21.3647 14.6093 47.8939C10.3539 45.8418 6.85466 40.3301 4.11858 31.3586C1.72451 21.6671 2.52373 19.8419 6.96986 14.7117C8.65111 13.1061 10.2747 11.6372 11.7976 10.2872C-2.58483 24.7632 13.1945 40.3049 15.0809 36.2476C24.6032 15.763 44.2057 6.8923 39.0756 5.35145C33.9454 3.81421 23.1739 7.78872 24.0704 5.73666C24.9668 3.6846 33.499 4.54863 29.7153 1.88815C24.5816 -1.71915 21.3847 2.18696 19.221 3.6918C20.9707 2.64057 22.6087 -1.43475 28.8657 0.570512C31.663 1.46694 33.9815 2.49297 35.8211 3.6522C44.6378 3.27059 50.8731 4.37222 54.5236 6.9571Z" fill="#D8D2D5"/>
<path d="M84.3182 52.8693C81.3373 57.103 77.9388 59.8607 75.5016 62.5535C73.0643 65.2464 74.1551 66.7225 74.8607 67.0429C75.5663 67.3633 77.0388 67.8781 76.9776 68.7745C76.9128 69.6745 75.8867 70.3766 74.9903 69.8005C74.0075 70.3982 73.1723 70.5278 72.4883 70.1858C71.7178 70.6142 70.8214 70.7618 69.7954 70.6358C68.2581 70.445 67.1025 69.8041 65.3061 66.8521C63.5096 63.9 63.128 62.0423 61.3928 59.155C60.5071 57.6754 61.1371 56.2678 62.6744 54.0249C50.2972 57.1678 40.1449 55.6917 37.1928 54.0897C35.0436 54.8061 35.1264 56.5378 35.76 59.3602C36.3936 62.1863 37.6176 67.4569 38.7553 68.0077C39.8929 68.5549 41.4122 68.6413 41.4122 69.8617C41.4122 71.0858 40.0189 71.633 39.3457 71.129C38.8381 71.633 37.8265 71.8022 36.6024 71.1686C35.7168 71.9282 34.3091 72.659 31.3751 70.9814C26.1369 67.9429 19.6423 61.5527 15.6606 53.8017C11.6789 46.0507 16.2906 37.3528 22.994 27.7189C36.2964 11.6913 42.4778 7.28832 53.3753 6.5539C64.1288 5.71508 73.5143 13.7793 81.5281 30.743C89.7976 46.2307 87.2991 48.6355 84.3182 52.8657V52.8693Z" fill="#3A3438"/>
<g style="mix-blend-mode:multiply" opacity="0.5">
<g style="mix-blend-mode:multiply" opacity="0.5">
<path d="M84.3178 52.8693C83.8714 53.5065 83.4142 54.1005 82.9534 54.6765C83.1586 54.3561 83.3674 54.0213 83.5834 53.6757C85.423 50.7308 84.7786 45.0246 81.6537 45.9462C78.5216 46.8679 74.8423 49.442 69.7806 52.8477C64.7188 56.2533 66.4648 59.4754 67.5701 62.6975C68.6753 65.9196 70.515 66.9313 71.8974 66.8377C73.1646 66.7513 73.5031 65.97 74.1187 64.7712C73.7263 66.0744 74.3851 66.8233 74.8639 67.0429C75.5695 67.3633 77.042 67.8781 76.9808 68.7745C76.916 69.6745 75.8899 70.3766 74.9935 69.8005C74.0107 70.3982 73.1755 70.5278 72.4914 70.1858C71.721 70.6142 70.8246 70.7618 69.7986 70.6358C68.2613 70.445 67.1057 69.8041 65.3092 66.8521C63.5128 63.9 63.1312 62.0423 61.3959 59.155C60.5103 57.6754 61.1403 56.2678 62.6775 54.0249C50.3004 57.1678 40.1481 55.6917 37.196 54.0897C35.0468 54.8061 35.1295 56.5378 35.7632 59.3602C36.3968 62.1863 37.6208 67.4569 38.7584 68.0077C39.8961 68.5549 41.4153 68.6413 41.4153 69.8617C41.4153 71.0858 40.0221 71.633 39.3489 71.129C38.8413 71.633 37.8296 71.8022 36.6056 71.1686C35.72 71.9282 34.3123 72.659 31.3782 70.9814C26.1401 67.9429 19.6455 61.5527 15.6638 53.8017C11.6821 46.0506 16.2938 37.3528 22.9972 27.7189C24.7252 25.6345 26.3309 23.7516 27.8429 22.0451C7.39793 47.6131 31.443 66.3516 33.0451 67.1041C34.6543 67.8601 36.818 67.3165 35.5256 64.728C32.7535 58.2586 31.461 53.4525 35.5256 50.3096C39.5937 47.1667 41.4945 46.9687 39.6441 42.3461C37.7972 37.7236 35.5256 37.5544 41.6241 30.347C47.7263 23.136 58.631 15.0033 62.3284 15.9286C66.0257 16.8538 71.3862 16.6666 65.4712 11.1224C63.5524 9.32238 61.3383 8.08754 59.2287 7.23792C67.9661 9.92719 75.4003 17.7646 81.5313 30.7466C89.8007 46.2343 87.3023 48.6391 84.3214 52.8693H84.3178Z" fill="#3A3438"/>
</g>
</g>
<g style="mix-blend-mode:multiply">
<path d="M61.1945 58.7518C60.6293 57.4126 61.2737 56.0661 62.6742 54.0213C50.297 57.1642 40.1447 55.6881 37.1926 54.0861C35.0434 54.8025 35.1262 56.5342 35.7598 59.3566C35.0614 56.761 34.0677 54.1329 36.5518 53.3049C42.0744 51.188 44.3749 46.5871 44.3749 47.5951C44.3749 48.6103 44.7421 49.1611 42.0744 51.6452C38.7623 54.0393 49.5302 54.2229 56.8924 53.8521C64.2546 53.4849 65.7271 52.6568 69.0428 50.7236C67.8475 52.4732 65.8207 53.4849 63.0594 55.3245C61.6698 56.2497 61.2593 57.6142 61.1945 58.7446V58.7518Z" fill="#3A3438"/>
</g>
<path d="M40.3069 54.2914C39.0145 55.6702 39.1225 56.833 40.6309 57.7763C42.0494 58.7447 42.503 60.4259 40.5013 60.2963C39.9217 61.0704 38.8885 60.3611 38.6941 60.6816C37.0164 61.9092 35.6592 61.1352 34.8852 58.7447C34.1112 56.3578 34.1111 51.9009 40.3069 54.2914Z" fill="#3A3438"/>
<g style="mix-blend-mode:multiply">
<path d="M40.3069 54.2914C39.0145 55.6702 39.1225 56.833 40.6309 57.7763C42.0494 58.7447 42.503 60.4259 40.5013 60.2963C39.9217 61.0704 38.8885 60.3611 38.6941 60.6816C37.0164 61.9092 35.6592 61.1352 34.8852 58.7447C34.1112 56.3578 34.1111 51.9009 40.3069 54.2914Z" fill="#3A3438"/>
</g>
<path d="M37.5311 58.6834C37.6607 58.651 37.8191 58.651 38.0135 58.6762C38.0891 58.6834 38.1647 58.7014 38.2439 58.723C38.3267 58.7482 38.4096 58.7698 38.496 58.8166C38.6688 58.8922 38.8488 59.0146 38.9784 59.1946C39.0432 59.2846 39.0936 59.389 39.126 59.4934C39.1584 59.6015 39.1656 59.7095 39.1584 59.8103C39.1548 59.9111 39.1296 60.0047 39.1008 60.0911C39.0756 60.1739 39.0396 60.2495 39 60.3107C38.964 60.3791 38.9244 60.4331 38.8848 60.4763C38.8524 60.5231 38.8128 60.5591 38.7876 60.5879C38.748 60.6275 38.712 60.6599 38.6868 60.6779C38.694 60.6455 38.7048 60.6023 38.7192 60.5519C38.7408 60.4727 38.7696 60.3575 38.7948 60.2315C38.8092 60.1667 38.8128 60.0983 38.8236 60.0263C38.8308 59.9543 38.8272 59.8823 38.82 59.8139C38.8164 59.7419 38.7948 59.6735 38.7696 59.6087C38.7408 59.5439 38.712 59.479 38.6652 59.4214C38.5788 59.3026 38.4599 59.1982 38.3267 59.1082C38.1971 59.0218 38.064 58.9462 37.9416 58.885C37.7003 58.7626 37.5239 58.6798 37.5239 58.6798L37.5311 58.6834Z" fill="black"/>
<path d="M39.3384 58.4855C39.3672 58.4747 39.4032 58.4639 39.45 58.4567C39.5256 58.4423 39.6337 58.4315 39.7633 58.4423C39.8281 58.4495 39.9 58.4567 39.9757 58.4783C40.0513 58.4927 40.1233 58.5323 40.2025 58.5683C40.2745 58.6151 40.3573 58.6583 40.4221 58.7267C40.4941 58.7879 40.5517 58.8635 40.6021 58.9463C40.6525 59.0291 40.6849 59.1191 40.7137 59.2055C40.7317 59.2955 40.7533 59.3855 40.7533 59.4683C40.7497 59.5511 40.7461 59.6339 40.7389 59.7095C40.7209 59.7851 40.7029 59.8535 40.6849 59.9147C40.6705 59.9795 40.6453 60.0299 40.6201 60.0767C40.5985 60.1235 40.5733 60.1631 40.5553 60.1955C40.5301 60.2387 40.5085 60.2711 40.4941 60.2927C40.4905 60.2639 40.4869 60.2243 40.4797 60.1775C40.4725 60.1055 40.4761 60.0047 40.4617 59.8859C40.4545 59.8283 40.4473 59.7671 40.4437 59.7023C40.4329 59.6375 40.4185 59.5727 40.4077 59.5079C40.3969 59.4431 40.3681 59.3819 40.3501 59.3207C40.3213 59.2595 40.2997 59.1983 40.2637 59.1443C40.2313 59.0903 40.1953 59.0363 40.1484 58.9895C40.1088 58.9355 40.0549 58.9031 40.0081 58.8563C39.9541 58.8203 39.9073 58.7771 39.8497 58.7483C39.7993 58.7123 39.7417 58.6835 39.6949 58.6547C39.5941 58.6043 39.5004 58.5611 39.4356 58.5323C39.3924 58.5143 39.3564 58.4963 39.3276 58.4891L39.3384 58.4855Z" fill="black"/>
<g style="mix-blend-mode:screen">
<path d="M38.5606 59.5223C39.0503 60.6239 37.621 61.3187 37.8262 60.8291C37.963 59.8499 37.5778 59.1803 36.6814 58.8275C37.6066 58.5538 38.233 58.7842 38.5606 59.5223Z" fill="#3A3438"/>
</g>
<g style="mix-blend-mode:screen">
<path d="M40.5803 59.6843C40.5803 60.5015 39.6803 60.5411 39.7631 59.8895C39.7919 59.1011 39.3958 58.6655 38.5786 58.5827C39.5614 58.1759 40.5803 58.8671 40.5803 59.6879V59.6843Z" fill="#3A3438"/>
</g>
<g style="mix-blend-mode:screen">
<path d="M40.1016 58.2695C41.1924 58.4351 41.5596 59.0615 41.2032 60.1487C41.8584 59.9867 42.186 58.7195 40.1016 58.2695Z" fill="#3A3438"/>
</g>
<path d="M40.5294 24.2484C40.3746 17.8222 46.7 12.9693 50.8473 14.7369C53.6122 15.9178 54.0334 18.5134 52.111 22.5276C46.394 32.2874 40.6302 27.0277 40.5294 24.2484Z" fill="#3A3438"/>
<g style="mix-blend-mode:multiply">
<g style="mix-blend-mode:multiply">
<path d="M52.1109 22.5275C46.394 32.2874 40.6302 27.0276 40.5294 24.2484C40.4898 22.6031 40.8786 21.0623 41.541 19.705C41.5014 19.8454 41.451 20.0002 41.3862 20.1622C40.3782 22.7111 40.3782 25.098 42.4482 26.4264C44.5183 27.7513 46.3255 25.4184 44.3599 24.9396C41.3862 24.036 41.7066 20.3747 45.1555 17.9842C48.608 15.5937 50.4657 16.6053 51.0489 18.6754C51.6321 20.7455 52.5897 17.509 51.7401 16.0185C50.7213 14.3697 47.8736 14.6901 46.0592 15.1005C47.6756 14.3121 49.3928 14.1177 50.8473 14.7369C53.6122 15.9177 54.0334 18.5134 52.1109 22.5275Z" fill="#3A3438"/>
</g>
</g>
<path d="M45.4796 18.3802C48.1545 16.5154 49.7421 16.3678 50.239 17.9374C50.8726 19.9391 50.347 24.6876 46.3653 24.9108C42.3799 25.134 41.1631 21.2603 45.4796 18.3838V18.3802Z" fill="#F79797"/>
<g style="mix-blend-mode:multiply">
<g style="mix-blend-mode:multiply">
<path d="M46.3655 24.9108C43.7518 25.0548 42.3297 23.4384 42.877 21.4979C42.7078 26.4085 49.1339 22.6104 49.0727 19.2767C49.0439 17.707 48.0323 17.4082 46.9523 17.5414C48.1799 16.9654 49.7927 16.5334 50.2392 17.941C50.8728 19.9427 50.3472 24.6912 46.3655 24.9144V24.9108Z" fill="#F79797"/>
</g>
</g>
<g style="mix-blend-mode:screen">
<path d="M47.7369 16.0258C43.9172 17.3938 41.9659 19.6043 41.8867 22.6608C41.7643 24.2304 40.1371 21.3359 42.9128 18.139C45.6885 14.9421 50.0878 14.6397 47.7405 16.0294L47.7369 16.0258Z" fill="#3A3438"/>
</g>
<path d="M44.9253 16.8034C42.9452 18.0994 41.8616 19.8095 41.6816 21.9372C41.2496 20.3711 42.5996 17.941 44.9253 16.8034Z" fill="white"/>
<path d="M70.1695 20.9111C69.5287 18.2794 70.3891 16.375 72.7508 15.1977C76.2897 13.4265 82.2082 16.3102 82.4602 22.6319C82.4098 28.4497 77.5533 29.3101 75.0261 27.2869C73.5572 25.566 70.8283 21.5699 70.1695 20.9147V20.9111Z" fill="#3A3438"/>
<g style="mix-blend-mode:multiply">
<g style="mix-blend-mode:multiply">
<path d="M81.661 19.2875C81.6754 19.2839 81.6862 19.2803 81.697 19.2767C82.1326 20.2523 82.4098 21.3719 82.4602 22.6284C82.4098 28.4462 77.5533 29.3066 75.0261 27.2833C73.5572 25.5625 70.8283 21.5664 70.1695 20.9111C69.5287 18.2795 70.3891 16.375 72.7508 15.1978C74.1332 14.5065 75.8828 14.5281 77.5101 15.187C76.124 14.755 74.6696 14.7298 73.7552 15.9286C71.5771 18.7943 77.6757 15.5542 79.5442 19.7879C81.4126 24.0216 79.483 25.1413 78.9826 25.6381C78.4857 26.1385 84.1523 26.3869 81.661 19.2875Z" fill="#3A3438"/>
</g>
</g>
<path d="M76.0774 25.0368C73.8993 24.0756 72.8697 19.4603 75.4366 18.625C77.1466 18.0706 78.3634 18.6898 79.0907 20.4863C80.6927 24.1404 78.259 26.0016 76.0774 25.0368Z" fill="#F79797"/>
<g style="mix-blend-mode:multiply">
<path d="M79.328 21.1019C80.4117 24.3456 78.1328 25.944 76.0771 25.0368C73.8991 24.0756 72.8695 19.4602 75.4364 18.625C76.412 18.3082 77.1788 18.5026 77.7476 18.8662C77.0708 18.5674 76.2571 18.427 75.5299 18.9238C73.9351 20.0219 75.4292 24.756 77.8232 24.2556C80.0553 23.7912 79.4252 21.4223 79.328 21.1019Z" fill="#F79797"/>
</g>
<g style="mix-blend-mode:screen">
<path d="M80.0375 17.1814C82.9248 20.3567 81.3875 23.4816 80.9051 21.0767C80.3255 18.4811 78.9323 16.9258 76.7182 16.411C74.7453 15.7846 77.1502 14.0061 80.0339 17.1814H80.0375Z" fill="#3A3438"/>
</g>
<path d="M78.043 16.1517C79.7242 17.023 80.7646 18.301 81.1678 19.9822C81.4702 19.1254 80.1094 16.7061 78.043 16.1517Z" fill="white"/>
<path d="M50.3941 24.6012C52.5181 21.6672 56.6654 17.6206 62.6848 18.3299C68.7006 19.0355 71.3827 21.264 74.1656 25.9153C76.5992 29.987 78.2013 32.8887 78.9717 34.6167C80.7933 33.9075 82.1254 34.1775 82.9678 35.4232C82.7986 35.254 82.2262 35.29 81.2469 35.524C82.9678 35.7616 83.6554 36.3736 83.3134 37.3672C82.8706 37.0252 82.4026 36.8992 81.9094 36.9964C83.2378 37.6624 83.4574 40.3949 79.8393 44.3082C75.6308 48.4447 69.3522 51.0296 63.8908 51.1772C61.1836 52.9017 58.5987 52.9485 56.1362 51.3248C53.2813 50.3888 49.5876 48.4447 45.0587 45.4927C40.0365 41.0609 38.6613 37.6876 40.9258 35.3764C40.483 35.4268 40.0905 35.6716 39.7449 36.1144C39.7449 34.9336 40.285 34.1703 41.3686 33.8247C40.6306 33.5295 40.0149 33.5547 39.5217 33.8967C40.1121 32.3703 41.5414 31.9779 43.8059 32.7159C44.5511 32.2839 48.27 27.5317 50.3941 24.5977V24.6012Z" fill="white"/>
<path d="M63.8906 51.1808C61.1833 52.9053 58.5984 52.9521 56.136 51.3284C56.01 51.2852 55.8264 51.2204 55.5852 51.1268C55.0272 50.3312 54.9155 49.5716 55.1603 49.1252C52.2767 47.9155 50.4154 44.5638 50.5198 42.8034C50.707 39.6497 55.7004 31.607 61.3453 32.4387C65.1111 32.9931 67.7319 35.5528 69.2116 40.1213C70.5184 44.2866 69.8668 46.7995 64.7474 49.5932C65.057 50.216 64.7726 50.7452 63.8906 51.1808Z" fill="#D8D2D5"/>
<path d="M60.0243 48.5204C60.8668 49.7732 63.2176 49.9244 64.7441 49.5932C63.0556 50.2592 61.8352 50.1044 61.2484 49.7228C60.6616 49.3376 60.4312 49.0856 59.7183 49.5176C59.0019 49.9532 58.8255 49.1612 58.2891 49.316C57.7527 49.4672 55.9886 49.6472 55.157 49.1288C56.6474 49.5068 57.7275 49.442 58.7211 48.4484C59.3871 47.7824 59.6355 46.7455 59.4663 45.3343C59.7003 45.6151 59.5131 47.5808 60.0207 48.524L60.0243 48.5204Z" fill="#3A3438"/>
<path d="M55.9488 25.5481C58.2853 26.8622 57.702 32.1255 55.2684 34.7536C53.9579 36.1685 52.4855 37.4177 50.4406 37.1333C48.7162 36.8921 47.2257 35.2612 47.3445 33.4252C47.5245 30.6819 49.8826 27.755 52.1003 26.279C53.1227 25.5985 54.876 24.9649 55.9488 25.5481Z" fill="#3A3438"/>
<path d="M67.1058 24.9649C68.4199 24.5256 71.1955 25.4509 74.4608 30.3218C78.0285 36.9424 71.6851 38.8433 68.1282 35.8732C65.5614 33.2451 64.6217 30.4838 65.3022 27.5929C65.349 26.8153 65.7882 25.4005 67.1058 24.9649Z" fill="#3A3438"/>
<g style="mix-blend-mode:screen">
<path d="M53.4178 31.7511C53.0182 32.7051 52.3773 33.3387 51.9813 33.1623C51.5925 32.9859 51.5997 32.0715 51.9993 31.1139C52.3989 30.1598 53.0398 29.5262 53.4322 29.7026C53.8246 29.879 53.8174 30.7971 53.4178 31.7547V31.7511Z" fill="#3A3438"/>
</g>
<path d="M53.1726 31.6431C52.9098 32.2695 52.4886 32.6835 52.233 32.5683C51.9774 32.4531 51.981 31.8483 52.2438 31.2219C52.5066 30.5955 52.9278 30.1814 53.187 30.2966C53.4426 30.4082 53.439 31.0131 53.1762 31.6395L53.1726 31.6431Z" fill="black"/>
<path d="M53.1911 31.2182C53.1047 31.4702 52.9391 31.643 52.8239 31.5998C52.7051 31.5566 52.6835 31.319 52.7663 31.067C52.8527 30.815 53.0183 30.6458 53.1335 30.689C53.2523 30.7286 53.2739 30.9698 53.1911 31.2182Z" fill="white"/>
<g style="mix-blend-mode:screen">
<path d="M70.2848 31.3767C70.634 32.32 70.6016 33.1948 70.2092 33.3316C69.8168 33.4648 69.2083 32.8096 68.8555 31.8664C68.5027 30.9231 68.5387 30.0483 68.9311 29.9115C69.3235 29.7747 69.932 30.4299 70.2848 31.3731V31.3767Z" fill="#3A3438"/>
</g>
<path d="M70.0544 31.4559C70.292 32.0931 70.2704 32.6835 70.004 32.7771C69.7376 32.8671 69.3272 32.4279 69.0932 31.7907C68.852 31.1535 68.8772 30.5631 69.1436 30.4695C69.41 30.3795 69.8168 30.8187 70.058 31.4595L70.0544 31.4559Z" fill="black"/>
<path d="M69.777 31.1356C69.885 31.3768 69.8814 31.6144 69.7662 31.6648C69.651 31.7152 69.471 31.5568 69.3594 31.3156C69.2514 31.0744 69.255 30.8368 69.3702 30.7864C69.4854 30.7396 69.6654 30.8944 69.777 31.1356Z" fill="white"/>
<path d="M56.2225 23.4528C56.7301 23.4024 57.2377 24.9721 56.9317 24.7201C56.0533 24.2448 55.2072 24.144 54.3972 24.414C55.2756 23.8056 55.8841 23.4852 56.2225 23.4492V23.4528Z" fill="#D8D2D5"/>
<path d="M66.7743 22.3367C67.4835 22.0847 68.7543 23.604 68.3979 23.5032C66.9435 23.064 65.8599 23.3988 65.1506 24.5148C65.3054 23.7516 66.0651 22.5851 66.7743 22.3331V22.3367Z" fill="#D8D2D5"/>
<path d="M56.2225 23.2332C56.7301 23.1828 57.2377 24.7561 56.9317 24.5041C56.0533 24.0289 55.2072 23.9281 54.3972 24.1981C55.2756 23.5897 55.8841 23.2656 56.2225 23.2332Z" fill="#3A3438"/>
<path d="M66.7743 22.1171C67.4835 21.8651 68.7543 23.388 68.3979 23.2836C66.9435 22.8443 65.8599 23.1828 65.1506 24.2988C65.3054 23.5356 66.0651 22.3691 66.7743 22.1171Z" fill="#3A3438"/>
<g style="mix-blend-mode:multiply">
<g style="mix-blend-mode:multiply">
<path d="M81.9091 37.0037C83.2376 37.6697 83.4572 40.4022 79.8391 44.3155C75.6306 48.452 69.352 51.0369 63.8906 51.1845C61.1833 52.909 58.5984 52.9558 56.136 51.3321C53.2811 50.3961 49.5874 48.452 45.0584 45.4999C40.0363 41.0682 38.6611 37.6949 40.9255 35.3837C40.4827 35.4341 40.0903 35.6789 39.7447 36.1217C39.7447 34.9408 40.2847 34.1776 41.3683 33.832C40.6303 33.5368 40.0147 33.562 39.5215 33.904C40.1119 32.3776 41.5412 31.9852 43.8056 32.7232C44.5508 32.2912 48.2697 27.539 50.3938 24.6049C50.9014 23.9065 51.5207 23.1469 52.2551 22.3981C51.2938 24.1297 48.7198 27.4022 46.8873 29.9403C44.6876 32.59 45.6093 32.0608 46.6641 33.1156C45.2133 32.9176 43.568 33.184 42.8444 33.9724C43.8092 33.796 44.4248 33.8392 44.6913 34.1056C43.1972 34.5016 42.4304 35.1172 42.3836 35.9489C42.9092 35.5961 43.6364 35.5313 44.558 35.7509C41.0443 37.2881 41.2855 39.243 45.2817 41.6154C50.617 44.5819 49.7638 40.9566 53.1227 37.1369C51.409 40.431 51.1462 43.1311 54.9047 44.3191C58.1304 45.3739 52.7951 42.6739 56.0244 41.7486C59.2501 40.827 66.6303 42.4759 64.4558 44.6467C63.3362 45.7016 72.7577 45.4387 67.3539 36.6077C69.856 38.7822 70.3168 42.4075 70.3168 43.7251C70.3168 45.0427 76.9698 44.3191 79.407 41.6154C81.8443 38.9154 80.5951 37.0685 79.6698 37.2665C80.2423 36.9173 80.8111 36.7625 81.3835 36.8057C80.8147 36.1469 80.0875 36.0605 79.2091 36.5429C79.2991 36.0173 79.7382 35.5997 80.5267 35.2901C79.4718 34.7644 78.1326 35.1172 76.5054 36.3449C77.2326 35.092 78.3522 34.8292 77.0994 32.2624C75.8466 29.6919 75.789 28.7307 73.2617 25.1414C71.9296 23.2477 72.1384 23.1217 70.4572 21.2856C71.8396 22.4485 72.9917 23.9713 74.1581 25.9226C76.5918 29.9943 78.1938 32.896 78.9642 34.624C80.7859 33.9148 82.1179 34.1848 82.9603 35.4305C82.7911 35.2613 82.2188 35.2973 81.2395 35.5313C82.9604 35.7689 83.648 36.3809 83.306 37.3745C82.8632 37.0325 82.3951 36.9065 81.9019 37.0037H81.9091Z" fill="#D8D2D5"/>
</g>
</g>
<path d="M59.8187 49.1288C59.3399 49.6472 58.3786 49.0928 58.7494 48.8336C59.1202 48.5132 59.3759 48.1316 59.5235 47.6888C59.5631 48.686 60.3011 48.6104 59.8187 49.1288Z" fill="#EB566C"/>
<path d="M56.7119 41.1401C59.4192 41.0393 61.6081 41.2733 63.2785 41.8422C66.7418 42.8502 64.0418 45.8311 59.7612 45.3595C55.5923 44.9022 53.3134 41.3741 56.7119 41.1401Z" fill="#3A3438"/>
<g style="mix-blend-mode:multiply">
<g style="mix-blend-mode:multiply">
<path d="M64.751 42.7998C65.3954 44.0526 63.0481 45.7194 59.7612 45.3594C56.7479 45.0282 54.7211 43.095 55.1135 41.9573C55.4123 42.6342 56.3159 43.3974 58.638 43.923C61.7629 44.6286 63.9085 43.7826 64.751 42.7998Z" fill="#3A3438"/>
</g>
</g>
<path d="M55.7397 41.8925C57.8854 41.5109 60.0635 41.5901 62.2739 42.1229C63.6852 42.4326 60.3839 40.4921 55.7397 41.8925Z" fill="white"/>
<path d="M63.7822 42.4362C63.7498 42.5082 63.5698 42.4974 63.379 42.4146C63.1882 42.3282 63.0622 42.2022 63.091 42.1302C63.1234 42.0582 63.3034 42.069 63.4942 42.1518C63.685 42.2346 63.8146 42.3606 63.7822 42.4362Z" fill="white"/>
<g style="mix-blend-mode:screen">
<path d="M50.6711 32.9967C51.6252 32.7915 52.3596 33.1155 52.8708 33.9688C52.6152 32.7915 51.4884 32.6907 50.6711 32.9967Z" fill="#3A3438"/>
</g>
<g style="mix-blend-mode:screen">
<path d="M71.4584 33.1371C70.5044 32.9319 69.77 33.2559 69.2588 34.1091C69.5144 32.9319 70.6412 32.8311 71.4584 33.1371Z" fill="#3A3438"/>
</g>
<g style="mix-blend-mode:screen">
<path d="M59.8694 33.2234C56.2405 34.6635 54.1309 37.0396 53.5441 40.3481C52.7449 38.026 55.8661 33.3063 59.8694 33.2234Z" fill="#D8D2D5"/>
</g>
<g style="mix-blend-mode:multiply">
<path d="M81.9097 37.0036C83.2381 37.6696 83.4577 40.4021 79.8396 44.3154C75.6311 48.4519 69.3525 51.0368 63.8911 51.1844C61.1838 52.9089 58.5989 52.9557 56.1365 51.332C53.2816 50.396 49.5879 48.4519 45.059 45.4998C40.0368 41.0681 38.6616 37.6948 40.9261 35.3835C39.9504 37.9216 41.1384 43.347 50.5095 48.2575C55.1176 50.8604 54.8225 50.414 55.0457 49.4492C55.7153 50.7848 57.7241 51.53 59.4342 51.6812C61.1442 51.8288 64.1143 51.0908 64.7515 49.6004C65.1728 49.7984 65.162 50.1188 64.7156 50.5652C70.2201 50.2196 75.0262 48.0847 79.1412 44.1678C82.1148 41.4893 83.2705 38.8504 81.9133 37.0108L81.9097 37.0036Z" fill="#A59DA2"/>
</g>
<g style="mix-blend-mode:multiply">
<g style="mix-blend-mode:multiply">
<path d="M33.2009 69.0482C33.4853 68.825 33.8057 68.645 34.1442 68.5082C34.3134 68.4362 34.4898 68.3786 34.6698 68.3354C34.8498 68.285 35.0334 68.2598 35.2242 68.2418C35.3178 68.2346 35.4114 68.2346 35.5086 68.2346C35.6058 68.2382 35.703 68.2454 35.7966 68.2634C35.8938 68.2778 35.991 68.2958 36.081 68.3282C36.1782 68.3534 36.2682 68.3894 36.3582 68.429C36.4482 68.4722 36.531 68.519 36.6138 68.5766C36.6966 68.6306 36.7758 68.6954 36.8478 68.7602L36.9558 68.8646C36.9882 68.9006 37.017 68.9366 37.0494 68.9762C37.1142 69.0482 37.1611 69.1346 37.2187 69.2138L37.2258 69.221V69.2246L37.2835 69.3615C37.3015 69.4083 37.3123 69.4551 37.3231 69.5055C37.3483 69.5991 37.3447 69.6999 37.3483 69.7935L37.3339 69.9339C37.3303 69.9807 37.3159 70.0275 37.3087 70.0707C37.2979 70.1175 37.287 70.1607 37.269 70.2039C37.2546 70.2471 37.2403 70.2903 37.2223 70.3299C37.1899 70.4127 37.1467 70.4919 37.1035 70.5711C37.0603 70.6467 37.0134 70.7187 36.9594 70.7907C36.909 70.8627 36.8514 70.9275 36.7938 70.9923C36.7362 71.0571 36.675 71.1183 36.6102 71.1723C36.6966 71.0283 36.7758 70.8735 36.8442 70.7223C36.8802 70.6467 36.909 70.5675 36.9342 70.4919C36.9594 70.4127 36.9846 70.3371 37.0026 70.2579C37.017 70.2183 37.017 70.1787 37.0278 70.1427C37.035 70.1031 37.0422 70.0635 37.0458 70.0239C37.0458 69.9843 37.053 69.9483 37.053 69.9087V69.7971C37.0422 69.7215 37.035 69.6495 37.0062 69.5811C36.9954 69.5451 36.9883 69.5127 36.9702 69.4803L36.9234 69.3867L36.9306 69.3975C36.8802 69.3327 36.8334 69.2643 36.7758 69.2067C36.7218 69.1455 36.6606 69.0914 36.603 69.0374C36.5418 68.987 36.477 68.9366 36.4086 68.8934C36.3438 68.8466 36.2718 68.8106 36.1998 68.7782C36.1278 68.7494 36.0522 68.7134 35.973 68.6918C35.8974 68.6666 35.8182 68.6486 35.7354 68.6342C35.6562 68.6198 35.5734 68.609 35.4906 68.6018C35.4078 68.5982 35.325 68.591 35.2386 68.591C35.1558 68.591 35.0694 68.5982 34.9866 68.6054C34.9038 68.6126 34.8138 68.6198 34.731 68.6342C34.5582 68.6594 34.389 68.6954 34.2198 68.7314C33.8778 68.8178 33.5393 68.9222 33.2045 69.0518L33.2009 69.0482Z" fill="black"/>
</g>
<g style="mix-blend-mode:multiply">
<path d="M37.2584 68.159C37.4564 68.1158 37.7048 68.1049 38.0073 68.1337C38.1189 68.1445 38.2412 68.159 38.3708 68.1878C38.5005 68.2166 38.6337 68.249 38.7705 68.2994C39.0441 68.4002 39.3321 68.5586 39.5553 68.807C39.6669 68.9294 39.7533 69.0806 39.8145 69.2318C39.8433 69.3074 39.8685 69.3866 39.8793 69.4658C39.8973 69.545 39.8973 69.6242 39.9009 69.6998C39.9081 69.8546 39.8865 69.9986 39.8541 70.1282C39.8217 70.2578 39.7857 70.3802 39.7353 70.4846C39.7101 70.535 39.6885 70.5854 39.6669 70.6322C39.6417 70.679 39.6165 70.7186 39.5949 70.7618C39.5517 70.841 39.5049 70.9094 39.4653 70.9598C39.4149 71.0318 39.3717 71.0858 39.3429 71.1254C39.3537 71.075 39.3717 71.0102 39.3969 70.9274C39.4185 70.8662 39.4365 70.7906 39.4581 70.7042C39.4833 70.6178 39.5049 70.5206 39.5229 70.4162C39.5373 70.3658 39.5445 70.3118 39.5481 70.2542C39.5517 70.1966 39.5697 70.1426 39.5661 70.0814C39.5733 69.9626 39.5733 69.8438 39.5589 69.7214C39.5445 69.599 39.5085 69.4802 39.4617 69.3686C39.4077 69.2606 39.3465 69.149 39.2601 69.0554C39.1773 68.9618 39.0801 68.8754 38.9721 68.7998C38.8641 68.7278 38.7525 68.6558 38.6337 68.6018C38.3997 68.4902 38.1657 68.4074 37.9568 68.3426C37.7516 68.2778 37.5752 68.231 37.4492 68.1986C37.3664 68.177 37.298 68.1626 37.2512 68.1518L37.2584 68.159Z" fill="black"/>
</g>
</g>
<g style="mix-blend-mode:multiply">
<g style="mix-blend-mode:multiply">
<path d="M69.6226 68.2238C69.6766 68.1878 69.7486 68.141 69.8458 68.087C69.9934 68.0042 70.2058 67.8998 70.4722 67.799C70.6054 67.7486 70.753 67.6946 70.915 67.655C71.077 67.6118 71.2498 67.5722 71.4298 67.5542C71.6134 67.5362 71.8042 67.5182 72.0022 67.5398C72.103 67.5506 72.2002 67.5542 72.301 67.5866L72.4522 67.6226C72.5026 67.637 72.5495 67.6586 72.5999 67.6766C72.6467 67.6982 72.697 67.7162 72.7438 67.7414L72.8806 67.8242L72.9454 67.871L72.9599 67.8818L72.9706 67.889L72.9886 67.9034L73.0138 67.925L73.1182 68.0186C73.1542 68.0474 73.1903 68.0906 73.2227 68.1338C73.2587 68.177 73.2947 68.2202 73.3235 68.2634C73.3739 68.357 73.4315 68.447 73.4531 68.5514C73.5179 68.7494 73.5071 68.9654 73.4495 69.1382C73.3991 69.311 73.3127 69.4586 73.2227 69.5774C73.1363 69.6998 73.0355 69.7934 72.9527 69.8726C72.8627 69.9518 72.7798 70.0131 72.715 70.0599C72.643 70.1067 72.589 70.1391 72.5494 70.1607C72.5242 70.1751 72.5026 70.1859 72.4918 70.1931C72.5386 70.1499 72.5962 70.0851 72.6646 70.0022C72.7186 69.941 72.7798 69.8618 72.8446 69.7754C72.9094 69.6854 72.9779 69.581 73.0391 69.4622C73.1039 69.3434 73.1507 69.2102 73.1723 69.0734C73.2011 68.9366 73.1831 68.7926 73.1327 68.663C73.1147 68.5946 73.0678 68.537 73.0282 68.4722C73.0066 68.4434 72.9779 68.4182 72.9563 68.3894C72.9347 68.3606 72.9131 68.3318 72.8735 68.303L72.769 68.213L72.7438 68.1914L72.7402 68.1878V68.1842C72.7438 68.1878 72.7294 68.1734 72.7474 68.1914L72.7402 68.1878L72.7295 68.1806L72.679 68.1518L72.5746 68.087C72.5386 68.069 72.499 68.0582 72.4594 68.0402C72.4234 68.0258 72.3838 68.0078 72.3442 67.9934L72.2218 67.961C72.1426 67.9358 72.0562 67.9286 71.9698 67.9178C71.8042 67.8998 71.6278 67.8926 71.4622 67.8998C71.2966 67.9106 71.1346 67.9214 70.9762 67.9466C70.8214 67.9682 70.6738 67.9934 70.537 68.0186C70.2633 68.0726 70.0366 68.1266 69.8745 68.1662C69.7701 68.1914 69.6838 68.213 69.6226 68.231V68.2238Z" fill="black"/>
</g>
<g style="mix-blend-mode:multiply">
<path d="M73.1794 67.3957C73.363 67.3309 73.597 67.2877 73.885 67.2697C73.9931 67.2625 74.1118 67.2589 74.2342 67.2661C74.3567 67.2733 74.4898 67.2805 74.6303 67.3093C74.6987 67.3201 74.7671 67.3381 74.8391 67.3597C74.9111 67.3777 74.9795 67.4029 75.0515 67.4317C75.1919 67.4857 75.3323 67.5721 75.4583 67.6801C75.4907 67.7053 75.5159 67.7413 75.5447 67.7701L75.5843 67.8169L75.6059 67.8385L75.6167 67.8493L75.6347 67.8781L75.6887 67.9681L75.7139 68.0149L75.7391 68.0797C75.7571 68.1229 75.7715 68.1661 75.7859 68.2093C75.7967 68.2525 75.8003 68.2921 75.8039 68.3317C75.8183 68.4145 75.8039 68.4937 75.8039 68.5693C75.7859 68.7205 75.7391 68.8573 75.6851 68.9725C75.6347 69.0913 75.5699 69.1957 75.5051 69.2857C75.4403 69.3793 75.3755 69.4549 75.3143 69.5161C75.2567 69.5845 75.1955 69.6313 75.1487 69.6745C75.0839 69.7285 75.0335 69.7681 74.9939 69.7969C75.0191 69.7537 75.0515 69.6997 75.0911 69.6277C75.1199 69.5737 75.1559 69.5053 75.1955 69.4297C75.2351 69.3541 75.2711 69.2713 75.3107 69.1741C75.3503 69.0805 75.3863 68.9797 75.4151 68.8717C75.4439 68.7637 75.4583 68.6521 75.4655 68.5405C75.4583 68.4865 75.4655 68.4289 75.4475 68.3785C75.4403 68.3533 75.4367 68.3245 75.4295 68.2993C75.4223 68.2777 75.4115 68.2561 75.4043 68.2345L75.3935 68.2021L75.3647 68.1589L75.3071 68.0725L75.3035 68.0653V68.0617C75.3071 68.0689 75.2927 68.0473 75.3107 68.0761L75.3035 68.0689L75.2891 68.0545L75.2603 68.0221C75.2387 68.0041 75.2243 67.9789 75.1991 67.9609C75.1091 67.8853 75.0119 67.8205 74.8967 67.7701C74.7851 67.7161 74.6699 67.6693 74.5511 67.6333C74.4323 67.5973 74.3135 67.5685 74.1983 67.5433C74.0867 67.5217 73.975 67.5001 73.8742 67.4821C73.669 67.4497 73.4962 67.4281 73.3738 67.4137C73.291 67.4029 73.2262 67.3957 73.1794 67.3885V67.3957Z" fill="black"/>
</g>
</g>
<g style="mix-blend-mode:screen">
<path d="M42.539 11.5077C33.906 16.6378 27.577 23.9065 23.5593 33.3099C22.022 36.8992 24.4557 20.742 42.539 11.5077Z" fill="#3A3438"/>
</g>
<g style="mix-blend-mode:screen">
<path d="M36.9698 70.0382C36.8042 71.2226 35.3605 71.1902 35.7854 70.2686C36.1562 69.0841 35.4253 68.6593 33.5857 68.9869C35.951 68.0005 37.1318 68.8537 36.9698 70.0382Z" fill="#3A3438"/>
</g>
<g style="mix-blend-mode:screen">
<path d="M39.6948 69.8401C39.6948 70.8914 38.4168 71.3522 38.5752 70.1029C38.7516 68.9185 38.1936 68.3281 36.9011 68.3281C39.1692 68.1949 39.6912 68.7889 39.6912 69.8401H39.6948Z" fill="#3A3438"/>
</g>
<g style="mix-blend-mode:screen">
<path d="M41.2177 70.2181C40.9837 70.949 40.0801 71.0354 40.4581 70.0417C40.7137 69.3793 40.4797 68.9005 39.7561 68.6089C40.8973 68.7817 41.4518 69.4837 41.2177 70.2145V70.2181Z" fill="#3A3438"/>
</g>
<g style="mix-blend-mode:screen">
<path d="M50.9417 9.39077C54.0953 8.44754 57.4002 8.67794 60.8635 10.0892C58.3614 7.2055 52.2881 8.23513 50.9417 9.39077Z" fill="#3A3438"/>
</g>
<g style="mix-blend-mode:screen">
<path d="M73.2804 68.9545C73.1832 69.9374 71.5596 70.1858 71.8008 69.3505C72.1284 68.2669 71.394 67.9573 69.5903 68.4145C71.4084 67.2337 73.3776 67.9717 73.2804 68.9545Z" fill="#3A3438"/>
</g>
<g style="mix-blend-mode:screen">
<path d="M75.5412 68.6125C75.3432 69.5954 74.2632 69.9914 74.6556 68.9078C74.9184 68.1841 74.5079 67.7593 73.4243 67.6297C74.2631 67.2373 75.7392 67.6297 75.5412 68.6125Z" fill="#3A3438"/>
</g>
<g style="mix-blend-mode:screen">
<path d="M76.8445 68.9113C76.6645 69.5989 75.8869 69.5701 76.2145 68.7601C76.4341 68.2201 76.2217 67.8205 75.5845 67.5613C76.4233 67.7125 77.0245 68.2237 76.8445 68.9113Z" fill="#3A3438"/>
</g>
<g style="mix-blend-mode:screen">
<path d="M28.8188 49.982C31.3461 54.1221 33.5818 59.0363 35.5222 64.7244C38.4347 73.2567 34.0102 52.8657 28.8188 49.982Z" fill="#3A3438"/>
</g>
<g style="mix-blend-mode:screen">
<path d="M82.8783 51.5336C80.6211 55.2201 78.029 58.7158 75.0949 62.0243C73.2912 64.7316 82.6515 56.0446 82.8783 51.5336Z" fill="#3A3438"/>
</g>
</svg>
