<svg width="72" height="80" viewBox="0 0 72 80" fill="none" xmlns="http://www.w3.org/2000/svg">
<path d="M34.461 64.1574C35.0482 63.6868 36.6892 63.6868 39.5046 63.8437C45.3284 63.727 49.3142 62.1263 49.4711 62.4762C49.5515 62.8261 49.2378 63.9603 45.7185 65.1709C47.9467 64.9738 51.3453 64.7808 51.2287 65.4846C50.5771 67.5439 47.8784 68.481 43.1364 68.3C44.882 68.7947 46.3017 69.1447 47.3957 69.3538C49.0367 69.6675 47.5526 70.8419 43.4099 70.8781C46.9292 71.9721 46.4586 72.9897 43.9167 72.7926C47.8261 74.1199 48.3328 75.4511 45.2842 75.608C40.868 75.5678 30.8372 72.1933 29.2444 70.9706C30.1574 72.5794 30.1856 72.9454 28.5688 72.2175C26.8312 71.2803 25.1822 69.9772 23.6177 68.3081C30.4551 65.8506 34.0668 64.4671 34.4569 64.1533L34.461 64.1574Z" fill="#BA1B24"/>
<g style="mix-blend-mode:multiply" opacity="0.5">
<path d="M43.1363 68.3C43.7436 68.473 44.4113 68.6499 45.1352 68.8349C45.1111 68.8309 45.087 68.8269 45.0628 68.8269C44.6848 68.7867 43.1725 68.6942 43.4299 69.4423C43.5586 69.8244 44.0493 69.9088 44.3912 69.9893C44.9462 70.118 45.5133 70.1743 46.0804 70.2426C46.4705 70.2909 46.8566 70.3311 47.2387 70.3633C46.4786 70.6408 45.1915 70.8661 43.4098 70.8822C46.9291 71.9761 46.4585 72.9937 43.9166 72.7966C45.5978 73.3678 46.6475 73.9389 47.0578 74.4175C46.8486 74.3652 46.6395 74.3049 46.4384 74.2486C45.5575 74.0072 44.6003 73.7176 43.7074 74.0595C43.6712 74.0716 43.623 74.1319 43.631 74.1721C43.7718 74.9243 44.3147 75.3546 44.9623 75.5999C40.3973 75.4109 30.8009 72.1652 29.2484 70.9747C29.5862 71.5739 29.8034 72.0003 29.8597 72.2617C29.3851 72.0847 28.9749 71.7187 28.6129 71.3527C28.1182 70.854 27.6436 70.3512 27.1087 69.8968C26.7346 69.579 26.071 69.0924 25.6245 69.5388C25.4958 69.6715 25.4516 69.8525 25.4596 70.0295C24.7236 69.4061 24.1123 68.8309 23.6216 68.3121C30.459 65.8547 34.0707 64.4711 34.4609 64.1574C35.0481 63.6868 36.6891 63.6868 39.5044 63.8437C45.3283 63.727 49.3141 62.1263 49.471 62.4762C49.4951 62.5888 49.479 62.7859 49.3262 63.0393C46.6314 64.1292 43.1685 63.5983 40.5059 64.7526C40.4778 64.7647 40.3973 64.8532 40.4375 64.8853C41.1333 65.4283 42.1509 65.3599 42.9794 65.2835C43.9487 65.195 44.9382 65.0422 45.8954 64.8572C46.4183 64.7566 46.9331 64.628 47.4439 64.4711C46.9773 64.6963 46.4142 64.9336 45.7225 65.1709C47.5806 65.01 50.2552 64.8451 51.0234 65.2031C50.6212 65.2835 50.211 65.3398 49.8088 65.3921C48.7872 65.5289 47.7696 65.7219 46.7481 65.8547C45.5455 66.0115 44.3268 66.0115 43.1202 66.0035C42.3762 65.9995 41.612 65.9552 40.8679 66.0357C40.526 66.0759 39.9026 66.1684 39.8182 66.5947C39.7377 66.9848 40.2405 67.1135 40.526 67.1859C41.6964 67.4876 42.9996 67.4313 44.2021 67.4996C45.3605 67.568 46.5269 67.6324 47.6852 67.5157C48.4896 67.4313 49.2779 67.2221 50.0381 66.9406C48.4936 67.9582 46.197 68.4086 43.1403 68.292L43.1363 68.3Z" fill="#958E96"/>
</g>
<g style="mix-blend-mode:multiply" opacity="0.5">
<path d="M23.6177 68.3121C30.4551 65.8547 34.0668 64.4711 34.4569 64.1574C35.0401 63.6908 36.6691 63.6868 39.4563 63.8396C38.7162 63.9161 37.9682 63.9804 37.2402 64.1212C36.9828 64.1694 36.0215 64.4309 36.4036 64.8974C36.8339 65.4163 37.6544 65.2473 38.2256 65.4886C37.5217 65.7099 36.6449 65.2876 36.0738 65.8828C35.6515 66.3252 36.2709 66.836 36.669 67.206C36.11 66.9607 35.4986 66.5303 35.1729 67.3026C35.0321 67.6243 35.1206 68.0507 35.193 68.3805C35.2332 68.5574 35.2855 68.7304 35.3378 68.9073C34.839 67.9742 33.8858 67.194 32.8361 67.7731C32.2247 68.111 32.1322 68.8631 32.2247 69.571C31.8628 68.9033 31.2755 68.3121 30.5596 68.477C29.6346 68.6942 29.8437 69.8405 30.0368 70.5845C28.8784 69.4704 27.1731 68.839 25.6005 69.394C25.3994 69.4624 25.2144 69.5549 25.0415 69.6635C24.4623 69.1527 23.9917 68.6982 23.6217 68.3081L23.6177 68.3121Z" fill="#958E96"/>
</g>
<g style="mix-blend-mode:multiply">
<g style="mix-blend-mode:multiply">
<path d="M25.4676 68.7706C25.5601 68.8712 25.6566 68.9637 25.7532 69.0562C25.8537 69.1487 25.9502 69.2412 26.0588 69.3257C26.1634 69.4101 26.268 69.4905 26.3806 69.567C26.4369 69.6072 26.4932 69.6394 26.5495 69.6715C26.6058 69.7077 26.6702 69.7319 26.7265 69.764C26.7868 69.7922 26.8472 69.8123 26.9115 69.8364C26.9759 69.8485 27.0362 69.8767 27.1046 69.8726L27.1971 69.8807L27.2896 69.8686L27.3298 69.8606L27.374 69.8405C27.4102 69.8284 27.4263 69.8083 27.4505 69.7922C27.4907 69.756 27.5269 69.7077 27.5349 69.6514C27.551 69.5951 27.551 69.5348 27.5389 69.4704C27.5188 69.3458 27.4665 69.2211 27.4022 69.1125L27.2574 68.8511L27.4947 69.0361C27.8446 69.3055 28.2186 69.5509 28.6128 69.752C28.7134 69.8002 28.8139 69.8485 28.9145 69.8887C29.015 69.9289 29.1196 69.9732 29.2242 70.0013C29.3287 70.0375 29.4333 70.0536 29.5419 70.0778C29.6505 70.0858 29.7551 70.1099 29.8636 70.0979C29.9722 70.1019 30.0768 70.0737 30.1733 70.0536L30.2538 70.0255C30.2739 70.0134 30.294 70.0054 30.3141 69.9933C30.3543 69.9692 30.3946 69.941 30.4187 69.9088C30.471 69.8404 30.487 69.748 30.471 69.6474C30.4549 69.5509 30.4106 69.4503 30.3624 69.3538C30.2618 69.1648 30.1251 68.9878 29.9803 68.8189C29.8355 68.65 29.6786 68.4891 29.5178 68.3403L29.6103 68.2397C29.7309 68.3604 29.8636 68.473 30.0004 68.5775C30.1371 68.6821 30.2739 68.7827 30.4227 68.8712C30.7163 69.0441 31.0381 69.1849 31.3799 69.2211C31.4644 69.2291 31.5489 69.2291 31.6333 69.2251C31.7178 69.2171 31.8022 69.205 31.8827 69.1808C31.9229 69.1728 31.9631 69.1607 32.0034 69.1447C32.0436 69.1286 32.0838 69.1125 32.12 69.0924C32.1964 69.0562 32.2648 69.0079 32.3372 68.9556C32.4015 68.8993 32.4739 68.847 32.5262 68.7827C32.5865 68.7223 32.6428 68.654 32.6911 68.5856C32.7474 68.5172 32.7876 68.4408 32.8359 68.3684C32.8801 68.292 32.9204 68.2156 32.9646 68.1392C32.9284 68.2196 32.8922 68.3 32.852 68.3764C32.8077 68.4488 32.7716 68.5293 32.7193 68.6017C32.667 68.6741 32.6187 68.7465 32.5584 68.8108C32.5061 68.8792 32.4377 68.9355 32.3734 68.9999C32.305 69.0522 32.2326 69.1085 32.1522 69.1487C32.116 69.1728 32.0717 69.1889 32.0315 69.209C31.9913 69.2291 31.9511 69.2452 31.9068 69.2573C31.8224 69.2854 31.7339 69.3015 31.6414 69.3136C31.5529 69.3216 31.4604 69.3216 31.3719 69.3176C31.0139 69.2894 30.6761 69.1527 30.3664 68.9838C30.2095 68.8953 30.0647 68.7988 29.92 68.6942C29.7792 68.5896 29.6465 68.477 29.5137 68.3483L29.6062 68.2478C29.7752 68.4006 29.936 68.5615 30.0849 68.7344C30.2337 68.9074 30.3785 69.0883 30.4871 69.2935C30.5434 69.394 30.5916 69.5066 30.6158 69.6313C30.6399 69.752 30.6238 69.9008 30.5353 70.0134C30.4911 70.0697 30.4428 70.1099 30.3825 70.1421C30.3543 70.1582 30.3222 70.1703 30.294 70.1823L30.2136 70.2105C30.0889 70.2346 29.9763 70.2628 29.8556 70.2588C29.739 70.2668 29.6223 70.2426 29.5057 70.2346C29.3971 70.2065 29.2805 70.1864 29.1719 70.1461C29.0633 70.114 28.9547 70.0697 28.8501 70.0255C28.7455 69.9812 28.641 69.933 28.5404 69.8807C28.4399 69.8284 28.3393 69.7761 28.2428 69.7158C28.1422 69.6595 28.0497 69.5951 27.9532 69.5348C27.7642 69.4141 27.5832 69.2774 27.4062 69.1286L27.4947 69.0522C27.5631 69.1809 27.6153 69.3096 27.6314 69.4544C27.6435 69.5268 27.6395 69.6032 27.6234 69.6756C27.6073 69.752 27.555 69.8203 27.4947 69.8686C27.4585 69.8887 27.4263 69.9169 27.3941 69.9249L27.3459 69.945C27.3177 69.9531 27.3057 69.9531 27.2855 69.9571L27.177 69.9692L27.0684 69.9571C26.996 69.9531 26.9316 69.9249 26.8632 69.9088C26.7989 69.8847 26.7345 69.8606 26.6702 69.8284C26.6099 69.7922 26.5495 69.7641 26.4892 69.7279C26.4329 69.6917 26.3726 69.6554 26.3203 69.6112C26.2117 69.5308 26.1031 69.4463 26.0025 69.3538C25.7974 69.1728 25.6124 68.9757 25.4395 68.7706H25.4676Z" fill="#AA1B24"/>
</g>
<g style="mix-blend-mode:multiply">
<path d="M34.7705 67.1658C34.7946 67.1739 34.8308 67.1859 34.8711 67.198C34.9354 67.2221 35.0239 67.2503 35.1325 67.2905C35.2411 67.3307 35.3658 67.375 35.4985 67.4272C35.6312 67.4795 35.772 67.5359 35.9128 67.5922C36.0535 67.6485 36.1943 67.7048 36.327 67.7651C36.4598 67.8174 36.5804 67.8697 36.685 67.9139C36.7936 67.9541 36.878 67.9944 36.9384 68.0185C36.9786 68.0346 37.0108 68.0507 37.0349 68.0627C37.0108 68.0587 36.9746 68.0547 36.9303 68.0466C36.866 68.0346 36.7694 68.0225 36.6568 67.9984C36.5442 67.9702 36.4155 67.934 36.2747 67.8898C36.138 67.8455 35.9932 67.7892 35.8524 67.7329C35.7117 67.6726 35.5709 67.6123 35.4422 67.5479C35.3135 67.4876 35.1968 67.4232 35.0963 67.3669C34.9636 67.2905 34.855 67.2221 34.7705 67.1618V67.1658Z" fill="#AA1B24"/>
</g>
<g style="mix-blend-mode:multiply">
<path d="M40.6345 68.4569C40.6949 68.4609 40.7793 68.4689 40.8839 68.473C41.0407 68.481 41.27 68.485 41.5435 68.481C41.813 68.477 42.1307 68.4488 42.4565 68.3724C42.6214 68.3362 42.7823 68.2799 42.9311 68.1954C43.0799 68.115 43.2126 67.9984 43.289 67.8536C43.3011 67.8375 43.3051 67.8174 43.3172 67.7972L43.3293 67.7691L43.3333 67.7611V67.757C43.3333 67.753 43.3293 67.7731 43.3333 67.7651V67.7611L43.3373 67.745C43.3494 67.7007 43.3574 67.6565 43.3574 67.6203C43.3655 67.5439 43.3534 67.4634 43.3252 67.387C43.273 67.2342 43.1603 67.1055 43.0397 66.9928C42.7903 66.7757 42.5088 66.6228 42.2634 66.5102C42.0181 66.3976 41.8049 66.3132 41.6521 66.2609C41.5515 66.2247 41.4711 66.1965 41.4148 66.1804C41.4751 66.1885 41.5556 66.2086 41.6601 66.2327C41.817 66.2729 42.0382 66.3292 42.2956 66.4298C42.553 66.5344 42.8506 66.663 43.1282 66.8923C43.2609 67.0089 43.3976 67.1457 43.466 67.3388C43.5022 67.4313 43.5183 67.5318 43.5102 67.6364C43.5102 67.6927 43.4982 67.7369 43.4901 67.7812L43.4861 67.7972L43.4821 67.8093V67.8133L43.4781 67.8214L43.462 67.8576C43.4499 67.8817 43.4419 67.9018 43.4298 67.926C43.3293 68.1029 43.1724 68.2357 43.0075 68.3201C42.8386 68.4086 42.6616 68.4609 42.4887 68.4971C42.1428 68.5695 41.817 68.5695 41.5435 68.5574C41.266 68.5494 41.0407 68.5132 40.8839 68.4931C40.7793 68.477 40.6949 68.4609 40.6345 68.4448V68.4569Z" fill="#AA1B24"/>
</g>
<g style="mix-blend-mode:multiply">
<path d="M34.3804 66.5826C34.7906 66.6309 35.2049 66.655 35.6192 66.655C35.8283 66.655 36.0334 66.647 36.2385 66.6309C36.3391 66.6188 36.4437 66.6148 36.5442 66.5987C36.6448 66.5826 36.7453 66.5705 36.8459 66.5424L36.9947 66.5102L37.1395 66.462C37.24 66.4338 37.3245 66.3896 37.417 66.3493C37.4652 66.3292 37.5015 66.2971 37.5457 66.2729C37.5899 66.2448 37.6261 66.2246 37.6663 66.1884C37.7468 66.1241 37.8152 66.0598 37.8634 65.9793C37.9157 65.8989 37.9358 65.8184 37.9036 65.746C37.8755 65.6696 37.8071 65.6053 37.7267 65.553C37.5658 65.4484 37.3687 65.376 37.1797 65.3318L37.2038 65.187C37.5859 65.2232 37.976 65.2433 38.3581 65.2554C38.7442 65.2634 39.1304 65.2594 39.5165 65.2312C39.8986 65.2031 40.2847 65.1468 40.6507 65.0502C40.7432 65.0221 40.8317 64.9939 40.9201 64.9577C41.0086 64.9215 41.0931 64.8853 41.1735 64.8371C41.254 64.7888 41.3304 64.7365 41.3988 64.6722C41.435 64.644 41.4591 64.6038 41.4913 64.5716C41.5194 64.5354 41.5395 64.4952 41.5677 64.455V64.459C41.5757 64.4308 41.5838 64.3987 41.5757 64.3705C41.5677 64.3424 41.5516 64.3142 41.5275 64.2901C41.4792 64.2378 41.4108 64.2016 41.3424 64.1694C41.2057 64.1051 41.0529 64.0649 40.9 64.0246C40.5944 63.9563 40.2806 63.916 39.9669 63.8879C40.2847 63.8959 40.5984 63.9201 40.9121 63.9723C41.069 64.0005 41.2258 64.0367 41.3746 64.097C41.447 64.1292 41.5234 64.1654 41.5878 64.2257C41.62 64.2579 41.6481 64.2981 41.6602 64.3464C41.6763 64.3947 41.6642 64.4429 41.6521 64.4912V64.4952V64.4992C41.624 64.5435 41.6039 64.5877 41.5717 64.6279C41.5395 64.6682 41.5073 64.7124 41.4712 64.7446C41.3988 64.817 41.3183 64.8773 41.2298 64.9296C41.1454 64.9819 41.0569 65.0261 40.9644 65.0663C40.8719 65.1065 40.7794 65.1387 40.6869 65.1709C40.4978 65.2312 40.3048 65.2715 40.1117 65.3036C39.9187 65.3358 39.7256 65.3559 39.5285 65.376C38.7483 65.4364 37.968 65.4202 37.1877 65.3358L37.2119 65.191C37.3205 65.2151 37.417 65.2513 37.5175 65.2875C37.6181 65.3277 37.7146 65.376 37.8071 65.4404C37.8996 65.5047 37.9881 65.5852 38.0364 65.7058C38.0565 65.7662 38.0605 65.8345 38.0484 65.8949C38.0364 65.9552 38.0082 66.0115 37.976 66.0598C37.9157 66.1563 37.8313 66.2327 37.7468 66.297C37.7066 66.3292 37.6543 66.3614 37.61 66.3855C37.5658 66.4097 37.5216 66.4459 37.4693 66.466C37.3687 66.5062 37.2722 66.5545 37.1716 66.5786L37.0188 66.6228L36.8619 66.655C36.7614 66.6791 36.6528 66.6872 36.5523 66.7033C36.4477 66.7194 36.3431 66.7194 36.2426 66.7274C36.0334 66.7395 35.8243 66.7395 35.6151 66.7314C35.406 66.7234 35.2009 66.7033 34.9957 66.6832C34.7906 66.659 34.5855 66.6309 34.3804 66.5947V66.5826Z" fill="#AA1B24"/>
</g>
<g style="mix-blend-mode:multiply">
<path d="M38.0044 65.9149C38.5514 65.9873 39.1024 66.0356 39.6494 66.0718C39.9229 66.0879 40.2004 66.1 40.4739 66.104C40.7474 66.108 41.0249 66.108 41.2984 66.0959C41.8454 66.0758 42.3964 66.0195 42.9233 65.8908C43.056 65.8627 43.1887 65.8225 43.3134 65.7782C43.4421 65.738 43.5668 65.6857 43.6875 65.6294L43.8685 65.5369L44.0374 65.4283L44.1942 65.3036L44.335 65.1628L44.327 65.1789C44.3471 65.1347 44.3511 65.0985 44.331 65.0583C44.3109 65.018 44.2626 64.9819 44.2143 64.9497C44.1138 64.8894 43.9972 64.8411 43.8805 64.8049C43.6392 64.7325 43.3858 64.6802 43.1364 64.64C42.6337 64.5595 42.1229 64.5073 41.6121 64.467C41.8695 64.467 42.1269 64.4751 42.3803 64.4871C42.6377 64.4992 42.8911 64.5193 43.1485 64.5515C43.4019 64.5837 43.6593 64.6239 43.9087 64.6923C44.0333 64.7285 44.158 64.7687 44.2827 64.8371C44.339 64.8773 44.4034 64.9175 44.4436 64.9899C44.4878 65.0623 44.4798 65.1669 44.4436 65.2352L44.4396 65.2433L44.4355 65.2473L44.2827 65.4001L44.1178 65.5329L43.9368 65.6495L43.7478 65.7501C43.6191 65.8104 43.4904 65.8667 43.3577 65.9109C43.2249 65.9552 43.0922 65.9994 42.9555 66.0316C42.8187 66.0678 42.682 66.0919 42.5452 66.116C42.4085 66.1362 42.2717 66.1563 42.1309 66.1683C41.8534 66.2005 41.5759 66.2166 41.2984 66.2206C40.7434 66.2367 40.1883 66.2045 39.6373 66.1523C39.3598 66.1281 39.0863 66.0919 38.8128 66.0477C38.5393 66.0075 38.2658 65.9592 37.9963 65.8989L38.0044 65.9149Z" fill="#AA1B24"/>
</g>
<g style="mix-blend-mode:multiply">
<path d="M44.387 65.2111C44.4031 65.2071 44.4191 65.2071 44.4433 65.2031C44.4795 65.199 44.5318 65.191 44.5961 65.1829C44.6605 65.1749 44.7288 65.1709 44.8053 65.1669C44.8857 65.1588 44.9661 65.1548 45.0466 65.1548C45.131 65.1548 45.2115 65.1548 45.2919 65.1508C45.3683 65.1468 45.4407 65.1468 45.5011 65.1508C45.5855 65.1548 45.6579 65.1628 45.7142 65.1709C45.6619 65.195 45.5936 65.2151 45.5131 65.2393C45.4528 65.2553 45.3764 65.2714 45.3 65.2875C45.2597 65.2915 45.2195 65.3036 45.1793 65.3036C45.1391 65.3036 45.0948 65.3076 45.0546 65.3076C44.9702 65.3076 44.8857 65.3076 44.8053 65.3036C44.765 65.3036 44.7248 65.2915 44.6926 65.2875C44.6564 65.2835 44.6202 65.2755 44.5881 65.2674C44.5036 65.2513 44.4392 65.2312 44.387 65.2071V65.2111Z" fill="#AA1B24"/>
</g>
<g style="mix-blend-mode:multiply">
<path d="M27.7201 69.7439C27.7965 69.7881 27.889 69.8444 27.9936 69.9168C28.074 69.9731 28.1665 70.0375 28.259 70.1139C28.3596 70.1823 28.4601 70.2627 28.5607 70.3432C28.7618 70.504 28.9548 70.673 29.0916 70.8137C29.1841 70.9022 29.2605 70.9827 29.3168 71.051C29.2404 71.0108 29.1479 70.9545 29.0353 70.8862C28.8704 70.7816 28.6612 70.6287 28.4601 70.4679C28.3596 70.3874 28.259 70.303 28.1705 70.2225C28.0821 70.1421 28.0016 70.0616 27.9332 69.9892C27.8448 69.8967 27.7724 69.8163 27.7161 69.7439H27.7201Z" fill="#AA1B24"/>
</g>
</g>
<g style="mix-blend-mode:multiply" opacity="0.5">
<path d="M25.6771 69.4946C25.657 69.5066 25.6409 69.5227 25.6208 69.5428C25.4921 69.6756 25.4478 69.8565 25.4559 70.0335C25.3393 69.933 25.2307 69.8405 25.1221 69.7439C25.295 69.6434 25.48 69.5589 25.6771 69.4946Z" fill="#AD1B24"/>
</g>
<path d="M34.067 66.8803C34.433 68.8269 34.8151 70.1984 35.2133 70.9988C38.6521 64.7969 39.6697 66.8039 40.9205 69.0964C44.8017 69.382 43.2653 73.6815 42.3282 74.9605C41.3911 76.2354 40.7114 75.5839 40.7395 74.4376C40.0437 74.9765 39.4806 74.5261 39.0463 73.0822C38.6119 73.3919 38.2137 73.8464 37.8477 74.4376C37.3007 75.3224 36.2309 75.8694 35.712 75.7126C35.1892 75.5557 34.7709 75.8453 33.0776 75.8976C32.2451 76.3923 31.2798 76.1832 30.9138 75.5316C30.5478 74.88 30.8092 74.3853 32.1646 73.5769C33.52 72.7685 33.335 72.5071 32.8685 71.3367C32.418 70.3312 31.9032 68.7827 31.3321 66.6993L34.067 66.8803Z" fill="#958E96"/>
<g style="mix-blend-mode:multiply" opacity="0.5">
<path d="M42.7264 74.2928C42.5936 74.5583 42.4569 74.7835 42.3282 74.9564C41.3911 76.2314 40.7114 75.5798 40.7395 74.4336C40.0437 74.9725 39.4806 74.5221 39.0463 73.0782C38.6119 73.3879 38.2137 73.8423 37.8477 74.4336C37.3007 75.3184 36.2309 75.8654 35.712 75.7086C35.1892 75.5517 34.7709 75.8413 33.0776 75.8936C32.2451 76.3883 31.2798 76.1791 30.9138 75.5276C30.5478 74.876 30.8092 74.3813 32.1646 73.5729C33.52 72.7645 33.335 72.503 32.8685 71.3326C32.418 70.3271 31.9032 68.7786 31.3321 66.6953L34.067 66.8762C34.1475 67.2945 34.248 67.7691 34.3687 68.296C34.3687 68.3 34.3647 68.3 34.3606 68.3C34.1636 68.3966 34.0751 68.7505 34.0107 68.9838C33.7614 68.8309 33.4074 68.4086 33.1339 68.469C32.8805 68.5293 32.7518 68.7988 32.7156 69.0361C32.6553 69.4423 32.788 69.8887 32.8926 70.2789C33.0052 70.6972 33.1379 71.1034 33.3752 71.4694C33.8257 72.1652 34.5577 71.9641 34.8714 71.2884C34.9639 71.0873 35.0202 70.8621 35.0484 70.6288C35.1047 70.7655 35.157 70.8862 35.2133 70.9988C36.3716 68.9074 37.2565 67.753 37.9684 67.2221C37.7311 67.6163 37.6225 68.0829 37.727 68.4971C37.8919 69.1165 38.6159 69.4342 39.0261 69.8686C39.4444 70.311 39.4806 70.9787 39.6294 71.5418C39.738 71.956 39.919 72.688 40.4338 72.7645C40.7878 72.8167 41.017 72.4427 41.1095 72.1612C41.2785 71.6423 41.2181 71.039 41.1618 70.5081C41.1136 70.0335 41.0291 69.567 40.9366 69.0964C41.3629 69.1286 41.7209 69.213 42.0266 69.3337C42.0064 69.3457 41.9823 69.3498 41.9582 69.3659C41.7531 69.4785 41.7008 69.7439 41.6927 69.9531C41.6807 70.4599 41.8818 70.9706 41.9019 71.4814C41.93 72.141 41.7651 72.8569 41.926 73.5045C42.0225 73.8866 42.3202 74.2566 42.7224 74.2928H42.7264Z" fill="#958E96"/>
</g>
<path d="M40.8962 73.8665C41.053 75.7689 39.2029 77.1243 39.3839 76.7583C40.0073 75.1253 39.9832 74.0756 39.3035 73.605C39.7459 73.1626 40.6589 72.6397 40.8921 73.8665H40.8962Z" fill="#35262D"/>
<g style="mix-blend-mode:multiply">
<path d="M39.3076 73.605C39.5007 73.412 39.7862 73.2028 40.0638 73.1304C39.7541 73.42 40.0115 73.7458 40.1804 74.0475C40.651 74.872 40.116 75.6965 39.5087 76.4124C39.9873 74.9645 39.919 74.0314 39.3076 73.605Z" fill="#35262D"/>
</g>
<path d="M22.4232 67.1417C22.0813 69.378 21.8521 70.9948 21.7354 71.9922C21.5545 73.4884 22.5439 73.9107 23.7424 73.7016C24.76 73.4925 25.9867 73.6694 25.7494 74.6588C25.5121 75.6482 22.1859 76.336 19.9376 76.0384C17.1826 75.5879 16.9734 76.4607 15.5054 77.6552C13.4984 78.9744 12.4527 77.0881 12.871 76.159C12.3924 76.3682 12.0022 76.6698 11.5799 77.3576C11.1616 78.0453 9.72175 77.2369 9.87459 76.159C10.4417 73.7619 13.4099 73.5528 15.9558 73.6413C18.1398 73.6131 18.8597 73.1908 19.278 71.9641C19.6159 70.8862 19.8491 69.579 19.9658 68.0386L22.4232 67.1417Z" fill="#958E96"/>
<g style="mix-blend-mode:multiply" opacity="0.5">
<path d="M11.5799 77.3535C11.2098 77.9609 10.0475 77.4018 9.88257 76.521C10.0434 76.6497 10.2727 76.698 10.5824 76.5974C11.0932 76.4365 11.5155 75.9499 11.8936 75.5959C12.3682 75.1495 12.8468 74.7232 13.4501 74.4658C14.1137 74.1802 14.8658 74.1923 15.5737 74.1963C16.3499 74.2003 17.1141 74.1681 17.8863 74.0877C18.6626 74.0072 19.467 73.8544 20.2432 73.8423C19.4348 74.4738 18.381 74.6749 17.3796 74.7795C16.8607 74.8358 16.3459 74.8478 15.8271 74.8277C15.2399 74.8036 14.6647 74.7875 14.0976 74.9685C13.3817 75.2018 12.8347 75.7367 12.4325 76.3963C12.1389 76.5974 11.8694 76.887 11.5839 77.3535H11.5799Z" fill="#958E96"/>
</g>
<g style="mix-blend-mode:multiply" opacity="0.5">
<path d="M25.7493 74.6548C25.512 75.6442 22.1858 76.332 19.9375 76.0344C17.1825 75.5839 16.9733 76.4566 15.5053 77.6512C14.3148 78.4355 13.4581 78.0856 13.0479 77.4782C13.1886 77.4943 13.3495 77.4742 13.5265 77.4219C13.812 77.3294 14.0735 77.1565 14.3027 76.9675C14.717 76.6336 15.1272 76.3119 15.5978 76.0625C16.6636 75.4914 17.9949 75.3707 19.1814 75.3345C20.4121 75.2983 21.6469 75.3949 22.8776 75.3345C23.5292 75.3024 24.1606 75.1937 24.6956 74.7915C25.1058 74.4859 24.9409 74.2003 24.4985 74.0636C24.1043 73.9389 23.6659 74.0434 23.2718 74.1078C22.6966 74.2003 22.21 74.144 21.7595 73.7458C20.9913 73.0661 21.3895 71.8314 21.5544 70.9827C21.6509 70.488 21.9123 70.0295 22.037 69.5428C22.0692 69.4141 22.2663 68.6741 21.9003 68.7666C21.4659 68.8792 21.112 69.394 20.8103 69.6917C20.7942 69.7118 20.5569 69.9209 20.5529 69.8767C20.5449 69.8003 20.5328 69.7319 20.5127 69.6595C20.4805 69.5428 20.4121 69.4383 20.2995 69.39C20.1467 69.3216 19.9617 69.394 19.8008 69.4865C19.8812 68.9355 19.9335 68.4529 19.9657 68.0386L22.4231 67.1417C22.0813 69.378 21.852 70.9948 21.7354 71.9922C21.5544 73.4884 22.5438 73.9107 23.7423 73.7016C24.7599 73.4925 25.9866 73.6694 25.7493 74.6588V74.6548Z" fill="#958E96"/>
</g>
<g style="mix-blend-mode:multiply">
<g style="mix-blend-mode:multiply">
<path d="M21.6588 69.6916C21.3974 69.8364 21.0676 70.0174 20.7579 69.9611C20.4361 69.9048 20.1867 69.7399 19.9334 69.5348C19.8972 69.5066 19.9655 69.4302 20.0017 69.4544C20.1988 69.5871 20.4643 69.7681 20.7016 69.8043C21.0515 69.8606 21.325 69.7117 21.6347 69.5911C21.7111 69.5629 21.7151 69.6635 21.6588 69.6916Z" fill="#958E96"/>
</g>
<g style="mix-blend-mode:multiply">
<path d="M21.6833 70.9947C21.0197 71.2079 20.1952 71.4774 19.6361 70.9143C19.5999 70.8741 19.6803 70.7977 19.7165 70.8339C20.2716 71.3487 21.0518 71.0269 21.6873 70.858C21.7798 70.8339 21.7396 70.9746 21.6793 70.9947H21.6833Z" fill="#958E96"/>
</g>
<g style="mix-blend-mode:multiply">
<path d="M21.0959 72.0002C20.6454 72.1812 19.8612 72.3139 19.475 71.9238C19.4388 71.8876 19.5153 71.8112 19.5555 71.8474C19.9255 72.1772 20.6776 72.0324 21.0879 71.8796C21.1844 71.8434 21.1683 71.9721 21.0959 72.0002Z" fill="#958E96"/>
</g>
<g style="mix-blend-mode:multiply">
<path d="M21.2408 73.1264C20.5369 73.2189 19.7124 73.2752 19.1855 72.7242C19.1332 72.6719 19.2418 72.5674 19.2941 72.6156C19.817 73.1143 20.6053 73.0379 21.2729 72.9816C21.3775 72.9736 21.3172 73.1143 21.2448 73.1224L21.2408 73.1264Z" fill="#958E96"/>
</g>
<g style="mix-blend-mode:multiply">
<path d="M19.8852 74.1118C19.1853 74.4416 18.4936 74.699 17.7616 74.8438C18.1477 75.0489 18.3729 75.3827 18.4131 75.8332C18.4212 75.9096 18.2804 75.9901 18.2603 75.8935C18.1718 75.4672 17.9989 75.1535 17.6127 74.9363C17.5886 74.9242 17.5846 74.9001 17.5926 74.876C17.299 74.9283 17.0014 74.9604 16.6957 74.9725C16.2895 74.9886 15.8431 74.9765 15.3966 74.9966C15.9517 75.2098 16.3056 75.6965 16.3539 76.3319C16.3579 76.4003 16.2252 76.4808 16.2131 76.3882C16.1528 76.0062 16.0562 75.6844 15.7667 75.4109C15.5495 75.2018 15.3202 75.0891 15.0266 75.0248C15.0226 75.0248 15.0226 75.0208 15.0186 75.0208C14.5078 75.065 14.0131 75.1696 13.6028 75.4189C14.3268 75.3908 14.7491 76.0625 14.9502 76.6859C14.9703 76.7502 14.8537 76.8427 14.8215 76.7703C14.5761 76.1911 14.2504 75.5517 13.5465 75.5074C13.5264 75.5034 13.5224 75.4913 13.5264 75.4712C13.2931 75.6281 13.088 75.8412 12.9271 76.1268C12.903 76.171 12.8105 76.1831 12.8427 76.1188C13.273 75.1977 14.1257 74.9886 15.0387 74.9162C15.0507 74.9081 15.0628 74.9041 15.0749 74.9082C15.0829 74.9082 15.0869 74.9122 15.095 74.9122C15.1754 74.9081 15.2518 74.9001 15.3282 74.9001C16.0442 74.8639 16.7963 74.9001 17.5041 74.7714C18.3367 74.6186 19.0928 74.3129 19.8691 73.9871C19.9696 73.9429 19.9495 74.0836 19.8812 74.1158L19.8852 74.1118Z" fill="#958E96"/>
</g>
<g style="mix-blend-mode:multiply">
<path d="M12.159 76.4607C12.1631 76.521 12.0384 76.6135 12.0183 76.5331C11.8453 75.8775 11.1938 75.3184 10.5583 75.1133C10.498 75.0932 10.5744 74.9846 10.6267 74.9967C11.2903 75.1656 12.0866 75.7206 12.159 76.4607Z" fill="#958E96"/>
</g>
<g style="mix-blend-mode:multiply">
<path d="M13.1405 75.1776C13.1526 75.2339 13.0359 75.3144 13.0118 75.246C12.8348 74.7754 12.5533 74.2606 12.0385 74.0957C11.962 74.0716 12.0626 73.9469 12.1269 73.963C12.6659 74.1118 13.0399 74.6507 13.1405 75.1736V75.1776Z" fill="#958E96"/>
</g>
<g style="mix-blend-mode:multiply">
<path d="M14.7493 74.8076C14.5723 74.4416 14.3792 74.0153 14.0092 73.8102C13.9489 73.778 14.0293 73.6774 14.0856 73.7016C14.4999 73.8826 14.7292 74.3169 14.886 74.7191C14.9142 74.7875 14.7855 74.8881 14.7493 74.8076Z" fill="#958E96"/>
</g>
<g style="mix-blend-mode:multiply">
<path d="M16.4544 74.4456C16.4584 74.5019 16.3539 74.5663 16.3378 74.4939C16.2815 74.2164 16.1809 73.9871 15.9476 73.8142C15.9074 73.782 15.9838 73.6975 16.0241 73.7257C16.2935 73.8986 16.4222 74.1319 16.4504 74.4496L16.4544 74.4456Z" fill="#958E96"/>
</g>
<g style="mix-blend-mode:multiply">
<path d="M17.9709 74.1721C17.9668 74.2204 17.8663 74.2888 17.8623 74.2164C17.8462 73.9952 17.7859 73.7981 17.633 73.6332C17.5928 73.5889 17.6813 73.5005 17.7255 73.5447C17.8985 73.7177 17.9829 73.9308 17.9709 74.1721Z" fill="#958E96"/>
</g>
<g style="mix-blend-mode:multiply">
<path d="M19.306 73.7378C19.2256 73.597 19.121 73.4723 19.0164 73.3476C18.9682 73.2913 19.0808 73.1908 19.125 73.2431C19.2376 73.3758 19.3462 73.5045 19.4226 73.6613C19.4508 73.7177 19.3422 73.7981 19.306 73.7378Z" fill="#958E96"/>
</g>
<g style="mix-blend-mode:multiply">
<path d="M20.1789 75.431C20.0703 75.0972 19.829 74.7915 19.5314 74.5904C19.4791 74.5582 19.5515 74.4697 19.5997 74.4939C19.9295 74.6789 20.2151 74.9725 20.3116 75.3425C20.3277 75.4109 20.203 75.5074 20.1749 75.431H20.1789Z" fill="#958E96"/>
</g>
<g style="mix-blend-mode:multiply">
<path d="M22.0613 75.2541C21.8763 74.9323 21.7757 74.5623 21.5103 74.2928C21.2609 74.0394 20.9713 73.8906 20.6375 73.7659C20.5893 73.7498 20.6496 73.6614 20.6898 73.6694C21.0437 73.7619 21.3937 73.8785 21.647 74.1601C21.9044 74.4416 22.0935 74.7956 22.2141 75.1575C22.2383 75.234 22.1096 75.3426 22.0613 75.2541Z" fill="#958E96"/>
</g>
<g style="mix-blend-mode:multiply">
<path d="M23.9918 75.3586C23.8631 75.0691 23.7786 74.7513 23.6057 74.4859C23.4368 74.2204 23.2196 74.0072 22.9702 73.8182C22.926 73.786 23.0104 73.6935 23.0547 73.7217C23.6258 74.1199 23.9154 74.6146 24.1366 75.2701C24.1567 75.3425 24.028 75.4471 23.9918 75.3626V75.3586Z" fill="#958E96"/>
</g>
<g style="mix-blend-mode:multiply">
<path d="M25.2627 74.518C25.2748 74.5743 25.1581 74.6508 25.142 74.5824C25.0897 74.4054 25.0133 74.2244 24.8886 74.0836C24.7801 73.963 24.6312 73.782 24.4663 73.7458C24.402 73.7337 24.4623 73.6493 24.5066 73.6533C24.6996 73.6573 24.8886 73.8343 25.0013 73.9751C25.134 74.14 25.2225 74.3129 25.2627 74.518Z" fill="#958E96"/>
</g>
</g>
<path d="M25.6609 74.0354C27.0404 73.1505 27.3381 74.1721 27.4386 75.4551C27.1732 74.7513 26.598 74.522 25.7092 74.7714C25.8338 74.5341 25.8097 74.1962 25.6609 74.0354Z" fill="#35262D"/>
<g style="mix-blend-mode:multiply">
<path d="M27.4064 75.3908C27.1209 74.7433 26.5538 74.5381 25.7092 74.7714C25.8338 74.5341 25.8097 74.1963 25.6609 74.0354C25.7936 73.9509 25.9143 73.8826 26.0309 73.8343C25.9706 74.0032 26.0108 74.1601 26.2561 74.1842C27.0042 74.2606 27.322 74.7714 27.4105 75.3868L27.4064 75.3908Z" fill="#35262D"/>
</g>
<path d="M41.938 75.6362C41.4433 76.7302 40.3212 77.1484 40.5303 76.706C40.8601 76.0786 41.0532 75.4109 41.1055 74.699C41.5238 74.4658 42.2517 74.9605 41.938 75.6362Z" fill="#35262D"/>
<g style="mix-blend-mode:multiply">
<path d="M40.5303 76.706C40.8601 76.0785 41.0532 75.4109 41.1054 74.699C41.2502 74.6186 41.4312 74.6266 41.5921 74.695C41.4996 74.7392 41.4192 74.8076 41.3508 74.9041C41.1698 75.1575 41.1376 75.4471 41.0974 75.7487C41.0451 76.171 40.848 76.5491 40.5826 76.8789C40.5062 76.8669 40.482 76.8146 40.5303 76.706Z" fill="#35262D"/>
</g>
<g style="mix-blend-mode:multiply">
<g style="mix-blend-mode:multiply">
<path d="M40.309 69.6394C39.4604 69.8043 38.7002 70.3472 38.5394 71.2522C38.5353 71.2723 38.5192 71.2924 38.4951 71.3085C38.845 71.8716 39.0904 72.8006 39.1587 73.0339C39.1829 73.1184 39.022 73.2431 38.9898 73.1425C38.8531 72.7564 38.7203 72.3663 38.5675 71.9802C38.5072 71.8313 38.4509 71.6785 38.3745 71.5378C38.2458 71.3045 38.0004 70.7655 37.554 71.216C37.0391 71.7348 36.8381 72.6559 36.7777 73.3879C37.4856 73.0299 38.1412 72.4829 38.471 72.0968C38.5273 72.0324 38.652 72.0606 38.5796 72.1451C37.8838 73.042 36.9708 73.6895 35.8366 73.8665C35.0965 73.9831 34.4168 73.6533 34.1996 72.9334C34.1835 72.8851 34.276 72.8127 34.3002 72.869C34.7225 73.9751 35.74 73.8826 36.6892 73.4281C36.7375 72.5473 36.9748 71.4855 37.7189 70.9465C37.7712 70.9103 37.8194 70.8862 37.8717 70.8741C37.5298 70.4598 37.6103 69.8244 37.7229 69.3096C37.9119 68.4247 38.3262 67.7893 38.9858 67.19C39.0461 67.1377 39.1105 67.202 39.0501 67.2583C38.2618 68.0185 37.1317 69.9169 38.1693 70.9183C38.1774 70.9264 38.1814 70.9385 38.1814 70.9505C38.2659 71.0068 38.3463 71.0953 38.4187 71.1999C38.5836 70.2789 39.4242 69.5951 40.3372 69.4986C40.4458 69.4865 40.3814 69.6273 40.309 69.6434V69.6394Z" fill="#958E96"/>
</g>
<g style="mix-blend-mode:multiply">
<path d="M36.7817 72.4709C36.3876 72.7765 35.8687 73.1666 35.3378 73.05C34.9356 72.9615 34.6983 72.7242 34.5777 72.3542C34.3484 72.688 34.095 73.0058 33.8215 73.3074C33.8175 73.3114 33.8135 73.3155 33.8095 73.3195C33.9784 73.4321 34.1393 73.5407 34.2559 73.7136C34.4892 74.0555 34.6139 74.4336 34.6219 74.8478C34.6219 74.9243 34.4731 75.0208 34.461 74.9122C34.4087 74.5019 34.3323 74.0796 34.0548 73.7538C33.906 73.5809 33.717 73.4321 33.5159 73.3235C33.351 73.235 33.174 73.2149 33.001 73.1505C32.9488 73.1304 33.0171 73.05 33.0614 73.0661C33.2142 73.1103 33.351 73.0782 33.4958 73.1465C33.5722 73.1827 33.6446 73.2189 33.717 73.2632C33.721 73.2551 33.725 73.2471 33.729 73.239C34.2841 72.503 34.8592 71.8152 35.189 70.9384C35.2131 70.8741 35.3298 70.8661 35.2976 70.9505C35.1448 71.3929 34.9356 71.8032 34.6863 72.1893C34.8431 72.5714 35.0804 72.873 35.5429 72.8851C35.9934 72.8972 36.3795 72.5835 36.7254 72.3381C36.83 72.2617 36.8622 72.4065 36.7777 72.4709H36.7817Z" fill="#958E96"/>
</g>
<g style="mix-blend-mode:multiply">
<path d="M37.3327 74.9042C36.8581 75.1495 36.287 75.3948 35.74 75.3345C35.2694 75.2862 35.1769 74.9604 34.9074 74.6628C34.8672 74.6186 34.9557 74.5341 34.9999 74.5743C35.0844 74.6588 35.2011 74.8921 35.2694 74.9403C35.4987 75.1052 35.7963 75.2259 36.0859 75.1736C36.5162 75.0972 36.9225 74.9323 37.3166 74.7513C37.4373 74.695 37.4091 74.8639 37.3287 74.9042H37.3327Z" fill="#958E96"/>
</g>
<g style="mix-blend-mode:multiply">
<path d="M37.1318 71.0792C36.2429 70.85 36.2751 69.8324 36.4078 69.1044C36.4158 69.0441 36.5365 68.9999 36.5244 69.0883C36.4199 69.7922 36.4319 70.6449 37.2202 70.9224C37.3047 70.9505 37.2001 71.0993 37.1318 71.0792Z" fill="#958E96"/>
</g>
<g style="mix-blend-mode:multiply">
<path d="M40.9727 73.7217C40.9525 73.7901 40.7997 73.8584 40.8238 73.7458C40.9485 73.1264 41.037 72.511 41.0732 71.8957C40.4337 71.6302 39.75 71.9681 39.3116 72.4628C39.2713 72.507 39.203 72.4668 39.2432 72.4145C39.6374 71.9279 40.4417 71.4251 41.0812 71.7147C41.1215 70.8822 41.0611 70.0536 40.8641 69.213C40.852 69.1567 40.9606 69.0722 40.9807 69.1366C41.395 70.5805 41.4231 72.2738 40.9727 73.7217Z" fill="#958E96"/>
</g>
<g style="mix-blend-mode:multiply">
<path d="M33.1659 75.427C33.1659 75.4874 33.0533 75.5598 33.0412 75.4753C32.9487 74.8519 32.6953 74.0716 32.0719 73.7861C32.0075 73.7579 32.092 73.6493 32.1523 73.6735C32.8039 73.9429 33.1498 74.7594 33.1659 75.427Z" fill="#958E96"/>
</g>
<g style="mix-blend-mode:multiply">
<path d="M43.3095 71.2683C43.1366 71.0712 42.9234 70.9063 42.67 70.8258C42.304 70.7092 42.0305 70.7534 41.7208 70.9907C41.6645 71.035 41.6283 70.9586 41.6726 70.9183C41.9461 70.665 42.2075 70.5282 42.5936 70.6087C42.9476 70.6851 43.2492 70.85 43.4423 71.1637C43.4785 71.22 43.3578 71.3246 43.3095 71.2683Z" fill="#958E96"/>
</g>
<g style="mix-blend-mode:multiply">
<path d="M42.8509 73.1827C42.6699 73.0057 42.4769 72.8006 42.2436 72.6961C41.954 72.5593 41.7247 72.6036 41.4432 72.7443C41.3668 72.7805 41.3829 72.6679 41.4352 72.6398C41.6926 72.511 41.9701 72.4065 42.2557 72.5312C42.5372 72.6558 42.7584 72.8489 42.9514 73.0862C42.9957 73.1385 42.8992 73.231 42.8509 73.1827Z" fill="#958E96"/>
</g>
<g style="mix-blend-mode:multiply">
<path d="M42.2757 74.156C42.2918 74.2284 42.1591 74.3411 42.1269 74.2526C42.0223 73.967 41.8413 73.7297 41.5839 73.5608C41.5196 73.5165 41.6121 73.408 41.6684 73.4401C41.9419 73.597 42.1993 73.8383 42.2757 74.156Z" fill="#958E96"/>
</g>
</g>
<path d="M31.4122 75.9981C30.3947 75.7126 29.7431 75.9941 29.4576 76.8387C29.1559 76.0544 29.3208 74.7594 30.9578 74.9524C30.9296 75.1857 31.1066 75.8332 31.4082 75.9981H31.4122Z" fill="#35262D"/>
<g style="mix-blend-mode:multiply">
<path d="M31.4123 75.9981C30.3947 75.7125 29.7431 75.9941 29.4576 76.8387C29.4455 76.8065 29.4335 76.7703 29.4214 76.7341C29.5018 76.3882 29.715 76.0906 29.9925 75.8412C30.1494 75.6964 30.3867 75.616 30.5113 75.431C30.6199 75.2741 30.6119 75.0811 30.5274 74.9363C30.6561 74.9282 30.7969 74.9323 30.9578 74.9483C30.9296 75.1816 31.1066 75.8292 31.4083 75.9941L31.4123 75.9981Z" fill="#35262D"/>
</g>
<path d="M11.0569 54.762C12.5451 56.9661 13.5224 58.418 14.0895 59.2626C13.8965 59.8016 13.0357 61.9373 11.5798 62.1625C9.91066 62.4239 8.7121 61.0162 6.83785 59.138C4.9636 57.2637 1.00193 55.0838 1.23521 54.8143C1.67763 54.3437 3.04511 54.4885 5.33764 55.2447C4.42465 54.4644 3.29045 53.6801 1.93504 52.8998C2.16832 52.5097 3.41915 51.8461 5.88464 53.3302C5.61114 53.0567 4.55738 51.9627 3.38295 51.1784C2.60269 50.6556 2.46996 49.7707 2.99282 48.5199C2.70726 48.8054 2.48605 49.1594 2.32919 49.5777C2.17234 48.9784 2.17234 48.4435 2.32919 47.9729C2.04363 48.3107 1.83449 48.8095 1.70578 49.461C1.50871 47.9729 0.845077 46.3721 4.28388 42.7362C8.03641 38.6338 10.6266 34.3544 11.3344 33.7511C11.805 33.3489 12.525 33.2082 13.4943 33.3288C13.261 35.2513 12.4485 36.9044 11.0609 38.296C9.39182 39.9651 8.92527 41.3125 8.89711 42.2536C9.6452 41.4211 10.1882 40.8499 10.5341 40.5443C8.59144 42.4507 8.45469 44.0635 10.1198 45.3827C10.3289 46.8427 8.55524 50.9049 11.0569 54.766V54.762Z" fill="#FAB519"/>
<path d="M4.28389 42.7362C8.03641 38.6338 10.6266 34.3544 11.3344 33.7511C11.805 33.3489 12.525 33.2082 13.4943 33.3288C13.261 35.2513 12.4485 36.9044 11.061 38.296C9.39183 39.9651 8.92527 41.3125 8.89712 42.2536C9.64521 41.4211 10.1882 40.8499 10.5341 40.5443C8.59144 42.4507 8.4547 44.0635 10.1198 45.3827C10.2445 46.2716 9.63717 48.1338 9.71358 50.3217C9.49237 50.1166 9.31541 49.8632 9.1867 49.5817C8.87299 48.8899 9.08615 48.0212 8.97354 47.2891C8.96549 47.2449 8.92125 47.2811 8.90516 47.2972C8.71211 47.5063 8.58742 47.7758 8.4547 48.0212C8.31795 48.2826 8.0525 48.9945 7.70259 48.9985C7.13951 49.0106 7.1757 47.5586 7.09929 47.2007C7.09526 47.1765 7.05504 47.2047 7.047 47.2087C6.65687 47.5345 6.35924 47.989 6.03748 48.3751C5.82834 48.6245 5.61919 48.8738 5.39798 49.1151C5.24113 49.2841 5.06818 49.5214 4.81882 49.4852C4.25976 49.4007 4.28389 48.3992 4.28389 48.001C4.28389 47.45 4.35629 46.9071 4.43673 46.3601C4.44477 46.2917 4.37237 46.348 4.35628 46.3721C4.22758 46.5853 4.09888 46.7944 3.95006 46.9875C3.87365 47.084 3.78918 47.1765 3.69668 47.261C3.61221 47.3414 3.57199 46.8467 3.57199 46.8347C3.54786 46.2836 3.75701 45.7367 3.92995 45.2219C3.94202 45.1937 3.93398 45.1535 3.89376 45.1776C3.11751 45.6803 2.75553 46.6014 2.26485 47.3495C2.06777 46.4566 2.2206 45.6281 2.55845 44.8558C2.96869 44.2324 3.52373 43.5286 4.28389 42.7242V42.7362Z" fill="#ED1B24"/>
<path d="M71.4072 22.8314C71.3589 23.3783 70.9607 24.223 70.2167 25.3652C70.4138 28.5426 70.4379 30.63 70.2891 31.6234C70.0679 33.1156 68.0528 32.5927 67.6828 31.1046C67.6346 32.7938 67.2364 34.1332 66.4923 35.1306C66.5929 34.5354 66.4682 33.912 66.1183 33.2684C66.2188 35.7017 65.3219 37.8897 63.4356 39.8243C63.6327 39.5267 63.7091 38.9555 63.6608 38.1109C62.6151 41.7629 58.9631 46.2354 54.9411 47.5747C52.2585 48.4676 49.9659 47.997 48.0635 46.163C48.6186 46.9955 49.3305 47.7275 50.1992 48.3509C48.0474 48.9422 45.771 47.6913 43.3739 44.5984C44.1381 46.2675 44.4156 47.1363 44.2064 47.2047C43.7882 47.3092 42.7987 46.1791 41.2342 43.8141C41.4795 45.3103 41.3227 47.7396 40.7676 51.11C39.6214 57.3642 36.6491 61.5873 35.2454 63.6184C34.4129 64.821 34.1716 66.2247 34.5134 67.8415C34.3043 67.6324 34.1153 67.4071 33.9383 67.1618C33.8337 67.4755 33.8015 67.8576 33.8337 68.3081C33.0374 68.0305 32.5829 67.7691 32.4823 67.5278C32.3094 67.7691 32.237 68.119 32.2732 68.5695C31.6498 68.0145 31.2154 67.387 30.9701 66.6912C30.7247 67.2141 30.6925 67.6806 30.8655 68.0989C30.6925 67.9581 30.4995 67.6806 30.2903 67.2664C26.6424 69.9249 23.1513 68.2558 22.3147 67.3709C21.7919 67.7892 21.1524 68.3604 20.3882 69.0924L20.2313 68.5172C20.2313 68.5172 20.0061 68.6741 19.5516 68.9878C19.813 68.3121 19.6039 67.8415 18.9242 67.5278C18.2485 67.2141 17.8302 66.9044 17.2591 64.817C16.8086 63.4616 15.7669 61.5672 14.13 59.1379C14.1219 59.1661 14.1058 59.2103 14.0857 59.2586C13.5186 58.414 12.5413 56.962 11.0531 54.758C8.55145 50.9009 10.3251 46.8346 10.116 45.3746C8.44688 44.0554 8.58764 42.4426 10.5303 40.5362C10.1844 40.8419 9.6414 41.413 8.89331 42.2455C8.92147 41.3044 9.38802 39.953 11.0571 38.2879C12.4488 36.8963 13.2572 35.2432 13.4905 33.3207L13.7036 32.0095C9.63336 19.7666 7.58617 13.5928 7.56203 13.4923C7.45746 9.89663 9.91893 7.47135 14.9504 6.22051C19.7969 5.20295 21.4379 6.22051 24.0562 7.62821C25.7374 8.56534 26.4413 8.4125 26.9481 7.47135C27.0245 8.25162 26.8153 8.83883 26.3246 9.23298C26.7952 9.20483 27.1572 9.06406 27.4186 8.80263C27.5755 9.24505 27.3663 9.73975 26.7952 10.2867C29.4216 11.8955 30.3507 15.5958 29.5865 21.3875C28.9832 24.9469 28.6815 25.4296 31.1551 26.0932C30.8735 26.4552 30.5317 26.596 30.1295 26.5155C31.6578 27.159 34.6341 27.8428 39.0583 28.5667C43.4825 29.2907 46.318 29.9342 47.5648 30.4973C47.6452 29.6929 47.9067 29.0494 48.3491 28.5667C48.2687 28.8885 48.2284 29.0494 48.2284 29.0494C49.0771 27.1872 50.0625 25.3572 51.1846 23.5593C52.6928 21.1461 53.1755 19.6379 53.1755 17.828C53.2358 16.6214 53.4771 16.9834 55.1664 16.923C56.4936 14.9925 57.5192 13.7256 59.7514 13.5446C61.2396 13.4239 64.4049 13.81 69.2434 14.7029C72.3001 15.447 71.8496 17.462 71.6284 19.0266C71.4072 20.5911 72.0748 22.6061 71.4072 22.8273V22.8314Z" fill="#ED1B24"/>
<g style="mix-blend-mode:multiply" opacity="0.5">
<path d="M20.947 17.7074C21.0033 17.2247 21.2527 16.7622 21.6951 16.3198C20.9913 15.998 20.1386 13.3073 21.2889 12.3702C22.4432 11.4331 23.3602 14.2284 22.761 15.5516C23.2878 15.3786 23.6659 15.4349 23.8952 15.7205C23.139 15.1775 22.1577 15.8412 20.947 17.7074Z" fill="#958E96"/>
</g>
<path d="M71.407 22.8314C71.3588 23.3784 70.9606 24.223 70.2165 25.3652C70.4136 28.5426 70.4377 30.63 70.2889 31.6234C70.0677 33.1156 68.0527 32.5927 67.6827 31.1046C67.6344 32.7938 67.2362 34.1332 66.4921 35.1306C66.5927 34.5354 66.468 33.912 66.1181 33.2684C66.2428 36.3292 64.276 38.863 63.6365 39.6031C63.6164 39.5468 63.5963 39.4865 63.5802 39.4261C63.6446 39.1566 63.6969 38.7303 63.6607 38.1109C63.5963 38.3442 63.5159 38.5775 63.4314 38.8148C63.182 37.4875 63.3751 36.0718 63.7491 34.7888C63.7813 34.6882 63.6727 34.7807 63.6566 34.8209C63.1056 36.1241 61.8186 38.0345 60.1374 37.3749C58.5849 36.7636 58.5366 34.5675 58.7498 33.2081C58.7579 33.1679 58.7217 33.1679 58.6975 33.192C57.4225 34.463 56.0028 35.9029 54.1205 36.116C53.67 36.1683 52.9662 36.12 52.9662 35.5208C52.9622 34.8048 53.8188 34.1453 54.3256 33.7591C54.3538 33.739 54.398 33.6023 54.3337 33.6505C52.6203 34.837 49.7325 36.6912 48.0111 34.5354C47.1825 33.4937 46.9855 32.1584 46.9814 30.8673C46.9814 30.6783 46.9855 30.4852 46.9935 30.2962C47.267 30.3887 47.4601 30.4571 47.5767 30.5094C47.6571 29.705 47.9186 29.0614 48.361 28.5788C48.2805 28.9006 48.2403 29.0614 48.2403 29.0614C49.089 27.1992 50.0744 25.3693 51.1965 23.5714C52.7047 21.1582 53.1874 19.65 53.1874 17.8401C53.2477 16.6335 53.489 16.9955 55.1783 16.9351C56.5055 15.0046 57.5311 13.7376 59.7633 13.5566C61.2515 13.436 64.4168 13.8221 69.2553 14.715C72.312 15.459 71.8615 17.4741 71.6403 19.0386C71.4191 20.6032 72.0867 22.6182 71.4191 22.8394L71.407 22.8314Z" fill="#FAB519"/>
<path d="M71.4071 22.8313C71.3588 23.3783 70.9606 24.2229 70.2165 25.3652C70.4136 28.5426 70.4378 30.63 70.2889 31.6234C70.0677 33.1156 68.0527 32.5927 67.6827 31.1046C67.6666 31.5953 67.6143 32.0497 67.5339 32.46C67.1156 31.4666 66.7777 30.441 66.3474 29.4556C65.7883 28.1766 65.6878 26.7729 66.5364 25.5944C66.5766 25.5381 66.5485 25.4698 66.4922 25.5382C65.9693 26.1575 65.2775 26.6402 64.5938 27.0705C63.7934 27.5733 62.9247 27.9956 62.0157 28.261C61.3199 28.4621 60.4552 28.5989 59.8036 28.1967C58.9831 27.6939 59.0756 26.5074 59.2124 25.699C59.2285 25.6146 59.1199 25.7232 59.1078 25.7634C58.959 26.5557 58.4482 28.1082 57.3985 27.3159C56.7388 26.8171 56.4694 25.872 56.4131 25.0555C56.409 24.9509 56.405 24.8504 56.397 24.7458C56.393 24.6815 56.2924 24.7981 56.2924 24.8383C56.2924 24.9228 56.2964 25.0113 56.3045 25.0997C56.3326 26.3707 55.9867 27.7784 54.933 28.5748C54.0843 29.2143 53.0507 29.0011 52.4393 28.1645C52.009 27.5773 51.828 26.8212 51.7234 26.1133C51.5625 25.0072 51.5867 23.9012 51.6832 22.7911C51.6832 22.771 51.6872 22.7469 51.6872 22.7308C52.8053 20.7841 53.1794 19.4247 53.1794 17.832C53.2397 16.6254 53.481 16.9874 55.1703 16.927C56.4975 14.9965 57.5231 13.7296 59.7553 13.5486C61.2435 13.4279 64.4088 13.814 69.2472 14.7069C72.304 15.451 71.8535 17.466 71.6323 19.0305C71.4111 20.5951 72.0787 22.6101 71.4111 22.8313H71.4071Z" fill="#0D5995"/>
<g style="mix-blend-mode:multiply" opacity="0.5">
<g style="mix-blend-mode:multiply" opacity="0.5">
<path d="M71.4072 22.8313C71.3589 23.3783 70.9607 24.2229 70.2167 25.3652C70.4137 28.5426 70.4379 30.63 70.2891 31.6234C70.0679 33.1156 68.0528 32.5927 67.6828 31.1046C67.6346 32.7938 67.2364 34.1331 66.4923 35.1306C66.5929 34.5353 66.4682 33.9119 66.1183 33.2684C66.2188 35.7017 65.3219 37.8897 63.4356 39.8243C63.6327 39.5266 63.7091 38.9555 63.6608 38.1109C62.6151 41.7629 58.9631 46.2353 54.9411 47.5747C52.2585 48.4675 49.9659 47.997 48.0635 46.1629C48.6186 46.9955 49.3304 47.7275 50.1992 48.3509C48.0474 48.9421 45.771 47.6913 43.3739 44.5984C44.1381 46.2675 44.4156 47.1363 44.2064 47.2046C43.7881 47.3092 42.7987 46.179 41.2342 43.8141C41.4795 45.3103 41.3227 47.7396 40.7676 51.11C39.6213 57.3642 36.6491 61.5873 35.2454 63.6184C34.4129 64.821 34.1715 66.2247 34.5134 67.8415C34.3043 67.6324 34.1152 67.4071 33.9383 67.1618C33.8337 67.4755 33.8015 67.8576 33.8337 68.308C33.0373 68.0305 32.5829 67.7691 32.4823 67.5278C32.3094 67.7691 32.237 68.119 32.2732 68.5695C31.6498 68.0144 31.2154 67.387 30.97 66.6912C30.7247 67.2141 30.6925 67.6806 30.8655 68.0989C30.6925 67.9581 30.4995 67.6806 30.2903 67.2664C26.6424 69.9249 23.1513 68.2557 22.3147 67.3709C21.7918 67.7892 21.1523 68.3603 20.3882 69.0923L20.2313 68.5172C20.2313 68.5172 20.0061 68.674 19.5516 68.9878C19.813 68.3121 19.6039 67.8415 18.9242 67.5278C18.2485 67.2141 17.8302 66.9044 17.2591 64.817C16.8086 63.4615 15.7669 61.5672 14.1299 59.1379C14.1219 59.166 14.1058 59.2103 14.0857 59.2585C13.5186 58.4139 12.5413 56.962 11.0531 54.7579C8.55143 50.9008 10.3251 46.8346 10.116 45.3746C8.44686 44.0554 8.58763 42.4426 10.5303 40.5362C10.1844 40.8418 9.64139 41.413 8.8933 42.2455C8.92145 41.3044 9.38801 39.953 11.0571 38.2879C12.4487 36.8962 13.2572 35.2432 13.4904 33.3207L13.7036 32.0095C9.63335 19.7666 7.58615 13.5928 7.56202 13.4923C7.50169 11.4209 8.55545 9.61505 10.7233 8.0706C10.0677 8.65379 9.35181 9.68343 9.27539 11.4169C9.48454 12.1208 9.7701 11.2761 10.1924 11.063C10.0476 11.9116 9.7701 12.4747 12.312 13.1102C14.8539 13.7457 17.5366 16.923 18.3852 20.5951C19.5154 25.325 19.5154 30.268 16.1249 32.6008C13.8122 34.0165 13.4744 35.5006 13.3054 37.5197C13.957 36.7836 14.6327 36.6228 15.3285 37.037C12.8268 39.0199 12.7222 41.1033 13.6594 42.7724C14.2144 41.1757 14.874 40.4115 15.6422 40.4799C13.776 43.5527 14.4758 46.2876 17.7337 48.6767C17.243 46.9633 17.1706 45.9015 17.5165 45.4832C17.6049 46.6979 19.1092 48.2986 22.0251 50.2774C23.5092 51.3714 26.2482 47.9326 26.7148 46.0543C26.767 47.4097 26.767 48.2946 26.7148 48.7129C27.8168 47.0639 28.4724 45.2178 28.6735 43.1786C29.0877 45.254 29.4739 46.7341 29.8399 47.6189C32.6713 45.2218 34.8513 42.2857 36.3796 38.8107C36.6933 37.769 35.8447 36.1039 34.9639 35.7902C36.0458 36.1361 36.6129 36.4418 36.6612 36.7112C36.5767 35.3277 35.8487 34.29 34.4772 33.5982C37.8396 34.5394 40.0276 36.9365 40.9687 40.3753C41.4554 42.1812 42.0466 43.5004 42.7424 44.337C42.1834 41.5578 42.1834 39.784 42.7424 39.0239C43.2613 41.7347 44.9304 43.7135 46.4949 44.7552C45.5216 42.9494 45.3487 41.6985 45.9721 41.0027C46.6679 43.7819 48.9282 45.2419 52.7491 45.3786C58.4805 45.5878 63.3833 38.0828 64.5296 30.992C65.2576 27.2395 64.9479 26.612 65.7804 25.3612C63.0696 29.0091 60.7771 26.0932 58.7982 24.8423C56.8154 23.5915 57.5474 25.7795 55.9828 26.9257C54.8366 27.7583 56.5057 24.6292 55.464 22.1315C54.4223 19.6298 54.0442 18.7892 55.5203 19.4488C56.9923 20.1085 59.0476 20.1245 59.3171 19.1271C59.5825 18.1296 59.1803 17.9245 58.1105 18.2302C57.0446 18.5358 56.8918 18.1779 55.826 17.466C54.7601 16.7541 53.4409 16.7058 53.5415 17.8199C53.642 18.9381 54 21.1703 51.6592 23.9173C49.3224 26.6603 47.5447 29.91 49.7286 33.1116C50.4888 34.2297 48.8679 33.0593 48.2566 31.4867C47.6492 29.9101 47.6493 33.7229 48.0515 36.1602C48.4617 38.3442 46.4225 35.1105 46.3461 33.0794C46.2657 31.0483 42.8269 30.0307 36.4158 29.0896C30.0048 28.1524 28.8303 27.7623 27.5835 26.431C28.2874 27.9956 28.5206 28.3053 29.3049 28.619C28.0018 28.3576 27.2457 27.9433 27.0365 27.3682C27.4025 28.4621 27.4789 29.3751 27.2698 30.1031C26.5418 29.2183 26.1235 28.5144 26.019 27.9916C25.4438 29.1378 25.106 29.7612 25.0014 29.8658C24.8445 30.0227 26.566 26.0329 27.1894 24.7056C27.8168 23.3783 28.7056 20.7841 26.8515 19.1472C27.2859 19.2558 27.5714 19.4046 27.7082 19.5936C27.5192 18.7772 26.9802 18.3187 26.0954 18.2141C26.9802 18.2141 27.5715 18.3066 27.8651 18.4916C27.8047 17.4861 27.1049 17.0196 25.7656 17.092C27.0365 15.636 27.8972 16.2594 28.4442 16.9633C28.9912 17.6671 28.5206 11.256 25.2387 10.709C26.3327 10.709 27.0365 9.92878 27.1934 9.06808C26.3608 9.90063 25.5524 10.1379 24.7681 9.77192C25.7052 9.56278 26.2281 9.12037 26.3327 8.44467C24.925 9.46224 24.1447 8.2878 22.737 7.42709C21.8924 6.91228 20.5169 6.14407 18.8075 5.81427C20.9754 5.90275 22.2986 6.67096 24.0683 7.62417C25.7495 8.56129 26.4533 8.40845 26.9601 7.4673C27.0365 8.24757 26.8274 8.83478 26.3367 9.22894C26.8073 9.20079 27.1692 9.06001 27.4307 8.79858C27.5875 9.241 27.3784 9.73571 26.8073 10.2827C29.4336 11.8915 30.3627 15.5918 29.5985 21.3834C28.9952 24.9429 28.6936 25.4255 31.1671 26.0892C30.8856 26.4511 30.5437 26.5919 30.1415 26.5115C31.6699 27.155 34.6461 27.8387 39.0703 28.5627C43.4945 29.2866 46.33 29.9302 47.5769 30.4932C47.6573 29.6888 47.9187 29.0453 48.3611 28.5627C48.2807 28.8844 48.2405 29.0453 48.2405 29.0453C49.0891 27.1831 50.0745 25.3531 51.1966 23.5553C52.7049 21.1421 53.1875 19.6338 53.1875 17.8239C53.2479 16.6173 53.4892 16.9793 55.1784 16.919C56.5057 14.9884 57.5313 13.7215 59.7635 13.5405C61.2516 13.4199 64.417 13.806 69.2554 14.6989C72.3121 15.4429 71.8617 17.458 71.6405 19.0225C71.4192 20.5871 72.0869 22.6021 71.4193 22.8233L71.4072 22.8313Z" fill="#958E96"/>
</g>
</g>
<path d="M8.9012 13.1907C11.4994 13.3717 15.5536 14.9764 16.5189 19.4087C16.0081 19.7666 15.6059 20.2412 15.3042 20.8204C14.8538 21.6932 14.7773 21.8782 14.1137 22.0913C13.4541 22.3045 13.6914 23.4669 13.6391 24.2069C13.5868 24.947 11.6844 25.3733 10.3491 25.8237C6.82987 26.8855 4.32417 28.0399 3.16583 32.4761C2.16838 30.6743 1.39615 28.792 0.84514 26.8292C-0.457986 22.1919 -0.562555 18.5399 2.77168 15.986C5.74393 13.6934 6.90227 13.0539 8.9012 13.1907Z" fill="#FFD626"/>
<g style="mix-blend-mode:multiply">
<path d="M16.5189 19.4087C16.0081 19.7666 15.6059 20.2412 15.3043 20.8204C14.8538 21.6931 14.7774 21.8782 14.1138 22.0913C13.4542 22.3045 13.6915 23.4669 13.6392 24.2069C13.5869 24.947 11.6845 25.3733 10.3492 25.8237C6.82993 26.8855 4.32423 28.0399 3.16589 32.4761C3.10959 32.3675 3.02915 32.2227 2.93262 32.0337C3.07741 31.5108 3.12567 30.9478 3.186 30.441C3.32275 29.2867 3.56407 28.1686 4.1352 27.143C4.73045 26.0691 5.57909 25.2486 6.63688 24.6413C7.04712 24.408 7.4453 24.1707 7.79923 23.861C8.20948 23.503 8.57146 23.1169 9.08627 22.9038C9.77403 22.6182 10.5704 22.8756 11.1898 22.389C11.415 22.212 11.5276 21.9425 11.5719 21.665C11.6805 20.9732 11.2421 20.4785 11.8534 19.8591C12.2355 19.473 12.7744 19.2518 13.0318 18.7491C13.3134 18.194 13.2732 17.5264 13.1485 16.9311C12.9353 15.9055 12.1189 15.0207 11.2903 14.4334C10.309 13.7457 9.08225 13.3194 7.83543 13.2027C8.17328 13.1665 8.52319 13.1625 8.90528 13.1907C11.5035 13.3717 15.5577 14.9764 16.5229 19.4087H16.5189Z" fill="#FFD626"/>
</g>
<path d="M8.40234 31.7119C9.58883 30.2117 10.3973 27.5893 10.349 25.8197C11.6843 25.3692 13.5867 24.9469 13.639 24.2028C13.6913 23.4628 13.454 22.3004 14.1136 22.0873C14.7772 21.8781 14.8536 21.6891 15.3041 20.8163C15.6017 20.2331 16.0079 19.7626 16.5187 19.4046C15.5977 20.4383 15.2035 21.5805 15.3322 22.8273C15.3322 22.8273 15.0869 22.9078 14.5922 23.0646C14.5681 24.8906 14.4595 25.2606 13.3776 25.9202C13.4218 30.095 9.64514 31.3942 8.40234 31.7079V31.7119Z" fill="#D33343"/>
<path d="M16.5189 19.4086C18.4455 23.4105 19.3625 27.6537 16.6637 30.5455C13.965 33.4374 10.8801 33.7752 8.37036 31.7521C8.38243 31.7401 8.39047 31.728 8.40254 31.7119C9.64533 31.3982 13.422 30.0991 13.3777 25.9243C14.4637 25.2647 14.5683 24.8906 14.5924 23.0687C15.0871 22.9118 15.3324 22.8314 15.3324 22.8314C15.2037 21.5845 15.5979 20.4423 16.5189 19.4086Z" fill="#FFD626"/>
<g style="mix-blend-mode:multiply">
<path d="M16.6636 30.5455C14.6888 32.6611 12.5089 33.4092 10.5019 32.8662C11.8171 32.8421 13.0921 32.5887 14.2464 31.8165C15.0427 31.2856 15.6983 30.7386 16.2855 29.9945C16.8526 29.2706 17.3111 28.2731 17.5243 27.3682C17.649 26.8413 17.5645 26.2581 17.4398 25.7393C17.3232 25.2566 17.106 24.6493 16.6234 24.42C15.9034 24.0782 15.1714 25.148 14.902 25.6467C14.3389 26.6844 14.2584 27.9192 13.5506 28.8885C12.8749 29.8055 11.9016 30.5415 10.9202 31.0965C10.2163 31.4947 9.3315 31.8728 8.48688 31.8366C8.45068 31.8085 8.41449 31.7803 8.37427 31.7521C8.38633 31.7401 8.39438 31.728 8.40644 31.7119C9.64924 31.3982 13.4259 30.0991 13.3817 25.9243C14.4676 25.2647 14.5722 24.8906 14.5963 23.0687C15.091 22.9118 15.3363 22.8314 15.3363 22.8314C15.2076 21.5845 15.6018 20.4423 16.5228 19.4086C18.4494 23.4105 19.3664 27.6537 16.6676 30.5455H16.6636Z" fill="#FFD626"/>
</g>
<path d="M15.3324 22.8314C15.3324 22.8314 15.0871 22.9118 14.5924 23.0687C14.5683 24.8946 14.4597 25.2647 13.3777 25.9243C13.3979 27.9031 12.5613 29.2344 11.5437 30.1232C10.7715 28.0881 11.4512 26.2581 11.9499 25.3129C12.8468 25.0113 13.611 24.6694 13.6432 24.2069C13.6955 23.4668 13.4582 22.3045 14.1178 22.0913C14.7814 21.8822 14.8578 21.6931 15.3083 20.8204C15.6059 20.2372 16.0121 19.7666 16.5229 19.4086C15.6019 20.4423 15.2077 21.5845 15.3365 22.8314H15.3324Z" fill="#F79AA7"/>
<g style="mix-blend-mode:multiply" opacity="0.5">
<g style="mix-blend-mode:multiply" opacity="0.5">
<path d="M15.3326 22.8314C15.3326 22.8314 15.0872 22.9118 14.5925 23.0687C14.5684 24.8946 14.4598 25.2647 13.3779 25.9243C13.398 27.9031 12.5614 29.2344 11.5439 30.1232C11.4513 29.8779 11.3789 29.6366 11.3267 29.3993C11.8133 29.1539 12.0908 28.6391 12.2718 28.1525C12.485 27.5813 13.0521 26.4069 12.489 25.868C12.2879 25.6749 12.0144 25.6186 11.757 25.7071C11.8214 25.5623 11.8857 25.4336 11.9501 25.3169C12.847 25.0153 13.6112 24.6734 13.6433 24.2109C13.6956 23.4708 13.4583 22.3085 14.1179 22.0953C14.7816 21.8862 14.858 21.6972 15.3084 20.8244C15.6061 20.2412 16.0123 19.7706 16.5231 19.4127C15.602 20.4463 15.2079 21.5886 15.3366 22.8354L15.3326 22.8314Z" fill="#F79AA7"/>
</g>
</g>
<path d="M22.6402 14.2203C22.7487 15.1775 22.4753 15.994 22.0288 16.0462C21.5864 16.0945 21.1399 15.3585 21.0314 14.4013C20.9228 13.444 21.1963 12.6275 21.6427 12.5793C22.0851 12.527 22.5356 13.263 22.6442 14.2203H22.6402Z" fill="#000100"/>
<path d="M22.3142 13.452C22.3545 13.7939 22.2579 14.0875 22.0971 14.1036C21.9362 14.1237 21.7793 13.8583 21.7391 13.5164C21.6989 13.1745 21.7994 12.8809 21.9563 12.8648C22.1172 12.8488 22.2781 13.1102 22.3142 13.452Z" fill="white"/>
<path d="M17.3433 11.9599C18.3729 9.229 19.2416 7.76095 19.9455 7.54779C20.6493 7.33865 21.51 8.17121 22.5316 10.0455C22.4592 9.98915 22.1737 9.84838 21.6709 9.62315C20.9148 9.28933 20.8786 9.3778 20.4241 9.83631C19.9696 10.2948 18.4372 11.9961 18.0149 12.6678C17.7334 13.1142 17.2226 12.7603 16.4866 11.61L17.3473 11.9599H17.3433Z" fill="#1F231F"/>
<g style="mix-blend-mode:multiply">
<path d="M22.0893 9.32145C22.2663 9.59092 22.4151 9.83224 22.5277 10.0414C22.4553 9.98507 22.1698 9.84431 21.667 9.61907C20.9109 9.28525 20.8747 9.37372 20.4202 9.83223C19.9657 10.2907 18.4333 11.9921 18.011 12.6637C17.7295 13.1102 17.1382 12.4867 16.7803 12.0242C16.8285 12.0765 16.8848 12.1288 16.9412 12.169C17.1945 12.358 17.5042 12.157 17.6973 11.98C18.0231 11.6864 18.2483 11.2681 18.4735 10.8981C18.743 10.4556 19.0366 10.0293 19.3785 9.63918C20.1467 8.75836 21.124 8.65782 22.0692 9.29732C22.0772 9.30536 22.0853 9.30938 22.0933 9.31742L22.0893 9.32145Z" fill="#000100"/>
</g>
<g style="mix-blend-mode:multiply">
<g style="mix-blend-mode:multiply">
<path d="M14.4919 37.1295C14.1621 37.1537 13.8886 37.1738 13.6392 37.4312C13.4904 37.58 13.3536 37.7328 13.1928 37.8696C13.1405 37.9138 13.0158 37.9339 13.0399 37.8254C13.0962 37.5358 13.2169 37.2583 13.3858 37.0169C13.5668 36.7595 13.8403 36.5946 14.0374 36.3493C14.0977 36.2728 14.2264 36.301 14.158 36.4016C13.9972 36.6308 13.7398 36.7837 13.5829 37.0129C13.4703 37.1778 13.3818 37.3427 13.3174 37.5237C13.4542 37.3789 13.5869 37.2301 13.7478 37.1215C13.9931 36.9606 14.2707 36.9123 14.5602 36.9325C14.6809 36.9405 14.5804 37.1215 14.4959 37.1255L14.4919 37.1295Z" fill="#AA1B24"/>
</g>
<g style="mix-blend-mode:multiply">
<path d="M14.8297 41.1878C14.4516 41.6865 14.1741 42.2013 14.1701 42.8448C14.1701 42.8971 14.0655 43.0178 14.0172 42.9454C13.7518 42.5713 13.7156 41.8273 13.7236 41.3889C13.7277 40.9625 13.8081 40.6126 14.0012 40.2466C14.0213 40.2024 14.1098 40.1943 14.0816 40.2547C13.9046 40.6609 13.8242 41.0591 13.8725 41.5015C13.9046 41.7991 13.9167 42.2214 14.0293 42.5432C14.1057 42.0083 14.347 41.5538 14.701 41.1234C14.7653 41.043 14.9101 41.0792 14.8297 41.1837V41.1878Z" fill="#AA1B24"/>
</g>
<g style="mix-blend-mode:multiply">
<path d="M30.954 32.1061C30.9218 32.1463 30.8615 32.1825 30.8173 32.1463C30.6725 32.0257 30.5679 31.8125 30.3949 31.728C30.1737 31.6194 29.9083 31.6798 29.667 31.6798C29.5865 31.6838 29.6509 31.5471 29.7112 31.543C29.9405 31.531 30.2944 31.4344 30.5035 31.5712C30.6443 31.6637 30.7449 31.7964 30.8575 31.913C30.8494 31.6838 30.58 31.354 30.4874 31.2253C30.214 30.8392 29.7675 30.9397 29.3693 31.0202C29.2567 31.0403 29.305 30.8794 29.3814 30.8593C29.9002 30.7024 30.3668 30.6622 30.6966 31.1609C30.8535 31.3982 31.1712 31.8205 30.954 32.1021V32.1061Z" fill="#AA1B24"/>
</g>
<g style="mix-blend-mode:multiply">
<path d="M21.1524 44.9724C21.1644 45.0368 21.0679 45.1253 21.0035 45.0931C20.714 44.9443 20.6054 44.6627 20.4565 44.3933C20.2635 44.0393 20.1388 43.6814 20.1026 43.2832C20.0946 43.2028 20.2434 43.1102 20.2635 43.2188C20.3399 43.609 20.4606 43.9307 20.6335 44.2807C20.718 44.4496 20.7984 44.6306 20.9231 44.7673C20.911 44.6829 20.9151 44.5984 20.9472 44.522C21.0076 44.3852 21.1202 44.1238 21.1483 43.983C21.1604 43.9187 21.2931 43.8664 21.2811 43.9629C21.2569 44.1278 21.1684 44.2646 21.1403 44.4254C21.1041 44.6346 21.1242 44.7713 21.1483 44.9684L21.1524 44.9724Z" fill="#AA1B24"/>
</g>
<g style="mix-blend-mode:multiply">
<path d="M17.991 48.8537C17.991 48.9181 17.9146 49.0025 17.8462 48.9703C16.6879 48.4233 15.5456 46.7663 15.5134 45.4993C15.5134 45.439 15.6301 45.3706 15.6341 45.4511C15.6904 46.2796 16.1569 47.0881 16.7039 47.7034C16.9895 48.0212 17.3475 48.4234 17.7336 48.6808C17.6652 48.54 17.5727 48.3952 17.5365 48.2866C17.4641 48.0775 17.4199 47.9005 17.4078 47.6833C17.3997 47.6029 17.5566 47.5144 17.5687 47.6189C17.6089 47.9689 17.7135 48.2786 17.9105 48.5722C17.991 48.6888 17.987 48.729 17.991 48.8577V48.8537Z" fill="#AA1B24"/>
</g>
<g style="mix-blend-mode:multiply">
<path d="M28.8545 43.1143C28.8504 44.1037 28.6574 45.0931 28.2874 46.0142C27.9254 46.9231 27.3864 47.6028 26.8676 48.4032C26.8314 48.4555 26.6906 48.4917 26.7188 48.3871C26.8716 47.7999 26.9561 47.3012 26.948 46.6898C26.948 46.6295 27.0687 46.5611 27.0727 46.6416C27.0969 47.1443 27.0808 47.5264 26.9722 48.001C26.9923 47.9849 27.0124 47.9648 27.0365 47.9447C27.1371 47.8281 27.2296 47.7034 27.314 47.5707C27.4387 47.3414 27.5835 47.1484 27.7042 46.9151C28.3075 45.7567 28.6534 44.4898 28.6815 43.1827C28.6855 43.0982 28.8545 43.0017 28.8545 43.1143Z" fill="#AA1B24"/>
</g>
<g style="mix-blend-mode:multiply">
<path d="M31.8026 41.6664C31.8026 41.7186 31.7222 41.8192 31.6619 41.779C31.4527 41.6342 31.4045 41.3768 31.2556 41.1717C31.0344 40.87 30.7891 40.6126 30.5236 40.3552C30.4754 40.3069 30.5799 40.2064 30.6322 40.2546C30.9057 40.5 31.1712 40.7493 31.3843 41.051C31.4688 41.1676 31.5452 41.3325 31.6337 41.4653C31.6297 40.6689 31.5774 39.78 31.2798 39.0641C31.2516 38.9877 31.3884 38.8831 31.4286 38.9676C31.8066 39.7559 31.7946 40.8097 31.8026 41.6704V41.6664Z" fill="#AA1B24"/>
</g>
<g style="mix-blend-mode:multiply">
<path d="M16.2415 49.4369C14.874 48.6928 13.5387 47.8964 12.1873 47.1202C11.21 46.5611 10.2527 45.9981 9.62532 45.0207C9.05419 44.1278 8.94158 43.247 9.2754 42.2214C9.49661 41.5377 9.85859 41.2561 10.2367 40.677C10.0919 40.8941 9.71782 41.051 9.53281 41.2601C9.25529 41.5698 9.01397 41.8313 8.89331 42.2496C8.86918 42.3421 8.6721 42.4225 8.70026 42.2817C8.88929 41.3406 9.18289 40.3954 9.72989 39.5991C10.301 38.7705 11.0773 38.2356 11.761 37.5237C11.8213 37.4634 11.8817 37.5318 11.8253 37.5921C11.2462 38.2477 10.5021 38.7223 10.0034 39.4623C9.56499 40.1058 9.26736 40.7976 9.06224 41.5256C9.40813 41.0229 9.92294 40.5804 10.4418 40.4115C10.5343 40.3793 10.5745 40.4638 10.5262 40.5402C10.2125 41.0229 9.72587 41.421 9.54488 41.9761C9.384 42.4788 9.24725 43.1183 9.29149 43.6532C9.384 44.6788 10.3171 45.5597 11.0813 46.1509C11.9219 46.7984 12.9354 47.2529 13.8565 47.7798C14.693 48.2625 15.5336 48.7411 16.3501 49.2639C16.4386 49.3202 16.3139 49.4731 16.2335 49.4288L16.2415 49.4369Z" fill="#AA1B24"/>
</g>
<g style="mix-blend-mode:multiply">
<path d="M36.6692 36.7153C36.6772 36.7998 36.5606 36.8963 36.4882 36.836C36.3877 36.7515 36.2308 36.6309 36.0498 36.5142C36.0739 36.5424 36.0981 36.5745 36.1142 36.6067C36.3032 36.9607 36.3957 37.4916 36.4158 37.8857C36.4721 38.8912 36.1584 39.9571 35.6959 40.8459C35.161 41.8755 34.3123 42.7201 33.6487 43.6653C33.0132 44.5662 32.3898 45.4792 31.5452 46.2032C31.4245 46.3078 31.2998 46.1871 31.4205 46.0745C32.2128 45.3264 32.8362 44.4657 33.4637 43.5809C33.9865 42.8368 34.614 42.1691 35.1207 41.417C35.4707 40.8942 35.7964 40.3271 35.9533 39.7117C36.0739 39.221 36.3153 38.481 36.1986 37.9782C36.0538 37.3307 36.0981 36.8038 35.4787 36.3895C35.2575 36.2407 35.0322 36.1724 34.8352 35.9873C34.7547 35.9109 34.8955 35.8023 34.9639 35.8023C35.3822 35.7903 36.0096 36.1884 36.4239 36.5062C36.3193 35.8787 36.0458 35.1266 35.6315 34.7083C35.2575 34.3303 34.7829 34.0487 34.4772 33.6103C34.441 33.554 34.5375 33.4575 34.5818 33.5098C35.0403 34.0407 35.7803 34.3343 36.1021 34.9859C36.3716 35.5329 36.6089 36.112 36.6612 36.7234L36.6692 36.7153Z" fill="#AA1B24"/>
</g>
<g style="mix-blend-mode:multiply">
<path d="M38.3181 49.6822C38.3301 49.7546 38.1853 49.8391 38.1733 49.7385C38.1371 49.5173 38.129 49.272 38.0285 49.0669C37.932 48.8698 37.8274 48.6767 37.7148 48.4877C37.6786 48.4274 37.8033 48.3308 37.8435 48.4032C37.9199 48.5279 38.0245 48.6727 38.1009 48.8215C38.0969 48.7169 38.0888 48.6124 38.0767 48.5078C38.0285 48.186 37.932 47.8924 37.8515 47.5787C37.8354 47.5144 37.9561 47.4219 37.9802 47.4943C38.1572 48.0774 38.3623 48.6566 38.306 49.28C38.306 49.3042 38.2899 49.3243 38.2698 49.3444C38.2899 49.453 38.306 49.5656 38.3221 49.6782L38.3181 49.6822Z" fill="#AA1B24"/>
</g>
<g style="mix-blend-mode:multiply">
<path d="M37.5862 51.0658C37.558 51.1463 37.3851 51.1865 37.4132 51.0698C37.6385 50.2373 37.8074 49.4208 37.546 48.5722C37.5259 48.5038 37.6546 48.4073 37.6827 48.4837C37.9723 49.3364 37.8637 50.2212 37.5862 51.0618V51.0658Z" fill="#AA1B24"/>
</g>
<g style="mix-blend-mode:multiply">
<path d="M14.1137 56.6362C13.619 56.0168 13.1686 55.2245 12.9876 54.4121C12.9634 54.4643 12.8951 54.5086 12.8629 54.4643C12.4647 53.9616 12.4004 53.1773 12.5773 52.574C12.5934 52.5217 12.7101 52.4735 12.694 52.5579C12.5612 53.1371 12.6417 53.8007 12.9675 54.3035C12.8709 53.7927 12.883 53.2779 13.068 52.7872C13.0921 52.7228 13.2088 52.7107 13.1806 52.7992C12.7744 54.0742 13.5587 55.4658 14.2625 56.5035C14.3148 56.5799 14.1741 56.7167 14.1177 56.6443L14.1137 56.6362Z" fill="#AA1B24"/>
</g>
<g style="mix-blend-mode:multiply">
<path d="M47.8342 34.9134C47.8543 35.0019 47.6653 35.1266 47.6331 35.018C47.1706 33.4413 47.0218 31.6315 47.6934 30.087C47.7256 30.0106 47.8664 29.9905 47.8302 30.1031C47.2711 31.7199 47.5004 33.2805 47.8342 34.9134Z" fill="#AA1B24"/>
</g>
<g style="mix-blend-mode:multiply">
<path d="M48.6669 31.8245C48.2124 30.8391 48.2647 29.8377 48.2968 28.7839C48.3009 28.7075 48.4537 28.623 48.4537 28.7236C48.4336 29.7814 48.4296 30.7225 48.8116 31.728C48.8398 31.8004 48.7031 31.905 48.6669 31.8205V31.8245Z" fill="#AA1B24"/>
</g>
<g style="mix-blend-mode:multiply">
<path d="M39.8266 40.5885C39.7823 40.5322 39.6697 40.6408 39.714 40.6971C40.1202 41.2159 40.4379 41.8393 40.7356 42.4265C41.1176 43.1787 41.174 43.9911 41.3107 44.8076C41.3268 44.9081 41.4595 44.8196 41.4595 44.7472C41.4273 43.2189 40.7878 41.7629 39.8266 40.5885Z" fill="#AA1B24"/>
</g>
<g style="mix-blend-mode:multiply">
<path d="M31.7423 60.9277C31.0746 61.5391 30.6644 62.1946 30.415 63.003C30.7247 62.6974 31.1631 62.4762 31.4768 62.2349C31.513 62.2067 31.5733 62.2107 31.5814 62.263C31.6216 62.5968 31.0786 62.8663 30.9218 63.1116C30.3547 64.0126 30.2139 65.195 30.1817 66.2407C30.1777 66.3292 30.0007 66.4298 30.0007 66.3131C30.0007 65.3237 30.1093 64.1011 30.6603 63.2444C30.8534 62.9427 31.0827 62.7778 31.3119 62.5124C31.0465 62.814 30.604 62.9266 30.3426 63.2363C30.3145 63.3369 30.2903 63.4415 30.2662 63.546C30.2501 63.6265 30.0932 63.6908 30.1093 63.5702C30.1093 63.5661 30.1093 63.5621 30.1093 63.5541C30.0892 63.5541 30.0771 63.542 30.0852 63.5138C30.0973 63.4656 30.1174 63.4213 30.1375 63.3731C30.3265 62.3475 30.8614 61.539 31.6578 60.8432C31.7342 60.7789 31.8147 60.8593 31.7382 60.9237L31.7423 60.9277Z" fill="#AA1B24"/>
</g>
<g style="mix-blend-mode:multiply">
<path d="M22.3307 63.9925C22.0291 63.5179 21.6912 63.0151 21.1925 62.7255C20.6656 62.4158 20.0663 62.267 19.5113 62.0136C19.4429 61.9815 19.5314 61.8729 19.5957 61.893C20.2151 62.1303 20.9311 62.2389 21.47 62.6451C21.9124 62.9749 22.2382 63.3972 22.5077 63.8758C22.5559 63.9603 22.391 64.085 22.3307 63.9925Z" fill="#AA1B24"/>
</g>
<g style="mix-blend-mode:multiply">
<path d="M22.6162 64.7768C22.3629 64.4067 22.0411 64.0488 21.6188 63.8597C21.4619 63.7873 21.293 63.7431 21.1201 63.7069C21.474 63.9683 21.7555 64.4952 21.9204 64.8049C22.3226 65.557 22.4996 66.5263 22.2824 67.3629C22.2623 67.4313 22.1256 67.4956 22.1376 67.387C22.214 66.659 22.21 65.7863 21.8601 65.1226C21.6671 64.7566 21.108 63.5621 20.5328 63.6667C20.4725 63.6787 20.5007 63.5903 20.5369 63.5782H20.5409C20.4765 63.5621 20.4122 63.542 20.3478 63.5179C20.2835 63.4978 20.368 63.3932 20.4243 63.4093C20.9391 63.5701 21.5223 63.538 21.9808 63.8517C22.3025 64.0729 22.5479 64.3384 22.753 64.6682C22.7892 64.7285 22.6605 64.8371 22.6162 64.7768Z" fill="#AA1B24"/>
</g>
<g style="mix-blend-mode:multiply">
<path d="M23.7465 15.809C22.5881 15.6602 21.643 16.73 21.0839 17.6229C21.0316 17.7073 20.907 17.6712 20.9673 17.5706C21.5223 16.6415 22.6002 15.3786 23.8269 15.624C23.9476 15.6481 23.839 15.821 23.7465 15.809Z" fill="#AA1B24"/>
</g>
<g style="mix-blend-mode:multiply">
<path d="M27.5715 18.5681C27.9858 18.9703 28.2392 19.5253 28.3156 20.1085C28.3237 20.1568 28.2674 20.209 28.2191 20.2171C28.2392 20.2493 28.2593 20.2774 28.2794 20.3096C28.3156 20.3699 28.1829 20.4866 28.1387 20.4222C28.0663 20.3217 27.9898 20.2131 27.9134 20.1085C28.0622 20.3699 28.1869 20.6475 28.2352 20.9813C28.3438 21.7656 28.3599 22.5378 28.2513 23.3261C28.2432 23.3905 28.0904 23.4669 28.0944 23.3703C28.1105 22.5981 28.195 21.8259 28.0502 21.0577C27.9295 20.4142 27.5957 19.9919 27.286 19.4368V19.4328C27.1492 19.3242 27.0045 19.2277 26.8476 19.1633C26.7832 19.1352 26.8677 19.0346 26.928 19.0547C27.097 19.1151 27.2417 19.2116 27.3745 19.3202C27.3986 19.3162 27.4227 19.3202 27.4348 19.3443C27.4428 19.3604 27.4549 19.3765 27.463 19.3926C27.5434 19.465 27.6238 19.5374 27.7083 19.6098C27.8732 19.7546 28.014 19.9154 28.1387 20.0924C27.9697 19.3564 27.6037 18.6646 26.9119 18.2946C26.8798 18.2785 26.8838 18.2463 26.8999 18.2182C26.8798 18.2061 26.8556 18.1981 26.8355 18.19C26.735 18.1458 26.8677 17.9809 26.9562 18.0171C27.282 18.1498 27.5997 18.2986 27.8692 18.5077C27.6842 18.194 27.4791 17.8964 27.2136 17.647C26.7752 17.2328 26.3569 17.1121 25.7697 17.1081C25.6812 17.1081 25.7617 16.9714 25.83 16.9673C26.4253 16.9633 26.92 17.0679 27.3584 17.5063C27.7928 17.9406 28.0984 18.4354 28.3558 18.9944C28.3679 19.0226 28.3558 19.0588 28.3317 19.0829C28.3317 19.1593 28.207 19.2397 28.1588 19.1633C28.0059 18.914 27.8048 18.7249 27.5756 18.5721L27.5715 18.5681Z" fill="#AA1B24"/>
</g>
</g>
<path d="M9.60508 61.6919C8.78057 61.1449 7.58201 60.9277 5.67559 60.7105C3.76916 60.4973 1.39217 60.437 1.43239 59.8257C1.54903 58.9046 2.31723 58.5467 4.18343 58.3134C3.18195 57.8629 1.73001 58.1364 1.66968 57.2516C1.69382 56.5839 2.43387 56.4472 3.88983 56.8373C4.75456 57.1309 8.3663 60.0991 9.60508 61.6878V61.6919Z" fill="#0D5995"/>
<path d="M10.2968 77.3093C9.72161 77.1283 9.16658 78.0614 8.9695 79.079C8.59143 78.4234 8.65579 77.6029 9.09821 76.7663C9.39181 76.2073 9.65324 76.0062 9.87445 76.155C10.5019 76.3641 10.7915 77.4541 10.2968 77.3093Z" fill="#35262D"/>
<g style="mix-blend-mode:multiply">
<path d="M10.2968 77.3093C9.80613 77.1524 9.32349 77.8241 9.07413 78.6607C9.05402 78.359 9.09021 78.0614 9.20283 77.7638C9.35164 77.3535 9.68144 77.068 9.8745 76.6899C10.0153 76.4084 9.86646 76.2475 9.64927 76.151C9.74177 76.1148 9.81819 76.1188 9.8745 76.155C10.5019 76.3641 10.7915 77.4541 10.2968 77.3093Z" fill="#35262D"/>
</g>
<path d="M13.8722 78.1137C13.2006 78.0815 12.5409 78.7853 12.364 80C11.9216 79.0468 12.1991 78.0493 12.4605 77.4259C12.6375 77.0116 13.0035 76.9352 13.5585 77.1967C14.1176 77.4581 14.3307 78.1137 13.8722 78.1137Z" fill="#35262D"/>
<g style="mix-blend-mode:multiply">
<path d="M13.8723 78.1137C13.3333 78.0896 12.8024 78.536 12.5209 79.3444C12.5128 79.2037 12.5168 79.0629 12.5329 78.9221C12.5611 78.6486 12.6456 78.3832 12.7622 78.1338C12.8547 77.9407 13.0156 77.804 13.1121 77.623C13.3052 77.2651 13.0558 77.1042 12.7662 77.1203C12.9955 77.0318 13.2569 77.0599 13.5545 77.2007C14.1136 77.4621 14.3267 78.1177 13.8682 78.1177L13.8723 78.1137Z" fill="#35262D"/>
</g>
<g style="mix-blend-mode:multiply">
<path d="M4.09888 58.2611C4.18334 58.245 4.28791 58.237 4.41259 58.237C4.5051 58.237 4.61772 58.245 4.73435 58.2531C4.85099 58.2651 4.97567 58.2812 5.10036 58.3054C5.16069 58.3215 5.22504 58.3375 5.28537 58.3496C5.3457 58.3617 5.40201 58.3818 5.45831 58.4019C5.57093 58.4421 5.6755 58.4743 5.75996 58.5185C5.87258 58.5749 5.96509 58.6271 6.03748 58.6714C5.95302 58.6593 5.85247 58.6352 5.73181 58.603C5.64333 58.5789 5.53473 58.5628 5.42212 58.5346C5.3095 58.5065 5.18884 58.4864 5.06818 58.4582C4.94752 58.4301 4.82686 58.4099 4.71424 58.3858C4.60163 58.3657 4.49706 58.3416 4.40455 58.3255C4.28389 58.3013 4.17932 58.2812 4.09888 58.2611Z" fill="#AA1B24"/>
</g>
<g style="mix-blend-mode:multiply">
<g style="mix-blend-mode:multiply">
<path d="M7.84746 46.2554C7.67049 46.3922 7.49352 46.5249 7.33264 46.6778C7.30851 46.6979 7.23612 46.7341 7.22003 46.6818C7.17981 46.533 7.22003 46.348 7.26025 46.1992C7.28438 46.1026 7.33667 46.0262 7.38895 45.9417C7.42515 45.8854 7.51363 45.801 7.52972 45.7366C7.54581 45.6843 7.65038 45.6401 7.63831 45.7165C7.6182 45.8372 7.51766 45.9417 7.45733 46.0463C7.38895 46.163 7.33667 46.352 7.34471 46.5048C7.48548 46.3761 7.64234 46.2675 7.80322 46.1589C7.88768 46.1066 7.90377 46.2072 7.84344 46.2554H7.84746Z" fill="#FAB519"/>
</g>
<g style="mix-blend-mode:multiply">
<path d="M6.62067 47.7195C6.0777 48.2182 5.52267 48.9422 4.86306 49.2881C4.52521 49.465 4.44879 48.9381 4.40053 48.733C4.05061 47.2167 4.38042 45.6683 5.17275 44.3651C5.21699 44.2927 5.32559 44.3249 5.2733 44.4134C4.60967 45.5556 4.25171 46.9312 4.48901 48.2625C4.49706 48.2946 4.61772 49.3242 4.91937 49.095C5.05209 48.9944 5.15667 48.8858 5.27733 48.7692C5.68355 48.371 6.09781 47.9889 6.53219 47.627C6.61665 47.5546 6.70513 47.643 6.62067 47.7195Z" fill="#FAB519"/>
</g>
<g style="mix-blend-mode:multiply">
<path d="M13.3335 58.0601C11.9298 56.7368 11.061 55.0476 10.3371 53.286C9.97107 52.3891 9.77801 51.5243 9.71768 50.6435C9.36777 50.366 9.21091 49.9035 9.05406 49.4932C8.75241 48.721 8.8972 48.1257 8.86904 47.3294C8.86904 47.2771 8.96557 47.2208 8.97362 47.2891C9.03797 48.0413 8.8972 48.6647 9.20689 49.3967C9.35169 49.7345 9.47636 50.0764 9.70562 50.3579C9.68149 49.6259 9.7378 48.8819 9.85846 48.1016C9.8665 48.0453 9.98314 48.0011 9.97107 48.0815C9.87052 48.8899 9.79008 49.6863 9.83834 50.4987C9.8665 50.5269 9.89465 50.555 9.92683 50.5832C9.97509 50.6234 9.91074 50.7079 9.85041 50.7199C9.85041 50.728 9.85041 50.732 9.85444 50.74C9.93488 51.6932 10.2566 52.5379 10.6226 53.4106C11.3144 55.0798 12.1993 56.6403 13.4823 57.9273C13.5466 57.9917 13.4099 58.1244 13.3415 58.0641L13.3335 58.0601Z" fill="#FAB519"/>
</g>
<g style="mix-blend-mode:multiply">
<path d="M9.7337 58.7719C9.39585 57.7624 8.97756 56.7328 8.49089 55.7876C8.40643 55.6267 8.30991 55.4578 8.20534 55.2889C8.19729 55.5061 8.15707 55.7273 8.17316 55.9445C8.20534 56.407 8.31393 56.8373 8.47481 57.2717C8.50296 57.3481 8.36622 57.4567 8.326 57.3682C8.14903 56.9942 8.03641 56.588 8.0163 56.1737C8.00424 55.868 8.10076 55.4095 8.06054 55.0677C7.56986 54.3517 6.8821 53.6559 6.08977 53.4508C6.03748 53.4387 6.08575 53.3623 6.12597 53.3664C6.89014 53.4951 7.64628 54.1587 8.1249 54.8062C8.13696 54.8102 8.14501 54.8143 8.14903 54.8263C8.15305 54.8303 8.15305 54.8384 8.15305 54.8424C8.20533 54.9148 8.2536 54.9872 8.30187 55.0596C8.98158 56.1375 9.52857 57.4527 9.88653 58.6714C9.91066 58.7478 9.76587 58.8564 9.73772 58.7679L9.7337 58.7719Z" fill="#FAB519"/>
</g>
</g>
<g style="mix-blend-mode:screen">
<g style="mix-blend-mode:screen">
<path d="M6.5928 14.4173C4.4893 14.6989 2.32144 16.4485 1.60552 18.4393C0.809165 20.6474 0.664374 23.3422 1.50497 25.5583C1.60954 25.8358 1.0907 26.23 0.957979 25.9162C0.410988 24.6453 0.29837 23.2335 0.390876 21.8701C0.47936 20.5388 0.700574 19.111 1.33203 17.9165C2.35764 15.9859 4.40483 14.2605 6.66117 14.0715C6.91858 14.0514 6.77379 14.3972 6.5928 14.4214V14.4173Z" fill="#FFD626"/>
</g>
<g style="mix-blend-mode:screen">
<path d="M1.79044 27.706C1.66575 27.4566 1.53303 27.2113 1.45661 26.9378C1.40835 26.7568 1.74619 26.5236 1.79446 26.7166C1.86685 26.9901 2.02371 27.2354 2.08806 27.513C2.12024 27.6578 1.87892 27.883 1.79044 27.706Z" fill="#FFD626"/>
</g>
</g>
<path d="M31.0786 62.448L31.2556 62.2751C31.2113 62.3113 31.151 62.3716 31.0786 62.448Z" fill="#C41B24"/>
<g style="mix-blend-mode:multiply" opacity="0.5">
<path d="M40.2325 41.4291C40.6186 42.2697 40.9524 43.0781 41.234 43.8262C41.2581 43.9831 41.5678 46.2394 40.7634 51.114C39.6171 57.3683 36.6449 61.5914 35.2412 63.6225C34.4086 64.825 34.1673 66.2287 34.5092 67.8456C34.3 67.6364 34.111 67.4112 33.934 67.1658C33.8295 67.4796 33.7973 67.8616 33.8295 68.3121C33.0331 68.0346 32.5786 67.7732 32.4781 67.5318C32.3051 67.7732 32.2327 68.1231 32.2689 68.5735C31.6455 68.0185 31.2111 67.3911 30.9658 66.6953C30.7205 67.2181 30.6883 67.6847 30.8612 68.103C30.6883 67.9622 30.4952 67.6847 30.2861 67.2704C26.6381 69.9289 23.1471 68.2598 22.3105 67.375C21.7876 67.7933 21.1481 68.3644 20.3839 69.0964L20.2271 68.5213C20.2271 68.5213 20.0019 68.6781 19.5474 68.9918C19.8088 68.3161 19.5996 67.8456 18.9199 67.5318C18.2442 67.2181 17.8259 66.9084 17.2548 64.821C16.8044 63.4656 15.7627 61.5712 14.1257 59.142C14.1177 59.1701 14.1016 59.2144 14.0815 59.2626C13.5144 58.418 12.537 56.9661 11.0489 54.762C8.72015 51.1663 10.0957 47.3937 10.1278 45.7165C10.6588 46.0383 11.3626 46.4485 12.2716 46.9633C14.0694 48.0493 15.3404 48.7934 16.0844 49.1996C12.7261 50.4544 11.624 52.0632 12.7783 54.03C12.9312 54.388 12.9794 52.4534 13.5425 51.8943C13.4902 54.7942 14.0493 56.4714 16.1367 58.8122C18.2241 61.153 17.7656 63.0875 18.019 64.7124C18.2724 66.3413 19.0889 67.2543 19.6962 66.643C20.1024 66.3373 20.4081 67.1015 20.4081 67.7128C20.4081 68.3242 21.0717 66.9004 20.766 66.1885C21.5825 67.0532 22.1375 64.5596 20.3598 63.6949C18.7309 63.0353 20.9189 63.0353 21.7836 63.8477C21.6308 62.9307 20.7339 62.263 19.5031 62.0137C20.9671 61.4064 22.1174 62.7698 23.1068 64.8653C24.3255 67.4594 28.1947 69.0883 30.0247 64.1534C30.3786 63.2685 30.8291 62.7054 31.0704 62.444L31.2474 62.2711C31.2031 62.3073 31.1428 62.3676 31.0704 62.444L30.1373 63.3731C30.3303 62.1625 31.0382 61.1851 32.2609 60.4411C31.8868 60.9478 31.6496 61.354 31.549 61.6637C31.7541 61.6637 32.1282 61.5632 32.6711 61.3581C31.1951 63.345 30.4309 65.1749 31.6536 66.6993C31.6857 65.8868 31.8748 65.36 32.2126 65.1227C32.2126 65.8346 32.4338 66.3936 32.8722 66.7998C32.9406 66.1563 33.0934 65.6817 33.3307 65.3761C33.3307 65.8507 33.4514 66.1563 33.6887 66.289C33.383 64.6963 33.9099 63.0835 35.2653 61.4586C37.3005 59.0173 38.672 51.846 37.5538 48.7934C37.9922 48.8255 38.2456 49.1232 38.314 49.6822C38.4186 48.548 38.1974 47.623 37.6544 46.9111C38.2295 47.08 38.6197 47.4178 38.8248 47.9286C40.5543 45.8332 41.0248 43.6693 40.2285 41.4291H40.2325Z" fill="#958E96"/>
</g>
<path d="M40.2325 41.429C40.1118 41.0872 39.951 40.7453 39.7458 40.3994C39.9188 40.7493 40.0797 41.0912 40.2325 41.429Z" fill="#C41B24"/>
<g style="mix-blend-mode:multiply" opacity="0.5">
<path d="M14.0896 59.2626C13.8966 59.8015 13.0358 61.9372 11.5799 62.1625C10.8559 62.2751 10.2204 62.074 9.58095 61.6557C9.58899 61.6678 9.60106 61.6798 9.6091 61.6878C8.78459 61.1409 7.58604 60.9237 5.67961 60.7065C3.77319 60.4933 1.39619 60.433 1.43641 59.8217C1.55304 58.9006 2.32124 58.5427 4.18745 58.3094C3.18597 57.8589 1.73403 58.1324 1.6737 57.2476C1.69783 56.5799 2.43788 56.4432 3.89385 56.8333C3.91395 56.8414 3.94211 56.8494 3.96624 56.8614C2.45397 55.8117 1.09856 54.9711 1.23933 54.8062C1.68174 54.3356 3.04923 54.4804 5.34177 55.2366C4.42877 54.4563 3.29457 53.672 1.93915 52.8917C2.17243 52.5016 3.42327 51.838 5.88876 53.3221C5.61526 53.0486 4.5615 51.9546 3.38708 51.1703C2.60681 50.6475 2.47408 49.7626 2.99694 48.5118C2.71138 48.7974 2.49017 49.1513 2.33331 49.5696C2.17645 48.9703 2.17645 48.4354 2.33331 47.9648C2.04775 48.3026 1.83861 48.8014 1.7099 49.4529C1.545 48.2021 1.04627 46.8628 2.95672 44.2967C2.94063 44.4134 2.92857 44.526 2.9165 44.6386C2.88433 44.9805 2.7516 45.994 3.29859 46.0383C3.58818 46.0624 3.8858 45.7889 4.0869 45.616C4.19147 45.5235 4.29202 45.4269 4.38855 45.3264C4.40061 45.3103 4.41268 45.2982 4.42073 45.2902C4.4167 45.2982 4.41268 45.3103 4.40866 45.3224C4.36844 45.4631 4.32822 45.5999 4.288 45.7406C4.14723 46.2152 4.01451 46.6858 3.92602 47.1725C3.91798 47.2167 3.95418 47.2127 3.97831 47.1886C4.21561 46.9834 4.52128 46.8869 4.79477 46.7421C4.88326 46.6939 4.74249 46.9231 4.73042 46.9553C4.67813 47.088 4.62987 47.2247 4.58563 47.3615C4.4529 47.7798 4.37648 48.2142 4.37648 48.6526C4.36844 49.4127 4.66607 50.1166 5.08033 50.744C5.94908 52.0713 7.17177 53.117 7.34874 54.7781C6.80577 54.7419 6.29498 54.5689 5.78821 54.3678C5.73994 54.3477 5.67961 54.4523 5.6957 54.4885C6.11801 55.5704 7.16775 56.1455 7.85953 57.0223C7.397 56.9137 6.94654 56.7609 6.52021 56.5558C6.47597 56.5317 6.42368 56.6322 6.42368 56.6644C6.43574 57.0585 6.70924 57.4125 6.94654 57.7021C7.34874 58.1927 7.83942 58.611 8.34217 58.9931C9.22701 59.6608 10.4296 60.4652 11.5879 60.437C11.9499 60.429 12.2395 60.2601 12.4205 59.9463C12.694 59.4677 12.4768 58.8644 12.2636 58.414C11.9419 57.7302 11.4552 57.1269 10.9886 56.5357C10.4859 55.8962 10.1119 55.2406 9.7539 54.5046C9.13049 53.2417 8.76046 51.9707 8.55936 50.5751C8.48294 50.0482 8.43468 48.7813 7.75898 48.6284C7.44929 48.5601 7.12753 48.8818 6.93447 49.0668C6.9023 49.099 6.87012 49.1352 6.84197 49.1674C6.85001 49.1553 6.85806 49.1392 6.8661 49.1272C7.02296 48.8698 7.17579 48.6043 7.32461 48.3389C7.94399 47.2207 8.4025 45.9739 8.19738 44.6829C8.19336 44.6668 8.18532 44.6587 8.16923 44.6628C7.71474 44.8317 7.35679 45.1454 7.00687 45.4672C6.84197 45.616 6.57652 45.7889 6.47195 45.9779C6.61674 45.7125 6.75349 45.447 6.88621 45.1735C7.36483 44.2083 7.76301 43.1666 7.77909 42.0766C7.77909 42.0605 7.763 42.0525 7.75094 42.0565C7.17981 42.2696 6.71326 42.6638 6.19443 42.9775C5.99333 43.1022 6.07377 43.0218 6.14616 42.9132C6.2065 42.8207 6.27085 42.7282 6.3352 42.6357C6.48804 42.4185 6.65293 42.2133 6.82186 42.0082C7.52973 41.1475 8.32206 40.3592 9.08222 39.5468C9.82226 38.7544 10.5462 37.942 11.1375 37.033C11.5759 36.3613 11.9378 35.5931 11.9499 34.7767C11.9499 34.7606 11.9338 34.7566 11.9218 34.7566C11.1535 34.9134 10.4779 35.2352 9.85847 35.6454C10.5784 34.6439 11.0811 33.9401 11.3386 33.7189C11.8091 33.3167 12.5291 33.1759 13.4984 33.2966C13.2651 35.2191 12.4527 36.8721 11.0651 38.2637C9.39594 39.9329 8.92938 41.2803 8.90123 42.2214C9.64932 41.3888 10.1923 40.8177 10.5382 40.5121C8.59556 42.4185 8.45881 44.0313 10.1239 45.3505C10.3331 46.8105 8.55936 50.8727 11.061 54.7338C12.5492 56.9379 13.5265 58.3898 14.0936 59.2344L14.0896 59.2626Z" fill="#958E96"/>
</g>
<g style="mix-blend-mode:screen" opacity="0.5">
<g style="mix-blend-mode:screen" opacity="0.5">
<path d="M9.2146 36.9124C8.55097 38.3402 7.44895 39.6514 6.45551 40.866C5.9407 41.4934 5.44599 42.1008 4.90302 42.7081C4.23537 43.4602 3.41489 44.148 3.15346 45.1454C3.11324 45.2942 3.06095 45.3706 3.10921 45.1494C3.47522 43.428 4.93922 42.5713 5.9045 41.2038C6.91804 39.7599 8.21715 38.4528 9.06579 36.8963C9.10601 36.8199 9.26689 36.7957 9.2146 36.9124Z" fill="white"/>
</g>
<g style="mix-blend-mode:screen" opacity="0.5">
<path d="M4.30783 44.2726C3.98205 45.0529 3.63213 45.9579 3.75279 46.8025C3.7729 46.9352 3.70855 46.9835 3.6804 46.8186C3.54365 45.9337 3.74475 45.061 4.09868 44.2525C4.15097 44.1359 4.37218 44.1158 4.30381 44.2767L4.30783 44.2726Z" fill="white"/>
</g>
<g style="mix-blend-mode:screen" opacity="0.5">
<path d="M4.84683 45.7125C4.32799 46.5773 4.28375 47.9126 4.55725 48.8175C4.60149 48.9663 4.5854 49.1352 4.53312 48.9703C4.20733 47.9488 4.05852 46.5853 4.66182 45.6281C4.74628 45.4913 4.94336 45.5517 4.84683 45.7125Z" fill="white"/>
</g>
</g>
<g opacity="0.5">
<path opacity="0.5" d="M15.9596 33.4052C14.0652 33.8074 12.5811 37.1175 13.7314 38.67C13.836 38.8148 13.8521 38.8831 13.7314 38.7504C12.2191 37.0933 13.9325 33.5379 15.9998 33.2001C16.1486 33.1759 16.0601 33.385 15.9596 33.4092V33.4052Z" fill="white"/>
<path opacity="0.5" d="M15.2075 37.8776C13.5222 38.6659 13.474 41.0711 13.7676 42.5753C13.7917 42.704 13.7877 42.7804 13.7233 42.6236C13.0637 41.0067 13.4177 38.4085 15.1874 37.6443C15.3724 37.5639 15.3321 37.8213 15.2034 37.8776H15.2075Z" fill="white"/>
<path opacity="0.5" d="M16.3297 39.5668C15.9797 39.784 15.6298 40.0012 15.296 40.2506C14.934 40.5201 14.6847 40.9504 14.4112 41.3084C14.3388 41.4049 14.1779 41.3607 14.2664 41.244C14.5278 40.8901 14.7651 40.4436 15.119 40.1701C15.485 39.8886 15.8631 39.6272 16.2573 39.3899C16.4061 39.3014 16.4503 39.4864 16.3297 39.5628V39.5668Z" fill="white"/>
<path opacity="0.5" d="M16.4545 47.261C15.992 46.2434 15.7064 45.2459 15.4651 44.1439C15.1836 42.8649 15.6018 41.3406 16.5189 40.4075C16.6435 40.2828 16.5108 40.1461 16.3821 40.2667C14.2464 42.2737 15.0187 45.2781 16.4867 47.4138C16.5711 47.5345 16.5108 47.3776 16.4545 47.261Z" fill="white"/>
<path opacity="0.5" d="M19.0727 47.5666C17.6529 46.5329 16.4383 45.266 16.7238 43.4079C16.744 43.2832 16.9772 43.1947 16.9611 43.3717C16.7802 45.2017 17.8701 46.3238 19.1049 47.4419C19.2215 47.5465 19.1893 47.6551 19.0727 47.5666Z" fill="white"/>
</g>
<g style="mix-blend-mode:multiply">
<g style="mix-blend-mode:multiply">
<path d="M59.6266 18.8415C59.337 19.6258 58.8142 20.3216 57.9977 20.575C57.1209 20.8445 56.2803 20.5067 55.4679 20.1849C56.1436 20.9772 56.4452 21.7896 56.409 22.8515C56.3728 23.9293 56.2803 25.0193 56.1194 26.0852C56.1074 26.1656 55.9545 26.2219 55.9626 26.1093C56.0511 25.0515 56.224 23.9817 56.2361 22.9198C56.2481 21.8621 56.0108 21.0738 55.315 20.2573C55.2869 20.2211 55.315 20.1648 55.3593 20.1406C55.2225 20.0883 55.0898 20.0361 54.9531 19.9878C54.8364 19.9476 54.9893 19.7505 55.0938 19.7907C56.0551 20.1366 57.2174 20.8163 58.2551 20.3015C58.7217 20.0723 59.0877 19.6057 59.3089 19.1351C59.4858 18.7571 59.7191 17.9205 58.9147 17.9406C58.2591 17.9567 57.6277 18.3307 57.0043 17.9567C56.3849 17.5867 55.8097 17.1282 55.1099 16.9271C55.0576 16.911 55.126 16.8426 55.1582 16.8426C55.7534 16.8587 56.2079 17.2448 56.7026 17.5344C57.1008 17.7677 57.5111 18.0452 58.0058 17.9245C58.2471 17.8682 58.5085 17.7636 58.7579 17.7556C59.4255 17.7355 59.876 18.1658 59.6226 18.8456L59.6266 18.8415Z" fill="#0D5995"/>
</g>
<g style="mix-blend-mode:multiply">
<path d="M71.2903 23.0123C70.0273 23.3381 69.416 21.9505 68.9696 21.0536C68.4547 20.0079 69.0098 19.0869 69.3798 18.1176C69.3999 18.0693 69.5125 18.0411 69.4924 18.1135C69.2511 18.9059 68.6357 19.8792 69.0661 20.7278C69.5286 21.6408 70.0314 23.0526 71.3265 22.8193C71.4672 22.7951 71.3787 22.9882 71.2903 23.0083V23.0123Z" fill="#0D5995"/>
</g>
<g style="mix-blend-mode:multiply">
<path d="M70.2929 25.4818C69.8947 26.1897 69.5247 26.8694 69.2472 27.6376C69.0944 28.072 68.9455 28.5225 68.7002 28.9166C68.3744 29.4435 67.7953 30.075 67.0914 29.8256C67.0069 29.7974 66.9345 29.7572 66.8622 29.713C67.2282 30.5174 67.0351 31.6797 66.8662 32.4922C66.8501 32.5847 66.6651 32.6571 66.6812 32.5203C66.7938 31.6677 67.0592 30.4973 66.6409 29.6929C66.6208 29.6567 66.649 29.6084 66.6852 29.5803C66.1784 29.1338 66.0175 28.2972 66.0216 27.6537C66.0336 26.4471 66.653 25.4617 67.196 24.42C67.2201 24.3677 67.3247 24.3557 67.2925 24.4321C66.9346 25.2888 66.3393 26.1575 66.2589 27.1027C66.1985 27.7945 66.2629 29.2625 67.0793 29.5521C68.2578 29.9744 68.7646 28.4541 69.0622 27.6135C69.3357 26.8413 69.6896 26.1213 70.1441 25.4416C70.1924 25.3652 70.3532 25.3733 70.2929 25.4818Z" fill="#0D5995"/>
</g>
</g>
<path d="M64.3081 24.6292C63.914 24.589 63.4193 24.5326 62.7597 24.4401C59.8678 24.05 59.5944 23.9696 58.7337 23.6961C57.877 23.4226 57.9132 22.9922 57.877 20.567C57.8367 18.1457 58.0338 5.67351 58.07 4.03254C58.1102 2.39157 58.1706 1.82447 59.353 1.40216C61.1267 0.971809 62.7798 0.605795 64.3041 0.308167C64.3403 0.300123 64.3725 0.29208 64.4087 0.284036L64.4409 0.316219C64.5736 0.267955 64.7345 0.219701 64.9275 0.175459C65.2091 0.119151 65.4584 0.0789078 65.6837 0.0507538C66.2266 0.0105338 66.7696 0.111097 66.9064 0.617869C67.204 1.70381 66.6691 8.8911 66.5162 12.6959C66.3594 16.5007 66.2025 21.5041 66.1261 23.5754C66.0537 24.9429 64.9315 24.597 64.3122 24.6252L64.3081 24.6292Z" fill="#313133"/>
<path d="M69.4522 2.92248C69.4201 4.62781 68.9374 20.2251 68.9374 22.5297C68.8972 24.3678 68.5071 24.0943 66.9425 24.4844C65.7922 24.6332 65.6474 24.7619 64.3081 24.6332C64.9275 24.6091 66.0496 24.955 66.122 23.5835C66.2025 21.5121 66.3553 16.5088 66.5122 12.704C66.669 8.89917 67.1999 1.71188 66.9023 0.625937C66.7655 0.119166 66.2226 0.0186024 65.6796 0.0588223C66.9465 -0.106079 67.4976 0.103077 68.3864 0.348419C69.5447 0.670178 69.4804 1.21715 69.4482 2.91846L69.4522 2.92248Z" fill="black"/>
<path d="M58.794 3.67861C58.806 3.4212 58.9951 3.20403 60.5476 2.89032C61.4726 2.70128 64.4368 2.03764 65.3257 2.00145C66.2186 1.96123 66.2548 2.00144 66.1381 3.70274C66.0577 5.56493 65.4504 20.6354 65.4504 21.6087C65.4504 22.578 64.4368 22.6222 63.3026 22.5015C62.1684 22.3809 61.1951 22.3005 59.4536 22.0149C58.4119 21.846 58.4803 21.6529 58.5205 19.5052C58.4923 17.4781 58.5607 12.5914 58.7216 4.84097C58.7578 4.2417 58.7819 3.85558 58.794 3.68264V3.67861Z" fill="black"/>
<path d="M58.9146 3.97628C58.9307 3.72691 59.1117 3.51779 60.6079 3.21614C61.5008 3.03515 64.3604 2.39565 65.2211 2.35543C66.0818 2.31521 66.118 2.35543 66.0014 3.99641C65.925 5.79424 65.3377 20.3337 65.3377 21.2749C65.3377 22.212 64.3604 22.2522 63.2664 22.1356C62.1724 22.019 61.2313 21.9425 59.5501 21.665C58.5446 21.5001 58.613 21.3151 58.6532 19.2398C58.625 17.2851 58.6934 12.5673 58.8462 5.09038C58.8824 4.51121 58.9025 4.14118 58.9106 3.97628H58.9146Z" fill="#6FCEEF"/>
<path d="M63.5156 15.4389C64.3764 16.2473 65.0521 16.4565 65.0802 17.5263C64.5935 17.092 64.2356 16.8828 64.0104 16.8989C64.7062 17.5062 64.863 18.2382 64.4809 19.0869C64.3241 18.5117 64.0988 18.1497 63.8012 17.9929C63.9581 19.9757 63.5398 21.1381 62.5504 21.484C62.6549 21.2065 62.6871 20.9973 62.6549 20.8606C62.482 21.3915 62.0356 21.7454 61.3196 21.9224C60.8169 21.862 60.2498 21.7816 59.554 21.669C58.5485 21.5041 58.6169 21.3191 58.6571 19.2437C58.637 17.6872 58.6933 13.7899 58.7496 10.4798C59.0633 9.86042 59.4816 9.44212 59.8396 9.20884C59.5781 9.15656 59.4253 9.00775 59.373 8.76643L59.8677 8.84688C59.3971 8.58545 59.2604 8.18325 59.4494 7.64028C59.6063 8.08672 59.8315 8.27976 60.1331 8.22345C60.5836 8.13899 61.4524 6.20844 62.8762 6.07169C64.304 5.93494 65.3376 7.49145 64.8952 9.94085C63.6524 8.53717 62.0999 10.2184 62.0878 12.2294C60.7365 14.7753 63.0491 15.451 63.5116 15.4389H63.5156Z" fill="#ED1B24"/>
<g style="mix-blend-mode:multiply" opacity="0.5">
<path d="M61.0344 10.7493C60.97 10.1701 61.0465 9.71564 61.2717 9.38584C61.6095 8.89114 61.9836 9.10832 61.9836 9.86043C61.9836 10.3632 61.8267 10.7252 61.509 10.9504C61.5774 10.9625 61.6216 11.0831 61.6498 11.3043C60.9097 10.7372 60.2823 10.6568 59.7715 11.067C60.2863 10.5522 60.7046 10.4477 61.0344 10.7493Z" fill="#958E96"/>
</g>
<g style="mix-blend-mode:multiply" opacity="0.5">
<path d="M59.8396 9.20887C59.5782 9.15658 59.4253 9.00778 59.373 8.76646L59.8677 8.8469C59.3972 8.58547 59.2604 8.18327 59.4495 7.6403C59.6063 8.08674 59.8315 8.27978 60.1332 8.22347C60.5837 8.13901 61.4524 6.20846 62.8762 6.07171C62.8963 6.06769 62.9164 6.06769 62.9365 6.06769C62.5866 6.18433 62.2528 6.37335 61.9793 6.56239C61.1709 7.12144 60.821 8.38435 59.7229 8.39641C59.6827 8.39641 59.6063 8.49697 59.6465 8.52915C59.7913 8.65785 59.9321 8.73428 60.1211 8.77048C60.1975 8.78657 60.2659 8.76244 60.3343 8.74635C60.2257 8.77048 60.0286 8.89916 59.8436 8.89916C59.8074 8.89916 59.7229 9.00374 59.7632 9.0319C59.8798 9.10429 59.9964 9.14049 60.1251 9.18473C59.6867 9.70357 59.176 10.2264 58.7456 10.7815C58.7456 10.6809 58.7496 10.5844 58.7496 10.4838C59.0633 9.86444 59.4816 9.44617 59.8396 9.21289V9.20887Z" fill="#958E96"/>
</g>
<g style="mix-blend-mode:multiply" opacity="0.5">
<path d="M64.4809 19.0869C64.3241 18.5117 64.0988 18.1498 63.8012 17.9929C63.9581 19.9757 63.5398 21.1381 62.5504 21.484C62.6549 21.2065 62.6871 20.9973 62.6549 20.8606C62.482 21.3915 62.0356 21.7454 61.3196 21.9224C60.8169 21.862 60.2498 21.7816 59.554 21.669C58.5485 21.5041 58.6169 21.3191 58.6571 19.2437C58.645 18.4192 58.6571 16.9271 58.6772 15.2177C58.7818 15.4068 58.9668 15.7687 59.2041 15.817C59.3891 15.8532 59.5379 15.7365 59.6827 15.64C59.8315 15.5395 59.9683 15.4108 59.9683 15.6843C59.9683 15.9216 59.924 16.1589 59.9039 16.3921C59.8677 16.7984 59.9401 17.1483 60.1734 17.4821C60.2015 17.5263 60.2619 17.4298 60.2699 17.4057C60.3061 17.285 60.3383 17.1604 60.3785 17.0397C60.5796 17.7918 61.0622 18.6967 61.9632 18.5158C62.6429 18.379 62.4177 17.5304 62.3292 17.0115C62.7193 17.2247 63.0491 17.5424 63.2221 17.9607C63.2422 18.009 63.3266 17.8883 63.3226 17.8561C63.2663 17.1684 63.0692 16.5852 62.671 16.0422C62.9365 16.1106 63.1859 16.2313 63.4352 16.3559C63.4795 16.3761 63.5478 16.2715 63.5277 16.2353C63.3105 15.809 62.84 15.6682 62.4458 15.451C61.939 15.1695 61.5248 14.7833 61.3156 14.2363C61.0582 13.5607 61.3196 12.9734 61.561 12.35C61.7983 11.7266 61.8626 11.0469 62.0718 10.4114C62.3251 9.64725 62.9727 8.74232 63.8776 8.87102C64.2396 8.92331 64.5614 8.97156 64.8268 8.68197C64.8952 8.60556 64.9475 8.51707 64.9837 8.42456C65.0239 8.87905 64.9998 9.38583 64.8992 9.94489C63.6564 8.54121 62.1039 10.2224 62.0919 12.2334C60.7405 14.7793 63.0531 15.455 63.5156 15.4429C64.3764 16.2514 65.0521 16.4605 65.0802 17.5304C64.5935 17.096 64.2356 16.8868 64.0104 16.9029C64.7062 17.5103 64.863 18.2423 64.4809 19.0909V19.0869Z" fill="#958E96"/>
</g>
<path d="M61.6781 9.24509C61.8832 9.29335 61.9677 9.69152 61.8671 10.1339C61.7666 10.5764 61.5172 10.8981 61.3081 10.8539C61.103 10.8056 61.0185 10.4074 61.119 9.96502C61.2196 9.5226 61.469 9.20085 61.6781 9.24912V9.24509Z" fill="#000100"/>
<path d="M61.5132 9.36573C61.5856 9.38181 61.6177 9.5266 61.5815 9.68345C61.5453 9.84031 61.4568 9.95696 61.3804 9.94087C61.308 9.92478 61.2759 9.78402 61.3121 9.62314C61.3483 9.46226 61.4367 9.34964 61.5132 9.36573Z" fill="white"/>
<path d="M64.9233 0.183519C65.2049 0.127211 65.4542 0.0869919 65.6795 0.0588379C65.41 0.0789479 65.1405 0.131233 64.9233 0.183519Z" fill="#4B4E5F"/>
<path d="M62.4862 22.9279C62.4862 23.3743 62.1363 23.7404 61.7019 23.7404C61.2715 23.7404 60.9216 23.3784 60.9216 22.9279C60.9216 22.4774 61.2715 22.1155 61.7019 22.1155C62.1323 22.1155 62.4862 22.4774 62.4862 22.9279Z" fill="black"/>
<path d="M62.3092 22.9279C62.3092 23.2738 62.0398 23.5553 61.7019 23.5553C61.3681 23.5553 61.0986 23.2738 61.0986 22.9279C61.0986 22.578 61.3721 22.3005 61.7019 22.3005C62.0398 22.3005 62.3092 22.582 62.3092 22.9279Z" fill="#313133"/>
<path d="M61.8549 19.2598C61.3562 19.1713 61.0304 18.8415 60.8051 18.3991C60.7529 18.2986 60.6966 18.19 60.6604 18.0814C60.6604 18.0894 60.6604 18.0974 60.6604 18.1015C60.6764 18.2865 60.773 18.4755 60.7328 18.6565C60.7247 18.6847 60.6604 18.753 60.6322 18.7088C60.2541 18.1618 60.1938 17.5666 60.041 16.9391C60.0289 16.8949 60.1134 16.8305 60.1295 16.8828C60.2823 17.3896 60.3748 17.9044 60.596 18.379C60.5397 18.1538 60.4552 17.9084 60.6402 17.7475C60.6604 17.7274 60.7287 17.6953 60.7448 17.7435C60.9298 18.3871 61.2878 18.9059 61.9434 19.103C62.0278 19.1271 61.9233 19.2719 61.8549 19.2598Z" fill="#AA1B24"/>
<path d="M65.575 14.2686C65.0521 13.625 64.5494 13.1223 64.0627 12.7563C63.8375 12.527 63.5921 12.4386 63.3226 12.4909L63.1658 12.5954L62.9607 12.1932L62.3614 12.6758L62.0879 12.2173C62.112 10.2144 63.6525 8.54527 64.8952 9.94895C65.4865 11.0952 65.7117 12.5391 65.575 14.2766V14.2686Z" fill="#FFD626"/>
<g style="mix-blend-mode:multiply">
<path d="M65.5991 13.1544C65.6112 13.5043 65.6031 13.8744 65.575 14.2645C65.0521 13.621 64.5494 13.1182 64.0627 12.7522C63.8375 12.523 63.5921 12.4345 63.3226 12.4868L63.1658 12.5914L62.9607 12.1892L62.3614 12.6718L62.0879 12.2133C62.1 11.248 62.4619 10.3632 62.9727 9.86041C62.7596 10.1218 62.5987 10.4436 62.4941 10.7815C62.4338 10.9745 62.3493 11.6623 62.7917 11.5054C62.9607 11.4451 63.0813 11.3365 63.202 11.2078C63.21 11.1998 63.21 11.1957 63.2181 11.1917C63.198 11.2681 63.1859 11.3445 63.1778 11.425C63.1618 11.5617 63.1819 11.6784 63.2221 11.8071C63.2301 11.8312 63.2623 11.8071 63.2744 11.799C63.391 11.6985 63.5077 11.602 63.6364 11.5094C63.7168 11.4531 63.7812 11.6703 63.7972 11.7025C63.8938 11.8875 64.0788 12.0243 64.2316 12.153C64.5936 12.4506 64.9194 12.8447 65.3296 13.074C65.4221 13.1263 65.5106 13.1504 65.5951 13.1585L65.5991 13.1544Z" fill="#FFD626"/>
</g>
<path d="M63.7412 15.2218C63.7211 15.258 63.6608 15.3585 63.516 15.4389C63.0494 15.451 60.7408 14.7753 62.0922 12.2294C62.0922 12.2254 62.0922 12.2173 62.0922 12.2133L62.2852 12.5391C62.2571 13.1545 62.3978 14.3691 63.7452 15.2218H63.7412Z" fill="#FFD626"/>
<g style="mix-blend-mode:multiply">
<path d="M63.741 15.2218C63.7209 15.258 63.6606 15.3585 63.5158 15.4389C63.3268 15.443 62.824 15.3304 62.3897 15.0207C62.5224 15.0367 62.6591 15.0367 62.7999 15.0086C62.8361 15.0005 62.8924 14.9241 62.8723 14.8879C62.7034 14.5219 62.4701 14.1921 62.2851 13.8342C62.1604 13.5888 62.1202 13.3234 62.0397 13.062C61.9875 12.889 61.9231 12.7925 61.8467 12.7563C61.907 12.5914 61.9874 12.4144 62.084 12.2254C62.084 12.2213 62.084 12.2133 62.084 12.2093L62.277 12.5351C62.2489 13.1504 62.3897 14.3651 63.737 15.2177L63.741 15.2218Z" fill="#FFD626"/>
</g>
<path d="M62.8559 14.4134C62.333 13.7135 62.2647 12.9735 62.2848 12.5351L62.3652 12.6678L62.9645 12.1852L63.1696 12.5874L63.2822 12.511C63.4109 13.0177 63.4793 13.8382 62.8599 14.4093L62.8559 14.4134Z" fill="#F79AA7"/>
<path d="M64.0624 12.7563C64.0624 13.6774 63.9579 14.4938 63.7487 15.2057C63.7487 15.2098 63.7447 15.2178 63.7407 15.2218C63.3505 14.9765 63.065 14.699 62.8518 14.4174C63.4752 13.8463 63.4068 13.0258 63.2741 12.519L63.3184 12.4909C63.5878 12.4386 63.8332 12.5271 64.0584 12.7563H64.0624Z" fill="#D33343"/>
<path d="M62.2449 1.67166C62.2931 1.82449 62.1725 1.99743 61.9754 2.06178C61.7783 2.12613 61.5812 2.05375 61.5289 1.90091C61.4807 1.74808 61.6013 1.57512 61.7984 1.51077C61.9955 1.45044 62.1926 1.51882 62.2449 1.67166Z" fill="black"/>
<path d="M61.517 8.08272C61.6498 7.67247 61.8308 7.4553 62.06 7.43921C62.5467 7.46334 62.7357 7.95 62.6311 8.89114C62.603 8.14707 62.4421 7.77302 62.1606 7.77302C61.875 7.77302 61.686 7.99424 61.5854 8.43666L61.1792 7.84541L61.517 8.08272Z" fill="#000100"/>
<path d="M65.6272 2.9024C63.4835 4.88122 61.2472 6.75144 59.1196 8.75037C59.0351 8.82679 59.0713 8.68201 59.1075 8.64179C60.1573 7.54379 61.2995 6.51816 62.4578 5.53277C63.5076 4.63989 64.5372 3.66256 65.6312 2.83403C65.6714 2.80185 65.6473 2.88631 65.6312 2.9024H65.6272Z" fill="#302C2B"/>
<path d="M64.0103 3.56602C62.4136 4.92545 60.7525 6.1602 59.2523 7.63628C59.192 7.69661 59.2161 7.58399 59.2443 7.55583C60.7445 6.05563 62.3774 4.79272 64.0224 3.46144C64.0787 3.4172 64.0345 3.54189 64.0103 3.56602Z" fill="#302C2B"/>
<path d="M64.9113 15.3706C63.21 16.7461 61.3599 17.9567 59.5862 19.2357C59.554 19.2558 59.5781 19.1674 59.5942 19.1513C61.2955 17.7637 63.1456 16.549 64.9234 15.254C64.9676 15.2218 64.9394 15.3545 64.9113 15.3746V15.3706Z" fill="#302C2B"/>
<path d="M64.6298 16.5329C63.3226 17.4097 61.9994 18.202 60.8089 19.2357C60.7485 19.288 60.7807 19.1472 60.8089 19.1191C61.9994 18.0774 63.2985 17.2448 64.6458 16.4283C64.6861 16.4042 64.6539 16.5128 64.6257 16.5329H64.6298Z" fill="#302C2B"/>
<g style="mix-blend-mode:multiply" opacity="0.5">
<g style="mix-blend-mode:multiply" opacity="0.5">
<path d="M66.0051 4.00036C65.9287 5.79819 65.3415 20.3377 65.3415 21.2789C65.3415 22.216 64.3641 22.2562 63.2701 22.1396C62.1762 22.0229 61.235 21.9465 59.5538 21.669C59.1959 21.6127 58.9746 21.5483 58.8379 21.3995C60.6156 21.3794 63.9619 20.9289 64.5411 17.0517C65.1927 12.6879 65.3736 4.92945 65.4179 2.35135C66.0855 2.33526 66.1097 2.49613 66.0011 4.00036H66.0051Z" fill="#6FCEEF"/>
</g>
</g>
<g style="mix-blend-mode:multiply">
<path d="M61.5692 11.2078C61.348 11.0871 61.1268 10.9664 60.8935 10.8659C60.5033 10.701 60.2902 10.8458 59.9403 10.9866C59.9121 10.9986 59.9202 10.9584 59.9362 10.9504C60.2097 10.8297 60.4028 10.6688 60.7246 10.7292C61.0262 10.7855 61.352 10.9866 61.6134 11.1434C61.6496 11.1635 61.5973 11.2198 61.5692 11.2038V11.2078Z" fill="#AA1B24"/>
</g>
<path d="M59.8597 1.4826C59.4373 1.68772 58.826 1.76414 58.637 2.25884C58.4158 2.83801 58.3313 3.4413 58.2991 4.05666C58.2388 5.15467 58.2267 6.2567 58.2911 7.3547C58.2951 7.39895 58.2106 7.45122 58.1986 7.39089C58.0739 6.71117 58.1302 6.01137 58.1423 5.32763C58.1584 4.67606 58.1543 4.01241 58.2468 3.36889C58.3152 2.8943 58.4037 2.31111 58.7295 1.93706C59.003 1.63139 59.4896 1.57509 59.8476 1.41421C59.9039 1.39008 59.8918 1.46649 59.8556 1.4866L59.8597 1.4826Z" fill="white"/>
<path d="M60.628 1.24531C60.5314 1.27347 60.4349 1.30564 60.3384 1.34184C60.266 1.36999 60.1976 1.41423 60.1212 1.41826C60.077 1.42228 60.1051 1.36596 60.1333 1.35792C60.2258 1.34183 60.3142 1.28152 60.3987 1.24934C60.4792 1.22119 60.5556 1.19303 60.636 1.17292C60.6843 1.16085 60.6642 1.23325 60.628 1.24531Z" fill="white"/>
<g style="mix-blend-mode:screen">
<g style="mix-blend-mode:screen">
<path d="M59.2043 18.2945C58.5407 18.2141 57.9736 18.2624 57.3341 18.4675C57.133 18.5318 56.9198 18.4594 56.7308 18.3911C55.8339 18.0653 55.3311 16.9029 54.1929 17.2649C54.0843 17.3011 54.1044 17.1563 54.1849 17.1282C55.0777 16.8024 55.7011 17.4218 56.4171 17.8521C56.7831 18.0733 56.9641 18.375 57.495 18.2101C57.6599 18.1578 57.8408 18.0934 58.0138 18.0693C58.4562 18.0009 58.8624 18.0009 59.3049 18.0894C59.4416 18.1176 59.3169 18.3106 59.2124 18.2986L59.2043 18.2945Z" fill="#0D5995"/>
</g>
<g style="mix-blend-mode:screen">
<path d="M54.9811 27.6135C54.9248 27.7422 54.6754 27.7704 54.7478 27.5894C55.5683 25.5261 55.9102 22.9882 54.587 21.0577C54.5306 20.9732 54.6795 20.8284 54.7398 20.9088C56.1113 22.7992 55.8981 25.5623 54.9811 27.6135Z" fill="#0D5995"/>
</g>
<g style="mix-blend-mode:screen">
<path d="M70.6307 22.7066C70.0475 22.0551 69.1345 21.2024 69.1345 20.2492C69.1345 19.1432 69.7499 18.2623 69.8786 17.1965C69.8866 17.1362 70.0274 17.0678 70.0234 17.1563C69.9872 18.1176 69.3598 18.9501 69.3718 19.9275C69.3919 21.0295 70.2446 21.677 70.8358 22.5055C70.9163 22.6141 70.7192 22.8112 70.6267 22.7066H70.6307Z" fill="#0D5995"/>
</g>
<g style="mix-blend-mode:screen">
<path d="M67.8716 29.2304C67.039 29.17 66.5443 28.4541 66.5564 27.6377C66.5765 26.5276 66.9747 25.7272 67.3809 24.7338C67.405 24.6694 67.5579 24.6252 67.5297 24.7298C67.3447 25.4537 66.9023 26.0811 66.8379 26.8614C66.7535 27.8629 66.9224 28.7155 67.9922 29.0172C68.1169 29.0534 67.9601 29.2384 67.8716 29.2304Z" fill="#0D5995"/>
</g>
<g style="mix-blend-mode:screen">
<path d="M70.0918 30.5656C70.0838 31.2172 70.0797 32.0497 69.3357 32.2629C69.1386 32.3192 69.1909 32.0859 69.3196 32.0256C70.0234 31.6958 69.8706 29.906 69.8666 29.2705C69.8625 28.5707 69.8344 27.8629 69.6092 27.1952C69.581 27.1107 69.7379 26.9901 69.7741 27.0866C70.1964 28.1967 70.1039 29.4033 70.0918 30.5656Z" fill="#0D5995"/>
</g>
</g>
<path d="M9.68954 76.2998C9.02591 76.7221 8.75241 77.9005 8.87709 78.6245C8.88111 78.6607 8.86905 78.6768 8.86101 78.6325C8.68806 77.8885 8.95753 76.6497 9.66943 76.2475C9.71367 76.2234 9.72574 76.2756 9.68954 76.2998Z" fill="white"/>
<path d="M12.8911 77.2208C12.2476 77.7879 12.1672 78.8176 12.324 79.5978C12.3321 79.634 12.324 79.6662 12.316 79.6219C12.1189 78.8256 12.1672 77.7437 12.8549 77.1846C12.8871 77.1565 12.9233 77.1927 12.8911 77.2208Z" fill="white"/>
<path d="M27.2052 74.3531C27.2173 74.3853 27.2133 74.3974 27.1932 74.3612C27.0524 74.1038 26.7628 73.8464 26.4451 73.8383C26.4169 73.8343 26.4411 73.7981 26.4572 73.7941C26.795 73.7498 27.1047 74.0515 27.2052 74.3491V74.3531Z" fill="white"/>
<path d="M30.282 75.0691C29.6868 75.1254 29.5219 75.7126 29.4334 76.1912C29.4254 76.2234 29.4133 76.2475 29.4173 76.2033C29.4817 75.6925 29.6707 75.065 30.2901 75.0208C30.3263 75.0168 30.3062 75.0691 30.278 75.0731L30.282 75.0691Z" fill="white"/>
<path d="M40.9604 76.6738C40.9202 76.702 40.8961 76.6537 40.9282 76.6216C41.3586 76.2354 41.8774 75.6965 41.793 75.0731C41.789 75.0369 41.8573 75.0007 41.8613 75.0449C41.9579 75.6764 41.435 76.3078 40.9604 76.6698V76.6738Z" fill="white"/>
<path d="M40.5945 73.3919C40.5824 73.3517 40.518 73.3999 40.5301 73.4321C40.6709 73.9147 40.6789 74.4376 40.5945 74.9243C40.5019 75.4471 40.1721 75.8976 39.8584 76.3078C39.8263 76.3521 39.8785 76.3842 39.9147 76.348C40.6427 75.5316 40.9685 74.4537 40.5945 73.3919Z" fill="white"/>
</svg>
