<svg width="75" height="80" viewBox="0 0 75 80" fill="none" xmlns="http://www.w3.org/2000/svg">
<path d="M74.3053 56.8783C73.9572 57.5263 73.5667 58.1623 73.1592 58.7823C72.8833 59.2023 72.5564 59.6183 72.1362 59.9223C70.9688 60.7663 69.3387 60.7743 67.9464 61.0063C67.7893 61.0343 67.7257 60.8463 67.8021 60.7463C67.9209 60.5863 68.0355 60.4303 68.1417 60.2623C67.9506 60.3423 67.7639 60.4263 67.5771 60.5103C67.0635 60.7463 66.5371 61.0143 65.9937 61.1703C65.0726 61.4423 64.1302 61.3943 63.2515 61.0223C62.585 60.9303 62.6487 59.8783 62.6996 59.4343C62.8355 58.2303 63.243 57.0423 63.6675 55.9063C64.1302 54.6623 64.6523 53.4383 65.2424 52.2422C65.4334 51.8502 65.6287 51.4582 65.8494 51.0782C66.1126 50.6302 66.4522 50.0662 66.9021 49.6982C67.3564 48.9582 67.7893 48.1862 68.4006 47.5622C68.4728 47.4862 68.6129 47.5182 68.6213 47.6262C68.6468 47.9142 68.7996 48.2582 68.9397 48.6142C69.3387 48.2502 69.933 48.0302 70.4212 47.9182C70.5188 47.8942 70.6462 47.9822 70.5825 48.0862C70.4764 48.2662 70.3787 48.4502 70.2769 48.6342C70.8797 48.4782 71.6183 48.6862 72.1786 48.8382C73.0743 49.0862 73.779 49.7662 74.3011 50.4662C74.3605 50.5462 74.3181 50.6582 74.2247 50.6902C73.9827 50.7742 73.728 50.8142 73.4776 50.8542C75.3411 52.2702 75.3284 54.9703 74.3053 56.8743V56.8783Z" fill="#C0C3C2"/>
<g style="mix-blend-mode:multiply" opacity="0.3">
<path d="M74.3053 56.8782C73.9572 57.5263 73.5667 58.1623 73.1592 58.7823C72.8833 59.2023 72.5564 59.6183 72.1362 59.9223C70.9688 60.7663 69.3387 60.7743 67.9464 61.0063C67.7893 61.0343 67.7257 60.8463 67.8021 60.7463C67.9209 60.5863 68.0355 60.4303 68.1417 60.2623C67.9506 60.3423 67.7639 60.4263 67.5771 60.5103C67.0635 60.7463 66.5371 61.0143 65.9937 61.1703C65.0726 61.4423 64.1302 61.3943 63.2515 61.0223C62.585 60.9303 62.6487 59.8783 62.6996 59.4343C62.8355 58.2303 63.243 57.0423 63.6675 55.9062C64.1302 54.6622 64.6523 53.4382 65.2424 52.2422C65.4334 51.8502 65.6287 51.4582 65.8494 51.0782C66.1126 50.6302 66.4522 50.0662 66.9021 49.6982C67.3564 48.9582 67.7893 48.1862 68.4006 47.5621C68.4133 47.5501 68.4261 47.5421 68.4388 47.5381C68.2308 48.1662 68.0186 48.9822 68.3327 49.5422C68.528 49.8822 69.1859 49.7062 69.5934 49.6222C69.309 50.0142 69.1265 50.4702 69.1095 50.9502C69.1053 51.0142 69.1689 51.0422 69.2284 51.0342C69.5934 50.9862 69.95 50.9062 70.3151 50.8982C69.8863 51.6502 69.5849 52.3982 69.4916 53.2542C69.4491 53.6622 69.4703 54.0782 69.4024 54.4822C69.343 54.8342 69.2751 55.1822 69.2454 55.5422C69.1095 57.0903 70.7778 55.8862 71.5206 55.4942C71.597 55.9382 71.5376 56.3942 71.6437 56.8422C71.6607 56.9142 71.7499 56.9183 71.8008 56.8823C72.1786 56.5982 72.5309 56.2902 72.9215 56.0262C73.4733 56.9503 74.4624 54.6262 74.5897 54.2862C75.1076 52.8982 73.9615 51.2022 72.654 50.4902C73.1804 50.3902 73.7195 50.4262 74.2501 50.3902C74.2671 50.4142 74.2883 50.4382 74.3053 50.4622C74.3647 50.5422 74.3223 50.6542 74.2289 50.6862C73.987 50.7702 73.7323 50.8102 73.4818 50.8502C75.3453 52.2662 75.3326 54.9662 74.3096 56.8702L74.3053 56.8782Z" fill="#8D7B63"/>
</g>
<g style="mix-blend-mode:multiply" opacity="0.3">
<path d="M73.6431 58.0143C73.486 58.2703 73.3247 58.5303 73.1592 58.7823C72.8833 59.2023 72.5564 59.6183 72.1362 59.9223C70.9688 60.7663 69.3387 60.7743 67.9464 61.0063C67.7893 61.0343 67.7257 60.8463 67.8021 60.7463C67.9209 60.5863 68.0355 60.4303 68.1417 60.2623C67.9506 60.3423 67.7639 60.4263 67.5771 60.5103C67.0635 60.7463 66.5371 61.0143 65.9937 61.1703C65.0726 61.4423 64.1302 61.3943 63.2515 61.0223C62.585 60.9303 62.6487 59.8783 62.6996 59.4343C62.8355 58.2303 63.243 57.0423 63.6675 55.9062C64.1302 54.6622 64.6523 53.4382 65.2424 52.2422C65.4334 51.8502 65.6287 51.4582 65.8494 51.0782C66.1126 50.6302 66.4522 50.0662 66.9021 49.6982C67.2035 49.2102 67.4922 48.7062 67.8318 48.2462C67.7341 48.5862 67.6832 48.9342 67.7384 49.2902C67.8742 50.2102 68.2096 51.0902 68.4133 51.9982C68.8463 53.9342 68.1119 55.9062 67.3012 57.6663C67.2035 57.8823 65.7687 60.2383 66.7536 60.1023C67.3436 60.0183 67.9464 59.6543 68.4261 59.3463C69.0331 58.9543 69.5637 58.4543 70.1325 58.0103C69.7547 58.7663 69.2538 59.4583 68.8378 60.1903C68.8081 60.2463 68.8463 60.3263 68.9185 60.3223C69.7717 60.2583 70.6122 60.0383 71.4188 59.7783C72.2762 59.5023 72.9215 58.8543 73.4818 58.2143C73.537 58.1503 73.5879 58.0863 73.6431 58.0223V58.0143Z" fill="#8D7B63"/>
</g>
<path d="M67.9762 53.2022C67.8955 54.3623 67.5305 55.4223 67.1824 56.5343C66.8343 57.6423 66.431 58.6623 65.5438 59.4903C65.3868 59.6383 65.2212 59.7823 65.0557 59.9223C64.9198 60.1063 64.7797 60.2943 64.6481 60.4823C64.1769 61.1703 63.71 61.8663 63.2388 62.5543C62.7973 63.1864 62.1436 63.6504 61.6512 64.2424C62.0078 64.1504 62.3601 64.1704 62.6063 64.4704C62.9799 64.9184 63.0096 65.5864 62.9841 66.1304C62.9544 66.7864 62.878 67.4504 62.7931 68.1024C62.6106 69.5344 62.1436 70.9064 61.6639 72.2705C61.4474 72.8865 61.3838 73.5625 60.9635 74.0985C60.8532 74.2385 60.7343 74.3705 60.6112 74.4985C60.6197 74.5225 60.6197 74.5505 60.5985 74.5785C59.8556 75.5865 58.8793 76.2625 57.6482 76.6545C56.2771 77.0905 54.8423 77.2745 53.416 77.4465C52.618 77.5425 51.8199 77.6345 51.0346 77.7985C50.4276 77.9185 49.7908 78.0705 49.1626 78.0345C48.6532 78.0065 48.3051 77.8025 48.0631 77.5065C47.3967 77.7025 46.7005 77.8585 46.1444 77.3665C46.068 77.2985 45.9916 77.2265 45.9152 77.1545C45.3676 77.3625 44.7945 77.3825 44.2342 77.0465C43.5974 76.6625 42.7909 76.2785 42.4259 75.6185C42.0523 74.9425 42.1414 74.0745 42.4895 73.3025C41.9419 73.4225 41.4113 73.5865 40.8977 73.8345C40.2227 74.1585 39.5817 74.6025 38.8516 74.8185C37.714 75.1545 36.4405 74.8145 35.3623 74.2905C35.4641 74.5905 35.5236 74.8985 35.5533 75.1785C35.6594 76.1225 35.5703 76.9705 34.9675 77.7705C33.9275 79.1585 31.6522 80.0785 29.9924 79.1265C29.9075 79.1825 29.8226 79.2425 29.7377 79.3025C29.3217 79.5985 28.8887 79.8425 28.3666 79.9425C27.8784 80.0345 27.5176 79.9705 27.2247 79.7785C26.7365 79.9425 26.2144 79.9625 25.7135 79.7305C25.0386 79.4185 24.457 78.9425 24.0834 78.3225C23.7014 77.6825 23.816 77.0545 24.1344 76.4225C24.3254 76.0425 24.5079 75.6705 24.7244 75.3185C24.3551 75.2385 23.9943 75.1025 23.6377 74.9065C23.1368 74.6265 22.7038 74.2625 22.2454 73.9225C22.2709 74.3025 22.2666 74.6865 22.1435 75.0505C21.5237 76.9025 19.8555 78.4745 18.1108 79.4305C18.0726 79.4505 18.0344 79.4425 18.0174 79.4145C17.5717 79.5865 17.092 79.6785 16.6038 79.6505C16.0562 79.6185 15.4577 79.4345 15.0077 79.1065C14.4602 79.2185 13.6706 79.0745 13.3395 78.9945C13.1824 78.9585 13.0551 78.9025 12.9447 78.8385C12.3801 79.1265 11.7349 79.2905 11.1958 79.0425C10.3468 78.6545 9.87137 77.8065 9.68883 76.9625C9.51479 76.1345 9.45112 75.0465 9.87986 74.2705C10.385 73.3625 11.2255 73.3545 12.1467 73.4025C12.2443 73.0265 12.4226 72.6705 12.8131 72.5345C13.3734 72.3425 13.9847 72.5545 14.4941 72.7785C15.0842 73.0385 15.6063 73.3705 16.052 73.8025C16.1836 73.5545 16.2643 73.2825 16.4383 73.0665C16.2473 72.7625 16.052 72.4625 15.8398 72.1785C15.4068 71.6064 14.8592 71.1064 14.3286 70.6144C13.4032 69.7544 12.3504 68.9784 11.5142 68.0384C10.6906 67.1184 10.1303 65.9904 9.63365 64.8904C9.17519 63.8744 8.73372 62.8263 8.47054 61.7463C8.2498 61.6383 8.03755 61.5303 7.82106 61.4143C7.08669 61.0183 6.35655 60.5703 5.75377 60.0023C4.86657 59.1743 4.51849 58.0823 4.58217 56.9503C4.4718 57.1623 4.3869 57.3823 4.31049 57.6263C4.32322 57.6983 4.33596 57.7703 4.3402 57.8423C4.34445 57.9103 4.25106 57.9223 4.22559 57.8663C4.2171 57.8463 4.20861 57.8223 4.19587 57.8023C4.18314 57.8023 4.17465 57.7943 4.17041 57.7783C4.16192 57.7623 4.16192 57.7463 4.15767 57.7263C3.96665 57.3263 3.81383 56.9063 3.61008 56.5103C3.45726 56.2023 3.2535 55.8983 3.18558 55.5583C3.04125 54.8263 3.53366 54.1023 3.82657 53.4502C4.20437 52.6222 4.66707 51.8022 5.3123 51.1422C5.1425 51.2182 4.96421 51.2702 4.78168 51.2702C4.74772 51.2702 4.73074 51.2502 4.73074 51.2262C4.71801 51.2102 4.71376 51.1902 4.72225 51.1702C5.03213 50.4862 5.18919 49.7222 5.60095 49.0822C6.03818 48.4102 6.73011 47.8542 7.26072 47.2462C7.51118 46.9582 7.77437 46.6742 8.03331 46.3862C8.67005 44.9102 9.57422 43.5501 10.6864 42.3421C11.9132 41.0061 13.3607 39.6941 14.9611 38.7581C17.1387 37.4821 19.6602 36.9621 22.1902 36.7581C24.9197 36.5381 27.7214 36.4621 30.4509 36.7261C31.8602 36.8581 33.2568 37.0901 34.6109 37.4781C35.2264 37.6581 35.825 37.8701 36.415 38.1061C37.5229 37.7541 38.5969 37.3221 39.5902 36.7421C40.6897 36.0981 41.6872 35.338 42.8461 34.786C44.005 34.238 45.2784 33.738 46.5689 33.558C49.2178 33.186 51.8284 34.082 54.1079 35.298C56.3832 36.5141 58.4633 37.9861 60.2546 39.7901C60.2716 39.8061 60.2843 39.8261 60.3013 39.8421C60.8489 40.1981 61.3626 40.6021 61.8465 41.0221C62.7804 41.8341 63.7227 42.6781 64.525 43.6061C66.0702 45.3902 67.1314 47.4942 67.6366 49.7462C67.887 50.8782 68.0271 52.0462 67.9465 53.2022H67.9762Z" fill="#C0C3C2"/>
<g style="mix-blend-mode:multiply" opacity="0.3">
<path d="M34.4158 37.4261C34.4879 37.4421 34.5643 37.4621 34.6365 37.4821C35.252 37.6621 35.8506 37.8741 36.4406 38.1101C37.5485 37.7581 38.6225 37.3261 39.6158 36.7461C40.7153 36.1021 41.7128 35.3421 42.8717 34.7901C43.7292 34.3821 44.6461 34.0061 45.5885 33.7621C44.5527 34.3181 43.4915 34.8301 42.5491 35.5261C41.4327 36.3541 40.0531 37.9381 40.6219 39.3701C40.8893 40.0502 41.5643 40.5382 42.1585 40.9542C43.0627 41.5822 44.0433 42.0182 45.0154 42.5382C45.2998 42.6902 45.5757 42.8782 45.8474 43.0782C43.64 42.1102 41.4496 41.1142 39.3272 39.9902C37.7056 39.1301 36.118 38.1541 34.42 37.4341L34.4158 37.4261Z" fill="#8D7B63"/>
</g>
<g style="mix-blend-mode:multiply" opacity="0.3">
<path fill-rule="evenodd" clip-rule="evenodd" d="M67.976 53.2023C67.8953 54.3623 67.5303 55.4223 67.1822 56.5343C66.8341 57.6423 66.4308 58.6623 65.5436 59.4903C65.3866 59.6383 65.221 59.7823 65.0555 59.9223C64.9196 60.1063 64.7795 60.2943 64.648 60.4823C64.1768 61.1704 63.7098 61.8664 63.2386 62.5544C62.7972 63.1864 62.1434 63.6504 61.651 64.2424C62.0076 64.1504 62.3599 64.1704 62.6061 64.4704C62.9797 64.9184 63.0094 65.5864 62.9839 66.1304C62.9542 66.7864 62.8778 67.4504 62.7929 68.1024C62.6104 69.5344 62.1434 70.9065 61.6638 72.2705C61.4473 72.8865 61.3836 73.5625 60.9633 74.0985C60.853 74.2385 60.7341 74.3705 60.611 74.4985C60.6195 74.5225 60.6195 74.5505 60.5983 74.5785C59.8554 75.5865 58.8791 76.2625 57.648 76.6545C56.2769 77.0905 54.8421 77.2745 53.4158 77.4465C52.6178 77.5425 51.8197 77.6345 51.0344 77.7985C50.4274 77.9185 49.7906 78.0705 49.1624 78.0345C48.653 78.0065 48.3049 77.8025 48.063 77.5065C47.3965 77.7025 46.7003 77.8585 46.1442 77.3665C46.0678 77.2985 45.9914 77.2265 45.915 77.1545C45.3674 77.3625 44.7943 77.3825 44.234 77.0465C43.5973 76.6625 42.7907 76.2785 42.4257 75.6185C42.0521 74.9425 42.1413 74.0745 42.4893 73.3025C41.9417 73.4225 41.4111 73.5865 40.8975 73.8345C40.2225 74.1585 39.5816 74.6025 38.8514 74.8185C37.7138 75.1545 36.4403 74.8145 35.3621 74.2905C35.464 74.5905 35.5234 74.8985 35.5531 75.1785C35.6592 76.1225 35.5701 76.9705 34.9673 77.7705C33.9273 79.1585 31.652 80.0786 29.9922 79.1266C29.9073 79.1826 29.8224 79.2425 29.7375 79.3026C29.3215 79.5986 28.8885 79.8426 28.3664 79.9426C27.8782 80.0346 27.5174 79.9706 27.2245 79.7786C26.7363 79.9426 26.2142 79.9626 25.7133 79.7306C25.0384 79.4186 24.4568 78.9425 24.0833 78.3225C23.7012 77.6825 23.8158 77.0545 24.1342 76.4225C24.3252 76.0425 24.5078 75.6705 24.7242 75.3185C24.3549 75.2385 23.9941 75.1025 23.6375 74.9065C23.1366 74.6265 22.7037 74.2625 22.2452 73.9225C22.2707 74.3025 22.2664 74.6865 22.1433 75.0505C21.5236 76.9025 19.8553 78.4745 18.1106 79.4306C18.0724 79.4506 18.0342 79.4426 18.0172 79.4146C17.5715 79.5866 17.0918 79.6786 16.6037 79.6506C16.0561 79.6186 15.4575 79.4346 15.0076 79.1066C14.46 79.2186 13.6704 79.0746 13.3393 78.9946C13.1822 78.9586 13.0549 78.9026 12.9445 78.8385C12.3799 79.1266 11.7347 79.2906 11.1956 79.0426C10.3466 78.6545 9.87118 77.8065 9.68865 76.9625C9.59951 76.5345 9.53583 76.0385 9.5613 75.5545C9.76081 76.0545 10.198 76.5185 10.8178 76.3185C11.6116 76.0665 11.4885 75.1585 11.4163 74.5465C11.3654 74.0985 11.5564 73.7225 11.8366 73.3905C11.9385 73.3905 12.0403 73.3945 12.1465 73.4025C12.2059 73.1825 12.2908 72.9745 12.4266 72.8065C12.0276 73.9585 11.1786 75.2425 12.4988 76.1025C12.762 76.2745 13.1271 76.1425 13.2841 75.9065C13.6152 75.4065 13.7256 74.8425 13.8444 74.2705C13.9973 73.5545 14.1968 73.1865 15.0415 73.2145C15.1264 73.2185 15.1986 73.2025 15.2623 73.1825C15.5467 73.3625 15.8141 73.5665 16.0603 73.8025C16.1919 73.5545 16.2726 73.2825 16.4466 73.0665C16.2556 72.7625 16.0603 72.4625 15.8481 72.1785C15.4151 71.6065 14.8675 71.1065 14.3369 70.6145C13.4115 69.7544 12.3587 68.9784 11.5225 68.0384C10.6989 67.1184 10.1386 65.9904 9.64196 64.8904C9.1835 63.8744 8.74202 62.8264 8.47884 61.7464C8.2581 61.6384 8.04585 61.5304 7.82936 61.4144C7.09499 61.0183 6.36486 60.5703 5.76208 60.0023C4.87488 59.1743 4.5268 58.0823 4.59047 56.9503C4.4801 57.1623 4.39521 57.3823 4.3188 57.6263C4.33153 57.6983 4.34426 57.7703 4.34851 57.8423C4.35275 57.9103 4.25936 57.9223 4.23389 57.8663C4.2254 57.8463 4.21692 57.8223 4.20418 57.8023C4.19145 57.8023 4.18296 57.7943 4.17871 57.7783C4.17022 57.7623 4.17022 57.7463 4.16598 57.7263C3.97496 57.3263 3.82213 56.9063 3.61838 56.5103C3.46556 56.2023 3.2618 55.8983 3.19388 55.5583C3.04955 54.8263 3.54197 54.1023 3.83487 53.4503C4.21267 52.6223 4.67537 51.8022 5.3206 51.1422C5.15081 51.2182 4.97252 51.2702 4.78999 51.2702C4.75603 51.2702 4.73904 51.2502 4.73904 51.2262C4.72631 51.2102 4.72207 51.1902 4.73056 51.1702C5.04044 50.4862 5.1975 49.7222 5.60926 49.0822C6.04649 48.4102 6.73841 47.8542 7.26903 47.2462C7.51948 46.9582 7.78267 46.6742 8.04161 46.3862C8.67835 44.9102 9.58252 43.5502 10.6947 42.3421C11.9215 41.0061 13.369 39.6941 14.9694 38.7581C17.147 37.4821 19.6685 36.9621 22.1985 36.7581C24.928 36.5381 27.7297 36.4621 30.4592 36.7261C31.3591 36.8101 32.259 36.9381 33.142 37.1181C35.031 37.7461 36.7714 38.7781 38.5076 39.7421C38.4227 40.2701 38.1086 40.7341 37.7944 41.1701C37.4294 41.6781 37.0346 42.1741 36.661 42.6781C35.812 43.8142 34.9079 44.9142 33.9018 45.9302C32.0722 47.7822 29.6951 48.8582 27.4962 50.2462C25.569 51.4662 23.8286 53.1823 21.5066 53.7183C20.0845 54.0503 18.7007 53.7343 17.3635 53.2663C16.1495 52.8463 14.9227 52.4503 13.7171 51.9982C12.5582 51.5622 11.4418 50.9902 10.6013 50.1062C10.1598 49.6422 9.84147 49.1262 9.51036 48.5902C9.36603 48.3622 9.19199 48.1502 9.03917 47.9262C8.97125 47.8262 8.94154 47.6902 8.85664 47.5982C8.69533 47.4102 8.39394 47.5502 8.19868 47.6102C7.81239 47.7262 7.49826 47.9542 7.20535 48.2142C6.4922 48.8382 5.97432 49.6542 5.4522 50.4182C5.40126 50.4902 5.49889 50.5902 5.57955 50.5382C6.25449 50.1142 7.01434 49.8542 7.78692 49.6422C5.65595 51.0462 4.01316 53.3783 4.56925 55.9063C4.58623 55.9863 4.69659 55.9863 4.73904 55.9263C5.32909 55.1063 6.02102 54.3463 6.85727 53.7463C6.58984 54.3183 6.44127 54.9103 6.5771 55.5543C6.75964 56.4143 7.47279 57.0983 8.18169 57.6103C8.90758 58.1383 9.72686 58.5543 10.5122 58.9983C11.4333 59.5183 12.2568 60.1903 13.2417 60.6143C13.3011 60.6383 13.3563 60.6183 13.3775 60.5623C13.7511 59.6983 14.0949 58.8183 14.5661 57.9983C14.6807 60.9983 18.7601 62.4664 21.1882 63.5424C21.9183 63.8664 22.5763 64.3144 23.3149 64.6184C24.1809 64.9704 24.7752 64.3944 25.3567 63.8424C25.7982 63.4224 26.3416 63.0744 26.8085 62.6784C27.2585 62.2984 27.6957 61.9024 28.1117 61.4944C28.8801 60.7423 29.5635 59.9223 30.179 59.0583C30.3021 59.7423 30.2639 60.4343 30.2639 61.1264C30.2639 61.2104 30.3615 61.2384 30.421 61.1903C31.5756 60.2943 32.4288 59.1583 33.3754 58.0783C33.6217 58.9743 33.5283 59.9143 33.575 60.8343C33.5792 60.8903 33.6344 60.9383 33.6938 60.9223C37.5312 59.7303 38.0958 55.2423 37.4251 51.9902C39.0679 52.8903 38.8429 55.2023 39.1443 56.7343C39.1571 56.7863 39.2335 56.8183 39.2844 56.7863C41.5554 55.2783 44.8538 51.1702 41.7168 49.0742C42.3238 49.0942 42.8629 49.3742 43.4614 49.4942C43.5421 49.5102 43.61 49.4342 43.5676 49.3662C42.952 48.3022 41.4536 48.1382 40.2905 47.8302C42.3111 47.4822 44.2043 48.8702 45.066 50.5462C44.6076 50.2022 44.1746 49.8182 43.576 49.7342C43.4827 49.7222 43.4147 49.8102 43.4827 49.8822C44.4335 50.8942 44.7477 52.1943 45.2655 53.4183C45.4693 53.9063 45.7113 54.3983 46.1188 54.7663C46.5857 55.1943 46.8234 55.6623 47.0866 56.2143C47.4262 56.9303 48.0545 57.8223 49.0223 57.6183C49.8373 57.4463 50.3849 56.5743 50.9707 56.0103C50.8816 56.4023 50.7373 56.7743 50.5845 57.1543C50.5675 57.1983 50.6014 57.2543 50.6481 57.2623C51.183 57.3623 51.6627 57.1023 52.0914 56.8343C52.6857 56.4663 53.2503 56.0303 53.7936 55.6023C54.354 55.1623 54.8676 54.6823 55.3515 54.1743C55.0416 54.5663 54.7105 54.9463 54.3837 55.3223C53.5814 56.2383 52.8003 57.1583 52.0405 58.1063C50.4614 60.0823 48.9162 62.0784 47.9568 64.4024C47.7658 64.8624 47.2776 65.7304 47.7955 66.1464C48.0587 66.3544 48.4959 66.3464 48.8143 66.3424C49.3746 66.3304 49.9307 66.2024 50.4614 66.0384C52.6899 65.3464 54.6469 63.7944 56.4807 62.4584C58.5947 60.9263 60.4837 59.1343 62.2326 57.2423C63.0773 56.3263 63.8881 55.3823 64.6734 54.4223C65.4036 53.5263 66.2016 52.6383 66.6303 51.5742C67.3647 49.7462 66.8596 47.7022 66.0573 45.9782C65.8281 45.4822 65.5649 45.0022 65.2762 44.5342C66.4223 46.1022 67.2331 47.8782 67.6534 49.7502C67.9038 50.8822 68.0439 52.0503 67.9633 53.2063L67.976 53.2023ZM17.355 74.8545C17.3635 74.7745 17.3253 74.6945 17.2149 74.6705C16.8032 74.5865 16.349 74.5305 15.9287 74.6065C15.9032 74.6105 15.8778 74.6185 15.8523 74.6225C15.7971 74.6385 15.7419 74.6505 15.6868 74.6665H15.6825C15.5594 74.7025 15.4448 74.7585 15.3344 74.8225C14.825 75.1425 14.7868 75.8625 15.0288 76.3465C15.2708 76.8305 15.8481 77.0585 16.3235 76.6865C16.8414 76.2865 17.198 75.6265 17.4017 75.0305C17.4229 74.9745 17.4017 74.8945 17.355 74.8505V74.8545ZM27.3773 73.6385C27.3137 73.4025 27.1057 73.3265 26.8934 73.3665C26.851 73.3105 26.783 73.2785 26.6897 73.3145C25.8407 73.6345 25.2973 74.7945 25.2676 75.6345C25.2549 75.9745 25.5096 76.1545 25.8492 76.0865C26.3883 75.9785 26.7661 75.4225 27.0165 75.0105C27.2627 74.6185 27.5047 74.1025 27.3773 73.6385V73.6385ZM30.7606 72.5705C30.7181 72.5425 30.6629 72.5305 30.5992 72.5465C29.6908 72.8025 27.5896 76.1345 29.2196 76.2385C30.2554 76.3065 30.9176 74.7025 31.3294 74.0305C31.7242 73.3825 31.5586 72.3185 30.7648 72.5705H30.7606ZM35.0819 73.9625C34.9885 73.8785 34.8866 73.8545 34.789 73.8705C34.772 73.7545 34.6362 73.6465 34.4876 73.7105C33.6429 74.0905 33.8891 75.3465 34.1905 75.9905C34.3178 76.2625 34.6447 76.5225 34.9461 76.2825C35.3154 75.9905 35.3663 75.5065 35.3918 75.0825C35.413 74.7025 35.3918 74.2425 35.0819 73.9625V73.9625Z" fill="#8D7B63"/>
</g>
<g style="mix-blend-mode:multiply" opacity="0.3">
<path fill-rule="evenodd" clip-rule="evenodd" d="M67.662 54.9503C67.5176 55.4783 67.3478 56.0023 67.1823 56.5344C66.8342 57.6424 66.4309 58.6624 65.5437 59.4904C65.3867 59.6384 65.2211 59.7824 65.0556 59.9224C64.9197 60.1064 64.7796 60.2944 64.6481 60.4824C64.1769 61.1704 63.7099 61.8664 63.2387 62.5544C62.7973 63.1864 62.1435 63.6504 61.6511 64.2424C62.0077 64.1504 62.36 64.1704 62.6062 64.4704C62.9798 64.9184 63.0095 65.5865 62.984 66.1305C62.9543 66.7865 62.8779 67.4505 62.793 68.1025C62.6105 69.5345 62.1435 70.9065 61.6639 72.2705C61.4474 72.8865 61.3837 73.5625 60.9634 74.0986C60.8531 74.2386 60.7342 74.3706 60.6111 74.4986C60.6196 74.5226 60.6196 74.5506 60.5984 74.5786C59.8555 75.5866 58.8792 76.2626 57.6481 76.6546C56.277 77.0906 54.8422 77.2746 53.4159 77.4466C52.6179 77.5426 51.8198 77.6346 51.0345 77.7986C50.4275 77.9186 49.7908 78.0706 49.1625 78.0346C48.6531 78.0066 48.305 77.8026 48.0631 77.5066C47.3966 77.7026 46.7004 77.8586 46.1443 77.3666C46.0679 77.2986 45.9915 77.2266 45.9151 77.1546C45.3675 77.3626 44.7944 77.3826 44.2341 77.0466C43.5974 76.6626 42.7908 76.2786 42.4258 75.6186C42.0522 74.9426 42.1414 74.0745 42.4894 73.3025C41.9419 73.4225 41.4112 73.5865 40.8976 73.8345C40.2226 74.1586 39.5817 74.6026 38.8515 74.8186C37.7139 75.1546 36.4404 74.8146 35.3622 74.2906C35.4641 74.5906 35.5235 74.8986 35.5532 75.1786C35.6593 76.1226 35.5702 76.9706 34.9674 77.7706C33.9274 79.1586 31.6521 80.0786 29.9923 79.1266C29.9074 79.1826 29.8225 79.2426 29.7376 79.3026C29.3216 79.5986 28.8887 79.8426 28.3665 79.9426C27.8784 80.0346 27.5175 79.9706 27.2246 79.7786C26.7365 79.9426 26.2143 79.9626 25.7134 79.7306C25.0385 79.4186 24.4569 78.9426 24.0834 78.3226C23.7013 77.6826 23.8159 77.0546 24.1343 76.4226C24.3253 76.0426 24.5079 75.6706 24.7244 75.3186C24.355 75.2386 23.9942 75.1026 23.6376 74.9066C23.1367 74.6266 22.7038 74.2626 22.2453 73.9225C22.2708 74.3026 22.2665 74.6866 22.1434 75.0506C21.5237 76.9026 19.8554 78.4746 18.1107 79.4306C18.0725 79.4506 18.0343 79.4426 18.0173 79.4146C17.5716 79.5866 17.0919 79.6786 16.6038 79.6506C16.0562 79.6186 15.4576 79.4346 15.0077 79.1066C14.4601 79.2186 13.6705 79.0746 13.3394 78.9946C13.1824 78.9586 13.055 78.9026 12.9446 78.8386C12.3801 79.1266 11.7348 79.2906 11.1957 79.0426C10.3467 78.6546 9.87129 77.8066 9.68876 76.9626C9.55292 76.3266 9.485 75.5386 9.6548 74.8586C9.59113 75.2386 9.59112 75.6266 9.68027 76.0026C9.81611 76.5826 10.1642 77.3866 10.8816 77.4626C11.6117 77.5386 11.5438 76.5506 11.5056 76.1266C11.4674 75.7146 11.3698 75.3106 11.3782 74.8906C11.3867 74.3546 11.6117 73.8625 11.8664 73.3905C11.9216 73.3905 11.981 73.3945 12.0362 73.3985C11.8409 73.9946 11.7476 74.6226 11.7433 75.2426C11.7391 75.7866 11.8325 76.3346 12.032 76.8466C12.1593 77.1746 12.4268 77.7226 12.8343 77.8106C13.904 78.0466 13.8106 76.4106 13.7979 75.8546C13.7766 74.9986 14.4431 73.1345 15.6954 73.6785C15.7633 73.7105 15.827 73.6585 15.8397 73.6065C15.9119 73.6705 15.9883 73.7305 16.0604 73.7985C16.192 73.5505 16.2727 73.2785 16.4467 73.0625C16.2557 72.7585 16.0604 72.4585 15.8482 72.1745C15.8354 72.1545 15.8227 72.1425 15.81 72.1265C16.2599 72.3625 16.7057 72.6065 17.1556 72.8465C17.5207 73.0465 17.9452 73.0825 18.3527 73.1305C19.0489 73.2145 19.7196 73.2945 20.3393 73.6305C20.403 73.6665 20.5134 73.6025 20.4752 73.5305C19.813 72.0505 19.953 70.3025 19.0319 68.9145C18.1532 67.5825 15.8227 67.8425 15.4109 66.1545C15.3812 66.0385 15.2157 66.0905 15.2284 66.1985C15.2539 66.3825 15.2624 66.5425 15.2496 66.7145C15.135 66.5705 15.0289 66.4225 14.9313 66.2665C14.8803 66.1905 14.7572 66.2225 14.7572 66.3105C14.7572 66.4825 14.7572 66.6505 14.7402 66.8225C14.3752 66.3025 14.1417 65.6945 13.7215 65.2065C13.3309 64.7544 12.7791 64.4544 12.2824 64.1144C11.7136 63.7224 10.4783 62.8064 9.95619 63.7224C9.58264 64.3824 9.92223 65.3505 10.2066 66.0665C10.0029 65.6745 9.81611 65.2745 9.63782 64.8825C9.17937 63.8664 8.73789 62.8184 8.47471 61.7384C8.25397 61.6304 8.04172 61.5224 7.82523 61.4064C7.09085 61.0104 6.36073 60.5624 5.75794 59.9944C4.87075 59.1664 4.52266 58.0744 4.58633 56.9424C4.47597 57.1544 4.39107 57.3744 4.31466 57.6184C4.32739 57.6904 4.34013 57.7624 4.34438 57.8344C4.34862 57.9024 4.25523 57.9144 4.22976 57.8584C4.22127 57.8384 4.21278 57.8144 4.20005 57.7944C4.18731 57.7944 4.17882 57.7864 4.17457 57.7704C4.16608 57.7544 4.16608 57.7384 4.16184 57.7184C3.97082 57.3184 3.818 56.8984 3.61424 56.5024C3.46143 56.1943 3.25767 55.8903 3.18975 55.5503C3.16428 55.4303 3.16003 55.3023 3.16852 55.1823C3.38926 55.8263 3.74159 56.4104 4.17033 56.9704C4.20854 57.0264 4.29344 57.0344 4.33164 56.9704C4.70095 56.4264 5.08724 55.8943 5.51598 55.3983C5.14667 56.0623 4.79009 56.7864 4.91744 57.5064C5.1212 58.6544 6.20791 59.1664 7.17151 59.7104C8.34312 60.3664 9.47227 61.1864 10.5208 62.0064C11.4334 62.7184 12.3334 63.4784 13.4413 63.9064C13.4752 63.9184 13.5304 63.8984 13.5474 63.8664C13.8318 63.2384 13.7427 62.5544 13.8446 61.8944C13.9889 62.5144 14.1842 63.1464 14.5195 63.6904C14.8591 64.2384 15.3982 64.6624 15.9203 65.0584C16.1793 65.5265 16.4297 65.9585 16.8924 66.3145C17.491 66.7705 18.2041 67.0785 18.9088 67.3505C19.7323 67.6665 20.5983 67.8585 21.4091 68.1985C22.1901 68.5265 22.9118 68.9665 23.6971 69.2865C23.748 69.3065 23.8202 69.2945 23.8329 69.2345C23.9688 68.6625 24.7795 68.3345 25.2804 68.1025C25.8662 67.8305 26.4775 67.6265 27.0633 67.3665C27.9166 66.9825 28.7698 66.5745 29.4999 66.0065C30.1706 65.4825 30.5399 64.6744 30.9559 63.9584C31.0238 64.4304 30.8965 64.8944 30.7819 65.3585C30.7607 65.4385 30.8456 65.4945 30.9177 65.4585C32.2846 64.8264 33.643 64.1664 34.9462 63.4264C35.4046 63.1704 35.8673 62.9064 36.2876 62.5944C37.7436 62.0944 38.4822 60.7264 39.5053 59.6904C38.5459 61.8264 37.6205 64.0784 35.757 65.6745C34.4623 66.7905 32.7388 67.3545 31.4399 68.4785C30.9644 68.8905 30.5145 69.4305 30.5442 70.0705C30.5824 70.8505 31.3804 71.6145 32.0893 71.9145C32.4502 72.0665 32.8534 72.0185 33.2058 71.8705C33.8128 71.6185 34.3816 71.2625 34.9547 70.9505C36.1348 70.3065 37.2936 69.6265 38.4228 68.9025C39.7769 68.0345 41.0801 67.0865 42.2984 66.0545C42.8927 65.5465 43.4573 65.0104 44.0176 64.4664C44.5228 63.9784 45.0534 63.5104 45.4269 62.9224C45.7835 62.3664 45.809 61.7344 45.758 61.1064C45.7241 60.6904 45.6477 60.2784 45.5925 59.8624C45.5373 59.4344 45.5501 58.9904 45.5161 58.5584C45.4694 57.9664 45.3633 57.3704 45.2741 56.7784C45.1977 56.2864 45.1086 55.7343 44.769 55.3383C44.735 55.2943 44.6714 55.3103 44.6374 55.3383C43.5974 56.1224 42.6677 57.0304 41.5343 57.6944C42.2687 56.1824 43.5379 54.8503 43.7842 53.1623C44.0006 51.6903 43.3002 50.0583 42.0692 49.1063C42.5319 49.1943 42.9691 49.3863 43.4403 49.4783C43.521 49.4943 43.5889 49.4183 43.5464 49.3503C42.9309 48.2863 41.4325 48.1223 40.2693 47.8143C42.2899 47.4663 44.1832 48.8543 45.0449 50.5303C44.5864 50.1863 44.1535 49.8023 43.5549 49.7183C43.4615 49.7063 43.3936 49.7943 43.4615 49.8663C43.6483 50.0663 43.8096 50.2783 43.9539 50.4943C44.2086 51.5623 44.7138 52.5783 44.6798 53.6903C44.6798 53.7303 44.7096 53.7663 44.752 53.7743C46.1528 54.1903 46.1741 56.0544 46.242 57.1744C46.3057 58.2824 46.1528 59.7904 46.8872 60.7424C46.9169 60.7784 46.9679 60.7984 47.0146 60.7704C47.9654 60.2024 48.7125 59.4024 49.4851 58.6304C48.1947 60.4984 47.2268 62.5024 46.2844 64.5584C45.7708 65.6745 45.2869 66.8145 45.1043 68.0265C44.994 68.7665 44.9855 69.6145 45.5161 70.2265C46.4967 71.3545 48.3729 71.4345 49.795 71.4785C52.0576 71.5505 54.3668 71.6345 56.6209 71.4345C57.7797 71.3345 58.9259 71.1145 60.0126 70.7345C58.7688 71.7025 57.1939 72.1865 55.6275 72.5065C55.5426 72.5265 55.5342 72.6625 55.6275 72.6785C56.2728 72.7665 56.918 72.7825 57.5463 72.6745C56.5572 73.1025 55.4535 73.1225 54.3541 72.9745C53.2164 72.8185 52.1297 72.4305 50.9836 72.3385C49.9351 72.2545 49.0861 72.6745 48.6404 73.5785C48.3008 74.2706 48.5385 75.1426 49.3705 75.3666C49.812 75.4866 50.4148 75.3306 50.8647 75.3106C51.5821 75.2706 52.2995 75.1946 53.0127 75.1026C54.3328 74.9346 55.6488 74.6986 56.9605 74.4946C58.0132 74.3306 59.1339 74.0786 59.9829 73.4345C60.8064 72.8105 61.3115 71.9345 61.6596 71.0105C62.1351 69.7505 62.2794 68.3865 62.377 67.0585C62.3982 66.7785 62.7548 64.6864 61.8931 65.1105C61.4813 65.3145 61.1672 65.6865 60.8616 66.0025C60.3776 66.4985 59.8683 66.9665 59.3249 67.4025C58.1278 68.3625 56.7567 69.0985 55.2964 69.6305C56.7822 68.4145 58.217 67.1465 59.5499 65.7825C60.9125 64.3944 62.1096 62.8744 63.3194 61.3664C64.9282 59.3624 66.5498 57.2464 67.6365 54.9263L67.662 54.9503ZM18.3569 74.8986C17.5164 74.6066 16.4849 74.2506 15.6062 74.6106C14.6638 75.0026 14.5917 76.3306 14.8718 77.1186C15.1435 77.8906 15.9034 78.4266 16.4892 77.5906C17.1089 76.6986 16.7311 75.1586 18.2381 75.0746C18.2551 75.0746 18.2678 75.0666 18.2805 75.0626C18.289 75.0666 18.2975 75.0666 18.306 75.0706C18.4206 75.1066 18.4673 74.9386 18.3569 74.8986V74.8986ZM27.2374 73.4385C26.452 72.8665 25.7262 73.9585 25.3908 74.5226C24.9621 75.2346 24.3126 76.3746 24.631 77.2146C24.7965 77.6586 25.3399 77.7266 25.7474 77.5626C26.278 77.3466 26.5369 76.6786 26.7365 76.2186C26.9954 75.6266 28.3241 73.8625 27.2374 73.4345V73.4385ZM31.6564 72.9185C31.5799 72.7265 31.3889 72.5865 31.1724 72.5625C30.9729 72.5465 30.8074 72.5705 30.6588 72.6225C30.6376 72.5945 30.6036 72.5785 30.5612 72.5905C29.0075 73.0665 28.3326 74.7466 27.9335 76.1066C27.785 76.6146 27.5812 77.3266 27.8232 77.8346C28.0354 78.2866 28.6127 78.3146 29.0457 78.1186C29.674 77.8346 30.1027 77.2586 30.4465 76.7066C30.8625 76.0506 31.1682 75.3346 31.4271 74.6186C31.6097 74.1026 31.8644 73.4585 31.6564 72.9185V72.9185ZM34.9165 73.7585C34.8995 73.7305 34.874 73.7105 34.8358 73.7065C34.3476 73.6785 33.9741 73.8865 33.7151 74.2706C33.3925 74.7546 33.5411 75.4066 33.5708 75.9346C33.5878 76.2346 33.5623 76.5226 33.5241 76.8186C33.5029 76.9706 33.4562 77.1826 33.5453 77.3226C33.7364 77.6386 34.1948 77.5626 34.4835 77.4186C35.2518 77.0466 35.3792 75.8746 35.4089 75.1666C35.4259 74.7546 35.4089 73.8825 34.9122 73.7585H34.9165ZM45.8981 72.1025C45.9109 72.0945 45.9194 72.0825 45.9279 72.0705C46.0128 72.0945 46.0807 71.9665 45.9915 71.9065C45.3421 71.4465 44.561 71.3465 43.903 71.8625C43.2832 72.3465 42.6805 73.1305 42.7781 73.9306C42.8545 74.5666 43.4615 74.5746 43.9412 74.3106C44.8411 73.8145 45.0746 72.6945 45.8981 72.1065V72.1025ZM48.5427 72.6745C48.5343 72.6665 48.5215 72.6585 48.513 72.6505C48.5003 72.6345 48.4833 72.6225 48.4621 72.6145C47.8975 72.2065 46.9764 71.9545 46.3608 72.3385C45.7283 72.7385 45.3548 73.7545 45.2062 74.4306C45.0322 75.2106 45.792 75.2266 46.3396 74.9386C47.2056 74.4786 47.906 73.5905 48.4494 72.8185C48.53 72.8345 48.6149 72.7345 48.5342 72.6745H48.5427Z" fill="#8D7B63"/>
</g>
<g style="mix-blend-mode:multiply" opacity="0.3">
<path fill-rule="evenodd" clip-rule="evenodd" d="M42.4045 73.3345C41.8866 73.4545 41.3815 73.6145 40.8933 73.8465C40.2184 74.1705 39.5774 74.6145 38.8473 74.8305C37.8837 75.1145 36.8182 74.9145 35.8588 74.5265C35.6636 74.3745 35.4641 74.2305 35.2603 74.0865C35.1839 73.9225 35.0735 73.7985 34.9122 73.7585C34.8952 73.7305 34.8698 73.7105 34.8316 73.7065C34.4495 73.6825 34.1354 73.8105 33.8934 74.0465C33.6005 74.1945 33.3076 74.3505 33.0275 74.5185C32.4714 74.8505 32.5945 75.3225 32.6624 75.8585C32.7855 76.7745 32.2252 77.4905 31.563 78.0865C31.4271 78.2105 30.7225 78.6385 30.9644 78.9065C31.2913 79.2705 31.9492 79.2265 32.3907 79.1265C33.0699 78.9785 33.7576 78.5705 34.3307 78.2025C34.6702 77.9865 34.9674 77.7185 35.2009 77.4185C35.1329 77.5385 35.0523 77.6625 34.9631 77.7865C33.9231 79.1745 31.6478 80.0945 29.9881 79.1425C29.9032 79.1985 29.8183 79.2585 29.7334 79.3185C29.3174 79.6145 28.8844 79.8585 28.3623 79.9585C27.8741 80.0505 27.5133 79.9865 27.2204 79.7945C26.7322 79.9585 26.2101 79.9785 25.7092 79.7465C25.0342 79.4345 24.4527 78.9585 24.0791 78.3385C23.6971 77.6985 23.8117 77.0705 24.13 76.4385C24.3211 76.0585 24.5036 75.6865 24.7201 75.3345C24.3508 75.2545 23.99 75.1185 23.6334 74.9225C23.1325 74.6425 22.6995 74.2785 22.2411 73.9385C22.2538 74.1305 22.258 74.3225 22.2453 74.5145C22.2283 74.3545 22.2071 74.2025 22.1901 74.0705C22.1222 73.5305 22.0161 72.9945 21.893 72.4665C21.7826 71.9745 21.685 71.4824 21.5703 70.9904C21.4854 70.6264 21.5449 70.2544 21.4642 69.8984C21.3496 69.4024 20.8445 69.1824 20.3945 68.9904C19.6729 68.6824 18.9385 68.4184 18.2253 68.1024C17.4315 67.7464 16.6335 67.4144 16.0307 66.7984C15.6274 66.3904 15.2963 65.8784 15.135 65.3264C15.2836 65.6464 15.4619 65.9544 15.6953 66.2184C16.2302 66.8264 16.9518 67.1984 17.7159 67.4984C18.5395 67.8224 19.4012 68.0504 20.2374 68.3384C21.1416 68.6464 22.2538 69.0464 22.7759 69.8424C23.0306 70.2304 23.3108 70.2264 23.6971 69.9784C23.9772 69.7984 24.2065 69.5624 24.4866 69.3784C24.8687 69.1264 25.3823 68.9824 25.811 68.8064C26.677 68.4504 27.5854 68.1624 28.4174 67.7384C29.1136 67.3824 29.5763 66.7184 30.1366 66.1984C30.1154 66.5104 30.005 66.8104 29.9201 67.1184C29.9032 67.1824 29.9584 67.2264 30.0135 67.2264C30.0348 67.2344 30.0645 67.2344 30.09 67.2184C31.0536 66.6344 31.979 65.9904 32.9298 65.3864C33.8085 64.8304 34.7424 64.4024 35.6508 63.8944C36.6526 63.3304 37.5059 62.6143 38.1554 61.7383C37.837 62.4103 37.4252 63.0224 36.8224 63.5304C36.0074 64.2184 34.9674 64.6464 34.0335 65.1584C33.0869 65.6744 32.1742 66.2144 31.2743 66.7904C30.7182 67.1464 30.09 67.4744 29.6655 67.9744C29.6909 67.7384 29.7249 67.4984 29.7334 67.2584C29.7376 67.1784 29.6315 67.1424 29.5721 67.1984C29.1646 67.5744 28.6509 67.9264 28.4896 68.4704C28.4472 68.6144 28.5193 68.7544 28.583 68.8784C28.757 69.2064 28.9438 69.5144 29.0542 69.8704C29.2495 70.5184 28.9268 71.2064 28.7103 71.8144C28.4769 72.4625 28.2137 73.1345 27.7595 73.6745C27.4878 73.4625 27.1609 73.2665 26.868 73.2945C26.2313 73.2105 25.6667 74.0545 25.3865 74.5305C25.2507 74.7585 25.0894 75.0305 24.9451 75.3185C24.4102 75.9945 23.8371 76.6505 23.956 77.5585C24.0451 78.2505 25.0003 78.8825 25.637 79.1145C26.6813 79.4945 26.1676 78.2225 26.295 77.7385C26.486 77.0105 26.9147 76.2865 27.2331 75.5945C27.3817 75.2705 27.5387 74.9905 27.7637 74.7065C27.8996 74.5385 28.0099 74.3825 28.0566 74.1905C28.1373 74.2545 28.2561 74.1385 28.1797 74.0585C28.1118 73.9905 28.0312 73.9065 27.9378 73.8225C28.4514 73.8945 28.9565 73.3505 29.3004 73.0585C29.9753 72.4905 31.0705 71.9585 31.8304 72.7105C32.0936 72.9745 32.1487 73.3545 32.4544 73.5945C32.7133 73.7985 33.0911 73.7825 33.401 73.7505C34.3349 73.6505 35.3749 73.3345 36.1857 72.8945C38.0832 71.8625 39.7939 70.4104 41.4155 69.0384C43.0243 67.6824 44.5779 66.2544 45.6689 64.4784C45.6986 64.4304 45.6731 64.3824 45.6349 64.3624C45.9745 63.8464 46.2462 63.2984 46.382 62.7023C46.5731 61.8583 46.3396 60.8743 46.2165 60.0383C45.9236 58.1103 45.5925 56.1343 44.735 54.3463C45.5034 55.1223 45.7411 56.3463 45.9321 57.3463C46.0764 58.1143 46.242 58.8823 46.4033 59.6503C46.5518 60.3583 46.5349 61.0863 46.7811 61.7823C46.8023 61.8503 46.883 61.8623 46.9381 61.8223C47.2438 61.5983 47.5112 61.3383 47.7574 61.0583C46.607 62.7223 45.6477 64.5144 45.0194 66.4144C44.7393 67.2664 44.5185 68.1464 44.4973 69.0384C44.4846 69.4904 44.5058 70.0704 44.7647 70.4864C44.7138 70.5184 44.6968 70.5984 44.7647 70.6384C45.0067 70.7864 45.185 71.0024 45.4184 71.1664C45.6137 71.3064 45.8472 71.4184 46.0764 71.5024C46.6325 71.6984 47.2056 71.7705 47.7914 71.8385C49.3026 72.0145 50.8265 72.0825 52.3462 72.0945C53.9763 72.1065 55.5936 71.9945 57.16 71.6744C56.7822 71.7985 56.3959 71.9105 55.9926 71.9825C55.4705 72.0745 54.9356 72.2105 54.405 72.2345C54.006 72.2545 53.6112 72.2145 53.2207 72.3065C53.1358 72.3265 53.1358 72.4265 53.1994 72.4705C53.6749 72.7905 54.2607 72.9505 54.8592 73.0625C54.7021 73.0465 54.5451 73.0305 54.3838 73.0105C53.2461 72.8545 52.1594 72.4665 51.0133 72.3745C50.7925 72.3545 50.5761 72.3625 50.3765 72.3905C49.0436 72.3345 47.7871 72.2585 46.5094 71.8344C46.1825 71.7264 45.8769 71.6104 45.5967 71.4144C45.4185 71.2904 45.2402 71.1304 45.0322 71.0544C44.6416 70.9104 44.2341 71.1184 43.9285 71.3464C43.2323 71.8704 42.7908 72.6025 42.4088 73.3545L42.4045 73.3345ZM32.2973 74.4625C32.2124 73.8825 32.0808 73.3665 31.6776 72.9905C31.6733 72.9665 31.6606 72.9425 31.6563 72.9185C31.5799 72.7265 31.3889 72.5865 31.1724 72.5625C30.9729 72.5465 30.8073 72.5705 30.6588 72.6225C30.6376 72.5945 30.6036 72.5785 30.5611 72.5905C30.5526 72.5945 30.5442 72.5985 30.5357 72.6025C30.5102 72.5865 30.4805 72.5825 30.4465 72.6025C30.3998 72.6305 30.3489 72.6585 30.298 72.6905C29.9966 72.8185 29.7334 72.9945 29.4999 73.2025C29.1094 73.4785 28.7443 73.7865 28.4472 74.1545C27.8911 74.8345 27.509 75.6625 27.1822 76.4585C26.9105 77.1185 26.6728 77.9865 27.0336 78.6585C27.3435 79.2345 27.8698 79.5465 28.5575 79.4785C29.2877 79.4065 29.9711 78.9785 30.5357 78.5665C31.0833 78.1705 31.5884 77.7025 31.9832 77.1705C32.5732 76.3625 32.4332 75.3745 32.3016 74.4665L32.2973 74.4625Z" fill="#8D7B63"/>
</g>
<g style="mix-blend-mode:multiply" opacity="0.3">
<path d="M61.7105 64.1744C61.6893 64.1944 61.668 64.2184 61.6468 64.2424C61.8124 64.1984 61.9737 64.1824 62.1265 64.2064C61.5789 64.5584 61.095 65.0904 60.7172 65.4985C59.5668 66.7465 58.2848 67.9945 56.7991 68.8985C58.3739 67.2665 60.1356 65.8025 61.7062 64.1744H61.7105Z" fill="#8D7B63"/>
</g>
<g style="mix-blend-mode:multiply" opacity="0.3">
<path d="M60.9635 74.1025C60.8531 74.2425 60.7342 74.3745 60.6111 74.5025C60.6196 74.5265 60.6196 74.5545 60.5984 74.5825C59.8555 75.5905 58.8792 76.2665 57.6482 76.6586C56.2771 77.0946 54.8423 77.2786 53.416 77.4506C52.6179 77.5466 51.8199 77.6386 51.0346 77.8026C50.4275 77.9226 49.7908 78.0746 49.1625 78.0386C48.6531 78.0106 48.3051 77.8066 48.0631 77.5106C47.3966 77.7066 46.7005 77.8626 46.1444 77.3706C46.068 77.3026 45.9916 77.2306 45.9151 77.1586C45.3676 77.3666 44.7945 77.3866 44.2341 77.0506C43.5974 76.6666 42.7909 76.2826 42.4258 75.6225C42.2687 75.3385 42.1923 75.0185 42.1838 74.6865C42.29 75.1625 42.5489 75.5665 43.0286 75.9465C43.6696 76.4466 44.5101 76.9666 45.2911 76.4226C45.3336 76.3946 45.3548 76.3426 45.3251 76.3026C45.0407 75.8905 44.7138 75.4745 44.6799 74.9705C44.6502 74.5505 44.9388 74.1585 45.1256 73.7945C45.3718 73.3185 45.8642 72.1025 46.5561 72.1345C46.6156 72.1385 46.6453 72.0985 46.6453 72.0545C46.7556 72.0865 46.8703 72.1145 46.9764 72.1425C46.7556 72.1585 46.5476 72.2105 46.3651 72.3265C45.9151 72.6105 45.5968 73.2105 45.3973 73.7745C44.5355 74.8065 45.6053 76.5066 46.8023 76.9386C47.7235 77.2666 47.7447 76.2146 47.698 75.6185C47.6471 74.9505 47.6471 74.3865 47.9782 73.7745C48.1862 73.3825 48.5046 72.8945 48.9418 72.6945C48.0037 73.4145 47.7999 74.9385 48.1055 75.9585C48.2838 76.5426 48.6319 77.2226 49.3408 77.3146C49.7483 77.3706 50.1771 77.2946 50.5803 77.2306C51.1619 77.1386 51.7477 77.0786 52.3335 76.9986C53.5178 76.8426 54.6894 76.6106 55.8611 76.3866C56.9138 76.1826 57.992 75.9905 58.9429 75.4985C59.7494 75.0825 60.4371 74.5025 61.0951 73.8985C61.0569 73.9665 61.0102 74.0345 60.9592 74.0985L60.9635 74.1025Z" fill="#8D7B63"/>
</g>
<g style="mix-blend-mode:multiply" opacity="0.3">
<path d="M19.8216 75.0785C19.3759 75.1185 18.892 75.0785 18.4208 74.9905C18.4208 74.9545 18.4038 74.9145 18.3571 74.8985C17.9369 74.7545 17.4699 74.5905 16.9945 74.5105C16.744 74.3785 16.5403 74.1985 16.3535 73.9904C16.362 73.9504 16.345 73.9025 16.2941 73.8825C16.2813 73.8785 16.2686 73.8785 16.2559 73.8745C16.2092 73.8184 16.1667 73.7624 16.1243 73.7024C16.2219 73.4904 16.3026 73.2624 16.4554 73.0784C16.2898 72.8144 16.12 72.5544 15.9375 72.3024C16.6507 72.8304 17.3935 73.3184 18.1661 73.7744C17.5888 73.5784 17.003 73.5024 16.7483 73.9224C16.7313 73.9584 16.7355 74.0025 16.7653 74.0305C17.1091 74.3385 17.5548 74.4225 18.0005 74.5225C18.6246 74.6665 19.2273 74.8545 19.8259 75.0785H19.8216Z" fill="#8D7B63"/>
</g>
<g style="mix-blend-mode:multiply" opacity="0.3">
<path d="M21.6933 76.0745C20.8995 77.4826 19.5369 78.6666 18.1233 79.4426C18.0851 79.4626 18.0469 79.4546 18.0299 79.4266C17.5842 79.5986 17.1045 79.6906 16.6164 79.6626C16.0688 79.6306 15.4702 79.4466 15.0203 79.1186C14.4727 79.2306 13.6831 79.0866 13.352 79.0066C13.1949 78.9706 13.0676 78.9146 12.9572 78.8506C12.3926 79.1386 11.7474 79.3026 11.2083 79.0546C10.6989 78.8186 10.3211 78.4226 10.0664 77.9586C10.6607 78.6106 11.5054 79.0706 12.3205 78.5266C12.3629 78.4946 12.3799 78.4506 12.3544 78.4026C11.6583 77.1025 11.4757 75.7305 11.8323 74.3785C11.7899 74.6705 11.7644 74.9665 11.7644 75.2585C11.7601 75.8025 11.8535 76.3505 12.053 76.8626C12.0743 76.9186 12.104 76.9866 12.1337 77.0546C12.3841 78.0106 13.1058 78.7626 14.3665 78.5386C14.4047 78.5306 14.4387 78.4906 14.4345 78.4506C14.3283 77.4586 14.1288 76.3705 14.358 75.3865C14.5448 74.5865 15.2495 73.7865 16.1749 74.0425C16.3107 74.1985 16.455 74.3465 16.6206 74.4705C16.5994 74.4705 16.5782 74.4705 16.5569 74.4705C16.0942 74.3705 15.7801 74.2705 15.3216 74.5785C14.9141 74.8505 14.6552 75.2665 14.5873 75.7305C14.5066 76.2865 14.6255 76.9145 14.7104 77.4666C14.791 77.9666 14.9269 78.3466 15.432 78.5586C15.9541 78.7786 16.5315 78.9506 17.1045 78.9466C17.7243 78.9466 18.2719 78.6186 18.7558 78.2946C19.7746 77.6026 20.7637 76.8745 21.6933 76.0785V76.0745Z" fill="#8D7B63"/>
</g>
<path d="M65.9722 47.7382C65.1232 46.8382 64.5204 45.7142 63.7564 44.7462C63.0092 43.7982 62.2027 42.8662 61.3155 42.0341C59.6388 40.4621 57.6012 39.1901 55.5212 38.1461C53.4157 37.0901 51.03 35.9021 48.6231 35.6501C47.494 35.5301 46.3181 35.5741 45.2144 35.8341C44.1405 36.0901 43.1005 36.5901 42.0902 37.0021C41.9883 37.0461 41.9204 36.9061 42.0053 36.8461C43.8858 35.4541 46.2205 34.1821 48.6953 34.2581C51.1361 34.3301 53.802 35.5621 55.8777 36.6941C58.1827 37.9501 60.3095 39.4781 62.0584 41.3861C62.9838 42.3942 63.7776 43.4822 64.5204 44.6142C65.1444 45.5662 65.8788 46.5342 66.2991 47.5782C66.3797 47.7742 66.108 47.8742 65.9765 47.7342L65.9722 47.7382Z" fill="#D1D1D1"/>
<path d="M70.417 48.2543C70.2217 48.4703 69.8482 48.4823 69.5977 48.6503C69.3473 48.8223 69.1138 49.0143 68.8591 49.1863C68.7785 49.2423 68.6681 49.1343 68.736 49.0583C69.0756 48.7023 69.776 47.8782 70.3661 48.0543C70.451 48.0783 70.4637 48.1983 70.417 48.2543V48.2543Z" fill="#D1D1D1"/>
<path d="M73.6985 50.1542C72.3995 49.4782 71.0793 48.9902 69.5681 49.2902C69.5045 49.3062 69.4663 49.2062 69.5214 49.1782C70.9477 48.4342 72.9004 48.5982 73.8428 49.9902C73.9022 50.0742 73.8046 50.2102 73.6985 50.1542Z" fill="#D1D1D1"/>
<path d="M74.1015 54.7223C74.0845 54.7663 74.0124 54.7423 74.0166 54.6983C74.318 52.8423 73.1676 51.3823 71.2956 50.9063C71.181 50.8783 71.2064 50.7183 71.3253 50.7343C72.3314 50.8783 73.2992 50.8463 73.8765 51.7943C74.4284 52.7103 74.5048 53.7383 74.1015 54.7223V54.7223Z" fill="#D1D1D1"/>
<path d="M58.6414 52.8263C54.7955 56.2703 52.4098 60.7623 49.069 64.5984C48.9926 64.6824 48.8653 64.5984 48.9035 64.4984C49.8543 62.0904 51.4547 59.9663 53.1017 57.9303C54.6511 56.0183 56.4765 54.1583 58.4928 52.6743C58.5862 52.6022 58.7263 52.7422 58.6414 52.8223V52.8263Z" fill="#D1D1D1"/>
<path d="M40.3543 46.7902C38.928 46.3582 37.7437 46.4542 36.3259 46.8742C36.2495 46.8982 36.2028 46.8062 36.2665 46.7622C37.6545 45.7342 39.0766 45.4342 40.5453 46.5062C40.7194 46.6342 40.5369 46.8462 40.3543 46.7902V46.7902Z" fill="#D1D1D1"/>
<path d="M40.5963 47.6782C40.1591 47.6262 39.7346 47.5782 39.3016 47.6982C39.0002 47.7782 38.6988 47.8702 38.4017 47.9582C38.304 47.9862 38.2149 47.8422 38.3125 47.7942C39.0299 47.4422 39.8874 47.0582 40.6642 47.4862C40.7661 47.5422 40.7279 47.6902 40.6006 47.6742L40.5963 47.6782Z" fill="#D1D1D1"/>
<path d="M39.0762 48.5742C40.4048 48.0382 41.5255 48.2822 42.6759 49.0462C42.7608 49.1022 42.6844 49.2102 42.5995 49.1982C42.3023 49.1742 42.0052 49.1222 41.7038 49.0622C42.2854 49.4622 42.6759 50.1342 42.7905 50.8582C42.8839 51.4902 42.8032 52.1622 42.591 52.8142C42.5952 52.6462 42.5995 52.4862 42.5952 52.3222C42.591 51.0222 42.0646 50.0342 41.1986 49.3942C41.0161 49.2342 40.8124 49.1022 40.5746 49.0142C40.4133 48.9382 40.2478 48.8702 40.0737 48.8102C40.0737 48.8022 40.0737 48.7982 40.078 48.7902C40.0568 48.7902 40.0313 48.7902 40.0101 48.7862C39.7172 48.6902 39.403 48.6222 39.0762 48.5742V48.5742Z" fill="#D1D1D1"/>
<path d="M35.6975 50.3743C36.6696 51.2823 37.387 52.4103 37.3785 53.7463C37.3743 54.3503 37.2936 54.9943 37.145 55.6263C37.1408 55.1263 37.0983 54.6303 37.0262 54.1343C36.8521 52.9263 36.4361 51.4743 35.6975 50.3783V50.3743Z" fill="#D1D1D1"/>
<path d="M33.8082 56.3223C33.8379 55.7103 33.787 55.1223 33.6681 54.5623C33.0526 55.0543 32.3777 55.3703 31.5542 55.4063C31.4862 55.4103 31.4778 55.3143 31.5457 55.3063C32.2885 55.1903 32.9974 54.7983 33.4559 54.2303C33.4856 54.1863 33.5281 54.1663 33.5663 54.1583C33.3837 53.5063 33.1036 52.8863 32.7428 52.2903C33.613 53.0383 34.2115 54.0383 34.203 55.1863C34.203 55.7423 34.029 56.2783 33.77 56.7863C33.7828 56.6303 33.7955 56.4783 33.804 56.3223H33.8082Z" fill="#D1D1D1"/>
<path d="M30.4252 58.0424C30.1832 58.8144 29.4319 59.4904 28.8843 60.0904C29.0923 59.7184 29.279 59.3384 29.4361 58.9384C29.6186 58.4864 29.7035 58.0424 29.7205 57.6144C29.695 57.5944 29.6696 57.5744 29.6568 57.5424C29.538 57.3224 29.5719 57.0463 29.4998 56.8103C29.4234 56.5583 29.313 56.2943 29.139 56.0903C29.1177 56.0663 29.1559 56.0303 29.1814 56.0543C29.3342 56.1823 29.521 56.3463 29.6823 56.5343C29.6356 56.1503 29.5125 55.7823 29.3342 55.4263C29.1941 55.0263 29.0328 54.6263 28.863 54.2263C30.0983 55.1783 30.9091 56.4903 30.4252 58.0424V58.0424Z" fill="#D1D1D1"/>
<path d="M27.301 60.6224C26.7364 61.6704 26.0657 62.6144 25.0554 63.3344C24.9493 63.4144 24.8432 63.2744 24.9026 63.1824C25.5563 62.2264 26.4945 61.4824 27.1906 60.5584C27.2331 60.5024 27.335 60.5624 27.301 60.6224V60.6224Z" fill="#D1D1D1"/>
<path d="M17.2831 60.1584C16.4129 59.6024 15.6361 58.8223 15.271 57.8823C14.906 56.9503 15.5682 55.9583 15.6319 55.0343C15.6446 54.8463 15.963 54.8663 15.9757 55.0463C16.0394 55.9023 15.6106 56.8463 15.8781 57.6783C16.1837 58.6263 16.7398 59.2623 17.4445 59.9784C17.5548 60.0904 17.4232 60.2504 17.2831 60.1624V60.1584Z" fill="#D1D1D1"/>
<path d="M13.1147 55.6263C12.3421 55.6863 11.3148 55.7183 10.6441 55.3103C10.3979 55.1583 9.79089 54.7223 9.45978 54.9983C9.273 55.1463 9.1499 55.3223 8.98859 55.4903C8.85275 55.6343 8.67446 55.8503 8.46646 55.8943C8.33486 55.9223 8.22025 55.9303 8.11838 55.9223C8.13535 55.9423 8.14809 55.9583 8.16507 55.9783C8.55985 56.3903 8.90369 56.8543 9.25177 57.2983C9.31545 57.3823 9.19234 57.4903 9.11169 57.4223C8.52589 56.9343 7.74482 56.6663 7.31608 56.0103C7.25665 55.9183 7.20571 55.8263 7.15901 55.7303C6.17419 54.8943 7.68115 53.0663 8.30515 52.4223C8.35609 52.3663 8.45797 52.4223 8.42401 52.4903C8.23723 52.8703 7.96556 53.3223 7.75331 53.7983C7.75331 53.8023 7.75331 53.8063 7.75331 53.8063C7.8 54.0423 7.80849 55.7583 8.49618 55.2423C8.76785 55.0383 9.11593 54.6463 9.49373 54.6263C10.0031 54.5983 10.3809 54.8063 10.8097 55.0543C11.561 55.4903 12.2657 55.4783 13.1189 55.5463C13.1656 55.5463 13.1614 55.6183 13.1147 55.6223V55.6263Z" fill="#D1D1D1"/>
<path d="M7.62571 50.9143C7.26913 51.5223 6.64937 51.9103 6.1994 52.4463C5.64756 53.1023 5.43531 53.9183 5.1127 54.6743C5.08298 54.7423 4.96837 54.7103 4.98535 54.6383C5.16788 53.9023 5.18061 52.9543 5.67303 52.3223C6.14846 51.7063 6.82766 51.2183 7.50685 50.8143C7.57052 50.7743 7.6724 50.8383 7.62995 50.9143H7.62571Z" fill="#D1D1D1"/>
<path d="M25.136 57.4983C24.6563 57.5903 23.9601 57.7023 23.5187 57.4063C23.039 57.0903 22.5126 57.1063 22.1433 57.5063C22.0626 57.5903 21.9777 57.6983 21.8759 57.7623C21.2604 58.1463 20.6958 57.7983 20.2373 57.3543C19.4563 56.6023 19.5496 59.0303 18.5478 58.7583C17.9408 58.5943 17.4993 58.1423 17.1767 57.6143C17.2659 58.2983 17.6394 59.0303 17.9535 59.4143C18.0299 59.5063 17.8856 59.6263 17.7922 59.5503C17.3168 59.1583 16.9984 58.6703 16.8371 58.0943C16.6801 57.5143 16.7607 56.9103 16.6206 56.3543C16.4805 55.8063 17.2786 55.5103 17.5078 56.0543C17.771 56.6823 18.0427 57.3783 18.6285 57.8103C18.5818 57.7743 19.2228 57.0423 19.3798 56.9023C19.7194 56.5903 20.093 56.6383 20.4114 56.9303C20.7807 57.2663 21.2221 57.8023 21.7995 57.3943C22.0117 57.2423 22.2494 57.0063 22.5126 56.9303C22.7843 56.8503 22.8947 56.8663 23.1578 56.9583C23.8413 57.1943 24.3931 57.3903 25.1233 57.3863C25.2039 57.3863 25.2082 57.4823 25.1317 57.4983H25.136Z" fill="#D1D1D1"/>
<path d="M28.8842 57.1783C28.7229 57.3903 28.3706 57.4663 28.1499 57.2943C27.9843 57.1663 27.7381 56.3303 27.5895 56.4503C27.3645 56.6383 27.0334 56.7143 26.7702 56.8583C26.524 56.9943 26.2736 57.1343 26.0189 57.2663C25.8321 57.3583 25.6368 57.1103 25.8279 57.0103C26.3542 56.7263 26.9316 56.4423 27.3306 56.0103C27.4961 55.8343 27.7593 55.7663 27.9928 55.8663C28.2602 55.9823 28.43 56.3103 28.5234 56.5543C28.5319 56.5743 28.5404 56.5903 28.5446 56.6063C28.5531 56.5783 28.5659 56.5543 28.5913 56.5223C28.7187 56.3743 28.8333 56.2223 28.9649 56.0863C28.9946 56.0543 29.054 56.0623 29.071 56.1023C29.2366 56.5263 29.1474 56.8223 28.8757 57.1783H28.8842Z" fill="#D1D1D1"/>
<g style="mix-blend-mode:multiply" opacity="0.3">
<path d="M7.92719 46.5382C7.9654 46.4942 8.01209 46.4462 8.05454 46.3981C8.69128 44.9221 9.59545 43.5621 10.7076 42.3541C11.9344 41.0181 13.3819 39.7061 14.9823 38.7701C17.1599 37.494 19.6814 36.974 22.2114 36.77C24.9409 36.55 27.7426 36.474 30.4721 36.738C31.372 36.822 32.272 36.95 33.1549 37.13C35.0439 37.7581 36.7843 38.7901 38.5205 39.7541C38.4356 40.2821 38.1215 40.7461 37.8074 41.1821C37.4423 41.6901 37.0475 42.1861 36.674 42.6901C35.9226 43.6941 35.1203 44.6701 34.2501 45.5861C33.7874 45.9581 33.3035 46.3021 32.7856 46.6142C31.8008 47.2182 30.7353 47.6902 29.6316 48.0622C29.1519 48.2262 28.6255 48.3142 28.1926 48.5782C27.8233 48.7982 27.5898 49.1942 27.2799 49.4822C26.7875 49.9382 26.1168 50.1182 25.4758 50.3022C24.7626 50.5062 24.0325 50.6582 23.3024 50.7982C22.1563 51.0142 20.9889 51.1702 19.83 51.2982C18.5947 51.4342 17.3425 51.4822 16.103 51.4262C15.046 51.3742 12.3504 51.2022 12.8386 49.6182C12.8556 49.5662 12.8216 49.5262 12.7707 49.5102C11.6712 49.0942 10.627 48.5622 9.65064 47.9302C9.02663 47.5222 8.51299 46.9902 7.9187 46.5502L7.92719 46.5382Z" fill="#8D7B63"/>
</g>
<path d="M27.8698 28.066C27.9165 28.166 27.9675 28.27 28.0142 28.374C28.3071 29.022 28.6976 29.618 29.0457 30.242C29.5169 31.086 30.0008 31.934 30.4083 32.806C30.646 32.674 30.8922 32.554 31.1427 32.446C31.962 32.098 32.9426 31.738 33.8552 31.874C33.9741 31.89 34.0208 32.054 33.9146 32.118C33.6132 32.29 33.3161 32.474 33.0614 32.698C34.9377 32.218 37.2002 32.806 38.6478 33.962C38.7411 34.038 38.6987 34.206 38.5629 34.21C38.1002 34.222 37.6459 34.206 37.1917 34.25C37.9388 34.558 38.5289 35.206 38.9492 35.8501C39.2336 36.2821 39.4585 36.7821 39.6156 37.2701C39.6538 37.3901 39.6538 37.5141 39.6283 37.6261C39.6835 37.6501 39.726 37.6981 39.7048 37.7741C39.3354 39.0941 38.427 40.2301 37.5483 41.2941C36.6314 42.4021 35.5956 43.4941 34.4113 44.3541C33.1675 45.2622 31.8176 46.0502 30.5102 46.8742C29.865 47.2782 29.2495 47.7262 28.5915 48.1062C28.0779 48.3982 27.5387 48.6582 27.0336 48.9662C26.9487 49.1262 26.8595 49.2862 26.7619 49.4382C26.3417 50.0862 25.3738 50.1822 24.6522 50.2822C23.6461 50.4182 22.7674 50.4222 21.825 50.0262C21.1034 49.7222 20.4624 49.3062 19.9021 48.7942C19.7408 48.9782 19.5795 49.1662 19.4309 49.3582C19.1592 49.6982 18.9173 50.0822 18.5819 50.3742C17.9579 50.9182 17.1896 50.7462 16.4042 50.6782C15.8609 50.6342 15.3091 50.6022 14.7657 50.5302C14.4303 50.4862 13.9931 50.4302 13.7172 50.2222C13.4413 50.0102 13.3776 49.6982 13.3903 49.3622C12.6899 49.0942 12.015 48.7582 11.3825 48.3782C10.5038 47.8462 9.7609 47.1582 8.89069 46.6142C7.98227 46.0422 7.02716 45.5342 6.1527 44.9142C5.30371 44.3141 4.53962 43.6061 3.73733 42.9461C2.52327 41.9501 0.5706 40.7141 0.93991 38.9541C1.26677 37.4021 2.44262 35.9581 3.77978 35.006C3.32557 34.958 2.87136 34.958 2.45111 35.038C2.38319 35.046 2.37894 34.962 2.42988 34.934C2.45111 34.926 2.47234 34.918 2.49356 34.91C3.38924 33.95 4.6882 33.362 5.98715 33.062C6.24609 33.006 6.50503 32.946 6.76822 32.898C6.43711 32.814 6.09327 32.778 5.7367 32.842C5.69 32.85 5.67727 32.782 5.71972 32.77C5.77915 32.75 5.83433 32.734 5.89376 32.722C5.89376 32.714 5.89376 32.702 5.90225 32.698C7.00594 32.042 8.27517 31.67 9.58686 31.85C10.126 31.926 10.7839 32.07 11.3358 32.342C11.8579 31.122 12.3928 29.906 13.055 28.742C13.2757 28.354 13.5092 27.962 13.7596 27.586C12.8724 27.422 11.9895 27.218 11.1278 26.95C9.85429 26.5579 8.64449 26.0379 7.43043 25.5059C6.39891 25.0539 5.35465 24.5819 4.45048 23.9299C3.53782 23.2739 2.78646 22.4579 2.31103 21.4659C1.79314 20.3859 1.54269 19.2219 1.31771 18.0619C1.06301 16.7618 0.740397 15.4658 0.52815 14.1538C0.294678 12.7378 0.13337 11.3178 0.0569605 9.88976C-0.0873676 7.16173 0.0399813 4.4457 0.468721 1.74567C0.477211 1.45367 0.489949 1.16167 0.545133 0.881662C0.655502 0.353656 1.02057 0.0936534 1.58514 0.0376528C2.2898 -0.122349 3.08361 0.253655 3.71611 0.67366C4.56085 1.23767 5.31645 1.87767 6.18666 2.40968C7.39223 3.14969 8.61052 3.86169 9.77364 4.6577C11.9088 6.12172 14.0865 7.76974 15.7633 9.70176C16.5656 10.6258 17.2023 11.6738 17.6268 12.8058C18.064 13.9698 18.2466 15.1498 18.3866 16.3698C18.5479 17.8058 18.7305 19.2419 18.93 20.6739C19.0828 21.7899 19.3163 22.9099 19.4606 24.0299C19.6644 24.0059 19.8639 23.9819 20.0634 23.9659C20.7171 23.9099 21.3496 23.9459 21.9354 24.0979C22.0628 22.5259 22.1859 20.9499 22.4278 19.3859C22.7844 17.0298 23.332 14.5738 24.6225 12.4938C25.7559 10.6578 27.3902 9.17775 29.2282 7.96574C31.113 6.72173 33.1633 5.72572 35.2094 4.7377C37.6842 3.54169 40.2056 2.44168 42.7866 1.45767C43.2535 1.06566 43.8521 0.901662 44.3317 1.44167C44.8624 2.03367 45.0534 2.91368 45.1213 3.66569C45.3887 6.53772 44.2935 9.44576 43.661 12.2218C42.7441 16.2498 41.199 20.4619 38.1766 23.5379C35.4556 26.3059 31.737 27.614 27.8741 28.074L27.8698 28.066Z" fill="#C0C3C2"/>
<g style="mix-blend-mode:multiply" opacity="0.3">
<path d="M29.8821 35.1939C29.169 34.7899 28.4388 34.4139 27.6408 34.1699C26.5456 33.8299 25.3315 33.6619 24.1897 33.5259C23.018 33.3899 21.8295 33.3259 20.6494 33.3259C16.5148 33.3099 12.2232 34.4779 8.89087 36.822C9.42149 35.8779 10.5506 35.2219 11.4676 34.6739C12.151 34.2619 12.8684 33.9579 13.624 33.6779C14.074 33.5139 14.5579 33.4459 15.0036 33.2699C15.3517 33.1299 15.3474 32.8779 15.3771 32.5539C15.4281 31.9139 15.8059 31.3219 16.2856 30.8819C16.519 30.6659 16.8119 30.4739 17.143 30.4579C17.6015 30.4379 17.7246 30.9819 17.7501 31.2979C17.801 31.8419 17.6609 32.3899 17.6524 32.9299C17.6524 32.9819 17.6864 33.0099 17.7373 33.0139C17.7416 33.0179 17.7458 33.0179 17.7501 33.0179C18.5184 33.1099 19.2825 32.9259 20.0423 32.8499C20.8828 32.7699 21.7658 32.7939 22.5978 32.9259C22.6275 32.9299 22.653 32.9219 22.67 32.9099C22.7082 32.8939 22.7294 32.8579 22.7124 32.8139C22.7124 32.7979 22.7039 32.7859 22.6912 32.7739C22.4662 32.4739 22.5723 31.9659 22.5723 31.6139C22.5723 31.1699 22.5766 30.5099 23.1114 30.3419C23.6633 30.1699 24.3043 30.8059 24.6226 31.1499C25.0302 31.5979 25.3528 32.2339 25.1745 32.8219C25.0556 32.8059 25.0089 32.9699 25.1235 32.9939L25.132 32.9979C25.149 33.0699 25.2466 33.0779 25.2933 33.0259C26.4522 33.2379 27.5814 33.6259 28.5662 34.2419C29.0246 34.5299 29.4661 34.8459 29.8694 35.1979H29.8779L29.8821 35.1939Z" fill="#8D7B63"/>
</g>
<g style="mix-blend-mode:multiply" opacity="0.3">
<path d="M39.709 37.774C39.3397 39.094 38.4313 40.2301 37.5526 41.2941C36.6357 42.4021 35.5999 43.4941 34.4156 44.3541C33.1718 45.2621 31.8219 46.0501 30.5145 46.8741C29.8692 47.2781 29.2537 47.7261 28.5957 48.1062C28.0821 48.3982 27.543 48.6582 27.0378 48.9662C26.9529 49.1262 26.8638 49.2862 26.7662 49.4382C26.3459 50.0862 25.3781 50.1822 24.6564 50.2822C23.6504 50.4182 22.7717 50.4222 21.8293 50.0262C21.1077 49.7222 20.4667 49.3062 19.9063 48.7942C19.745 48.9782 19.5837 49.1662 19.4352 49.3582C19.1635 49.6982 18.9215 50.0822 18.5862 50.3742C17.9622 50.9182 17.1938 50.7462 16.4085 50.6782C15.8651 50.6342 15.3133 50.6022 14.77 50.5302C14.4346 50.4862 13.9974 50.4302 13.7215 50.2222C13.4455 50.0102 13.3819 49.6982 13.3946 49.3622C12.6942 49.0942 12.0192 48.7582 11.3867 48.3782C10.508 47.8461 9.76517 47.1581 8.89495 46.6141C7.98653 46.0421 7.03142 45.5341 6.15696 44.9141C5.30798 44.3141 4.54388 43.6061 3.74159 42.9461C2.52754 41.9501 0.574856 40.7141 0.944166 38.954C1.17764 37.826 1.86957 36.758 2.73978 35.89C2.40443 36.674 2.00116 37.398 2.15398 38.298C2.31104 39.2021 3.01146 39.8461 3.80102 40.3181C4.234 40.5741 4.70095 40.7781 5.1594 40.9861C5.75794 41.2541 6.32676 41.5701 6.90831 41.8701C7.9271 42.3901 9.09871 43.0221 10.283 43.0941C11.1363 43.1461 11.616 42.4461 11.9556 41.8181C12.1933 41.3741 12.4055 40.9501 12.7536 40.5741C13.1357 40.1621 13.6366 39.8661 14.1544 39.6261C15.1435 39.17 16.2854 38.954 17.3594 38.774C18.8621 38.514 20.4072 38.538 21.9227 38.706C23.0561 38.83 24.2022 39.026 25.2847 39.3821C25.8068 39.5541 26.3671 39.7941 26.7704 40.1541C27.1567 40.4981 27.2756 41.0501 27.4326 41.5061C27.6236 42.0581 27.925 42.7461 28.549 42.9701C29.1985 43.2061 29.9287 42.9741 30.5527 42.7741C32.6964 42.0901 34.7721 41.1221 36.6187 39.8901C37.0729 39.5821 37.4974 39.2381 37.9473 38.926C38.3167 38.666 38.686 38.418 38.9874 38.082C39.3567 37.674 39.4458 37.23 39.4288 36.77C39.4968 36.934 39.5604 37.102 39.6114 37.27C39.6496 37.39 39.6496 37.514 39.6241 37.626C39.6793 37.65 39.7217 37.698 39.7005 37.774H39.709Z" fill="#8D7B63"/>
</g>
<g style="mix-blend-mode:multiply" opacity="0.3">
<path d="M32.3652 45.7221C31.7497 46.1061 31.1257 46.4861 30.5144 46.8741C29.8692 47.2781 29.2537 47.7261 28.5957 48.1061C28.0821 48.3981 27.543 48.6581 27.0378 48.9661C26.9529 49.1261 26.8638 49.2861 26.7661 49.4381C26.3459 50.0861 25.3781 50.1821 24.6564 50.2821C23.6504 50.4181 22.7717 50.4221 21.8293 50.0261C21.1076 49.7221 20.4667 49.3061 19.9063 48.7941C19.745 48.9781 19.5837 49.1661 19.4351 49.3581C19.1635 49.6981 18.9215 50.0821 18.5861 50.3741C17.9621 50.9181 17.1938 50.7461 16.4085 50.6781C15.8651 50.6341 15.3133 50.6021 14.7699 50.5301C14.4346 50.4861 13.9974 50.4301 13.7214 50.2221C13.4455 50.0101 13.3818 49.6981 13.3946 49.3621C12.6942 49.0941 12.0192 48.7581 11.3867 48.3781C11.0089 48.1501 10.6608 47.8941 10.3127 47.6341C10.6948 47.7341 11.0768 47.8221 11.4631 47.9021C11.9853 48.0021 12.7366 48.2221 13.246 47.9661C13.4752 47.8541 13.6111 47.6021 13.7087 47.3341C13.7172 48.0061 13.7894 48.7581 14.2308 49.2181C14.8463 49.8581 16.0646 49.6181 16.8669 49.6101C17.6013 49.6021 18.1022 49.5741 18.6795 48.9941C19.5115 48.1581 19.3545 47.4581 19.4012 46.4581C19.4012 46.4061 19.3587 46.3741 19.3078 46.3701C17.5546 46.2221 15.8269 45.6541 14.4983 44.5501C13.3012 43.5581 12.6772 42.182 12.639 40.714C12.6772 40.666 12.7196 40.618 12.7621 40.57C13.1441 40.158 13.645 39.862 14.1629 39.622C15.152 39.166 16.2939 38.95 17.3678 38.77C18.8706 38.51 20.4157 38.534 21.9312 38.702C23.0646 38.826 24.2107 39.022 25.2932 39.378C25.8153 39.55 26.3756 39.79 26.7789 40.15C26.8001 40.166 26.8213 40.194 26.8383 40.21C26.8086 41.766 26.3077 43.2821 25.1955 44.4581C24.0069 45.7181 22.2538 46.2941 20.4964 46.3101C20.4454 46.3101 20.3987 46.3501 20.403 46.3981C20.4836 47.2301 20.6364 48.1061 21.2095 48.7781C21.8038 49.4701 22.8014 49.5501 23.6758 49.4501C24.8899 49.3101 25.7346 48.8701 26.5327 47.9941C26.8595 47.6341 27.1737 47.2341 27.2416 46.7581C27.2925 46.4021 27.1524 46.0581 26.9657 45.7501C27.4538 46.1261 27.8826 46.5741 28.4217 46.8941C29.0669 47.2741 29.7334 46.9581 30.3531 46.6741C31.0323 46.3581 31.7073 46.0581 32.3737 45.7261L32.3652 45.7221Z" fill="#8D7B63"/>
</g>
<g style="mix-blend-mode:multiply" opacity="0.3">
<path d="M43.6569 12.2137C42.74 16.2418 41.1949 20.4538 38.1725 23.5298C35.4515 26.2979 31.7329 27.6059 27.87 28.0659C27.9167 28.1659 27.9676 28.2699 28.0143 28.3739C28.3072 29.0219 28.6977 29.6179 29.0458 30.2419C29.517 31.0859 30.001 31.9339 30.4085 32.8059C30.6462 32.6739 30.8924 32.5539 31.1428 32.4459C31.1556 32.4419 31.1726 32.4339 31.1853 32.4299C30.8117 32.7099 30.4636 33.0299 30.1877 33.3899C30.0858 33.0539 29.933 32.7219 29.6826 32.4699C29.4873 32.1059 29.3345 31.7139 29.1732 31.3379C28.9525 30.8379 28.6723 30.3539 28.4176 29.8659C27.8955 28.8859 27.3436 27.9019 26.622 27.0339C25.8791 26.1419 24.9792 25.3979 23.901 24.8778C23.3321 24.6018 22.7251 24.3978 22.0969 24.2778C21.6002 24.1818 21.0993 24.2338 20.6069 24.2298C20.471 24.2218 20.331 24.2138 20.1951 24.2138C20.1272 24.2098 20.0635 24.2018 19.9956 24.1898C19.9617 24.1818 19.9362 24.1938 19.915 24.2138C19.2782 24.2258 18.6457 24.3178 17.992 24.5338C16.7355 24.9498 15.6743 25.7939 14.8677 26.7779C14.0102 27.8179 13.4924 28.9899 12.8344 30.1379C12.5288 30.6619 12.1892 31.1659 11.8878 31.6939C11.718 31.9939 11.51 32.3459 11.4505 32.7019C10.6482 32.2739 9.66342 32.0019 8.75075 31.8099C9.02667 31.8019 9.30684 31.8099 9.59126 31.8499C10.1304 31.9259 10.7883 32.0699 11.3402 32.3419C11.8623 31.1219 12.3972 29.9059 13.0594 28.7419C13.2801 28.3539 13.5136 27.9619 13.764 27.5859C12.8768 27.4219 11.9939 27.2179 11.1322 26.9499C9.85868 26.5579 8.64888 26.0379 7.43482 25.5059C6.4033 25.0539 5.35904 24.5818 4.45487 23.9298C3.54221 23.2738 2.79085 22.4578 2.31542 21.4658C1.79754 20.3858 1.54708 19.2218 1.3221 18.0618C1.0674 16.7618 0.744793 15.4657 0.532545 14.1537C0.299073 12.7377 0.137765 11.3177 0.0613562 9.88968C-0.082972 7.16165 0.0443704 4.44562 0.47311 1.74559C0.4816 1.45359 0.494338 1.16159 0.549522 0.881583C0.566502 0.797582 0.591971 0.725581 0.621686 0.65358C0.889117 0.477578 1.20324 0.369577 1.5768 0.365577C2.37909 0.353577 3.14318 0.833582 3.76294 1.26559C5.18924 2.2576 6.29293 3.58561 7.61311 4.68562C9.39174 6.17764 11.0855 7.76966 12.4778 9.59768C13.8787 11.4377 14.8805 13.5057 15.5214 15.6817C15.704 16.3018 15.7464 16.9658 15.8271 17.6018C15.9247 18.3618 16.0223 19.1258 16.1624 19.8818C16.3832 21.1098 16.6803 22.6098 17.6991 23.4978C17.7458 23.5378 17.818 23.5338 17.8477 23.4778C18.4462 22.4938 18.2127 21.1898 18.0599 20.1258C17.8689 18.7538 17.8095 17.4018 17.7585 16.0178C17.7203 14.9217 17.6736 13.8177 17.593 12.7177C17.6015 12.7497 17.6142 12.7737 17.6269 12.8057C18.0642 13.9697 18.2467 15.1497 18.3868 16.3698C18.5481 17.8058 18.7306 19.2418 18.9301 20.6738C19.083 21.7898 19.3164 22.9098 19.4608 24.0298C19.6645 24.0058 19.864 23.9818 20.0635 23.9658C20.7173 23.9098 21.3498 23.9458 21.9356 24.0978C22.0629 22.5258 22.186 20.9498 22.428 19.3858C22.7633 17.1738 23.2685 14.8737 24.3934 12.8777C24.2108 13.8337 23.8797 14.7857 23.6335 15.7137C23.3576 16.7498 23.2685 17.7858 23.1921 18.8458C23.1156 19.8658 23.069 20.9098 23.2133 21.9258C23.3237 22.6938 23.5359 23.5978 24.283 24.0418C24.3255 24.0658 24.3849 24.0498 24.4104 24.0098C25.6244 22.0658 25.3527 19.6658 25.3485 17.5058C25.3442 16.3498 25.5013 15.1897 25.8791 14.0897C26.2696 12.9457 26.9785 11.9257 27.7596 10.9857C29.3769 9.04167 31.6862 7.91366 33.8044 6.54165C36.1943 4.99363 38.805 3.72961 41.5175 2.7536C42.4259 2.4256 43.3598 1.85359 44.3658 2.1456C44.5696 2.2056 44.7351 2.3176 44.8837 2.4576C45.0111 2.8576 45.0832 3.27361 45.1172 3.66161C45.3846 6.53365 44.2894 9.44168 43.6569 12.2177V12.2137Z" fill="#8D7B63"/>
</g>
<g style="mix-blend-mode:multiply" opacity="0.7">
<path d="M26.762 49.4342C26.3417 50.0822 25.3739 50.1782 24.6522 50.2782C23.6462 50.4142 22.7675 50.4182 21.8251 50.0222C21.1034 49.7182 20.4625 49.3022 19.9021 48.7902C19.7408 48.9742 19.5795 49.1622 19.4309 49.3542C19.1593 49.6942 18.9173 50.0782 18.5819 50.3702C17.9579 50.9142 17.1896 50.7422 16.4043 50.6742C15.8609 50.6302 15.3091 50.5982 14.7657 50.5262C14.4304 50.4822 13.9932 50.4262 13.7172 50.2182C13.488 50.0422 13.4074 49.7942 13.3904 49.5222C13.3989 49.4422 13.3989 49.3582 13.3989 49.2742C13.4031 48.8862 13.488 48.5022 13.5687 48.1222C13.6748 47.6502 13.8149 47.1862 13.9592 46.7222C13.9295 47.3422 13.8998 47.9662 13.8913 48.5942C13.887 49.0342 13.8488 49.5102 14.2309 49.8302C14.3582 49.9382 14.511 50.0062 14.6766 50.0502C15.2369 50.2982 15.9798 50.3302 16.5698 50.3302C16.8967 50.3302 17.5462 50.3542 17.8348 50.1942C18.2975 49.9462 18.289 49.9222 18.6074 49.6662C18.9343 49.4062 19.3418 48.8502 19.588 48.5142C19.8385 48.1742 19.7111 47.9462 19.6984 47.4982C19.6814 46.7102 19.554 45.9342 19.5583 45.1422C19.6729 45.1502 19.7918 45.1422 19.9064 45.1342C19.9318 45.8222 19.9785 46.5102 20.0507 47.1982C20.0932 47.6382 20.0082 48.2902 20.3521 48.6382C20.7087 48.9982 21.3666 49.2702 21.8293 49.4862C22.5 49.7982 23.1877 49.8142 23.9178 49.7742C24.5546 49.7422 25.2635 49.7342 25.8663 49.5222C26.4181 49.3302 26.8129 48.6942 27.1185 48.2542C27.3393 47.9382 27.8996 47.3662 27.6661 46.9542C27.4327 46.5462 27.1907 46.1342 26.9572 45.7222C27.0167 45.7822 27.0761 45.8422 27.1355 45.9022C27.4581 46.2182 27.7892 46.5582 27.9421 46.9862C28.0949 47.4062 27.6449 47.9742 27.4496 48.3382C27.3478 48.5302 27.2374 48.7222 27.1313 48.9102C27.0973 48.9302 27.0633 48.9462 27.0336 48.9662C26.9487 49.1262 26.8596 49.2862 26.762 49.4382V49.4342Z" fill="#8D7B63"/>
</g>
<path d="M43.9626 5.08969C43.9243 5.26969 43.8819 5.45369 43.8352 5.63369C43.7715 6.2697 43.6442 6.89771 43.5041 7.52171C43.33 8.29372 43.1985 9.07373 43.0244 9.84574C42.74 11.1098 42.3834 12.3778 41.8273 13.5618C41.267 14.7538 40.5878 15.9138 39.9681 17.0818C38.8474 19.1938 37.4933 21.2379 35.3326 22.5339C33.7619 23.4739 31.9706 24.0699 30.2047 24.6059C29.4533 24.8339 28.668 25.0659 27.8785 25.1339C27.5219 25.1659 27.0167 25.1819 26.7493 24.9219C26.7281 24.9939 26.605 25.0019 26.5965 24.9099C26.5498 24.2179 26.4819 23.5259 26.4437 22.8259C26.2951 20.3459 26.1253 17.7978 26.8851 15.3858C27.5219 13.3698 28.8803 11.6698 30.5018 10.2497C32.1701 8.78973 34.1015 7.60171 36.0882 6.5577C38.3762 5.34969 40.7109 4.21368 43.1263 3.23767C43.4999 3.05766 43.9668 2.96166 44.0772 3.45767C44.1918 3.98567 44.0729 4.57768 43.9626 5.09369V5.08969Z" fill="#D0725B"/>
<g style="mix-blend-mode:multiply" opacity="0.4">
<path fill-rule="evenodd" clip-rule="evenodd" d="M43.9626 5.08969C43.9243 5.26969 43.8819 5.45369 43.8352 5.63369C43.7715 6.2697 43.6442 6.89771 43.5041 7.52171C43.33 8.29372 43.1985 9.07373 43.0244 9.84574C42.74 11.1098 42.3834 12.3778 41.8273 13.5618C41.267 14.7538 40.5878 15.9138 39.9681 17.0818C38.8474 19.1938 37.4933 21.2379 35.3326 22.5339C33.7619 23.4739 31.9706 24.0699 30.2047 24.6059C29.4533 24.8339 28.668 25.0659 27.8785 25.1339C27.5219 25.1659 27.0167 25.1819 26.7493 24.9219C26.7281 24.9939 26.605 25.0019 26.5965 24.9099C26.5498 24.2179 26.4819 23.5259 26.4437 22.8259C26.2951 20.3459 26.1253 17.7978 26.8851 15.3858C27.5219 13.3698 28.8803 11.6698 30.5018 10.2497C32.1701 8.78973 34.1015 7.60171 36.0882 6.5577C38.3762 5.34969 40.7109 4.21368 43.1263 3.23767C43.4999 3.05766 43.9668 2.96166 44.0772 3.45767C44.1918 3.98567 44.0729 4.57768 43.9626 5.09369V5.08969ZM42.4259 4.94169C42.4216 4.90568 42.3749 4.87768 42.3367 4.87768C41.7891 4.90568 41.3604 5.18569 40.9741 5.51769C37.247 7.39771 33.8086 10.3297 32.8917 14.3498C32.5946 15.6418 32.3781 17.2778 33.1804 18.4498C34.0633 19.7379 36.016 19.5058 37.1537 18.6978C39.0554 17.3498 39.6879 14.9978 40.4902 13.0138C41.0335 11.6698 41.5896 10.3257 42.0014 8.93773C42.3834 7.64971 42.6551 6.2777 42.4301 4.94169H42.4259Z" fill="#D0725B"/>
</g>
<path d="M14.2731 25.0619C14.2221 25.1659 14.0523 25.1179 14.0736 25.0019C14.0863 24.9299 14.099 24.8619 14.1118 24.7899C14.0778 24.8299 14.0269 24.8619 13.9589 24.8539C13.8146 24.8459 13.6618 24.8459 13.5217 24.8259C12.1506 24.6219 10.8601 24.1459 9.59515 23.6259C8.44477 23.1579 7.28165 22.7139 6.25013 22.0379C5.24832 21.3819 4.32293 20.5659 3.69468 19.5699C3.03671 18.5418 2.60372 17.4058 2.32355 16.2378C1.69106 13.6258 1.50428 10.9738 1.53399 8.30173C1.55097 6.87371 1.55098 5.44569 1.55098 4.01768C1.55522 3.38167 1.55947 2.73766 1.63163 2.10166C1.67408 1.72965 1.75898 1.39365 2.0816 1.16565C2.02641 1.10165 1.96698 1.04165 1.91604 0.977645C1.88208 0.937645 1.94576 0.885644 1.98396 0.921645C3.75411 2.38166 5.62612 3.73368 7.27316 5.32569C8.90322 6.89771 10.4654 8.53773 11.7558 10.3818C12.9784 12.1258 13.6448 14.0378 13.8656 16.1098C13.9123 16.5458 13.9505 16.9818 13.9887 17.4178C14.0014 17.4698 14.0184 17.5218 14.0311 17.5738C14.1118 17.9098 14.1288 18.2498 14.1754 18.5858C14.2858 19.3659 14.4047 20.1459 14.5023 20.9259C14.6679 22.2259 14.8801 23.8219 14.2731 25.0579V25.0619Z" fill="#D0725B"/>
<g style="mix-blend-mode:multiply" opacity="0.4">
<path fill-rule="evenodd" clip-rule="evenodd" d="M14.2731 25.0619C14.2221 25.1659 14.0523 25.1179 14.0736 25.0019C14.0863 24.9299 14.099 24.8619 14.1118 24.7899C14.0778 24.8299 14.0269 24.8619 13.9589 24.8539C13.8146 24.8459 13.6618 24.8459 13.5217 24.8259C12.1506 24.6219 10.8601 24.1459 9.59515 23.6259C8.44477 23.1579 7.28165 22.7139 6.25013 22.0379C5.24832 21.3819 4.32293 20.5659 3.69468 19.5699C3.03671 18.5418 2.60372 17.4058 2.32355 16.2378C1.69106 13.6258 1.50428 10.9738 1.53399 8.30173C1.55097 6.87371 1.55098 5.44569 1.55098 4.01768C1.55522 3.38167 1.55947 2.73766 1.63163 2.10166C1.67408 1.72965 1.75898 1.39365 2.0816 1.16565C2.02641 1.10165 1.96698 1.04165 1.91604 0.977645C1.88208 0.937645 1.94576 0.885644 1.98396 0.921645C3.75411 2.38166 5.62612 3.73368 7.27316 5.32569C8.90322 6.89771 10.4654 8.53773 11.7558 10.3818C12.9784 12.1258 13.6448 14.0378 13.8656 16.1098C13.9123 16.5458 13.9505 16.9818 13.9887 17.4178C14.0014 17.4698 14.0184 17.5218 14.0311 17.5738C14.1118 17.9098 14.1288 18.2498 14.1754 18.5858C14.2858 19.3659 14.4047 20.1459 14.5023 20.9259C14.6679 22.2259 14.8801 23.8219 14.2731 25.0579V25.0619ZM10.2701 11.3538C10.2446 10.7178 10.181 10.0937 9.89654 9.50174C9.58666 8.86173 9.12396 8.32173 8.63154 7.79372C7.48541 6.56971 6.2289 5.4297 4.96391 4.31368C4.28896 3.72168 3.5461 3.15367 2.7523 2.71366C2.37025 2.49766 1.63163 2.25366 1.83539 2.94967C1.84388 5.6297 1.96274 8.26573 2.37874 10.9258C2.56552 12.1138 2.81173 13.3778 3.45696 14.4298C3.95362 15.2458 4.68799 15.9378 5.51151 16.4618C6.92932 17.3658 8.93718 17.4658 9.7989 15.8618C10.5248 14.5138 10.3295 12.8138 10.2743 11.3538H10.2701Z" fill="#D0725B"/>
</g>
<g style="mix-blend-mode:multiply" opacity="0.4">
<path d="M29.4787 24.818C28.9566 24.962 28.4217 25.086 27.8826 25.134C27.526 25.166 27.0209 25.182 26.7534 24.922C26.7322 24.994 26.6091 25.002 26.6006 24.91C26.5539 24.218 26.486 23.5259 26.4478 22.8259C26.2992 20.3459 26.1294 17.7979 26.8893 15.3859C27.526 13.3698 28.8844 11.6698 30.506 10.2498C32.1742 8.78978 34.1057 7.60177 36.0923 6.55776C36.2154 6.49376 36.3428 6.42976 36.4659 6.36176C35.2518 7.58577 33.6175 8.43378 32.3313 9.58979C30.6418 11.1138 29.1476 12.9738 28.4642 15.1059C27.7128 17.4539 27.8826 20.1099 28.2774 22.5019C28.4047 23.2739 28.6127 24.266 29.3471 24.746C29.3896 24.774 29.4363 24.794 29.4829 24.822L29.4787 24.818Z" fill="#D0725B"/>
</g>
<g style="mix-blend-mode:multiply" opacity="0.4">
<path d="M14.2733 25.062C14.2224 25.166 14.0526 25.118 14.0738 25.002C14.0866 24.93 14.0993 24.862 14.112 24.79C14.0781 24.83 14.0271 24.8619 13.9592 24.8539C13.8149 24.8459 13.6621 24.8459 13.522 24.8259C12.9362 24.7379 12.3631 24.5979 11.8028 24.4299C11.9004 24.3859 11.998 24.3379 12.0999 24.2899C12.881 23.8979 13.3055 23.3419 13.4795 22.5259C13.7215 21.3859 13.7342 20.1699 13.6323 19.0179C13.522 17.7579 13.2588 16.5099 13.0635 15.2578C12.9022 14.2418 12.622 13.2418 12.2825 12.2658C11.9259 11.2378 11.4759 10.2258 10.9241 9.26978C11.2127 9.63378 11.4929 10.0058 11.7603 10.3858C12.9829 12.1298 13.6493 14.0418 13.8701 16.1139C13.9168 16.5499 13.955 16.9859 13.9932 17.4219C14.0059 17.4739 14.0229 17.5259 14.0356 17.5779C14.1163 17.9139 14.1332 18.2539 14.1799 18.5899C14.2903 19.3699 14.4092 20.1499 14.5068 20.9299C14.6724 22.2299 14.8846 23.8259 14.2776 25.062H14.2733Z" fill="#D0725B"/>
</g>
<path d="M26.7109 41.0341C26.5921 42.4101 25.4756 43.6821 24.3422 44.4821C22.7886 45.5781 20.8317 46.0661 18.9002 45.8421C17.181 45.6461 15.6316 44.9621 14.3581 43.8501C13.4752 43.0781 12.5455 41.9701 12.6219 40.7861C12.4394 40.0141 13.6237 39.4341 14.1968 39.1541C15.118 38.7061 16.1198 38.3741 17.1173 38.1141C18.8068 37.678 20.6958 37.59 22.415 37.9141C23.9772 38.2021 25.7006 38.8101 26.7491 39.9901C26.9741 40.0821 26.8468 40.6181 26.7109 41.0301V41.0341Z" fill="#D0725B"/>
<g style="mix-blend-mode:multiply" opacity="0.4">
<path d="M26.8426 40.0941C26.9275 40.2901 26.8214 40.7061 26.711 41.0381C26.5922 42.4141 25.4758 43.6861 24.3424 44.4861C22.7887 45.5821 20.8318 46.0702 18.9003 45.8462C17.1811 45.6502 15.6317 44.9661 14.3583 43.8541C13.4753 43.0821 12.5457 41.9741 12.6221 40.7901C12.5839 40.6221 12.6136 40.4621 12.6815 40.3101C13.1612 41.9101 16.2388 42.1101 17.6481 42.1661C19.1593 42.2261 20.6875 42.1381 22.1859 41.9501C23.2726 41.8101 24.44 41.6621 25.4545 41.2461C26.0573 40.9981 26.4648 40.5621 26.8469 40.0901L26.8426 40.0941Z" fill="#D0725B"/>
</g>
<path d="M16.8584 33.502C16.608 33.602 16.3193 33.63 16.0858 33.23C15.8524 32.83 16.3575 31.3699 16.8032 31.1979C17.249 31.0259 17.2659 31.6819 17.2108 32.6059C17.1895 32.9139 17.1131 33.398 16.8584 33.498V33.502Z" fill="#151000"/>
<path d="M16.8032 31.7179C16.7225 32.0299 16.5697 32.2139 16.4721 32.1059C16.3744 32.0019 16.349 31.7579 16.5782 31.4699C16.8881 31.0779 16.8796 31.4059 16.8032 31.7179Z" fill="#D1D1D1"/>
<g style="mix-blend-mode:multiply" opacity="0.6">
<path d="M17.1386 29.6379C16.765 29.2299 15.9882 29.6819 15.8014 30.0379C15.6146 30.3899 15.5849 29.7739 15.5722 29.6019C15.5594 29.4219 15.8481 27.8539 16.4806 27.7419C16.9008 27.6699 17.2532 28.0539 17.5249 28.9019C18.0385 30.1619 17.5079 30.0499 17.1343 29.6419L17.1386 29.6379Z" fill="#A6A291"/>
</g>
<g style="mix-blend-mode:multiply">
<path d="M16.9476 28.95C16.6462 28.818 16.4552 28.842 15.9416 29.15C15.585 29.362 15.7675 29.262 15.7548 29.082C15.7421 28.906 15.8482 27.85 16.4807 27.738C16.9009 27.666 17.2533 28.05 17.5249 28.898C17.665 29.282 17.4655 29.178 16.9476 28.95Z" fill="#A6A291"/>
</g>
<path d="M22.9032 32.518C22.848 31.5979 22.865 30.9419 23.3107 31.1099C23.7564 31.2819 24.2616 32.742 24.0281 33.138C23.7946 33.538 23.5017 33.51 23.2513 33.41C23.0008 33.31 22.9202 32.83 22.9032 32.514V32.518Z" fill="#151000"/>
<path d="M23.366 31.554C23.4424 31.866 23.3872 32.098 23.2514 32.042C23.1155 31.986 22.9797 31.778 23.0476 31.422C23.1452 30.942 23.2896 31.238 23.366 31.554Z" fill="#D1D1D1"/>
<g style="mix-blend-mode:multiply" opacity="0.6">
<path d="M22.585 28.806C22.8567 27.962 23.2048 27.574 23.6293 27.65C24.2618 27.762 24.5547 29.334 24.5419 29.51C24.5292 29.686 24.4995 30.302 24.3127 29.946C24.1259 29.594 23.3533 29.138 22.9798 29.55C22.6062 29.958 22.0756 30.07 22.5893 28.806H22.585Z" fill="#A6A291"/>
</g>
<g style="mix-blend-mode:multiply">
<path d="M22.5846 28.806C22.8563 27.962 23.2043 27.574 23.6288 27.65C24.2613 27.762 24.3675 28.822 24.3547 28.998C24.342 29.178 24.5245 29.278 24.168 29.062C23.6543 28.754 23.4675 28.73 23.1577 28.862C22.6355 29.09 22.4403 29.194 22.5803 28.806H22.5846Z" fill="#A6A291"/>
</g>
<g style="mix-blend-mode:multiply">
<path d="M28.218 34.334C25.0555 33.798 21.9015 33.334 18.6796 33.554C17.1302 33.662 15.6063 33.854 14.1291 34.314C12.7579 34.742 11.4802 35.346 10.2534 36.058C10.1982 36.09 10.143 36.018 10.194 35.982C12.6773 34.218 15.5978 33.482 18.6584 33.282C21.8676 33.07 25.1617 33.354 28.2435 34.262C28.2902 34.274 28.2647 34.342 28.218 34.334V34.334Z" fill="#A6A291"/>
</g>
<path d="M21.8251 50.0262C22.1775 50.1742 22.5213 50.2662 22.8651 50.3182C22.8609 50.5302 22.8482 50.7462 22.8185 50.9622C22.7718 51.3182 22.6571 51.6502 22.2581 51.7663C21.8167 51.8943 20.8276 52.3023 20.4286 51.8702C20.4243 51.8742 20.4201 51.8823 20.4158 51.8863C20.3946 51.9023 20.3649 51.9143 20.3394 51.9303C20.3521 51.9503 20.3479 51.9863 20.3182 51.9943C19.7196 52.1623 18.6754 52.5103 18.2212 51.8623C17.9835 51.5182 17.9877 51.0942 17.9962 50.6902C18.2042 50.6342 18.3995 50.5342 18.582 50.3782C18.9174 50.0862 19.1593 49.7062 19.431 49.3622C19.5838 49.1702 19.7409 48.9822 19.9022 48.7982C20.4625 49.3102 21.1035 49.7262 21.8251 50.0302V50.0262Z" fill="#D1D1D1"/>
<g style="mix-blend-mode:multiply" opacity="0.3">
<g style="mix-blend-mode:multiply" opacity="0.3">
<path d="M18.3231 51.9782C18.2849 51.9422 18.2509 51.9022 18.2212 51.8582C17.9835 51.5142 17.9877 51.0902 17.9962 50.6862C18.2042 50.6302 18.3995 50.5302 18.582 50.3742C18.9174 50.0822 19.1593 49.7022 19.431 49.3582C19.5838 49.1662 19.7409 48.9782 19.9022 48.7942C20.4625 49.3062 21.1035 49.7222 21.8251 50.0262C22.1775 50.1742 22.5213 50.2662 22.8651 50.3182C22.8609 50.5302 22.8482 50.7462 22.8185 50.9622C22.81 51.0382 22.793 51.1182 22.776 51.1902C22.7378 51.0622 22.6911 50.9302 22.6444 50.8022C22.6274 50.7542 22.5807 50.7262 22.5298 50.7422C21.7063 50.9302 20.5729 49.4342 20.1357 50.5702C19.9659 50.3982 19.8428 50.2622 19.5541 50.2622C19.189 50.2622 18.8325 50.5982 18.5778 50.8062C18.4037 50.9502 18.0641 51.1982 18.1066 51.4582C18.132 51.6222 18.2127 51.8182 18.3316 51.9822L18.3231 51.9782Z" fill="#8D7B63"/>
</g>
</g>
<path d="M22.5425 50.2542C22.6487 50.2782 22.759 50.2982 22.8651 50.3182C22.8609 50.5302 22.8482 50.7462 22.8185 50.9622C22.7718 51.3182 22.6571 51.6502 22.2581 51.7662C21.8167 51.8942 20.8276 52.3022 20.4286 51.8702C20.4243 51.8742 20.4201 51.8822 20.4158 51.8862C20.3946 51.9022 20.3649 51.9142 20.3394 51.9302C20.3521 51.9502 20.3479 51.9862 20.3182 51.9942C19.7196 52.1622 18.6754 52.5102 18.2212 51.8622C17.9835 51.5182 17.9877 51.0942 17.9962 50.6902C18.0726 50.6662 18.149 50.6422 18.2212 50.6102C18.2127 50.9422 18.2212 51.3102 18.357 51.5742C18.5523 51.9542 19.0489 52.0182 19.5286 51.9942C19.6687 51.9662 19.8003 51.9182 19.9361 51.8462C20.0423 51.7942 20.1484 51.7302 20.263 51.7022C19.9234 50.8062 19.8979 49.7822 19.9149 48.8062C20.0083 48.8942 20.1102 48.9742 20.2078 49.0542C20.2078 49.3382 20.2121 49.6262 20.2205 49.9102C20.2418 50.4742 20.3182 51.0262 20.3861 51.5822C20.6068 51.7822 21.1247 51.7902 21.4006 51.7222C21.5577 51.6782 21.6893 51.5782 21.8464 51.5422C21.9695 51.5142 22.2072 51.5022 22.3006 51.4262C22.585 51.1942 22.5425 50.6182 22.5468 50.2902C22.5468 50.2782 22.5468 50.2662 22.5468 50.2542H22.5425Z" fill="#A6A291"/>
<path d="M18.0386 47.8341C16.8501 47.5541 15.6784 47.2101 14.4559 47.0501C13.2121 46.8861 11.9769 47.0141 10.7331 46.9101C10.7034 46.9101 10.7119 46.8661 10.7416 46.8661C11.4844 46.9141 12.2018 46.7821 12.9405 46.7301C13.5263 46.6901 14.0993 46.7221 14.6809 46.8061C15.3686 46.9061 16.052 47.0421 16.727 47.2021C17.2109 47.3141 17.6863 47.4381 18.0938 47.7221C18.1448 47.7581 18.1066 47.8461 18.0386 47.8341Z" fill="#452C00"/>
<path d="M17.0624 48.1141C16.5912 48.0221 16.1115 48.0341 15.6318 47.9981C15.0206 47.9581 14.4051 47.9221 13.7938 47.9181C12.6689 47.9141 11.5185 47.9221 10.4106 48.1381C10.3936 48.1421 10.3893 48.1181 10.4063 48.1101C11.5737 47.8341 12.7368 47.6541 13.9424 47.6621C14.5197 47.6661 15.1055 47.6781 15.6785 47.7461C16.137 47.8021 16.6676 47.8381 17.0794 48.0501C17.1091 48.0661 17.1006 48.1141 17.0581 48.1101L17.0624 48.1141Z" fill="#452C00"/>
<path d="M17.631 49.0022C15.2877 49.1662 13.0974 50.1783 11.0301 51.1583C10.9961 51.1743 10.9664 51.1223 11.0003 51.1063C13.004 50.0263 15.2283 48.7262 17.6394 48.9262C17.6861 48.9302 17.6776 48.9982 17.6352 48.9982L17.631 49.0022Z" fill="#452C00"/>
<path d="M30.196 45.2901C29.0456 45.3021 27.9632 45.7821 26.9062 46.1661C25.9086 46.5261 24.8856 46.8581 23.9177 47.2941C23.7352 47.3781 23.6291 47.0941 23.8116 47.0141C24.8559 46.5261 26.002 46.2021 27.1015 45.8301C28.099 45.4941 29.1263 45.1701 30.2003 45.2221C30.2385 45.2221 30.2385 45.2861 30.196 45.2901V45.2901Z" fill="#452C00"/>
<path d="M29.6824 47.0101C28.7103 47.1581 27.7382 47.2181 26.7746 47.4301C25.9384 47.6101 25.0936 47.7461 24.2489 47.9021C24.0961 47.9301 24.0409 47.6861 24.1937 47.6541C25.0894 47.4701 26.0021 47.3541 26.902 47.1781C27.8189 46.9981 28.7485 47.0501 29.6739 46.9461C29.7206 46.9421 29.7249 47.0101 29.6824 47.0141V47.0101Z" fill="#452C00"/>
<path d="M29.708 49.2622C28.7996 48.9902 27.9209 48.7942 26.97 48.6902C26.1762 48.6062 25.2805 48.6062 24.5334 48.3262C24.4613 48.3022 24.4825 48.1902 24.5547 48.1902C25.4121 48.1782 26.3375 48.3702 27.178 48.5182C28.044 48.6702 28.9397 48.8302 29.7377 49.2022C29.7759 49.2222 29.7505 49.2742 29.708 49.2662V49.2622Z" fill="#452C00"/>
<g style="mix-blend-mode:screen">
<path d="M22.5211 39.1901C22.3938 39.3981 22.0669 39.5061 21.808 39.5861C20.6491 39.9421 19.3077 40.0581 18.0767 40.0701C17.6055 40.0741 15.933 40.1501 15.9882 39.4981C16.0136 39.2261 16.4381 39.0701 16.714 38.986C17.2914 38.806 17.9154 38.718 18.5309 38.65C19.1634 38.582 19.8044 38.542 20.4411 38.538C20.6491 38.534 20.9123 38.522 21.1542 38.55C21.5023 38.55 21.8504 38.574 22.1476 38.682C22.3853 38.766 22.657 38.9621 22.5211 39.1901V39.1901Z" fill="#E88F7C"/>
</g>
<g style="mix-blend-mode:screen">
<path d="M24.3296 39.1181C23.3914 38.4941 21.7274 39.9101 23.7947 39.7661C24.2107 39.7381 24.8135 39.4421 24.3296 39.1181Z" fill="#E88F7C"/>
</g>
<path d="M31.5503 36.466C29.776 35.898 28.0822 35.062 26.2272 34.726C24.3467 34.382 22.4152 34.278 20.505 34.402C16.7864 34.638 12.932 35.31 9.65067 37.0301C9.57426 37.0701 9.51483 36.9781 9.57426 36.9261C12.6264 34.426 16.8374 33.646 20.7724 33.482C24.6778 33.318 28.4473 34.122 31.7201 36.214C31.8857 36.322 31.7116 36.522 31.5546 36.47L31.5503 36.466Z" fill="#D1D1D1"/>
<path d="M33.3585 32.266C32.1826 32.646 31.0152 33.034 30.1917 33.95C30.1535 33.998 30.0644 33.946 30.0941 33.894C30.7393 32.79 32.0043 32.154 33.3287 32.142C33.4051 32.142 33.4391 32.246 33.3585 32.27V32.266Z" fill="#D1D1D1"/>
<path d="M37.9264 33.954C36.3727 33.042 34.2672 32.518 32.5353 33.274C32.4928 33.294 32.4589 33.226 32.4971 33.202C34.1738 32.154 36.5807 32.438 38.0113 33.826C38.0665 33.882 38.007 33.998 37.9264 33.954V33.954Z" fill="#D1D1D1"/>
<path d="M39.119 36.854C39.1318 36.954 38.9705 36.982 38.9323 36.89C38.6436 36.174 38.2021 35.51 37.5824 35.002C37.0517 34.5619 36.3726 34.3859 35.6976 34.2299C35.6424 34.2179 35.6424 34.1299 35.7019 34.1299C36.5848 34.1379 37.3192 34.2059 37.9729 34.842C38.529 35.382 39.0087 36.094 39.1148 36.854H39.119Z" fill="#D1D1D1"/>
<path d="M4.57358 35.026C3.60149 35.194 2.7525 36.01 2.54025 36.91C2.53176 36.942 2.5827 36.966 2.60392 36.938C2.86286 36.582 3.09209 36.21 3.41471 35.902C3.7543 35.574 4.20851 35.386 4.61603 35.146C4.67121 35.11 4.63725 35.018 4.56933 35.026H4.57358Z" fill="#D1D1D1"/>
<path d="M7.55778 33.37C5.88103 33.514 4.37832 33.998 2.95202 34.838C2.90533 34.866 2.83741 34.806 2.8841 34.766C4.00477 33.766 5.97017 32.694 7.57052 33.162C7.68513 33.194 7.69787 33.358 7.56203 33.37H7.55778Z" fill="#D1D1D1"/>
<path d="M11.4547 33.154C9.7907 32.426 8.18186 32.33 6.40748 32.69C6.34805 32.698 6.31408 32.626 6.37776 32.602C8.13092 31.938 10.0157 31.798 11.5354 33.03C11.6033 33.082 11.5354 33.186 11.4547 33.15V33.154Z" fill="#D1D1D1"/>
<path d="M17.3509 17.6538C17.3509 17.7098 17.2575 17.7218 17.2533 17.6618C17.2193 16.0338 17.024 14.3137 16.3958 12.7897C15.9034 11.5977 15.1138 10.5697 14.2054 9.62568C12.1296 7.46966 9.87556 5.55364 7.59603 3.60162C7.56631 3.57762 7.60451 3.54162 7.62998 3.55762C9.07751 4.49763 10.593 5.36564 11.8792 6.50165C12.9404 7.43766 14.0059 8.40967 14.961 9.44568C15.8482 10.4097 16.7906 11.5537 17.1005 12.8297C17.4867 14.4057 17.3679 16.0538 17.3509 17.6578V17.6538Z" fill="#D1D1D1"/>
<path d="M38.9874 3.30161C35.6169 5.08163 32.1275 6.87765 29.1136 9.18168C27.56 10.3697 26.0361 11.7057 25.2507 13.4817C24.5715 15.0177 24.2065 16.6098 23.9942 18.2578C23.9857 18.3298 23.8584 18.3258 23.8584 18.2498C23.9008 16.5698 24.0027 14.8057 24.6989 13.2417C25.4163 11.6377 26.5879 10.3897 27.9802 9.26568C29.5806 7.97366 31.3507 6.92565 33.2355 6.03764C35.1542 5.12963 36.9413 3.98162 38.8982 3.13761C39.0001 3.09361 39.085 3.24961 38.9874 3.30161V3.30161Z" fill="#D1D1D1"/>
<path d="M15.6484 26.5259C16.7649 25.2099 18.3312 24.2859 20.233 24.3179C21.5829 24.3379 22.9752 24.6139 24.1596 25.2499C24.9194 25.6499 25.5604 26.2099 26.125 26.8339C25.5943 26.5139 25.0425 26.2179 24.4694 25.9619C22.9837 25.3059 21.4046 24.7699 19.7491 24.9419C18.3397 25.0899 16.8455 25.6459 15.6527 26.5219L15.6484 26.5259Z" fill="#D1D1D1"/>
</svg>
