<svg width="59" height="84" viewBox="0 0 59 84" fill="none" xmlns="http://www.w3.org/2000/svg">
<path d="M41.9346 67.7035C42.3115 66.749 42.6997 65.708 43.0597 64.6406C45.3156 64.8256 50.7176 65.4142 54.5675 67.0085C55.3351 67.3264 56.0405 67.6843 56.6475 68.0863C57.9905 68.9768 59.0825 70.3541 58.959 72.0357C58.8573 73.4162 58.2875 74.3771 57.4199 75.0522C55.5901 76.4759 52.4351 76.6329 49.5424 76.7762C46.8991 76.9075 43.9031 77.0565 41.5189 77.9846C40.5367 78.3665 39.958 78.9863 40.079 79.5268C40.2227 80.1659 41.3728 80.8545 43.5593 80.8545C47.3003 80.8545 48.4068 79.8528 48.4092 79.8423C48.6264 78.9991 49.5545 78.4778 50.4763 78.6756C51.4004 78.8742 51.9735 79.7174 51.7555 80.5606C51.7241 80.6815 51.6514 80.905 51.4892 81.1812C50.8855 82.2134 49.0477 83.9903 43.5593 83.9903C40.958 83.9903 39.1839 83.2752 38.0838 82.3255C37.3147 81.6617 36.874 80.8833 36.7109 80.1554C36.2541 78.1159 37.6432 76.0852 40.1694 75.1018C43.1114 73.9567 46.4286 73.7918 49.356 73.646C53.9049 73.4202 55.4352 73.1255 55.5304 71.8259C55.5433 71.6545 55.5151 71.4135 55.185 71.07C54.4707 70.3261 53.013 69.7031 51.2511 69.2002C48.3084 68.361 44.519 67.8597 41.9362 67.7035H41.9346Z" fill="url(#paint0_linear_6_5782)"/>
<path d="M39.8763 77.8244C40.2081 77.9622 40.5244 78.1295 40.8118 78.3481C40.2823 78.698 39.9998 79.1248 40.0773 79.5132C39.8901 79.5228 39.706 79.53 39.5285 79.5364C38.9998 79.5444 38.5091 79.53 38.0345 79.5316C37.5615 79.5468 37.1184 79.5901 36.6511 79.6757C36.6479 79.6765 36.6438 79.6773 36.6406 79.6781C36.5841 79.0119 36.7213 78.3561 37.0248 77.746C37.3154 77.6539 37.6132 77.5874 37.9094 77.5586C38.5954 77.4929 39.2678 77.593 39.8763 77.8252V77.8244Z" fill="#4E0001"/>
<path d="M49.1728 68.2937C49.1259 68.413 49.0743 68.5347 49.0202 68.6564C48.5602 68.5603 48.0936 68.4706 47.6255 68.3881C47.6086 68.3105 47.59 68.232 47.5771 68.1535C47.5077 67.6787 47.5279 67.1958 47.6312 66.7234C47.7353 66.2509 47.9395 65.7897 48.2333 65.3789C48.251 65.3549 48.2728 65.3333 48.2914 65.3101C48.7732 65.3949 49.2632 65.4886 49.7579 65.5927C49.7458 65.7353 49.7313 65.8746 49.7159 66.0115C49.674 66.4039 49.6094 66.7722 49.519 67.1486C49.4335 67.5249 49.3213 67.9029 49.1736 68.2937H49.1728Z" fill="#4E0001"/>
<path d="M53.0985 69.8256C52.8241 69.7143 52.5335 69.6077 52.2292 69.5044C52.2527 69.233 52.3051 68.9703 52.381 68.7133C52.5198 68.2681 52.7321 67.842 53.0178 67.4497C53.2147 67.1734 53.4649 66.9164 53.7628 66.6993C54.2503 66.8755 54.7216 67.0645 55.1647 67.2703C55.0921 67.3512 55.0219 67.4328 54.95 67.5177C54.7345 67.7844 54.5158 68.0679 54.2882 68.3786C54.0606 68.6853 53.8185 69.0008 53.5513 69.3211C53.4092 69.4892 53.2607 69.659 53.0985 69.8264V69.8256Z" fill="#4E0001"/>
<path d="M58.0551 69.3291C58.4151 69.7735 58.6685 70.2508 58.8162 70.7481C58.3384 70.8586 57.8711 70.9603 57.3981 71.0828C56.9017 71.2093 56.4013 71.3358 55.8767 71.4423C55.7484 71.4687 55.6184 71.4952 55.4877 71.52C55.4417 71.3943 55.3521 71.2461 55.1842 71.0716C55.0341 70.9154 54.8484 70.7649 54.637 70.6199C54.8557 70.431 55.0906 70.2652 55.3367 70.1163C55.8517 69.8072 56.4207 69.5918 57.0131 69.458C57.3521 69.3804 57.7032 69.3403 58.0559 69.3299L58.0551 69.3291Z" fill="#4E0001"/>
<path d="M55.9525 74.1585C56.2035 74.6238 56.3778 75.1363 56.4157 75.6568C55.95 75.8754 55.4367 76.0459 54.8919 76.1829C54.8911 76.1813 54.8903 76.1797 54.8895 76.178C54.7192 75.7552 54.5303 75.3781 54.3568 74.9913C54.1776 74.6054 53.9573 74.2394 53.7184 73.8502C53.6078 73.6701 53.4859 73.4867 53.3584 73.2993C53.9928 73.1912 54.4658 73.0535 54.8056 72.8717C55.2721 73.2064 55.6732 73.6468 55.9517 74.1585H55.9525Z" fill="#4E0001"/>
<path d="M50.2996 76.5271C50.2851 76.6 50.2609 76.6705 50.2407 76.7417C50.0066 76.7538 49.7734 76.7658 49.5417 76.777C49.2431 76.7922 48.938 76.8074 48.6321 76.8234C48.6006 76.7409 48.5691 76.6601 48.5369 76.5808C48.4069 76.2052 48.2834 75.8657 48.1858 75.5158C48.0865 75.1666 47.9945 74.8095 47.9009 74.4163C47.8549 74.2017 47.8064 73.9767 47.7612 73.7324C48.3012 73.6996 48.8355 73.6716 49.3553 73.6451C49.4029 73.6427 49.4457 73.6403 49.4925 73.6379C49.821 74.0015 50.0736 74.4363 50.2157 74.9096C50.3763 75.4293 50.4191 75.9922 50.3004 76.5255L50.2996 76.5271Z" fill="#4E0001"/>
<path d="M44.6587 75.6695C44.879 76.1236 45.0259 76.62 45.0751 77.1341C44.4956 77.2134 43.9226 77.3087 43.3673 77.4336C43.1897 77.1533 43.0243 76.8739 42.8564 76.5936C42.6425 76.2261 42.452 75.8441 42.2922 75.4213C42.1889 75.1434 42.0945 74.8496 42.0234 74.5213C42.4972 74.4003 42.9742 74.2922 43.4561 74.205C43.544 74.269 43.6304 74.3339 43.7127 74.4043C44.1155 74.7551 44.4294 75.1899 44.6587 75.6695Z" fill="#4E0001"/>
<path d="M45.2525 81.4831C45.3268 81.2389 45.4164 80.9938 45.535 80.7448C46.1791 80.6671 46.6973 80.5582 47.1025 80.4413C47.1428 80.527 47.1783 80.6127 47.2106 80.6983C47.3333 81.0291 47.3979 81.3638 47.4172 81.6985C47.4366 82.0332 47.41 82.3679 47.3414 82.6979C47.2857 83.027 47.2009 83.3545 47.0984 83.6812C46.4333 83.8125 45.6771 83.9102 44.811 83.9575C44.8619 83.6956 44.9079 83.4298 44.9515 83.1583C45.0007 82.886 45.0378 82.6074 45.0822 82.3279C45.1145 82.046 45.171 81.7658 45.2517 81.4831H45.2525Z" fill="#4E0001"/>
<path d="M11.3401 60.0187C13.1416 60.3262 15.4741 61.5073 17.0004 62.4298C16.8535 65.7546 17.3143 69.5414 17.6574 72.2976C17.0092 72.2976 16.3611 72.2976 15.713 72.2976C15.713 72.2976 15.4047 71.6562 14.9471 70.616C13.8897 68.2145 12.035 63.6854 11.3401 60.0179V60.0187ZM12.4394 54.5223C14.604 53.663 16.8494 54.9355 18.5799 56.4617C17.5395 57.8158 17.1077 59.9995 17.0004 62.4306C15.4741 61.5073 13.1416 60.327 11.3401 60.0195C10.8316 57.3377 10.9438 55.1172 12.4394 54.5231V54.5223ZM17.0004 62.4298C18.6243 63.4123 21.1263 65.1524 21.6356 65.1524C21.6356 67.5338 21.6356 69.9161 21.6356 72.2976C20.3095 72.2976 18.9826 72.2976 17.6565 72.2976C17.3135 69.5414 16.8535 65.7546 16.9996 62.4298H17.0004ZM18.5799 56.4609C20.3894 58.0568 21.6364 59.929 21.6364 59.929C21.6364 61.6699 21.6364 63.4115 21.6364 65.1524C21.1263 65.1524 18.6251 63.4115 17.0012 62.4298C17.1085 59.9987 17.5403 57.815 18.5807 56.4609H18.5799Z" fill="url(#paint1_linear_6_5782)"/>
<path d="M11.3499 55.689C11.567 55.1357 11.9189 54.7297 12.4403 54.5223C12.4588 54.5151 12.4782 54.5103 12.4968 54.5031L14.3047 56.9382L11.3499 55.689Z" fill="#4E0001"/>
<path d="M11.2046 59.2027C11.1158 58.5885 11.0665 58.0079 11.0682 57.4762L14.2062 58.8559L11.2046 59.2027Z" fill="#4E0001"/>
<path d="M14.5402 60.7089L11.8945 62.3473C11.7468 61.8188 11.6136 61.2959 11.499 60.7842L14.5402 60.7081V60.7089Z" fill="#4E0001"/>
<path d="M40.7182 70.6168C40.2605 71.657 39.9522 72.2984 39.9522 72.2984C39.3041 72.2984 38.656 72.2984 38.0079 72.2984C38.3509 69.5422 38.811 65.7554 38.6649 62.4306C40.1911 61.5073 42.5237 60.327 44.3252 60.0195C43.6303 63.687 41.7755 68.2161 40.7182 70.6176V70.6168ZM44.3252 60.0187C42.5237 60.3262 40.1911 61.5073 38.6649 62.4298C38.5575 59.9987 38.1257 57.815 37.0854 56.4609C38.8158 54.9355 41.0612 53.6631 43.2259 54.5215C44.7215 55.1148 44.8337 57.3362 44.3252 60.0179V60.0187ZM38.0079 72.2984C36.6818 72.2984 35.3549 72.2984 34.0288 72.2984C34.0288 69.917 34.0288 67.5347 34.0288 65.1532C34.5389 65.1532 37.0402 63.4124 38.6641 62.4306C38.811 65.7554 38.3501 69.5422 38.0071 72.2984H38.0079ZM38.6649 62.4306C37.041 63.4132 34.5389 65.1532 34.0296 65.1532C34.0296 63.4124 34.0296 61.6707 34.0296 59.9298C34.0296 59.9298 35.2758 58.0576 37.0862 56.4617C38.1265 57.8158 38.5583 59.9995 38.6657 62.4306H38.6649Z" fill="url(#paint2_linear_6_5782)"/>
<path d="M41.3613 56.9382L43.1693 54.5031C43.1878 54.5103 43.2072 54.5143 43.2258 54.5223C43.7472 54.7289 44.0983 55.1357 44.3162 55.689L41.3613 56.9382Z" fill="#4E0001"/>
<path d="M41.459 58.8561L44.597 57.4763C44.5986 58.008 44.5494 58.5886 44.4606 59.2028L41.459 58.8561Z" fill="#4E0001"/>
<path d="M44.1662 60.785C44.0516 61.2967 43.9184 61.8196 43.7707 62.3481L41.125 60.7097L44.1662 60.7858V60.785Z" fill="#4E0001"/>
<path d="M34.7916 69.1218C34.593 66.4913 36.2791 65.1757 39.8498 65.1757C44.9669 65.1757 48.2575 67.7477 45.2946 71.5809C45.0242 71.9309 44.6045 72.1375 44.1606 72.1559L37.5624 72.4329C37.3808 72.4409 37.2 72.4273 37.0216 72.3889C36.3065 72.2327 34.7908 71.6098 34.7908 69.121L34.7916 69.1218Z" fill="#F4D9C3"/>
<path d="M41.4591 72.4249C41.4591 72.9286 41.2379 73.337 40.9651 73.337C40.6923 73.337 40.4712 72.9286 40.4712 72.4249C40.4712 71.9212 40.6923 71.5128 40.9651 71.5128C41.2379 71.5128 41.4591 71.9212 41.4591 72.4249Z" fill="#4E0001"/>
<path d="M38.3929 72.3682C38.451 72.8686 38.2791 73.2994 38.0079 73.3307C37.7367 73.3619 37.4704 72.9807 37.4114 72.4803C37.3533 71.9798 37.5252 71.549 37.7964 71.5178C38.0676 71.4866 38.3339 71.8677 38.3929 72.3682Z" fill="#4E0001"/>
<path d="M44.1346 71.5185C44.4058 71.5497 44.5777 71.9805 44.5196 72.481C44.4615 72.9815 44.1943 73.3626 43.9231 73.3314C43.652 73.3002 43.48 72.8694 43.5381 72.3689C43.5963 71.8684 43.8634 71.4873 44.1346 71.5185Z" fill="#4E0001"/>
<path d="M18.6436 72.3897C18.466 72.4281 18.2852 72.4417 18.1028 72.4337L11.5047 72.1566C11.0608 72.1382 10.6411 71.9308 10.3707 71.5817C7.40777 67.7484 10.6984 65.1764 15.8155 65.1764C19.3869 65.1764 21.073 66.492 20.8736 69.1226C20.8736 71.6113 19.3579 72.2351 18.6428 72.3905L18.6436 72.3897Z" fill="#F4D9C3"/>
<path d="M14.7 71.512C14.9728 71.512 15.194 71.9204 15.194 72.424C15.194 72.9277 14.9728 73.3361 14.7 73.3361C14.4272 73.3361 14.2061 72.9277 14.2061 72.424C14.2061 71.9204 14.4272 71.512 14.7 71.512Z" fill="#4E0001"/>
<path d="M17.8687 71.5184C18.1399 71.5496 18.3118 71.9804 18.2537 72.4809C18.1956 72.9814 17.9285 73.3625 17.6573 73.3313C17.3861 73.3001 17.2142 72.8693 17.2723 72.3688C17.3304 71.8683 17.5975 71.4872 17.8687 71.5184Z" fill="#4E0001"/>
<path d="M12.1277 72.3682C12.1859 72.8686 12.0139 73.2994 11.7428 73.3307C11.4716 73.3619 11.2052 72.9807 11.1463 72.4803C11.0882 71.9798 11.2601 71.549 11.5313 71.5178C11.8025 71.4866 12.0688 71.8677 12.1277 72.3682Z" fill="#4E0001"/>
<path d="M17.2529 59.222C20.4305 59.2035 24.4636 59.3397 27.6412 59.3212C27.6348 65.0275 27.6283 71.1197 27.6283 72.2984C24.0867 72.2984 20.5451 72.2984 17.0043 72.2984C16.0382 71.1477 16.5192 64.9498 17.2529 59.222ZM20.3425 46.682C22.7848 46.5915 25.2272 46.501 27.6695 46.4106C27.6671 50.6562 27.6461 55.0308 27.642 59.3212C24.4644 59.3397 20.4313 59.2035 17.2537 59.222C17.813 54.8546 18.52 50.7603 18.8445 49.3854C19.5935 46.2088 20.3433 46.682 20.3433 46.682H20.3425ZM27.6412 59.3212C31.1772 59.2396 34.7277 59.2003 38.2653 59.222C38.9989 64.9498 39.48 71.1477 38.5139 72.2984C34.8851 72.2984 31.2571 72.2984 27.6283 72.2984C27.6275 71.1197 27.6348 65.0275 27.6412 59.3212ZM27.6687 46.4106C27.6985 46.4098 27.7284 46.4081 27.7591 46.4073C30.2313 46.4986 32.7035 46.5907 35.1756 46.682C35.1756 46.682 35.9246 46.2088 36.6745 49.3854C36.9989 50.7595 37.7051 54.8538 38.2653 59.222C34.7277 59.2003 31.1772 59.2396 27.6412 59.3212C27.6461 55.0308 27.6663 50.657 27.6687 46.4106Z" fill="url(#paint3_linear_6_5782)"/>
<path d="M23.68 72.7036C23.4541 72.7036 23.2716 72.5226 23.2716 72.2984L23.27 72.0253C23.2046 64.077 24.2434 58.6854 25.1264 55.5625C25.1877 55.3463 25.4162 55.2214 25.63 55.2814C25.848 55.3423 25.9747 55.5657 25.9133 55.7811C25.0449 58.8544 24.0231 64.1659 24.0876 72.0189L24.0893 72.2984C24.0893 72.5226 23.906 72.7036 23.6808 72.7036H23.68Z" fill="#4D0204"/>
<path d="M31.8375 72.7036C31.6115 72.7036 31.4291 72.5226 31.4291 72.2984L31.4307 72.0189C31.4953 64.1659 30.4734 58.8544 29.605 55.7811C29.5437 55.5657 29.6712 55.3423 29.8883 55.2814C30.1038 55.2214 30.3314 55.3463 30.3919 55.5625C31.2741 58.6854 32.3129 64.0778 32.2483 72.0253L32.2467 72.2984C32.2467 72.5226 32.0635 72.7036 31.8383 72.7036H31.8375Z" fill="#4D0204"/>
<path d="M28.2183 70.5158C28.0198 67.8853 29.7058 66.5697 33.2765 66.5697C38.3936 66.5697 41.6842 69.1417 38.7213 72.975C38.4509 73.3249 38.0312 73.5315 37.5873 73.5499L30.9891 73.827C30.8075 73.835 30.6268 73.8214 30.4484 73.7829C29.7333 73.6268 28.2175 73.0038 28.2175 70.515L28.2183 70.5158Z" fill="#F7E9C4"/>
<path d="M34.8866 73.8182C34.8866 74.3219 34.6655 74.7303 34.3926 74.7303C34.1198 74.7303 33.8987 74.3219 33.8987 73.8182C33.8987 73.3145 34.1198 72.9061 34.3926 72.9061C34.6655 72.9061 34.8866 73.3145 34.8866 73.8182Z" fill="#4E0001"/>
<path d="M31.8204 73.7623C31.8785 74.2628 31.7066 74.6936 31.4354 74.7248C31.1642 74.7561 30.8978 74.3749 30.8389 73.8744C30.7808 73.374 30.9527 72.9432 31.2239 72.9119C31.4951 72.8807 31.7615 73.2619 31.8204 73.7623Z" fill="#4E0001"/>
<path d="M37.5614 72.9117C37.8326 72.943 38.0045 73.3738 37.9464 73.8743C37.8883 74.3747 37.6211 74.7559 37.3499 74.7247C37.0787 74.6934 36.9068 74.2626 36.9649 73.7622C37.023 73.2617 37.2902 72.8813 37.5614 72.9117Z" fill="#4E0001"/>
<path d="M25.0933 73.7838C24.9157 73.8223 24.7349 73.8359 24.5525 73.8279L17.9544 73.5508C17.5105 73.5324 17.0908 73.325 16.8204 72.9759C13.8575 69.1426 17.1481 66.5706 22.2652 66.5706C25.8366 66.5706 27.5227 67.8862 27.3234 70.5167C27.3234 73.0055 25.8076 73.6293 25.0925 73.7846L25.0933 73.7838Z" fill="#F7E9C4"/>
<path d="M21.1497 72.9061C21.4225 72.9061 21.6437 73.3145 21.6437 73.8182C21.6437 74.3219 21.4225 74.7303 21.1497 74.7303C20.8769 74.7303 20.6558 74.3219 20.6558 73.8182C20.6558 73.3145 20.8769 72.9061 21.1497 72.9061Z" fill="#4E0001"/>
<path d="M24.3184 72.9117C24.5896 72.943 24.7615 73.3738 24.7034 73.8743C24.6453 74.3747 24.3782 74.7559 24.107 74.7247C23.8358 74.6934 23.6639 74.2626 23.722 73.7622C23.7801 73.2617 24.0472 72.8813 24.3184 72.9117Z" fill="#4E0001"/>
<path d="M18.5775 73.7623C18.6356 74.2628 18.4637 74.6936 18.1925 74.7248C17.9213 74.7561 17.6549 74.3749 17.596 73.8744C17.5379 73.374 17.7098 72.9432 17.981 72.9119C18.2522 72.8807 18.5185 73.2619 18.5775 73.7623Z" fill="#4E0001"/>
<path d="M23.4049 51.6156H18.4048C18.5807 50.6274 18.7341 49.8483 18.8439 49.3854C18.8568 49.3302 18.8697 49.2845 18.8826 49.2317L23.4049 51.6156Z" fill="#4E0001"/>
<path d="M21.6437 55.6714L17.8035 55.2894C17.9197 54.5239 18.0343 53.796 18.1457 53.1257L21.6437 55.6714Z" fill="#4E0001"/>
<path d="M20.4823 59.3525H17.2361C17.3047 58.812 17.3765 58.2763 17.4492 57.7478L20.4823 59.3525Z" fill="#4E0001"/>
<path d="M32.0496 51.569L36.6179 49.1611C36.6373 49.2372 36.6558 49.3053 36.6744 49.3861C36.7817 49.8418 36.9327 50.6041 37.1046 51.5698H32.0488L32.0496 51.569Z" fill="#4E0001"/>
<path d="M33.8101 55.6241L37.3581 53.0425C37.4711 53.7207 37.5882 54.4582 37.706 55.2374L33.8101 55.6249V55.6241Z" fill="#4E0001"/>
<path d="M34.9724 59.3051L38.0588 57.6716C38.1331 58.2089 38.2057 58.7542 38.276 59.3051H34.9724Z" fill="#4E0001"/>
<path d="M33.2113 40.1254C38.7916 40.1254 38.1806 42.8167 37.5858 45.1269C36.991 47.4371 32.6729 47.695 31.6915 50.2638C31.0369 51.9758 28.9368 52.787 25.3911 52.6973C26.2491 51.4353 24.8019 49.9491 21.0497 48.2363C17.2974 46.5242 16.3781 44.3318 18.2901 41.6604C18.2901 39.8939 27.6317 40.1262 33.2113 40.1262V40.1254Z" fill="#F7E9C4"/>
<path d="M52.2018 10.3395C50.2389 12.1596 47.1606 12.0571 45.326 10.1104C43.4914 8.16298 43.5947 5.10887 45.5568 3.28874C47.5197 1.46861 49.1105 -0.00719643 52.4326 3.51776C55.7547 7.04351 54.1639 8.51932 52.2018 10.3395Z" fill="#4E0001"/>
<path d="M45.5705 5.18337C46.0677 5.86322 46.8111 6.71363 47.8426 7.74981C46.9991 8.53216 46.1605 9.31851 45.3171 10.1009C44.6698 9.40979 44.3647 8.52415 44.3946 7.64972C44.4269 6.688 44.8684 5.83279 45.5705 5.18257V5.18337ZM47.9483 3.89974C48.6134 3.94459 49.3834 4.36819 50.3672 5.40838C49.7135 6.01456 48.8224 6.84095 47.8426 7.74981C46.8111 6.71363 46.0677 5.86322 45.5705 5.18337C46.3486 4.46188 47.0532 3.83889 47.9483 3.89974ZM47.8426 7.74981C48.6311 8.59141 49.4326 9.42981 50.2954 10.1977C49.594 10.8488 48.7054 11.2283 47.736 11.1955C46.82 11.1651 45.941 10.7671 45.3171 10.1009C46.1605 9.31851 46.9991 8.53216 47.8426 7.74981ZM50.3672 5.40838C51.0016 6.07942 51.745 6.95305 51.7466 7.92998C51.7474 8.81963 51.0735 9.47546 50.2962 10.1977C49.4334 9.42981 48.6319 8.59141 47.8434 7.74981C48.8232 6.84095 49.7143 6.01456 50.368 5.40838H50.3672Z" fill="url(#paint4_linear_6_5782)"/>
<path d="M12.3014 6.57982C12.2715 7.45425 11.9075 8.31747 11.215 8.96369C10.4264 8.12689 9.64273 7.28609 8.85499 6.44929C9.95427 5.48438 10.7533 4.68522 11.2957 4.0398C11.9519 4.73566 12.3345 5.6173 12.3022 6.57982H12.3014ZM11.2949 4.0398C10.7525 4.68522 9.95347 5.48358 8.85418 6.44929C7.93811 5.47717 7.10516 4.59313 6.49337 3.94531C7.54585 2.97238 8.34247 2.60163 9.00914 2.60083C9.90665 2.60003 10.5669 3.26867 11.2949 4.0398ZM11.215 8.96289C10.5475 9.58588 9.64354 9.9246 8.72746 9.89417C7.75812 9.86214 6.89612 9.42413 6.24075 8.72746C7.15359 8.01879 8.00994 7.23564 8.85418 6.44849C9.64273 7.28529 10.4264 8.12609 11.2142 8.96289H11.215ZM8.85499 6.44849C8.01075 7.23564 7.1544 8.01879 6.24155 8.72746C5.51434 7.95553 4.88641 7.25646 4.94775 6.36842C5.01474 5.39389 5.81621 4.57151 6.49499 3.94451C7.10597 4.59313 7.93972 5.47717 8.85579 6.44849H8.85499Z" fill="url(#paint5_linear_6_5782)"/>
<path d="M4.562 1.92021C8.11572 -1.37573 9.60323 0.202573 11.4378 2.14923C13.2724 4.09668 13.1691 7.15079 11.207 8.97092C9.24406 10.7911 6.16573 10.6886 4.33116 8.7419C2.49659 6.79445 1.00908 5.21615 4.562 1.92021Z" fill="#4E0001"/>
<path d="M12.3014 6.57982C12.2715 7.45425 11.9075 8.31747 11.215 8.96369C10.4264 8.12689 9.64273 7.28609 8.85499 6.44929C9.95427 5.48438 10.7533 4.68522 11.2957 4.0398C11.9519 4.73566 12.3345 5.6173 12.3022 6.57982H12.3014ZM11.2949 4.0398C10.7525 4.68522 9.95347 5.48358 8.85418 6.44929C7.93811 5.47717 7.10516 4.59313 6.49337 3.94531C7.54585 2.97238 8.34247 2.60163 9.00914 2.60083C9.90665 2.60003 10.5669 3.26867 11.2949 4.0398ZM11.215 8.96289C10.5475 9.58588 9.64354 9.9246 8.72746 9.89417C7.75812 9.86214 6.89612 9.42413 6.24075 8.72746C7.15359 8.01879 8.00994 7.23564 8.85418 6.44849C9.64273 7.28529 10.4264 8.12609 11.2142 8.96289H11.215ZM8.85499 6.44849C8.01075 7.23564 7.1544 8.01879 6.24155 8.72746C5.51434 7.95553 4.88641 7.25646 4.94775 6.36842C5.01474 5.39389 5.81621 4.57151 6.49499 3.94451C7.10597 4.59313 7.93972 5.47717 8.85579 6.44849H8.85499Z" fill="url(#paint6_linear_6_5782)"/>
<path d="M2.15832 24.4288C3.33993 24.3623 4.71203 23.8306 6.13981 23.974C11.8227 25.0638 19.2126 22.7344 26.7922 22.6815C27.2596 22.6783 27.7462 22.5454 28.2136 22.5526C28.3338 29.6265 29.2225 36.8294 28.467 43.8937C28.0231 43.8945 27.5751 43.8881 27.124 43.8753C20.0302 43.6695 12.0681 41.71 3.81452 36.5179C3.12686 36.0855 2.43758 35.6307 1.74669 35.1526C0.416568 34.2325 -0.201682 32.591 0.18654 31.0295C0.580412 29.4456 1.20754 27.1914 2.15832 24.4296V24.4288ZM9.66044 7.75532C10.2149 6.76237 11.1221 6.01045 12.2045 5.6429C14.9713 4.70281 20.8971 3.07806 28.4807 3.2174C28.8496 3.2238 29.2217 3.23501 29.5978 3.25023C29.5711 3.63299 29.5614 4.01816 29.5162 4.41213C28.3298 10.0375 28.1078 16.3091 28.2144 22.5526C27.7471 22.5454 27.2604 22.6775 26.793 22.6815C19.2134 22.7344 11.8227 25.0638 6.14062 23.974C4.71283 23.8314 3.34074 24.3623 2.15913 24.4288C3.69426 19.9661 6.07121 14.179 9.66125 7.75532H9.66044ZM28.2144 22.5534C35.7036 22.6751 43.079 20.7973 49.2026 21.04C50.2962 21.0632 51.3374 20.9927 52.1413 21.3146C53.0985 24.8076 54.0509 28.7561 54.8185 32.9033C55.1139 34.4992 54.3971 36.1111 52.9992 36.9519C52.4092 37.3067 51.7111 37.7062 50.9128 38.1306C46.2776 40.5938 38.2646 43.8785 28.4686 43.8937C29.2241 36.8294 28.3354 29.6265 28.2152 22.5526L28.2144 22.5534ZM29.5978 3.25103C34.4735 3.45042 39.9781 4.39772 45.7368 6.70472C46.7037 7.09229 47.506 7.78174 48.0218 8.66178C48.1598 8.8964 48.2768 9.14464 48.3712 9.40489C49.2098 11.7127 50.6804 15.9848 52.1413 21.3146C51.3374 20.9927 50.297 21.0632 49.2026 21.04C43.079 20.7973 35.7044 22.6751 28.2144 22.5534C28.1078 16.3091 28.3298 10.0383 29.5162 4.41293C29.5614 4.01896 29.5711 3.63459 29.5978 3.25103Z" fill="url(#paint7_linear_6_5782)"/>
<path d="M46.7223 36.9319C43.5665 39.0035 36.3154 42.9464 27.1595 42.6846C21.3547 42.5188 14.784 40.6619 8.0067 35.5674C7.00427 34.8139 6.54018 33.4654 6.8372 32.1794C7.62413 28.7705 9.63223 21.5829 14.0471 13.0171C14.4685 12.1995 15.1553 11.5789 15.9737 11.2739C17.5452 10.6885 20.4645 9.78124 24.2482 9.40808L19.3023 26.9088C18.7679 28.7986 19.4621 30.8109 21.0375 31.9984C24.0933 34.3014 29.576 36.8678 35.4938 32.1618C36.7617 31.1536 37.3945 29.5505 37.2105 27.9481L35.1564 10.0647C37.1403 10.5099 39.2 11.1585 41.305 12.0714C42.2291 12.4726 42.9539 13.2734 43.2889 14.2863C44.3292 17.4253 46.665 24.9861 48.1065 33.5975C48.3261 34.9092 47.7812 36.2368 46.7223 36.9311V36.9319Z" fill="#F7E9C4"/>
<path d="M19.3021 26.9089L24.2481 9.40818C25.5016 9.28407 26.8503 9.2192 28.2756 9.24323C30.4145 9.28006 32.7285 9.52029 35.1563 10.0656L37.2104 27.949C37.3944 29.5514 36.7616 31.1545 35.4936 32.1627C29.5759 36.8679 24.0932 34.3015 21.0374 31.9993C19.4628 30.8126 18.7686 28.7995 19.3021 26.9097V26.9089Z" fill="#E2582C"/>
<path d="M15.2102 16.6631C15.2506 15.4796 16.2498 14.5523 17.4435 14.5923C18.6364 14.6324 19.571 15.6237 19.5307 16.8072C19.4903 17.9907 18.4911 18.918 17.2982 18.878C16.1053 18.838 15.1706 17.8466 15.2102 16.6631Z" fill="#935D2E"/>
<path d="M20.5929 18.0116C20.5526 19.1951 19.5533 20.1224 18.3604 20.0823C17.1675 20.0423 16.2329 19.051 16.2732 17.8674C16.3136 16.6839 17.3128 15.7566 18.5057 15.7967C19.6986 15.8367 20.6333 16.828 20.5929 18.0116Z" fill="#C8852E"/>
<path d="M20.1312 17.4887C20.0909 18.6723 19.0917 19.5995 17.8988 19.5603C16.7058 19.5203 15.7712 18.5289 15.8116 17.3446C15.8519 16.1611 16.8511 15.2338 18.044 15.2738C19.237 15.3139 20.1716 16.3052 20.1312 17.4887Z" fill="white"/>
<path d="M20.0037 17.7922C19.9722 18.7187 19.1893 19.445 18.2555 19.4137C17.3217 19.3825 16.5896 18.6058 16.6211 17.6793C16.6526 16.7528 17.4355 16.0265 18.3693 16.0577C19.3031 16.089 20.0352 16.8657 20.0037 17.7922Z" fill="#3D2311"/>
<path d="M19.6268 16.7992C19.6187 17.0458 19.4097 17.2388 19.1611 17.2308C18.9125 17.2228 18.718 17.0154 18.7261 16.7688C18.7341 16.5221 18.9432 16.3291 19.1918 16.3372C19.4404 16.3452 19.6349 16.5526 19.6268 16.7992Z" fill="white"/>
<path d="M17.9463 18.1413C17.9318 18.5721 17.5678 18.91 17.1336 18.8956C16.6993 18.8812 16.3587 18.52 16.3733 18.0892C16.3878 17.6584 16.7518 17.3205 17.186 17.3349C17.6202 17.3493 17.9608 17.7105 17.9463 18.1413Z" fill="white"/>
<path d="M36.9192 17.3877C36.9595 16.2042 37.9587 15.2769 39.1525 15.3169C40.3454 15.357 41.28 16.3483 41.2397 17.5318C41.1993 18.7154 40.2001 19.6426 39.0072 19.6026C37.8143 19.5626 36.8796 18.5712 36.9192 17.3877Z" fill="#935D2E"/>
<path d="M42.3009 18.7362C42.2605 19.9197 41.2613 20.847 40.0684 20.807C38.8755 20.7669 37.9409 19.7756 37.9812 18.592C38.0216 17.4085 39.0208 16.4812 40.2137 16.5213C41.4066 16.5613 42.3413 17.5527 42.3009 18.7362Z" fill="#C8852E"/>
<path d="M41.8393 18.2125C41.7989 19.396 40.7997 20.3233 39.6068 20.2833C38.4139 20.2432 37.4792 19.2519 37.5196 18.0684C37.5599 16.8848 38.5591 15.9575 39.7521 15.9976C40.945 16.0376 41.8796 17.029 41.8393 18.2125Z" fill="white"/>
<path d="M41.7127 18.5159C41.6812 19.4424 40.8983 20.1687 39.9645 20.1375C39.0307 20.1063 38.2986 19.3295 38.3301 18.403C38.3616 17.4765 39.1445 16.7503 40.0783 16.7815C41.0121 16.8127 41.7442 17.5895 41.7127 18.5159Z" fill="#3D2311"/>
<path d="M41.3348 17.5231C41.3268 17.7697 41.1177 17.9627 40.8691 17.9547C40.6205 17.9467 40.426 17.7393 40.4341 17.4926C40.4422 17.246 40.6512 17.053 40.8998 17.061C41.1484 17.069 41.3429 17.2764 41.3348 17.5231Z" fill="white"/>
<path d="M39.6553 18.8652C39.6408 19.296 39.2768 19.6339 38.8425 19.6195C38.4083 19.6051 38.0677 19.2439 38.0822 18.8131C38.0968 18.3823 38.4608 18.0444 38.895 18.0588C39.3292 18.0732 39.6698 18.4344 39.6553 18.8652Z" fill="white"/>
<path d="M37.0306 29.8933C36.7602 30.7733 36.2372 31.5701 35.4938 32.1619C29.5761 36.8672 24.0933 34.3007 21.0376 31.9985C20.0158 31.229 19.3685 30.1111 19.1829 28.9052C22.5961 27.499 29.4728 25.7437 37.0314 29.8941L37.0306 29.8933Z" fill="#4E0001"/>
<path d="M26.1692 38.0778C26.0933 38.0778 26.0231 38.0698 25.9593 38.0578C24.9343 37.8616 24.3128 36.2889 24.199 35.975C24.1223 35.7644 24.2321 35.5322 24.4444 35.4561C24.6558 35.38 24.8907 35.489 24.9682 35.6988C25.1821 36.2809 25.6938 37.181 26.1151 37.261C26.1667 37.2707 26.3233 37.3003 26.5832 37.012C27.7382 35.7276 27.9246 34.7074 27.9271 34.697C27.9642 34.4768 28.174 34.3254 28.3968 34.3639C28.618 34.3999 28.7689 34.6057 28.7342 34.8259C28.7261 34.8764 28.5227 36.0727 27.1934 37.5517C26.8221 37.9649 26.4565 38.077 26.17 38.077L26.1692 38.0778Z" fill="#4D0204"/>
<path d="M30.334 38.2171C30.0378 38.2171 29.6479 38.0978 29.275 37.6221C28.049 36.0582 27.9272 34.8507 27.9223 34.8002C27.9021 34.5768 28.0684 34.3798 28.2928 34.3598C28.5163 34.3414 28.7165 34.504 28.7367 34.7274C28.7375 34.7354 28.8545 35.7652 29.9199 37.124C30.1604 37.4307 30.3186 37.4099 30.3703 37.4035C30.7981 37.3507 31.3687 36.4882 31.6197 35.9213C31.7101 35.7163 31.9506 35.6226 32.158 35.7131C32.3647 35.8036 32.4583 36.0422 32.3679 36.2472C32.2331 36.5523 31.5067 38.0802 30.4712 38.2083C30.4284 38.2131 30.3824 38.2163 30.334 38.2163V38.2171Z" fill="#4D0204"/>
<path d="M21.0142 13.0661C21.7987 12.6873 22.6316 12.4871 23.4726 12.3574C24.3136 12.2253 25.1676 12.1828 26.0167 12.2165C26.8649 12.2581 27.7132 12.3502 28.5389 12.5536C29.367 12.7353 30.1749 13.0132 30.9376 13.3944L30.8698 13.6634C30.0207 13.6666 29.2064 13.5978 28.3928 13.5561C27.5808 13.5041 26.7737 13.4728 25.9682 13.4312C24.3548 13.3623 22.747 13.3463 21.086 13.3343L21.0158 13.0661H21.0142Z" fill="#4D0204"/>
<path d="M25.3555 20.9368C26.3652 20.5059 27.4281 20.2793 28.4992 20.1328C29.571 19.9854 30.6558 19.9462 31.7357 19.9822C32.8148 20.0311 33.8931 20.1512 34.9472 20.3834C36.0037 20.5964 37.0376 20.9231 38.0255 21.3564L37.9577 21.6254C36.8835 21.5758 35.8439 21.458 34.8011 21.386C33.7616 21.2915 32.7228 21.2539 31.6873 21.1962C30.6501 21.1433 29.613 21.1401 28.5718 21.1353C27.5314 21.1409 26.4822 21.1618 25.4273 21.205L25.3571 20.9368H25.3555Z" fill="#4D0204"/>
<path d="M23.634 14.6523C24.1118 14.344 24.63 14.1806 25.1571 14.0733C25.6841 13.9628 26.2224 13.9252 26.7568 13.9452C27.2911 13.9708 27.8246 14.0397 28.3379 14.195C28.8536 14.3344 29.3532 14.5466 29.8093 14.8557L29.7415 15.1247C29.1983 15.1992 28.693 15.1968 28.191 15.1976C27.6906 15.1944 27.1982 15.1864 26.7067 15.1608C26.2152 15.1375 25.7253 15.1183 25.2281 15.0759C24.7317 15.0423 24.2273 14.999 23.7043 14.9205L23.634 14.6523Z" fill="#4D0204"/>
<path d="M28.9487 22.0762C29.4265 21.7679 29.9447 21.6046 30.4718 21.4973C30.9988 21.3868 31.5371 21.3491 32.0714 21.3691C32.6058 21.3948 33.1393 21.4636 33.6526 21.619C34.1683 21.7583 34.6679 21.9705 35.124 22.2796L35.0562 22.5487C34.513 22.6231 34.0077 22.6207 33.5057 22.6215C33.0053 22.6183 32.5129 22.6103 32.0214 22.5847C31.5299 22.5615 31.04 22.5423 30.5428 22.4998C30.0464 22.4662 29.542 22.423 29.0189 22.3445L28.9487 22.0762Z" fill="#4D0204"/>
<path d="M45.4712 15.5275C47.1153 14.6699 48.5431 13.9628 49.7545 13.4055C49.9894 14.1166 50.2356 14.8805 50.4906 15.6949L45.4712 15.5275Z" fill="#4E0001"/>
<path d="M48.665 19.1662L51.3043 18.3734C51.4334 18.8122 51.5634 19.2599 51.6941 19.7179L48.665 19.1662Z" fill="#4E0001"/>
<path d="M47.5674 22.6615L52.5473 22.8273C52.7636 23.6472 52.9775 24.4888 53.1881 25.3489L47.5674 22.6615Z" fill="#4E0001"/>
<path d="M11.374 14.3897L6.32788 14.2215C6.66283 13.5136 7.01393 12.7929 7.38036 12.061C8.54018 12.6968 9.87192 13.4728 11.374 14.3897Z" fill="#4E0001"/>
<path d="M7.94122 17.8073L4.55054 18.194C4.74828 17.7256 4.95329 17.2508 5.16636 16.7671L7.94202 17.8073H7.94122Z" fill="#4E0001"/>
<path d="M8.80011 21.3683L2.32544 23.9484C2.63134 23.0747 2.97032 22.1514 3.3416 21.1865L8.80011 21.3683Z" fill="#4E0001"/>
<path d="M23.0385 35.5626C22.9497 35.5594 22.8617 35.5234 22.7955 35.4553C22.6607 35.3168 19.4928 32.1562 15.2208 35.1414C15.061 35.2527 14.8398 35.2151 14.7276 35.0565C14.6146 34.898 14.6534 34.6786 14.8132 34.5665C19.5921 31.2265 23.2693 34.93 23.3064 34.9676C23.442 35.1078 23.4372 35.3304 23.2959 35.4649C23.2241 35.533 23.1313 35.5658 23.0385 35.5626Z" fill="#4C0002"/>
<path d="M14.3958 37.9337C14.3248 37.9313 14.2546 37.9081 14.1941 37.8624C14.0383 37.7455 14.0076 37.5245 14.1263 37.3699C17.6598 32.7487 22.2959 35.1718 22.3419 35.1967C22.5138 35.2895 22.5776 35.5026 22.4839 35.6731C22.3903 35.8437 22.1764 35.9069 22.0037 35.8141C21.8326 35.7228 17.8479 33.664 14.6896 37.7943C14.6178 37.8888 14.5064 37.9369 14.395 37.9329L14.3958 37.9337Z" fill="#4C0002"/>
<path d="M16.0562 40.8557C16.0158 40.8541 15.9755 40.8461 15.9359 40.83C15.7543 40.7572 15.6663 40.553 15.7398 40.3728C17.923 34.9917 23.0377 36.1183 23.0894 36.1312C23.2799 36.176 23.3977 36.365 23.3525 36.554C23.3081 36.7429 23.1176 36.8591 22.9271 36.8158C22.7423 36.7734 18.3484 35.8253 16.396 40.6363C16.3387 40.7772 16.1998 40.8613 16.0554 40.8565L16.0562 40.8557Z" fill="#4C0002"/>
<path d="M33.5536 35.9141C33.4616 35.9109 33.3704 35.8725 33.3034 35.7996C33.1718 35.6563 33.1823 35.4337 33.3268 35.3032C33.3655 35.2679 37.2849 31.8174 41.8282 35.4689C41.9799 35.5914 42.0033 35.8124 41.8806 35.963C41.7571 36.1135 41.5344 36.1368 41.3826 36.015C37.3067 32.7391 33.945 35.6955 33.8038 35.8229C33.7328 35.8869 33.6424 35.9173 33.5536 35.9141Z" fill="#4C0002"/>
<path d="M42.017 38.8545C41.9056 38.8505 41.7982 38.7952 41.7329 38.6959C38.8603 34.363 34.7432 36.1543 34.5697 36.2328C34.3905 36.3129 34.1815 36.2352 34.1008 36.059C34.0201 35.8828 34.0975 35.6746 34.2751 35.5938C34.3227 35.5722 39.1122 33.463 42.3253 38.3091C42.4326 38.4717 42.3874 38.6895 42.2244 38.796C42.1606 38.8376 42.0888 38.8561 42.0178 38.8537L42.017 38.8545Z" fill="#4C0002"/>
<path d="M40.1621 41.6596C40.0177 41.6548 39.8845 41.5619 39.8377 41.4169C38.2105 36.4698 33.7682 37.1393 33.5809 37.1697C33.388 37.2017 33.2056 37.072 33.1734 36.8806C33.1411 36.6892 33.2718 36.5083 33.4647 36.4762C33.5164 36.4674 38.6972 35.6843 40.5108 41.1983C40.5714 41.3833 40.4705 41.5811 40.284 41.642C40.2437 41.6548 40.2025 41.6604 40.1621 41.6596Z" fill="#4C0002"/>
<path d="M21.6477 3.66907L23.6421 7.92672L17.9197 4.06785C19.1312 3.90049 20.3749 3.76676 21.6477 3.66907Z" fill="#4C0002"/>
<path d="M29.6178 3.28717C30.4903 3.31599 31.3435 3.37605 32.1756 3.46333L29.4338 8.70513L27.115 3.29037C27.9318 3.26154 28.7655 3.25994 29.617 3.28797L29.6178 3.28717Z" fill="#4C0002"/>
<path d="M40.0677 4.80698L34.0967 8.27589L36.3752 4.16077C37.6391 4.34334 38.8708 4.56035 40.0677 4.80778V4.80698Z" fill="#4C0002"/>
<defs>
<linearGradient id="paint0_linear_6_5782" x1="38.4188" y1="82.1742" x2="56.4794" y2="68.1028" gradientUnits="userSpaceOnUse">
<stop stop-color="#FF9500"/>
<stop offset="1" stop-color="#FF6E00"/>
</linearGradient>
<linearGradient id="paint1_linear_6_5782" x1="15.1012" y1="70.6672" x2="17.0653" y2="62.7324" gradientUnits="userSpaceOnUse">
<stop stop-color="#FF6C00"/>
<stop offset="1" stop-color="#FF8C00"/>
</linearGradient>
<linearGradient id="paint2_linear_6_5782" x1="40.5656" y1="70.6673" x2="38.6015" y2="62.7324" gradientUnits="userSpaceOnUse">
<stop stop-color="#FF6C00"/>
<stop offset="1" stop-color="#FF8C00"/>
</linearGradient>
<linearGradient id="paint3_linear_6_5782" x1="17.24" y1="72.3008" x2="27.6967" y2="59.3357" gradientUnits="userSpaceOnUse">
<stop stop-color="#FF6E00"/>
<stop offset="1" stop-color="#FF9000"/>
</linearGradient>
<linearGradient id="paint4_linear_6_5782" x1="44.4236" y1="7.66333" x2="47.8538" y2="7.76095" gradientUnits="userSpaceOnUse">
<stop stop-color="#FF6700"/>
<stop offset="1" stop-color="#FF9500"/>
</linearGradient>
<linearGradient id="paint5_linear_6_5782" x1="12.2683" y1="6.56621" x2="8.86233" y2="6.43605" gradientUnits="userSpaceOnUse">
<stop stop-color="#FF6700"/>
<stop offset="1" stop-color="#FF9500"/>
</linearGradient>
<linearGradient id="paint6_linear_6_5782" x1="12.2683" y1="6.56621" x2="8.86233" y2="6.43605" gradientUnits="userSpaceOnUse">
<stop stop-color="#FF6700"/>
<stop offset="1" stop-color="#FF9500"/>
</linearGradient>
<linearGradient id="paint7_linear_6_5782" x1="4.05181" y1="36.4987" x2="28.1372" y2="22.4968" gradientUnits="userSpaceOnUse">
<stop stop-color="#FF6C00"/>
<stop offset="1" stop-color="#FF9400"/>
</linearGradient>
</defs>
</svg>
