<svg width="82" height="82" viewBox="0 0 82 82" fill="none" xmlns="http://www.w3.org/2000/svg">
<path d="M61.2869 53.3445C60.2246 55.49 58.7994 57.5025 57.0149 59.2869C55.2305 61.0713 53.22 62.4947 51.0745 63.557C49.6435 60.6684 50.1775 57.1414 52.5244 54.7964C54.8733 52.4475 58.4003 51.9135 61.2869 53.3445Z" fill="#E0974F"/>
<path d="M29.4752 54.7963C31.8221 57.1432 32.358 60.6702 30.927 63.5588C28.7816 62.4946 26.771 61.0712 24.9847 59.2868C23.2211 57.5233 21.7864 55.5184 20.7051 53.3501C23.5936 51.9115 27.1245 52.4474 29.4752 54.7963Z" fill="#E0974F"/>
<path d="M46.392 37.8794C49.3661 40.8534 49.3661 45.6898 46.392 48.6638C43.4199 51.636 38.5816 51.636 35.6094 48.6638C32.6354 45.6898 32.6354 40.8534 35.6094 37.8794C37.0955 36.3933 39.0472 35.6503 41.0007 35.6503C42.9524 35.6503 44.9059 36.3933 46.392 37.8794Z" fill="#E0974F"/>
<path d="M57.015 27.2565C58.7995 29.0409 60.2247 31.0515 61.287 33.197C58.3985 34.6298 54.8715 34.0939 52.5245 31.747C50.1776 29.4001 49.6417 25.873 51.0746 22.9845C53.2201 24.0487 55.2306 25.4721 57.015 27.2565Z" fill="#E0974F"/>
<path d="M30.927 22.9845C32.3599 25.8711 31.824 29.3982 29.4752 31.747C27.1264 34.0958 23.5955 34.6298 20.7051 33.1932C21.7864 31.023 23.2211 29.02 24.9847 27.2565C26.771 25.4721 28.7816 24.0468 30.927 22.9845Z" fill="#E0974F"/>
<path d="M62.3893 35.8309C64.054 40.6406 64.054 45.9027 62.3912 50.7106C58.4518 48.8406 53.6914 49.597 50.5102 52.7801C47.329 55.9612 46.5708 60.7216 48.4407 64.661C43.6329 66.3257 38.3708 66.3257 33.561 64.661C35.431 60.7216 34.6727 55.9631 31.4915 52.782C28.3066 49.5951 23.5405 48.8387 19.5992 50.7163C18.7801 48.3541 18.3525 45.8457 18.3525 43.2707C18.3525 40.6958 18.7801 38.1873 19.5992 35.8252C21.0244 36.5036 22.5561 36.8399 24.0821 36.8399C26.7787 36.8399 29.4582 35.7948 31.4915 33.7614C34.6746 30.5802 35.4329 25.8198 33.561 21.8823C35.965 21.05 38.4829 20.6338 41.0009 20.6338C43.5188 20.6338 46.0368 21.05 48.4407 21.8823C46.5689 25.8198 47.3271 30.5802 50.5102 33.7633C52.5436 35.7967 55.2212 36.8399 57.9178 36.8399C59.4399 36.8399 60.9678 36.5055 62.3893 35.8309ZM48.4084 50.6783C52.4923 46.5944 52.4923 39.9489 48.4084 35.8632C44.3246 31.7793 37.6772 31.7793 33.5933 35.8632C29.5095 39.9489 29.5095 46.5944 33.5933 50.6783C35.6362 52.7211 38.3176 53.7416 41.0009 53.7416C43.6842 53.7416 46.3656 52.7211 48.4084 50.6783Z" fill="#AD723D"/>
<path d="M25.8797 63.8059C25.1138 67.0042 22.9094 69.6552 19.9012 70.9797C18.9453 67.3729 19.981 63.5418 22.5864 60.9098C22.7137 61.0409 22.841 61.172 22.9702 61.3013C23.89 62.2229 24.863 63.0572 25.8797 63.8059Z" fill="#77CE6F"/>
<path d="M43.1386 68.6688L41.0007 75.6564L38.8628 68.6688C39.5735 68.7277 40.2862 68.7581 41.0007 68.7581C41.7133 68.7581 42.4279 68.7277 43.1386 68.6688Z" fill="#77CE6F"/>
<path d="M59.4151 60.9098C62.0186 63.5437 63.0543 67.3748 62.1022 70.9797C59.0921 69.6571 56.8858 67.0061 56.1218 63.8059C57.1385 63.0572 58.1115 62.2229 59.0313 61.3013C59.1605 61.172 59.2878 61.0409 59.4151 60.9098Z" fill="#77CE6F"/>
<path d="M70.2242 30.755C73.6373 33.2273 76.0051 36.8266 76.9249 40.9275C73.2553 41.5566 69.4812 40.9788 66.1765 39.2875C65.5152 35.0821 63.8049 31.0115 61.0417 27.5054C64.3274 27.6783 67.5086 28.79 70.2242 30.755Z" fill="#77CE6F"/>
<path d="M20.9559 27.5054C18.2403 30.9431 16.4806 34.9832 15.8079 39.297C12.507 40.9807 8.73858 41.5546 5.07471 40.9275C5.99638 36.8266 8.36421 33.2273 11.7772 30.755C14.4909 28.79 17.6721 27.6783 20.9559 27.5054Z" fill="#77CE6F"/>
<path d="M48.0151 10.2332C48.1158 10.8508 48.1709 11.4912 48.1709 12.1487C48.1709 14.4367 47.502 16.6468 46.3161 18.3401C42.8138 17.6008 39.1879 17.6008 35.6875 18.3401C34.5017 16.6468 33.8328 14.4367 33.8328 12.1487C33.8328 11.4912 33.886 10.8508 33.9886 10.2332L37.4852 8.88392C38.2207 8.60077 38.5855 7.77602 38.3024 7.04058C38.0192 6.30705 37.1964 5.94028 36.4609 6.22344L35.2086 6.70612C36.5142 4.401 38.6235 2.89783 41.0009 2.89783C43.3782 2.89783 45.4876 4.401 46.7931 6.70612L45.5427 6.22344C44.8073 5.94028 43.9825 6.30705 43.6994 7.04058C43.4162 7.77602 43.783 8.60077 44.5165 8.88392L48.0151 10.2332Z" fill="#77CE6F"/>
<path d="M80.0035 41.7789C80.1555 42.5505 79.6539 43.2992 78.8823 43.4512L77.9131 43.6432C76.6209 43.8997 75.3154 44.0252 74.0136 44.0252C71.4349 44.0252 68.8732 43.5292 66.4768 42.5581C66.6346 48.2534 64.8996 53.9925 61.2737 58.7395C64.9566 62.3312 66.2773 67.7719 64.5499 72.7109L64.3409 73.3076C64.1356 73.8948 63.5845 74.2616 62.9954 74.2616C62.8396 74.2616 62.6818 74.2369 62.526 74.1818L61.9274 73.9727C57.9253 72.5722 54.879 69.3929 53.6153 65.4326C51.295 66.7533 48.8112 67.6807 46.259 68.2128L42.3633 80.9432C42.1809 81.5437 41.6279 81.9523 41.0008 81.9523C40.3756 81.9523 39.8226 81.5437 39.6382 80.9451L35.7425 68.2128C33.1904 67.6807 30.7066 66.7533 28.3863 65.4326C27.1206 69.3948 24.0744 72.5722 20.0742 73.9727L19.4774 74.1818C19.3254 74.235 19.1658 74.2616 19.0062 74.2616C18.7952 74.2616 18.5843 74.2141 18.3885 74.121C18.0484 73.9575 17.7861 73.6649 17.6626 73.3076L17.4536 72.7109C15.7224 67.77 17.0431 62.3312 20.726 58.7395C17.3377 54.3174 15.5019 48.9356 15.5019 43.2707C15.5019 43.0351 15.5057 42.7994 15.5114 42.5638C13.1189 43.5311 10.561 44.0252 7.98604 44.0252C6.6843 44.0252 5.37877 43.8997 4.08653 43.6432L3.11735 43.4512C2.34581 43.2992 1.84412 42.5505 1.99615 41.777L2.18808 40.806C3.17626 35.8176 5.98878 31.4277 10.1049 28.4461C14.0139 25.6165 18.7572 24.2976 23.5309 24.6967C26.2693 22.1198 29.4429 20.2632 32.8084 19.1287C31.6226 17.1048 30.9821 14.6933 30.9821 12.1487C30.9821 5.4766 35.4765 0.0473022 41.0008 0.0473022C46.527 0.0473022 51.0213 5.4766 51.0213 12.1487C51.0213 14.6933 50.3809 17.1048 49.1951 19.1287C52.5587 20.2651 55.7323 22.1198 58.4688 24.6967C63.2444 24.2976 67.9876 25.6165 71.8947 28.4461C76.0128 31.4277 78.8234 35.8176 79.8116 40.806L80.0035 41.7789ZM76.925 40.9276C76.0052 36.8266 73.6374 33.2274 70.2243 30.755C67.5087 28.7901 64.3275 27.6784 61.0418 27.5054C63.805 31.0116 65.5153 35.0821 66.1766 39.2876C69.4813 40.9789 73.2554 41.5566 76.925 40.9276ZM62.3911 50.7106C64.0539 45.9027 64.0539 40.6406 62.3892 35.8309C60.9677 36.5055 59.4399 36.8399 57.9177 36.8399C55.2211 36.8399 52.5435 35.7966 50.5101 33.7633C47.327 30.5802 46.5688 25.8198 48.4406 21.8823C46.0367 21.0499 43.5187 20.6338 41.0008 20.6338C38.4828 20.6338 35.9649 21.0499 33.5609 21.8823C35.4328 25.8198 34.6745 30.5802 31.4914 33.7614C29.4581 35.7947 26.7786 36.8399 24.082 36.8399C22.556 36.8399 21.0243 36.5036 19.5991 35.8251C18.78 38.1873 18.3524 40.6957 18.3524 43.2707C18.3524 45.8457 18.78 48.3541 19.5991 50.7163C23.5404 48.8387 28.3065 49.5951 31.4914 52.782C34.6726 55.9631 35.4309 60.7216 33.5609 64.661C38.3707 66.3257 43.6328 66.3257 48.4406 64.661C46.5707 60.7216 47.3289 55.9612 50.5101 52.7801C53.6913 49.597 58.4517 48.8406 62.3911 50.7106ZM62.1022 70.9797C63.0543 67.3747 62.0186 63.5436 59.4151 60.9097C59.2878 61.0409 59.1605 61.172 59.0313 61.3012C58.1115 62.2229 57.1385 63.0571 56.1218 63.8059C56.8858 67.0061 59.0921 69.657 62.1022 70.9797ZM61.287 33.197C60.2247 31.0515 58.7994 29.0409 57.015 27.2565C55.2306 25.4721 53.22 24.0487 51.0745 22.9845C49.6417 25.873 50.1776 29.4001 52.5245 31.747C54.8714 34.0939 58.3985 34.6298 61.287 33.197ZM57.015 59.2868C58.7994 57.5024 60.2247 55.49 61.287 53.3445C58.4004 51.9135 54.8733 52.4475 52.5245 54.7963C50.1776 57.1414 49.6436 60.6684 51.0745 63.5569C53.22 62.4946 55.2306 61.0713 57.015 59.2868ZM48.1708 12.1487C48.1708 11.4912 48.1157 10.8508 48.015 10.2332L44.5164 8.88392C43.7829 8.60077 43.4161 7.77602 43.6993 7.04058C43.9824 6.30705 44.8072 5.94028 45.5426 6.22343L46.793 6.70612C45.4875 4.401 43.3781 2.89782 41.0008 2.89782C38.6234 2.89782 36.5141 4.401 35.2085 6.70612L36.4608 6.22343C37.1963 5.94028 38.0191 6.30705 38.3023 7.04058C38.5854 7.77602 38.2206 8.60077 37.4851 8.88392L33.9885 10.2332C33.8859 10.8508 33.8327 11.4912 33.8327 12.1487C33.8327 14.4367 34.5016 16.6468 35.6874 18.34C39.1879 17.6008 42.8137 17.6008 46.3161 18.34C47.5019 16.6468 48.1708 14.4367 48.1708 12.1487ZM41.0008 75.6564L43.1387 68.6689C42.4279 68.7278 41.7134 68.7582 41.0008 68.7582C40.2863 68.7582 39.5736 68.7278 38.8629 68.6689L41.0008 75.6564ZM29.4752 31.747C31.824 29.3982 32.3599 25.8711 30.927 22.9845C28.7815 24.0468 26.771 25.4721 24.9847 27.2565C23.2211 29.02 21.7864 31.023 20.7051 33.1932C23.5955 34.6298 27.1263 34.0958 29.4752 31.747ZM30.927 63.5588C32.358 60.6703 31.8221 57.1433 29.4752 54.7963C27.1244 52.4475 23.5936 51.9116 20.7051 53.3502C21.7864 55.5185 23.2211 57.5233 24.9847 59.2868C26.771 61.0713 28.7815 62.4946 30.927 63.5588ZM19.9012 70.9797C22.9095 69.6551 25.1139 67.0042 25.8797 63.8059C24.863 63.0571 23.8901 62.2229 22.9703 61.3012C22.8411 61.172 22.7137 61.0409 22.5864 60.9097C19.981 63.5417 18.9453 67.3728 19.9012 70.9797ZM15.8079 39.2971C16.4806 34.9833 18.2403 30.9432 20.9559 27.5054C17.6721 27.6784 14.4909 28.7901 11.7772 30.755C8.36421 33.2274 5.99638 36.8266 5.07471 40.9276C8.73858 41.5547 12.507 40.9808 15.8079 39.2971Z" fill="#4D4D4D"/>
<path d="M48.4083 35.8632C52.4921 39.9489 52.4921 46.5944 48.4083 50.6783C46.3654 52.7212 43.684 53.7417 41.0007 53.7417C38.3174 53.7417 35.636 52.7212 33.5932 50.6783C29.5093 46.5944 29.5093 39.9489 33.5932 35.8632C37.677 31.7793 44.3244 31.7793 48.4083 35.8632ZM46.392 48.6639C49.366 45.6899 49.366 40.8535 46.392 37.8794C44.9059 36.3934 42.9524 35.6503 41.0007 35.6503C39.0472 35.6503 37.0955 36.3934 35.6094 37.8794C32.6354 40.8535 32.6354 45.6899 35.6094 48.6639C38.5816 51.6361 43.4199 51.6361 46.392 48.6639Z" fill="#4D4D4D"/>
</svg>
